%
M48
M72
T01C0.01181
T02C0.01220
T03C0.04331
%
T01
X35949Y52189
X56426Y60363
X61047Y71283
X68429Y70890
X81864Y73091
X77564Y61491
X99433Y60063
T02
X35949Y34965
X35949Y56618
X53665Y64492
X61047Y64984
X69129Y64892
X73350Y71382
X87880Y73091
T03
X40949Y37760
X30949Y37760
X30949Y47760
X40949Y47760
X40949Y57760
X30949Y57760
X113626Y57760
X123626Y57760
X123626Y47760
X113626Y47760
X113626Y37760
X123626Y37760
M30
