%
M48
M72
T01C0.01220
T02C0.04331
%
T01
X35949Y34965
X24138Y42839
X35949Y50713
X49728Y52681
X56126Y58094
X60555Y57602
X64984Y55634
X74335Y50713
X80240Y50713
X80240Y46776
X74335Y46776
X65476Y42839
X77287Y34472
X70398Y32012
X70398Y24138
X86146Y34965
X95004Y36933
X98941Y42839
X119118Y53173
X131913Y53173
X95004Y30043
X93035Y56618
X91067Y65476
X97957Y71382
X81224Y70398
X68429Y72366
X63508Y63508
T02
X40949Y37760
X30949Y37760
X30949Y47760
X40949Y47760
X40949Y57760
X30949Y57760
X113626Y57760
X123626Y57760
X123626Y47760
X113626Y47760
X113626Y37760
X123626Y37760
M30
