%
M48
M72
T01C0.01220
T02C0.04331
%
T01
X35949Y34965
X24138Y42839
X35949Y50713
X48252Y42839
X49728Y52681
X56126Y58094
X60555Y57602
X64000Y53665
X79256Y52681
X80240Y46776
X94020Y42839
X95004Y36933
X101402Y32012
X119118Y53173
X128469Y52681
X97957Y71382
X91067Y65476
X81224Y70398
X80240Y63508
X93035Y56618
X68429Y72366
X63508Y63508
X61539Y32012
X86146Y34965
T02
X40949Y37760
X30949Y37760
X30949Y47760
X40949Y47760
X40949Y57760
X30949Y57760
X113626Y57760
X123626Y57760
X123626Y47760
X113626Y47760
X113626Y37760
X123626Y37760
M30
