G75*
%MOIN*%
%OFA0B0*%
%FSLAX25Y25*%
%IPPOS*%
%LPD*%
%AMOC8*
5,1,8,0,0,1.08239X$1,22.5*
%
%ADD10C,0.00000*%
%ADD11R,0.03937X0.04331*%
%ADD12R,0.05118X0.05906*%
%ADD13R,0.04724X0.04724*%
%ADD14R,0.04331X0.03937*%
%ADD15R,0.06299X0.02756*%
%ADD16OC8,0.02420*%
%ADD17C,0.01000*%
%ADD18C,0.01600*%
D10*
X0045791Y0032012D02*
X0045915Y0032010D01*
X0046038Y0032004D01*
X0046162Y0031995D01*
X0046284Y0031981D01*
X0046407Y0031964D01*
X0046529Y0031942D01*
X0046650Y0031917D01*
X0046770Y0031888D01*
X0046889Y0031856D01*
X0047008Y0031819D01*
X0047125Y0031779D01*
X0047240Y0031736D01*
X0047355Y0031688D01*
X0047467Y0031637D01*
X0047578Y0031583D01*
X0047688Y0031525D01*
X0047795Y0031464D01*
X0047901Y0031399D01*
X0048004Y0031331D01*
X0048105Y0031260D01*
X0048204Y0031186D01*
X0048301Y0031109D01*
X0048395Y0031028D01*
X0048486Y0030945D01*
X0048575Y0030859D01*
X0048661Y0030770D01*
X0048744Y0030679D01*
X0048825Y0030585D01*
X0048902Y0030488D01*
X0048976Y0030389D01*
X0049047Y0030288D01*
X0049115Y0030185D01*
X0049180Y0030079D01*
X0049241Y0029972D01*
X0049299Y0029862D01*
X0049353Y0029751D01*
X0049404Y0029639D01*
X0049452Y0029524D01*
X0049495Y0029409D01*
X0049535Y0029292D01*
X0049572Y0029173D01*
X0049604Y0029054D01*
X0049633Y0028934D01*
X0049658Y0028813D01*
X0049680Y0028691D01*
X0049697Y0028568D01*
X0049711Y0028446D01*
X0049720Y0028322D01*
X0049726Y0028199D01*
X0049728Y0028075D01*
X0049728Y0024138D01*
X0049730Y0024014D01*
X0049736Y0023891D01*
X0049745Y0023767D01*
X0049759Y0023645D01*
X0049776Y0023522D01*
X0049798Y0023400D01*
X0049823Y0023279D01*
X0049852Y0023159D01*
X0049884Y0023040D01*
X0049921Y0022921D01*
X0049961Y0022804D01*
X0050004Y0022689D01*
X0050052Y0022574D01*
X0050103Y0022462D01*
X0050157Y0022351D01*
X0050215Y0022241D01*
X0050276Y0022134D01*
X0050341Y0022028D01*
X0050409Y0021925D01*
X0050480Y0021824D01*
X0050554Y0021725D01*
X0050631Y0021628D01*
X0050712Y0021534D01*
X0050795Y0021443D01*
X0050881Y0021354D01*
X0050970Y0021268D01*
X0051061Y0021185D01*
X0051155Y0021104D01*
X0051252Y0021027D01*
X0051351Y0020953D01*
X0051452Y0020882D01*
X0051555Y0020814D01*
X0051661Y0020749D01*
X0051768Y0020688D01*
X0051878Y0020630D01*
X0051989Y0020576D01*
X0052101Y0020525D01*
X0052216Y0020477D01*
X0052331Y0020434D01*
X0052448Y0020394D01*
X0052567Y0020357D01*
X0052686Y0020325D01*
X0052806Y0020296D01*
X0052927Y0020271D01*
X0053049Y0020249D01*
X0053172Y0020232D01*
X0053294Y0020218D01*
X0053418Y0020209D01*
X0053541Y0020203D01*
X0053665Y0020201D01*
X0100909Y0020201D01*
X0101033Y0020203D01*
X0101156Y0020209D01*
X0101280Y0020218D01*
X0101402Y0020232D01*
X0101525Y0020249D01*
X0101647Y0020271D01*
X0101768Y0020296D01*
X0101888Y0020325D01*
X0102007Y0020357D01*
X0102126Y0020394D01*
X0102243Y0020434D01*
X0102358Y0020477D01*
X0102473Y0020525D01*
X0102585Y0020576D01*
X0102696Y0020630D01*
X0102806Y0020688D01*
X0102913Y0020749D01*
X0103019Y0020814D01*
X0103122Y0020882D01*
X0103223Y0020953D01*
X0103322Y0021027D01*
X0103419Y0021104D01*
X0103513Y0021185D01*
X0103604Y0021268D01*
X0103693Y0021354D01*
X0103779Y0021443D01*
X0103862Y0021534D01*
X0103943Y0021628D01*
X0104020Y0021725D01*
X0104094Y0021824D01*
X0104165Y0021925D01*
X0104233Y0022028D01*
X0104298Y0022134D01*
X0104359Y0022241D01*
X0104417Y0022351D01*
X0104471Y0022462D01*
X0104522Y0022574D01*
X0104570Y0022689D01*
X0104613Y0022804D01*
X0104653Y0022921D01*
X0104690Y0023040D01*
X0104722Y0023159D01*
X0104751Y0023279D01*
X0104776Y0023400D01*
X0104798Y0023522D01*
X0104815Y0023645D01*
X0104829Y0023767D01*
X0104838Y0023891D01*
X0104844Y0024014D01*
X0104846Y0024138D01*
X0104846Y0028075D01*
X0104848Y0028199D01*
X0104854Y0028322D01*
X0104863Y0028446D01*
X0104877Y0028568D01*
X0104894Y0028691D01*
X0104916Y0028813D01*
X0104941Y0028934D01*
X0104970Y0029054D01*
X0105002Y0029173D01*
X0105039Y0029292D01*
X0105079Y0029409D01*
X0105122Y0029524D01*
X0105170Y0029639D01*
X0105221Y0029751D01*
X0105275Y0029862D01*
X0105333Y0029972D01*
X0105394Y0030079D01*
X0105459Y0030185D01*
X0105527Y0030288D01*
X0105598Y0030389D01*
X0105672Y0030488D01*
X0105749Y0030585D01*
X0105830Y0030679D01*
X0105913Y0030770D01*
X0105999Y0030859D01*
X0106088Y0030945D01*
X0106179Y0031028D01*
X0106273Y0031109D01*
X0106370Y0031186D01*
X0106469Y0031260D01*
X0106570Y0031331D01*
X0106673Y0031399D01*
X0106779Y0031464D01*
X0106886Y0031525D01*
X0106996Y0031583D01*
X0107107Y0031637D01*
X0107219Y0031688D01*
X0107334Y0031736D01*
X0107449Y0031779D01*
X0107566Y0031819D01*
X0107685Y0031856D01*
X0107804Y0031888D01*
X0107924Y0031917D01*
X0108045Y0031942D01*
X0108167Y0031964D01*
X0108290Y0031981D01*
X0108412Y0031995D01*
X0108536Y0032004D01*
X0108659Y0032010D01*
X0108783Y0032012D01*
X0131618Y0032012D01*
X0131742Y0032014D01*
X0131865Y0032020D01*
X0131989Y0032029D01*
X0132111Y0032043D01*
X0132234Y0032060D01*
X0132356Y0032082D01*
X0132477Y0032107D01*
X0132597Y0032136D01*
X0132716Y0032168D01*
X0132835Y0032205D01*
X0132952Y0032245D01*
X0133067Y0032288D01*
X0133182Y0032336D01*
X0133294Y0032387D01*
X0133405Y0032441D01*
X0133515Y0032499D01*
X0133622Y0032560D01*
X0133728Y0032625D01*
X0133831Y0032693D01*
X0133932Y0032764D01*
X0134031Y0032838D01*
X0134128Y0032915D01*
X0134222Y0032996D01*
X0134313Y0033079D01*
X0134402Y0033165D01*
X0134488Y0033254D01*
X0134571Y0033345D01*
X0134652Y0033439D01*
X0134729Y0033536D01*
X0134803Y0033635D01*
X0134874Y0033736D01*
X0134942Y0033839D01*
X0135007Y0033945D01*
X0135068Y0034052D01*
X0135126Y0034162D01*
X0135180Y0034273D01*
X0135231Y0034385D01*
X0135279Y0034500D01*
X0135322Y0034615D01*
X0135362Y0034732D01*
X0135399Y0034851D01*
X0135431Y0034970D01*
X0135460Y0035090D01*
X0135485Y0035211D01*
X0135507Y0035333D01*
X0135524Y0035456D01*
X0135538Y0035578D01*
X0135547Y0035702D01*
X0135553Y0035825D01*
X0135555Y0035949D01*
X0135555Y0059571D01*
X0135553Y0059695D01*
X0135547Y0059818D01*
X0135538Y0059942D01*
X0135524Y0060064D01*
X0135507Y0060187D01*
X0135485Y0060309D01*
X0135460Y0060430D01*
X0135431Y0060550D01*
X0135399Y0060669D01*
X0135362Y0060788D01*
X0135322Y0060905D01*
X0135279Y0061020D01*
X0135231Y0061135D01*
X0135180Y0061247D01*
X0135126Y0061358D01*
X0135068Y0061468D01*
X0135007Y0061575D01*
X0134942Y0061681D01*
X0134874Y0061784D01*
X0134803Y0061885D01*
X0134729Y0061984D01*
X0134652Y0062081D01*
X0134571Y0062175D01*
X0134488Y0062266D01*
X0134402Y0062355D01*
X0134313Y0062441D01*
X0134222Y0062524D01*
X0134128Y0062605D01*
X0134031Y0062682D01*
X0133932Y0062756D01*
X0133831Y0062827D01*
X0133728Y0062895D01*
X0133622Y0062960D01*
X0133515Y0063021D01*
X0133405Y0063079D01*
X0133294Y0063133D01*
X0133182Y0063184D01*
X0133067Y0063232D01*
X0132952Y0063275D01*
X0132835Y0063315D01*
X0132716Y0063352D01*
X0132597Y0063384D01*
X0132477Y0063413D01*
X0132356Y0063438D01*
X0132234Y0063460D01*
X0132111Y0063477D01*
X0131989Y0063491D01*
X0131865Y0063500D01*
X0131742Y0063506D01*
X0131618Y0063508D01*
X0108783Y0063508D01*
X0108659Y0063510D01*
X0108536Y0063516D01*
X0108412Y0063525D01*
X0108290Y0063539D01*
X0108167Y0063556D01*
X0108045Y0063578D01*
X0107924Y0063603D01*
X0107804Y0063632D01*
X0107685Y0063664D01*
X0107566Y0063701D01*
X0107449Y0063741D01*
X0107334Y0063784D01*
X0107219Y0063832D01*
X0107107Y0063883D01*
X0106996Y0063937D01*
X0106886Y0063995D01*
X0106779Y0064056D01*
X0106673Y0064121D01*
X0106570Y0064189D01*
X0106469Y0064260D01*
X0106370Y0064334D01*
X0106273Y0064411D01*
X0106179Y0064492D01*
X0106088Y0064575D01*
X0105999Y0064661D01*
X0105913Y0064750D01*
X0105830Y0064841D01*
X0105749Y0064935D01*
X0105672Y0065032D01*
X0105598Y0065131D01*
X0105527Y0065232D01*
X0105459Y0065335D01*
X0105394Y0065441D01*
X0105333Y0065548D01*
X0105275Y0065658D01*
X0105221Y0065769D01*
X0105170Y0065881D01*
X0105122Y0065996D01*
X0105079Y0066111D01*
X0105039Y0066228D01*
X0105002Y0066347D01*
X0104970Y0066466D01*
X0104941Y0066586D01*
X0104916Y0066707D01*
X0104894Y0066829D01*
X0104877Y0066952D01*
X0104863Y0067074D01*
X0104854Y0067198D01*
X0104848Y0067321D01*
X0104846Y0067445D01*
X0104846Y0071382D01*
X0104844Y0071506D01*
X0104838Y0071629D01*
X0104829Y0071753D01*
X0104815Y0071875D01*
X0104798Y0071998D01*
X0104776Y0072120D01*
X0104751Y0072241D01*
X0104722Y0072361D01*
X0104690Y0072480D01*
X0104653Y0072599D01*
X0104613Y0072716D01*
X0104570Y0072831D01*
X0104522Y0072946D01*
X0104471Y0073058D01*
X0104417Y0073169D01*
X0104359Y0073279D01*
X0104298Y0073386D01*
X0104233Y0073492D01*
X0104165Y0073595D01*
X0104094Y0073696D01*
X0104020Y0073795D01*
X0103943Y0073892D01*
X0103862Y0073986D01*
X0103779Y0074077D01*
X0103693Y0074166D01*
X0103604Y0074252D01*
X0103513Y0074335D01*
X0103419Y0074416D01*
X0103322Y0074493D01*
X0103223Y0074567D01*
X0103122Y0074638D01*
X0103019Y0074706D01*
X0102913Y0074771D01*
X0102806Y0074832D01*
X0102696Y0074890D01*
X0102585Y0074944D01*
X0102473Y0074995D01*
X0102358Y0075043D01*
X0102243Y0075086D01*
X0102126Y0075126D01*
X0102007Y0075163D01*
X0101888Y0075195D01*
X0101768Y0075224D01*
X0101647Y0075249D01*
X0101525Y0075271D01*
X0101402Y0075288D01*
X0101280Y0075302D01*
X0101156Y0075311D01*
X0101033Y0075317D01*
X0100909Y0075319D01*
X0053665Y0075319D01*
X0053541Y0075317D01*
X0053418Y0075311D01*
X0053294Y0075302D01*
X0053172Y0075288D01*
X0053049Y0075271D01*
X0052927Y0075249D01*
X0052806Y0075224D01*
X0052686Y0075195D01*
X0052567Y0075163D01*
X0052448Y0075126D01*
X0052331Y0075086D01*
X0052216Y0075043D01*
X0052101Y0074995D01*
X0051989Y0074944D01*
X0051878Y0074890D01*
X0051768Y0074832D01*
X0051661Y0074771D01*
X0051555Y0074706D01*
X0051452Y0074638D01*
X0051351Y0074567D01*
X0051252Y0074493D01*
X0051155Y0074416D01*
X0051061Y0074335D01*
X0050970Y0074252D01*
X0050881Y0074166D01*
X0050795Y0074077D01*
X0050712Y0073986D01*
X0050631Y0073892D01*
X0050554Y0073795D01*
X0050480Y0073696D01*
X0050409Y0073595D01*
X0050341Y0073492D01*
X0050276Y0073386D01*
X0050215Y0073279D01*
X0050157Y0073169D01*
X0050103Y0073058D01*
X0050052Y0072946D01*
X0050004Y0072831D01*
X0049961Y0072716D01*
X0049921Y0072599D01*
X0049884Y0072480D01*
X0049852Y0072361D01*
X0049823Y0072241D01*
X0049798Y0072120D01*
X0049776Y0071998D01*
X0049759Y0071875D01*
X0049745Y0071753D01*
X0049736Y0071629D01*
X0049730Y0071506D01*
X0049728Y0071382D01*
X0049728Y0067445D01*
X0049726Y0067321D01*
X0049720Y0067198D01*
X0049711Y0067074D01*
X0049697Y0066952D01*
X0049680Y0066829D01*
X0049658Y0066707D01*
X0049633Y0066586D01*
X0049604Y0066466D01*
X0049572Y0066347D01*
X0049535Y0066228D01*
X0049495Y0066111D01*
X0049452Y0065996D01*
X0049404Y0065881D01*
X0049353Y0065769D01*
X0049299Y0065658D01*
X0049241Y0065548D01*
X0049180Y0065441D01*
X0049115Y0065335D01*
X0049047Y0065232D01*
X0048976Y0065131D01*
X0048902Y0065032D01*
X0048825Y0064935D01*
X0048744Y0064841D01*
X0048661Y0064750D01*
X0048575Y0064661D01*
X0048486Y0064575D01*
X0048395Y0064492D01*
X0048301Y0064411D01*
X0048204Y0064334D01*
X0048105Y0064260D01*
X0048004Y0064189D01*
X0047901Y0064121D01*
X0047795Y0064056D01*
X0047688Y0063995D01*
X0047578Y0063937D01*
X0047467Y0063883D01*
X0047355Y0063832D01*
X0047240Y0063784D01*
X0047125Y0063741D01*
X0047008Y0063701D01*
X0046889Y0063664D01*
X0046770Y0063632D01*
X0046650Y0063603D01*
X0046529Y0063578D01*
X0046407Y0063556D01*
X0046284Y0063539D01*
X0046162Y0063525D01*
X0046038Y0063516D01*
X0045915Y0063510D01*
X0045791Y0063508D01*
X0023055Y0063508D01*
X0022931Y0063506D01*
X0022808Y0063500D01*
X0022684Y0063491D01*
X0022562Y0063477D01*
X0022439Y0063460D01*
X0022317Y0063438D01*
X0022196Y0063413D01*
X0022076Y0063384D01*
X0021957Y0063352D01*
X0021838Y0063315D01*
X0021721Y0063275D01*
X0021606Y0063232D01*
X0021491Y0063184D01*
X0021379Y0063133D01*
X0021268Y0063079D01*
X0021158Y0063021D01*
X0021051Y0062960D01*
X0020945Y0062895D01*
X0020842Y0062827D01*
X0020741Y0062756D01*
X0020642Y0062682D01*
X0020545Y0062605D01*
X0020451Y0062524D01*
X0020360Y0062441D01*
X0020271Y0062355D01*
X0020185Y0062266D01*
X0020102Y0062175D01*
X0020021Y0062081D01*
X0019944Y0061984D01*
X0019870Y0061885D01*
X0019799Y0061784D01*
X0019731Y0061681D01*
X0019666Y0061575D01*
X0019605Y0061468D01*
X0019547Y0061358D01*
X0019493Y0061247D01*
X0019442Y0061135D01*
X0019394Y0061020D01*
X0019351Y0060905D01*
X0019311Y0060788D01*
X0019274Y0060669D01*
X0019242Y0060550D01*
X0019213Y0060430D01*
X0019188Y0060309D01*
X0019166Y0060187D01*
X0019149Y0060064D01*
X0019135Y0059942D01*
X0019126Y0059818D01*
X0019120Y0059695D01*
X0019118Y0059571D01*
X0019118Y0035949D01*
X0019120Y0035825D01*
X0019126Y0035702D01*
X0019135Y0035578D01*
X0019149Y0035456D01*
X0019166Y0035333D01*
X0019188Y0035211D01*
X0019213Y0035090D01*
X0019242Y0034970D01*
X0019274Y0034851D01*
X0019311Y0034732D01*
X0019351Y0034615D01*
X0019394Y0034500D01*
X0019442Y0034385D01*
X0019493Y0034273D01*
X0019547Y0034162D01*
X0019605Y0034052D01*
X0019666Y0033945D01*
X0019731Y0033839D01*
X0019799Y0033736D01*
X0019870Y0033635D01*
X0019944Y0033536D01*
X0020021Y0033439D01*
X0020102Y0033345D01*
X0020185Y0033254D01*
X0020271Y0033165D01*
X0020360Y0033079D01*
X0020451Y0032996D01*
X0020545Y0032915D01*
X0020642Y0032838D01*
X0020741Y0032764D01*
X0020842Y0032693D01*
X0020945Y0032625D01*
X0021051Y0032560D01*
X0021158Y0032499D01*
X0021268Y0032441D01*
X0021379Y0032387D01*
X0021491Y0032336D01*
X0021606Y0032288D01*
X0021721Y0032245D01*
X0021838Y0032205D01*
X0021957Y0032168D01*
X0022076Y0032136D01*
X0022196Y0032107D01*
X0022317Y0032082D01*
X0022439Y0032060D01*
X0022562Y0032043D01*
X0022684Y0032029D01*
X0022808Y0032020D01*
X0022931Y0032014D01*
X0023055Y0032012D01*
X0045791Y0032012D01*
X0038784Y0037760D02*
X0038786Y0037853D01*
X0038792Y0037945D01*
X0038802Y0038037D01*
X0038816Y0038128D01*
X0038833Y0038219D01*
X0038855Y0038309D01*
X0038880Y0038398D01*
X0038909Y0038486D01*
X0038942Y0038572D01*
X0038979Y0038657D01*
X0039019Y0038741D01*
X0039063Y0038822D01*
X0039110Y0038902D01*
X0039160Y0038980D01*
X0039214Y0039055D01*
X0039271Y0039128D01*
X0039331Y0039198D01*
X0039394Y0039266D01*
X0039460Y0039331D01*
X0039528Y0039393D01*
X0039599Y0039453D01*
X0039673Y0039509D01*
X0039749Y0039562D01*
X0039827Y0039611D01*
X0039907Y0039658D01*
X0039989Y0039700D01*
X0040073Y0039740D01*
X0040158Y0039775D01*
X0040245Y0039807D01*
X0040333Y0039836D01*
X0040422Y0039860D01*
X0040512Y0039881D01*
X0040603Y0039897D01*
X0040695Y0039910D01*
X0040787Y0039919D01*
X0040880Y0039924D01*
X0040972Y0039925D01*
X0041065Y0039922D01*
X0041157Y0039915D01*
X0041249Y0039904D01*
X0041340Y0039889D01*
X0041431Y0039871D01*
X0041521Y0039848D01*
X0041609Y0039822D01*
X0041697Y0039792D01*
X0041783Y0039758D01*
X0041867Y0039721D01*
X0041950Y0039679D01*
X0042031Y0039635D01*
X0042111Y0039587D01*
X0042188Y0039536D01*
X0042262Y0039481D01*
X0042335Y0039423D01*
X0042405Y0039363D01*
X0042472Y0039299D01*
X0042536Y0039233D01*
X0042598Y0039163D01*
X0042656Y0039092D01*
X0042711Y0039018D01*
X0042763Y0038941D01*
X0042812Y0038862D01*
X0042858Y0038782D01*
X0042900Y0038699D01*
X0042938Y0038615D01*
X0042973Y0038529D01*
X0043004Y0038442D01*
X0043031Y0038354D01*
X0043054Y0038264D01*
X0043074Y0038174D01*
X0043090Y0038083D01*
X0043102Y0037991D01*
X0043110Y0037899D01*
X0043114Y0037806D01*
X0043114Y0037714D01*
X0043110Y0037621D01*
X0043102Y0037529D01*
X0043090Y0037437D01*
X0043074Y0037346D01*
X0043054Y0037256D01*
X0043031Y0037166D01*
X0043004Y0037078D01*
X0042973Y0036991D01*
X0042938Y0036905D01*
X0042900Y0036821D01*
X0042858Y0036738D01*
X0042812Y0036658D01*
X0042763Y0036579D01*
X0042711Y0036502D01*
X0042656Y0036428D01*
X0042598Y0036357D01*
X0042536Y0036287D01*
X0042472Y0036221D01*
X0042405Y0036157D01*
X0042335Y0036097D01*
X0042262Y0036039D01*
X0042188Y0035984D01*
X0042111Y0035933D01*
X0042032Y0035885D01*
X0041950Y0035841D01*
X0041867Y0035799D01*
X0041783Y0035762D01*
X0041697Y0035728D01*
X0041609Y0035698D01*
X0041521Y0035672D01*
X0041431Y0035649D01*
X0041340Y0035631D01*
X0041249Y0035616D01*
X0041157Y0035605D01*
X0041065Y0035598D01*
X0040972Y0035595D01*
X0040880Y0035596D01*
X0040787Y0035601D01*
X0040695Y0035610D01*
X0040603Y0035623D01*
X0040512Y0035639D01*
X0040422Y0035660D01*
X0040333Y0035684D01*
X0040245Y0035713D01*
X0040158Y0035745D01*
X0040073Y0035780D01*
X0039989Y0035820D01*
X0039907Y0035862D01*
X0039827Y0035909D01*
X0039749Y0035958D01*
X0039673Y0036011D01*
X0039599Y0036067D01*
X0039528Y0036127D01*
X0039460Y0036189D01*
X0039394Y0036254D01*
X0039331Y0036322D01*
X0039271Y0036392D01*
X0039214Y0036465D01*
X0039160Y0036540D01*
X0039110Y0036618D01*
X0039063Y0036698D01*
X0039019Y0036779D01*
X0038979Y0036863D01*
X0038942Y0036948D01*
X0038909Y0037034D01*
X0038880Y0037122D01*
X0038855Y0037211D01*
X0038833Y0037301D01*
X0038816Y0037392D01*
X0038802Y0037483D01*
X0038792Y0037575D01*
X0038786Y0037667D01*
X0038784Y0037760D01*
X0028784Y0037760D02*
X0028786Y0037853D01*
X0028792Y0037945D01*
X0028802Y0038037D01*
X0028816Y0038128D01*
X0028833Y0038219D01*
X0028855Y0038309D01*
X0028880Y0038398D01*
X0028909Y0038486D01*
X0028942Y0038572D01*
X0028979Y0038657D01*
X0029019Y0038741D01*
X0029063Y0038822D01*
X0029110Y0038902D01*
X0029160Y0038980D01*
X0029214Y0039055D01*
X0029271Y0039128D01*
X0029331Y0039198D01*
X0029394Y0039266D01*
X0029460Y0039331D01*
X0029528Y0039393D01*
X0029599Y0039453D01*
X0029673Y0039509D01*
X0029749Y0039562D01*
X0029827Y0039611D01*
X0029907Y0039658D01*
X0029989Y0039700D01*
X0030073Y0039740D01*
X0030158Y0039775D01*
X0030245Y0039807D01*
X0030333Y0039836D01*
X0030422Y0039860D01*
X0030512Y0039881D01*
X0030603Y0039897D01*
X0030695Y0039910D01*
X0030787Y0039919D01*
X0030880Y0039924D01*
X0030972Y0039925D01*
X0031065Y0039922D01*
X0031157Y0039915D01*
X0031249Y0039904D01*
X0031340Y0039889D01*
X0031431Y0039871D01*
X0031521Y0039848D01*
X0031609Y0039822D01*
X0031697Y0039792D01*
X0031783Y0039758D01*
X0031867Y0039721D01*
X0031950Y0039679D01*
X0032031Y0039635D01*
X0032111Y0039587D01*
X0032188Y0039536D01*
X0032262Y0039481D01*
X0032335Y0039423D01*
X0032405Y0039363D01*
X0032472Y0039299D01*
X0032536Y0039233D01*
X0032598Y0039163D01*
X0032656Y0039092D01*
X0032711Y0039018D01*
X0032763Y0038941D01*
X0032812Y0038862D01*
X0032858Y0038782D01*
X0032900Y0038699D01*
X0032938Y0038615D01*
X0032973Y0038529D01*
X0033004Y0038442D01*
X0033031Y0038354D01*
X0033054Y0038264D01*
X0033074Y0038174D01*
X0033090Y0038083D01*
X0033102Y0037991D01*
X0033110Y0037899D01*
X0033114Y0037806D01*
X0033114Y0037714D01*
X0033110Y0037621D01*
X0033102Y0037529D01*
X0033090Y0037437D01*
X0033074Y0037346D01*
X0033054Y0037256D01*
X0033031Y0037166D01*
X0033004Y0037078D01*
X0032973Y0036991D01*
X0032938Y0036905D01*
X0032900Y0036821D01*
X0032858Y0036738D01*
X0032812Y0036658D01*
X0032763Y0036579D01*
X0032711Y0036502D01*
X0032656Y0036428D01*
X0032598Y0036357D01*
X0032536Y0036287D01*
X0032472Y0036221D01*
X0032405Y0036157D01*
X0032335Y0036097D01*
X0032262Y0036039D01*
X0032188Y0035984D01*
X0032111Y0035933D01*
X0032032Y0035885D01*
X0031950Y0035841D01*
X0031867Y0035799D01*
X0031783Y0035762D01*
X0031697Y0035728D01*
X0031609Y0035698D01*
X0031521Y0035672D01*
X0031431Y0035649D01*
X0031340Y0035631D01*
X0031249Y0035616D01*
X0031157Y0035605D01*
X0031065Y0035598D01*
X0030972Y0035595D01*
X0030880Y0035596D01*
X0030787Y0035601D01*
X0030695Y0035610D01*
X0030603Y0035623D01*
X0030512Y0035639D01*
X0030422Y0035660D01*
X0030333Y0035684D01*
X0030245Y0035713D01*
X0030158Y0035745D01*
X0030073Y0035780D01*
X0029989Y0035820D01*
X0029907Y0035862D01*
X0029827Y0035909D01*
X0029749Y0035958D01*
X0029673Y0036011D01*
X0029599Y0036067D01*
X0029528Y0036127D01*
X0029460Y0036189D01*
X0029394Y0036254D01*
X0029331Y0036322D01*
X0029271Y0036392D01*
X0029214Y0036465D01*
X0029160Y0036540D01*
X0029110Y0036618D01*
X0029063Y0036698D01*
X0029019Y0036779D01*
X0028979Y0036863D01*
X0028942Y0036948D01*
X0028909Y0037034D01*
X0028880Y0037122D01*
X0028855Y0037211D01*
X0028833Y0037301D01*
X0028816Y0037392D01*
X0028802Y0037483D01*
X0028792Y0037575D01*
X0028786Y0037667D01*
X0028784Y0037760D01*
X0028784Y0047760D02*
X0028786Y0047853D01*
X0028792Y0047945D01*
X0028802Y0048037D01*
X0028816Y0048128D01*
X0028833Y0048219D01*
X0028855Y0048309D01*
X0028880Y0048398D01*
X0028909Y0048486D01*
X0028942Y0048572D01*
X0028979Y0048657D01*
X0029019Y0048741D01*
X0029063Y0048822D01*
X0029110Y0048902D01*
X0029160Y0048980D01*
X0029214Y0049055D01*
X0029271Y0049128D01*
X0029331Y0049198D01*
X0029394Y0049266D01*
X0029460Y0049331D01*
X0029528Y0049393D01*
X0029599Y0049453D01*
X0029673Y0049509D01*
X0029749Y0049562D01*
X0029827Y0049611D01*
X0029907Y0049658D01*
X0029989Y0049700D01*
X0030073Y0049740D01*
X0030158Y0049775D01*
X0030245Y0049807D01*
X0030333Y0049836D01*
X0030422Y0049860D01*
X0030512Y0049881D01*
X0030603Y0049897D01*
X0030695Y0049910D01*
X0030787Y0049919D01*
X0030880Y0049924D01*
X0030972Y0049925D01*
X0031065Y0049922D01*
X0031157Y0049915D01*
X0031249Y0049904D01*
X0031340Y0049889D01*
X0031431Y0049871D01*
X0031521Y0049848D01*
X0031609Y0049822D01*
X0031697Y0049792D01*
X0031783Y0049758D01*
X0031867Y0049721D01*
X0031950Y0049679D01*
X0032031Y0049635D01*
X0032111Y0049587D01*
X0032188Y0049536D01*
X0032262Y0049481D01*
X0032335Y0049423D01*
X0032405Y0049363D01*
X0032472Y0049299D01*
X0032536Y0049233D01*
X0032598Y0049163D01*
X0032656Y0049092D01*
X0032711Y0049018D01*
X0032763Y0048941D01*
X0032812Y0048862D01*
X0032858Y0048782D01*
X0032900Y0048699D01*
X0032938Y0048615D01*
X0032973Y0048529D01*
X0033004Y0048442D01*
X0033031Y0048354D01*
X0033054Y0048264D01*
X0033074Y0048174D01*
X0033090Y0048083D01*
X0033102Y0047991D01*
X0033110Y0047899D01*
X0033114Y0047806D01*
X0033114Y0047714D01*
X0033110Y0047621D01*
X0033102Y0047529D01*
X0033090Y0047437D01*
X0033074Y0047346D01*
X0033054Y0047256D01*
X0033031Y0047166D01*
X0033004Y0047078D01*
X0032973Y0046991D01*
X0032938Y0046905D01*
X0032900Y0046821D01*
X0032858Y0046738D01*
X0032812Y0046658D01*
X0032763Y0046579D01*
X0032711Y0046502D01*
X0032656Y0046428D01*
X0032598Y0046357D01*
X0032536Y0046287D01*
X0032472Y0046221D01*
X0032405Y0046157D01*
X0032335Y0046097D01*
X0032262Y0046039D01*
X0032188Y0045984D01*
X0032111Y0045933D01*
X0032032Y0045885D01*
X0031950Y0045841D01*
X0031867Y0045799D01*
X0031783Y0045762D01*
X0031697Y0045728D01*
X0031609Y0045698D01*
X0031521Y0045672D01*
X0031431Y0045649D01*
X0031340Y0045631D01*
X0031249Y0045616D01*
X0031157Y0045605D01*
X0031065Y0045598D01*
X0030972Y0045595D01*
X0030880Y0045596D01*
X0030787Y0045601D01*
X0030695Y0045610D01*
X0030603Y0045623D01*
X0030512Y0045639D01*
X0030422Y0045660D01*
X0030333Y0045684D01*
X0030245Y0045713D01*
X0030158Y0045745D01*
X0030073Y0045780D01*
X0029989Y0045820D01*
X0029907Y0045862D01*
X0029827Y0045909D01*
X0029749Y0045958D01*
X0029673Y0046011D01*
X0029599Y0046067D01*
X0029528Y0046127D01*
X0029460Y0046189D01*
X0029394Y0046254D01*
X0029331Y0046322D01*
X0029271Y0046392D01*
X0029214Y0046465D01*
X0029160Y0046540D01*
X0029110Y0046618D01*
X0029063Y0046698D01*
X0029019Y0046779D01*
X0028979Y0046863D01*
X0028942Y0046948D01*
X0028909Y0047034D01*
X0028880Y0047122D01*
X0028855Y0047211D01*
X0028833Y0047301D01*
X0028816Y0047392D01*
X0028802Y0047483D01*
X0028792Y0047575D01*
X0028786Y0047667D01*
X0028784Y0047760D01*
X0038784Y0047760D02*
X0038786Y0047853D01*
X0038792Y0047945D01*
X0038802Y0048037D01*
X0038816Y0048128D01*
X0038833Y0048219D01*
X0038855Y0048309D01*
X0038880Y0048398D01*
X0038909Y0048486D01*
X0038942Y0048572D01*
X0038979Y0048657D01*
X0039019Y0048741D01*
X0039063Y0048822D01*
X0039110Y0048902D01*
X0039160Y0048980D01*
X0039214Y0049055D01*
X0039271Y0049128D01*
X0039331Y0049198D01*
X0039394Y0049266D01*
X0039460Y0049331D01*
X0039528Y0049393D01*
X0039599Y0049453D01*
X0039673Y0049509D01*
X0039749Y0049562D01*
X0039827Y0049611D01*
X0039907Y0049658D01*
X0039989Y0049700D01*
X0040073Y0049740D01*
X0040158Y0049775D01*
X0040245Y0049807D01*
X0040333Y0049836D01*
X0040422Y0049860D01*
X0040512Y0049881D01*
X0040603Y0049897D01*
X0040695Y0049910D01*
X0040787Y0049919D01*
X0040880Y0049924D01*
X0040972Y0049925D01*
X0041065Y0049922D01*
X0041157Y0049915D01*
X0041249Y0049904D01*
X0041340Y0049889D01*
X0041431Y0049871D01*
X0041521Y0049848D01*
X0041609Y0049822D01*
X0041697Y0049792D01*
X0041783Y0049758D01*
X0041867Y0049721D01*
X0041950Y0049679D01*
X0042031Y0049635D01*
X0042111Y0049587D01*
X0042188Y0049536D01*
X0042262Y0049481D01*
X0042335Y0049423D01*
X0042405Y0049363D01*
X0042472Y0049299D01*
X0042536Y0049233D01*
X0042598Y0049163D01*
X0042656Y0049092D01*
X0042711Y0049018D01*
X0042763Y0048941D01*
X0042812Y0048862D01*
X0042858Y0048782D01*
X0042900Y0048699D01*
X0042938Y0048615D01*
X0042973Y0048529D01*
X0043004Y0048442D01*
X0043031Y0048354D01*
X0043054Y0048264D01*
X0043074Y0048174D01*
X0043090Y0048083D01*
X0043102Y0047991D01*
X0043110Y0047899D01*
X0043114Y0047806D01*
X0043114Y0047714D01*
X0043110Y0047621D01*
X0043102Y0047529D01*
X0043090Y0047437D01*
X0043074Y0047346D01*
X0043054Y0047256D01*
X0043031Y0047166D01*
X0043004Y0047078D01*
X0042973Y0046991D01*
X0042938Y0046905D01*
X0042900Y0046821D01*
X0042858Y0046738D01*
X0042812Y0046658D01*
X0042763Y0046579D01*
X0042711Y0046502D01*
X0042656Y0046428D01*
X0042598Y0046357D01*
X0042536Y0046287D01*
X0042472Y0046221D01*
X0042405Y0046157D01*
X0042335Y0046097D01*
X0042262Y0046039D01*
X0042188Y0045984D01*
X0042111Y0045933D01*
X0042032Y0045885D01*
X0041950Y0045841D01*
X0041867Y0045799D01*
X0041783Y0045762D01*
X0041697Y0045728D01*
X0041609Y0045698D01*
X0041521Y0045672D01*
X0041431Y0045649D01*
X0041340Y0045631D01*
X0041249Y0045616D01*
X0041157Y0045605D01*
X0041065Y0045598D01*
X0040972Y0045595D01*
X0040880Y0045596D01*
X0040787Y0045601D01*
X0040695Y0045610D01*
X0040603Y0045623D01*
X0040512Y0045639D01*
X0040422Y0045660D01*
X0040333Y0045684D01*
X0040245Y0045713D01*
X0040158Y0045745D01*
X0040073Y0045780D01*
X0039989Y0045820D01*
X0039907Y0045862D01*
X0039827Y0045909D01*
X0039749Y0045958D01*
X0039673Y0046011D01*
X0039599Y0046067D01*
X0039528Y0046127D01*
X0039460Y0046189D01*
X0039394Y0046254D01*
X0039331Y0046322D01*
X0039271Y0046392D01*
X0039214Y0046465D01*
X0039160Y0046540D01*
X0039110Y0046618D01*
X0039063Y0046698D01*
X0039019Y0046779D01*
X0038979Y0046863D01*
X0038942Y0046948D01*
X0038909Y0047034D01*
X0038880Y0047122D01*
X0038855Y0047211D01*
X0038833Y0047301D01*
X0038816Y0047392D01*
X0038802Y0047483D01*
X0038792Y0047575D01*
X0038786Y0047667D01*
X0038784Y0047760D01*
X0038784Y0057760D02*
X0038786Y0057853D01*
X0038792Y0057945D01*
X0038802Y0058037D01*
X0038816Y0058128D01*
X0038833Y0058219D01*
X0038855Y0058309D01*
X0038880Y0058398D01*
X0038909Y0058486D01*
X0038942Y0058572D01*
X0038979Y0058657D01*
X0039019Y0058741D01*
X0039063Y0058822D01*
X0039110Y0058902D01*
X0039160Y0058980D01*
X0039214Y0059055D01*
X0039271Y0059128D01*
X0039331Y0059198D01*
X0039394Y0059266D01*
X0039460Y0059331D01*
X0039528Y0059393D01*
X0039599Y0059453D01*
X0039673Y0059509D01*
X0039749Y0059562D01*
X0039827Y0059611D01*
X0039907Y0059658D01*
X0039989Y0059700D01*
X0040073Y0059740D01*
X0040158Y0059775D01*
X0040245Y0059807D01*
X0040333Y0059836D01*
X0040422Y0059860D01*
X0040512Y0059881D01*
X0040603Y0059897D01*
X0040695Y0059910D01*
X0040787Y0059919D01*
X0040880Y0059924D01*
X0040972Y0059925D01*
X0041065Y0059922D01*
X0041157Y0059915D01*
X0041249Y0059904D01*
X0041340Y0059889D01*
X0041431Y0059871D01*
X0041521Y0059848D01*
X0041609Y0059822D01*
X0041697Y0059792D01*
X0041783Y0059758D01*
X0041867Y0059721D01*
X0041950Y0059679D01*
X0042031Y0059635D01*
X0042111Y0059587D01*
X0042188Y0059536D01*
X0042262Y0059481D01*
X0042335Y0059423D01*
X0042405Y0059363D01*
X0042472Y0059299D01*
X0042536Y0059233D01*
X0042598Y0059163D01*
X0042656Y0059092D01*
X0042711Y0059018D01*
X0042763Y0058941D01*
X0042812Y0058862D01*
X0042858Y0058782D01*
X0042900Y0058699D01*
X0042938Y0058615D01*
X0042973Y0058529D01*
X0043004Y0058442D01*
X0043031Y0058354D01*
X0043054Y0058264D01*
X0043074Y0058174D01*
X0043090Y0058083D01*
X0043102Y0057991D01*
X0043110Y0057899D01*
X0043114Y0057806D01*
X0043114Y0057714D01*
X0043110Y0057621D01*
X0043102Y0057529D01*
X0043090Y0057437D01*
X0043074Y0057346D01*
X0043054Y0057256D01*
X0043031Y0057166D01*
X0043004Y0057078D01*
X0042973Y0056991D01*
X0042938Y0056905D01*
X0042900Y0056821D01*
X0042858Y0056738D01*
X0042812Y0056658D01*
X0042763Y0056579D01*
X0042711Y0056502D01*
X0042656Y0056428D01*
X0042598Y0056357D01*
X0042536Y0056287D01*
X0042472Y0056221D01*
X0042405Y0056157D01*
X0042335Y0056097D01*
X0042262Y0056039D01*
X0042188Y0055984D01*
X0042111Y0055933D01*
X0042032Y0055885D01*
X0041950Y0055841D01*
X0041867Y0055799D01*
X0041783Y0055762D01*
X0041697Y0055728D01*
X0041609Y0055698D01*
X0041521Y0055672D01*
X0041431Y0055649D01*
X0041340Y0055631D01*
X0041249Y0055616D01*
X0041157Y0055605D01*
X0041065Y0055598D01*
X0040972Y0055595D01*
X0040880Y0055596D01*
X0040787Y0055601D01*
X0040695Y0055610D01*
X0040603Y0055623D01*
X0040512Y0055639D01*
X0040422Y0055660D01*
X0040333Y0055684D01*
X0040245Y0055713D01*
X0040158Y0055745D01*
X0040073Y0055780D01*
X0039989Y0055820D01*
X0039907Y0055862D01*
X0039827Y0055909D01*
X0039749Y0055958D01*
X0039673Y0056011D01*
X0039599Y0056067D01*
X0039528Y0056127D01*
X0039460Y0056189D01*
X0039394Y0056254D01*
X0039331Y0056322D01*
X0039271Y0056392D01*
X0039214Y0056465D01*
X0039160Y0056540D01*
X0039110Y0056618D01*
X0039063Y0056698D01*
X0039019Y0056779D01*
X0038979Y0056863D01*
X0038942Y0056948D01*
X0038909Y0057034D01*
X0038880Y0057122D01*
X0038855Y0057211D01*
X0038833Y0057301D01*
X0038816Y0057392D01*
X0038802Y0057483D01*
X0038792Y0057575D01*
X0038786Y0057667D01*
X0038784Y0057760D01*
X0028784Y0057760D02*
X0028786Y0057853D01*
X0028792Y0057945D01*
X0028802Y0058037D01*
X0028816Y0058128D01*
X0028833Y0058219D01*
X0028855Y0058309D01*
X0028880Y0058398D01*
X0028909Y0058486D01*
X0028942Y0058572D01*
X0028979Y0058657D01*
X0029019Y0058741D01*
X0029063Y0058822D01*
X0029110Y0058902D01*
X0029160Y0058980D01*
X0029214Y0059055D01*
X0029271Y0059128D01*
X0029331Y0059198D01*
X0029394Y0059266D01*
X0029460Y0059331D01*
X0029528Y0059393D01*
X0029599Y0059453D01*
X0029673Y0059509D01*
X0029749Y0059562D01*
X0029827Y0059611D01*
X0029907Y0059658D01*
X0029989Y0059700D01*
X0030073Y0059740D01*
X0030158Y0059775D01*
X0030245Y0059807D01*
X0030333Y0059836D01*
X0030422Y0059860D01*
X0030512Y0059881D01*
X0030603Y0059897D01*
X0030695Y0059910D01*
X0030787Y0059919D01*
X0030880Y0059924D01*
X0030972Y0059925D01*
X0031065Y0059922D01*
X0031157Y0059915D01*
X0031249Y0059904D01*
X0031340Y0059889D01*
X0031431Y0059871D01*
X0031521Y0059848D01*
X0031609Y0059822D01*
X0031697Y0059792D01*
X0031783Y0059758D01*
X0031867Y0059721D01*
X0031950Y0059679D01*
X0032031Y0059635D01*
X0032111Y0059587D01*
X0032188Y0059536D01*
X0032262Y0059481D01*
X0032335Y0059423D01*
X0032405Y0059363D01*
X0032472Y0059299D01*
X0032536Y0059233D01*
X0032598Y0059163D01*
X0032656Y0059092D01*
X0032711Y0059018D01*
X0032763Y0058941D01*
X0032812Y0058862D01*
X0032858Y0058782D01*
X0032900Y0058699D01*
X0032938Y0058615D01*
X0032973Y0058529D01*
X0033004Y0058442D01*
X0033031Y0058354D01*
X0033054Y0058264D01*
X0033074Y0058174D01*
X0033090Y0058083D01*
X0033102Y0057991D01*
X0033110Y0057899D01*
X0033114Y0057806D01*
X0033114Y0057714D01*
X0033110Y0057621D01*
X0033102Y0057529D01*
X0033090Y0057437D01*
X0033074Y0057346D01*
X0033054Y0057256D01*
X0033031Y0057166D01*
X0033004Y0057078D01*
X0032973Y0056991D01*
X0032938Y0056905D01*
X0032900Y0056821D01*
X0032858Y0056738D01*
X0032812Y0056658D01*
X0032763Y0056579D01*
X0032711Y0056502D01*
X0032656Y0056428D01*
X0032598Y0056357D01*
X0032536Y0056287D01*
X0032472Y0056221D01*
X0032405Y0056157D01*
X0032335Y0056097D01*
X0032262Y0056039D01*
X0032188Y0055984D01*
X0032111Y0055933D01*
X0032032Y0055885D01*
X0031950Y0055841D01*
X0031867Y0055799D01*
X0031783Y0055762D01*
X0031697Y0055728D01*
X0031609Y0055698D01*
X0031521Y0055672D01*
X0031431Y0055649D01*
X0031340Y0055631D01*
X0031249Y0055616D01*
X0031157Y0055605D01*
X0031065Y0055598D01*
X0030972Y0055595D01*
X0030880Y0055596D01*
X0030787Y0055601D01*
X0030695Y0055610D01*
X0030603Y0055623D01*
X0030512Y0055639D01*
X0030422Y0055660D01*
X0030333Y0055684D01*
X0030245Y0055713D01*
X0030158Y0055745D01*
X0030073Y0055780D01*
X0029989Y0055820D01*
X0029907Y0055862D01*
X0029827Y0055909D01*
X0029749Y0055958D01*
X0029673Y0056011D01*
X0029599Y0056067D01*
X0029528Y0056127D01*
X0029460Y0056189D01*
X0029394Y0056254D01*
X0029331Y0056322D01*
X0029271Y0056392D01*
X0029214Y0056465D01*
X0029160Y0056540D01*
X0029110Y0056618D01*
X0029063Y0056698D01*
X0029019Y0056779D01*
X0028979Y0056863D01*
X0028942Y0056948D01*
X0028909Y0057034D01*
X0028880Y0057122D01*
X0028855Y0057211D01*
X0028833Y0057301D01*
X0028816Y0057392D01*
X0028802Y0057483D01*
X0028792Y0057575D01*
X0028786Y0057667D01*
X0028784Y0057760D01*
X0111461Y0057760D02*
X0111463Y0057853D01*
X0111469Y0057945D01*
X0111479Y0058037D01*
X0111493Y0058128D01*
X0111510Y0058219D01*
X0111532Y0058309D01*
X0111557Y0058398D01*
X0111586Y0058486D01*
X0111619Y0058572D01*
X0111656Y0058657D01*
X0111696Y0058741D01*
X0111740Y0058822D01*
X0111787Y0058902D01*
X0111837Y0058980D01*
X0111891Y0059055D01*
X0111948Y0059128D01*
X0112008Y0059198D01*
X0112071Y0059266D01*
X0112137Y0059331D01*
X0112205Y0059393D01*
X0112276Y0059453D01*
X0112350Y0059509D01*
X0112426Y0059562D01*
X0112504Y0059611D01*
X0112584Y0059658D01*
X0112666Y0059700D01*
X0112750Y0059740D01*
X0112835Y0059775D01*
X0112922Y0059807D01*
X0113010Y0059836D01*
X0113099Y0059860D01*
X0113189Y0059881D01*
X0113280Y0059897D01*
X0113372Y0059910D01*
X0113464Y0059919D01*
X0113557Y0059924D01*
X0113649Y0059925D01*
X0113742Y0059922D01*
X0113834Y0059915D01*
X0113926Y0059904D01*
X0114017Y0059889D01*
X0114108Y0059871D01*
X0114198Y0059848D01*
X0114286Y0059822D01*
X0114374Y0059792D01*
X0114460Y0059758D01*
X0114544Y0059721D01*
X0114627Y0059679D01*
X0114708Y0059635D01*
X0114788Y0059587D01*
X0114865Y0059536D01*
X0114939Y0059481D01*
X0115012Y0059423D01*
X0115082Y0059363D01*
X0115149Y0059299D01*
X0115213Y0059233D01*
X0115275Y0059163D01*
X0115333Y0059092D01*
X0115388Y0059018D01*
X0115440Y0058941D01*
X0115489Y0058862D01*
X0115535Y0058782D01*
X0115577Y0058699D01*
X0115615Y0058615D01*
X0115650Y0058529D01*
X0115681Y0058442D01*
X0115708Y0058354D01*
X0115731Y0058264D01*
X0115751Y0058174D01*
X0115767Y0058083D01*
X0115779Y0057991D01*
X0115787Y0057899D01*
X0115791Y0057806D01*
X0115791Y0057714D01*
X0115787Y0057621D01*
X0115779Y0057529D01*
X0115767Y0057437D01*
X0115751Y0057346D01*
X0115731Y0057256D01*
X0115708Y0057166D01*
X0115681Y0057078D01*
X0115650Y0056991D01*
X0115615Y0056905D01*
X0115577Y0056821D01*
X0115535Y0056738D01*
X0115489Y0056658D01*
X0115440Y0056579D01*
X0115388Y0056502D01*
X0115333Y0056428D01*
X0115275Y0056357D01*
X0115213Y0056287D01*
X0115149Y0056221D01*
X0115082Y0056157D01*
X0115012Y0056097D01*
X0114939Y0056039D01*
X0114865Y0055984D01*
X0114788Y0055933D01*
X0114709Y0055885D01*
X0114627Y0055841D01*
X0114544Y0055799D01*
X0114460Y0055762D01*
X0114374Y0055728D01*
X0114286Y0055698D01*
X0114198Y0055672D01*
X0114108Y0055649D01*
X0114017Y0055631D01*
X0113926Y0055616D01*
X0113834Y0055605D01*
X0113742Y0055598D01*
X0113649Y0055595D01*
X0113557Y0055596D01*
X0113464Y0055601D01*
X0113372Y0055610D01*
X0113280Y0055623D01*
X0113189Y0055639D01*
X0113099Y0055660D01*
X0113010Y0055684D01*
X0112922Y0055713D01*
X0112835Y0055745D01*
X0112750Y0055780D01*
X0112666Y0055820D01*
X0112584Y0055862D01*
X0112504Y0055909D01*
X0112426Y0055958D01*
X0112350Y0056011D01*
X0112276Y0056067D01*
X0112205Y0056127D01*
X0112137Y0056189D01*
X0112071Y0056254D01*
X0112008Y0056322D01*
X0111948Y0056392D01*
X0111891Y0056465D01*
X0111837Y0056540D01*
X0111787Y0056618D01*
X0111740Y0056698D01*
X0111696Y0056779D01*
X0111656Y0056863D01*
X0111619Y0056948D01*
X0111586Y0057034D01*
X0111557Y0057122D01*
X0111532Y0057211D01*
X0111510Y0057301D01*
X0111493Y0057392D01*
X0111479Y0057483D01*
X0111469Y0057575D01*
X0111463Y0057667D01*
X0111461Y0057760D01*
X0121461Y0057760D02*
X0121463Y0057853D01*
X0121469Y0057945D01*
X0121479Y0058037D01*
X0121493Y0058128D01*
X0121510Y0058219D01*
X0121532Y0058309D01*
X0121557Y0058398D01*
X0121586Y0058486D01*
X0121619Y0058572D01*
X0121656Y0058657D01*
X0121696Y0058741D01*
X0121740Y0058822D01*
X0121787Y0058902D01*
X0121837Y0058980D01*
X0121891Y0059055D01*
X0121948Y0059128D01*
X0122008Y0059198D01*
X0122071Y0059266D01*
X0122137Y0059331D01*
X0122205Y0059393D01*
X0122276Y0059453D01*
X0122350Y0059509D01*
X0122426Y0059562D01*
X0122504Y0059611D01*
X0122584Y0059658D01*
X0122666Y0059700D01*
X0122750Y0059740D01*
X0122835Y0059775D01*
X0122922Y0059807D01*
X0123010Y0059836D01*
X0123099Y0059860D01*
X0123189Y0059881D01*
X0123280Y0059897D01*
X0123372Y0059910D01*
X0123464Y0059919D01*
X0123557Y0059924D01*
X0123649Y0059925D01*
X0123742Y0059922D01*
X0123834Y0059915D01*
X0123926Y0059904D01*
X0124017Y0059889D01*
X0124108Y0059871D01*
X0124198Y0059848D01*
X0124286Y0059822D01*
X0124374Y0059792D01*
X0124460Y0059758D01*
X0124544Y0059721D01*
X0124627Y0059679D01*
X0124708Y0059635D01*
X0124788Y0059587D01*
X0124865Y0059536D01*
X0124939Y0059481D01*
X0125012Y0059423D01*
X0125082Y0059363D01*
X0125149Y0059299D01*
X0125213Y0059233D01*
X0125275Y0059163D01*
X0125333Y0059092D01*
X0125388Y0059018D01*
X0125440Y0058941D01*
X0125489Y0058862D01*
X0125535Y0058782D01*
X0125577Y0058699D01*
X0125615Y0058615D01*
X0125650Y0058529D01*
X0125681Y0058442D01*
X0125708Y0058354D01*
X0125731Y0058264D01*
X0125751Y0058174D01*
X0125767Y0058083D01*
X0125779Y0057991D01*
X0125787Y0057899D01*
X0125791Y0057806D01*
X0125791Y0057714D01*
X0125787Y0057621D01*
X0125779Y0057529D01*
X0125767Y0057437D01*
X0125751Y0057346D01*
X0125731Y0057256D01*
X0125708Y0057166D01*
X0125681Y0057078D01*
X0125650Y0056991D01*
X0125615Y0056905D01*
X0125577Y0056821D01*
X0125535Y0056738D01*
X0125489Y0056658D01*
X0125440Y0056579D01*
X0125388Y0056502D01*
X0125333Y0056428D01*
X0125275Y0056357D01*
X0125213Y0056287D01*
X0125149Y0056221D01*
X0125082Y0056157D01*
X0125012Y0056097D01*
X0124939Y0056039D01*
X0124865Y0055984D01*
X0124788Y0055933D01*
X0124709Y0055885D01*
X0124627Y0055841D01*
X0124544Y0055799D01*
X0124460Y0055762D01*
X0124374Y0055728D01*
X0124286Y0055698D01*
X0124198Y0055672D01*
X0124108Y0055649D01*
X0124017Y0055631D01*
X0123926Y0055616D01*
X0123834Y0055605D01*
X0123742Y0055598D01*
X0123649Y0055595D01*
X0123557Y0055596D01*
X0123464Y0055601D01*
X0123372Y0055610D01*
X0123280Y0055623D01*
X0123189Y0055639D01*
X0123099Y0055660D01*
X0123010Y0055684D01*
X0122922Y0055713D01*
X0122835Y0055745D01*
X0122750Y0055780D01*
X0122666Y0055820D01*
X0122584Y0055862D01*
X0122504Y0055909D01*
X0122426Y0055958D01*
X0122350Y0056011D01*
X0122276Y0056067D01*
X0122205Y0056127D01*
X0122137Y0056189D01*
X0122071Y0056254D01*
X0122008Y0056322D01*
X0121948Y0056392D01*
X0121891Y0056465D01*
X0121837Y0056540D01*
X0121787Y0056618D01*
X0121740Y0056698D01*
X0121696Y0056779D01*
X0121656Y0056863D01*
X0121619Y0056948D01*
X0121586Y0057034D01*
X0121557Y0057122D01*
X0121532Y0057211D01*
X0121510Y0057301D01*
X0121493Y0057392D01*
X0121479Y0057483D01*
X0121469Y0057575D01*
X0121463Y0057667D01*
X0121461Y0057760D01*
X0121461Y0047760D02*
X0121463Y0047853D01*
X0121469Y0047945D01*
X0121479Y0048037D01*
X0121493Y0048128D01*
X0121510Y0048219D01*
X0121532Y0048309D01*
X0121557Y0048398D01*
X0121586Y0048486D01*
X0121619Y0048572D01*
X0121656Y0048657D01*
X0121696Y0048741D01*
X0121740Y0048822D01*
X0121787Y0048902D01*
X0121837Y0048980D01*
X0121891Y0049055D01*
X0121948Y0049128D01*
X0122008Y0049198D01*
X0122071Y0049266D01*
X0122137Y0049331D01*
X0122205Y0049393D01*
X0122276Y0049453D01*
X0122350Y0049509D01*
X0122426Y0049562D01*
X0122504Y0049611D01*
X0122584Y0049658D01*
X0122666Y0049700D01*
X0122750Y0049740D01*
X0122835Y0049775D01*
X0122922Y0049807D01*
X0123010Y0049836D01*
X0123099Y0049860D01*
X0123189Y0049881D01*
X0123280Y0049897D01*
X0123372Y0049910D01*
X0123464Y0049919D01*
X0123557Y0049924D01*
X0123649Y0049925D01*
X0123742Y0049922D01*
X0123834Y0049915D01*
X0123926Y0049904D01*
X0124017Y0049889D01*
X0124108Y0049871D01*
X0124198Y0049848D01*
X0124286Y0049822D01*
X0124374Y0049792D01*
X0124460Y0049758D01*
X0124544Y0049721D01*
X0124627Y0049679D01*
X0124708Y0049635D01*
X0124788Y0049587D01*
X0124865Y0049536D01*
X0124939Y0049481D01*
X0125012Y0049423D01*
X0125082Y0049363D01*
X0125149Y0049299D01*
X0125213Y0049233D01*
X0125275Y0049163D01*
X0125333Y0049092D01*
X0125388Y0049018D01*
X0125440Y0048941D01*
X0125489Y0048862D01*
X0125535Y0048782D01*
X0125577Y0048699D01*
X0125615Y0048615D01*
X0125650Y0048529D01*
X0125681Y0048442D01*
X0125708Y0048354D01*
X0125731Y0048264D01*
X0125751Y0048174D01*
X0125767Y0048083D01*
X0125779Y0047991D01*
X0125787Y0047899D01*
X0125791Y0047806D01*
X0125791Y0047714D01*
X0125787Y0047621D01*
X0125779Y0047529D01*
X0125767Y0047437D01*
X0125751Y0047346D01*
X0125731Y0047256D01*
X0125708Y0047166D01*
X0125681Y0047078D01*
X0125650Y0046991D01*
X0125615Y0046905D01*
X0125577Y0046821D01*
X0125535Y0046738D01*
X0125489Y0046658D01*
X0125440Y0046579D01*
X0125388Y0046502D01*
X0125333Y0046428D01*
X0125275Y0046357D01*
X0125213Y0046287D01*
X0125149Y0046221D01*
X0125082Y0046157D01*
X0125012Y0046097D01*
X0124939Y0046039D01*
X0124865Y0045984D01*
X0124788Y0045933D01*
X0124709Y0045885D01*
X0124627Y0045841D01*
X0124544Y0045799D01*
X0124460Y0045762D01*
X0124374Y0045728D01*
X0124286Y0045698D01*
X0124198Y0045672D01*
X0124108Y0045649D01*
X0124017Y0045631D01*
X0123926Y0045616D01*
X0123834Y0045605D01*
X0123742Y0045598D01*
X0123649Y0045595D01*
X0123557Y0045596D01*
X0123464Y0045601D01*
X0123372Y0045610D01*
X0123280Y0045623D01*
X0123189Y0045639D01*
X0123099Y0045660D01*
X0123010Y0045684D01*
X0122922Y0045713D01*
X0122835Y0045745D01*
X0122750Y0045780D01*
X0122666Y0045820D01*
X0122584Y0045862D01*
X0122504Y0045909D01*
X0122426Y0045958D01*
X0122350Y0046011D01*
X0122276Y0046067D01*
X0122205Y0046127D01*
X0122137Y0046189D01*
X0122071Y0046254D01*
X0122008Y0046322D01*
X0121948Y0046392D01*
X0121891Y0046465D01*
X0121837Y0046540D01*
X0121787Y0046618D01*
X0121740Y0046698D01*
X0121696Y0046779D01*
X0121656Y0046863D01*
X0121619Y0046948D01*
X0121586Y0047034D01*
X0121557Y0047122D01*
X0121532Y0047211D01*
X0121510Y0047301D01*
X0121493Y0047392D01*
X0121479Y0047483D01*
X0121469Y0047575D01*
X0121463Y0047667D01*
X0121461Y0047760D01*
X0111461Y0047760D02*
X0111463Y0047853D01*
X0111469Y0047945D01*
X0111479Y0048037D01*
X0111493Y0048128D01*
X0111510Y0048219D01*
X0111532Y0048309D01*
X0111557Y0048398D01*
X0111586Y0048486D01*
X0111619Y0048572D01*
X0111656Y0048657D01*
X0111696Y0048741D01*
X0111740Y0048822D01*
X0111787Y0048902D01*
X0111837Y0048980D01*
X0111891Y0049055D01*
X0111948Y0049128D01*
X0112008Y0049198D01*
X0112071Y0049266D01*
X0112137Y0049331D01*
X0112205Y0049393D01*
X0112276Y0049453D01*
X0112350Y0049509D01*
X0112426Y0049562D01*
X0112504Y0049611D01*
X0112584Y0049658D01*
X0112666Y0049700D01*
X0112750Y0049740D01*
X0112835Y0049775D01*
X0112922Y0049807D01*
X0113010Y0049836D01*
X0113099Y0049860D01*
X0113189Y0049881D01*
X0113280Y0049897D01*
X0113372Y0049910D01*
X0113464Y0049919D01*
X0113557Y0049924D01*
X0113649Y0049925D01*
X0113742Y0049922D01*
X0113834Y0049915D01*
X0113926Y0049904D01*
X0114017Y0049889D01*
X0114108Y0049871D01*
X0114198Y0049848D01*
X0114286Y0049822D01*
X0114374Y0049792D01*
X0114460Y0049758D01*
X0114544Y0049721D01*
X0114627Y0049679D01*
X0114708Y0049635D01*
X0114788Y0049587D01*
X0114865Y0049536D01*
X0114939Y0049481D01*
X0115012Y0049423D01*
X0115082Y0049363D01*
X0115149Y0049299D01*
X0115213Y0049233D01*
X0115275Y0049163D01*
X0115333Y0049092D01*
X0115388Y0049018D01*
X0115440Y0048941D01*
X0115489Y0048862D01*
X0115535Y0048782D01*
X0115577Y0048699D01*
X0115615Y0048615D01*
X0115650Y0048529D01*
X0115681Y0048442D01*
X0115708Y0048354D01*
X0115731Y0048264D01*
X0115751Y0048174D01*
X0115767Y0048083D01*
X0115779Y0047991D01*
X0115787Y0047899D01*
X0115791Y0047806D01*
X0115791Y0047714D01*
X0115787Y0047621D01*
X0115779Y0047529D01*
X0115767Y0047437D01*
X0115751Y0047346D01*
X0115731Y0047256D01*
X0115708Y0047166D01*
X0115681Y0047078D01*
X0115650Y0046991D01*
X0115615Y0046905D01*
X0115577Y0046821D01*
X0115535Y0046738D01*
X0115489Y0046658D01*
X0115440Y0046579D01*
X0115388Y0046502D01*
X0115333Y0046428D01*
X0115275Y0046357D01*
X0115213Y0046287D01*
X0115149Y0046221D01*
X0115082Y0046157D01*
X0115012Y0046097D01*
X0114939Y0046039D01*
X0114865Y0045984D01*
X0114788Y0045933D01*
X0114709Y0045885D01*
X0114627Y0045841D01*
X0114544Y0045799D01*
X0114460Y0045762D01*
X0114374Y0045728D01*
X0114286Y0045698D01*
X0114198Y0045672D01*
X0114108Y0045649D01*
X0114017Y0045631D01*
X0113926Y0045616D01*
X0113834Y0045605D01*
X0113742Y0045598D01*
X0113649Y0045595D01*
X0113557Y0045596D01*
X0113464Y0045601D01*
X0113372Y0045610D01*
X0113280Y0045623D01*
X0113189Y0045639D01*
X0113099Y0045660D01*
X0113010Y0045684D01*
X0112922Y0045713D01*
X0112835Y0045745D01*
X0112750Y0045780D01*
X0112666Y0045820D01*
X0112584Y0045862D01*
X0112504Y0045909D01*
X0112426Y0045958D01*
X0112350Y0046011D01*
X0112276Y0046067D01*
X0112205Y0046127D01*
X0112137Y0046189D01*
X0112071Y0046254D01*
X0112008Y0046322D01*
X0111948Y0046392D01*
X0111891Y0046465D01*
X0111837Y0046540D01*
X0111787Y0046618D01*
X0111740Y0046698D01*
X0111696Y0046779D01*
X0111656Y0046863D01*
X0111619Y0046948D01*
X0111586Y0047034D01*
X0111557Y0047122D01*
X0111532Y0047211D01*
X0111510Y0047301D01*
X0111493Y0047392D01*
X0111479Y0047483D01*
X0111469Y0047575D01*
X0111463Y0047667D01*
X0111461Y0047760D01*
X0111461Y0037760D02*
X0111463Y0037853D01*
X0111469Y0037945D01*
X0111479Y0038037D01*
X0111493Y0038128D01*
X0111510Y0038219D01*
X0111532Y0038309D01*
X0111557Y0038398D01*
X0111586Y0038486D01*
X0111619Y0038572D01*
X0111656Y0038657D01*
X0111696Y0038741D01*
X0111740Y0038822D01*
X0111787Y0038902D01*
X0111837Y0038980D01*
X0111891Y0039055D01*
X0111948Y0039128D01*
X0112008Y0039198D01*
X0112071Y0039266D01*
X0112137Y0039331D01*
X0112205Y0039393D01*
X0112276Y0039453D01*
X0112350Y0039509D01*
X0112426Y0039562D01*
X0112504Y0039611D01*
X0112584Y0039658D01*
X0112666Y0039700D01*
X0112750Y0039740D01*
X0112835Y0039775D01*
X0112922Y0039807D01*
X0113010Y0039836D01*
X0113099Y0039860D01*
X0113189Y0039881D01*
X0113280Y0039897D01*
X0113372Y0039910D01*
X0113464Y0039919D01*
X0113557Y0039924D01*
X0113649Y0039925D01*
X0113742Y0039922D01*
X0113834Y0039915D01*
X0113926Y0039904D01*
X0114017Y0039889D01*
X0114108Y0039871D01*
X0114198Y0039848D01*
X0114286Y0039822D01*
X0114374Y0039792D01*
X0114460Y0039758D01*
X0114544Y0039721D01*
X0114627Y0039679D01*
X0114708Y0039635D01*
X0114788Y0039587D01*
X0114865Y0039536D01*
X0114939Y0039481D01*
X0115012Y0039423D01*
X0115082Y0039363D01*
X0115149Y0039299D01*
X0115213Y0039233D01*
X0115275Y0039163D01*
X0115333Y0039092D01*
X0115388Y0039018D01*
X0115440Y0038941D01*
X0115489Y0038862D01*
X0115535Y0038782D01*
X0115577Y0038699D01*
X0115615Y0038615D01*
X0115650Y0038529D01*
X0115681Y0038442D01*
X0115708Y0038354D01*
X0115731Y0038264D01*
X0115751Y0038174D01*
X0115767Y0038083D01*
X0115779Y0037991D01*
X0115787Y0037899D01*
X0115791Y0037806D01*
X0115791Y0037714D01*
X0115787Y0037621D01*
X0115779Y0037529D01*
X0115767Y0037437D01*
X0115751Y0037346D01*
X0115731Y0037256D01*
X0115708Y0037166D01*
X0115681Y0037078D01*
X0115650Y0036991D01*
X0115615Y0036905D01*
X0115577Y0036821D01*
X0115535Y0036738D01*
X0115489Y0036658D01*
X0115440Y0036579D01*
X0115388Y0036502D01*
X0115333Y0036428D01*
X0115275Y0036357D01*
X0115213Y0036287D01*
X0115149Y0036221D01*
X0115082Y0036157D01*
X0115012Y0036097D01*
X0114939Y0036039D01*
X0114865Y0035984D01*
X0114788Y0035933D01*
X0114709Y0035885D01*
X0114627Y0035841D01*
X0114544Y0035799D01*
X0114460Y0035762D01*
X0114374Y0035728D01*
X0114286Y0035698D01*
X0114198Y0035672D01*
X0114108Y0035649D01*
X0114017Y0035631D01*
X0113926Y0035616D01*
X0113834Y0035605D01*
X0113742Y0035598D01*
X0113649Y0035595D01*
X0113557Y0035596D01*
X0113464Y0035601D01*
X0113372Y0035610D01*
X0113280Y0035623D01*
X0113189Y0035639D01*
X0113099Y0035660D01*
X0113010Y0035684D01*
X0112922Y0035713D01*
X0112835Y0035745D01*
X0112750Y0035780D01*
X0112666Y0035820D01*
X0112584Y0035862D01*
X0112504Y0035909D01*
X0112426Y0035958D01*
X0112350Y0036011D01*
X0112276Y0036067D01*
X0112205Y0036127D01*
X0112137Y0036189D01*
X0112071Y0036254D01*
X0112008Y0036322D01*
X0111948Y0036392D01*
X0111891Y0036465D01*
X0111837Y0036540D01*
X0111787Y0036618D01*
X0111740Y0036698D01*
X0111696Y0036779D01*
X0111656Y0036863D01*
X0111619Y0036948D01*
X0111586Y0037034D01*
X0111557Y0037122D01*
X0111532Y0037211D01*
X0111510Y0037301D01*
X0111493Y0037392D01*
X0111479Y0037483D01*
X0111469Y0037575D01*
X0111463Y0037667D01*
X0111461Y0037760D01*
X0121461Y0037760D02*
X0121463Y0037853D01*
X0121469Y0037945D01*
X0121479Y0038037D01*
X0121493Y0038128D01*
X0121510Y0038219D01*
X0121532Y0038309D01*
X0121557Y0038398D01*
X0121586Y0038486D01*
X0121619Y0038572D01*
X0121656Y0038657D01*
X0121696Y0038741D01*
X0121740Y0038822D01*
X0121787Y0038902D01*
X0121837Y0038980D01*
X0121891Y0039055D01*
X0121948Y0039128D01*
X0122008Y0039198D01*
X0122071Y0039266D01*
X0122137Y0039331D01*
X0122205Y0039393D01*
X0122276Y0039453D01*
X0122350Y0039509D01*
X0122426Y0039562D01*
X0122504Y0039611D01*
X0122584Y0039658D01*
X0122666Y0039700D01*
X0122750Y0039740D01*
X0122835Y0039775D01*
X0122922Y0039807D01*
X0123010Y0039836D01*
X0123099Y0039860D01*
X0123189Y0039881D01*
X0123280Y0039897D01*
X0123372Y0039910D01*
X0123464Y0039919D01*
X0123557Y0039924D01*
X0123649Y0039925D01*
X0123742Y0039922D01*
X0123834Y0039915D01*
X0123926Y0039904D01*
X0124017Y0039889D01*
X0124108Y0039871D01*
X0124198Y0039848D01*
X0124286Y0039822D01*
X0124374Y0039792D01*
X0124460Y0039758D01*
X0124544Y0039721D01*
X0124627Y0039679D01*
X0124708Y0039635D01*
X0124788Y0039587D01*
X0124865Y0039536D01*
X0124939Y0039481D01*
X0125012Y0039423D01*
X0125082Y0039363D01*
X0125149Y0039299D01*
X0125213Y0039233D01*
X0125275Y0039163D01*
X0125333Y0039092D01*
X0125388Y0039018D01*
X0125440Y0038941D01*
X0125489Y0038862D01*
X0125535Y0038782D01*
X0125577Y0038699D01*
X0125615Y0038615D01*
X0125650Y0038529D01*
X0125681Y0038442D01*
X0125708Y0038354D01*
X0125731Y0038264D01*
X0125751Y0038174D01*
X0125767Y0038083D01*
X0125779Y0037991D01*
X0125787Y0037899D01*
X0125791Y0037806D01*
X0125791Y0037714D01*
X0125787Y0037621D01*
X0125779Y0037529D01*
X0125767Y0037437D01*
X0125751Y0037346D01*
X0125731Y0037256D01*
X0125708Y0037166D01*
X0125681Y0037078D01*
X0125650Y0036991D01*
X0125615Y0036905D01*
X0125577Y0036821D01*
X0125535Y0036738D01*
X0125489Y0036658D01*
X0125440Y0036579D01*
X0125388Y0036502D01*
X0125333Y0036428D01*
X0125275Y0036357D01*
X0125213Y0036287D01*
X0125149Y0036221D01*
X0125082Y0036157D01*
X0125012Y0036097D01*
X0124939Y0036039D01*
X0124865Y0035984D01*
X0124788Y0035933D01*
X0124709Y0035885D01*
X0124627Y0035841D01*
X0124544Y0035799D01*
X0124460Y0035762D01*
X0124374Y0035728D01*
X0124286Y0035698D01*
X0124198Y0035672D01*
X0124108Y0035649D01*
X0124017Y0035631D01*
X0123926Y0035616D01*
X0123834Y0035605D01*
X0123742Y0035598D01*
X0123649Y0035595D01*
X0123557Y0035596D01*
X0123464Y0035601D01*
X0123372Y0035610D01*
X0123280Y0035623D01*
X0123189Y0035639D01*
X0123099Y0035660D01*
X0123010Y0035684D01*
X0122922Y0035713D01*
X0122835Y0035745D01*
X0122750Y0035780D01*
X0122666Y0035820D01*
X0122584Y0035862D01*
X0122504Y0035909D01*
X0122426Y0035958D01*
X0122350Y0036011D01*
X0122276Y0036067D01*
X0122205Y0036127D01*
X0122137Y0036189D01*
X0122071Y0036254D01*
X0122008Y0036322D01*
X0121948Y0036392D01*
X0121891Y0036465D01*
X0121837Y0036540D01*
X0121787Y0036618D01*
X0121740Y0036698D01*
X0121696Y0036779D01*
X0121656Y0036863D01*
X0121619Y0036948D01*
X0121586Y0037034D01*
X0121557Y0037122D01*
X0121532Y0037211D01*
X0121510Y0037301D01*
X0121493Y0037392D01*
X0121479Y0037483D01*
X0121469Y0037575D01*
X0121463Y0037667D01*
X0121461Y0037760D01*
D11*
X0089098Y0044413D03*
X0089098Y0051106D03*
D12*
X0062917Y0069413D03*
X0055437Y0069413D03*
D13*
X0053469Y0047760D03*
X0061736Y0047760D03*
D14*
X0060949Y0039886D03*
X0054256Y0039886D03*
D15*
X0073154Y0040260D03*
X0073154Y0045260D03*
X0073154Y0050260D03*
X0073154Y0055260D03*
D16*
X0079256Y0052681D03*
X0080240Y0046776D03*
X0094020Y0042839D03*
X0095004Y0036933D03*
X0101402Y0032012D03*
X0086146Y0034965D03*
X0061539Y0032012D03*
X0048252Y0042839D03*
X0035949Y0034965D03*
X0024138Y0042839D03*
X0035949Y0050713D03*
X0049728Y0052681D03*
X0056126Y0058094D03*
X0060555Y0057602D03*
X0064000Y0053665D03*
X0063508Y0063508D03*
X0068429Y0072366D03*
X0081224Y0070398D03*
X0080240Y0063508D03*
X0091067Y0065476D03*
X0097957Y0071382D03*
X0093035Y0056618D03*
X0119118Y0053173D03*
X0128469Y0052681D03*
D17*
X0125702Y0050867D02*
X0124355Y0051425D01*
X0122897Y0051425D01*
X0121550Y0050867D01*
X0120519Y0049836D01*
X0119961Y0048489D01*
X0119961Y0047031D01*
X0120519Y0045684D01*
X0121550Y0044652D01*
X0122897Y0044094D01*
X0124355Y0044094D01*
X0125702Y0044652D01*
X0126733Y0045684D01*
X0127291Y0047031D01*
X0127291Y0048489D01*
X0126733Y0049836D01*
X0125702Y0050867D01*
X0125698Y0050869D02*
X0134055Y0050869D01*
X0134055Y0051867D02*
X0092567Y0051867D01*
X0092567Y0051591D02*
X0092567Y0053469D01*
X0092465Y0053851D01*
X0092267Y0054193D01*
X0091988Y0054472D01*
X0091646Y0054669D01*
X0091264Y0054772D01*
X0089583Y0054772D01*
X0089583Y0051591D01*
X0088614Y0051591D01*
X0088614Y0054772D01*
X0086932Y0054772D01*
X0086551Y0054669D01*
X0086209Y0054472D01*
X0085930Y0054193D01*
X0085732Y0053851D01*
X0085630Y0053469D01*
X0085630Y0051591D01*
X0088614Y0051591D01*
X0088614Y0050622D01*
X0085630Y0050622D01*
X0085630Y0048743D01*
X0085732Y0048362D01*
X0085930Y0048020D01*
X0086190Y0047760D01*
X0085630Y0047200D01*
X0085630Y0046413D01*
X0085399Y0046413D01*
X0085193Y0046620D01*
X0085193Y0049573D01*
X0084021Y0050744D01*
X0082506Y0052260D01*
X0077802Y0052260D01*
X0077302Y0052760D01*
X0077803Y0053261D01*
X0077803Y0057259D01*
X0076924Y0058138D01*
X0069738Y0058138D01*
X0066492Y0061384D01*
X0065321Y0062555D01*
X0057758Y0062555D01*
X0056008Y0060805D01*
X0055199Y0060805D01*
X0057737Y0063343D01*
X0057737Y0064961D01*
X0058617Y0064961D01*
X0059177Y0065520D01*
X0059437Y0065260D01*
X0059779Y0065063D01*
X0060161Y0064961D01*
X0062417Y0064961D01*
X0062417Y0068913D01*
X0063417Y0068913D01*
X0063417Y0064961D01*
X0065674Y0064961D01*
X0066055Y0065063D01*
X0066397Y0065260D01*
X0066677Y0065540D01*
X0066874Y0065882D01*
X0066976Y0066263D01*
X0066976Y0068913D01*
X0063417Y0068913D01*
X0063417Y0069913D01*
X0066976Y0069913D01*
X0066976Y0072564D01*
X0066874Y0072945D01*
X0066677Y0073287D01*
X0066397Y0073566D01*
X0066055Y0073764D01*
X0065850Y0073819D01*
X0100909Y0073819D01*
X0101385Y0073772D01*
X0102263Y0073408D01*
X0102936Y0072736D01*
X0103300Y0071857D01*
X0103346Y0071382D01*
X0103346Y0066363D01*
X0104174Y0064365D01*
X0105704Y0062836D01*
X0107702Y0062008D01*
X0131618Y0062008D01*
X0132094Y0061961D01*
X0132972Y0061597D01*
X0133644Y0060925D01*
X0134008Y0060046D01*
X0134055Y0059571D01*
X0134055Y0035949D01*
X0134008Y0035473D01*
X0133644Y0034595D01*
X0132972Y0033923D01*
X0132094Y0033559D01*
X0131618Y0033512D01*
X0107702Y0033512D01*
X0105704Y0032684D01*
X0105704Y0032684D01*
X0104174Y0031155D01*
X0104174Y0031155D01*
X0103346Y0029156D01*
X0103346Y0024138D01*
X0103300Y0023662D01*
X0102936Y0022784D01*
X0102263Y0022111D01*
X0101385Y0021748D01*
X0100909Y0021701D01*
X0053665Y0021701D01*
X0053190Y0021748D01*
X0052311Y0022111D01*
X0051639Y0022784D01*
X0051275Y0023662D01*
X0051228Y0024138D01*
X0051228Y0029156D01*
X0050401Y0031155D01*
X0048871Y0032684D01*
X0046873Y0033512D01*
X0023055Y0033512D01*
X0022580Y0033559D01*
X0021701Y0033923D01*
X0021029Y0034595D01*
X0020665Y0035473D01*
X0020618Y0035949D01*
X0020618Y0059571D01*
X0020665Y0060046D01*
X0021029Y0060925D01*
X0021701Y0061597D01*
X0022580Y0061961D01*
X0023055Y0062008D01*
X0043991Y0062008D01*
X0043854Y0061871D01*
X0042902Y0060918D01*
X0041678Y0061425D01*
X0040220Y0061425D01*
X0038873Y0060867D01*
X0037841Y0059836D01*
X0037283Y0058489D01*
X0037283Y0057031D01*
X0037790Y0055807D01*
X0035406Y0053423D01*
X0034826Y0053423D01*
X0033239Y0051835D01*
X0033239Y0050654D01*
X0033025Y0050867D01*
X0031678Y0051425D01*
X0030220Y0051425D01*
X0028873Y0050867D01*
X0027841Y0049836D01*
X0027283Y0048489D01*
X0027283Y0047031D01*
X0027841Y0045684D01*
X0028686Y0044839D01*
X0025971Y0044839D01*
X0025260Y0045549D01*
X0023015Y0045549D01*
X0021428Y0043961D01*
X0021428Y0041716D01*
X0023015Y0040128D01*
X0025260Y0040128D01*
X0025971Y0040839D01*
X0028844Y0040839D01*
X0027841Y0039836D01*
X0027283Y0038489D01*
X0027283Y0037031D01*
X0027841Y0035684D01*
X0028873Y0034652D01*
X0030220Y0034094D01*
X0031678Y0034094D01*
X0033025Y0034652D01*
X0034056Y0035684D01*
X0034614Y0037031D01*
X0034614Y0038489D01*
X0034056Y0039836D01*
X0033054Y0040839D01*
X0038844Y0040839D01*
X0037841Y0039836D01*
X0037283Y0038489D01*
X0037283Y0037031D01*
X0037841Y0035684D01*
X0038873Y0034652D01*
X0040220Y0034094D01*
X0041678Y0034094D01*
X0043025Y0034652D01*
X0044056Y0035684D01*
X0044614Y0037031D01*
X0044614Y0038489D01*
X0044098Y0039735D01*
X0045947Y0037886D01*
X0050591Y0037886D01*
X0050591Y0037296D01*
X0051469Y0036417D01*
X0057043Y0036417D01*
X0057602Y0036977D01*
X0058162Y0036417D01*
X0063735Y0036417D01*
X0064614Y0037296D01*
X0064614Y0042476D01*
X0063735Y0043354D01*
X0063539Y0043354D01*
X0063539Y0043667D01*
X0063309Y0043898D01*
X0064296Y0043898D01*
X0064677Y0044000D01*
X0065019Y0044197D01*
X0065299Y0044477D01*
X0065445Y0044730D01*
X0065445Y0041026D01*
X0066616Y0039854D01*
X0068211Y0038260D01*
X0068505Y0038260D01*
X0069383Y0037382D01*
X0076924Y0037382D01*
X0077803Y0038261D01*
X0077803Y0042259D01*
X0077302Y0042760D01*
X0077503Y0042961D01*
X0077701Y0043303D01*
X0077803Y0043684D01*
X0077803Y0045071D01*
X0073343Y0045071D01*
X0073343Y0045449D01*
X0077803Y0045449D01*
X0077803Y0046835D01*
X0077701Y0047217D01*
X0077503Y0047559D01*
X0077302Y0047760D01*
X0077802Y0048260D01*
X0080849Y0048260D01*
X0081193Y0047916D01*
X0081193Y0044963D01*
X0082364Y0043791D01*
X0083742Y0042413D01*
X0085630Y0042413D01*
X0085630Y0041627D01*
X0086509Y0040748D01*
X0091688Y0040748D01*
X0091983Y0041043D01*
X0092897Y0040128D01*
X0095142Y0040128D01*
X0096730Y0041716D01*
X0096730Y0043961D01*
X0095142Y0045549D01*
X0094138Y0045549D01*
X0093273Y0046413D01*
X0092567Y0046413D01*
X0092567Y0047200D01*
X0092007Y0047760D01*
X0092267Y0048020D01*
X0092465Y0048362D01*
X0092567Y0048743D01*
X0092567Y0050622D01*
X0089583Y0050622D01*
X0089583Y0051591D01*
X0092567Y0051591D01*
X0092567Y0052866D02*
X0134055Y0052866D01*
X0134055Y0053864D02*
X0092457Y0053864D01*
X0089583Y0053864D02*
X0088614Y0053864D01*
X0088614Y0052866D02*
X0089583Y0052866D01*
X0089583Y0051867D02*
X0088614Y0051867D01*
X0088614Y0050869D02*
X0083897Y0050869D01*
X0084895Y0049870D02*
X0085630Y0049870D01*
X0085630Y0048872D02*
X0085193Y0048872D01*
X0085193Y0047873D02*
X0086076Y0047873D01*
X0085630Y0046875D02*
X0085193Y0046875D01*
X0083193Y0045791D02*
X0083193Y0048744D01*
X0081677Y0050260D01*
X0073154Y0050260D01*
X0077416Y0047873D02*
X0081193Y0047873D01*
X0081193Y0046875D02*
X0077793Y0046875D01*
X0077803Y0045876D02*
X0081193Y0045876D01*
X0081278Y0044878D02*
X0077803Y0044878D01*
X0077803Y0043879D02*
X0082277Y0043879D01*
X0083275Y0042881D02*
X0077423Y0042881D01*
X0077803Y0041882D02*
X0085630Y0041882D01*
X0086373Y0040884D02*
X0077803Y0040884D01*
X0077803Y0039885D02*
X0110568Y0039885D01*
X0110519Y0039836D02*
X0109961Y0038489D01*
X0109961Y0037031D01*
X0110519Y0035684D01*
X0111550Y0034652D01*
X0112897Y0034094D01*
X0114355Y0034094D01*
X0115702Y0034652D01*
X0116733Y0035684D01*
X0117291Y0037031D01*
X0117291Y0038489D01*
X0116733Y0039836D01*
X0115702Y0040867D01*
X0114355Y0041425D01*
X0112897Y0041425D01*
X0111550Y0040867D01*
X0110519Y0039836D01*
X0110125Y0038887D02*
X0085052Y0038887D01*
X0085006Y0038933D02*
X0083349Y0038933D01*
X0082177Y0037761D01*
X0082177Y0036105D01*
X0083435Y0034846D01*
X0083435Y0033842D01*
X0085023Y0032254D01*
X0087268Y0032254D01*
X0088856Y0033842D01*
X0088856Y0036087D01*
X0087268Y0037675D01*
X0086264Y0037675D01*
X0085006Y0038933D01*
X0086051Y0037888D02*
X0109961Y0037888D01*
X0110019Y0036890D02*
X0088053Y0036890D01*
X0088856Y0035891D02*
X0110433Y0035891D01*
X0111310Y0034893D02*
X0088856Y0034893D01*
X0088856Y0033894D02*
X0132903Y0033894D01*
X0133768Y0034893D02*
X0125942Y0034893D01*
X0125702Y0034652D02*
X0126733Y0035684D01*
X0127291Y0037031D01*
X0127291Y0038489D01*
X0126733Y0039836D01*
X0125702Y0040867D01*
X0124355Y0041425D01*
X0122897Y0041425D01*
X0121550Y0040867D01*
X0120519Y0039836D01*
X0119961Y0038489D01*
X0119961Y0037031D01*
X0120519Y0035684D01*
X0121550Y0034652D01*
X0122897Y0034094D01*
X0124355Y0034094D01*
X0125702Y0034652D01*
X0126819Y0035891D02*
X0134049Y0035891D01*
X0134055Y0036890D02*
X0127233Y0036890D01*
X0127291Y0037888D02*
X0134055Y0037888D01*
X0134055Y0038887D02*
X0127127Y0038887D01*
X0126684Y0039885D02*
X0134055Y0039885D01*
X0134055Y0040884D02*
X0125663Y0040884D01*
X0121589Y0040884D02*
X0115663Y0040884D01*
X0116684Y0039885D02*
X0120568Y0039885D01*
X0120125Y0038887D02*
X0117127Y0038887D01*
X0117291Y0037888D02*
X0119961Y0037888D01*
X0120019Y0036890D02*
X0117233Y0036890D01*
X0116819Y0035891D02*
X0120433Y0035891D01*
X0121310Y0034893D02*
X0115942Y0034893D01*
X0111589Y0040884D02*
X0095898Y0040884D01*
X0096730Y0041882D02*
X0134055Y0041882D01*
X0134055Y0042881D02*
X0096730Y0042881D01*
X0096730Y0043879D02*
X0134055Y0043879D01*
X0134055Y0044878D02*
X0125927Y0044878D01*
X0126813Y0045876D02*
X0134055Y0045876D01*
X0134055Y0046875D02*
X0127227Y0046875D01*
X0127291Y0047873D02*
X0134055Y0047873D01*
X0134055Y0048872D02*
X0127133Y0048872D01*
X0126699Y0049870D02*
X0134055Y0049870D01*
X0134055Y0054863D02*
X0125913Y0054863D01*
X0125702Y0054652D02*
X0126733Y0055684D01*
X0127291Y0057031D01*
X0127291Y0058489D01*
X0126733Y0059836D01*
X0125702Y0060867D01*
X0124355Y0061425D01*
X0122897Y0061425D01*
X0121550Y0060867D01*
X0120519Y0059836D01*
X0119961Y0058489D01*
X0119961Y0057031D01*
X0120519Y0055684D01*
X0121550Y0054652D01*
X0122897Y0054094D01*
X0124355Y0054094D01*
X0125702Y0054652D01*
X0126807Y0055861D02*
X0134055Y0055861D01*
X0134055Y0056860D02*
X0127221Y0056860D01*
X0127291Y0057858D02*
X0134055Y0057858D01*
X0134055Y0058857D02*
X0127139Y0058857D01*
X0126714Y0059855D02*
X0134027Y0059855D01*
X0133674Y0060854D02*
X0125716Y0060854D01*
X0121536Y0060854D02*
X0115716Y0060854D01*
X0115702Y0060867D02*
X0114355Y0061425D01*
X0112897Y0061425D01*
X0111550Y0060867D01*
X0110519Y0059836D01*
X0109961Y0058489D01*
X0109961Y0057031D01*
X0110519Y0055684D01*
X0111550Y0054652D01*
X0112897Y0054094D01*
X0114355Y0054094D01*
X0115702Y0054652D01*
X0116733Y0055684D01*
X0117291Y0057031D01*
X0117291Y0058489D01*
X0116733Y0059836D01*
X0115702Y0060867D01*
X0116714Y0059855D02*
X0120538Y0059855D01*
X0120113Y0058857D02*
X0117139Y0058857D01*
X0117291Y0057858D02*
X0119961Y0057858D01*
X0120031Y0056860D02*
X0117221Y0056860D01*
X0116807Y0055861D02*
X0120445Y0055861D01*
X0121339Y0054863D02*
X0115913Y0054863D01*
X0111339Y0054863D02*
X0077803Y0054863D01*
X0077803Y0055861D02*
X0110445Y0055861D01*
X0110031Y0056860D02*
X0077803Y0056860D01*
X0077204Y0057858D02*
X0109961Y0057858D01*
X0110113Y0058857D02*
X0069019Y0058857D01*
X0068020Y0059855D02*
X0110538Y0059855D01*
X0111536Y0060854D02*
X0067022Y0060854D01*
X0066023Y0061852D02*
X0132356Y0061852D01*
X0132972Y0061597D02*
X0132972Y0061597D01*
X0121553Y0050869D02*
X0115698Y0050869D01*
X0115702Y0050867D02*
X0114355Y0051425D01*
X0112897Y0051425D01*
X0111550Y0050867D01*
X0110519Y0049836D01*
X0109961Y0048489D01*
X0109961Y0047031D01*
X0110519Y0045684D01*
X0111550Y0044652D01*
X0112897Y0044094D01*
X0114355Y0044094D01*
X0115702Y0044652D01*
X0116733Y0045684D01*
X0117291Y0047031D01*
X0117291Y0048489D01*
X0116733Y0049836D01*
X0115702Y0050867D01*
X0116699Y0049870D02*
X0120553Y0049870D01*
X0120119Y0048872D02*
X0117133Y0048872D01*
X0117291Y0047873D02*
X0119961Y0047873D01*
X0120025Y0046875D02*
X0117227Y0046875D01*
X0116813Y0045876D02*
X0120439Y0045876D01*
X0121325Y0044878D02*
X0115927Y0044878D01*
X0111325Y0044878D02*
X0095813Y0044878D01*
X0093810Y0045876D02*
X0110439Y0045876D01*
X0110025Y0046875D02*
X0092567Y0046875D01*
X0092120Y0047873D02*
X0109961Y0047873D01*
X0110119Y0048872D02*
X0092567Y0048872D01*
X0092567Y0049870D02*
X0110553Y0049870D01*
X0111553Y0050869D02*
X0089583Y0050869D01*
X0085630Y0051867D02*
X0082898Y0051867D01*
X0085630Y0052866D02*
X0077408Y0052866D01*
X0077803Y0053864D02*
X0085740Y0053864D01*
X0073154Y0055260D02*
X0069787Y0055260D01*
X0064492Y0060555D01*
X0058587Y0060555D01*
X0056126Y0058094D01*
X0058094Y0056230D02*
X0059433Y0054892D01*
X0061678Y0054892D01*
X0062388Y0055602D01*
X0063664Y0055602D01*
X0065445Y0053821D01*
X0065445Y0050790D01*
X0065299Y0051043D01*
X0065019Y0051322D01*
X0064677Y0051520D01*
X0064296Y0051622D01*
X0062236Y0051622D01*
X0062236Y0048260D01*
X0061236Y0048260D01*
X0061236Y0047260D01*
X0057874Y0047260D01*
X0057874Y0045823D01*
X0057331Y0045823D01*
X0057331Y0050743D01*
X0056452Y0051622D01*
X0050485Y0051622D01*
X0049606Y0050743D01*
X0049606Y0044776D01*
X0050485Y0043898D01*
X0051746Y0043898D01*
X0052290Y0043354D01*
X0051469Y0043354D01*
X0050591Y0042476D01*
X0050591Y0041886D01*
X0047604Y0041886D01*
X0045823Y0043667D01*
X0044651Y0044839D01*
X0043211Y0044839D01*
X0044056Y0045684D01*
X0044614Y0047031D01*
X0044614Y0048489D01*
X0044056Y0049836D01*
X0043025Y0050867D01*
X0041822Y0051365D01*
X0044776Y0051365D01*
X0046123Y0052713D01*
X0047107Y0053697D01*
X0047107Y0058618D01*
X0047728Y0059239D01*
X0053438Y0059239D01*
X0053416Y0059217D01*
X0053416Y0056972D01*
X0055003Y0055384D01*
X0057249Y0055384D01*
X0058094Y0056230D01*
X0057726Y0055861D02*
X0058463Y0055861D01*
X0060555Y0057602D02*
X0064492Y0057602D01*
X0067445Y0054650D01*
X0067445Y0041854D01*
X0069039Y0040260D01*
X0073154Y0040260D01*
X0077803Y0038887D02*
X0083302Y0038887D01*
X0082304Y0037888D02*
X0077431Y0037888D01*
X0082177Y0036890D02*
X0064208Y0036890D01*
X0064614Y0037888D02*
X0068876Y0037888D01*
X0067584Y0038887D02*
X0064614Y0038887D01*
X0064614Y0039885D02*
X0066586Y0039885D01*
X0065587Y0040884D02*
X0064614Y0040884D01*
X0064614Y0041882D02*
X0065445Y0041882D01*
X0065445Y0042881D02*
X0064209Y0042881D01*
X0063327Y0043879D02*
X0065445Y0043879D01*
X0061539Y0042839D02*
X0061539Y0040476D01*
X0060949Y0039886D01*
X0061539Y0042839D02*
X0060555Y0043823D01*
X0054650Y0043823D01*
X0053469Y0045004D01*
X0053469Y0047760D01*
X0049606Y0047873D02*
X0044614Y0047873D01*
X0044550Y0046875D02*
X0049606Y0046875D01*
X0049606Y0045876D02*
X0044136Y0045876D01*
X0043250Y0044878D02*
X0049606Y0044878D01*
X0051765Y0043879D02*
X0045611Y0043879D01*
X0046609Y0042881D02*
X0050996Y0042881D01*
X0054256Y0039886D02*
X0046776Y0039886D01*
X0043823Y0042839D01*
X0024138Y0042839D01*
X0021428Y0042881D02*
X0020618Y0042881D01*
X0020618Y0043879D02*
X0021428Y0043879D01*
X0020618Y0044878D02*
X0022344Y0044878D01*
X0020618Y0045876D02*
X0027762Y0045876D01*
X0027348Y0046875D02*
X0020618Y0046875D01*
X0020618Y0047873D02*
X0027283Y0047873D01*
X0027442Y0048872D02*
X0020618Y0048872D01*
X0020618Y0049870D02*
X0027876Y0049870D01*
X0028876Y0050869D02*
X0020618Y0050869D01*
X0020618Y0051867D02*
X0033271Y0051867D01*
X0033239Y0050869D02*
X0033021Y0050869D01*
X0034269Y0052866D02*
X0020618Y0052866D01*
X0020618Y0053864D02*
X0035848Y0053864D01*
X0036846Y0054863D02*
X0033235Y0054863D01*
X0033025Y0054652D02*
X0034056Y0055684D01*
X0034614Y0057031D01*
X0034614Y0058489D01*
X0034056Y0059836D01*
X0033025Y0060867D01*
X0031678Y0061425D01*
X0030220Y0061425D01*
X0028873Y0060867D01*
X0027841Y0059836D01*
X0027283Y0058489D01*
X0027283Y0057031D01*
X0027841Y0055684D01*
X0028873Y0054652D01*
X0030220Y0054094D01*
X0031678Y0054094D01*
X0033025Y0054652D01*
X0034130Y0055861D02*
X0037768Y0055861D01*
X0037354Y0056860D02*
X0034543Y0056860D01*
X0034614Y0057858D02*
X0037283Y0057858D01*
X0037436Y0058857D02*
X0034462Y0058857D01*
X0034037Y0059855D02*
X0037861Y0059855D01*
X0038859Y0060854D02*
X0033038Y0060854D01*
X0028859Y0060854D02*
X0020999Y0060854D01*
X0020646Y0059855D02*
X0027861Y0059855D01*
X0027436Y0058857D02*
X0020618Y0058857D01*
X0020618Y0057858D02*
X0027283Y0057858D01*
X0027354Y0056860D02*
X0020618Y0056860D01*
X0020618Y0055861D02*
X0027768Y0055861D01*
X0028662Y0054863D02*
X0020618Y0054863D01*
X0022317Y0061852D02*
X0043836Y0061852D01*
X0047346Y0058857D02*
X0053416Y0058857D01*
X0053416Y0057858D02*
X0047107Y0057858D01*
X0047107Y0056860D02*
X0053528Y0056860D01*
X0054526Y0055861D02*
X0047107Y0055861D01*
X0047107Y0054863D02*
X0064403Y0054863D01*
X0065402Y0053864D02*
X0047107Y0053864D01*
X0046276Y0052866D02*
X0065445Y0052866D01*
X0065445Y0051867D02*
X0045277Y0051867D01*
X0043021Y0050869D02*
X0049732Y0050869D01*
X0049606Y0049870D02*
X0044022Y0049870D01*
X0044456Y0048872D02*
X0049606Y0048872D01*
X0057331Y0048872D02*
X0057874Y0048872D01*
X0057874Y0048260D02*
X0061236Y0048260D01*
X0061236Y0051622D01*
X0059177Y0051622D01*
X0058795Y0051520D01*
X0058453Y0051322D01*
X0058174Y0051043D01*
X0057976Y0050701D01*
X0057874Y0050320D01*
X0057874Y0048260D01*
X0057331Y0047873D02*
X0061236Y0047873D01*
X0061236Y0048872D02*
X0062236Y0048872D01*
X0062236Y0049870D02*
X0061236Y0049870D01*
X0061236Y0050869D02*
X0062236Y0050869D01*
X0065399Y0050869D02*
X0065445Y0050869D01*
X0058073Y0050869D02*
X0057205Y0050869D01*
X0057331Y0049870D02*
X0057874Y0049870D01*
X0057874Y0046875D02*
X0057331Y0046875D01*
X0057331Y0045876D02*
X0057874Y0045876D01*
X0044946Y0038887D02*
X0044449Y0038887D01*
X0044614Y0037888D02*
X0045945Y0037888D01*
X0044556Y0036890D02*
X0050997Y0036890D01*
X0048871Y0032684D02*
X0048871Y0032684D01*
X0048871Y0032684D01*
X0048361Y0032896D02*
X0084382Y0032896D01*
X0083435Y0033894D02*
X0021770Y0033894D01*
X0020906Y0034893D02*
X0028632Y0034893D01*
X0027756Y0035891D02*
X0020624Y0035891D01*
X0020618Y0036890D02*
X0027342Y0036890D01*
X0027283Y0037888D02*
X0020618Y0037888D01*
X0020618Y0038887D02*
X0027448Y0038887D01*
X0027891Y0039885D02*
X0020618Y0039885D01*
X0020618Y0040884D02*
X0022260Y0040884D01*
X0021428Y0041882D02*
X0020618Y0041882D01*
X0025932Y0044878D02*
X0028647Y0044878D01*
X0034007Y0039885D02*
X0037891Y0039885D01*
X0037448Y0038887D02*
X0034449Y0038887D01*
X0034614Y0037888D02*
X0037283Y0037888D01*
X0037342Y0036890D02*
X0034556Y0036890D01*
X0034142Y0035891D02*
X0037756Y0035891D01*
X0038632Y0034893D02*
X0033265Y0034893D01*
X0043265Y0034893D02*
X0083389Y0034893D01*
X0082391Y0035891D02*
X0044142Y0035891D01*
X0049658Y0031897D02*
X0104917Y0031897D01*
X0104068Y0030899D02*
X0050507Y0030899D01*
X0050401Y0031155D02*
X0050401Y0031155D01*
X0050920Y0029900D02*
X0103655Y0029900D01*
X0103346Y0028901D02*
X0051228Y0028901D01*
X0051228Y0027903D02*
X0103346Y0027903D01*
X0103346Y0026904D02*
X0051228Y0026904D01*
X0051228Y0025906D02*
X0103346Y0025906D01*
X0103346Y0024907D02*
X0051228Y0024907D01*
X0051251Y0023909D02*
X0103324Y0023909D01*
X0102988Y0022910D02*
X0051587Y0022910D01*
X0052793Y0021912D02*
X0101782Y0021912D01*
X0106214Y0032896D02*
X0087909Y0032896D01*
X0086146Y0034965D02*
X0084177Y0036933D01*
X0091824Y0040884D02*
X0092142Y0040884D01*
X0094020Y0042839D02*
X0092445Y0044413D01*
X0089098Y0044413D01*
X0084571Y0044413D01*
X0083193Y0045791D01*
X0057690Y0036890D02*
X0057515Y0036890D01*
X0056057Y0060854D02*
X0055248Y0060854D01*
X0056247Y0061852D02*
X0057055Y0061852D01*
X0057245Y0062851D02*
X0105688Y0062851D01*
X0105704Y0062836D02*
X0105704Y0062836D01*
X0104690Y0063849D02*
X0057737Y0063849D01*
X0057737Y0064848D02*
X0103974Y0064848D01*
X0104174Y0064365D02*
X0104174Y0064365D01*
X0103561Y0065846D02*
X0066854Y0065846D01*
X0066976Y0066845D02*
X0103346Y0066845D01*
X0103346Y0067843D02*
X0066976Y0067843D01*
X0066976Y0068842D02*
X0103346Y0068842D01*
X0103346Y0069840D02*
X0063417Y0069840D01*
X0063417Y0068842D02*
X0062417Y0068842D01*
X0062417Y0067843D02*
X0063417Y0067843D01*
X0063417Y0066845D02*
X0062417Y0066845D01*
X0062417Y0065846D02*
X0063417Y0065846D01*
X0066976Y0070839D02*
X0103346Y0070839D01*
X0103302Y0071837D02*
X0066976Y0071837D01*
X0066903Y0072836D02*
X0102836Y0072836D01*
D18*
X0055437Y0069413D02*
X0055437Y0064295D01*
X0052681Y0061539D01*
X0046776Y0061539D01*
X0044807Y0059571D01*
X0044807Y0054650D01*
X0043823Y0053665D01*
X0038902Y0053665D01*
X0035949Y0050713D01*
M02*
