%
M48
M72
T01C0.01181
T02C0.01220
T03C0.04331
T04C0.04724
%
T01
X52484Y32012
X62720Y36736
X30437Y43035
X67445Y60358
T02
X35752Y35358
X49925Y53469
X67445Y36736
X94217Y36736
X119118Y53173
X129650Y47760
X128665Y52681
X77091Y65083
T03
X40949Y37760
X30949Y37760
X30949Y47760
X40949Y47760
X40949Y57760
X30949Y57760
X113626Y47760
X123626Y47760
X123626Y57760
X113626Y57760
X113626Y37760
X123626Y37760
T04
X87130Y72366
X67445Y72366
X87130Y23154
X67445Y23154
M30
