<svg version="1.1" xmlns="http://www.w3.org/2000/svg" xmlns:xlink="http://www.w3.org/1999/xlink" stroke-linecap="round" stroke-linejoin="round" stroke-width="0" fill-rule="evenodd" width="10.7897in" height="4.835in" viewBox="2407.7 2407.7 10789.7 4835" id="aT6ogfXuFvVcWlQhBgL2"><defs><circle cx="0" cy="0" r="6.1" id="aT6ogfXuFvVcWlQhBgL2_pad-1"/><circle cx="0" cy="0" r="21.655" id="aT6ogfXuFvVcWlQhBgL2_pad-2"/></defs><g transform="translate(0,9650.4) scale(1,-1)" fill="currentColor" stroke="currentColor"><use xlink:href="#aT6ogfXuFvVcWlQhBgL2_pad-1" x="3594.9" y="3496.5"/><use xlink:href="#aT6ogfXuFvVcWlQhBgL2_pad-1" x="2413.8" y="4283.9"/><use xlink:href="#aT6ogfXuFvVcWlQhBgL2_pad-1" x="3594.9" y="5071.3"/><use xlink:href="#aT6ogfXuFvVcWlQhBgL2_pad-1" x="4972.8" y="5268.1"/><use xlink:href="#aT6ogfXuFvVcWlQhBgL2_pad-1" x="5612.6" y="5809.4"/><use xlink:href="#aT6ogfXuFvVcWlQhBgL2_pad-1" x="6055.5" y="5760.2"/><use xlink:href="#aT6ogfXuFvVcWlQhBgL2_pad-1" x="6498.4" y="5563.4"/><use xlink:href="#aT6ogfXuFvVcWlQhBgL2_pad-1" x="7433.5" y="5071.3"/><use xlink:href="#aT6ogfXuFvVcWlQhBgL2_pad-1" x="8024" y="5071.3"/><use xlink:href="#aT6ogfXuFvVcWlQhBgL2_pad-1" x="8024" y="4677.6"/><use xlink:href="#aT6ogfXuFvVcWlQhBgL2_pad-1" x="7433.5" y="4677.6"/><use xlink:href="#aT6ogfXuFvVcWlQhBgL2_pad-1" x="6547.6" y="4283.9"/><use xlink:href="#aT6ogfXuFvVcWlQhBgL2_pad-1" x="7728.7" y="3447.2"/><use xlink:href="#aT6ogfXuFvVcWlQhBgL2_pad-1" x="7039.8" y="3201.2"/><use xlink:href="#aT6ogfXuFvVcWlQhBgL2_pad-1" x="7039.8" y="2413.8"/><use xlink:href="#aT6ogfXuFvVcWlQhBgL2_pad-1" x="8614.6" y="3496.5"/><use xlink:href="#aT6ogfXuFvVcWlQhBgL2_pad-1" x="9500.4" y="3693.3"/><use xlink:href="#aT6ogfXuFvVcWlQhBgL2_pad-1" x="9894.1" y="4283.9"/><use xlink:href="#aT6ogfXuFvVcWlQhBgL2_pad-1" x="11911.8" y="5317.3"/><use xlink:href="#aT6ogfXuFvVcWlQhBgL2_pad-1" x="13191.3" y="5317.3"/><use xlink:href="#aT6ogfXuFvVcWlQhBgL2_pad-1" x="9500.4" y="3004.3"/><use xlink:href="#aT6ogfXuFvVcWlQhBgL2_pad-1" x="9303.5" y="5661.8"/><use xlink:href="#aT6ogfXuFvVcWlQhBgL2_pad-1" x="9106.7" y="6547.6"/><use xlink:href="#aT6ogfXuFvVcWlQhBgL2_pad-1" x="9795.7" y="7138.2"/><use xlink:href="#aT6ogfXuFvVcWlQhBgL2_pad-1" x="8122.4" y="7039.8"/><use xlink:href="#aT6ogfXuFvVcWlQhBgL2_pad-1" x="6842.9" y="7236.6"/><use xlink:href="#aT6ogfXuFvVcWlQhBgL2_pad-1" x="6350.8" y="6350.8"/><use xlink:href="#aT6ogfXuFvVcWlQhBgL2_pad-2" x="4094.9" y="3776"/><use xlink:href="#aT6ogfXuFvVcWlQhBgL2_pad-2" x="3094.9" y="3776"/><use xlink:href="#aT6ogfXuFvVcWlQhBgL2_pad-2" x="3094.9" y="4776"/><use xlink:href="#aT6ogfXuFvVcWlQhBgL2_pad-2" x="4094.9" y="4776"/><use xlink:href="#aT6ogfXuFvVcWlQhBgL2_pad-2" x="4094.9" y="5776"/><use xlink:href="#aT6ogfXuFvVcWlQhBgL2_pad-2" x="3094.9" y="5776"/><use xlink:href="#aT6ogfXuFvVcWlQhBgL2_pad-2" x="11362.6" y="5776"/><use xlink:href="#aT6ogfXuFvVcWlQhBgL2_pad-2" x="12362.6" y="5776"/><use xlink:href="#aT6ogfXuFvVcWlQhBgL2_pad-2" x="12362.6" y="4776"/><use xlink:href="#aT6ogfXuFvVcWlQhBgL2_pad-2" x="11362.6" y="4776"/><use xlink:href="#aT6ogfXuFvVcWlQhBgL2_pad-2" x="11362.6" y="3776"/><use xlink:href="#aT6ogfXuFvVcWlQhBgL2_pad-2" x="12362.6" y="3776"/></g></svg>