<svg version="1.1" xmlns="http://www.w3.org/2000/svg" xmlns:xlink="http://www.w3.org/1999/xlink" stroke-linecap="round" stroke-linejoin="round" stroke-width="0" fill-rule="evenodd" width="1.16398in" height="0.55118in" viewBox="191.57 202.01 1163.98 551.18" id="uKCW6BtMvNc8jslFMlL6"><defs><rect x="-19.685" y="-21.655" width="39.37" height="43.31" id="uKCW6BtMvNc8jslFMlL6_pad-11"/><rect x="-21.655" y="-19.685" width="43.31" height="39.37" id="uKCW6BtMvNc8jslFMlL6_pad-12"/><rect x="-25.59" y="-29.53" width="51.18" height="59.06" id="uKCW6BtMvNc8jslFMlL6_pad-13"/><rect x="-53.15" y="-51.18" width="106.3" height="102.36" id="uKCW6BtMvNc8jslFMlL6_pad-15"/><rect x="-23.62" y="-23.62" width="47.24" height="47.24" id="uKCW6BtMvNc8jslFMlL6_pad-16"/><polygon points="12.09998,5.01197 5.01197,12.09998 -5.01197,12.09998 -12.09998,5.01197 -12.09998,-5.01197 -5.01197,-12.09998 5.01197,-12.09998 12.09998,-5.01197" id="uKCW6BtMvNc8jslFMlL6_pad-17"/></defs><g transform="translate(0,955.1999999999999) scale(1,-1)" fill="currentColor" stroke="currentColor"><path d="M 457.91 320.12 459.15 320.1 460.38 320.04 461.62 319.95 462.84 319.81 464.07 319.64 465.29 319.42 466.5 319.17 467.7 318.88 468.89 318.56 470.08 318.19 471.25 317.79 472.4 317.36 473.55 316.88 474.67 316.37 475.78 315.83 476.88 315.25 477.95 314.64 479.01 313.99 480.04 313.31 481.05 312.6 482.04 311.86 483.01 311.09 483.95 310.28 484.86 309.45 485.75 308.59 486.61 307.7 487.44 306.79 488.25 305.85 489.02 304.88 489.76 303.89 490.47 302.88 491.15 301.85 491.8 300.79 492.41 299.72 492.99 298.62 493.53 297.51 494.04 296.39 494.52 295.24 494.95 294.09 495.35 292.92 495.72 291.73 496.04 290.54 496.33 289.34 496.58 288.13 496.8 286.91 496.97 285.68 497.11 284.46 497.2 283.22 497.26 281.99 497.28 280.75 497.28 241.38 497.3 240.14 497.36 238.91 497.45 237.67 497.59 236.45 497.76 235.22 497.98 234 498.23 232.79 498.52 231.59 498.84 230.4 499.21 229.21 499.61 228.04 500.04 226.89 500.52 225.74 501.03 224.62 501.57 223.51 502.15 222.41 502.76 221.34 503.41 220.28 504.09 219.25 504.8 218.24 505.54 217.25 506.31 216.28 507.12 215.34 507.95 214.43 508.81 213.54 509.7 212.68 510.61 211.85 511.55 211.04 512.52 210.27 513.51 209.53 514.52 208.82 515.55 208.14 516.61 207.49 517.68 206.88 518.78 206.3 519.89 205.76 521.01 205.25 522.16 204.77 523.31 204.34 524.48 203.94 525.67 203.57 526.86 203.25 528.06 202.96 529.27 202.71 530.49 202.49 531.72 202.32 532.94 202.18 534.18 202.09 535.41 202.03 536.65 202.01 1009.09 202.01 1010.33 202.03 1011.56 202.09 1012.8 202.18 1014.02 202.32 1015.25 202.49 1016.47 202.71 1017.68 202.96 1018.88 203.25 1020.07 203.57 1021.26 203.94 1022.43 204.34 1023.58 204.77 1024.73 205.25 1025.85 205.76 1026.96 206.3 1028.06 206.88 1029.13 207.49 1030.19 208.14 1031.22 208.82 1032.23 209.53 1033.22 210.27 1034.19 211.04 1035.13 211.85 1036.04 212.68 1036.93 213.54 1037.79 214.43 1038.62 215.34 1039.43 216.28 1040.2 217.25 1040.94 218.24 1041.65 219.25 1042.33 220.28 1042.98 221.34 1043.59 222.41 1044.17 223.51 1044.71 224.62 1045.22 225.74 1045.7 226.89 1046.13 228.04 1046.53 229.21 1046.9 230.4 1047.22 231.59 1047.51 232.79 1047.76 234 1047.98 235.22 1048.15 236.45 1048.29 237.67 1048.38 238.91 1048.44 240.14 1048.46 241.38 1048.46 280.75 1048.48 281.99 1048.54 283.22 1048.63 284.46 1048.77 285.68 1048.94 286.91 1049.16 288.13 1049.41 289.34 1049.7 290.54 1050.02 291.73 1050.39 292.92 1050.79 294.09 1051.22 295.24 1051.7 296.39 1052.21 297.51 1052.75 298.62 1053.33 299.72 1053.94 300.79 1054.59 301.85 1055.27 302.88 1055.98 303.89 1056.72 304.88 1057.49 305.85 1058.3 306.79 1059.13 307.7 1059.99 308.59 1060.88 309.45 1061.79 310.28 1062.73 311.09 1063.7 311.86 1064.69 312.6 1065.7 313.31 1066.73 313.99 1067.79 314.64 1068.86 315.25 1069.96 315.83 1071.07 316.37 1072.19 316.88 1073.34 317.36 1074.49 317.79 1075.66 318.19 1076.85 318.56 1078.04 318.88 1079.24 319.17 1080.45 319.42 1081.67 319.64 1082.9 319.81 1084.12 319.95 1085.36 320.04 1086.59 320.1 1087.83 320.12 1316.18 322.09 1317.42 322.11 1318.65 322.17 1319.89 322.26 1321.11 322.4 1322.34 322.57 1323.56 322.79 1324.77 323.04 1325.97 323.33 1327.16 323.65 1328.35 324.02 1329.52 324.42 1330.67 324.85 1331.82 325.33 1332.94 325.84 1334.05 326.38 1335.15 326.96 1336.22 327.57 1337.28 328.22 1338.31 328.9 1339.32 329.61 1340.31 330.35 1341.28 331.12 1342.22 331.93 1343.13 332.76 1344.02 333.62 1344.88 334.51 1345.71 335.42 1346.52 336.36 1347.29 337.33 1348.03 338.32 1348.74 339.33 1349.42 340.36 1350.07 341.42 1350.68 342.49 1351.26 343.59 1351.8 344.7 1352.31 345.82 1352.79 346.97 1353.22 348.12 1353.62 349.29 1353.99 350.48 1354.31 351.67 1354.6 352.87 1354.85 354.08 1355.07 355.3 1355.24 356.53 1355.38 357.75 1355.47 358.99 1355.53 360.22 1355.55 361.46 1355.55 597.68 1355.53 598.92 1355.47 600.15 1355.38 601.39 1355.24 602.61 1355.07 603.84 1354.85 605.06 1354.6 606.27 1354.31 607.47 1353.99 608.66 1353.62 609.85 1353.22 611.02 1352.79 612.17 1352.31 613.32 1351.8 614.44 1351.26 615.55 1350.68 616.65 1350.07 617.72 1349.42 618.78 1348.74 619.81 1348.03 620.82 1347.29 621.81 1346.52 622.78 1345.71 623.72 1344.88 624.63 1344.02 625.52 1343.13 626.38 1342.22 627.21 1341.28 628.02 1340.31 628.79 1339.32 629.53 1338.31 630.24 1337.28 630.92 1336.22 631.57 1335.15 632.18 1334.05 632.76 1332.94 633.3 1331.82 633.81 1330.67 634.29 1329.52 634.72 1328.35 635.12 1327.16 635.49 1325.97 635.81 1324.77 636.1 1323.56 636.35 1322.34 636.57 1321.11 636.74 1319.89 636.88 1318.65 636.97 1317.42 637.03 1316.18 637.05 1087.83 635.08 1086.59 635.1 1085.36 635.16 1084.12 635.25 1082.9 635.39 1081.67 635.56 1080.45 635.78 1079.24 636.03 1078.04 636.32 1076.85 636.64 1075.66 637.01 1074.49 637.41 1073.34 637.84 1072.19 638.32 1071.07 638.83 1069.96 639.37 1068.86 639.95 1067.79 640.56 1066.73 641.21 1065.7 641.89 1064.69 642.6 1063.7 643.34 1062.73 644.11 1061.79 644.92 1060.88 645.75 1059.99 646.61 1059.13 647.5 1058.3 648.41 1057.49 649.35 1056.72 650.32 1055.98 651.31 1055.27 652.32 1054.59 653.35 1053.94 654.41 1053.33 655.48 1052.75 656.58 1052.21 657.69 1051.7 658.81 1051.22 659.96 1050.79 661.11 1050.39 662.28 1050.02 663.47 1049.7 664.66 1049.41 665.86 1049.16 667.07 1048.94 668.29 1048.77 669.52 1048.63 670.74 1048.54 671.98 1048.48 673.21 1048.46 674.45 1048.46 713.82 1048.44 715.06 1048.38 716.29 1048.29 717.53 1048.15 718.75 1047.98 719.98 1047.76 721.2 1047.51 722.41 1047.22 723.61 1046.9 724.8 1046.53 725.99 1046.13 727.16 1045.7 728.31 1045.22 729.46 1044.71 730.58 1044.17 731.69 1043.59 732.79 1042.98 733.86 1042.33 734.92 1041.65 735.95 1040.94 736.96 1040.2 737.95 1039.43 738.92 1038.62 739.86 1037.79 740.77 1036.93 741.66 1036.04 742.52 1035.13 743.35 1034.19 744.16 1033.22 744.93 1032.23 745.67 1031.22 746.38 1030.19 747.06 1029.13 747.71 1028.06 748.32 1026.96 748.9 1025.85 749.44 1024.73 749.95 1023.58 750.43 1022.43 750.86 1021.26 751.26 1020.07 751.63 1018.88 751.95 1017.68 752.24 1016.47 752.49 1015.25 752.71 1014.02 752.88 1012.8 753.02 1011.56 753.11 1010.33 753.17 1009.09 753.19 536.65 753.19 535.41 753.17 534.18 753.11 532.94 753.02 531.72 752.88 530.49 752.71 529.27 752.49 528.06 752.24 526.86 751.95 525.67 751.63 524.48 751.26 523.31 750.86 522.16 750.43 521.01 749.95 519.89 749.44 518.78 748.9 517.68 748.32 516.61 747.71 515.55 747.06 514.52 746.38 513.51 745.67 512.52 744.93 511.55 744.16 510.61 743.35 509.7 742.52 508.81 741.66 507.95 740.77 507.12 739.86 506.31 738.92 505.54 737.95 504.8 736.96 504.09 735.95 503.41 734.92 502.76 733.86 502.15 732.79 501.57 731.69 501.03 730.58 500.52 729.46 500.04 728.31 499.61 727.16 499.21 725.99 498.84 724.8 498.52 723.61 498.23 722.41 497.98 721.2 497.76 719.98 497.59 718.75 497.45 717.53 497.36 716.29 497.3 715.06 497.28 713.82 497.28 674.45 497.26 673.21 497.2 671.98 497.11 670.74 496.97 669.52 496.8 668.29 496.58 667.07 496.33 665.86 496.04 664.66 495.72 663.47 495.35 662.28 494.95 661.11 494.52 659.96 494.04 658.81 493.53 657.69 492.99 656.58 492.41 655.48 491.8 654.41 491.15 653.35 490.47 652.32 489.76 651.31 489.02 650.32 488.25 649.35 487.44 648.41 486.61 647.5 485.75 646.61 484.86 645.75 483.95 644.92 483.01 644.11 482.04 643.34 481.05 642.6 480.04 641.89 479.01 641.21 477.95 640.56 476.88 639.95 475.78 639.37 474.67 638.83 473.55 638.32 472.4 637.84 471.25 637.41 470.08 637.01 468.89 636.64 467.7 636.32 466.5 636.03 465.29 635.78 464.07 635.56 462.84 635.39 461.62 635.25 460.38 635.16 459.15 635.1 457.91 635.08 230.94 635.08 229.7 635.06 228.47 635 227.23 634.91 226.01 634.77 224.78 634.6 223.56 634.38 222.35 634.13 221.15 633.84 219.96 633.52 218.77 633.15 217.6 632.75 216.45 632.32 215.3 631.84 214.18 631.33 213.07 630.79 211.97 630.21 210.9 629.6 209.84 628.95 208.81 628.27 207.8 627.56 206.81 626.82 205.84 626.05 204.9 625.24 203.99 624.41 203.1 623.55 202.24 622.66 201.41 621.75 200.6 620.81 199.83 619.84 199.09 618.85 198.38 617.84 197.7 616.81 197.05 615.75 196.44 614.68 195.86 613.58 195.32 612.47 194.81 611.35 194.33 610.2 193.9 609.05 193.5 607.88 193.13 606.69 192.81 605.5 192.52 604.3 192.27 603.09 192.05 601.87 191.88 600.64 191.74 599.42 191.65 598.18 191.59 596.95 191.57 595.71 191.57 359.49 191.59 358.25 191.65 357.02 191.74 355.78 191.88 354.56 192.05 353.33 192.27 352.11 192.52 350.9 192.81 349.7 193.13 348.51 193.5 347.32 193.9 346.15 194.33 345 194.81 343.85 195.32 342.73 195.86 341.62 196.44 340.52 197.05 339.45 197.7 338.39 198.38 337.36 199.09 336.35 199.83 335.36 200.6 334.39 201.41 333.45 202.24 332.54 203.1 331.65 203.99 330.79 204.9 329.96 205.84 329.15 206.81 328.38 207.8 327.64 208.81 326.93 209.84 326.25 210.9 325.6 211.97 324.99 213.07 324.41 214.18 323.87 215.3 323.36 216.45 322.88 217.6 322.45 218.77 322.05 219.96 321.68 221.15 321.36 222.35 321.07 223.56 320.82 224.78 320.6 226.01 320.43 227.23 320.29 228.47 320.2 229.7 320.14 230.94 320.12 457.91 320.12 M 387.84 377.6 387.86 378.53 387.92 379.45 388.02 380.37 388.16 381.28 388.33 382.19 388.55 383.09 388.8 383.98 389.09 384.86 389.42 385.72 389.79 386.57 390.19 387.41 390.63 388.22 391.1 389.02 391.6 389.8 392.14 390.55 392.71 391.28 393.31 391.98 393.94 392.66 394.6 393.31 395.28 393.93 395.99 394.53 396.73 395.09 397.49 395.62 398.27 396.11 399.07 396.58 399.89 397 400.73 397.4 401.58 397.75 402.45 398.07 403.33 398.36 404.22 398.6 405.12 398.81 406.03 398.97 406.95 399.1 407.87 399.19 408.8 399.24 409.72 399.25 410.65 399.22 411.57 399.15 412.49 399.04 413.4 398.89 414.31 398.71 415.21 398.48 416.09 398.22 416.97 397.92 417.83 397.58 418.67 397.21 419.5 396.79 420.31 396.35 421.11 395.87 421.88 395.36 422.62 394.81 423.35 394.23 424.05 393.63 424.72 392.99 425.36 392.33 425.98 391.63 426.56 390.92 427.11 390.18 427.63 389.41 428.12 388.62 428.58 387.82 429 386.99 429.38 386.15 429.73 385.29 430.04 384.42 430.31 383.54 430.54 382.64 430.74 381.74 430.9 380.83 431.02 379.91 431.1 378.99 431.14 378.06 431.14 377.14 431.1 376.21 431.02 375.29 430.9 374.37 430.74 373.46 430.54 372.56 430.31 371.66 430.04 370.78 429.73 369.91 429.38 369.05 429 368.21 428.58 367.38 428.12 366.58 427.63 365.79 427.11 365.02 426.56 364.28 425.98 363.57 425.36 362.87 424.72 362.21 424.05 361.57 423.35 360.97 422.62 360.39 421.88 359.84 421.11 359.33 420.32 358.85 419.5 358.41 418.67 357.99 417.83 357.62 416.97 357.28 416.09 356.98 415.21 356.72 414.31 356.49 413.4 356.31 412.49 356.16 411.57 356.05 410.65 355.98 409.72 355.95 408.8 355.96 407.87 356.01 406.95 356.1 406.03 356.23 405.12 356.39 404.22 356.6 403.33 356.84 402.45 357.13 401.58 357.45 400.73 357.8 399.89 358.2 399.07 358.62 398.27 359.09 397.49 359.58 396.73 360.11 395.99 360.67 395.28 361.27 394.6 361.89 393.94 362.54 393.31 363.22 392.71 363.92 392.14 364.65 391.6 365.4 391.1 366.18 390.63 366.98 390.19 367.79 389.79 368.63 389.42 369.48 389.09 370.34 388.8 371.22 388.55 372.11 388.33 373.01 388.16 373.92 388.02 374.83 387.92 375.75 387.86 376.67 387.84 377.6 M 287.84 377.6 287.86 378.53 287.92 379.45 288.02 380.37 288.16 381.28 288.33 382.19 288.55 383.09 288.8 383.98 289.09 384.86 289.42 385.72 289.79 386.57 290.19 387.41 290.63 388.22 291.1 389.02 291.6 389.8 292.14 390.55 292.71 391.28 293.31 391.98 293.94 392.66 294.6 393.31 295.28 393.93 295.99 394.53 296.73 395.09 297.49 395.62 298.27 396.11 299.07 396.58 299.89 397 300.73 397.4 301.58 397.75 302.45 398.07 303.33 398.36 304.22 398.6 305.12 398.81 306.03 398.97 306.95 399.1 307.87 399.19 308.8 399.24 309.72 399.25 310.65 399.22 311.57 399.15 312.49 399.04 313.4 398.89 314.31 398.71 315.21 398.48 316.09 398.22 316.97 397.92 317.83 397.58 318.67 397.21 319.5 396.79 320.31 396.35 321.11 395.87 321.88 395.36 322.62 394.81 323.35 394.23 324.05 393.63 324.72 392.99 325.36 392.33 325.98 391.63 326.56 390.92 327.11 390.18 327.63 389.41 328.12 388.62 328.58 387.82 329 386.99 329.38 386.15 329.73 385.29 330.04 384.42 330.31 383.54 330.54 382.64 330.74 381.74 330.9 380.83 331.02 379.91 331.1 378.99 331.14 378.06 331.14 377.14 331.1 376.21 331.02 375.29 330.9 374.37 330.74 373.46 330.54 372.56 330.31 371.66 330.04 370.78 329.73 369.91 329.38 369.05 329 368.21 328.58 367.38 328.12 366.58 327.63 365.79 327.11 365.02 326.56 364.28 325.98 363.57 325.36 362.87 324.72 362.21 324.05 361.57 323.35 360.97 322.62 360.39 321.88 359.84 321.11 359.33 320.32 358.85 319.5 358.41 318.67 357.99 317.83 357.62 316.97 357.28 316.09 356.98 315.21 356.72 314.31 356.49 313.4 356.31 312.49 356.16 311.57 356.05 310.65 355.98 309.72 355.95 308.8 355.96 307.87 356.01 306.95 356.1 306.03 356.23 305.12 356.39 304.22 356.6 303.33 356.84 302.45 357.13 301.58 357.45 300.73 357.8 299.89 358.2 299.07 358.62 298.27 359.09 297.49 359.58 296.73 360.11 295.99 360.67 295.28 361.27 294.6 361.89 293.94 362.54 293.31 363.22 292.71 363.92 292.14 364.65 291.6 365.4 291.1 366.18 290.63 366.98 290.19 367.79 289.79 368.63 289.42 369.48 289.09 370.34 288.8 371.22 288.55 372.11 288.33 373.01 288.16 373.92 288.02 374.83 287.92 375.75 287.86 376.67 287.84 377.6 M 287.84 477.6 287.86 478.53 287.92 479.45 288.02 480.37 288.16 481.28 288.33 482.19 288.55 483.09 288.8 483.98 289.09 484.86 289.42 485.72 289.79 486.57 290.19 487.41 290.63 488.22 291.1 489.02 291.6 489.8 292.14 490.55 292.71 491.28 293.31 491.98 293.94 492.66 294.6 493.31 295.28 493.93 295.99 494.53 296.73 495.09 297.49 495.62 298.27 496.11 299.07 496.58 299.89 497 300.73 497.4 301.58 497.75 302.45 498.07 303.33 498.36 304.22 498.6 305.12 498.81 306.03 498.97 306.95 499.1 307.87 499.19 308.8 499.24 309.72 499.25 310.65 499.22 311.57 499.15 312.49 499.04 313.4 498.89 314.31 498.71 315.21 498.48 316.09 498.22 316.97 497.92 317.83 497.58 318.67 497.21 319.5 496.79 320.31 496.35 321.11 495.87 321.88 495.36 322.62 494.81 323.35 494.23 324.05 493.63 324.72 492.99 325.36 492.33 325.98 491.63 326.56 490.92 327.11 490.18 327.63 489.41 328.12 488.62 328.58 487.82 329 486.99 329.38 486.15 329.73 485.29 330.04 484.42 330.31 483.54 330.54 482.64 330.74 481.74 330.9 480.83 331.02 479.91 331.1 478.99 331.14 478.06 331.14 477.14 331.1 476.21 331.02 475.29 330.9 474.37 330.74 473.46 330.54 472.56 330.31 471.66 330.04 470.78 329.73 469.91 329.38 469.05 329 468.21 328.58 467.38 328.12 466.58 327.63 465.79 327.11 465.02 326.56 464.28 325.98 463.57 325.36 462.87 324.72 462.21 324.05 461.57 323.35 460.97 322.62 460.39 321.88 459.84 321.11 459.33 320.32 458.85 319.5 458.41 318.67 457.99 317.83 457.62 316.97 457.28 316.09 456.98 315.21 456.72 314.31 456.49 313.4 456.31 312.49 456.16 311.57 456.05 310.65 455.98 309.72 455.95 308.8 455.96 307.87 456.01 306.95 456.1 306.03 456.23 305.12 456.39 304.22 456.6 303.33 456.84 302.45 457.13 301.58 457.45 300.73 457.8 299.89 458.2 299.07 458.62 298.27 459.09 297.49 459.58 296.73 460.11 295.99 460.67 295.28 461.27 294.6 461.89 293.94 462.54 293.31 463.22 292.71 463.92 292.14 464.65 291.6 465.4 291.1 466.18 290.63 466.98 290.19 467.79 289.79 468.63 289.42 469.48 289.09 470.34 288.8 471.22 288.55 472.11 288.33 473.01 288.16 473.92 288.02 474.83 287.92 475.75 287.86 476.67 287.84 477.6 M 387.84 477.6 387.86 478.53 387.92 479.45 388.02 480.37 388.16 481.28 388.33 482.19 388.55 483.09 388.8 483.98 389.09 484.86 389.42 485.72 389.79 486.57 390.19 487.41 390.63 488.22 391.1 489.02 391.6 489.8 392.14 490.55 392.71 491.28 393.31 491.98 393.94 492.66 394.6 493.31 395.28 493.93 395.99 494.53 396.73 495.09 397.49 495.62 398.27 496.11 399.07 496.58 399.89 497 400.73 497.4 401.58 497.75 402.45 498.07 403.33 498.36 404.22 498.6 405.12 498.81 406.03 498.97 406.95 499.1 407.87 499.19 408.8 499.24 409.72 499.25 410.65 499.22 411.57 499.15 412.49 499.04 413.4 498.89 414.31 498.71 415.21 498.48 416.09 498.22 416.97 497.92 417.83 497.58 418.67 497.21 419.5 496.79 420.31 496.35 421.11 495.87 421.88 495.36 422.62 494.81 423.35 494.23 424.05 493.63 424.72 492.99 425.36 492.33 425.98 491.63 426.56 490.92 427.11 490.18 427.63 489.41 428.12 488.62 428.58 487.82 429 486.99 429.38 486.15 429.73 485.29 430.04 484.42 430.31 483.54 430.54 482.64 430.74 481.74 430.9 480.83 431.02 479.91 431.1 478.99 431.14 478.06 431.14 477.14 431.1 476.21 431.02 475.29 430.9 474.37 430.74 473.46 430.54 472.56 430.31 471.66 430.04 470.78 429.73 469.91 429.38 469.05 429 468.21 428.58 467.38 428.12 466.58 427.63 465.79 427.11 465.02 426.56 464.28 425.98 463.57 425.36 462.87 424.72 462.21 424.05 461.57 423.35 460.97 422.62 460.39 421.88 459.84 421.11 459.33 420.32 458.85 419.5 458.41 418.67 457.99 417.83 457.62 416.97 457.28 416.09 456.98 415.21 456.72 414.31 456.49 413.4 456.31 412.49 456.16 411.57 456.05 410.65 455.98 409.72 455.95 408.8 455.96 407.87 456.01 406.95 456.1 406.03 456.23 405.12 456.39 404.22 456.6 403.33 456.84 402.45 457.13 401.58 457.45 400.73 457.8 399.89 458.2 399.07 458.62 398.27 459.09 397.49 459.58 396.73 460.11 395.99 460.67 395.28 461.27 394.6 461.89 393.94 462.54 393.31 463.22 392.71 463.92 392.14 464.65 391.6 465.4 391.1 466.18 390.63 466.98 390.19 467.79 389.79 468.63 389.42 469.48 389.09 470.34 388.8 471.22 388.55 472.11 388.33 473.01 388.16 473.92 388.02 474.83 387.92 475.75 387.86 476.67 387.84 477.6 M 387.84 577.6 387.86 578.53 387.92 579.45 388.02 580.37 388.16 581.28 388.33 582.19 388.55 583.09 388.8 583.98 389.09 584.86 389.42 585.72 389.79 586.57 390.19 587.41 390.63 588.22 391.1 589.02 391.6 589.8 392.14 590.55 392.71 591.28 393.31 591.98 393.94 592.66 394.6 593.31 395.28 593.93 395.99 594.53 396.73 595.09 397.49 595.62 398.27 596.11 399.07 596.58 399.89 597 400.73 597.4 401.58 597.75 402.45 598.07 403.33 598.36 404.22 598.6 405.12 598.81 406.03 598.97 406.95 599.1 407.87 599.19 408.8 599.24 409.72 599.25 410.65 599.22 411.57 599.15 412.49 599.04 413.4 598.89 414.31 598.71 415.21 598.48 416.09 598.22 416.97 597.92 417.83 597.58 418.67 597.21 419.5 596.79 420.31 596.35 421.11 595.87 421.88 595.36 422.62 594.81 423.35 594.23 424.05 593.63 424.72 592.99 425.36 592.33 425.98 591.63 426.56 590.92 427.11 590.18 427.63 589.41 428.12 588.62 428.58 587.82 429 586.99 429.38 586.15 429.73 585.29 430.04 584.42 430.31 583.54 430.54 582.64 430.74 581.74 430.9 580.83 431.02 579.91 431.1 578.99 431.14 578.06 431.14 577.14 431.1 576.21 431.02 575.29 430.9 574.37 430.74 573.46 430.54 572.56 430.31 571.66 430.04 570.78 429.73 569.91 429.38 569.05 429 568.21 428.58 567.38 428.12 566.58 427.63 565.79 427.11 565.02 426.56 564.28 425.98 563.57 425.36 562.87 424.72 562.21 424.05 561.57 423.35 560.97 422.62 560.39 421.88 559.84 421.11 559.33 420.32 558.85 419.5 558.41 418.67 557.99 417.83 557.62 416.97 557.28 416.09 556.98 415.21 556.72 414.31 556.49 413.4 556.31 412.49 556.16 411.57 556.05 410.65 555.98 409.72 555.95 408.8 555.96 407.87 556.01 406.95 556.1 406.03 556.23 405.12 556.39 404.22 556.6 403.33 556.84 402.45 557.13 401.58 557.45 400.73 557.8 399.89 558.2 399.07 558.62 398.27 559.09 397.49 559.58 396.73 560.11 395.99 560.67 395.28 561.27 394.6 561.89 393.94 562.54 393.31 563.22 392.71 563.92 392.14 564.65 391.6 565.4 391.1 566.18 390.63 566.98 390.19 567.79 389.79 568.63 389.42 569.48 389.09 570.34 388.8 571.22 388.55 572.11 388.33 573.01 388.16 573.92 388.02 574.83 387.92 575.75 387.86 576.67 387.84 577.6 M 287.84 577.6 287.86 578.53 287.92 579.45 288.02 580.37 288.16 581.28 288.33 582.19 288.55 583.09 288.8 583.98 289.09 584.86 289.42 585.72 289.79 586.57 290.19 587.41 290.63 588.22 291.1 589.02 291.6 589.8 292.14 590.55 292.71 591.28 293.31 591.98 293.94 592.66 294.6 593.31 295.28 593.93 295.99 594.53 296.73 595.09 297.49 595.62 298.27 596.11 299.07 596.58 299.89 597 300.73 597.4 301.58 597.75 302.45 598.07 303.33 598.36 304.22 598.6 305.12 598.81 306.03 598.97 306.95 599.1 307.87 599.19 308.8 599.24 309.72 599.25 310.65 599.22 311.57 599.15 312.49 599.04 313.4 598.89 314.31 598.71 315.21 598.48 316.09 598.22 316.97 597.92 317.83 597.58 318.67 597.21 319.5 596.79 320.31 596.35 321.11 595.87 321.88 595.36 322.62 594.81 323.35 594.23 324.05 593.63 324.72 592.99 325.36 592.33 325.98 591.63 326.56 590.92 327.11 590.18 327.63 589.41 328.12 588.62 328.58 587.82 329 586.99 329.38 586.15 329.73 585.29 330.04 584.42 330.31 583.54 330.54 582.64 330.74 581.74 330.9 580.83 331.02 579.91 331.1 578.99 331.14 578.06 331.14 577.14 331.1 576.21 331.02 575.29 330.9 574.37 330.74 573.46 330.54 572.56 330.31 571.66 330.04 570.78 329.73 569.91 329.38 569.05 329 568.21 328.58 567.38 328.12 566.58 327.63 565.79 327.11 565.02 326.56 564.28 325.98 563.57 325.36 562.87 324.72 562.21 324.05 561.57 323.35 560.97 322.62 560.39 321.88 559.84 321.11 559.33 320.32 558.85 319.5 558.41 318.67 557.99 317.83 557.62 316.97 557.28 316.09 556.98 315.21 556.72 314.31 556.49 313.4 556.31 312.49 556.16 311.57 556.05 310.65 555.98 309.72 555.95 308.8 555.96 307.87 556.01 306.95 556.1 306.03 556.23 305.12 556.39 304.22 556.6 303.33 556.84 302.45 557.13 301.58 557.45 300.73 557.8 299.89 558.2 299.07 558.62 298.27 559.09 297.49 559.58 296.73 560.11 295.99 560.67 295.28 561.27 294.6 561.89 293.94 562.54 293.31 563.22 292.71 563.92 292.14 564.65 291.6 565.4 291.1 566.18 290.63 566.98 290.19 567.79 289.79 568.63 289.42 569.48 289.09 570.34 288.8 571.22 288.55 572.11 288.33 573.01 288.16 573.92 288.02 574.83 287.92 575.75 287.86 576.67 287.84 577.6 M 1114.61 577.6 1114.63 578.53 1114.69 579.45 1114.79 580.37 1114.93 581.28 1115.1 582.19 1115.32 583.09 1115.57 583.98 1115.86 584.86 1116.19 585.72 1116.56 586.57 1116.96 587.41 1117.4 588.22 1117.87 589.02 1118.37 589.8 1118.91 590.55 1119.48 591.28 1120.08 591.98 1120.71 592.66 1121.37 593.31 1122.05 593.93 1122.76 594.53 1123.5 595.09 1124.26 595.62 1125.04 596.11 1125.84 596.58 1126.66 597 1127.5 597.4 1128.35 597.75 1129.22 598.07 1130.1 598.36 1130.99 598.6 1131.89 598.81 1132.8 598.97 1133.72 599.1 1134.64 599.19 1135.57 599.24 1136.49 599.25 1137.42 599.22 1138.34 599.15 1139.26 599.04 1140.17 598.89 1141.08 598.71 1141.98 598.48 1142.86 598.22 1143.74 597.92 1144.6 597.58 1145.44 597.21 1146.27 596.79 1147.08 596.35 1147.88 595.87 1148.65 595.36 1149.39 594.81 1150.12 594.23 1150.82 593.63 1151.49 592.99 1152.13 592.33 1152.75 591.63 1153.33 590.92 1153.88 590.18 1154.4 589.41 1154.89 588.62 1155.35 587.82 1155.77 586.99 1156.15 586.15 1156.5 585.29 1156.81 584.42 1157.08 583.54 1157.31 582.64 1157.51 581.74 1157.67 580.83 1157.79 579.91 1157.87 578.99 1157.91 578.06 1157.91 577.14 1157.87 576.21 1157.79 575.29 1157.67 574.37 1157.51 573.46 1157.31 572.56 1157.08 571.66 1156.81 570.78 1156.5 569.91 1156.15 569.05 1155.77 568.21 1155.35 567.38 1154.89 566.58 1154.4 565.79 1153.88 565.02 1153.33 564.28 1152.75 563.57 1152.13 562.87 1151.49 562.21 1150.82 561.57 1150.12 560.97 1149.39 560.39 1148.65 559.84 1147.88 559.33 1147.09 558.85 1146.27 558.41 1145.44 557.99 1144.6 557.62 1143.74 557.28 1142.86 556.98 1141.98 556.72 1141.08 556.49 1140.17 556.31 1139.26 556.16 1138.34 556.05 1137.42 555.98 1136.49 555.95 1135.57 555.96 1134.64 556.01 1133.72 556.1 1132.8 556.23 1131.89 556.39 1130.99 556.6 1130.1 556.84 1129.22 557.13 1128.35 557.45 1127.5 557.8 1126.66 558.2 1125.84 558.62 1125.04 559.09 1124.26 559.58 1123.5 560.11 1122.76 560.67 1122.05 561.27 1121.37 561.89 1120.71 562.54 1120.08 563.22 1119.48 563.92 1118.91 564.65 1118.37 565.4 1117.87 566.18 1117.4 566.98 1116.96 567.79 1116.56 568.63 1116.19 569.48 1115.86 570.34 1115.57 571.22 1115.32 572.11 1115.1 573.01 1114.93 573.92 1114.79 574.83 1114.69 575.75 1114.63 576.67 1114.61 577.6 M 1214.61 577.6 1214.63 578.53 1214.69 579.45 1214.79 580.37 1214.93 581.28 1215.1 582.19 1215.32 583.09 1215.57 583.98 1215.86 584.86 1216.19 585.72 1216.56 586.57 1216.96 587.41 1217.4 588.22 1217.87 589.02 1218.37 589.8 1218.91 590.55 1219.48 591.28 1220.08 591.98 1220.71 592.66 1221.37 593.31 1222.05 593.93 1222.76 594.53 1223.5 595.09 1224.26 595.62 1225.04 596.11 1225.84 596.58 1226.66 597 1227.5 597.4 1228.35 597.75 1229.22 598.07 1230.1 598.36 1230.99 598.6 1231.89 598.81 1232.8 598.97 1233.72 599.1 1234.64 599.19 1235.57 599.24 1236.49 599.25 1237.42 599.22 1238.34 599.15 1239.26 599.04 1240.17 598.89 1241.08 598.71 1241.98 598.48 1242.86 598.22 1243.74 597.92 1244.6 597.58 1245.44 597.21 1246.27 596.79 1247.08 596.35 1247.88 595.87 1248.65 595.36 1249.39 594.81 1250.12 594.23 1250.82 593.63 1251.49 592.99 1252.13 592.33 1252.75 591.63 1253.33 590.92 1253.88 590.18 1254.4 589.41 1254.89 588.62 1255.35 587.82 1255.77 586.99 1256.15 586.15 1256.5 585.29 1256.81 584.42 1257.08 583.54 1257.31 582.64 1257.51 581.74 1257.67 580.83 1257.79 579.91 1257.87 578.99 1257.91 578.06 1257.91 577.14 1257.87 576.21 1257.79 575.29 1257.67 574.37 1257.51 573.46 1257.31 572.56 1257.08 571.66 1256.81 570.78 1256.5 569.91 1256.15 569.05 1255.77 568.21 1255.35 567.38 1254.89 566.58 1254.4 565.79 1253.88 565.02 1253.33 564.28 1252.75 563.57 1252.13 562.87 1251.49 562.21 1250.82 561.57 1250.12 560.97 1249.39 560.39 1248.65 559.84 1247.88 559.33 1247.09 558.85 1246.27 558.41 1245.44 557.99 1244.6 557.62 1243.74 557.28 1242.86 556.98 1241.98 556.72 1241.08 556.49 1240.17 556.31 1239.26 556.16 1238.34 556.05 1237.42 555.98 1236.49 555.95 1235.57 555.96 1234.64 556.01 1233.72 556.1 1232.8 556.23 1231.89 556.39 1230.99 556.6 1230.1 556.84 1229.22 557.13 1228.35 557.45 1227.5 557.8 1226.66 558.2 1225.84 558.62 1225.04 559.09 1224.26 559.58 1223.5 560.11 1222.76 560.67 1222.05 561.27 1221.37 561.89 1220.71 562.54 1220.08 563.22 1219.48 563.92 1218.91 564.65 1218.37 565.4 1217.87 566.18 1217.4 566.98 1216.96 567.79 1216.56 568.63 1216.19 569.48 1215.86 570.34 1215.57 571.22 1215.32 572.11 1215.1 573.01 1214.93 573.92 1214.79 574.83 1214.69 575.75 1214.63 576.67 1214.61 577.6 M 1214.61 477.6 1214.63 478.53 1214.69 479.45 1214.79 480.37 1214.93 481.28 1215.1 482.19 1215.32 483.09 1215.57 483.98 1215.86 484.86 1216.19 485.72 1216.56 486.57 1216.96 487.41 1217.4 488.22 1217.87 489.02 1218.37 489.8 1218.91 490.55 1219.48 491.28 1220.08 491.98 1220.71 492.66 1221.37 493.31 1222.05 493.93 1222.76 494.53 1223.5 495.09 1224.26 495.62 1225.04 496.11 1225.84 496.58 1226.66 497 1227.5 497.4 1228.35 497.75 1229.22 498.07 1230.1 498.36 1230.99 498.6 1231.89 498.81 1232.8 498.97 1233.72 499.1 1234.64 499.19 1235.57 499.24 1236.49 499.25 1237.42 499.22 1238.34 499.15 1239.26 499.04 1240.17 498.89 1241.08 498.71 1241.98 498.48 1242.86 498.22 1243.74 497.92 1244.6 497.58 1245.44 497.21 1246.27 496.79 1247.08 496.35 1247.88 495.87 1248.65 495.36 1249.39 494.81 1250.12 494.23 1250.82 493.63 1251.49 492.99 1252.13 492.33 1252.75 491.63 1253.33 490.92 1253.88 490.18 1254.4 489.41 1254.89 488.62 1255.35 487.82 1255.77 486.99 1256.15 486.15 1256.5 485.29 1256.81 484.42 1257.08 483.54 1257.31 482.64 1257.51 481.74 1257.67 480.83 1257.79 479.91 1257.87 478.99 1257.91 478.06 1257.91 477.14 1257.87 476.21 1257.79 475.29 1257.67 474.37 1257.51 473.46 1257.31 472.56 1257.08 471.66 1256.81 470.78 1256.5 469.91 1256.15 469.05 1255.77 468.21 1255.35 467.38 1254.89 466.58 1254.4 465.79 1253.88 465.02 1253.33 464.28 1252.75 463.57 1252.13 462.87 1251.49 462.21 1250.82 461.57 1250.12 460.97 1249.39 460.39 1248.65 459.84 1247.88 459.33 1247.09 458.85 1246.27 458.41 1245.44 457.99 1244.6 457.62 1243.74 457.28 1242.86 456.98 1241.98 456.72 1241.08 456.49 1240.17 456.31 1239.26 456.16 1238.34 456.05 1237.42 455.98 1236.49 455.95 1235.57 455.96 1234.64 456.01 1233.72 456.1 1232.8 456.23 1231.89 456.39 1230.99 456.6 1230.1 456.84 1229.22 457.13 1228.35 457.45 1227.5 457.8 1226.66 458.2 1225.84 458.62 1225.04 459.09 1224.26 459.58 1223.5 460.11 1222.76 460.67 1222.05 461.27 1221.37 461.89 1220.71 462.54 1220.08 463.22 1219.48 463.92 1218.91 464.65 1218.37 465.4 1217.87 466.18 1217.4 466.98 1216.96 467.79 1216.56 468.63 1216.19 469.48 1215.86 470.34 1215.57 471.22 1215.32 472.11 1215.1 473.01 1214.93 473.92 1214.79 474.83 1214.69 475.75 1214.63 476.67 1214.61 477.6 M 1114.61 477.6 1114.63 478.53 1114.69 479.45 1114.79 480.37 1114.93 481.28 1115.1 482.19 1115.32 483.09 1115.57 483.98 1115.86 484.86 1116.19 485.72 1116.56 486.57 1116.96 487.41 1117.4 488.22 1117.87 489.02 1118.37 489.8 1118.91 490.55 1119.48 491.28 1120.08 491.98 1120.71 492.66 1121.37 493.31 1122.05 493.93 1122.76 494.53 1123.5 495.09 1124.26 495.62 1125.04 496.11 1125.84 496.58 1126.66 497 1127.5 497.4 1128.35 497.75 1129.22 498.07 1130.1 498.36 1130.99 498.6 1131.89 498.81 1132.8 498.97 1133.72 499.1 1134.64 499.19 1135.57 499.24 1136.49 499.25 1137.42 499.22 1138.34 499.15 1139.26 499.04 1140.17 498.89 1141.08 498.71 1141.98 498.48 1142.86 498.22 1143.74 497.92 1144.6 497.58 1145.44 497.21 1146.27 496.79 1147.08 496.35 1147.88 495.87 1148.65 495.36 1149.39 494.81 1150.12 494.23 1150.82 493.63 1151.49 492.99 1152.13 492.33 1152.75 491.63 1153.33 490.92 1153.88 490.18 1154.4 489.41 1154.89 488.62 1155.35 487.82 1155.77 486.99 1156.15 486.15 1156.5 485.29 1156.81 484.42 1157.08 483.54 1157.31 482.64 1157.51 481.74 1157.67 480.83 1157.79 479.91 1157.87 478.99 1157.91 478.06 1157.91 477.14 1157.87 476.21 1157.79 475.29 1157.67 474.37 1157.51 473.46 1157.31 472.56 1157.08 471.66 1156.81 470.78 1156.5 469.91 1156.15 469.05 1155.77 468.21 1155.35 467.38 1154.89 466.58 1154.4 465.79 1153.88 465.02 1153.33 464.28 1152.75 463.57 1152.13 462.87 1151.49 462.21 1150.82 461.57 1150.12 460.97 1149.39 460.39 1148.65 459.84 1147.88 459.33 1147.09 458.85 1146.27 458.41 1145.44 457.99 1144.6 457.62 1143.74 457.28 1142.86 456.98 1141.98 456.72 1141.08 456.49 1140.17 456.31 1139.26 456.16 1138.34 456.05 1137.42 455.98 1136.49 455.95 1135.57 455.96 1134.64 456.01 1133.72 456.1 1132.8 456.23 1131.89 456.39 1130.99 456.6 1130.1 456.84 1129.22 457.13 1128.35 457.45 1127.5 457.8 1126.66 458.2 1125.84 458.62 1125.04 459.09 1124.26 459.58 1123.5 460.11 1122.76 460.67 1122.05 461.27 1121.37 461.89 1120.71 462.54 1120.08 463.22 1119.48 463.92 1118.91 464.65 1118.37 465.4 1117.87 466.18 1117.4 466.98 1116.96 467.79 1116.56 468.63 1116.19 469.48 1115.86 470.34 1115.57 471.22 1115.32 472.11 1115.1 473.01 1114.93 473.92 1114.79 474.83 1114.69 475.75 1114.63 476.67 1114.61 477.6 M 1114.61 377.6 1114.63 378.53 1114.69 379.45 1114.79 380.37 1114.93 381.28 1115.1 382.19 1115.32 383.09 1115.57 383.98 1115.86 384.86 1116.19 385.72 1116.56 386.57 1116.96 387.41 1117.4 388.22 1117.87 389.02 1118.37 389.8 1118.91 390.55 1119.48 391.28 1120.08 391.98 1120.71 392.66 1121.37 393.31 1122.05 393.93 1122.76 394.53 1123.5 395.09 1124.26 395.62 1125.04 396.11 1125.84 396.58 1126.66 397 1127.5 397.4 1128.35 397.75 1129.22 398.07 1130.1 398.36 1130.99 398.6 1131.89 398.81 1132.8 398.97 1133.72 399.1 1134.64 399.19 1135.57 399.24 1136.49 399.25 1137.42 399.22 1138.34 399.15 1139.26 399.04 1140.17 398.89 1141.08 398.71 1141.98 398.48 1142.86 398.22 1143.74 397.92 1144.6 397.58 1145.44 397.21 1146.27 396.79 1147.08 396.35 1147.88 395.87 1148.65 395.36 1149.39 394.81 1150.12 394.23 1150.82 393.63 1151.49 392.99 1152.13 392.33 1152.75 391.63 1153.33 390.92 1153.88 390.18 1154.4 389.41 1154.89 388.62 1155.35 387.82 1155.77 386.99 1156.15 386.15 1156.5 385.29 1156.81 384.42 1157.08 383.54 1157.31 382.64 1157.51 381.74 1157.67 380.83 1157.79 379.91 1157.87 378.99 1157.91 378.06 1157.91 377.14 1157.87 376.21 1157.79 375.29 1157.67 374.37 1157.51 373.46 1157.31 372.56 1157.08 371.66 1156.81 370.78 1156.5 369.91 1156.15 369.05 1155.77 368.21 1155.35 367.38 1154.89 366.58 1154.4 365.79 1153.88 365.02 1153.33 364.28 1152.75 363.57 1152.13 362.87 1151.49 362.21 1150.82 361.57 1150.12 360.97 1149.39 360.39 1148.65 359.84 1147.88 359.33 1147.09 358.85 1146.27 358.41 1145.44 357.99 1144.6 357.62 1143.74 357.28 1142.86 356.98 1141.98 356.72 1141.08 356.49 1140.17 356.31 1139.26 356.16 1138.34 356.05 1137.42 355.98 1136.49 355.95 1135.57 355.96 1134.64 356.01 1133.72 356.1 1132.8 356.23 1131.89 356.39 1130.99 356.6 1130.1 356.84 1129.22 357.13 1128.35 357.45 1127.5 357.8 1126.66 358.2 1125.84 358.62 1125.04 359.09 1124.26 359.58 1123.5 360.11 1122.76 360.67 1122.05 361.27 1121.37 361.89 1120.71 362.54 1120.08 363.22 1119.48 363.92 1118.91 364.65 1118.37 365.4 1117.87 366.18 1117.4 366.98 1116.96 367.79 1116.56 368.63 1116.19 369.48 1115.86 370.34 1115.57 371.22 1115.32 372.11 1115.1 373.01 1114.93 373.92 1114.79 374.83 1114.69 375.75 1114.63 376.67 1114.61 377.6 M 1214.61 377.6 1214.63 378.53 1214.69 379.45 1214.79 380.37 1214.93 381.28 1215.1 382.19 1215.32 383.09 1215.57 383.98 1215.86 384.86 1216.19 385.72 1216.56 386.57 1216.96 387.41 1217.4 388.22 1217.87 389.02 1218.37 389.8 1218.91 390.55 1219.48 391.28 1220.08 391.98 1220.71 392.66 1221.37 393.31 1222.05 393.93 1222.76 394.53 1223.5 395.09 1224.26 395.62 1225.04 396.11 1225.84 396.58 1226.66 397 1227.5 397.4 1228.35 397.75 1229.22 398.07 1230.1 398.36 1230.99 398.6 1231.89 398.81 1232.8 398.97 1233.72 399.1 1234.64 399.19 1235.57 399.24 1236.49 399.25 1237.42 399.22 1238.34 399.15 1239.26 399.04 1240.17 398.89 1241.08 398.71 1241.98 398.48 1242.86 398.22 1243.74 397.92 1244.6 397.58 1245.44 397.21 1246.27 396.79 1247.08 396.35 1247.88 395.87 1248.65 395.36 1249.39 394.81 1250.12 394.23 1250.82 393.63 1251.49 392.99 1252.13 392.33 1252.75 391.63 1253.33 390.92 1253.88 390.18 1254.4 389.41 1254.89 388.62 1255.35 387.82 1255.77 386.99 1256.15 386.15 1256.5 385.29 1256.81 384.42 1257.08 383.54 1257.31 382.64 1257.51 381.74 1257.67 380.83 1257.79 379.91 1257.87 378.99 1257.91 378.06 1257.91 377.14 1257.87 376.21 1257.79 375.29 1257.67 374.37 1257.51 373.46 1257.31 372.56 1257.08 371.66 1256.81 370.78 1256.5 369.91 1256.15 369.05 1255.77 368.21 1255.35 367.38 1254.89 366.58 1254.4 365.79 1253.88 365.02 1253.33 364.28 1252.75 363.57 1252.13 362.87 1251.49 362.21 1250.82 361.57 1250.12 360.97 1249.39 360.39 1248.65 359.84 1247.88 359.33 1247.09 358.85 1246.27 358.41 1245.44 357.99 1244.6 357.62 1243.74 357.28 1242.86 356.98 1241.98 356.72 1241.08 356.49 1240.17 356.31 1239.26 356.16 1238.34 356.05 1237.42 355.98 1236.49 355.95 1235.57 355.96 1234.64 356.01 1233.72 356.1 1232.8 356.23 1231.89 356.39 1230.99 356.6 1230.1 356.84 1229.22 357.13 1228.35 357.45 1227.5 357.8 1226.66 358.2 1225.84 358.62 1225.04 359.09 1224.26 359.58 1223.5 360.11 1222.76 360.67 1222.05 361.27 1221.37 361.89 1220.71 362.54 1220.08 363.22 1219.48 363.92 1218.91 364.65 1218.37 365.4 1217.87 366.18 1217.4 366.98 1216.96 367.79 1216.56 368.63 1216.19 369.48 1215.86 370.34 1215.57 371.22 1215.32 372.11 1215.1 373.01 1214.93 373.92 1214.79 374.83 1214.69 375.75 1214.63 376.67 1214.61 377.6" fill="none" stroke-width="0"/><use xlink:href="#uKCW6BtMvNc8jslFMlL6_pad-11" x="950.04" y="444.13"/><use xlink:href="#uKCW6BtMvNc8jslFMlL6_pad-11" x="950.04" y="511.06"/><use xlink:href="#uKCW6BtMvNc8jslFMlL6_pad-12" x="845.71" y="630.16"/><use xlink:href="#uKCW6BtMvNc8jslFMlL6_pad-12" x="778.78" y="630.16"/><use xlink:href="#uKCW6BtMvNc8jslFMlL6_pad-12" x="609.49" y="398.86"/><use xlink:href="#uKCW6BtMvNc8jslFMlL6_pad-12" x="542.56" y="398.86"/><use xlink:href="#uKCW6BtMvNc8jslFMlL6_pad-12" x="759.09" y="300.43"/><use xlink:href="#uKCW6BtMvNc8jslFMlL6_pad-12" x="826.02" y="300.43"/><use xlink:href="#uKCW6BtMvNc8jslFMlL6_pad-12" x="826.02" y="236.46"/><use xlink:href="#uKCW6BtMvNc8jslFMlL6_pad-12" x="759.09" y="236.46"/><use xlink:href="#uKCW6BtMvNc8jslFMlL6_pad-13" x="629.17" y="694.13"/><use xlink:href="#uKCW6BtMvNc8jslFMlL6_pad-13" x="554.37" y="694.13"/><path d="M 718.64 570.41 718.64 540.29 M 718.64 570.41 728.68 570.41 728.68 540.29 718.64 540.29 M 718.64 543.63 728.68 543.63 M 728.68 546.97 718.64 546.97 M 718.64 550.31 728.68 550.31 M 728.68 553.65 718.64 553.65 M 718.64 556.99 728.68 556.99 M 728.68 560.33 718.64 560.33 M 718.64 563.67 728.68 563.67 M 728.68 567.01 718.64 567.01 M 718.64 570.35 728.68 570.35 M 738.33 570.41 738.33 540.29 M 738.33 570.41 748.37 570.41 748.37 540.29 738.33 540.29 M 738.33 543.63 748.37 543.63 M 748.37 546.97 738.33 546.97 M 738.33 550.31 748.37 550.31 M 748.37 553.65 738.33 553.65 M 738.33 556.99 748.37 556.99 M 748.37 560.33 738.33 560.33 M 738.33 563.67 748.37 563.67 M 748.37 567.01 738.33 567.01 M 738.33 570.35 748.37 570.35 M 758.01 570.41 758.01 540.29 M 758.01 570.41 768.05 570.41 768.05 540.29 758.01 540.29 M 758.01 543.63 768.05 543.63 M 768.05 546.97 758.01 546.97 M 758.01 550.31 768.05 550.31 M 768.05 553.65 758.01 553.65 M 758.01 556.99 768.05 556.99 M 768.05 560.33 758.01 560.33 M 758.01 563.67 768.05 563.67 M 768.05 567.01 758.01 567.01 M 758.01 570.35 768.05 570.35 M 777.7 570.41 777.7 540.29 M 777.7 570.41 787.74 570.41 787.74 540.29 777.7 540.29 M 777.7 543.63 787.74 543.63 M 787.74 546.97 777.7 546.97 M 777.7 550.31 787.74 550.31 M 787.74 553.65 777.7 553.65 M 777.7 556.99 787.74 556.99 M 787.74 560.33 777.7 560.33 M 777.7 563.67 787.74 563.67 M 787.74 567.01 777.7 567.01 M 777.7 570.35 787.74 570.35 M 797.38 570.41 797.38 540.29 M 797.38 570.41 807.42 570.41 807.42 540.29 797.38 540.29 M 797.38 543.63 807.42 543.63 M 807.42 546.97 797.38 546.97 M 797.38 550.31 807.42 550.31 M 807.42 553.65 797.38 553.65 M 797.38 556.99 807.42 556.99 M 807.42 560.33 797.38 560.33 M 797.38 563.67 807.42 563.67 M 807.42 567.01 797.38 567.01 M 797.38 570.35 807.42 570.35 M 817.07 570.41 817.07 540.29 M 817.07 570.41 827.11 570.41 827.11 540.29 817.07 540.29 M 817.07 543.63 827.11 543.63 M 827.11 546.97 817.07 546.97 M 817.07 550.31 827.11 550.31 M 827.11 553.65 817.07 553.65 M 817.07 556.99 827.11 556.99 M 827.11 560.33 817.07 560.33 M 817.07 563.67 827.11 563.67 M 827.11 567.01 817.07 567.01 M 817.07 570.35 827.11 570.35 M 837.53 531.83 865.69 531.83 865.69 521.79 837.53 521.79 837.53 531.83 M 837.53 525.13 865.69 525.13 M 865.69 528.47 837.53 528.47 M 837.53 531.81 865.69 531.81 M 865.69 512.15 837.53 512.15 M 865.69 512.15 865.69 502.11 837.53 502.11 837.53 512.15 M 837.53 505.45 865.69 505.45 M 865.69 508.79 837.53 508.79 M 837.53 512.13 865.69 512.13 M 865.69 492.46 837.53 492.46 M 865.69 492.46 865.69 482.42 837.53 482.42 837.53 492.46 M 837.53 485.76 865.69 485.76 M 865.69 489.1 837.53 489.1 M 837.53 492.44 865.69 492.44 M 865.69 472.78 837.53 472.78 M 865.69 472.78 865.69 462.74 837.53 462.74 837.53 472.78 M 837.53 466.08 865.69 466.08 M 865.69 469.42 837.53 469.42 M 837.53 472.76 865.69 472.76 M 865.69 453.09 837.53 453.09 M 865.69 453.09 865.69 443.05 837.53 443.05 837.53 453.09 M 837.53 446.39 865.69 446.39 M 865.69 449.73 837.53 449.73 M 837.53 453.07 865.69 453.07 M 865.69 433.41 837.53 433.41 M 865.69 433.41 865.69 423.37 837.53 423.37 837.53 433.41 M 837.53 426.71 865.69 426.71 M 865.69 430.05 837.53 430.05 M 837.53 433.39 865.69 433.39 M 827.11 414.9 827.11 384.78 817.07 384.78 817.07 414.9 827.11 414.9 M 827.11 388.12 817.07 388.12 M 817.07 391.46 827.11 391.46 M 827.11 394.8 817.07 394.8 M 817.07 398.14 827.11 398.14 M 827.11 401.48 817.07 401.48 M 817.07 404.82 827.11 404.82 M 827.11 408.16 817.07 408.16 M 817.07 411.5 827.11 411.5 M 827.11 414.84 817.07 414.84 M 807.42 414.9 807.42 384.78 797.38 384.78 797.38 414.9 807.42 414.9 M 807.42 388.12 797.38 388.12 M 797.38 391.46 807.42 391.46 M 807.42 394.8 797.38 394.8 M 797.38 398.14 807.42 398.14 M 807.42 401.48 797.38 401.48 M 797.38 404.82 807.42 404.82 M 807.42 408.16 797.38 408.16 M 797.38 411.5 807.42 411.5 M 807.42 414.84 797.38 414.84 M 787.74 414.9 787.74 384.78 777.7 384.78 777.7 414.9 787.74 414.9 M 787.74 388.12 777.7 388.12 M 777.7 391.46 787.74 391.46 M 787.74 394.8 777.7 394.8 M 777.7 398.14 787.74 398.14 M 787.74 401.48 777.7 401.48 M 777.7 404.82 787.74 404.82 M 787.74 408.16 777.7 408.16 M 777.7 411.5 787.74 411.5 M 787.74 414.84 777.7 414.84 M 768.05 414.9 768.05 384.78 758.01 384.78 758.01 414.9 768.05 414.9 M 768.05 388.12 758.01 388.12 M 758.01 391.46 768.05 391.46 M 768.05 394.8 758.01 394.8 M 758.01 398.14 768.05 398.14 M 768.05 401.48 758.01 401.48 M 758.01 404.82 768.05 404.82 M 768.05 408.16 758.01 408.16 M 758.01 411.5 768.05 411.5 M 768.05 414.84 758.01 414.84 M 748.37 414.9 748.37 384.78 738.33 384.78 738.33 414.9 748.37 414.9 M 748.37 388.12 738.33 388.12 M 738.33 391.46 748.37 391.46 M 748.37 394.8 738.33 394.8 M 738.33 398.14 748.37 398.14 M 748.37 401.48 738.33 401.48 M 738.33 404.82 748.37 404.82 M 748.37 408.16 738.33 408.16 M 738.33 411.5 748.37 411.5 M 748.37 414.84 738.33 414.84 M 728.68 414.9 728.68 384.78 718.64 384.78 718.64 414.9 728.68 414.9 M 728.68 388.12 718.64 388.12 M 718.64 391.46 728.68 391.46 M 728.68 394.8 718.64 394.8 M 718.64 398.14 728.68 398.14 M 728.68 401.48 718.64 401.48 M 718.64 404.82 728.68 404.82 M 728.68 408.16 718.64 408.16 M 718.64 411.5 728.68 411.5 M 728.68 414.84 718.64 414.84 M 708.21 423.37 680.05 423.37 680.05 433.41 708.21 433.41 708.21 423.37 M 708.21 426.71 680.05 426.71 M 680.05 430.05 708.21 430.05 M 708.21 433.39 680.05 433.39 M 680.05 443.05 708.21 443.05 M 680.05 443.05 680.05 453.09 708.21 453.09 708.21 443.05 M 708.21 446.39 680.05 446.39 M 680.05 449.73 708.21 449.73 M 708.21 453.07 680.05 453.07 M 680.05 462.74 708.21 462.74 M 680.05 462.74 680.05 472.78 708.21 472.78 708.21 462.74 M 708.21 466.08 680.05 466.08 M 680.05 469.42 708.21 469.42 M 708.21 472.76 680.05 472.76 M 680.05 482.42 708.21 482.42 M 680.05 482.42 680.05 492.46 708.21 492.46 708.21 482.42 M 708.21 485.76 680.05 485.76 M 680.05 489.1 708.21 489.1 M 708.21 492.44 680.05 492.44 M 680.05 502.11 708.21 502.11 M 680.05 502.11 680.05 512.15 708.21 512.15 708.21 502.11 M 708.21 505.45 680.05 505.45 M 680.05 508.79 708.21 508.79 M 708.21 512.13 680.05 512.13 M 680.05 521.79 708.21 521.79 M 680.05 521.79 680.05 531.83 708.21 531.83 708.21 521.79 M 708.21 525.13 680.05 525.13 M 680.05 528.47 708.21 528.47 M 708.21 531.81 680.05 531.81" fill="none" stroke-width="3.35"/><use xlink:href="#uKCW6BtMvNc8jslFMlL6_pad-15" x="772.87" y="477.6"/><use xlink:href="#uKCW6BtMvNc8jslFMlL6_pad-16" x="617.36" y="477.6"/><use xlink:href="#uKCW6BtMvNc8jslFMlL6_pad-16" x="534.69" y="477.6"/><use xlink:href="#uKCW6BtMvNc8jslFMlL6_pad-17" x="497.28" y="526.81"/><use xlink:href="#uKCW6BtMvNc8jslFMlL6_pad-17" x="561.26" y="580.94"/><use xlink:href="#uKCW6BtMvNc8jslFMlL6_pad-17" x="605.55" y="576.02"/><use xlink:href="#uKCW6BtMvNc8jslFMlL6_pad-17" x="649.84" y="556.34"/><use xlink:href="#uKCW6BtMvNc8jslFMlL6_pad-17" x="743.35" y="507.13"/><use xlink:href="#uKCW6BtMvNc8jslFMlL6_pad-17" x="802.4" y="507.13"/><use xlink:href="#uKCW6BtMvNc8jslFMlL6_pad-17" x="802.4" y="467.76"/><use xlink:href="#uKCW6BtMvNc8jslFMlL6_pad-17" x="743.35" y="467.76"/><use xlink:href="#uKCW6BtMvNc8jslFMlL6_pad-17" x="654.76" y="428.39"/><use xlink:href="#uKCW6BtMvNc8jslFMlL6_pad-17" x="772.87" y="344.72"/><use xlink:href="#uKCW6BtMvNc8jslFMlL6_pad-17" x="703.98" y="320.12"/><use xlink:href="#uKCW6BtMvNc8jslFMlL6_pad-17" x="703.98" y="241.38"/><use xlink:href="#uKCW6BtMvNc8jslFMlL6_pad-17" x="861.46" y="349.65"/><use xlink:href="#uKCW6BtMvNc8jslFMlL6_pad-17" x="950.04" y="369.33"/><use xlink:href="#uKCW6BtMvNc8jslFMlL6_pad-17" x="989.41" y="428.39"/><use xlink:href="#uKCW6BtMvNc8jslFMlL6_pad-17" x="950.04" y="300.43"/><use xlink:href="#uKCW6BtMvNc8jslFMlL6_pad-17" x="1191.18" y="531.73"/><use xlink:href="#uKCW6BtMvNc8jslFMlL6_pad-17" x="1319.13" y="531.73"/><use xlink:href="#uKCW6BtMvNc8jslFMlL6_pad-17" x="979.57" y="713.82"/><use xlink:href="#uKCW6BtMvNc8jslFMlL6_pad-17" x="910.67" y="654.76"/><use xlink:href="#uKCW6BtMvNc8jslFMlL6_pad-17" x="812.24" y="703.98"/><use xlink:href="#uKCW6BtMvNc8jslFMlL6_pad-17" x="684.29" y="723.66"/><use xlink:href="#uKCW6BtMvNc8jslFMlL6_pad-17" x="635.08" y="635.08"/><use xlink:href="#uKCW6BtMvNc8jslFMlL6_pad-17" x="359.49" y="507.13"/><use xlink:href="#uKCW6BtMvNc8jslFMlL6_pad-17" x="241.38" y="428.39"/><use xlink:href="#uKCW6BtMvNc8jslFMlL6_pad-17" x="359.49" y="349.65"/><use xlink:href="#uKCW6BtMvNc8jslFMlL6_pad-17" x="930.35" y="566.18"/><path d="M 928.38 547.72 924.56 546.69 921.14 544.72 918.35 541.93 916.38 538.51 915.35 534.69 915.35 515.91 945.2 515.91 945.2 547.72 928.38 547.72 M 916.46 538.64 881.01 538.64 M 881.23 538.27 879.03 542.07 875.93 545.17 872.12 547.37 867.88 548.5 851.61 548.5 843.78 548.5 843.78 577.32 834.01 587.09 822.4 587.09 822.4 594.15 820.71 595.84 822.08 595.47 840.87 595.47 840.87 625.31 850.55 625.31 850.55 595.47 869.34 595.47 873.15 596.49 876.57 598.47 879.37 601.26 881.34 604.68 882.36 608.5 882.36 625.31 850.55 625.31 850.55 635 840.87 635 840.87 664.84 822.08 664.84 818.27 663.82 814.84 661.85 812.24 659.24 806.65 664.84 750.91 664.84 742.13 656.06 742.13 615.37 731.95 625.55 577.58 625.55 565.87 613.84 560.08 608.05 551.99 608.05 577.37 633.43 577.37 649.61 586.17 649.61 591.77 655.2 594.37 652.6 597.79 650.63 601.61 649.61 624.17 649.61 624.17 689.13 634.17 689.13 634.17 649.61 656.74 649.61 660.55 650.63 663.97 652.6 666.77 655.4 668.74 658.82 669.76 662.63 669.76 689.13 634.17 689.13 634.17 699.13 669.76 699.13 669.76 725.64 668.74 729.45 666.77 732.87 663.97 735.66 660.55 737.64 658.5 738.19 1009.09 738.19 1013.85 737.72 1022.63 734.08 1029.36 727.36 1033 718.57 1033.46 713.82 1033.46 663.63 1041.74 643.65 1057.04 628.36 1077.02 620.08 1081.7 620.08 1081.75 620.03 1087.9 620.08 1094.05 620.08 1094.1 620.13 1316.19 622.05 1320.94 621.58 1329.72 617.94 1336.44 611.22 1340.08 602.43 1340.55 597.68 1340.55 361.46 1340.08 356.7 1336.44 347.92 1329.72 341.19 1320.94 337.55 1316.19 337.09 1316.11 337.09 1309.97 337.09 1309.91 337.03 1087.77 335.12 1077.02 335.12 1057.04 326.84 1057.04 326.84 1041.74 311.55 1041.74 311.55 1033.46 291.56 1033.46 241.38 1033 236.62 1029.36 227.84 1022.63 221.11 1013.85 217.48 1009.09 217.01 862.68 217.01 862.68 262.35 856.51 268.53 856.89 268.75 859.68 271.54 861.65 274.96 862.68 278.77 862.68 295.59 830.87 295.59 830.87 305.28 821.18 305.28 821.18 335.12 817.48 335.12 817.48 360.42 823.64 354.25 834.35 354.25 834.35 338.42 837.66 335.12 830.87 335.12 830.87 305.28 862.68 305.28 862.68 322.09 862.56 322.54 872.68 322.54 888.56 338.42 888.56 360.87 872.68 376.75 872.48 376.75 866.69 382.54 854.98 394.25 843.78 394.25 843.78 406.69 872.6 406.69 874.29 408.39 918.95 408.39 921.09 410.53 924.14 407.48 971.99 407.48 978.18 401.28 1000.64 401.28 1016.51 417.16 1016.51 439.61 1000.64 455.49 990.59 455.49 984.72 461.35 984.72 472 979.13 477.6 981.73 480.2 983.7 483.62 984.72 487.43 984.72 506.22 954.88 506.22 954.88 515.91 945.2 515.91 945.2 506.22 915.35 506.22 915.35 487.43 916.38 483.62 918.35 480.2 920.95 477.6 915.35 472 915.35 461.35 906.42 452.42 902.38 448.39 882.36 448.39 882.36 519.05 882.25 519.17 882.36 519.6 882.36 526.81 874.6 526.81 882.36 526.81 882.36 534.03 881.23 538.27 M 882.36 528.66 915.35 528.66 M 915.35 518.67 882.36 518.67 M 882.36 508.69 945.2 508.69 M 954.88 508.69 1115.53 508.69 M 1115.5 508.67 1105.19 498.36 1099.61 484.89 1099.61 470.31 1105.19 456.84 1115.5 446.52 1128.97 440.94 1143.55 440.94 1157.02 446.52 1167.33 456.84 1172.91 470.31 1172.91 484.89 1167.33 498.36 1157.02 508.67 1143.55 514.25 1128.97 514.25 1115.5 508.67 M 1105.53 498.7 984.72 498.7 M 984.72 488.72 1101.19 488.72 M 1099.61 478.73 980.26 478.73 M 984.72 468.75 1100.25 468.75 M 1104.39 458.76 987.32 458.76 M 973.66 444.13 950.04 444.13 926.42 444.13 910.67 428.39 851.61 428.39 M 882.36 448.78 902.78 448.78 M 912.76 458.76 882.36 458.76 M 882.36 468.75 915.35 468.75 M 919.82 478.73 882.36 478.73 M 882.36 488.72 915.35 488.72 M 915.35 498.7 882.36 498.7 M 874.6 526.81 874.6 526.81 M 851.61 528.82 851.61 528.82 851.61 548.5 851.61 528.82 M 851.61 538.64 851.61 538.64 M 843.78 548.63 1113.39 548.63 M 1115.5 546.52 1128.97 540.94 1143.55 540.94 1157.02 546.52 1167.33 556.84 1172.91 570.31 1172.91 584.89 1167.33 598.36 1157.02 608.67 1143.55 614.25 1128.97 614.25 1115.5 608.67 1105.19 598.36 1099.61 584.89 1099.61 570.31 1105.19 556.84 1115.5 546.52 M 1104.45 558.61 843.78 558.61 M 843.78 568.6 1100.31 568.6 M 1099.61 578.58 842.52 578.58 M 822.4 588.57 1101.13 588.57 M 1105.38 598.55 876.66 598.55 M 882.36 608.54 1115.36 608.54 M 1157.16 608.54 1215.36 608.54 M 1215.5 608.67 1205.19 598.36 1199.61 584.89 1199.61 570.31 1205.19 556.84 1215.5 546.52 1228.97 540.94 1243.55 540.94 1257.02 546.52 1267.33 556.84 1272.91 570.31 1272.91 584.89 1267.33 598.36 1257.02 608.67 1243.55 614.25 1228.97 614.25 1215.5 608.67 M 1205.38 598.55 1167.14 598.55 M 1171.39 588.57 1201.13 588.57 M 1199.61 578.58 1172.91 578.58 M 1172.21 568.6 1200.31 568.6 M 1204.45 558.61 1168.07 558.61 M 1159.13 548.63 1213.39 548.63 M 1259.13 548.63 1340.55 548.63 M 1340.55 558.61 1268.07 558.61 M 1272.21 568.6 1340.55 568.6 M 1340.55 578.58 1272.91 578.58 M 1271.39 588.57 1340.55 588.57 M 1340.46 598.55 1267.14 598.55 M 1257.16 608.54 1337.55 608.54 M 1329.72 617.94 1329.72 617.94 M 1328.31 618.52 882.36 618.52 M 882.36 635 850.55 635 850.55 664.84 869.34 664.84 873.15 663.82 876.57 661.85 879.37 659.05 881.34 655.63 882.36 651.82 882.36 635 M 882.36 638.49 1046.9 638.49 M 1041.74 643.65 1041.74 643.65 M 1039.74 648.48 882.36 648.48 M 879.7 658.46 1035.61 658.46 M 1033.46 668.45 669.76 668.45 M 668.54 658.46 744.53 658.46 M 742.13 648.48 577.37 648.48 M 577.37 638.49 742.13 638.49 M 742.13 628.51 572.45 628.51 M 570.55 618.52 562.47 618.52 M 560.57 608.54 552.48 608.54 M 534.38 592.39 534.16 592.17 534.16 569.72 550.03 553.84 572.49 553.84 580.94 562.3 594.33 548.92 616.78 548.92 632.65 564.8 632.65 565.87 701.97 565.87 701.97 548.5 673.15 548.5 663.39 538.74 663.39 455.49 655.98 455.49 655.98 472.6 622.36 472.6 622.36 482.6 612.36 482.6 612.36 472.6 578.74 472.6 578.74 458.23 573.31 458.23 573.31 507.43 564.52 516.22 504.85 516.22 496.06 507.43 496.06 447.76 504.85 438.98 517.46 438.98 522.9 433.54 514.69 433.54 505.91 424.76 505.91 418.86 476.04 418.86 458.23 436.67 446.51 448.39 432.11 448.39 440.56 456.84 446.14 470.31 446.14 484.89 440.56 498.36 430.25 508.67 418.22 513.65 447.76 513.65 461.23 527.13 475.99 541.89 475.99 591.1 477.28 592.39 534.38 592.39 M 534.16 588.57 475.99 588.57 M 475.99 578.58 534.16 578.58 M 535.28 568.6 475.99 568.6 M 475.99 558.61 545.26 558.61 M 561.26 580.94 585.87 605.55 723.66 605.55 743.35 585.87 743.35 555.35 M 723.66 555.35 723.66 576.02 713.82 585.87 615.39 585.87 605.55 576.02 M 584.63 558.61 577.26 558.61 M 626.47 558.61 701.97 558.61 M 701.97 548.63 475.99 548.63 M 472.74 538.64 663.39 538.64 M 663.39 528.66 462.76 528.66 M 452.77 518.67 663.39 518.67 M 663.39 508.69 653.99 508.69 M 654.96 507.01 652.99 510.43 650.19 513.22 646.77 515.2 642.96 516.22 622.36 516.22 622.36 482.6 655.98 482.6 655.98 503.2 654.96 507.01 M 655.98 498.7 663.39 498.7 M 663.39 488.72 655.98 488.72 M 663.39 478.73 622.36 478.73 M 622.36 488.72 612.36 488.72 M 612.36 482.6 612.36 516.22 591.77 516.22 587.95 515.2 584.53 513.22 581.74 510.43 579.76 507.01 578.74 503.2 578.74 482.6 612.36 482.6 M 612.36 478.73 573.31 478.73 M 573.31 468.75 578.74 468.75 M 578.74 458.76 573.31 458.76 M 573.31 488.72 578.74 488.72 M 578.74 498.7 573.31 498.7 M 572.05 508.69 580.73 508.69 M 612.36 508.69 622.36 508.69 M 622.36 498.7 612.36 498.7 M 655.98 468.75 663.39 468.75 M 663.39 458.76 655.98 458.76 M 615.39 428.39 605.55 438.23 546.5 438.23 534.69 450.04 534.69 477.6 M 496.06 478.73 446.14 478.73 M 445.5 468.75 496.06 468.75 M 496.06 458.76 441.36 458.76 M 432.5 448.78 496.06 448.78 M 517.65 438.79 456.11 438.79 M 466.09 428.81 509.96 428.81 M 542.56 398.86 467.76 398.86 438.23 428.39 241.38 428.39 M 214.28 428.81 206.57 428.81 M 206.57 438.79 214.28 438.79 M 214.28 439.61 214.28 417.16 230.15 401.28 252.6 401.28 259.71 408.39 288.44 408.39 278.41 398.36 272.83 384.89 272.83 370.31 278.41 356.84 288.73 346.52 302.2 340.94 316.78 340.94 330.25 346.52 340.56 356.84 346.14 370.31 346.14 384.89 340.56 398.36 330.54 408.39 388.44 408.39 378.41 398.36 372.83 384.89 372.83 370.31 378.41 356.84 388.73 346.52 402.2 340.94 416.78 340.94 430.25 346.52 440.56 356.84 446.14 370.31 446.14 384.89 440.98 397.35 459.47 378.86 505.91 378.86 505.91 372.96 514.69 364.17 570.43 364.17 576.02 369.77 581.62 364.17 634.76 364.17 634.76 361.05 646.48 349.33 676.87 318.94 676.87 308.89 692.75 293.02 702.79 293.02 703.66 292.15 715.38 280.43 722.44 280.43 722.44 274.53 728.61 268.36 728.23 268.14 725.44 265.35 723.46 261.93 722.44 258.12 722.44 241.3 754.25 241.3 754.25 231.61 722.44 231.61 722.44 217.01 536.65 217.01 531.9 217.48 523.11 221.11 516.39 227.84 512.75 236.62 512.28 241.38 512.28 291.56 504.01 311.55 488.71 326.84 468.73 335.12 230.94 335.12 226.19 335.59 217.41 339.23 210.68 345.95 207.04 354.73 206.57 359.49 206.57 595.71 207.04 600.46 210.68 609.25 217.41 615.97 226.19 619.61 230.94 620.08 439.91 620.08 429.99 610.16 429.99 608.78 416.78 614.25 402.2 614.25 388.73 608.67 378.41 598.36 372.83 584.89 372.83 570.31 377.9 558.07 354.06 534.23 348.26 534.23 332.39 518.35 332.39 506.54 330.25 508.67 316.78 514.25 302.2 514.25 288.73 508.67 278.41 498.36 272.83 484.89 272.83 470.31 278.41 456.84 286.86 448.39 259.71 448.39 252.6 455.49 230.15 455.49 214.28 439.61 M 206.57 448.78 223.44 448.78 M 206.57 458.76 277.62 458.76 M 273.48 468.75 206.57 468.75 M 206.57 478.73 272.83 478.73 M 274.42 488.72 206.57 488.72 M 206.57 498.7 278.76 498.7 M 288.76 508.69 206.57 508.69 M 206.57 518.67 332.71 518.67 M 332.39 508.69 330.21 508.69 M 342.69 528.66 206.57 528.66 M 206.57 538.64 358.48 538.64 M 368.46 548.63 332.35 548.63 M 330.25 546.52 340.56 556.84 346.14 570.31 346.14 584.89 340.56 598.36 330.25 608.67 316.78 614.25 302.2 614.25 288.73 608.67 278.41 598.36 272.83 584.89 272.83 570.31 278.41 556.84 288.73 546.52 302.2 540.94 316.78 540.94 330.25 546.52 M 341.3 558.61 377.68 558.61 M 373.54 568.6 345.43 568.6 M 346.14 578.58 372.83 578.58 M 374.36 588.57 344.62 588.57 M 340.37 598.55 378.61 598.55 M 388.59 608.54 330.38 608.54 M 288.59 608.54 210.39 608.54 M 206.85 598.55 278.61 598.55 M 274.36 588.57 206.57 588.57 M 206.57 578.58 272.83 578.58 M 273.54 568.6 206.57 568.6 M 206.57 558.61 277.68 558.61 M 286.62 548.63 206.57 548.63 M 223.57 618.52 438.36 618.52 M 430.21 508.69 497.32 508.69 M 496.06 498.7 440.22 498.7 M 444.56 488.72 496.06 488.72 M 615.39 428.39 615.39 404.76 609.49 398.86 M 576.9 368.9 575.15 368.9 M 636.9 358.91 441.42 358.91 M 445.56 368.9 509.97 368.9 M 459.45 378.88 446.14 378.88 M 444.49 388.87 449.46 388.87 M 432.65 348.93 646.88 348.93 M 656.87 338.94 218.09 338.94 M 209.45 348.93 286.32 348.93 M 277.56 358.91 206.63 358.91 M 206.57 368.9 273.42 368.9 M 272.83 378.88 206.57 378.88 M 206.57 388.87 274.48 388.87 M 278.91 398.85 206.57 398.85 M 206.57 408.84 222.6 408.84 M 214.28 418.82 206.57 418.82 M 259.32 448.78 286.47 448.78 M 340.07 398.85 378.91 398.85 M 374.48 388.87 344.49 388.87 M 346.14 378.88 372.83 378.88 M 373.42 368.9 345.56 368.9 M 341.42 358.91 377.56 358.91 M 386.32 348.93 332.65 348.93 M 483.61 328.96 666.85 328.96 M 676.84 318.97 496.58 318.97 M 504.01 311.55 504.01 311.55 M 505.07 308.99 676.87 308.99 M 686.77 299 509.2 299 M 512.28 289.01 706.8 289.01 M 722.44 279.03 512.28 279.03 M 512.28 269.04 727.93 269.04 M 722.69 259.06 512.28 259.06 M 512.28 249.07 722.44 249.07 M 754.25 239.09 512.51 239.09 M 515.87 229.1 722.44 229.1 M 722.44 219.12 527.93 219.12 M 654.76 369.33 703.98 320.12 723.66 300.43 759.09 300.43 753.19 310.28 749.25 314.21 749.25 335.87 743.35 341.77 743.35 399.84 M 763.03 399.84 763.03 354.57 772.87 344.72 M 782.72 369.33 797.48 354.57 797.48 329.96 792.56 325.04 792.56 251.22 802.4 241.38 826.02 236.46 M 862.68 239.09 1033.24 239.09 M 1033.46 249.07 862.68 249.07 M 862.68 259.06 1033.46 259.06 M 1033.46 269.04 857.19 269.04 M 862.68 279.03 1033.46 279.03 M 1033.46 289.01 862.68 289.01 M 862.68 308.99 1040.68 308.99 M 1036.55 299 830.87 299 M 830.87 308.99 821.18 308.99 M 821.18 318.97 830.87 318.97 M 830.87 328.96 821.18 328.96 M 817.48 338.94 834.35 338.94 M 834.35 348.93 817.48 348.93 M 817.48 358.91 818.99 358.91 M 812.24 369.33 802.4 379.17 802.4 399.84 802.4 467.76 772.87 477.6 M 767.87 478.73 724.88 478.73 M 724.88 482.6 767.87 482.6 767.87 472.6 724.88 472.6 724.88 482.6 M 777.87 482.6 777.87 472.6 820.87 472.6 820.87 482.6 777.87 482.6 M 777.87 478.73 820.87 478.73 M 802.4 555.35 802.4 585.87 778.78 609.49 778.78 630.16 M 742.13 618.52 738.97 618.52 M 840.87 618.52 850.55 618.52 M 850.55 608.54 840.87 608.54 M 840.87 598.55 850.55 598.55 M 850.55 628.51 1056.88 628.51 M 1057.04 628.36 1057.04 628.36 M 1033.46 678.43 669.76 678.43 M 669.76 688.42 1033.46 688.42 M 1033.46 698.4 634.17 698.4 M 634.17 688.42 624.17 688.42 M 624.17 678.43 634.17 678.43 M 634.17 668.45 624.17 668.45 M 624.17 658.46 634.17 658.46 M 669.76 708.39 1033.46 708.39 M 1033.02 718.37 669.76 718.37 M 669.03 728.36 1028.36 728.36 M 850.55 658.46 840.87 658.46 M 840.87 648.48 850.55 648.48 M 850.55 638.49 840.87 638.49 M 954.88 547.72 954.88 515.91 984.72 515.91 984.72 534.69 983.7 538.51 981.73 541.93 978.93 544.72 975.51 546.69 971.7 547.72 954.88 547.72 M 954.88 538.64 945.2 538.64 M 945.2 528.66 954.88 528.66 M 954.88 518.67 945.2 518.67 M 984.72 518.67 1340.55 518.67 M 1340.55 508.69 1256.98 508.69 M 1257.02 508.67 1243.55 514.25 1228.97 514.25 1215.5 508.67 1205.19 498.36 1199.61 484.89 1199.61 470.31 1205.19 456.84 1215.5 446.52 1228.97 440.94 1243.55 440.94 1257.02 446.52 1267.33 456.84 1272.91 470.31 1272.91 484.89 1267.33 498.36 1257.02 508.67 M 1266.99 498.7 1340.55 498.7 M 1340.55 488.72 1271.33 488.72 M 1272.91 478.73 1340.55 478.73 M 1340.55 468.75 1272.27 468.75 M 1268.13 458.76 1340.55 458.76 M 1340.55 448.78 1259.27 448.78 M 1243.55 414.25 1228.97 414.25 1215.5 408.67 1205.19 398.36 1199.61 384.89 1199.61 370.31 1205.19 356.84 1215.5 346.52 1228.97 340.94 1243.55 340.94 1257.02 346.52 1267.33 356.84 1272.91 370.31 1272.91 384.89 1267.33 398.36 1257.02 408.67 1243.55 414.25 M 1256.63 408.84 1340.55 408.84 M 1340.55 418.82 1016.51 418.82 M 1016.51 428.81 1340.55 428.81 M 1340.55 438.79 1016.51 438.79 M 1007.35 448.78 1113.25 448.78 M 1128.97 414.25 1115.5 408.67 1105.19 398.36 1099.61 384.89 1099.61 370.31 1105.19 356.84 1115.5 346.52 1128.97 340.94 1143.55 340.94 1157.02 346.52 1167.33 356.84 1172.91 370.31 1172.91 384.89 1167.33 398.36 1157.02 408.67 1143.55 414.25 1128.97 414.25 M 1115.89 408.84 1008.19 408.84 M 989.41 428.39 973.66 444.13 M 922.79 408.84 919.4 408.84 M 870.35 378.88 1099.61 378.88 M 1100.19 368.9 880.53 368.9 M 888.56 358.91 1104.33 358.91 M 1113.1 348.93 888.56 348.93 M 888.56 338.94 1324.28 338.94 M 1336.86 348.93 1259.42 348.93 M 1268.19 358.91 1340.3 358.91 M 1340.55 368.9 1272.33 368.9 M 1272.91 378.88 1340.55 378.88 M 1340.55 388.87 1271.27 388.87 M 1266.84 398.85 1340.55 398.85 M 1215.89 408.84 1156.63 408.84 M 1166.84 398.85 1205.68 398.85 M 1201.25 388.87 1171.27 388.87 M 1172.91 378.88 1199.61 378.88 M 1200.19 368.9 1172.33 368.9 M 1168.19 358.91 1204.33 358.91 M 1213.1 348.93 1159.42 348.93 M 1101.25 388.87 860.36 388.87 M 843.78 398.85 1105.68 398.85 M 1159.27 448.78 1213.25 448.78 M 1204.39 458.76 1168.13 458.76 M 1172.27 468.75 1200.25 468.75 M 1199.61 478.73 1172.91 478.73 M 1171.33 488.72 1201.19 488.72 M 1205.53 498.7 1166.99 498.7 M 1156.98 508.69 1215.53 508.69 M 1340.55 528.66 984.72 528.66 M 983.62 538.64 1340.55 538.64 M 1062.14 328.96 879.09 328.96 M 862.68 318.97 1049.17 318.97 M 1029.88 229.1 862.68 229.1 M 862.68 219.12 1017.82 219.12 M 861.46 349.65 861.46 359.49 846.69 374.25 831.93 374.25 822.09 384.09 822.09 399.84 M 782.72 399.84 782.72 369.33 M 654.76 369.33 654.76 428.39 M 488.71 326.84 488.71 326.84 488.71 326.84" fill="none" stroke-width="10"/><path d="M 359.49 507.13 389.02 536.65 438.23 536.65 452.99 551.42 452.99 600.63 467.76 615.39 526.81 615.39 554.37 642.95 554.37 694.13" fill="none" stroke-width="16"/></g></svg>