<svg version="1.1" xmlns="http://www.w3.org/2000/svg" xmlns:xlink="http://www.w3.org/1999/xlink" stroke-linecap="round" stroke-linejoin="round" stroke-width="0" fill-rule="evenodd" width="1.16437in" height="0.55118in" viewBox="191.18 202.01 1164.37 551.18" id="QUJCmdYcjcGYsc8iIONf"><defs><rect x="-1.5" y="-0.25" width="3" height="0.5" id="QUJCmdYcjcGYsc8iIONf_pad-10"/><rect x="-1" y="-0.25" width="2" height="0.5" id="QUJCmdYcjcGYsc8iIONf_pad-11"/><rect x="-1.25" y="-0.25" width="2.5" height="0.5" id="QUJCmdYcjcGYsc8iIONf_pad-12"/><rect x="-1.75" y="-0.25" width="3.5" height="0.5" id="QUJCmdYcjcGYsc8iIONf_pad-13"/><rect x="-7" y="-0.25" width="14" height="0.5" id="QUJCmdYcjcGYsc8iIONf_pad-14"/><rect x="-8.5" y="-0.25" width="17" height="0.5" id="QUJCmdYcjcGYsc8iIONf_pad-15"/><rect x="-9.5" y="-0.25" width="19" height="0.5" id="QUJCmdYcjcGYsc8iIONf_pad-16"/><rect x="-10.25" y="-0.25" width="20.5" height="0.5" id="QUJCmdYcjcGYsc8iIONf_pad-17"/><rect x="-10.75" y="-0.25" width="21.5" height="0.5" id="QUJCmdYcjcGYsc8iIONf_pad-18"/><rect x="-2" y="-0.25" width="4" height="0.5" id="QUJCmdYcjcGYsc8iIONf_pad-19"/><rect x="-4.5" y="-0.25" width="9" height="0.5" id="QUJCmdYcjcGYsc8iIONf_pad-20"/><rect x="-2.25" y="-0.25" width="4.5" height="0.5" id="QUJCmdYcjcGYsc8iIONf_pad-21"/><rect x="-3.5" y="-0.25" width="7" height="0.5" id="QUJCmdYcjcGYsc8iIONf_pad-22"/><rect x="-2.5" y="-0.25" width="5" height="0.5" id="QUJCmdYcjcGYsc8iIONf_pad-23"/><rect x="-3" y="-0.25" width="6" height="0.5" id="QUJCmdYcjcGYsc8iIONf_pad-24"/><rect x="-2.75" y="-0.25" width="5.5" height="0.5" id="QUJCmdYcjcGYsc8iIONf_pad-25"/><rect x="-11.75" y="-0.25" width="23.5" height="0.5" id="QUJCmdYcjcGYsc8iIONf_pad-26"/><rect x="-11.5" y="-0.25" width="23" height="0.5" id="QUJCmdYcjcGYsc8iIONf_pad-27"/><rect x="-11.25" y="-0.25" width="22.5" height="0.5" id="QUJCmdYcjcGYsc8iIONf_pad-28"/><rect x="-11" y="-0.25" width="22" height="0.5" id="QUJCmdYcjcGYsc8iIONf_pad-29"/><rect x="-8.25" y="-0.25" width="16.5" height="0.5" id="QUJCmdYcjcGYsc8iIONf_pad-30"/><rect x="-9" y="-0.25" width="18" height="0.5" id="QUJCmdYcjcGYsc8iIONf_pad-31"/><rect x="-3.75" y="-0.25" width="7.5" height="0.5" id="QUJCmdYcjcGYsc8iIONf_pad-32"/><rect x="-3.25" y="-0.25" width="6.5" height="0.5" id="QUJCmdYcjcGYsc8iIONf_pad-33"/><rect x="-4.25" y="-0.25" width="8.5" height="0.5" id="QUJCmdYcjcGYsc8iIONf_pad-34"/><rect x="-10" y="-0.25" width="20" height="0.5" id="QUJCmdYcjcGYsc8iIONf_pad-35"/><rect x="-8.75" y="-0.25" width="17.5" height="0.5" id="QUJCmdYcjcGYsc8iIONf_pad-36"/><rect x="-7.5" y="-0.25" width="15" height="0.5" id="QUJCmdYcjcGYsc8iIONf_pad-37"/><rect x="-0.75" y="-0.25" width="1.5" height="0.5" id="QUJCmdYcjcGYsc8iIONf_pad-38"/><rect x="-37.435" y="-19.715" width="74.87" height="39.43" id="QUJCmdYcjcGYsc8iIONf_pad-41"/><circle cx="0" cy="0" r="23.655" id="QUJCmdYcjcGYsc8iIONf_pad-42"/></defs><g transform="translate(0,955.1999999999999) scale(1,-1)" fill="currentColor" stroke="currentColor"><use xlink:href="#QUJCmdYcjcGYsc8iIONf_pad-10" x="801.01" y="555.97"/><use xlink:href="#QUJCmdYcjcGYsc8iIONf_pad-10" x="801.01" y="556.47"/><use xlink:href="#QUJCmdYcjcGYsc8iIONf_pad-10" x="801.01" y="556.97"/><use xlink:href="#QUJCmdYcjcGYsc8iIONf_pad-10" x="801.01" y="557.47"/><use xlink:href="#QUJCmdYcjcGYsc8iIONf_pad-10" x="801.01" y="557.97"/><use xlink:href="#QUJCmdYcjcGYsc8iIONf_pad-10" x="801.01" y="558.47"/><use xlink:href="#QUJCmdYcjcGYsc8iIONf_pad-10" x="801.01" y="558.97"/><use xlink:href="#QUJCmdYcjcGYsc8iIONf_pad-10" x="801.01" y="559.47"/><use xlink:href="#QUJCmdYcjcGYsc8iIONf_pad-10" x="801.01" y="559.97"/><use xlink:href="#QUJCmdYcjcGYsc8iIONf_pad-10" x="801.01" y="560.47"/><use xlink:href="#QUJCmdYcjcGYsc8iIONf_pad-10" x="801.01" y="560.97"/><use xlink:href="#QUJCmdYcjcGYsc8iIONf_pad-10" x="801.01" y="561.47"/><use xlink:href="#QUJCmdYcjcGYsc8iIONf_pad-10" x="801.01" y="561.97"/><use xlink:href="#QUJCmdYcjcGYsc8iIONf_pad-10" x="801.01" y="562.47"/><use xlink:href="#QUJCmdYcjcGYsc8iIONf_pad-10" x="801.01" y="562.97"/><use xlink:href="#QUJCmdYcjcGYsc8iIONf_pad-10" x="801.01" y="563.47"/><use xlink:href="#QUJCmdYcjcGYsc8iIONf_pad-10" x="801.01" y="563.97"/><use xlink:href="#QUJCmdYcjcGYsc8iIONf_pad-10" x="801.01" y="564.47"/><use xlink:href="#QUJCmdYcjcGYsc8iIONf_pad-10" x="801.01" y="564.97"/><use xlink:href="#QUJCmdYcjcGYsc8iIONf_pad-10" x="801.01" y="565.47"/><use xlink:href="#QUJCmdYcjcGYsc8iIONf_pad-10" x="801.01" y="565.97"/><use xlink:href="#QUJCmdYcjcGYsc8iIONf_pad-10" x="801.01" y="566.47"/><use xlink:href="#QUJCmdYcjcGYsc8iIONf_pad-10" x="801.01" y="566.97"/><use xlink:href="#QUJCmdYcjcGYsc8iIONf_pad-10" x="801.01" y="567.47"/><use xlink:href="#QUJCmdYcjcGYsc8iIONf_pad-10" x="801.01" y="567.97"/><use xlink:href="#QUJCmdYcjcGYsc8iIONf_pad-10" x="801.01" y="568.47"/><use xlink:href="#QUJCmdYcjcGYsc8iIONf_pad-10" x="801.01" y="568.97"/><use xlink:href="#QUJCmdYcjcGYsc8iIONf_pad-10" x="801.01" y="569.47"/><use xlink:href="#QUJCmdYcjcGYsc8iIONf_pad-10" x="801.01" y="569.97"/><use xlink:href="#QUJCmdYcjcGYsc8iIONf_pad-10" x="801.01" y="570.47"/><use xlink:href="#QUJCmdYcjcGYsc8iIONf_pad-10" x="801.01" y="570.97"/><use xlink:href="#QUJCmdYcjcGYsc8iIONf_pad-10" x="801.01" y="571.47"/><use xlink:href="#QUJCmdYcjcGYsc8iIONf_pad-10" x="801.01" y="571.97"/><use xlink:href="#QUJCmdYcjcGYsc8iIONf_pad-10" x="801.01" y="572.47"/><use xlink:href="#QUJCmdYcjcGYsc8iIONf_pad-10" x="801.01" y="572.97"/><use xlink:href="#QUJCmdYcjcGYsc8iIONf_pad-10" x="801.01" y="573.47"/><use xlink:href="#QUJCmdYcjcGYsc8iIONf_pad-10" x="801.01" y="573.97"/><use xlink:href="#QUJCmdYcjcGYsc8iIONf_pad-10" x="801.01" y="574.47"/><use xlink:href="#QUJCmdYcjcGYsc8iIONf_pad-10" x="801.01" y="574.97"/><use xlink:href="#QUJCmdYcjcGYsc8iIONf_pad-10" x="801.01" y="575.47"/><use xlink:href="#QUJCmdYcjcGYsc8iIONf_pad-10" x="801.01" y="575.97"/><use xlink:href="#QUJCmdYcjcGYsc8iIONf_pad-10" x="801.01" y="576.47"/><use xlink:href="#QUJCmdYcjcGYsc8iIONf_pad-10" x="801.01" y="576.97"/><use xlink:href="#QUJCmdYcjcGYsc8iIONf_pad-10" x="801.01" y="577.47"/><use xlink:href="#QUJCmdYcjcGYsc8iIONf_pad-10" x="801.01" y="577.97"/><use xlink:href="#QUJCmdYcjcGYsc8iIONf_pad-10" x="801.01" y="578.47"/><use xlink:href="#QUJCmdYcjcGYsc8iIONf_pad-10" x="801.01" y="578.97"/><use xlink:href="#QUJCmdYcjcGYsc8iIONf_pad-10" x="801.01" y="579.47"/><use xlink:href="#QUJCmdYcjcGYsc8iIONf_pad-10" x="801.01" y="579.97"/><use xlink:href="#QUJCmdYcjcGYsc8iIONf_pad-10" x="801.01" y="580.47"/><use xlink:href="#QUJCmdYcjcGYsc8iIONf_pad-10" x="801.01" y="580.97"/><use xlink:href="#QUJCmdYcjcGYsc8iIONf_pad-10" x="801.01" y="581.47"/><use xlink:href="#QUJCmdYcjcGYsc8iIONf_pad-10" x="801.01" y="581.97"/><use xlink:href="#QUJCmdYcjcGYsc8iIONf_pad-10" x="801.01" y="582.47"/><use xlink:href="#QUJCmdYcjcGYsc8iIONf_pad-10" x="801.01" y="582.97"/><use xlink:href="#QUJCmdYcjcGYsc8iIONf_pad-10" x="801.01" y="583.47"/><use xlink:href="#QUJCmdYcjcGYsc8iIONf_pad-10" x="801.01" y="583.97"/><use xlink:href="#QUJCmdYcjcGYsc8iIONf_pad-10" x="801.01" y="584.47"/><use xlink:href="#QUJCmdYcjcGYsc8iIONf_pad-10" x="801.01" y="584.97"/><use xlink:href="#QUJCmdYcjcGYsc8iIONf_pad-10" x="801.01" y="585.47"/><use xlink:href="#QUJCmdYcjcGYsc8iIONf_pad-10" x="801.01" y="585.97"/><use xlink:href="#QUJCmdYcjcGYsc8iIONf_pad-10" x="801.01" y="586.47"/><use xlink:href="#QUJCmdYcjcGYsc8iIONf_pad-10" x="801.01" y="586.97"/><use xlink:href="#QUJCmdYcjcGYsc8iIONf_pad-10" x="801.01" y="587.47"/><use xlink:href="#QUJCmdYcjcGYsc8iIONf_pad-10" x="801.01" y="587.97"/><use xlink:href="#QUJCmdYcjcGYsc8iIONf_pad-10" x="801.01" y="588.47"/><use xlink:href="#QUJCmdYcjcGYsc8iIONf_pad-10" x="801.01" y="588.97"/><use xlink:href="#QUJCmdYcjcGYsc8iIONf_pad-10" x="801.01" y="589.47"/><use xlink:href="#QUJCmdYcjcGYsc8iIONf_pad-10" x="801.01" y="589.97"/><use xlink:href="#QUJCmdYcjcGYsc8iIONf_pad-10" x="801.01" y="590.47"/><use xlink:href="#QUJCmdYcjcGYsc8iIONf_pad-10" x="801.01" y="590.97"/><use xlink:href="#QUJCmdYcjcGYsc8iIONf_pad-10" x="801.01" y="591.47"/><use xlink:href="#QUJCmdYcjcGYsc8iIONf_pad-10" x="801.01" y="591.97"/><use xlink:href="#QUJCmdYcjcGYsc8iIONf_pad-10" x="804.01" y="593.47"/><use xlink:href="#QUJCmdYcjcGYsc8iIONf_pad-10" x="804.01" y="593.97"/><use xlink:href="#QUJCmdYcjcGYsc8iIONf_pad-10" x="804.51" y="592.47"/><use xlink:href="#QUJCmdYcjcGYsc8iIONf_pad-10" x="805.01" y="591.47"/><use xlink:href="#QUJCmdYcjcGYsc8iIONf_pad-10" x="805.01" y="590.97"/><use xlink:href="#QUJCmdYcjcGYsc8iIONf_pad-10" x="805.51" y="589.97"/><use xlink:href="#QUJCmdYcjcGYsc8iIONf_pad-10" x="806.01" y="588.97"/><use xlink:href="#QUJCmdYcjcGYsc8iIONf_pad-10" x="806.01" y="588.47"/><use xlink:href="#QUJCmdYcjcGYsc8iIONf_pad-10" x="806.51" y="587.47"/><use xlink:href="#QUJCmdYcjcGYsc8iIONf_pad-10" x="807.01" y="586.47"/><use xlink:href="#QUJCmdYcjcGYsc8iIONf_pad-10" x="807.01" y="585.97"/><use xlink:href="#QUJCmdYcjcGYsc8iIONf_pad-10" x="807.51" y="584.97"/><use xlink:href="#QUJCmdYcjcGYsc8iIONf_pad-10" x="808.01" y="583.97"/><use xlink:href="#QUJCmdYcjcGYsc8iIONf_pad-10" x="808.01" y="583.47"/><use xlink:href="#QUJCmdYcjcGYsc8iIONf_pad-10" x="808.51" y="582.47"/><use xlink:href="#QUJCmdYcjcGYsc8iIONf_pad-10" x="809.01" y="581.47"/><use xlink:href="#QUJCmdYcjcGYsc8iIONf_pad-10" x="809.51" y="580.47"/><use xlink:href="#QUJCmdYcjcGYsc8iIONf_pad-10" x="809.51" y="579.97"/><use xlink:href="#QUJCmdYcjcGYsc8iIONf_pad-10" x="810.01" y="578.97"/><use xlink:href="#QUJCmdYcjcGYsc8iIONf_pad-10" x="810.51" y="577.97"/><use xlink:href="#QUJCmdYcjcGYsc8iIONf_pad-10" x="810.51" y="577.47"/><use xlink:href="#QUJCmdYcjcGYsc8iIONf_pad-10" x="811.01" y="576.47"/><use xlink:href="#QUJCmdYcjcGYsc8iIONf_pad-10" x="811.51" y="575.47"/><use xlink:href="#QUJCmdYcjcGYsc8iIONf_pad-10" x="811.51" y="574.97"/><use xlink:href="#QUJCmdYcjcGYsc8iIONf_pad-10" x="812.01" y="573.97"/><use xlink:href="#QUJCmdYcjcGYsc8iIONf_pad-10" x="812.51" y="572.97"/><use xlink:href="#QUJCmdYcjcGYsc8iIONf_pad-10" x="812.51" y="572.47"/><use xlink:href="#QUJCmdYcjcGYsc8iIONf_pad-10" x="813.01" y="571.47"/><use xlink:href="#QUJCmdYcjcGYsc8iIONf_pad-10" x="813.51" y="570.47"/><use xlink:href="#QUJCmdYcjcGYsc8iIONf_pad-10" x="813.51" y="569.97"/><use xlink:href="#QUJCmdYcjcGYsc8iIONf_pad-10" x="814.01" y="568.97"/><use xlink:href="#QUJCmdYcjcGYsc8iIONf_pad-10" x="814.51" y="567.97"/><use xlink:href="#QUJCmdYcjcGYsc8iIONf_pad-10" x="814.51" y="567.47"/><use xlink:href="#QUJCmdYcjcGYsc8iIONf_pad-10" x="815.01" y="566.47"/><use xlink:href="#QUJCmdYcjcGYsc8iIONf_pad-10" x="815.51" y="565.47"/><use xlink:href="#QUJCmdYcjcGYsc8iIONf_pad-10" x="815.51" y="564.97"/><use xlink:href="#QUJCmdYcjcGYsc8iIONf_pad-10" x="816.01" y="563.97"/><use xlink:href="#QUJCmdYcjcGYsc8iIONf_pad-10" x="816.51" y="562.97"/><use xlink:href="#QUJCmdYcjcGYsc8iIONf_pad-10" x="817.01" y="561.47"/><use xlink:href="#QUJCmdYcjcGYsc8iIONf_pad-10" x="820.51" y="561.47"/><use xlink:href="#QUJCmdYcjcGYsc8iIONf_pad-10" x="820.51" y="560.97"/><use xlink:href="#QUJCmdYcjcGYsc8iIONf_pad-10" x="821.01" y="561.97"/><use xlink:href="#QUJCmdYcjcGYsc8iIONf_pad-10" x="821.01" y="562.47"/><use xlink:href="#QUJCmdYcjcGYsc8iIONf_pad-10" x="821.51" y="563.47"/><use xlink:href="#QUJCmdYcjcGYsc8iIONf_pad-10" x="821.51" y="563.97"/><use xlink:href="#QUJCmdYcjcGYsc8iIONf_pad-10" x="822.01" y="564.47"/><use xlink:href="#QUJCmdYcjcGYsc8iIONf_pad-10" x="822.01" y="564.97"/><use xlink:href="#QUJCmdYcjcGYsc8iIONf_pad-10" x="822.51" y="565.47"/><use xlink:href="#QUJCmdYcjcGYsc8iIONf_pad-10" x="822.51" y="565.97"/><use xlink:href="#QUJCmdYcjcGYsc8iIONf_pad-10" x="822.51" y="566.47"/><use xlink:href="#QUJCmdYcjcGYsc8iIONf_pad-10" x="823.01" y="566.97"/><use xlink:href="#QUJCmdYcjcGYsc8iIONf_pad-10" x="823.01" y="567.47"/><use xlink:href="#QUJCmdYcjcGYsc8iIONf_pad-10" x="823.51" y="567.97"/><use xlink:href="#QUJCmdYcjcGYsc8iIONf_pad-10" x="823.51" y="568.47"/><use xlink:href="#QUJCmdYcjcGYsc8iIONf_pad-10" x="823.51" y="568.97"/><use xlink:href="#QUJCmdYcjcGYsc8iIONf_pad-10" x="824.01" y="569.47"/><use xlink:href="#QUJCmdYcjcGYsc8iIONf_pad-10" x="824.01" y="569.97"/><use xlink:href="#QUJCmdYcjcGYsc8iIONf_pad-10" x="824.51" y="570.47"/><use xlink:href="#QUJCmdYcjcGYsc8iIONf_pad-10" x="824.51" y="570.97"/><use xlink:href="#QUJCmdYcjcGYsc8iIONf_pad-10" x="824.51" y="571.47"/><use xlink:href="#QUJCmdYcjcGYsc8iIONf_pad-10" x="825.01" y="571.97"/><use xlink:href="#QUJCmdYcjcGYsc8iIONf_pad-10" x="825.01" y="572.47"/><use xlink:href="#QUJCmdYcjcGYsc8iIONf_pad-10" x="825.51" y="572.97"/><use xlink:href="#QUJCmdYcjcGYsc8iIONf_pad-10" x="825.51" y="573.47"/><use xlink:href="#QUJCmdYcjcGYsc8iIONf_pad-10" x="825.51" y="573.97"/><use xlink:href="#QUJCmdYcjcGYsc8iIONf_pad-10" x="826.01" y="574.47"/><use xlink:href="#QUJCmdYcjcGYsc8iIONf_pad-10" x="826.01" y="574.97"/><use xlink:href="#QUJCmdYcjcGYsc8iIONf_pad-10" x="826.51" y="575.47"/><use xlink:href="#QUJCmdYcjcGYsc8iIONf_pad-10" x="826.51" y="575.97"/><use xlink:href="#QUJCmdYcjcGYsc8iIONf_pad-10" x="826.51" y="576.47"/><use xlink:href="#QUJCmdYcjcGYsc8iIONf_pad-10" x="827.01" y="576.97"/><use xlink:href="#QUJCmdYcjcGYsc8iIONf_pad-10" x="827.01" y="577.47"/><use xlink:href="#QUJCmdYcjcGYsc8iIONf_pad-10" x="827.51" y="577.97"/><use xlink:href="#QUJCmdYcjcGYsc8iIONf_pad-10" x="827.51" y="578.47"/><use xlink:href="#QUJCmdYcjcGYsc8iIONf_pad-10" x="828.01" y="579.47"/><use xlink:href="#QUJCmdYcjcGYsc8iIONf_pad-10" x="828.01" y="579.97"/><use xlink:href="#QUJCmdYcjcGYsc8iIONf_pad-10" x="828.51" y="580.47"/><use xlink:href="#QUJCmdYcjcGYsc8iIONf_pad-10" x="828.51" y="580.97"/><use xlink:href="#QUJCmdYcjcGYsc8iIONf_pad-10" x="829.01" y="581.97"/><use xlink:href="#QUJCmdYcjcGYsc8iIONf_pad-10" x="829.01" y="582.47"/><use xlink:href="#QUJCmdYcjcGYsc8iIONf_pad-10" x="829.51" y="582.97"/><use xlink:href="#QUJCmdYcjcGYsc8iIONf_pad-10" x="829.51" y="583.47"/><use xlink:href="#QUJCmdYcjcGYsc8iIONf_pad-10" x="830.01" y="584.47"/><use xlink:href="#QUJCmdYcjcGYsc8iIONf_pad-10" x="830.01" y="584.97"/><use xlink:href="#QUJCmdYcjcGYsc8iIONf_pad-10" x="830.51" y="585.47"/><use xlink:href="#QUJCmdYcjcGYsc8iIONf_pad-10" x="830.51" y="585.97"/><use xlink:href="#QUJCmdYcjcGYsc8iIONf_pad-10" x="831.01" y="586.47"/><use xlink:href="#QUJCmdYcjcGYsc8iIONf_pad-10" x="831.01" y="586.97"/><use xlink:href="#QUJCmdYcjcGYsc8iIONf_pad-10" x="831.01" y="587.47"/><use xlink:href="#QUJCmdYcjcGYsc8iIONf_pad-10" x="831.51" y="587.97"/><use xlink:href="#QUJCmdYcjcGYsc8iIONf_pad-10" x="831.51" y="588.47"/><use xlink:href="#QUJCmdYcjcGYsc8iIONf_pad-10" x="832.01" y="588.97"/><use xlink:href="#QUJCmdYcjcGYsc8iIONf_pad-10" x="832.01" y="589.47"/><use xlink:href="#QUJCmdYcjcGYsc8iIONf_pad-10" x="832.01" y="589.97"/><use xlink:href="#QUJCmdYcjcGYsc8iIONf_pad-10" x="832.51" y="590.47"/><use xlink:href="#QUJCmdYcjcGYsc8iIONf_pad-10" x="832.51" y="590.97"/><use xlink:href="#QUJCmdYcjcGYsc8iIONf_pad-10" x="833.01" y="591.47"/><use xlink:href="#QUJCmdYcjcGYsc8iIONf_pad-10" x="833.01" y="591.97"/><use xlink:href="#QUJCmdYcjcGYsc8iIONf_pad-10" x="833.01" y="592.47"/><use xlink:href="#QUJCmdYcjcGYsc8iIONf_pad-10" x="833.51" y="592.97"/><use xlink:href="#QUJCmdYcjcGYsc8iIONf_pad-10" x="833.51" y="593.47"/><use xlink:href="#QUJCmdYcjcGYsc8iIONf_pad-10" x="861.51" y="582.47"/><use xlink:href="#QUJCmdYcjcGYsc8iIONf_pad-10" x="861.51" y="581.97"/><use xlink:href="#QUJCmdYcjcGYsc8iIONf_pad-10" x="861.01" y="580.97"/><use xlink:href="#QUJCmdYcjcGYsc8iIONf_pad-10" x="861.01" y="580.47"/><use xlink:href="#QUJCmdYcjcGYsc8iIONf_pad-10" x="860.51" y="579.47"/><use xlink:href="#QUJCmdYcjcGYsc8iIONf_pad-10" x="860.51" y="578.97"/><use xlink:href="#QUJCmdYcjcGYsc8iIONf_pad-10" x="860.01" y="578.47"/><use xlink:href="#QUJCmdYcjcGYsc8iIONf_pad-10" x="860.01" y="577.97"/><use xlink:href="#QUJCmdYcjcGYsc8iIONf_pad-10" x="859.51" y="576.97"/><use xlink:href="#QUJCmdYcjcGYsc8iIONf_pad-10" x="859.51" y="576.47"/><use xlink:href="#QUJCmdYcjcGYsc8iIONf_pad-10" x="859.01" y="575.47"/><use xlink:href="#QUJCmdYcjcGYsc8iIONf_pad-10" x="858.51" y="574.47"/><use xlink:href="#QUJCmdYcjcGYsc8iIONf_pad-10" x="858.51" y="573.97"/><use xlink:href="#QUJCmdYcjcGYsc8iIONf_pad-10" x="856.51" y="568.97"/><use xlink:href="#QUJCmdYcjcGYsc8iIONf_pad-10" x="856.01" y="567.97"/><use xlink:href="#QUJCmdYcjcGYsc8iIONf_pad-10" x="855.51" y="566.47"/><use xlink:href="#QUJCmdYcjcGYsc8iIONf_pad-10" x="855.01" y="565.47"/><use xlink:href="#QUJCmdYcjcGYsc8iIONf_pad-10" x="855.01" y="564.97"/><use xlink:href="#QUJCmdYcjcGYsc8iIONf_pad-10" x="854.51" y="563.97"/><use xlink:href="#QUJCmdYcjcGYsc8iIONf_pad-10" x="854.01" y="562.47"/><use xlink:href="#QUJCmdYcjcGYsc8iIONf_pad-10" x="853.51" y="561.47"/><use xlink:href="#QUJCmdYcjcGYsc8iIONf_pad-10" x="853.01" y="559.97"/><use xlink:href="#QUJCmdYcjcGYsc8iIONf_pad-10" x="852.51" y="558.97"/><use xlink:href="#QUJCmdYcjcGYsc8iIONf_pad-10" x="852.01" y="557.47"/><use xlink:href="#QUJCmdYcjcGYsc8iIONf_pad-10" x="851.51" y="556.47"/><use xlink:href="#QUJCmdYcjcGYsc8iIONf_pad-10" x="877.51" y="569.47"/><use xlink:href="#QUJCmdYcjcGYsc8iIONf_pad-10" x="877.51" y="569.97"/><use xlink:href="#QUJCmdYcjcGYsc8iIONf_pad-10" x="878.01" y="568.97"/><use xlink:href="#QUJCmdYcjcGYsc8iIONf_pad-10" x="878.01" y="568.47"/><use xlink:href="#QUJCmdYcjcGYsc8iIONf_pad-10" x="878.51" y="567.47"/><use xlink:href="#QUJCmdYcjcGYsc8iIONf_pad-10" x="879.01" y="566.47"/><use xlink:href="#QUJCmdYcjcGYsc8iIONf_pad-10" x="879.01" y="565.97"/><use xlink:href="#QUJCmdYcjcGYsc8iIONf_pad-10" x="879.51" y="564.97"/><use xlink:href="#QUJCmdYcjcGYsc8iIONf_pad-10" x="880.01" y="563.97"/><use xlink:href="#QUJCmdYcjcGYsc8iIONf_pad-10" x="880.01" y="563.47"/><use xlink:href="#QUJCmdYcjcGYsc8iIONf_pad-10" x="880.51" y="562.47"/><use xlink:href="#QUJCmdYcjcGYsc8iIONf_pad-10" x="881.01" y="561.47"/><use xlink:href="#QUJCmdYcjcGYsc8iIONf_pad-10" x="881.01" y="560.97"/><use xlink:href="#QUJCmdYcjcGYsc8iIONf_pad-10" x="881.51" y="559.97"/><use xlink:href="#QUJCmdYcjcGYsc8iIONf_pad-10" x="882.01" y="558.97"/><use xlink:href="#QUJCmdYcjcGYsc8iIONf_pad-10" x="882.01" y="558.47"/><use xlink:href="#QUJCmdYcjcGYsc8iIONf_pad-10" x="882.51" y="557.47"/><use xlink:href="#QUJCmdYcjcGYsc8iIONf_pad-10" x="883.01" y="556.47"/><use xlink:href="#QUJCmdYcjcGYsc8iIONf_pad-10" x="883.01" y="555.97"/><use xlink:href="#QUJCmdYcjcGYsc8iIONf_pad-10" x="899.01" y="565.47"/><use xlink:href="#QUJCmdYcjcGYsc8iIONf_pad-10" x="900.51" y="567.97"/><use xlink:href="#QUJCmdYcjcGYsc8iIONf_pad-10" x="902.01" y="570.47"/><use xlink:href="#QUJCmdYcjcGYsc8iIONf_pad-10" x="903.51" y="572.97"/><use xlink:href="#QUJCmdYcjcGYsc8iIONf_pad-10" x="897.51" y="579.47"/><use xlink:href="#QUJCmdYcjcGYsc8iIONf_pad-10" x="897.01" y="579.97"/><use xlink:href="#QUJCmdYcjcGYsc8iIONf_pad-10" x="896.51" y="580.97"/><use xlink:href="#QUJCmdYcjcGYsc8iIONf_pad-10" x="896.51" y="581.47"/><use xlink:href="#QUJCmdYcjcGYsc8iIONf_pad-10" x="896.01" y="581.97"/><use xlink:href="#QUJCmdYcjcGYsc8iIONf_pad-10" x="896.01" y="582.47"/><use xlink:href="#QUJCmdYcjcGYsc8iIONf_pad-10" x="896.01" y="582.97"/><use xlink:href="#QUJCmdYcjcGYsc8iIONf_pad-10" x="895.51" y="583.47"/><use xlink:href="#QUJCmdYcjcGYsc8iIONf_pad-10" x="895.51" y="583.97"/><use xlink:href="#QUJCmdYcjcGYsc8iIONf_pad-10" x="895.51" y="584.47"/><use xlink:href="#QUJCmdYcjcGYsc8iIONf_pad-10" x="895.51" y="584.97"/><use xlink:href="#QUJCmdYcjcGYsc8iIONf_pad-10" x="895.51" y="585.47"/><use xlink:href="#QUJCmdYcjcGYsc8iIONf_pad-10" x="895.51" y="585.97"/><use xlink:href="#QUJCmdYcjcGYsc8iIONf_pad-10" x="895.51" y="586.47"/><use xlink:href="#QUJCmdYcjcGYsc8iIONf_pad-10" x="895.51" y="586.97"/><use xlink:href="#QUJCmdYcjcGYsc8iIONf_pad-10" x="895.51" y="587.47"/><use xlink:href="#QUJCmdYcjcGYsc8iIONf_pad-10" x="896.01" y="589.47"/><use xlink:href="#QUJCmdYcjcGYsc8iIONf_pad-10" x="896.01" y="589.97"/><use xlink:href="#QUJCmdYcjcGYsc8iIONf_pad-10" x="917.51" y="589.97"/><use xlink:href="#QUJCmdYcjcGYsc8iIONf_pad-10" x="917.51" y="590.47"/><use xlink:href="#QUJCmdYcjcGYsc8iIONf_pad-10" x="917.51" y="590.97"/><use xlink:href="#QUJCmdYcjcGYsc8iIONf_pad-10" x="917.51" y="591.47"/><use xlink:href="#QUJCmdYcjcGYsc8iIONf_pad-10" x="917.51" y="591.97"/><use xlink:href="#QUJCmdYcjcGYsc8iIONf_pad-10" x="917.51" y="592.47"/><use xlink:href="#QUJCmdYcjcGYsc8iIONf_pad-10" x="917.51" y="592.97"/><use xlink:href="#QUJCmdYcjcGYsc8iIONf_pad-10" x="917.51" y="593.47"/><use xlink:href="#QUJCmdYcjcGYsc8iIONf_pad-10" x="917.51" y="593.97"/><use xlink:href="#QUJCmdYcjcGYsc8iIONf_pad-10" x="917.51" y="594.47"/><use xlink:href="#QUJCmdYcjcGYsc8iIONf_pad-10" x="917.51" y="589.47"/><use xlink:href="#QUJCmdYcjcGYsc8iIONf_pad-10" x="917.51" y="588.97"/><use xlink:href="#QUJCmdYcjcGYsc8iIONf_pad-10" x="917.51" y="588.47"/><use xlink:href="#QUJCmdYcjcGYsc8iIONf_pad-10" x="917.51" y="587.97"/><use xlink:href="#QUJCmdYcjcGYsc8iIONf_pad-10" x="917.51" y="587.47"/><use xlink:href="#QUJCmdYcjcGYsc8iIONf_pad-10" x="917.51" y="586.97"/><use xlink:href="#QUJCmdYcjcGYsc8iIONf_pad-10" x="917.51" y="586.47"/><use xlink:href="#QUJCmdYcjcGYsc8iIONf_pad-10" x="917.51" y="585.97"/><use xlink:href="#QUJCmdYcjcGYsc8iIONf_pad-10" x="917.51" y="585.47"/><use xlink:href="#QUJCmdYcjcGYsc8iIONf_pad-10" x="917.51" y="584.97"/><use xlink:href="#QUJCmdYcjcGYsc8iIONf_pad-10" x="917.51" y="584.47"/><use xlink:href="#QUJCmdYcjcGYsc8iIONf_pad-10" x="917.51" y="583.97"/><use xlink:href="#QUJCmdYcjcGYsc8iIONf_pad-10" x="917.51" y="583.47"/><use xlink:href="#QUJCmdYcjcGYsc8iIONf_pad-10" x="917.51" y="582.97"/><use xlink:href="#QUJCmdYcjcGYsc8iIONf_pad-10" x="917.51" y="582.47"/><use xlink:href="#QUJCmdYcjcGYsc8iIONf_pad-10" x="917.51" y="581.97"/><use xlink:href="#QUJCmdYcjcGYsc8iIONf_pad-10" x="917.51" y="581.47"/><use xlink:href="#QUJCmdYcjcGYsc8iIONf_pad-10" x="917.51" y="580.97"/><use xlink:href="#QUJCmdYcjcGYsc8iIONf_pad-10" x="917.51" y="580.47"/><use xlink:href="#QUJCmdYcjcGYsc8iIONf_pad-10" x="917.51" y="579.97"/><use xlink:href="#QUJCmdYcjcGYsc8iIONf_pad-10" x="917.51" y="579.47"/><use xlink:href="#QUJCmdYcjcGYsc8iIONf_pad-10" x="917.51" y="578.97"/><use xlink:href="#QUJCmdYcjcGYsc8iIONf_pad-10" x="917.51" y="578.47"/><use xlink:href="#QUJCmdYcjcGYsc8iIONf_pad-10" x="917.51" y="577.97"/><use xlink:href="#QUJCmdYcjcGYsc8iIONf_pad-10" x="917.51" y="577.47"/><use xlink:href="#QUJCmdYcjcGYsc8iIONf_pad-10" x="917.51" y="576.97"/><use xlink:href="#QUJCmdYcjcGYsc8iIONf_pad-10" x="917.51" y="576.47"/><use xlink:href="#QUJCmdYcjcGYsc8iIONf_pad-10" x="917.51" y="573.47"/><use xlink:href="#QUJCmdYcjcGYsc8iIONf_pad-10" x="917.51" y="572.97"/><use xlink:href="#QUJCmdYcjcGYsc8iIONf_pad-10" x="917.51" y="572.47"/><use xlink:href="#QUJCmdYcjcGYsc8iIONf_pad-10" x="917.51" y="571.97"/><use xlink:href="#QUJCmdYcjcGYsc8iIONf_pad-10" x="917.51" y="571.47"/><use xlink:href="#QUJCmdYcjcGYsc8iIONf_pad-10" x="917.51" y="570.97"/><use xlink:href="#QUJCmdYcjcGYsc8iIONf_pad-10" x="917.51" y="570.47"/><use xlink:href="#QUJCmdYcjcGYsc8iIONf_pad-10" x="917.51" y="569.97"/><use xlink:href="#QUJCmdYcjcGYsc8iIONf_pad-10" x="917.51" y="569.47"/><use xlink:href="#QUJCmdYcjcGYsc8iIONf_pad-10" x="917.51" y="568.97"/><use xlink:href="#QUJCmdYcjcGYsc8iIONf_pad-10" x="917.51" y="568.47"/><use xlink:href="#QUJCmdYcjcGYsc8iIONf_pad-10" x="917.51" y="567.97"/><use xlink:href="#QUJCmdYcjcGYsc8iIONf_pad-10" x="917.51" y="567.47"/><use xlink:href="#QUJCmdYcjcGYsc8iIONf_pad-10" x="917.51" y="566.97"/><use xlink:href="#QUJCmdYcjcGYsc8iIONf_pad-10" x="917.51" y="566.47"/><use xlink:href="#QUJCmdYcjcGYsc8iIONf_pad-10" x="917.51" y="565.97"/><use xlink:href="#QUJCmdYcjcGYsc8iIONf_pad-10" x="917.51" y="565.47"/><use xlink:href="#QUJCmdYcjcGYsc8iIONf_pad-10" x="917.51" y="564.97"/><use xlink:href="#QUJCmdYcjcGYsc8iIONf_pad-10" x="917.51" y="564.47"/><use xlink:href="#QUJCmdYcjcGYsc8iIONf_pad-10" x="917.51" y="563.97"/><use xlink:href="#QUJCmdYcjcGYsc8iIONf_pad-10" x="917.51" y="563.47"/><use xlink:href="#QUJCmdYcjcGYsc8iIONf_pad-10" x="917.51" y="562.97"/><use xlink:href="#QUJCmdYcjcGYsc8iIONf_pad-10" x="917.51" y="562.47"/><use xlink:href="#QUJCmdYcjcGYsc8iIONf_pad-10" x="917.51" y="561.97"/><use xlink:href="#QUJCmdYcjcGYsc8iIONf_pad-10" x="917.51" y="561.47"/><use xlink:href="#QUJCmdYcjcGYsc8iIONf_pad-10" x="917.51" y="560.97"/><use xlink:href="#QUJCmdYcjcGYsc8iIONf_pad-10" x="917.51" y="560.47"/><use xlink:href="#QUJCmdYcjcGYsc8iIONf_pad-10" x="917.51" y="559.97"/><use xlink:href="#QUJCmdYcjcGYsc8iIONf_pad-10" x="917.51" y="559.47"/><use xlink:href="#QUJCmdYcjcGYsc8iIONf_pad-10" x="917.51" y="558.97"/><use xlink:href="#QUJCmdYcjcGYsc8iIONf_pad-10" x="917.51" y="558.47"/><use xlink:href="#QUJCmdYcjcGYsc8iIONf_pad-10" x="917.51" y="557.97"/><use xlink:href="#QUJCmdYcjcGYsc8iIONf_pad-10" x="917.51" y="557.47"/><use xlink:href="#QUJCmdYcjcGYsc8iIONf_pad-10" x="917.51" y="556.97"/><use xlink:href="#QUJCmdYcjcGYsc8iIONf_pad-10" x="917.51" y="556.47"/><use xlink:href="#QUJCmdYcjcGYsc8iIONf_pad-10" x="917.51" y="555.97"/><use xlink:href="#QUJCmdYcjcGYsc8iIONf_pad-10" x="938.01" y="565.97"/><use xlink:href="#QUJCmdYcjcGYsc8iIONf_pad-10" x="937.51" y="566.97"/><use xlink:href="#QUJCmdYcjcGYsc8iIONf_pad-10" x="937.01" y="568.47"/><use xlink:href="#QUJCmdYcjcGYsc8iIONf_pad-10" x="936.51" y="569.97"/><use xlink:href="#QUJCmdYcjcGYsc8iIONf_pad-10" x="936.51" y="570.47"/><use xlink:href="#QUJCmdYcjcGYsc8iIONf_pad-10" x="936.01" y="571.97"/><use xlink:href="#QUJCmdYcjcGYsc8iIONf_pad-10" x="936.01" y="572.47"/><use xlink:href="#QUJCmdYcjcGYsc8iIONf_pad-10" x="936.01" y="572.97"/><use xlink:href="#QUJCmdYcjcGYsc8iIONf_pad-10" x="936.01" y="573.47"/><use xlink:href="#QUJCmdYcjcGYsc8iIONf_pad-10" x="936.01" y="573.97"/><use xlink:href="#QUJCmdYcjcGYsc8iIONf_pad-10" x="936.01" y="579.97"/><use xlink:href="#QUJCmdYcjcGYsc8iIONf_pad-10" x="936.01" y="580.47"/><use xlink:href="#QUJCmdYcjcGYsc8iIONf_pad-10" x="936.01" y="580.97"/><use xlink:href="#QUJCmdYcjcGYsc8iIONf_pad-10" x="936.01" y="581.47"/><use xlink:href="#QUJCmdYcjcGYsc8iIONf_pad-10" x="936.01" y="581.97"/><use xlink:href="#QUJCmdYcjcGYsc8iIONf_pad-10" x="936.51" y="583.47"/><use xlink:href="#QUJCmdYcjcGYsc8iIONf_pad-10" x="936.51" y="583.97"/><use xlink:href="#QUJCmdYcjcGYsc8iIONf_pad-10" x="937.01" y="585.47"/><use xlink:href="#QUJCmdYcjcGYsc8iIONf_pad-10" x="964.51" y="585.47"/><use xlink:href="#QUJCmdYcjcGYsc8iIONf_pad-10" x="964.51" y="585.97"/><use xlink:href="#QUJCmdYcjcGYsc8iIONf_pad-10" x="964.51" y="586.47"/><use xlink:href="#QUJCmdYcjcGYsc8iIONf_pad-10" x="964.51" y="586.97"/><use xlink:href="#QUJCmdYcjcGYsc8iIONf_pad-10" x="964.51" y="587.47"/><use xlink:href="#QUJCmdYcjcGYsc8iIONf_pad-10" x="964.51" y="587.97"/><use xlink:href="#QUJCmdYcjcGYsc8iIONf_pad-10" x="964.51" y="588.47"/><use xlink:href="#QUJCmdYcjcGYsc8iIONf_pad-10" x="964.51" y="588.97"/><use xlink:href="#QUJCmdYcjcGYsc8iIONf_pad-10" x="964.51" y="589.47"/><use xlink:href="#QUJCmdYcjcGYsc8iIONf_pad-10" x="964.51" y="589.97"/><use xlink:href="#QUJCmdYcjcGYsc8iIONf_pad-10" x="964.51" y="590.47"/><use xlink:href="#QUJCmdYcjcGYsc8iIONf_pad-10" x="964.51" y="590.97"/><use xlink:href="#QUJCmdYcjcGYsc8iIONf_pad-10" x="964.51" y="591.47"/><use xlink:href="#QUJCmdYcjcGYsc8iIONf_pad-10" x="964.51" y="591.97"/><use xlink:href="#QUJCmdYcjcGYsc8iIONf_pad-10" x="964.51" y="592.47"/><use xlink:href="#QUJCmdYcjcGYsc8iIONf_pad-10" x="964.51" y="592.97"/><use xlink:href="#QUJCmdYcjcGYsc8iIONf_pad-10" x="964.51" y="593.47"/><use xlink:href="#QUJCmdYcjcGYsc8iIONf_pad-10" x="964.51" y="593.97"/><use xlink:href="#QUJCmdYcjcGYsc8iIONf_pad-10" x="964.51" y="594.47"/><use xlink:href="#QUJCmdYcjcGYsc8iIONf_pad-10" x="964.51" y="584.97"/><use xlink:href="#QUJCmdYcjcGYsc8iIONf_pad-10" x="964.51" y="584.47"/><use xlink:href="#QUJCmdYcjcGYsc8iIONf_pad-10" x="964.51" y="583.97"/><use xlink:href="#QUJCmdYcjcGYsc8iIONf_pad-10" x="964.51" y="583.47"/><use xlink:href="#QUJCmdYcjcGYsc8iIONf_pad-10" x="964.51" y="582.97"/><use xlink:href="#QUJCmdYcjcGYsc8iIONf_pad-10" x="964.51" y="582.47"/><use xlink:href="#QUJCmdYcjcGYsc8iIONf_pad-10" x="964.51" y="581.97"/><use xlink:href="#QUJCmdYcjcGYsc8iIONf_pad-10" x="964.51" y="581.47"/><use xlink:href="#QUJCmdYcjcGYsc8iIONf_pad-10" x="964.51" y="580.97"/><use xlink:href="#QUJCmdYcjcGYsc8iIONf_pad-10" x="964.51" y="580.47"/><use xlink:href="#QUJCmdYcjcGYsc8iIONf_pad-10" x="964.51" y="579.97"/><use xlink:href="#QUJCmdYcjcGYsc8iIONf_pad-10" x="964.51" y="579.47"/><use xlink:href="#QUJCmdYcjcGYsc8iIONf_pad-10" x="964.51" y="578.97"/><use xlink:href="#QUJCmdYcjcGYsc8iIONf_pad-10" x="964.51" y="578.47"/><use xlink:href="#QUJCmdYcjcGYsc8iIONf_pad-10" x="964.51" y="577.97"/><use xlink:href="#QUJCmdYcjcGYsc8iIONf_pad-10" x="964.51" y="577.47"/><use xlink:href="#QUJCmdYcjcGYsc8iIONf_pad-10" x="964.51" y="576.97"/><use xlink:href="#QUJCmdYcjcGYsc8iIONf_pad-10" x="964.51" y="576.47"/><use xlink:href="#QUJCmdYcjcGYsc8iIONf_pad-10" x="964.51" y="575.97"/><use xlink:href="#QUJCmdYcjcGYsc8iIONf_pad-10" x="964.51" y="575.47"/><use xlink:href="#QUJCmdYcjcGYsc8iIONf_pad-10" x="964.51" y="574.97"/><use xlink:href="#QUJCmdYcjcGYsc8iIONf_pad-10" x="964.51" y="574.47"/><use xlink:href="#QUJCmdYcjcGYsc8iIONf_pad-10" x="964.51" y="573.97"/><use xlink:href="#QUJCmdYcjcGYsc8iIONf_pad-10" x="964.51" y="573.47"/><use xlink:href="#QUJCmdYcjcGYsc8iIONf_pad-10" x="964.51" y="572.97"/><use xlink:href="#QUJCmdYcjcGYsc8iIONf_pad-10" x="964.51" y="572.47"/><use xlink:href="#QUJCmdYcjcGYsc8iIONf_pad-10" x="964.51" y="571.97"/><use xlink:href="#QUJCmdYcjcGYsc8iIONf_pad-10" x="964.51" y="571.47"/><use xlink:href="#QUJCmdYcjcGYsc8iIONf_pad-10" x="964.51" y="570.97"/><use xlink:href="#QUJCmdYcjcGYsc8iIONf_pad-10" x="964.51" y="570.47"/><use xlink:href="#QUJCmdYcjcGYsc8iIONf_pad-10" x="964.51" y="569.97"/><use xlink:href="#QUJCmdYcjcGYsc8iIONf_pad-10" x="964.51" y="569.47"/><use xlink:href="#QUJCmdYcjcGYsc8iIONf_pad-10" x="964.51" y="568.97"/><use xlink:href="#QUJCmdYcjcGYsc8iIONf_pad-10" x="964.51" y="568.47"/><use xlink:href="#QUJCmdYcjcGYsc8iIONf_pad-10" x="964.51" y="567.97"/><use xlink:href="#QUJCmdYcjcGYsc8iIONf_pad-10" x="964.51" y="567.47"/><use xlink:href="#QUJCmdYcjcGYsc8iIONf_pad-10" x="964.51" y="566.97"/><use xlink:href="#QUJCmdYcjcGYsc8iIONf_pad-10" x="964.51" y="566.47"/><use xlink:href="#QUJCmdYcjcGYsc8iIONf_pad-10" x="964.51" y="565.97"/><use xlink:href="#QUJCmdYcjcGYsc8iIONf_pad-10" x="964.51" y="565.47"/><use xlink:href="#QUJCmdYcjcGYsc8iIONf_pad-10" x="964.51" y="564.97"/><use xlink:href="#QUJCmdYcjcGYsc8iIONf_pad-10" x="964.51" y="564.47"/><use xlink:href="#QUJCmdYcjcGYsc8iIONf_pad-10" x="964.51" y="563.97"/><use xlink:href="#QUJCmdYcjcGYsc8iIONf_pad-10" x="964.51" y="563.47"/><use xlink:href="#QUJCmdYcjcGYsc8iIONf_pad-10" x="964.51" y="562.97"/><use xlink:href="#QUJCmdYcjcGYsc8iIONf_pad-10" x="964.51" y="562.47"/><use xlink:href="#QUJCmdYcjcGYsc8iIONf_pad-10" x="964.51" y="561.97"/><use xlink:href="#QUJCmdYcjcGYsc8iIONf_pad-10" x="964.51" y="561.47"/><use xlink:href="#QUJCmdYcjcGYsc8iIONf_pad-10" x="964.51" y="560.97"/><use xlink:href="#QUJCmdYcjcGYsc8iIONf_pad-10" x="964.51" y="560.47"/><use xlink:href="#QUJCmdYcjcGYsc8iIONf_pad-10" x="964.51" y="559.97"/><use xlink:href="#QUJCmdYcjcGYsc8iIONf_pad-10" x="964.51" y="559.47"/><use xlink:href="#QUJCmdYcjcGYsc8iIONf_pad-10" x="964.51" y="558.97"/><use xlink:href="#QUJCmdYcjcGYsc8iIONf_pad-10" x="964.51" y="558.47"/><use xlink:href="#QUJCmdYcjcGYsc8iIONf_pad-10" x="876.01" y="573.47"/><use xlink:href="#QUJCmdYcjcGYsc8iIONf_pad-10" x="876.01" y="573.97"/><use xlink:href="#QUJCmdYcjcGYsc8iIONf_pad-10" x="875.51" y="574.47"/><use xlink:href="#QUJCmdYcjcGYsc8iIONf_pad-10" x="875.51" y="574.97"/><use xlink:href="#QUJCmdYcjcGYsc8iIONf_pad-10" x="875.01" y="575.97"/><use xlink:href="#QUJCmdYcjcGYsc8iIONf_pad-10" x="875.01" y="576.47"/><use xlink:href="#QUJCmdYcjcGYsc8iIONf_pad-10" x="874.51" y="576.97"/><use xlink:href="#QUJCmdYcjcGYsc8iIONf_pad-10" x="874.51" y="577.47"/><use xlink:href="#QUJCmdYcjcGYsc8iIONf_pad-10" x="874.01" y="578.47"/><use xlink:href="#QUJCmdYcjcGYsc8iIONf_pad-10" x="874.01" y="578.97"/><use xlink:href="#QUJCmdYcjcGYsc8iIONf_pad-10" x="873.51" y="579.47"/><use xlink:href="#QUJCmdYcjcGYsc8iIONf_pad-10" x="873.51" y="579.97"/><use xlink:href="#QUJCmdYcjcGYsc8iIONf_pad-10" x="873.51" y="580.47"/><use xlink:href="#QUJCmdYcjcGYsc8iIONf_pad-10" x="873.01" y="580.97"/><use xlink:href="#QUJCmdYcjcGYsc8iIONf_pad-10" x="873.01" y="581.47"/><use xlink:href="#QUJCmdYcjcGYsc8iIONf_pad-10" x="872.51" y="581.97"/><use xlink:href="#QUJCmdYcjcGYsc8iIONf_pad-10" x="872.51" y="582.47"/><use xlink:href="#QUJCmdYcjcGYsc8iIONf_pad-10" x="872.51" y="582.97"/><use xlink:href="#QUJCmdYcjcGYsc8iIONf_pad-10" x="872.01" y="583.47"/><use xlink:href="#QUJCmdYcjcGYsc8iIONf_pad-10" x="872.01" y="583.97"/><use xlink:href="#QUJCmdYcjcGYsc8iIONf_pad-10" x="871.51" y="584.47"/><use xlink:href="#QUJCmdYcjcGYsc8iIONf_pad-10" x="871.51" y="584.97"/><use xlink:href="#QUJCmdYcjcGYsc8iIONf_pad-10" x="871.51" y="585.47"/><use xlink:href="#QUJCmdYcjcGYsc8iIONf_pad-10" x="871.01" y="585.97"/><use xlink:href="#QUJCmdYcjcGYsc8iIONf_pad-10" x="871.01" y="586.47"/><use xlink:href="#QUJCmdYcjcGYsc8iIONf_pad-10" x="870.51" y="586.97"/><use xlink:href="#QUJCmdYcjcGYsc8iIONf_pad-10" x="870.51" y="587.47"/><use xlink:href="#QUJCmdYcjcGYsc8iIONf_pad-10" x="870.51" y="587.97"/><use xlink:href="#QUJCmdYcjcGYsc8iIONf_pad-10" x="870.01" y="588.47"/><use xlink:href="#QUJCmdYcjcGYsc8iIONf_pad-10" x="870.01" y="588.97"/><use xlink:href="#QUJCmdYcjcGYsc8iIONf_pad-10" x="869.51" y="589.97"/><use xlink:href="#QUJCmdYcjcGYsc8iIONf_pad-10" x="869.51" y="590.47"/><use xlink:href="#QUJCmdYcjcGYsc8iIONf_pad-10" x="869.01" y="591.47"/><use xlink:href="#QUJCmdYcjcGYsc8iIONf_pad-10" x="865.51" y="591.97"/><use xlink:href="#QUJCmdYcjcGYsc8iIONf_pad-10" x="865.51" y="592.47"/><use xlink:href="#QUJCmdYcjcGYsc8iIONf_pad-10" x="865.01" y="591.47"/><use xlink:href="#QUJCmdYcjcGYsc8iIONf_pad-10" x="865.01" y="590.97"/><use xlink:href="#QUJCmdYcjcGYsc8iIONf_pad-10" x="864.51" y="589.97"/><use xlink:href="#QUJCmdYcjcGYsc8iIONf_pad-10" x="864.51" y="589.47"/><use xlink:href="#QUJCmdYcjcGYsc8iIONf_pad-10" x="864.01" y="588.97"/><use xlink:href="#QUJCmdYcjcGYsc8iIONf_pad-10" x="864.01" y="588.47"/><use xlink:href="#QUJCmdYcjcGYsc8iIONf_pad-10" x="864.01" y="587.97"/><use xlink:href="#QUJCmdYcjcGYsc8iIONf_pad-10" x="863.51" y="587.47"/><use xlink:href="#QUJCmdYcjcGYsc8iIONf_pad-10" x="863.51" y="586.97"/><use xlink:href="#QUJCmdYcjcGYsc8iIONf_pad-10" x="863.01" y="586.47"/><use xlink:href="#QUJCmdYcjcGYsc8iIONf_pad-10" x="863.01" y="585.97"/><use xlink:href="#QUJCmdYcjcGYsc8iIONf_pad-10" x="863.01" y="585.47"/><use xlink:href="#QUJCmdYcjcGYsc8iIONf_pad-10" x="862.51" y="584.97"/><use xlink:href="#QUJCmdYcjcGYsc8iIONf_pad-10" x="862.51" y="584.47"/><use xlink:href="#QUJCmdYcjcGYsc8iIONf_pad-10" x="862.01" y="583.47"/><use xlink:href="#QUJCmdYcjcGYsc8iIONf_pad-10" x="862.01" y="582.97"/><use xlink:href="#QUJCmdYcjcGYsc8iIONf_pad-10" x="867.01" y="595.97"/><use xlink:href="#QUJCmdYcjcGYsc8iIONf_pad-10" x="867.01" y="596.47"/><use xlink:href="#QUJCmdYcjcGYsc8iIONf_pad-10" x="819.01" y="557.47"/><use xlink:href="#QUJCmdYcjcGYsc8iIONf_pad-10" x="819.01" y="556.97"/><use xlink:href="#QUJCmdYcjcGYsc8iIONf_pad-11" x="819.01" y="555.97"/><use xlink:href="#QUJCmdYcjcGYsc8iIONf_pad-11" x="867.01" y="596.97"/><use xlink:href="#QUJCmdYcjcGYsc8iIONf_pad-11" x="867.01" y="597.47"/><use xlink:href="#QUJCmdYcjcGYsc8iIONf_pad-12" x="868.76" y="592.47"/><use xlink:href="#QUJCmdYcjcGYsc8iIONf_pad-12" x="868.76" y="591.97"/><use xlink:href="#QUJCmdYcjcGYsc8iIONf_pad-12" x="869.26" y="590.97"/><use xlink:href="#QUJCmdYcjcGYsc8iIONf_pad-12" x="869.76" y="589.47"/><use xlink:href="#QUJCmdYcjcGYsc8iIONf_pad-12" x="864.76" y="590.47"/><use xlink:href="#QUJCmdYcjcGYsc8iIONf_pad-12" x="836.76" y="590.47"/><use xlink:href="#QUJCmdYcjcGYsc8iIONf_pad-12" x="836.76" y="590.97"/><use xlink:href="#QUJCmdYcjcGYsc8iIONf_pad-12" x="836.76" y="591.47"/><use xlink:href="#QUJCmdYcjcGYsc8iIONf_pad-12" x="836.76" y="591.97"/><use xlink:href="#QUJCmdYcjcGYsc8iIONf_pad-12" x="836.76" y="592.47"/><use xlink:href="#QUJCmdYcjcGYsc8iIONf_pad-12" x="836.76" y="592.97"/><use xlink:href="#QUJCmdYcjcGYsc8iIONf_pad-12" x="836.76" y="593.47"/><use xlink:href="#QUJCmdYcjcGYsc8iIONf_pad-12" x="836.76" y="589.97"/><use xlink:href="#QUJCmdYcjcGYsc8iIONf_pad-12" x="836.76" y="589.47"/><use xlink:href="#QUJCmdYcjcGYsc8iIONf_pad-12" x="836.76" y="588.97"/><use xlink:href="#QUJCmdYcjcGYsc8iIONf_pad-12" x="836.76" y="588.47"/><use xlink:href="#QUJCmdYcjcGYsc8iIONf_pad-12" x="836.76" y="587.97"/><use xlink:href="#QUJCmdYcjcGYsc8iIONf_pad-12" x="836.76" y="587.47"/><use xlink:href="#QUJCmdYcjcGYsc8iIONf_pad-12" x="836.76" y="586.97"/><use xlink:href="#QUJCmdYcjcGYsc8iIONf_pad-12" x="836.76" y="586.47"/><use xlink:href="#QUJCmdYcjcGYsc8iIONf_pad-12" x="836.76" y="585.97"/><use xlink:href="#QUJCmdYcjcGYsc8iIONf_pad-12" x="836.76" y="585.47"/><use xlink:href="#QUJCmdYcjcGYsc8iIONf_pad-12" x="836.76" y="584.97"/><use xlink:href="#QUJCmdYcjcGYsc8iIONf_pad-12" x="836.76" y="584.47"/><use xlink:href="#QUJCmdYcjcGYsc8iIONf_pad-12" x="836.76" y="583.97"/><use xlink:href="#QUJCmdYcjcGYsc8iIONf_pad-12" x="836.76" y="583.47"/><use xlink:href="#QUJCmdYcjcGYsc8iIONf_pad-12" x="836.76" y="582.97"/><use xlink:href="#QUJCmdYcjcGYsc8iIONf_pad-12" x="836.76" y="582.47"/><use xlink:href="#QUJCmdYcjcGYsc8iIONf_pad-12" x="836.76" y="581.97"/><use xlink:href="#QUJCmdYcjcGYsc8iIONf_pad-12" x="836.76" y="581.47"/><use xlink:href="#QUJCmdYcjcGYsc8iIONf_pad-12" x="836.76" y="580.97"/><use xlink:href="#QUJCmdYcjcGYsc8iIONf_pad-12" x="836.76" y="580.47"/><use xlink:href="#QUJCmdYcjcGYsc8iIONf_pad-12" x="836.76" y="579.97"/><use xlink:href="#QUJCmdYcjcGYsc8iIONf_pad-12" x="836.76" y="579.47"/><use xlink:href="#QUJCmdYcjcGYsc8iIONf_pad-12" x="836.76" y="578.97"/><use xlink:href="#QUJCmdYcjcGYsc8iIONf_pad-12" x="836.76" y="578.47"/><use xlink:href="#QUJCmdYcjcGYsc8iIONf_pad-12" x="836.76" y="577.97"/><use xlink:href="#QUJCmdYcjcGYsc8iIONf_pad-12" x="836.76" y="577.47"/><use xlink:href="#QUJCmdYcjcGYsc8iIONf_pad-12" x="836.76" y="576.97"/><use xlink:href="#QUJCmdYcjcGYsc8iIONf_pad-12" x="836.76" y="576.47"/><use xlink:href="#QUJCmdYcjcGYsc8iIONf_pad-12" x="836.76" y="575.97"/><use xlink:href="#QUJCmdYcjcGYsc8iIONf_pad-12" x="836.76" y="575.47"/><use xlink:href="#QUJCmdYcjcGYsc8iIONf_pad-12" x="836.76" y="574.97"/><use xlink:href="#QUJCmdYcjcGYsc8iIONf_pad-12" x="836.76" y="574.47"/><use xlink:href="#QUJCmdYcjcGYsc8iIONf_pad-12" x="836.76" y="573.97"/><use xlink:href="#QUJCmdYcjcGYsc8iIONf_pad-12" x="836.76" y="573.47"/><use xlink:href="#QUJCmdYcjcGYsc8iIONf_pad-12" x="836.76" y="572.97"/><use xlink:href="#QUJCmdYcjcGYsc8iIONf_pad-12" x="836.76" y="572.47"/><use xlink:href="#QUJCmdYcjcGYsc8iIONf_pad-12" x="836.76" y="571.97"/><use xlink:href="#QUJCmdYcjcGYsc8iIONf_pad-12" x="836.76" y="571.47"/><use xlink:href="#QUJCmdYcjcGYsc8iIONf_pad-12" x="836.76" y="570.97"/><use xlink:href="#QUJCmdYcjcGYsc8iIONf_pad-12" x="836.76" y="570.47"/><use xlink:href="#QUJCmdYcjcGYsc8iIONf_pad-12" x="836.76" y="569.97"/><use xlink:href="#QUJCmdYcjcGYsc8iIONf_pad-12" x="836.76" y="569.47"/><use xlink:href="#QUJCmdYcjcGYsc8iIONf_pad-12" x="836.76" y="568.97"/><use xlink:href="#QUJCmdYcjcGYsc8iIONf_pad-12" x="836.76" y="568.47"/><use xlink:href="#QUJCmdYcjcGYsc8iIONf_pad-12" x="836.76" y="567.97"/><use xlink:href="#QUJCmdYcjcGYsc8iIONf_pad-12" x="836.76" y="567.47"/><use xlink:href="#QUJCmdYcjcGYsc8iIONf_pad-12" x="836.76" y="566.97"/><use xlink:href="#QUJCmdYcjcGYsc8iIONf_pad-12" x="836.76" y="566.47"/><use xlink:href="#QUJCmdYcjcGYsc8iIONf_pad-12" x="836.76" y="565.97"/><use xlink:href="#QUJCmdYcjcGYsc8iIONf_pad-12" x="836.76" y="565.47"/><use xlink:href="#QUJCmdYcjcGYsc8iIONf_pad-12" x="836.76" y="564.97"/><use xlink:href="#QUJCmdYcjcGYsc8iIONf_pad-12" x="836.76" y="564.47"/><use xlink:href="#QUJCmdYcjcGYsc8iIONf_pad-12" x="836.76" y="563.97"/><use xlink:href="#QUJCmdYcjcGYsc8iIONf_pad-12" x="836.76" y="563.47"/><use xlink:href="#QUJCmdYcjcGYsc8iIONf_pad-12" x="836.76" y="562.97"/><use xlink:href="#QUJCmdYcjcGYsc8iIONf_pad-12" x="836.76" y="562.47"/><use xlink:href="#QUJCmdYcjcGYsc8iIONf_pad-12" x="836.76" y="561.97"/><use xlink:href="#QUJCmdYcjcGYsc8iIONf_pad-12" x="836.76" y="561.47"/><use xlink:href="#QUJCmdYcjcGYsc8iIONf_pad-12" x="836.76" y="560.97"/><use xlink:href="#QUJCmdYcjcGYsc8iIONf_pad-12" x="836.76" y="560.47"/><use xlink:href="#QUJCmdYcjcGYsc8iIONf_pad-12" x="836.76" y="559.97"/><use xlink:href="#QUJCmdYcjcGYsc8iIONf_pad-12" x="836.76" y="559.47"/><use xlink:href="#QUJCmdYcjcGYsc8iIONf_pad-12" x="836.76" y="558.97"/><use xlink:href="#QUJCmdYcjcGYsc8iIONf_pad-12" x="836.76" y="558.47"/><use xlink:href="#QUJCmdYcjcGYsc8iIONf_pad-12" x="836.76" y="557.97"/><use xlink:href="#QUJCmdYcjcGYsc8iIONf_pad-12" x="836.76" y="557.47"/><use xlink:href="#QUJCmdYcjcGYsc8iIONf_pad-12" x="836.76" y="556.97"/><use xlink:href="#QUJCmdYcjcGYsc8iIONf_pad-12" x="836.76" y="556.47"/><use xlink:href="#QUJCmdYcjcGYsc8iIONf_pad-12" x="836.76" y="555.97"/><use xlink:href="#QUJCmdYcjcGYsc8iIONf_pad-12" x="821.26" y="562.97"/><use xlink:href="#QUJCmdYcjcGYsc8iIONf_pad-12" x="817.26" y="560.97"/><use xlink:href="#QUJCmdYcjcGYsc8iIONf_pad-12" x="816.76" y="561.97"/><use xlink:href="#QUJCmdYcjcGYsc8iIONf_pad-12" x="816.76" y="562.47"/><use xlink:href="#QUJCmdYcjcGYsc8iIONf_pad-12" x="816.26" y="563.47"/><use xlink:href="#QUJCmdYcjcGYsc8iIONf_pad-12" x="815.76" y="564.47"/><use xlink:href="#QUJCmdYcjcGYsc8iIONf_pad-12" x="815.26" y="565.97"/><use xlink:href="#QUJCmdYcjcGYsc8iIONf_pad-12" x="814.76" y="566.97"/><use xlink:href="#QUJCmdYcjcGYsc8iIONf_pad-12" x="814.26" y="568.47"/><use xlink:href="#QUJCmdYcjcGYsc8iIONf_pad-12" x="813.76" y="569.47"/><use xlink:href="#QUJCmdYcjcGYsc8iIONf_pad-12" x="813.26" y="570.97"/><use xlink:href="#QUJCmdYcjcGYsc8iIONf_pad-12" x="812.76" y="571.97"/><use xlink:href="#QUJCmdYcjcGYsc8iIONf_pad-12" x="812.26" y="573.47"/><use xlink:href="#QUJCmdYcjcGYsc8iIONf_pad-12" x="811.76" y="574.47"/><use xlink:href="#QUJCmdYcjcGYsc8iIONf_pad-12" x="811.26" y="575.97"/><use xlink:href="#QUJCmdYcjcGYsc8iIONf_pad-12" x="810.76" y="576.97"/><use xlink:href="#QUJCmdYcjcGYsc8iIONf_pad-12" x="810.26" y="578.47"/><use xlink:href="#QUJCmdYcjcGYsc8iIONf_pad-12" x="809.76" y="579.47"/><use xlink:href="#QUJCmdYcjcGYsc8iIONf_pad-12" x="809.26" y="580.97"/><use xlink:href="#QUJCmdYcjcGYsc8iIONf_pad-12" x="808.76" y="581.97"/><use xlink:href="#QUJCmdYcjcGYsc8iIONf_pad-12" x="808.26" y="582.97"/><use xlink:href="#QUJCmdYcjcGYsc8iIONf_pad-12" x="807.76" y="584.47"/><use xlink:href="#QUJCmdYcjcGYsc8iIONf_pad-12" x="807.26" y="585.47"/><use xlink:href="#QUJCmdYcjcGYsc8iIONf_pad-12" x="806.76" y="586.97"/><use xlink:href="#QUJCmdYcjcGYsc8iIONf_pad-12" x="806.26" y="587.97"/><use xlink:href="#QUJCmdYcjcGYsc8iIONf_pad-12" x="805.76" y="589.47"/><use xlink:href="#QUJCmdYcjcGYsc8iIONf_pad-12" x="805.26" y="590.47"/><use xlink:href="#QUJCmdYcjcGYsc8iIONf_pad-12" x="804.76" y="591.97"/><use xlink:href="#QUJCmdYcjcGYsc8iIONf_pad-12" x="804.26" y="592.97"/><use xlink:href="#QUJCmdYcjcGYsc8iIONf_pad-12" x="800.76" y="592.97"/><use xlink:href="#QUJCmdYcjcGYsc8iIONf_pad-12" x="800.76" y="593.47"/><use xlink:href="#QUJCmdYcjcGYsc8iIONf_pad-12" x="800.76" y="593.97"/><use xlink:href="#QUJCmdYcjcGYsc8iIONf_pad-12" x="800.76" y="592.47"/><use xlink:href="#QUJCmdYcjcGYsc8iIONf_pad-12" x="828.76" y="581.47"/><use xlink:href="#QUJCmdYcjcGYsc8iIONf_pad-12" x="827.76" y="578.97"/><use xlink:href="#QUJCmdYcjcGYsc8iIONf_pad-12" x="829.76" y="583.97"/><use xlink:href="#QUJCmdYcjcGYsc8iIONf_pad-12" x="818.76" y="556.47"/><use xlink:href="#QUJCmdYcjcGYsc8iIONf_pad-13" x="818.76" y="557.97"/><use xlink:href="#QUJCmdYcjcGYsc8iIONf_pad-13" x="851.26" y="555.97"/><use xlink:href="#QUJCmdYcjcGYsc8iIONf_pad-13" x="851.76" y="556.97"/><use xlink:href="#QUJCmdYcjcGYsc8iIONf_pad-13" x="852.26" y="557.97"/><use xlink:href="#QUJCmdYcjcGYsc8iIONf_pad-13" x="852.26" y="558.47"/><use xlink:href="#QUJCmdYcjcGYsc8iIONf_pad-13" x="852.76" y="559.47"/><use xlink:href="#QUJCmdYcjcGYsc8iIONf_pad-13" x="853.26" y="560.47"/><use xlink:href="#QUJCmdYcjcGYsc8iIONf_pad-13" x="853.26" y="560.97"/><use xlink:href="#QUJCmdYcjcGYsc8iIONf_pad-13" x="853.76" y="561.97"/><use xlink:href="#QUJCmdYcjcGYsc8iIONf_pad-13" x="854.26" y="562.97"/><use xlink:href="#QUJCmdYcjcGYsc8iIONf_pad-13" x="854.26" y="563.47"/><use xlink:href="#QUJCmdYcjcGYsc8iIONf_pad-13" x="854.76" y="564.47"/><use xlink:href="#QUJCmdYcjcGYsc8iIONf_pad-13" x="855.26" y="565.97"/><use xlink:href="#QUJCmdYcjcGYsc8iIONf_pad-13" x="855.76" y="566.97"/><use xlink:href="#QUJCmdYcjcGYsc8iIONf_pad-13" x="855.76" y="567.47"/><use xlink:href="#QUJCmdYcjcGYsc8iIONf_pad-13" x="856.26" y="568.47"/><use xlink:href="#QUJCmdYcjcGYsc8iIONf_pad-13" x="856.76" y="569.47"/><use xlink:href="#QUJCmdYcjcGYsc8iIONf_pad-13" x="856.76" y="569.97"/><use xlink:href="#QUJCmdYcjcGYsc8iIONf_pad-13" x="858.26" y="573.47"/><use xlink:href="#QUJCmdYcjcGYsc8iIONf_pad-13" x="858.76" y="574.97"/><use xlink:href="#QUJCmdYcjcGYsc8iIONf_pad-13" x="859.26" y="575.97"/><use xlink:href="#QUJCmdYcjcGYsc8iIONf_pad-13" x="859.76" y="577.47"/><use xlink:href="#QUJCmdYcjcGYsc8iIONf_pad-13" x="860.76" y="579.97"/><use xlink:href="#QUJCmdYcjcGYsc8iIONf_pad-13" x="861.26" y="581.47"/><use xlink:href="#QUJCmdYcjcGYsc8iIONf_pad-13" x="862.26" y="583.97"/><use xlink:href="#QUJCmdYcjcGYsc8iIONf_pad-13" x="874.26" y="577.97"/><use xlink:href="#QUJCmdYcjcGYsc8iIONf_pad-13" x="875.26" y="575.47"/><use xlink:href="#QUJCmdYcjcGYsc8iIONf_pad-13" x="878.26" y="567.97"/><use xlink:href="#QUJCmdYcjcGYsc8iIONf_pad-13" x="878.76" y="566.97"/><use xlink:href="#QUJCmdYcjcGYsc8iIONf_pad-13" x="879.26" y="565.47"/><use xlink:href="#QUJCmdYcjcGYsc8iIONf_pad-13" x="879.76" y="564.47"/><use xlink:href="#QUJCmdYcjcGYsc8iIONf_pad-13" x="880.26" y="562.97"/><use xlink:href="#QUJCmdYcjcGYsc8iIONf_pad-13" x="880.76" y="561.97"/><use xlink:href="#QUJCmdYcjcGYsc8iIONf_pad-13" x="881.26" y="560.47"/><use xlink:href="#QUJCmdYcjcGYsc8iIONf_pad-13" x="881.76" y="559.47"/><use xlink:href="#QUJCmdYcjcGYsc8iIONf_pad-13" x="882.26" y="557.97"/><use xlink:href="#QUJCmdYcjcGYsc8iIONf_pad-13" x="882.76" y="556.97"/><use xlink:href="#QUJCmdYcjcGYsc8iIONf_pad-13" x="893.26" y="555.97"/><use xlink:href="#QUJCmdYcjcGYsc8iIONf_pad-13" x="893.76" y="556.47"/><use xlink:href="#QUJCmdYcjcGYsc8iIONf_pad-13" x="893.76" y="556.97"/><use xlink:href="#QUJCmdYcjcGYsc8iIONf_pad-13" x="894.26" y="557.47"/><use xlink:href="#QUJCmdYcjcGYsc8iIONf_pad-13" x="894.76" y="557.97"/><use xlink:href="#QUJCmdYcjcGYsc8iIONf_pad-13" x="894.76" y="558.47"/><use xlink:href="#QUJCmdYcjcGYsc8iIONf_pad-13" x="895.26" y="558.97"/><use xlink:href="#QUJCmdYcjcGYsc8iIONf_pad-13" x="895.26" y="559.47"/><use xlink:href="#QUJCmdYcjcGYsc8iIONf_pad-13" x="895.76" y="559.97"/><use xlink:href="#QUJCmdYcjcGYsc8iIONf_pad-13" x="896.26" y="560.47"/><use xlink:href="#QUJCmdYcjcGYsc8iIONf_pad-13" x="896.26" y="560.97"/><use xlink:href="#QUJCmdYcjcGYsc8iIONf_pad-13" x="896.76" y="561.47"/><use xlink:href="#QUJCmdYcjcGYsc8iIONf_pad-13" x="896.76" y="561.97"/><use xlink:href="#QUJCmdYcjcGYsc8iIONf_pad-13" x="897.26" y="562.47"/><use xlink:href="#QUJCmdYcjcGYsc8iIONf_pad-13" x="897.76" y="562.97"/><use xlink:href="#QUJCmdYcjcGYsc8iIONf_pad-13" x="897.76" y="563.47"/><use xlink:href="#QUJCmdYcjcGYsc8iIONf_pad-13" x="898.26" y="563.97"/><use xlink:href="#QUJCmdYcjcGYsc8iIONf_pad-13" x="898.26" y="564.47"/><use xlink:href="#QUJCmdYcjcGYsc8iIONf_pad-13" x="898.76" y="564.97"/><use xlink:href="#QUJCmdYcjcGYsc8iIONf_pad-13" x="899.26" y="565.97"/><use xlink:href="#QUJCmdYcjcGYsc8iIONf_pad-13" x="899.76" y="566.47"/><use xlink:href="#QUJCmdYcjcGYsc8iIONf_pad-13" x="899.76" y="566.97"/><use xlink:href="#QUJCmdYcjcGYsc8iIONf_pad-13" x="900.26" y="567.47"/><use xlink:href="#QUJCmdYcjcGYsc8iIONf_pad-13" x="900.76" y="568.47"/><use xlink:href="#QUJCmdYcjcGYsc8iIONf_pad-13" x="901.26" y="568.97"/><use xlink:href="#QUJCmdYcjcGYsc8iIONf_pad-13" x="901.26" y="569.47"/><use xlink:href="#QUJCmdYcjcGYsc8iIONf_pad-13" x="901.76" y="569.97"/><use xlink:href="#QUJCmdYcjcGYsc8iIONf_pad-13" x="902.26" y="570.97"/><use xlink:href="#QUJCmdYcjcGYsc8iIONf_pad-13" x="902.76" y="571.47"/><use xlink:href="#QUJCmdYcjcGYsc8iIONf_pad-13" x="902.76" y="571.97"/><use xlink:href="#QUJCmdYcjcGYsc8iIONf_pad-13" x="903.26" y="572.47"/><use xlink:href="#QUJCmdYcjcGYsc8iIONf_pad-13" x="903.76" y="573.47"/><use xlink:href="#QUJCmdYcjcGYsc8iIONf_pad-13" x="897.76" y="578.97"/><use xlink:href="#QUJCmdYcjcGYsc8iIONf_pad-13" x="896.76" y="580.47"/><use xlink:href="#QUJCmdYcjcGYsc8iIONf_pad-13" x="895.76" y="587.97"/><use xlink:href="#QUJCmdYcjcGYsc8iIONf_pad-13" x="895.76" y="588.47"/><use xlink:href="#QUJCmdYcjcGYsc8iIONf_pad-13" x="895.76" y="588.97"/><use xlink:href="#QUJCmdYcjcGYsc8iIONf_pad-13" x="896.26" y="590.47"/><use xlink:href="#QUJCmdYcjcGYsc8iIONf_pad-13" x="896.76" y="590.97"/><use xlink:href="#QUJCmdYcjcGYsc8iIONf_pad-13" x="896.76" y="591.47"/><use xlink:href="#QUJCmdYcjcGYsc8iIONf_pad-13" x="897.26" y="591.97"/><use xlink:href="#QUJCmdYcjcGYsc8iIONf_pad-13" x="936.26" y="582.97"/><use xlink:href="#QUJCmdYcjcGYsc8iIONf_pad-13" x="936.26" y="582.47"/><use xlink:href="#QUJCmdYcjcGYsc8iIONf_pad-13" x="936.76" y="584.47"/><use xlink:href="#QUJCmdYcjcGYsc8iIONf_pad-13" x="936.76" y="584.97"/><use xlink:href="#QUJCmdYcjcGYsc8iIONf_pad-13" x="937.26" y="585.97"/><use xlink:href="#QUJCmdYcjcGYsc8iIONf_pad-13" x="937.26" y="586.47"/><use xlink:href="#QUJCmdYcjcGYsc8iIONf_pad-13" x="937.76" y="586.97"/><use xlink:href="#QUJCmdYcjcGYsc8iIONf_pad-13" x="937.76" y="587.47"/><use xlink:href="#QUJCmdYcjcGYsc8iIONf_pad-13" x="938.26" y="587.97"/><use xlink:href="#QUJCmdYcjcGYsc8iIONf_pad-13" x="938.76" y="588.97"/><use xlink:href="#QUJCmdYcjcGYsc8iIONf_pad-13" x="935.76" y="579.47"/><use xlink:href="#QUJCmdYcjcGYsc8iIONf_pad-13" x="935.76" y="578.97"/><use xlink:href="#QUJCmdYcjcGYsc8iIONf_pad-13" x="935.76" y="578.47"/><use xlink:href="#QUJCmdYcjcGYsc8iIONf_pad-13" x="935.76" y="577.97"/><use xlink:href="#QUJCmdYcjcGYsc8iIONf_pad-13" x="935.76" y="577.47"/><use xlink:href="#QUJCmdYcjcGYsc8iIONf_pad-13" x="935.76" y="576.97"/><use xlink:href="#QUJCmdYcjcGYsc8iIONf_pad-13" x="935.76" y="576.47"/><use xlink:href="#QUJCmdYcjcGYsc8iIONf_pad-13" x="935.76" y="575.97"/><use xlink:href="#QUJCmdYcjcGYsc8iIONf_pad-13" x="935.76" y="575.47"/><use xlink:href="#QUJCmdYcjcGYsc8iIONf_pad-13" x="935.76" y="574.97"/><use xlink:href="#QUJCmdYcjcGYsc8iIONf_pad-13" x="935.76" y="574.47"/><use xlink:href="#QUJCmdYcjcGYsc8iIONf_pad-13" x="936.26" y="571.47"/><use xlink:href="#QUJCmdYcjcGYsc8iIONf_pad-13" x="936.26" y="570.97"/><use xlink:href="#QUJCmdYcjcGYsc8iIONf_pad-13" x="936.76" y="569.47"/><use xlink:href="#QUJCmdYcjcGYsc8iIONf_pad-13" x="936.76" y="568.97"/><use xlink:href="#QUJCmdYcjcGYsc8iIONf_pad-13" x="937.26" y="567.97"/><use xlink:href="#QUJCmdYcjcGYsc8iIONf_pad-13" x="937.26" y="567.47"/><use xlink:href="#QUJCmdYcjcGYsc8iIONf_pad-13" x="937.76" y="566.47"/><use xlink:href="#QUJCmdYcjcGYsc8iIONf_pad-13" x="938.26" y="565.47"/><use xlink:href="#QUJCmdYcjcGYsc8iIONf_pad-13" x="938.76" y="564.97"/><use xlink:href="#QUJCmdYcjcGYsc8iIONf_pad-13" x="938.76" y="564.47"/><use xlink:href="#QUJCmdYcjcGYsc8iIONf_pad-13" x="939.26" y="563.97"/><use xlink:href="#QUJCmdYcjcGYsc8iIONf_pad-13" x="801.26" y="597.47"/><use xlink:href="#QUJCmdYcjcGYsc8iIONf_pad-14" x="959.01" y="555.97"/><use xlink:href="#QUJCmdYcjcGYsc8iIONf_pad-15" x="957.51" y="556.47"/><use xlink:href="#QUJCmdYcjcGYsc8iIONf_pad-15" x="910.51" y="574.97"/><use xlink:href="#QUJCmdYcjcGYsc8iIONf_pad-15" x="957.51" y="596.97"/><use xlink:href="#QUJCmdYcjcGYsc8iIONf_pad-16" x="956.51" y="596.47"/><use xlink:href="#QUJCmdYcjcGYsc8iIONf_pad-16" x="909.51" y="595.97"/><use xlink:href="#QUJCmdYcjcGYsc8iIONf_pad-16" x="909.51" y="575.97"/><use xlink:href="#QUJCmdYcjcGYsc8iIONf_pad-16" x="956.51" y="556.97"/><use xlink:href="#QUJCmdYcjcGYsc8iIONf_pad-17" x="955.76" y="557.47"/><use xlink:href="#QUJCmdYcjcGYsc8iIONf_pad-17" x="955.76" y="595.97"/><use xlink:href="#QUJCmdYcjcGYsc8iIONf_pad-17" x="908.76" y="594.97"/><use xlink:href="#QUJCmdYcjcGYsc8iIONf_pad-18" x="867.26" y="572.97"/><use xlink:href="#QUJCmdYcjcGYsc8iIONf_pad-18" x="955.26" y="557.97"/><use xlink:href="#QUJCmdYcjcGYsc8iIONf_pad-19" x="941.01" y="561.97"/><use xlink:href="#QUJCmdYcjcGYsc8iIONf_pad-19" x="940.51" y="562.47"/><use xlink:href="#QUJCmdYcjcGYsc8iIONf_pad-19" x="940.01" y="562.97"/><use xlink:href="#QUJCmdYcjcGYsc8iIONf_pad-19" x="939.51" y="563.47"/><use xlink:href="#QUJCmdYcjcGYsc8iIONf_pad-19" x="899.01" y="577.97"/><use xlink:href="#QUJCmdYcjcGYsc8iIONf_pad-19" x="898.51" y="578.47"/><use xlink:href="#QUJCmdYcjcGYsc8iIONf_pad-19" x="897.51" y="592.47"/><use xlink:href="#QUJCmdYcjcGYsc8iIONf_pad-19" x="867.01" y="594.47"/><use xlink:href="#QUJCmdYcjcGYsc8iIONf_pad-19" x="867.01" y="594.97"/><use xlink:href="#QUJCmdYcjcGYsc8iIONf_pad-19" x="867.01" y="595.47"/><use xlink:href="#QUJCmdYcjcGYsc8iIONf_pad-19" x="819.01" y="558.47"/><use xlink:href="#QUJCmdYcjcGYsc8iIONf_pad-19" x="938.51" y="588.47"/><use xlink:href="#QUJCmdYcjcGYsc8iIONf_pad-19" x="939.01" y="589.47"/><use xlink:href="#QUJCmdYcjcGYsc8iIONf_pad-19" x="939.51" y="589.97"/><use xlink:href="#QUJCmdYcjcGYsc8iIONf_pad-19" x="940.01" y="590.47"/><use xlink:href="#QUJCmdYcjcGYsc8iIONf_pad-19" x="940.51" y="590.97"/><use xlink:href="#QUJCmdYcjcGYsc8iIONf_pad-20" x="948.01" y="558.47"/><use xlink:href="#QUJCmdYcjcGYsc8iIONf_pad-21" x="942.26" y="560.97"/><use xlink:href="#QUJCmdYcjcGYsc8iIONf_pad-21" x="941.76" y="561.47"/><use xlink:href="#QUJCmdYcjcGYsc8iIONf_pad-21" x="899.76" y="577.47"/><use xlink:href="#QUJCmdYcjcGYsc8iIONf_pad-21" x="898.26" y="592.97"/><use xlink:href="#QUJCmdYcjcGYsc8iIONf_pad-21" x="898.76" y="593.47"/><use xlink:href="#QUJCmdYcjcGYsc8iIONf_pad-21" x="940.76" y="591.47"/><use xlink:href="#QUJCmdYcjcGYsc8iIONf_pad-21" x="835.76" y="596.47"/><use xlink:href="#QUJCmdYcjcGYsc8iIONf_pad-21" x="835.76" y="596.97"/><use xlink:href="#QUJCmdYcjcGYsc8iIONf_pad-21" x="801.76" y="596.97"/><use xlink:href="#QUJCmdYcjcGYsc8iIONf_pad-21" x="818.76" y="558.97"/><use xlink:href="#QUJCmdYcjcGYsc8iIONf_pad-22" x="901.01" y="594.47"/><use xlink:href="#QUJCmdYcjcGYsc8iIONf_pad-22" x="946.01" y="558.97"/><use xlink:href="#QUJCmdYcjcGYsc8iIONf_pad-23" x="943.01" y="560.47"/><use xlink:href="#QUJCmdYcjcGYsc8iIONf_pad-23" x="941.51" y="591.97"/><use xlink:href="#QUJCmdYcjcGYsc8iIONf_pad-23" x="942.01" y="592.47"/><use xlink:href="#QUJCmdYcjcGYsc8iIONf_pad-23" x="867.01" y="593.47"/><use xlink:href="#QUJCmdYcjcGYsc8iIONf_pad-23" x="867.01" y="593.97"/><use xlink:href="#QUJCmdYcjcGYsc8iIONf_pad-23" x="835.51" y="595.47"/><use xlink:href="#QUJCmdYcjcGYsc8iIONf_pad-23" x="835.51" y="595.97"/><use xlink:href="#QUJCmdYcjcGYsc8iIONf_pad-23" x="802.01" y="595.97"/><use xlink:href="#QUJCmdYcjcGYsc8iIONf_pad-23" x="802.01" y="596.47"/><use xlink:href="#QUJCmdYcjcGYsc8iIONf_pad-23" x="802.01" y="595.47"/><use xlink:href="#QUJCmdYcjcGYsc8iIONf_pad-23" x="819.01" y="559.97"/><use xlink:href="#QUJCmdYcjcGYsc8iIONf_pad-23" x="819.01" y="559.47"/><use xlink:href="#QUJCmdYcjcGYsc8iIONf_pad-24" x="944.51" y="559.47"/><use xlink:href="#QUJCmdYcjcGYsc8iIONf_pad-25" x="943.76" y="559.97"/><use xlink:href="#QUJCmdYcjcGYsc8iIONf_pad-25" x="900.76" y="576.97"/><use xlink:href="#QUJCmdYcjcGYsc8iIONf_pad-25" x="899.76" y="593.97"/><use xlink:href="#QUJCmdYcjcGYsc8iIONf_pad-25" x="867.26" y="592.97"/><use xlink:href="#QUJCmdYcjcGYsc8iIONf_pad-25" x="835.26" y="593.97"/><use xlink:href="#QUJCmdYcjcGYsc8iIONf_pad-25" x="835.26" y="594.47"/><use xlink:href="#QUJCmdYcjcGYsc8iIONf_pad-25" x="835.26" y="594.97"/><use xlink:href="#QUJCmdYcjcGYsc8iIONf_pad-25" x="802.26" y="594.97"/><use xlink:href="#QUJCmdYcjcGYsc8iIONf_pad-25" x="802.26" y="594.47"/><use xlink:href="#QUJCmdYcjcGYsc8iIONf_pad-25" x="818.76" y="560.47"/><use xlink:href="#QUJCmdYcjcGYsc8iIONf_pad-25" x="942.76" y="592.97"/><use xlink:href="#QUJCmdYcjcGYsc8iIONf_pad-25" x="943.76" y="593.47"/><use xlink:href="#QUJCmdYcjcGYsc8iIONf_pad-26" x="867.26" y="570.47"/><use xlink:href="#QUJCmdYcjcGYsc8iIONf_pad-27" x="867.01" y="570.97"/><use xlink:href="#QUJCmdYcjcGYsc8iIONf_pad-27" x="954.51" y="594.97"/><use xlink:href="#QUJCmdYcjcGYsc8iIONf_pad-28" x="867.26" y="571.47"/><use xlink:href="#QUJCmdYcjcGYsc8iIONf_pad-29" x="867.01" y="571.97"/><use xlink:href="#QUJCmdYcjcGYsc8iIONf_pad-29" x="867.01" y="572.47"/><use xlink:href="#QUJCmdYcjcGYsc8iIONf_pad-29" x="955.01" y="595.47"/><use xlink:href="#QUJCmdYcjcGYsc8iIONf_pad-30" x="910.76" y="574.47"/><use xlink:href="#QUJCmdYcjcGYsc8iIONf_pad-30" x="910.76" y="573.97"/><use xlink:href="#QUJCmdYcjcGYsc8iIONf_pad-31" x="910.01" y="575.47"/><use xlink:href="#QUJCmdYcjcGYsc8iIONf_pad-32" x="902.76" y="576.47"/><use xlink:href="#QUJCmdYcjcGYsc8iIONf_pad-33" x="944.76" y="593.97"/><use xlink:href="#QUJCmdYcjcGYsc8iIONf_pad-34" x="946.26" y="594.47"/><use xlink:href="#QUJCmdYcjcGYsc8iIONf_pad-35" x="909.01" y="595.47"/><use xlink:href="#QUJCmdYcjcGYsc8iIONf_pad-36" x="910.26" y="596.47"/><use xlink:href="#QUJCmdYcjcGYsc8iIONf_pad-37" x="911.51" y="596.97"/><use xlink:href="#QUJCmdYcjcGYsc8iIONf_pad-38" x="918.26" y="597.47"/><use xlink:href="#QUJCmdYcjcGYsc8iIONf_pad-38" x="964.76" y="597.47"/><use xlink:href="#QUJCmdYcjcGYsc8iIONf_pad-38" x="837.26" y="597.47"/><path d="M 839.04 531.68 813.02 531.68 M 826.03 531.68 826.03 492.65 M 797.6 492.65 797.6 531.68 778.09 531.68 771.58 525.17 771.58 512.16 778.09 505.66 797.6 505.66 M 784.59 505.66 771.58 492.65 M 756.17 499.15 749.66 492.65 736.65 492.65 730.15 499.15 730.15 525.17 736.65 531.68 749.66 531.68 756.17 525.17 756.17 499.15 M 714.73 492.65 714.73 531.68 M 673.3 531.68 673.3 492.65 647.28 492.65 M 631.86 492.65 605.84 492.65 M 590.43 492.65 590.43 531.68 570.91 531.68 564.41 525.17 564.41 512.16 570.91 505.66 590.43 505.66 M 577.42 505.66 564.41 492.65 M 605.84 531.68 631.86 531.68 631.86 492.65 M 631.86 512.16 618.85 512.16 M 688.71 492.65 714.73 492.65 M 854.45 492.65 854.45 531.68 M 880.48 531.68 854.45 492.65 M 880.48 492.65 880.48 531.68 M 895.89 525.17 902.39 531.68 915.41 531.68 921.91 525.17 921.91 499.15 915.41 492.65 902.39 492.65 895.89 499.15 895.89 525.17 M 937.32 525.17 943.83 531.68 956.84 531.68 963.35 525.17 963.35 499.15 956.84 492.65 943.83 492.65 937.32 499.15" fill="none" stroke-width="6"/><path d="M 497.28 280.75 497.26 281.99 497.2 283.22 497.11 284.46 496.97 285.68 496.8 286.91 496.58 288.13 496.33 289.34 496.04 290.54 495.72 291.73 495.35 292.92 494.95 294.09 494.52 295.24 494.04 296.39 493.53 297.51 492.99 298.62 492.41 299.72 491.8 300.79 491.15 301.85 490.47 302.88 489.76 303.89 489.02 304.88 488.25 305.85 487.44 306.79 486.61 307.7 485.75 308.59 484.86 309.45 483.95 310.28 483.01 311.09 482.04 311.86 481.05 312.6 480.04 313.31 479.01 313.99 477.95 314.64 476.88 315.25 475.78 315.83 474.67 316.37 473.55 316.88 472.4 317.36 471.25 317.79 470.08 318.19 468.89 318.56 467.7 318.88 466.5 319.17 465.29 319.42 464.07 319.64 462.84 319.81 461.62 319.95 460.38 320.04 459.15 320.1 457.91 320.12 230.55 320.12 229.31 320.14 228.08 320.2 226.84 320.29 225.62 320.43 224.39 320.6 223.17 320.82 221.96 321.07 220.76 321.36 219.57 321.68 218.38 322.05 217.21 322.45 216.06 322.88 214.91 323.36 213.79 323.87 212.68 324.41 211.58 324.99 210.51 325.6 209.45 326.25 208.42 326.93 207.41 327.64 206.42 328.38 205.45 329.15 204.51 329.96 203.6 330.79 202.71 331.65 201.85 332.54 201.02 333.45 200.21 334.39 199.44 335.36 198.7 336.35 197.99 337.36 197.31 338.39 196.66 339.45 196.05 340.52 195.47 341.62 194.93 342.73 194.42 343.85 193.94 345 193.51 346.15 193.11 347.32 192.74 348.51 192.42 349.7 192.13 350.9 191.88 352.11 191.66 353.33 191.49 354.56 191.35 355.78 191.26 357.02 191.2 358.25 191.18 359.49 191.18 595.71 191.2 596.95 191.26 598.18 191.35 599.42 191.49 600.64 191.66 601.87 191.88 603.09 192.13 604.3 192.42 605.5 192.74 606.69 193.11 607.88 193.51 609.05 193.94 610.2 194.42 611.35 194.93 612.47 195.47 613.58 196.05 614.68 196.66 615.75 197.31 616.81 197.99 617.84 198.7 618.85 199.44 619.84 200.21 620.81 201.02 621.75 201.85 622.66 202.71 623.55 203.6 624.41 204.51 625.24 205.45 626.05 206.42 626.82 207.41 627.56 208.42 628.27 209.45 628.95 210.51 629.6 211.58 630.21 212.68 630.79 213.79 631.33 214.91 631.84 216.06 632.32 217.21 632.75 218.38 633.15 219.57 633.52 220.76 633.84 221.96 634.13 223.17 634.38 224.39 634.6 225.62 634.77 226.84 634.91 228.08 635 229.31 635.06 230.55 635.08 457.91 635.08 459.15 635.1 460.38 635.16 461.62 635.25 462.84 635.39 464.07 635.56 465.29 635.78 466.5 636.03 467.7 636.32 468.89 636.64 470.08 637.01 471.25 637.41 472.4 637.84 473.55 638.32 474.67 638.83 475.78 639.37 476.88 639.95 477.95 640.56 479.01 641.21 480.04 641.89 481.05 642.6 482.04 643.34 483.01 644.11 483.95 644.92 484.86 645.75 485.75 646.61 486.61 647.5 487.44 648.41 488.25 649.35 489.02 650.32 489.76 651.31 490.47 652.32 491.15 653.35 491.8 654.41 492.41 655.48 492.99 656.58 493.53 657.69 494.04 658.81 494.52 659.96 494.95 661.11 495.35 662.28 495.72 663.47 496.04 664.66 496.33 665.86 496.58 667.07 496.8 668.29 496.97 669.52 497.11 670.74 497.2 671.98 497.26 673.21 497.28 674.45 497.28 713.82 497.3 715.06 497.36 716.29 497.45 717.53 497.59 718.75 497.76 719.98 497.98 721.2 498.23 722.41 498.52 723.61 498.84 724.8 499.21 725.99 499.61 727.16 500.04 728.31 500.52 729.46 501.03 730.58 501.57 731.69 502.15 732.79 502.76 733.86 503.41 734.92 504.09 735.95 504.8 736.96 505.54 737.95 506.31 738.92 507.12 739.86 507.95 740.77 508.81 741.66 509.7 742.52 510.61 743.35 511.55 744.16 512.52 744.93 513.51 745.67 514.52 746.38 515.55 747.06 516.61 747.71 517.68 748.32 518.78 748.9 519.89 749.44 521.01 749.95 522.16 750.43 523.31 750.86 524.48 751.26 525.67 751.63 526.86 751.95 528.06 752.24 529.27 752.49 530.49 752.71 531.72 752.88 532.94 753.02 534.18 753.11 535.41 753.17 536.65 753.19 1009.09 753.19 1010.33 753.17 1011.56 753.11 1012.8 753.02 1014.02 752.88 1015.25 752.71 1016.47 752.49 1017.68 752.24 1018.88 751.95 1020.07 751.63 1021.26 751.26 1022.43 750.86 1023.58 750.43 1024.73 749.95 1025.85 749.44 1026.96 748.9 1028.06 748.32 1029.13 747.71 1030.19 747.06 1031.22 746.38 1032.23 745.67 1033.22 744.93 1034.19 744.16 1035.13 743.35 1036.04 742.52 1036.93 741.66 1037.79 740.77 1038.62 739.86 1039.43 738.92 1040.2 737.95 1040.94 736.96 1041.65 735.95 1042.33 734.92 1042.98 733.86 1043.59 732.79 1044.17 731.69 1044.71 730.58 1045.22 729.46 1045.7 728.31 1046.13 727.16 1046.53 725.99 1046.9 724.8 1047.22 723.61 1047.51 722.41 1047.76 721.2 1047.98 719.98 1048.15 718.75 1048.29 717.53 1048.38 716.29 1048.44 715.06 1048.46 713.82 1048.46 674.45 1048.48 673.21 1048.54 671.98 1048.63 670.74 1048.77 669.52 1048.94 668.29 1049.16 667.07 1049.41 665.86 1049.7 664.66 1050.02 663.47 1050.39 662.28 1050.79 661.11 1051.22 659.96 1051.7 658.81 1052.21 657.69 1052.75 656.58 1053.33 655.48 1053.94 654.41 1054.59 653.35 1055.27 652.32 1055.98 651.31 1056.72 650.32 1057.49 649.35 1058.3 648.41 1059.13 647.5 1059.99 646.61 1060.88 645.75 1061.79 644.92 1062.73 644.11 1063.7 643.34 1064.69 642.6 1065.7 641.89 1066.73 641.21 1067.79 640.56 1068.86 639.95 1069.96 639.37 1071.07 638.83 1072.19 638.32 1073.34 637.84 1074.49 637.41 1075.66 637.01 1076.85 636.64 1078.04 636.32 1079.24 636.03 1080.45 635.78 1081.67 635.56 1082.9 635.39 1084.12 635.25 1085.36 635.16 1086.59 635.1 1087.83 635.08 1316.18 635.08 1317.42 635.06 1318.65 635 1319.89 634.91 1321.11 634.77 1322.34 634.6 1323.56 634.38 1324.77 634.13 1325.97 633.84 1327.16 633.52 1328.35 633.15 1329.52 632.75 1330.67 632.32 1331.82 631.84 1332.94 631.33 1334.05 630.79 1335.15 630.21 1336.22 629.6 1337.28 628.95 1338.31 628.27 1339.32 627.56 1340.31 626.82 1341.28 626.05 1342.22 625.24 1343.13 624.41 1344.02 623.55 1344.88 622.66 1345.71 621.75 1346.52 620.81 1347.29 619.84 1348.03 618.85 1348.74 617.84 1349.42 616.81 1350.07 615.75 1350.68 614.68 1351.26 613.58 1351.8 612.47 1352.31 611.35 1352.79 610.2 1353.22 609.05 1353.62 607.88 1353.99 606.69 1354.31 605.5 1354.6 604.3 1354.85 603.09 1355.07 601.87 1355.24 600.64 1355.38 599.42 1355.47 598.18 1355.53 596.95 1355.55 595.71 1355.55 359.49 1355.53 358.25 1355.47 357.02 1355.38 355.78 1355.24 354.56 1355.07 353.33 1354.85 352.11 1354.6 350.9 1354.31 349.7 1353.99 348.51 1353.62 347.32 1353.22 346.15 1352.79 345 1352.31 343.85 1351.8 342.73 1351.26 341.62 1350.68 340.52 1350.07 339.45 1349.42 338.39 1348.74 337.36 1348.03 336.35 1347.29 335.36 1346.52 334.39 1345.71 333.45 1344.88 332.54 1344.02 331.65 1343.13 330.79 1342.22 329.96 1341.28 329.15 1340.31 328.38 1339.32 327.64 1338.31 326.93 1337.28 326.25 1336.22 325.6 1335.15 324.99 1334.05 324.41 1332.94 323.87 1331.82 323.36 1330.67 322.88 1329.52 322.45 1328.35 322.05 1327.16 321.68 1325.97 321.36 1324.77 321.07 1323.56 320.82 1322.34 320.6 1321.11 320.43 1319.89 320.29 1318.65 320.2 1317.42 320.14 1316.18 320.12 1087.83 320.12 1086.59 320.1 1085.36 320.04 1084.12 319.95 1082.9 319.81 1081.67 319.64 1080.45 319.42 1079.24 319.17 1078.04 318.88 1076.85 318.56 1075.66 318.19 1074.49 317.79 1073.34 317.36 1072.19 316.88 1071.07 316.37 1069.96 315.83 1068.86 315.25 1067.79 314.64 1066.73 313.99 1065.7 313.31 1064.69 312.6 1063.7 311.86 1062.73 311.09 1061.79 310.28 1060.88 309.45 1059.99 308.59 1059.13 307.7 1058.3 306.79 1057.49 305.85 1056.72 304.88 1055.98 303.89 1055.27 302.88 1054.59 301.85 1053.94 300.79 1053.33 299.72 1052.75 298.62 1052.21 297.51 1051.7 296.39 1051.22 295.24 1050.79 294.09 1050.39 292.92 1050.02 291.73 1049.7 290.54 1049.41 289.34 1049.16 288.13 1048.94 286.91 1048.77 285.68 1048.63 284.46 1048.54 283.22 1048.48 281.99 1048.46 280.75 1048.46 241.38 1048.44 240.14 1048.38 238.91 1048.29 237.67 1048.15 236.45 1047.98 235.22 1047.76 234 1047.51 232.79 1047.22 231.59 1046.9 230.4 1046.53 229.21 1046.13 228.04 1045.7 226.89 1045.22 225.74 1044.71 224.62 1044.17 223.51 1043.59 222.41 1042.98 221.34 1042.33 220.28 1041.65 219.25 1040.94 218.24 1040.2 217.25 1039.43 216.28 1038.62 215.34 1037.79 214.43 1036.93 213.54 1036.04 212.68 1035.13 211.85 1034.19 211.04 1033.22 210.27 1032.23 209.53 1031.22 208.82 1030.19 208.14 1029.13 207.49 1028.06 206.88 1026.96 206.3 1025.85 205.76 1024.73 205.25 1023.58 204.77 1022.43 204.34 1021.26 203.94 1020.07 203.57 1018.88 203.25 1017.68 202.96 1016.47 202.71 1015.25 202.49 1014.02 202.32 1012.8 202.18 1011.56 202.09 1010.33 202.03 1009.09 202.01 536.65 202.01 535.41 202.03 534.18 202.09 532.94 202.18 531.72 202.32 530.49 202.49 529.27 202.71 528.06 202.96 526.86 203.25 525.67 203.57 524.48 203.94 523.31 204.34 522.16 204.77 521.01 205.25 519.89 205.76 518.78 206.3 517.68 206.88 516.61 207.49 515.55 208.14 514.52 208.82 513.51 209.53 512.52 210.27 511.55 211.04 510.61 211.85 509.7 212.68 508.81 213.54 507.95 214.43 507.12 215.34 506.31 216.28 505.54 217.25 504.8 218.24 504.09 219.25 503.41 220.28 502.76 221.34 502.15 222.41 501.57 223.51 501.03 224.62 500.52 225.74 500.04 226.89 499.61 228.04 499.21 229.21 498.84 230.4 498.52 231.59 498.23 232.79 497.98 234 497.76 235.22 497.59 236.45 497.45 237.67 497.36 238.91 497.3 240.14 497.28 241.38 497.28 280.75 M 387.84 377.6 387.86 378.53 387.92 379.45 388.02 380.37 388.16 381.28 388.33 382.19 388.55 383.09 388.8 383.98 389.09 384.86 389.42 385.72 389.79 386.57 390.19 387.41 390.63 388.22 391.1 389.02 391.6 389.8 392.14 390.55 392.71 391.28 393.31 391.98 393.94 392.66 394.6 393.31 395.28 393.93 395.99 394.53 396.73 395.09 397.49 395.62 398.27 396.11 399.07 396.58 399.89 397 400.73 397.4 401.58 397.75 402.45 398.07 403.33 398.36 404.22 398.6 405.12 398.81 406.03 398.97 406.95 399.1 407.87 399.19 408.8 399.24 409.72 399.25 410.65 399.22 411.57 399.15 412.49 399.04 413.4 398.89 414.31 398.71 415.21 398.48 416.09 398.22 416.97 397.92 417.83 397.58 418.67 397.21 419.5 396.79 420.31 396.35 421.11 395.87 421.88 395.36 422.62 394.81 423.35 394.23 424.05 393.63 424.72 392.99 425.36 392.33 425.98 391.63 426.56 390.92 427.11 390.18 427.63 389.41 428.12 388.62 428.58 387.82 429 386.99 429.38 386.15 429.73 385.29 430.04 384.42 430.31 383.54 430.54 382.64 430.74 381.74 430.9 380.83 431.02 379.91 431.1 378.99 431.14 378.06 431.14 377.14 431.1 376.21 431.02 375.29 430.9 374.37 430.74 373.46 430.54 372.56 430.31 371.66 430.04 370.78 429.73 369.91 429.38 369.05 429 368.21 428.58 367.38 428.12 366.58 427.63 365.79 427.11 365.02 426.56 364.28 425.98 363.57 425.36 362.87 424.72 362.21 424.05 361.57 423.35 360.97 422.62 360.39 421.88 359.84 421.11 359.33 420.32 358.85 419.5 358.41 418.67 357.99 417.83 357.62 416.97 357.28 416.09 356.98 415.21 356.72 414.31 356.49 413.4 356.31 412.49 356.16 411.57 356.05 410.65 355.98 409.72 355.95 408.8 355.96 407.87 356.01 406.95 356.1 406.03 356.23 405.12 356.39 404.22 356.6 403.33 356.84 402.45 357.13 401.58 357.45 400.73 357.8 399.89 358.2 399.07 358.62 398.27 359.09 397.49 359.58 396.73 360.11 395.99 360.67 395.28 361.27 394.6 361.89 393.94 362.54 393.31 363.22 392.71 363.92 392.14 364.65 391.6 365.4 391.1 366.18 390.63 366.98 390.19 367.79 389.79 368.63 389.42 369.48 389.09 370.34 388.8 371.22 388.55 372.11 388.33 373.01 388.16 373.92 388.02 374.83 387.92 375.75 387.86 376.67 387.84 377.6 M 287.84 377.6 287.86 378.53 287.92 379.45 288.02 380.37 288.16 381.28 288.33 382.19 288.55 383.09 288.8 383.98 289.09 384.86 289.42 385.72 289.79 386.57 290.19 387.41 290.63 388.22 291.1 389.02 291.6 389.8 292.14 390.55 292.71 391.28 293.31 391.98 293.94 392.66 294.6 393.31 295.28 393.93 295.99 394.53 296.73 395.09 297.49 395.62 298.27 396.11 299.07 396.58 299.89 397 300.73 397.4 301.58 397.75 302.45 398.07 303.33 398.36 304.22 398.6 305.12 398.81 306.03 398.97 306.95 399.1 307.87 399.19 308.8 399.24 309.72 399.25 310.65 399.22 311.57 399.15 312.49 399.04 313.4 398.89 314.31 398.71 315.21 398.48 316.09 398.22 316.97 397.92 317.83 397.58 318.67 397.21 319.5 396.79 320.31 396.35 321.11 395.87 321.88 395.36 322.62 394.81 323.35 394.23 324.05 393.63 324.72 392.99 325.36 392.33 325.98 391.63 326.56 390.92 327.11 390.18 327.63 389.41 328.12 388.62 328.58 387.82 329 386.99 329.38 386.15 329.73 385.29 330.04 384.42 330.31 383.54 330.54 382.64 330.74 381.74 330.9 380.83 331.02 379.91 331.1 378.99 331.14 378.06 331.14 377.14 331.1 376.21 331.02 375.29 330.9 374.37 330.74 373.46 330.54 372.56 330.31 371.66 330.04 370.78 329.73 369.91 329.38 369.05 329 368.21 328.58 367.38 328.12 366.58 327.63 365.79 327.11 365.02 326.56 364.28 325.98 363.57 325.36 362.87 324.72 362.21 324.05 361.57 323.35 360.97 322.62 360.39 321.88 359.84 321.11 359.33 320.32 358.85 319.5 358.41 318.67 357.99 317.83 357.62 316.97 357.28 316.09 356.98 315.21 356.72 314.31 356.49 313.4 356.31 312.49 356.16 311.57 356.05 310.65 355.98 309.72 355.95 308.8 355.96 307.87 356.01 306.95 356.1 306.03 356.23 305.12 356.39 304.22 356.6 303.33 356.84 302.45 357.13 301.58 357.45 300.73 357.8 299.89 358.2 299.07 358.62 298.27 359.09 297.49 359.58 296.73 360.11 295.99 360.67 295.28 361.27 294.6 361.89 293.94 362.54 293.31 363.22 292.71 363.92 292.14 364.65 291.6 365.4 291.1 366.18 290.63 366.98 290.19 367.79 289.79 368.63 289.42 369.48 289.09 370.34 288.8 371.22 288.55 372.11 288.33 373.01 288.16 373.92 288.02 374.83 287.92 375.75 287.86 376.67 287.84 377.6 M 287.84 477.6 287.86 478.53 287.92 479.45 288.02 480.37 288.16 481.28 288.33 482.19 288.55 483.09 288.8 483.98 289.09 484.86 289.42 485.72 289.79 486.57 290.19 487.41 290.63 488.22 291.1 489.02 291.6 489.8 292.14 490.55 292.71 491.28 293.31 491.98 293.94 492.66 294.6 493.31 295.28 493.93 295.99 494.53 296.73 495.09 297.49 495.62 298.27 496.11 299.07 496.58 299.89 497 300.73 497.4 301.58 497.75 302.45 498.07 303.33 498.36 304.22 498.6 305.12 498.81 306.03 498.97 306.95 499.1 307.87 499.19 308.8 499.24 309.72 499.25 310.65 499.22 311.57 499.15 312.49 499.04 313.4 498.89 314.31 498.71 315.21 498.48 316.09 498.22 316.97 497.92 317.83 497.58 318.67 497.21 319.5 496.79 320.31 496.35 321.11 495.87 321.88 495.36 322.62 494.81 323.35 494.23 324.05 493.63 324.72 492.99 325.36 492.33 325.98 491.63 326.56 490.92 327.11 490.18 327.63 489.41 328.12 488.62 328.58 487.82 329 486.99 329.38 486.15 329.73 485.29 330.04 484.42 330.31 483.54 330.54 482.64 330.74 481.74 330.9 480.83 331.02 479.91 331.1 478.99 331.14 478.06 331.14 477.14 331.1 476.21 331.02 475.29 330.9 474.37 330.74 473.46 330.54 472.56 330.31 471.66 330.04 470.78 329.73 469.91 329.38 469.05 329 468.21 328.58 467.38 328.12 466.58 327.63 465.79 327.11 465.02 326.56 464.28 325.98 463.57 325.36 462.87 324.72 462.21 324.05 461.57 323.35 460.97 322.62 460.39 321.88 459.84 321.11 459.33 320.32 458.85 319.5 458.41 318.67 457.99 317.83 457.62 316.97 457.28 316.09 456.98 315.21 456.72 314.31 456.49 313.4 456.31 312.49 456.16 311.57 456.05 310.65 455.98 309.72 455.95 308.8 455.96 307.87 456.01 306.95 456.1 306.03 456.23 305.12 456.39 304.22 456.6 303.33 456.84 302.45 457.13 301.58 457.45 300.73 457.8 299.89 458.2 299.07 458.62 298.27 459.09 297.49 459.58 296.73 460.11 295.99 460.67 295.28 461.27 294.6 461.89 293.94 462.54 293.31 463.22 292.71 463.92 292.14 464.65 291.6 465.4 291.1 466.18 290.63 466.98 290.19 467.79 289.79 468.63 289.42 469.48 289.09 470.34 288.8 471.22 288.55 472.11 288.33 473.01 288.16 473.92 288.02 474.83 287.92 475.75 287.86 476.67 287.84 477.6 M 387.84 477.6 387.86 478.53 387.92 479.45 388.02 480.37 388.16 481.28 388.33 482.19 388.55 483.09 388.8 483.98 389.09 484.86 389.42 485.72 389.79 486.57 390.19 487.41 390.63 488.22 391.1 489.02 391.6 489.8 392.14 490.55 392.71 491.28 393.31 491.98 393.94 492.66 394.6 493.31 395.28 493.93 395.99 494.53 396.73 495.09 397.49 495.62 398.27 496.11 399.07 496.58 399.89 497 400.73 497.4 401.58 497.75 402.45 498.07 403.33 498.36 404.22 498.6 405.12 498.81 406.03 498.97 406.95 499.1 407.87 499.19 408.8 499.24 409.72 499.25 410.65 499.22 411.57 499.15 412.49 499.04 413.4 498.89 414.31 498.71 415.21 498.48 416.09 498.22 416.97 497.92 417.83 497.58 418.67 497.21 419.5 496.79 420.31 496.35 421.11 495.87 421.88 495.36 422.62 494.81 423.35 494.23 424.05 493.63 424.72 492.99 425.36 492.33 425.98 491.63 426.56 490.92 427.11 490.18 427.63 489.41 428.12 488.62 428.58 487.82 429 486.99 429.38 486.15 429.73 485.29 430.04 484.42 430.31 483.54 430.54 482.64 430.74 481.74 430.9 480.83 431.02 479.91 431.1 478.99 431.14 478.06 431.14 477.14 431.1 476.21 431.02 475.29 430.9 474.37 430.74 473.46 430.54 472.56 430.31 471.66 430.04 470.78 429.73 469.91 429.38 469.05 429 468.21 428.58 467.38 428.12 466.58 427.63 465.79 427.11 465.02 426.56 464.28 425.98 463.57 425.36 462.87 424.72 462.21 424.05 461.57 423.35 460.97 422.62 460.39 421.88 459.84 421.11 459.33 420.32 458.85 419.5 458.41 418.67 457.99 417.83 457.62 416.97 457.28 416.09 456.98 415.21 456.72 414.31 456.49 413.4 456.31 412.49 456.16 411.57 456.05 410.65 455.98 409.72 455.95 408.8 455.96 407.87 456.01 406.95 456.1 406.03 456.23 405.12 456.39 404.22 456.6 403.33 456.84 402.45 457.13 401.58 457.45 400.73 457.8 399.89 458.2 399.07 458.62 398.27 459.09 397.49 459.58 396.73 460.11 395.99 460.67 395.28 461.27 394.6 461.89 393.94 462.54 393.31 463.22 392.71 463.92 392.14 464.65 391.6 465.4 391.1 466.18 390.63 466.98 390.19 467.79 389.79 468.63 389.42 469.48 389.09 470.34 388.8 471.22 388.55 472.11 388.33 473.01 388.16 473.92 388.02 474.83 387.92 475.75 387.86 476.67 387.84 477.6 M 387.84 577.6 387.86 578.53 387.92 579.45 388.02 580.37 388.16 581.28 388.33 582.19 388.55 583.09 388.8 583.98 389.09 584.86 389.42 585.72 389.79 586.57 390.19 587.41 390.63 588.22 391.1 589.02 391.6 589.8 392.14 590.55 392.71 591.28 393.31 591.98 393.94 592.66 394.6 593.31 395.28 593.93 395.99 594.53 396.73 595.09 397.49 595.62 398.27 596.11 399.07 596.58 399.89 597 400.73 597.4 401.58 597.75 402.45 598.07 403.33 598.36 404.22 598.6 405.12 598.81 406.03 598.97 406.95 599.1 407.87 599.19 408.8 599.24 409.72 599.25 410.65 599.22 411.57 599.15 412.49 599.04 413.4 598.89 414.31 598.71 415.21 598.48 416.09 598.22 416.97 597.92 417.83 597.58 418.67 597.21 419.5 596.79 420.31 596.35 421.11 595.87 421.88 595.36 422.62 594.81 423.35 594.23 424.05 593.63 424.72 592.99 425.36 592.33 425.98 591.63 426.56 590.92 427.11 590.18 427.63 589.41 428.12 588.62 428.58 587.82 429 586.99 429.38 586.15 429.73 585.29 430.04 584.42 430.31 583.54 430.54 582.64 430.74 581.74 430.9 580.83 431.02 579.91 431.1 578.99 431.14 578.06 431.14 577.14 431.1 576.21 431.02 575.29 430.9 574.37 430.74 573.46 430.54 572.56 430.31 571.66 430.04 570.78 429.73 569.91 429.38 569.05 429 568.21 428.58 567.38 428.12 566.58 427.63 565.79 427.11 565.02 426.56 564.28 425.98 563.57 425.36 562.87 424.72 562.21 424.05 561.57 423.35 560.97 422.62 560.39 421.88 559.84 421.11 559.33 420.32 558.85 419.5 558.41 418.67 557.99 417.83 557.62 416.97 557.28 416.09 556.98 415.21 556.72 414.31 556.49 413.4 556.31 412.49 556.16 411.57 556.05 410.65 555.98 409.72 555.95 408.8 555.96 407.87 556.01 406.95 556.1 406.03 556.23 405.12 556.39 404.22 556.6 403.33 556.84 402.45 557.13 401.58 557.45 400.73 557.8 399.89 558.2 399.07 558.62 398.27 559.09 397.49 559.58 396.73 560.11 395.99 560.67 395.28 561.27 394.6 561.89 393.94 562.54 393.31 563.22 392.71 563.92 392.14 564.65 391.6 565.4 391.1 566.18 390.63 566.98 390.19 567.79 389.79 568.63 389.42 569.48 389.09 570.34 388.8 571.22 388.55 572.11 388.33 573.01 388.16 573.92 388.02 574.83 387.92 575.75 387.86 576.67 387.84 577.6 M 287.84 577.6 287.86 578.53 287.92 579.45 288.02 580.37 288.16 581.28 288.33 582.19 288.55 583.09 288.8 583.98 289.09 584.86 289.42 585.72 289.79 586.57 290.19 587.41 290.63 588.22 291.1 589.02 291.6 589.8 292.14 590.55 292.71 591.28 293.31 591.98 293.94 592.66 294.6 593.31 295.28 593.93 295.99 594.53 296.73 595.09 297.49 595.62 298.27 596.11 299.07 596.58 299.89 597 300.73 597.4 301.58 597.75 302.45 598.07 303.33 598.36 304.22 598.6 305.12 598.81 306.03 598.97 306.95 599.1 307.87 599.19 308.8 599.24 309.72 599.25 310.65 599.22 311.57 599.15 312.49 599.04 313.4 598.89 314.31 598.71 315.21 598.48 316.09 598.22 316.97 597.92 317.83 597.58 318.67 597.21 319.5 596.79 320.31 596.35 321.11 595.87 321.88 595.36 322.62 594.81 323.35 594.23 324.05 593.63 324.72 592.99 325.36 592.33 325.98 591.63 326.56 590.92 327.11 590.18 327.63 589.41 328.12 588.62 328.58 587.82 329 586.99 329.38 586.15 329.73 585.29 330.04 584.42 330.31 583.54 330.54 582.64 330.74 581.74 330.9 580.83 331.02 579.91 331.1 578.99 331.14 578.06 331.14 577.14 331.1 576.21 331.02 575.29 330.9 574.37 330.74 573.46 330.54 572.56 330.31 571.66 330.04 570.78 329.73 569.91 329.38 569.05 329 568.21 328.58 567.38 328.12 566.58 327.63 565.79 327.11 565.02 326.56 564.28 325.98 563.57 325.36 562.87 324.72 562.21 324.05 561.57 323.35 560.97 322.62 560.39 321.88 559.84 321.11 559.33 320.32 558.85 319.5 558.41 318.67 557.99 317.83 557.62 316.97 557.28 316.09 556.98 315.21 556.72 314.31 556.49 313.4 556.31 312.49 556.16 311.57 556.05 310.65 555.98 309.72 555.95 308.8 555.96 307.87 556.01 306.95 556.1 306.03 556.23 305.12 556.39 304.22 556.6 303.33 556.84 302.45 557.13 301.58 557.45 300.73 557.8 299.89 558.2 299.07 558.62 298.27 559.09 297.49 559.58 296.73 560.11 295.99 560.67 295.28 561.27 294.6 561.89 293.94 562.54 293.31 563.22 292.71 563.92 292.14 564.65 291.6 565.4 291.1 566.18 290.63 566.98 290.19 567.79 289.79 568.63 289.42 569.48 289.09 570.34 288.8 571.22 288.55 572.11 288.33 573.01 288.16 573.92 288.02 574.83 287.92 575.75 287.86 576.67 287.84 577.6 M 1114.61 577.6 1114.63 578.53 1114.69 579.45 1114.79 580.37 1114.93 581.28 1115.1 582.19 1115.32 583.09 1115.57 583.98 1115.86 584.86 1116.19 585.72 1116.56 586.57 1116.96 587.41 1117.4 588.22 1117.87 589.02 1118.37 589.8 1118.91 590.55 1119.48 591.28 1120.08 591.98 1120.71 592.66 1121.37 593.31 1122.05 593.93 1122.76 594.53 1123.5 595.09 1124.26 595.62 1125.04 596.11 1125.84 596.58 1126.66 597 1127.5 597.4 1128.35 597.75 1129.22 598.07 1130.1 598.36 1130.99 598.6 1131.89 598.81 1132.8 598.97 1133.72 599.1 1134.64 599.19 1135.57 599.24 1136.49 599.25 1137.42 599.22 1138.34 599.15 1139.26 599.04 1140.17 598.89 1141.08 598.71 1141.98 598.48 1142.86 598.22 1143.74 597.92 1144.6 597.58 1145.44 597.21 1146.27 596.79 1147.08 596.35 1147.88 595.87 1148.65 595.36 1149.39 594.81 1150.12 594.23 1150.82 593.63 1151.49 592.99 1152.13 592.33 1152.75 591.63 1153.33 590.92 1153.88 590.18 1154.4 589.41 1154.89 588.62 1155.35 587.82 1155.77 586.99 1156.15 586.15 1156.5 585.29 1156.81 584.42 1157.08 583.54 1157.31 582.64 1157.51 581.74 1157.67 580.83 1157.79 579.91 1157.87 578.99 1157.91 578.06 1157.91 577.14 1157.87 576.21 1157.79 575.29 1157.67 574.37 1157.51 573.46 1157.31 572.56 1157.08 571.66 1156.81 570.78 1156.5 569.91 1156.15 569.05 1155.77 568.21 1155.35 567.38 1154.89 566.58 1154.4 565.79 1153.88 565.02 1153.33 564.28 1152.75 563.57 1152.13 562.87 1151.49 562.21 1150.82 561.57 1150.12 560.97 1149.39 560.39 1148.65 559.84 1147.88 559.33 1147.09 558.85 1146.27 558.41 1145.44 557.99 1144.6 557.62 1143.74 557.28 1142.86 556.98 1141.98 556.72 1141.08 556.49 1140.17 556.31 1139.26 556.16 1138.34 556.05 1137.42 555.98 1136.49 555.95 1135.57 555.96 1134.64 556.01 1133.72 556.1 1132.8 556.23 1131.89 556.39 1130.99 556.6 1130.1 556.84 1129.22 557.13 1128.35 557.45 1127.5 557.8 1126.66 558.2 1125.84 558.62 1125.04 559.09 1124.26 559.58 1123.5 560.11 1122.76 560.67 1122.05 561.27 1121.37 561.89 1120.71 562.54 1120.08 563.22 1119.48 563.92 1118.91 564.65 1118.37 565.4 1117.87 566.18 1117.4 566.98 1116.96 567.79 1116.56 568.63 1116.19 569.48 1115.86 570.34 1115.57 571.22 1115.32 572.11 1115.1 573.01 1114.93 573.92 1114.79 574.83 1114.69 575.75 1114.63 576.67 1114.61 577.6 M 1214.61 577.6 1214.63 578.53 1214.69 579.45 1214.79 580.37 1214.93 581.28 1215.1 582.19 1215.32 583.09 1215.57 583.98 1215.86 584.86 1216.19 585.72 1216.56 586.57 1216.96 587.41 1217.4 588.22 1217.87 589.02 1218.37 589.8 1218.91 590.55 1219.48 591.28 1220.08 591.98 1220.71 592.66 1221.37 593.31 1222.05 593.93 1222.76 594.53 1223.5 595.09 1224.26 595.62 1225.04 596.11 1225.84 596.58 1226.66 597 1227.5 597.4 1228.35 597.75 1229.22 598.07 1230.1 598.36 1230.99 598.6 1231.89 598.81 1232.8 598.97 1233.72 599.1 1234.64 599.19 1235.57 599.24 1236.49 599.25 1237.42 599.22 1238.34 599.15 1239.26 599.04 1240.17 598.89 1241.08 598.71 1241.98 598.48 1242.86 598.22 1243.74 597.92 1244.6 597.58 1245.44 597.21 1246.27 596.79 1247.08 596.35 1247.88 595.87 1248.65 595.36 1249.39 594.81 1250.12 594.23 1250.82 593.63 1251.49 592.99 1252.13 592.33 1252.75 591.63 1253.33 590.92 1253.88 590.18 1254.4 589.41 1254.89 588.62 1255.35 587.82 1255.77 586.99 1256.15 586.15 1256.5 585.29 1256.81 584.42 1257.08 583.54 1257.31 582.64 1257.51 581.74 1257.67 580.83 1257.79 579.91 1257.87 578.99 1257.91 578.06 1257.91 577.14 1257.87 576.21 1257.79 575.29 1257.67 574.37 1257.51 573.46 1257.31 572.56 1257.08 571.66 1256.81 570.78 1256.5 569.91 1256.15 569.05 1255.77 568.21 1255.35 567.38 1254.89 566.58 1254.4 565.79 1253.88 565.02 1253.33 564.28 1252.75 563.57 1252.13 562.87 1251.49 562.21 1250.82 561.57 1250.12 560.97 1249.39 560.39 1248.65 559.84 1247.88 559.33 1247.09 558.85 1246.27 558.41 1245.44 557.99 1244.6 557.62 1243.74 557.28 1242.86 556.98 1241.98 556.72 1241.08 556.49 1240.17 556.31 1239.26 556.16 1238.34 556.05 1237.42 555.98 1236.49 555.95 1235.57 555.96 1234.64 556.01 1233.72 556.1 1232.8 556.23 1231.89 556.39 1230.99 556.6 1230.1 556.84 1229.22 557.13 1228.35 557.45 1227.5 557.8 1226.66 558.2 1225.84 558.62 1225.04 559.09 1224.26 559.58 1223.5 560.11 1222.76 560.67 1222.05 561.27 1221.37 561.89 1220.71 562.54 1220.08 563.22 1219.48 563.92 1218.91 564.65 1218.37 565.4 1217.87 566.18 1217.4 566.98 1216.96 567.79 1216.56 568.63 1216.19 569.48 1215.86 570.34 1215.57 571.22 1215.32 572.11 1215.1 573.01 1214.93 573.92 1214.79 574.83 1214.69 575.75 1214.63 576.67 1214.61 577.6 M 1214.61 477.6 1214.63 478.53 1214.69 479.45 1214.79 480.37 1214.93 481.28 1215.1 482.19 1215.32 483.09 1215.57 483.98 1215.86 484.86 1216.19 485.72 1216.56 486.57 1216.96 487.41 1217.4 488.22 1217.87 489.02 1218.37 489.8 1218.91 490.55 1219.48 491.28 1220.08 491.98 1220.71 492.66 1221.37 493.31 1222.05 493.93 1222.76 494.53 1223.5 495.09 1224.26 495.62 1225.04 496.11 1225.84 496.58 1226.66 497 1227.5 497.4 1228.35 497.75 1229.22 498.07 1230.1 498.36 1230.99 498.6 1231.89 498.81 1232.8 498.97 1233.72 499.1 1234.64 499.19 1235.57 499.24 1236.49 499.25 1237.42 499.22 1238.34 499.15 1239.26 499.04 1240.17 498.89 1241.08 498.71 1241.98 498.48 1242.86 498.22 1243.74 497.92 1244.6 497.58 1245.44 497.21 1246.27 496.79 1247.08 496.35 1247.88 495.87 1248.65 495.36 1249.39 494.81 1250.12 494.23 1250.82 493.63 1251.49 492.99 1252.13 492.33 1252.75 491.63 1253.33 490.92 1253.88 490.18 1254.4 489.41 1254.89 488.62 1255.35 487.82 1255.77 486.99 1256.15 486.15 1256.5 485.29 1256.81 484.42 1257.08 483.54 1257.31 482.64 1257.51 481.74 1257.67 480.83 1257.79 479.91 1257.87 478.99 1257.91 478.06 1257.91 477.14 1257.87 476.21 1257.79 475.29 1257.67 474.37 1257.51 473.46 1257.31 472.56 1257.08 471.66 1256.81 470.78 1256.5 469.91 1256.15 469.05 1255.77 468.21 1255.35 467.38 1254.89 466.58 1254.4 465.79 1253.88 465.02 1253.33 464.28 1252.75 463.57 1252.13 462.87 1251.49 462.21 1250.82 461.57 1250.12 460.97 1249.39 460.39 1248.65 459.84 1247.88 459.33 1247.09 458.85 1246.27 458.41 1245.44 457.99 1244.6 457.62 1243.74 457.28 1242.86 456.98 1241.98 456.72 1241.08 456.49 1240.17 456.31 1239.26 456.16 1238.34 456.05 1237.42 455.98 1236.49 455.95 1235.57 455.96 1234.64 456.01 1233.72 456.1 1232.8 456.23 1231.89 456.39 1230.99 456.6 1230.1 456.84 1229.22 457.13 1228.35 457.45 1227.5 457.8 1226.66 458.2 1225.84 458.62 1225.04 459.09 1224.26 459.58 1223.5 460.11 1222.76 460.67 1222.05 461.27 1221.37 461.89 1220.71 462.54 1220.08 463.22 1219.48 463.92 1218.91 464.65 1218.37 465.4 1217.87 466.18 1217.4 466.98 1216.96 467.79 1216.56 468.63 1216.19 469.48 1215.86 470.34 1215.57 471.22 1215.32 472.11 1215.1 473.01 1214.93 473.92 1214.79 474.83 1214.69 475.75 1214.63 476.67 1214.61 477.6 M 1114.61 477.6 1114.63 478.53 1114.69 479.45 1114.79 480.37 1114.93 481.28 1115.1 482.19 1115.32 483.09 1115.57 483.98 1115.86 484.86 1116.19 485.72 1116.56 486.57 1116.96 487.41 1117.4 488.22 1117.87 489.02 1118.37 489.8 1118.91 490.55 1119.48 491.28 1120.08 491.98 1120.71 492.66 1121.37 493.31 1122.05 493.93 1122.76 494.53 1123.5 495.09 1124.26 495.62 1125.04 496.11 1125.84 496.58 1126.66 497 1127.5 497.4 1128.35 497.75 1129.22 498.07 1130.1 498.36 1130.99 498.6 1131.89 498.81 1132.8 498.97 1133.72 499.1 1134.64 499.19 1135.57 499.24 1136.49 499.25 1137.42 499.22 1138.34 499.15 1139.26 499.04 1140.17 498.89 1141.08 498.71 1141.98 498.48 1142.86 498.22 1143.74 497.92 1144.6 497.58 1145.44 497.21 1146.27 496.79 1147.08 496.35 1147.88 495.87 1148.65 495.36 1149.39 494.81 1150.12 494.23 1150.82 493.63 1151.49 492.99 1152.13 492.33 1152.75 491.63 1153.33 490.92 1153.88 490.18 1154.4 489.41 1154.89 488.62 1155.35 487.82 1155.77 486.99 1156.15 486.15 1156.5 485.29 1156.81 484.42 1157.08 483.54 1157.31 482.64 1157.51 481.74 1157.67 480.83 1157.79 479.91 1157.87 478.99 1157.91 478.06 1157.91 477.14 1157.87 476.21 1157.79 475.29 1157.67 474.37 1157.51 473.46 1157.31 472.56 1157.08 471.66 1156.81 470.78 1156.5 469.91 1156.15 469.05 1155.77 468.21 1155.35 467.38 1154.89 466.58 1154.4 465.79 1153.88 465.02 1153.33 464.28 1152.75 463.57 1152.13 462.87 1151.49 462.21 1150.82 461.57 1150.12 460.97 1149.39 460.39 1148.65 459.84 1147.88 459.33 1147.09 458.85 1146.27 458.41 1145.44 457.99 1144.6 457.62 1143.74 457.28 1142.86 456.98 1141.98 456.72 1141.08 456.49 1140.17 456.31 1139.26 456.16 1138.34 456.05 1137.42 455.98 1136.49 455.95 1135.57 455.96 1134.64 456.01 1133.72 456.1 1132.8 456.23 1131.89 456.39 1130.99 456.6 1130.1 456.84 1129.22 457.13 1128.35 457.45 1127.5 457.8 1126.66 458.2 1125.84 458.62 1125.04 459.09 1124.26 459.58 1123.5 460.11 1122.76 460.67 1122.05 461.27 1121.37 461.89 1120.71 462.54 1120.08 463.22 1119.48 463.92 1118.91 464.65 1118.37 465.4 1117.87 466.18 1117.4 466.98 1116.96 467.79 1116.56 468.63 1116.19 469.48 1115.86 470.34 1115.57 471.22 1115.32 472.11 1115.1 473.01 1114.93 473.92 1114.79 474.83 1114.69 475.75 1114.63 476.67 1114.61 477.6 M 1114.61 377.6 1114.63 378.53 1114.69 379.45 1114.79 380.37 1114.93 381.28 1115.1 382.19 1115.32 383.09 1115.57 383.98 1115.86 384.86 1116.19 385.72 1116.56 386.57 1116.96 387.41 1117.4 388.22 1117.87 389.02 1118.37 389.8 1118.91 390.55 1119.48 391.28 1120.08 391.98 1120.71 392.66 1121.37 393.31 1122.05 393.93 1122.76 394.53 1123.5 395.09 1124.26 395.62 1125.04 396.11 1125.84 396.58 1126.66 397 1127.5 397.4 1128.35 397.75 1129.22 398.07 1130.1 398.36 1130.99 398.6 1131.89 398.81 1132.8 398.97 1133.72 399.1 1134.64 399.19 1135.57 399.24 1136.49 399.25 1137.42 399.22 1138.34 399.15 1139.26 399.04 1140.17 398.89 1141.08 398.71 1141.98 398.48 1142.86 398.22 1143.74 397.92 1144.6 397.58 1145.44 397.21 1146.27 396.79 1147.08 396.35 1147.88 395.87 1148.65 395.36 1149.39 394.81 1150.12 394.23 1150.82 393.63 1151.49 392.99 1152.13 392.33 1152.75 391.63 1153.33 390.92 1153.88 390.18 1154.4 389.41 1154.89 388.62 1155.35 387.82 1155.77 386.99 1156.15 386.15 1156.5 385.29 1156.81 384.42 1157.08 383.54 1157.31 382.64 1157.51 381.74 1157.67 380.83 1157.79 379.91 1157.87 378.99 1157.91 378.06 1157.91 377.14 1157.87 376.21 1157.79 375.29 1157.67 374.37 1157.51 373.46 1157.31 372.56 1157.08 371.66 1156.81 370.78 1156.5 369.91 1156.15 369.05 1155.77 368.21 1155.35 367.38 1154.89 366.58 1154.4 365.79 1153.88 365.02 1153.33 364.28 1152.75 363.57 1152.13 362.87 1151.49 362.21 1150.82 361.57 1150.12 360.97 1149.39 360.39 1148.65 359.84 1147.88 359.33 1147.09 358.85 1146.27 358.41 1145.44 357.99 1144.6 357.62 1143.74 357.28 1142.86 356.98 1141.98 356.72 1141.08 356.49 1140.17 356.31 1139.26 356.16 1138.34 356.05 1137.42 355.98 1136.49 355.95 1135.57 355.96 1134.64 356.01 1133.72 356.1 1132.8 356.23 1131.89 356.39 1130.99 356.6 1130.1 356.84 1129.22 357.13 1128.35 357.45 1127.5 357.8 1126.66 358.2 1125.84 358.62 1125.04 359.09 1124.26 359.58 1123.5 360.11 1122.76 360.67 1122.05 361.27 1121.37 361.89 1120.71 362.54 1120.08 363.22 1119.48 363.92 1118.91 364.65 1118.37 365.4 1117.87 366.18 1117.4 366.98 1116.96 367.79 1116.56 368.63 1116.19 369.48 1115.86 370.34 1115.57 371.22 1115.32 372.11 1115.1 373.01 1114.93 373.92 1114.79 374.83 1114.69 375.75 1114.63 376.67 1114.61 377.6 M 1214.61 377.6 1214.63 378.53 1214.69 379.45 1214.79 380.37 1214.93 381.28 1215.1 382.19 1215.32 383.09 1215.57 383.98 1215.86 384.86 1216.19 385.72 1216.56 386.57 1216.96 387.41 1217.4 388.22 1217.87 389.02 1218.37 389.8 1218.91 390.55 1219.48 391.28 1220.08 391.98 1220.71 392.66 1221.37 393.31 1222.05 393.93 1222.76 394.53 1223.5 395.09 1224.26 395.62 1225.04 396.11 1225.84 396.58 1226.66 397 1227.5 397.4 1228.35 397.75 1229.22 398.07 1230.1 398.36 1230.99 398.6 1231.89 398.81 1232.8 398.97 1233.72 399.1 1234.64 399.19 1235.57 399.24 1236.49 399.25 1237.42 399.22 1238.34 399.15 1239.26 399.04 1240.17 398.89 1241.08 398.71 1241.98 398.48 1242.86 398.22 1243.74 397.92 1244.6 397.58 1245.44 397.21 1246.27 396.79 1247.08 396.35 1247.88 395.87 1248.65 395.36 1249.39 394.81 1250.12 394.23 1250.82 393.63 1251.49 392.99 1252.13 392.33 1252.75 391.63 1253.33 390.92 1253.88 390.18 1254.4 389.41 1254.89 388.62 1255.35 387.82 1255.77 386.99 1256.15 386.15 1256.5 385.29 1256.81 384.42 1257.08 383.54 1257.31 382.64 1257.51 381.74 1257.67 380.83 1257.79 379.91 1257.87 378.99 1257.91 378.06 1257.91 377.14 1257.87 376.21 1257.79 375.29 1257.67 374.37 1257.51 373.46 1257.31 372.56 1257.08 371.66 1256.81 370.78 1256.5 369.91 1256.15 369.05 1255.77 368.21 1255.35 367.38 1254.89 366.58 1254.4 365.79 1253.88 365.02 1253.33 364.28 1252.75 363.57 1252.13 362.87 1251.49 362.21 1250.82 361.57 1250.12 360.97 1249.39 360.39 1248.65 359.84 1247.88 359.33 1247.09 358.85 1246.27 358.41 1245.44 357.99 1244.6 357.62 1243.74 357.28 1242.86 356.98 1241.98 356.72 1241.08 356.49 1240.17 356.31 1239.26 356.16 1238.34 356.05 1237.42 355.98 1236.49 355.95 1235.57 355.96 1234.64 356.01 1233.72 356.1 1232.8 356.23 1231.89 356.39 1230.99 356.6 1230.1 356.84 1229.22 357.13 1228.35 357.45 1227.5 357.8 1226.66 358.2 1225.84 358.62 1225.04 359.09 1224.26 359.58 1223.5 360.11 1222.76 360.67 1222.05 361.27 1221.37 361.89 1220.71 362.54 1220.08 363.22 1219.48 363.92 1218.91 364.65 1218.37 365.4 1217.87 366.18 1217.4 366.98 1216.96 367.79 1216.56 368.63 1216.19 369.48 1215.86 370.34 1215.57 371.22 1215.32 372.11 1215.1 373.01 1214.93 373.92 1214.79 374.83 1214.69 375.75 1214.63 376.67 1214.61 377.6" fill="none" stroke-width="0"/><use xlink:href="#QUJCmdYcjcGYsc8iIONf_pad-41" x="1310.67" y="377.99"/><use xlink:href="#QUJCmdYcjcGYsc8iIONf_pad-41" x="1310.67" y="477.99"/><use xlink:href="#QUJCmdYcjcGYsc8iIONf_pad-41" x="1311.06" y="577.6"/><use xlink:href="#QUJCmdYcjcGYsc8iIONf_pad-41" x="1062.24" y="577.6"/><use xlink:href="#QUJCmdYcjcGYsc8iIONf_pad-41" x="1062.64" y="477.99"/><use xlink:href="#QUJCmdYcjcGYsc8iIONf_pad-41" x="1062.64" y="377.99"/><use xlink:href="#QUJCmdYcjcGYsc8iIONf_pad-41" x="483.9" y="377.99"/><use xlink:href="#QUJCmdYcjcGYsc8iIONf_pad-41" x="483.9" y="477.99"/><use xlink:href="#QUJCmdYcjcGYsc8iIONf_pad-41" x="484.29" y="577.6"/><use xlink:href="#QUJCmdYcjcGYsc8iIONf_pad-41" x="235.47" y="577.6"/><use xlink:href="#QUJCmdYcjcGYsc8iIONf_pad-41" x="235.87" y="477.99"/><use xlink:href="#QUJCmdYcjcGYsc8iIONf_pad-41" x="235.87" y="377.99"/><use xlink:href="#QUJCmdYcjcGYsc8iIONf_pad-42" x="309.49" y="377.6"/><use xlink:href="#QUJCmdYcjcGYsc8iIONf_pad-42" x="409.49" y="377.6"/><use xlink:href="#QUJCmdYcjcGYsc8iIONf_pad-42" x="409.49" y="477.6"/><use xlink:href="#QUJCmdYcjcGYsc8iIONf_pad-42" x="309.49" y="477.6"/><use xlink:href="#QUJCmdYcjcGYsc8iIONf_pad-42" x="309.49" y="577.6"/><use xlink:href="#QUJCmdYcjcGYsc8iIONf_pad-42" x="409.49" y="577.6"/><use xlink:href="#QUJCmdYcjcGYsc8iIONf_pad-42" x="1136.26" y="577.6"/><use xlink:href="#QUJCmdYcjcGYsc8iIONf_pad-42" x="1236.26" y="577.6"/><use xlink:href="#QUJCmdYcjcGYsc8iIONf_pad-42" x="1236.26" y="477.6"/><use xlink:href="#QUJCmdYcjcGYsc8iIONf_pad-42" x="1136.26" y="477.6"/><use xlink:href="#QUJCmdYcjcGYsc8iIONf_pad-42" x="1136.26" y="377.6"/><use xlink:href="#QUJCmdYcjcGYsc8iIONf_pad-42" x="1236.26" y="377.6"/></g></svg>