<svg version="1.1" xmlns="http://www.w3.org/2000/svg" xmlns:xlink="http://www.w3.org/1999/xlink" stroke-linecap="round" stroke-linejoin="round" stroke-width="0" fill-rule="evenodd" width="10.4453in" height="4.0476in" viewBox="2407.7 3195.1 10445.3 4047.6" id="iZvz_-PtT3YO36B4VyDg"><defs><circle cx="0" cy="0" r="6.1" id="iZvz_-PtT3YO36B4VyDg_pad-1"/><circle cx="0" cy="0" r="21.655" id="iZvz_-PtT3YO36B4VyDg_pad-2"/></defs><g transform="translate(0,10437.8) scale(1,-1)" fill="currentColor" stroke="currentColor"><use xlink:href="#iZvz_-PtT3YO36B4VyDg_pad-1" x="3594.9" y="3496.5"/><use xlink:href="#iZvz_-PtT3YO36B4VyDg_pad-1" x="2413.8" y="4283.9"/><use xlink:href="#iZvz_-PtT3YO36B4VyDg_pad-1" x="3594.9" y="5071.3"/><use xlink:href="#iZvz_-PtT3YO36B4VyDg_pad-1" x="4825.2" y="4283.9"/><use xlink:href="#iZvz_-PtT3YO36B4VyDg_pad-1" x="4972.8" y="5268.1"/><use xlink:href="#iZvz_-PtT3YO36B4VyDg_pad-1" x="5612.6" y="5809.4"/><use xlink:href="#iZvz_-PtT3YO36B4VyDg_pad-1" x="6055.5" y="5760.2"/><use xlink:href="#iZvz_-PtT3YO36B4VyDg_pad-1" x="6400" y="5366.5"/><use xlink:href="#iZvz_-PtT3YO36B4VyDg_pad-1" x="7925.6" y="5268.1"/><use xlink:href="#iZvz_-PtT3YO36B4VyDg_pad-1" x="8024" y="4677.6"/><use xlink:href="#iZvz_-PtT3YO36B4VyDg_pad-1" x="9402" y="4283.9"/><use xlink:href="#iZvz_-PtT3YO36B4VyDg_pad-1" x="9500.4" y="3693.3"/><use xlink:href="#iZvz_-PtT3YO36B4VyDg_pad-1" x="10140.2" y="3201.2"/><use xlink:href="#iZvz_-PtT3YO36B4VyDg_pad-1" x="11911.8" y="5317.3"/><use xlink:href="#iZvz_-PtT3YO36B4VyDg_pad-1" x="12846.9" y="5268.1"/><use xlink:href="#iZvz_-PtT3YO36B4VyDg_pad-1" x="9795.7" y="7138.2"/><use xlink:href="#iZvz_-PtT3YO36B4VyDg_pad-1" x="9106.7" y="6547.6"/><use xlink:href="#iZvz_-PtT3YO36B4VyDg_pad-1" x="8122.4" y="7039.8"/><use xlink:href="#iZvz_-PtT3YO36B4VyDg_pad-1" x="8024" y="6350.8"/><use xlink:href="#iZvz_-PtT3YO36B4VyDg_pad-1" x="9303.5" y="5661.8"/><use xlink:href="#iZvz_-PtT3YO36B4VyDg_pad-1" x="6842.9" y="7236.6"/><use xlink:href="#iZvz_-PtT3YO36B4VyDg_pad-1" x="6350.8" y="6350.8"/><use xlink:href="#iZvz_-PtT3YO36B4VyDg_pad-1" x="6153.9" y="3201.2"/><use xlink:href="#iZvz_-PtT3YO36B4VyDg_pad-1" x="8614.6" y="3496.5"/><use xlink:href="#iZvz_-PtT3YO36B4VyDg_pad-2" x="4094.9" y="3776"/><use xlink:href="#iZvz_-PtT3YO36B4VyDg_pad-2" x="3094.9" y="3776"/><use xlink:href="#iZvz_-PtT3YO36B4VyDg_pad-2" x="3094.9" y="4776"/><use xlink:href="#iZvz_-PtT3YO36B4VyDg_pad-2" x="4094.9" y="4776"/><use xlink:href="#iZvz_-PtT3YO36B4VyDg_pad-2" x="4094.9" y="5776"/><use xlink:href="#iZvz_-PtT3YO36B4VyDg_pad-2" x="3094.9" y="5776"/><use xlink:href="#iZvz_-PtT3YO36B4VyDg_pad-2" x="11362.6" y="5776"/><use xlink:href="#iZvz_-PtT3YO36B4VyDg_pad-2" x="12362.6" y="5776"/><use xlink:href="#iZvz_-PtT3YO36B4VyDg_pad-2" x="12362.6" y="4776"/><use xlink:href="#iZvz_-PtT3YO36B4VyDg_pad-2" x="11362.6" y="4776"/><use xlink:href="#iZvz_-PtT3YO36B4VyDg_pad-2" x="11362.6" y="3776"/><use xlink:href="#iZvz_-PtT3YO36B4VyDg_pad-2" x="12362.6" y="3776"/></g></svg>