<svg version="1.1" xmlns="http://www.w3.org/2000/svg" xmlns:xlink="http://www.w3.org/1999/xlink" stroke-linecap="round" stroke-linejoin="round" stroke-width="0" fill-rule="evenodd" width="1.1664700000000001in" height="0.55118in" viewBox="189.64 202.01 1166.47 551.18" id="aNXmwhgFPDj3D_ifPwPi"><defs><rect x="-21.655" y="-19.685" width="43.31" height="39.37" id="aNXmwhgFPDj3D_ifPwPi_pad-11"/><rect x="-19.685" y="-21.655" width="39.37" height="43.31" id="aNXmwhgFPDj3D_ifPwPi_pad-12"/><rect x="-13.78" y="-5.905" width="27.56" height="11.81" id="aNXmwhgFPDj3D_ifPwPi_pad-13"/><rect x="-19.685" y="-31.495" width="39.37" height="62.99" id="aNXmwhgFPDj3D_ifPwPi_pad-14"/><polygon points="11.90498,4.9312 4.9312,11.90498 -4.9312,11.90498 -11.90498,4.9312 -11.90498,-4.9312 -4.9312,-11.90498 4.9312,-11.90498 11.90498,-4.9312" id="aNXmwhgFPDj3D_ifPwPi_pad-16"/><polygon points="12.09998,5.01197 5.01197,12.09998 -5.01197,12.09998 -12.09998,5.01197 -12.09998,-5.01197 -5.01197,-12.09998 5.01197,-12.09998 12.09998,-5.01197" id="aNXmwhgFPDj3D_ifPwPi_pad-18"/></defs><g transform="translate(0,955.1999999999999) scale(1,-1)" fill="currentColor" stroke="currentColor"><path d="M 457.91 320.12 459.15 320.1 460.38 320.04 461.62 319.95 462.84 319.81 464.07 319.64 465.29 319.42 466.5 319.17 467.7 318.88 468.89 318.56 470.08 318.19 471.25 317.79 472.4 317.36 473.55 316.88 474.67 316.37 475.78 315.83 476.88 315.25 477.95 314.64 479.01 313.99 480.04 313.31 481.05 312.6 482.04 311.86 483.01 311.09 483.95 310.28 484.86 309.45 485.75 308.59 486.61 307.7 487.44 306.79 488.25 305.85 489.02 304.88 489.76 303.89 490.47 302.88 491.15 301.85 491.8 300.79 492.41 299.72 492.99 298.62 493.53 297.51 494.04 296.39 494.52 295.24 494.95 294.09 495.35 292.92 495.72 291.73 496.04 290.54 496.33 289.34 496.58 288.13 496.8 286.91 496.97 285.68 497.11 284.46 497.2 283.22 497.26 281.99 497.28 280.75 497.28 241.38 497.3 240.14 497.36 238.91 497.45 237.67 497.59 236.45 497.76 235.22 497.98 234 498.23 232.79 498.52 231.59 498.84 230.4 499.21 229.21 499.61 228.04 500.04 226.89 500.52 225.74 501.03 224.62 501.57 223.51 502.15 222.41 502.76 221.34 503.41 220.28 504.09 219.25 504.8 218.24 505.54 217.25 506.31 216.28 507.12 215.34 507.95 214.43 508.81 213.54 509.7 212.68 510.61 211.85 511.55 211.04 512.52 210.27 513.51 209.53 514.52 208.82 515.55 208.14 516.61 207.49 517.68 206.88 518.78 206.3 519.89 205.76 521.01 205.25 522.16 204.77 523.31 204.34 524.48 203.94 525.67 203.57 526.86 203.25 528.06 202.96 529.27 202.71 530.49 202.49 531.72 202.32 532.94 202.18 534.18 202.09 535.41 202.03 536.65 202.01 1009.09 202.01 1010.33 202.03 1011.56 202.09 1012.8 202.18 1014.02 202.32 1015.25 202.49 1016.47 202.71 1017.68 202.96 1018.88 203.25 1020.07 203.57 1021.26 203.94 1022.43 204.34 1023.58 204.77 1024.73 205.25 1025.85 205.76 1026.96 206.3 1028.06 206.88 1029.13 207.49 1030.19 208.14 1031.22 208.82 1032.23 209.53 1033.22 210.27 1034.19 211.04 1035.13 211.85 1036.04 212.68 1036.93 213.54 1037.79 214.43 1038.62 215.34 1039.43 216.28 1040.2 217.25 1040.94 218.24 1041.65 219.25 1042.33 220.28 1042.98 221.34 1043.59 222.41 1044.17 223.51 1044.71 224.62 1045.22 225.74 1045.7 226.89 1046.13 228.04 1046.53 229.21 1046.9 230.4 1047.22 231.59 1047.51 232.79 1047.76 234 1047.98 235.22 1048.15 236.45 1048.29 237.67 1048.38 238.91 1048.44 240.14 1048.46 241.38 1048.46 280.75 1048.48 281.99 1048.54 283.22 1048.63 284.46 1048.77 285.68 1048.94 286.91 1049.16 288.13 1049.41 289.34 1049.7 290.54 1050.02 291.73 1050.39 292.92 1050.79 294.09 1051.22 295.24 1051.7 296.39 1052.21 297.51 1052.75 298.62 1053.33 299.72 1053.94 300.79 1054.59 301.85 1055.27 302.88 1055.98 303.89 1056.72 304.88 1057.49 305.85 1058.3 306.79 1059.13 307.7 1059.99 308.59 1060.88 309.45 1061.79 310.28 1062.73 311.09 1063.7 311.86 1064.69 312.6 1065.7 313.31 1066.73 313.99 1067.79 314.64 1068.86 315.25 1069.96 315.83 1071.07 316.37 1072.19 316.88 1073.34 317.36 1074.49 317.79 1075.66 318.19 1076.85 318.56 1078.04 318.88 1079.24 319.17 1080.45 319.42 1081.67 319.64 1082.9 319.81 1084.12 319.95 1085.36 320.04 1086.59 320.1 1087.83 320.12 1316.74 320.12 1317.98 320.14 1319.21 320.2 1320.45 320.29 1321.67 320.43 1322.9 320.6 1324.12 320.82 1325.33 321.07 1326.53 321.36 1327.72 321.68 1328.91 322.05 1330.08 322.45 1331.23 322.88 1332.38 323.36 1333.5 323.87 1334.61 324.41 1335.71 324.99 1336.78 325.6 1337.84 326.25 1338.87 326.93 1339.88 327.64 1340.87 328.38 1341.84 329.15 1342.78 329.96 1343.69 330.79 1344.58 331.65 1345.44 332.54 1346.27 333.45 1347.08 334.39 1347.85 335.36 1348.59 336.35 1349.3 337.36 1349.98 338.39 1350.63 339.45 1351.24 340.52 1351.82 341.62 1352.36 342.73 1352.87 343.85 1353.35 345 1353.78 346.15 1354.18 347.32 1354.55 348.51 1354.87 349.7 1355.16 350.9 1355.41 352.11 1355.63 353.33 1355.8 354.56 1355.94 355.78 1356.03 357.02 1356.09 358.25 1356.11 359.49 1356.11 595.71 1356.09 596.95 1356.03 598.18 1355.94 599.42 1355.8 600.64 1355.63 601.87 1355.41 603.09 1355.16 604.3 1354.87 605.5 1354.55 606.69 1354.18 607.88 1353.78 609.05 1353.35 610.2 1352.87 611.35 1352.36 612.47 1351.82 613.58 1351.24 614.68 1350.63 615.75 1349.98 616.81 1349.3 617.84 1348.59 618.85 1347.85 619.84 1347.08 620.81 1346.27 621.75 1345.44 622.66 1344.58 623.55 1343.69 624.41 1342.78 625.24 1341.84 626.05 1340.87 626.82 1339.88 627.56 1338.87 628.27 1337.84 628.95 1336.78 629.6 1335.71 630.21 1334.61 630.79 1333.5 631.33 1332.38 631.84 1331.23 632.32 1330.08 632.75 1328.91 633.15 1327.72 633.52 1326.53 633.84 1325.33 634.13 1324.12 634.38 1322.9 634.6 1321.67 634.77 1320.45 634.91 1319.21 635 1317.98 635.06 1316.74 635.08 1087.83 635.08 1086.59 635.1 1085.36 635.16 1084.12 635.25 1082.9 635.39 1081.67 635.56 1080.45 635.78 1079.24 636.03 1078.04 636.32 1076.85 636.64 1075.66 637.01 1074.49 637.41 1073.34 637.84 1072.19 638.32 1071.07 638.83 1069.96 639.37 1068.86 639.95 1067.79 640.56 1066.73 641.21 1065.7 641.89 1064.69 642.6 1063.7 643.34 1062.73 644.11 1061.79 644.92 1060.88 645.75 1059.99 646.61 1059.13 647.5 1058.3 648.41 1057.49 649.35 1056.72 650.32 1055.98 651.31 1055.27 652.32 1054.59 653.35 1053.94 654.41 1053.33 655.48 1052.75 656.58 1052.21 657.69 1051.7 658.81 1051.22 659.96 1050.79 661.11 1050.39 662.28 1050.02 663.47 1049.7 664.66 1049.41 665.86 1049.16 667.07 1048.94 668.29 1048.77 669.52 1048.63 670.74 1048.54 671.98 1048.48 673.21 1048.46 674.45 1048.46 713.82 1048.44 715.06 1048.38 716.29 1048.29 717.53 1048.15 718.75 1047.98 719.98 1047.76 721.2 1047.51 722.41 1047.22 723.61 1046.9 724.8 1046.53 725.99 1046.13 727.16 1045.7 728.31 1045.22 729.46 1044.71 730.58 1044.17 731.69 1043.59 732.79 1042.98 733.86 1042.33 734.92 1041.65 735.95 1040.94 736.96 1040.2 737.95 1039.43 738.92 1038.62 739.86 1037.79 740.77 1036.93 741.66 1036.04 742.52 1035.13 743.35 1034.19 744.16 1033.22 744.93 1032.23 745.67 1031.22 746.38 1030.19 747.06 1029.13 747.71 1028.06 748.32 1026.96 748.9 1025.85 749.44 1024.73 749.95 1023.58 750.43 1022.43 750.86 1021.26 751.26 1020.07 751.63 1018.88 751.95 1017.68 752.24 1016.47 752.49 1015.25 752.71 1014.02 752.88 1012.8 753.02 1011.56 753.11 1010.33 753.17 1009.09 753.19 536.65 753.19 535.41 753.17 534.18 753.11 532.94 753.02 531.72 752.88 530.49 752.71 529.27 752.49 528.06 752.24 526.86 751.95 525.67 751.63 524.48 751.26 523.31 750.86 522.16 750.43 521.01 749.95 519.89 749.44 518.78 748.9 517.68 748.32 516.61 747.71 515.55 747.06 514.52 746.38 513.51 745.67 512.52 744.93 511.55 744.16 510.61 743.35 509.7 742.52 508.81 741.66 507.95 740.77 507.12 739.86 506.31 738.92 505.54 737.95 504.8 736.96 504.09 735.95 503.41 734.92 502.76 733.86 502.15 732.79 501.57 731.69 501.03 730.58 500.52 729.46 500.04 728.31 499.61 727.16 499.21 725.99 498.84 724.8 498.52 723.61 498.23 722.41 497.98 721.2 497.76 719.98 497.59 718.75 497.45 717.53 497.36 716.29 497.3 715.06 497.28 713.82 497.28 674.45 497.26 673.21 497.2 671.98 497.11 670.74 496.97 669.52 496.8 668.29 496.58 667.07 496.33 665.86 496.04 664.66 495.72 663.47 495.35 662.28 494.95 661.11 494.52 659.96 494.04 658.81 493.53 657.69 492.99 656.58 492.41 655.48 491.8 654.41 491.15 653.35 490.47 652.32 489.76 651.31 489.02 650.32 488.25 649.35 487.44 648.41 486.61 647.5 485.75 646.61 484.86 645.75 483.95 644.92 483.01 644.11 482.04 643.34 481.05 642.6 480.04 641.89 479.01 641.21 477.95 640.56 476.88 639.95 475.78 639.37 474.67 638.83 473.55 638.32 472.4 637.84 471.25 637.41 470.08 637.01 468.89 636.64 467.7 636.32 466.5 636.03 465.29 635.78 464.07 635.56 462.84 635.39 461.62 635.25 460.38 635.16 459.15 635.1 457.91 635.08 229.01 635.08 227.77 635.06 226.54 635 225.3 634.91 224.08 634.77 222.85 634.6 221.63 634.38 220.42 634.13 219.22 633.84 218.03 633.52 216.84 633.15 215.67 632.75 214.52 632.32 213.37 631.84 212.25 631.33 211.14 630.79 210.04 630.21 208.97 629.6 207.91 628.95 206.88 628.27 205.87 627.56 204.88 626.82 203.91 626.05 202.97 625.24 202.06 624.41 201.17 623.55 200.31 622.66 199.48 621.75 198.67 620.81 197.9 619.84 197.16 618.85 196.45 617.84 195.77 616.81 195.12 615.75 194.51 614.68 193.93 613.58 193.39 612.47 192.88 611.35 192.4 610.2 191.97 609.05 191.57 607.88 191.2 606.69 190.88 605.5 190.59 604.3 190.34 603.09 190.12 601.87 189.95 600.64 189.81 599.42 189.72 598.18 189.66 596.95 189.64 595.71 189.64 359.49 189.66 358.25 189.72 357.02 189.81 355.78 189.95 354.56 190.12 353.33 190.34 352.11 190.59 350.9 190.88 349.7 191.2 348.51 191.57 347.32 191.97 346.15 192.4 345 192.88 343.85 193.39 342.73 193.93 341.62 194.51 340.52 195.12 339.45 195.77 338.39 196.45 337.36 197.16 336.35 197.9 335.36 198.67 334.39 199.48 333.45 200.31 332.54 201.17 331.65 202.06 330.79 202.97 329.96 203.91 329.15 204.88 328.38 205.87 327.64 206.88 326.93 207.91 326.25 208.97 325.6 210.04 324.99 211.14 324.41 212.25 323.87 213.37 323.36 214.52 322.88 215.67 322.45 216.84 322.05 218.03 321.68 219.22 321.36 220.42 321.07 221.63 320.82 222.85 320.6 224.08 320.43 225.3 320.29 226.54 320.2 227.77 320.14 229.01 320.12 457.91 320.12 M 387.84 377.6 387.86 378.53 387.92 379.45 388.02 380.37 388.16 381.28 388.33 382.19 388.55 383.09 388.8 383.98 389.09 384.86 389.42 385.72 389.79 386.57 390.19 387.41 390.63 388.22 391.1 389.02 391.6 389.8 392.14 390.55 392.71 391.28 393.31 391.98 393.94 392.66 394.6 393.31 395.28 393.93 395.99 394.53 396.73 395.09 397.49 395.62 398.27 396.11 399.07 396.58 399.89 397 400.73 397.4 401.58 397.75 402.45 398.07 403.33 398.36 404.22 398.6 405.12 398.81 406.03 398.97 406.95 399.1 407.87 399.19 408.8 399.24 409.72 399.25 410.65 399.22 411.57 399.15 412.49 399.04 413.4 398.89 414.31 398.71 415.21 398.48 416.09 398.22 416.97 397.92 417.83 397.58 418.67 397.21 419.5 396.79 420.31 396.35 421.11 395.87 421.88 395.36 422.62 394.81 423.35 394.23 424.05 393.63 424.72 392.99 425.36 392.33 425.98 391.63 426.56 390.92 427.11 390.18 427.63 389.41 428.12 388.62 428.58 387.82 429 386.99 429.38 386.15 429.73 385.29 430.04 384.42 430.31 383.54 430.54 382.64 430.74 381.74 430.9 380.83 431.02 379.91 431.1 378.99 431.14 378.06 431.14 377.14 431.1 376.21 431.02 375.29 430.9 374.37 430.74 373.46 430.54 372.56 430.31 371.66 430.04 370.78 429.73 369.91 429.38 369.05 429 368.21 428.58 367.38 428.12 366.58 427.63 365.79 427.11 365.02 426.56 364.28 425.98 363.57 425.36 362.87 424.72 362.21 424.05 361.57 423.35 360.97 422.62 360.39 421.88 359.84 421.11 359.33 420.32 358.85 419.5 358.41 418.67 357.99 417.83 357.62 416.97 357.28 416.09 356.98 415.21 356.72 414.31 356.49 413.4 356.31 412.49 356.16 411.57 356.05 410.65 355.98 409.72 355.95 408.8 355.96 407.87 356.01 406.95 356.1 406.03 356.23 405.12 356.39 404.22 356.6 403.33 356.84 402.45 357.13 401.58 357.45 400.73 357.8 399.89 358.2 399.07 358.62 398.27 359.09 397.49 359.58 396.73 360.11 395.99 360.67 395.28 361.27 394.6 361.89 393.94 362.54 393.31 363.22 392.71 363.92 392.14 364.65 391.6 365.4 391.1 366.18 390.63 366.98 390.19 367.79 389.79 368.63 389.42 369.48 389.09 370.34 388.8 371.22 388.55 372.11 388.33 373.01 388.16 373.92 388.02 374.83 387.92 375.75 387.86 376.67 387.84 377.6 M 287.84 377.6 287.86 378.53 287.92 379.45 288.02 380.37 288.16 381.28 288.33 382.19 288.55 383.09 288.8 383.98 289.09 384.86 289.42 385.72 289.79 386.57 290.19 387.41 290.63 388.22 291.1 389.02 291.6 389.8 292.14 390.55 292.71 391.28 293.31 391.98 293.94 392.66 294.6 393.31 295.28 393.93 295.99 394.53 296.73 395.09 297.49 395.62 298.27 396.11 299.07 396.58 299.89 397 300.73 397.4 301.58 397.75 302.45 398.07 303.33 398.36 304.22 398.6 305.12 398.81 306.03 398.97 306.95 399.1 307.87 399.19 308.8 399.24 309.72 399.25 310.65 399.22 311.57 399.15 312.49 399.04 313.4 398.89 314.31 398.71 315.21 398.48 316.09 398.22 316.97 397.92 317.83 397.58 318.67 397.21 319.5 396.79 320.31 396.35 321.11 395.87 321.88 395.36 322.62 394.81 323.35 394.23 324.05 393.63 324.72 392.99 325.36 392.33 325.98 391.63 326.56 390.92 327.11 390.18 327.63 389.41 328.12 388.62 328.58 387.82 329 386.99 329.38 386.15 329.73 385.29 330.04 384.42 330.31 383.54 330.54 382.64 330.74 381.74 330.9 380.83 331.02 379.91 331.1 378.99 331.14 378.06 331.14 377.14 331.1 376.21 331.02 375.29 330.9 374.37 330.74 373.46 330.54 372.56 330.31 371.66 330.04 370.78 329.73 369.91 329.38 369.05 329 368.21 328.58 367.38 328.12 366.58 327.63 365.79 327.11 365.02 326.56 364.28 325.98 363.57 325.36 362.87 324.72 362.21 324.05 361.57 323.35 360.97 322.62 360.39 321.88 359.84 321.11 359.33 320.32 358.85 319.5 358.41 318.67 357.99 317.83 357.62 316.97 357.28 316.09 356.98 315.21 356.72 314.31 356.49 313.4 356.31 312.49 356.16 311.57 356.05 310.65 355.98 309.72 355.95 308.8 355.96 307.87 356.01 306.95 356.1 306.03 356.23 305.12 356.39 304.22 356.6 303.33 356.84 302.45 357.13 301.58 357.45 300.73 357.8 299.89 358.2 299.07 358.62 298.27 359.09 297.49 359.58 296.73 360.11 295.99 360.67 295.28 361.27 294.6 361.89 293.94 362.54 293.31 363.22 292.71 363.92 292.14 364.65 291.6 365.4 291.1 366.18 290.63 366.98 290.19 367.79 289.79 368.63 289.42 369.48 289.09 370.34 288.8 371.22 288.55 372.11 288.33 373.01 288.16 373.92 288.02 374.83 287.92 375.75 287.86 376.67 287.84 377.6 M 287.84 477.6 287.86 478.53 287.92 479.45 288.02 480.37 288.16 481.28 288.33 482.19 288.55 483.09 288.8 483.98 289.09 484.86 289.42 485.72 289.79 486.57 290.19 487.41 290.63 488.22 291.1 489.02 291.6 489.8 292.14 490.55 292.71 491.28 293.31 491.98 293.94 492.66 294.6 493.31 295.28 493.93 295.99 494.53 296.73 495.09 297.49 495.62 298.27 496.11 299.07 496.58 299.89 497 300.73 497.4 301.58 497.75 302.45 498.07 303.33 498.36 304.22 498.6 305.12 498.81 306.03 498.97 306.95 499.1 307.87 499.19 308.8 499.24 309.72 499.25 310.65 499.22 311.57 499.15 312.49 499.04 313.4 498.89 314.31 498.71 315.21 498.48 316.09 498.22 316.97 497.92 317.83 497.58 318.67 497.21 319.5 496.79 320.31 496.35 321.11 495.87 321.88 495.36 322.62 494.81 323.35 494.23 324.05 493.63 324.72 492.99 325.36 492.33 325.98 491.63 326.56 490.92 327.11 490.18 327.63 489.41 328.12 488.62 328.58 487.82 329 486.99 329.38 486.15 329.73 485.29 330.04 484.42 330.31 483.54 330.54 482.64 330.74 481.74 330.9 480.83 331.02 479.91 331.1 478.99 331.14 478.06 331.14 477.14 331.1 476.21 331.02 475.29 330.9 474.37 330.74 473.46 330.54 472.56 330.31 471.66 330.04 470.78 329.73 469.91 329.38 469.05 329 468.21 328.58 467.38 328.12 466.58 327.63 465.79 327.11 465.02 326.56 464.28 325.98 463.57 325.36 462.87 324.72 462.21 324.05 461.57 323.35 460.97 322.62 460.39 321.88 459.84 321.11 459.33 320.32 458.85 319.5 458.41 318.67 457.99 317.83 457.62 316.97 457.28 316.09 456.98 315.21 456.72 314.31 456.49 313.4 456.31 312.49 456.16 311.57 456.05 310.65 455.98 309.72 455.95 308.8 455.96 307.87 456.01 306.95 456.1 306.03 456.23 305.12 456.39 304.22 456.6 303.33 456.84 302.45 457.13 301.58 457.45 300.73 457.8 299.89 458.2 299.07 458.62 298.27 459.09 297.49 459.58 296.73 460.11 295.99 460.67 295.28 461.27 294.6 461.89 293.94 462.54 293.31 463.22 292.71 463.92 292.14 464.65 291.6 465.4 291.1 466.18 290.63 466.98 290.19 467.79 289.79 468.63 289.42 469.48 289.09 470.34 288.8 471.22 288.55 472.11 288.33 473.01 288.16 473.92 288.02 474.83 287.92 475.75 287.86 476.67 287.84 477.6 M 387.84 477.6 387.86 478.53 387.92 479.45 388.02 480.37 388.16 481.28 388.33 482.19 388.55 483.09 388.8 483.98 389.09 484.86 389.42 485.72 389.79 486.57 390.19 487.41 390.63 488.22 391.1 489.02 391.6 489.8 392.14 490.55 392.71 491.28 393.31 491.98 393.94 492.66 394.6 493.31 395.28 493.93 395.99 494.53 396.73 495.09 397.49 495.62 398.27 496.11 399.07 496.58 399.89 497 400.73 497.4 401.58 497.75 402.45 498.07 403.33 498.36 404.22 498.6 405.12 498.81 406.03 498.97 406.95 499.1 407.87 499.19 408.8 499.24 409.72 499.25 410.65 499.22 411.57 499.15 412.49 499.04 413.4 498.89 414.31 498.71 415.21 498.48 416.09 498.22 416.97 497.92 417.83 497.58 418.67 497.21 419.5 496.79 420.31 496.35 421.11 495.87 421.88 495.36 422.62 494.81 423.35 494.23 424.05 493.63 424.72 492.99 425.36 492.33 425.98 491.63 426.56 490.92 427.11 490.18 427.63 489.41 428.12 488.62 428.58 487.82 429 486.99 429.38 486.15 429.73 485.29 430.04 484.42 430.31 483.54 430.54 482.64 430.74 481.74 430.9 480.83 431.02 479.91 431.1 478.99 431.14 478.06 431.14 477.14 431.1 476.21 431.02 475.29 430.9 474.37 430.74 473.46 430.54 472.56 430.31 471.66 430.04 470.78 429.73 469.91 429.38 469.05 429 468.21 428.58 467.38 428.12 466.58 427.63 465.79 427.11 465.02 426.56 464.28 425.98 463.57 425.36 462.87 424.72 462.21 424.05 461.57 423.35 460.97 422.62 460.39 421.88 459.84 421.11 459.33 420.32 458.85 419.5 458.41 418.67 457.99 417.83 457.62 416.97 457.28 416.09 456.98 415.21 456.72 414.31 456.49 413.4 456.31 412.49 456.16 411.57 456.05 410.65 455.98 409.72 455.95 408.8 455.96 407.87 456.01 406.95 456.1 406.03 456.23 405.12 456.39 404.22 456.6 403.33 456.84 402.45 457.13 401.58 457.45 400.73 457.8 399.89 458.2 399.07 458.62 398.27 459.09 397.49 459.58 396.73 460.11 395.99 460.67 395.28 461.27 394.6 461.89 393.94 462.54 393.31 463.22 392.71 463.92 392.14 464.65 391.6 465.4 391.1 466.18 390.63 466.98 390.19 467.79 389.79 468.63 389.42 469.48 389.09 470.34 388.8 471.22 388.55 472.11 388.33 473.01 388.16 473.92 388.02 474.83 387.92 475.75 387.86 476.67 387.84 477.6 M 387.84 577.6 387.86 578.53 387.92 579.45 388.02 580.37 388.16 581.28 388.33 582.19 388.55 583.09 388.8 583.98 389.09 584.86 389.42 585.72 389.79 586.57 390.19 587.41 390.63 588.22 391.1 589.02 391.6 589.8 392.14 590.55 392.71 591.28 393.31 591.98 393.94 592.66 394.6 593.31 395.28 593.93 395.99 594.53 396.73 595.09 397.49 595.62 398.27 596.11 399.07 596.58 399.89 597 400.73 597.4 401.58 597.75 402.45 598.07 403.33 598.36 404.22 598.6 405.12 598.81 406.03 598.97 406.95 599.1 407.87 599.19 408.8 599.24 409.72 599.25 410.65 599.22 411.57 599.15 412.49 599.04 413.4 598.89 414.31 598.71 415.21 598.48 416.09 598.22 416.97 597.92 417.83 597.58 418.67 597.21 419.5 596.79 420.31 596.35 421.11 595.87 421.88 595.36 422.62 594.81 423.35 594.23 424.05 593.63 424.72 592.99 425.36 592.33 425.98 591.63 426.56 590.92 427.11 590.18 427.63 589.41 428.12 588.62 428.58 587.82 429 586.99 429.38 586.15 429.73 585.29 430.04 584.42 430.31 583.54 430.54 582.64 430.74 581.74 430.9 580.83 431.02 579.91 431.1 578.99 431.14 578.06 431.14 577.14 431.1 576.21 431.02 575.29 430.9 574.37 430.74 573.46 430.54 572.56 430.31 571.66 430.04 570.78 429.73 569.91 429.38 569.05 429 568.21 428.58 567.38 428.12 566.58 427.63 565.79 427.11 565.02 426.56 564.28 425.98 563.57 425.36 562.87 424.72 562.21 424.05 561.57 423.35 560.97 422.62 560.39 421.88 559.84 421.11 559.33 420.32 558.85 419.5 558.41 418.67 557.99 417.83 557.62 416.97 557.28 416.09 556.98 415.21 556.72 414.31 556.49 413.4 556.31 412.49 556.16 411.57 556.05 410.65 555.98 409.72 555.95 408.8 555.96 407.87 556.01 406.95 556.1 406.03 556.23 405.12 556.39 404.22 556.6 403.33 556.84 402.45 557.13 401.58 557.45 400.73 557.8 399.89 558.2 399.07 558.62 398.27 559.09 397.49 559.58 396.73 560.11 395.99 560.67 395.28 561.27 394.6 561.89 393.94 562.54 393.31 563.22 392.71 563.92 392.14 564.65 391.6 565.4 391.1 566.18 390.63 566.98 390.19 567.79 389.79 568.63 389.42 569.48 389.09 570.34 388.8 571.22 388.55 572.11 388.33 573.01 388.16 573.92 388.02 574.83 387.92 575.75 387.86 576.67 387.84 577.6 M 287.84 577.6 287.86 578.53 287.92 579.45 288.02 580.37 288.16 581.28 288.33 582.19 288.55 583.09 288.8 583.98 289.09 584.86 289.42 585.72 289.79 586.57 290.19 587.41 290.63 588.22 291.1 589.02 291.6 589.8 292.14 590.55 292.71 591.28 293.31 591.98 293.94 592.66 294.6 593.31 295.28 593.93 295.99 594.53 296.73 595.09 297.49 595.62 298.27 596.11 299.07 596.58 299.89 597 300.73 597.4 301.58 597.75 302.45 598.07 303.33 598.36 304.22 598.6 305.12 598.81 306.03 598.97 306.95 599.1 307.87 599.19 308.8 599.24 309.72 599.25 310.65 599.22 311.57 599.15 312.49 599.04 313.4 598.89 314.31 598.71 315.21 598.48 316.09 598.22 316.97 597.92 317.83 597.58 318.67 597.21 319.5 596.79 320.31 596.35 321.11 595.87 321.88 595.36 322.62 594.81 323.35 594.23 324.05 593.63 324.72 592.99 325.36 592.33 325.98 591.63 326.56 590.92 327.11 590.18 327.63 589.41 328.12 588.62 328.58 587.82 329 586.99 329.38 586.15 329.73 585.29 330.04 584.42 330.31 583.54 330.54 582.64 330.74 581.74 330.9 580.83 331.02 579.91 331.1 578.99 331.14 578.06 331.14 577.14 331.1 576.21 331.02 575.29 330.9 574.37 330.74 573.46 330.54 572.56 330.31 571.66 330.04 570.78 329.73 569.91 329.38 569.05 329 568.21 328.58 567.38 328.12 566.58 327.63 565.79 327.11 565.02 326.56 564.28 325.98 563.57 325.36 562.87 324.72 562.21 324.05 561.57 323.35 560.97 322.62 560.39 321.88 559.84 321.11 559.33 320.32 558.85 319.5 558.41 318.67 557.99 317.83 557.62 316.97 557.28 316.09 556.98 315.21 556.72 314.31 556.49 313.4 556.31 312.49 556.16 311.57 556.05 310.65 555.98 309.72 555.95 308.8 555.96 307.87 556.01 306.95 556.1 306.03 556.23 305.12 556.39 304.22 556.6 303.33 556.84 302.45 557.13 301.58 557.45 300.73 557.8 299.89 558.2 299.07 558.62 298.27 559.09 297.49 559.58 296.73 560.11 295.99 560.67 295.28 561.27 294.6 561.89 293.94 562.54 293.31 563.22 292.71 563.92 292.14 564.65 291.6 565.4 291.1 566.18 290.63 566.98 290.19 567.79 289.79 568.63 289.42 569.48 289.09 570.34 288.8 571.22 288.55 572.11 288.33 573.01 288.16 573.92 288.02 574.83 287.92 575.75 287.86 576.67 287.84 577.6 M 1114.61 577.6 1114.63 578.53 1114.69 579.45 1114.79 580.37 1114.93 581.28 1115.1 582.19 1115.32 583.09 1115.57 583.98 1115.86 584.86 1116.19 585.72 1116.56 586.57 1116.96 587.41 1117.4 588.22 1117.87 589.02 1118.37 589.8 1118.91 590.55 1119.48 591.28 1120.08 591.98 1120.71 592.66 1121.37 593.31 1122.05 593.93 1122.76 594.53 1123.5 595.09 1124.26 595.62 1125.04 596.11 1125.84 596.58 1126.66 597 1127.5 597.4 1128.35 597.75 1129.22 598.07 1130.1 598.36 1130.99 598.6 1131.89 598.81 1132.8 598.97 1133.72 599.1 1134.64 599.19 1135.57 599.24 1136.49 599.25 1137.42 599.22 1138.34 599.15 1139.26 599.04 1140.17 598.89 1141.08 598.71 1141.98 598.48 1142.86 598.22 1143.74 597.92 1144.6 597.58 1145.44 597.21 1146.27 596.79 1147.08 596.35 1147.88 595.87 1148.65 595.36 1149.39 594.81 1150.12 594.23 1150.82 593.63 1151.49 592.99 1152.13 592.33 1152.75 591.63 1153.33 590.92 1153.88 590.18 1154.4 589.41 1154.89 588.62 1155.35 587.82 1155.77 586.99 1156.15 586.15 1156.5 585.29 1156.81 584.42 1157.08 583.54 1157.31 582.64 1157.51 581.74 1157.67 580.83 1157.79 579.91 1157.87 578.99 1157.91 578.06 1157.91 577.14 1157.87 576.21 1157.79 575.29 1157.67 574.37 1157.51 573.46 1157.31 572.56 1157.08 571.66 1156.81 570.78 1156.5 569.91 1156.15 569.05 1155.77 568.21 1155.35 567.38 1154.89 566.58 1154.4 565.79 1153.88 565.02 1153.33 564.28 1152.75 563.57 1152.13 562.87 1151.49 562.21 1150.82 561.57 1150.12 560.97 1149.39 560.39 1148.65 559.84 1147.88 559.33 1147.09 558.85 1146.27 558.41 1145.44 557.99 1144.6 557.62 1143.74 557.28 1142.86 556.98 1141.98 556.72 1141.08 556.49 1140.17 556.31 1139.26 556.16 1138.34 556.05 1137.42 555.98 1136.49 555.95 1135.57 555.96 1134.64 556.01 1133.72 556.1 1132.8 556.23 1131.89 556.39 1130.99 556.6 1130.1 556.84 1129.22 557.13 1128.35 557.45 1127.5 557.8 1126.66 558.2 1125.84 558.62 1125.04 559.09 1124.26 559.58 1123.5 560.11 1122.76 560.67 1122.05 561.27 1121.37 561.89 1120.71 562.54 1120.08 563.22 1119.48 563.92 1118.91 564.65 1118.37 565.4 1117.87 566.18 1117.4 566.98 1116.96 567.79 1116.56 568.63 1116.19 569.48 1115.86 570.34 1115.57 571.22 1115.32 572.11 1115.1 573.01 1114.93 573.92 1114.79 574.83 1114.69 575.75 1114.63 576.67 1114.61 577.6 M 1214.61 577.6 1214.63 578.53 1214.69 579.45 1214.79 580.37 1214.93 581.28 1215.1 582.19 1215.32 583.09 1215.57 583.98 1215.86 584.86 1216.19 585.72 1216.56 586.57 1216.96 587.41 1217.4 588.22 1217.87 589.02 1218.37 589.8 1218.91 590.55 1219.48 591.28 1220.08 591.98 1220.71 592.66 1221.37 593.31 1222.05 593.93 1222.76 594.53 1223.5 595.09 1224.26 595.62 1225.04 596.11 1225.84 596.58 1226.66 597 1227.5 597.4 1228.35 597.75 1229.22 598.07 1230.1 598.36 1230.99 598.6 1231.89 598.81 1232.8 598.97 1233.72 599.1 1234.64 599.19 1235.57 599.24 1236.49 599.25 1237.42 599.22 1238.34 599.15 1239.26 599.04 1240.17 598.89 1241.08 598.71 1241.98 598.48 1242.86 598.22 1243.74 597.92 1244.6 597.58 1245.44 597.21 1246.27 596.79 1247.08 596.35 1247.88 595.87 1248.65 595.36 1249.39 594.81 1250.12 594.23 1250.82 593.63 1251.49 592.99 1252.13 592.33 1252.75 591.63 1253.33 590.92 1253.88 590.18 1254.4 589.41 1254.89 588.62 1255.35 587.82 1255.77 586.99 1256.15 586.15 1256.5 585.29 1256.81 584.42 1257.08 583.54 1257.31 582.64 1257.51 581.74 1257.67 580.83 1257.79 579.91 1257.87 578.99 1257.91 578.06 1257.91 577.14 1257.87 576.21 1257.79 575.29 1257.67 574.37 1257.51 573.46 1257.31 572.56 1257.08 571.66 1256.81 570.78 1256.5 569.91 1256.15 569.05 1255.77 568.21 1255.35 567.38 1254.89 566.58 1254.4 565.79 1253.88 565.02 1253.33 564.28 1252.75 563.57 1252.13 562.87 1251.49 562.21 1250.82 561.57 1250.12 560.97 1249.39 560.39 1248.65 559.84 1247.88 559.33 1247.09 558.85 1246.27 558.41 1245.44 557.99 1244.6 557.62 1243.74 557.28 1242.86 556.98 1241.98 556.72 1241.08 556.49 1240.17 556.31 1239.26 556.16 1238.34 556.05 1237.42 555.98 1236.49 555.95 1235.57 555.96 1234.64 556.01 1233.72 556.1 1232.8 556.23 1231.89 556.39 1230.99 556.6 1230.1 556.84 1229.22 557.13 1228.35 557.45 1227.5 557.8 1226.66 558.2 1225.84 558.62 1225.04 559.09 1224.26 559.58 1223.5 560.11 1222.76 560.67 1222.05 561.27 1221.37 561.89 1220.71 562.54 1220.08 563.22 1219.48 563.92 1218.91 564.65 1218.37 565.4 1217.87 566.18 1217.4 566.98 1216.96 567.79 1216.56 568.63 1216.19 569.48 1215.86 570.34 1215.57 571.22 1215.32 572.11 1215.1 573.01 1214.93 573.92 1214.79 574.83 1214.69 575.75 1214.63 576.67 1214.61 577.6 M 1214.61 477.6 1214.63 478.53 1214.69 479.45 1214.79 480.37 1214.93 481.28 1215.1 482.19 1215.32 483.09 1215.57 483.98 1215.86 484.86 1216.19 485.72 1216.56 486.57 1216.96 487.41 1217.4 488.22 1217.87 489.02 1218.37 489.8 1218.91 490.55 1219.48 491.28 1220.08 491.98 1220.71 492.66 1221.37 493.31 1222.05 493.93 1222.76 494.53 1223.5 495.09 1224.26 495.62 1225.04 496.11 1225.84 496.58 1226.66 497 1227.5 497.4 1228.35 497.75 1229.22 498.07 1230.1 498.36 1230.99 498.6 1231.89 498.81 1232.8 498.97 1233.72 499.1 1234.64 499.19 1235.57 499.24 1236.49 499.25 1237.42 499.22 1238.34 499.15 1239.26 499.04 1240.17 498.89 1241.08 498.71 1241.98 498.48 1242.86 498.22 1243.74 497.92 1244.6 497.58 1245.44 497.21 1246.27 496.79 1247.08 496.35 1247.88 495.87 1248.65 495.36 1249.39 494.81 1250.12 494.23 1250.82 493.63 1251.49 492.99 1252.13 492.33 1252.75 491.63 1253.33 490.92 1253.88 490.18 1254.4 489.41 1254.89 488.62 1255.35 487.82 1255.77 486.99 1256.15 486.15 1256.5 485.29 1256.81 484.42 1257.08 483.54 1257.31 482.64 1257.51 481.74 1257.67 480.83 1257.79 479.91 1257.87 478.99 1257.91 478.06 1257.91 477.14 1257.87 476.21 1257.79 475.29 1257.67 474.37 1257.51 473.46 1257.31 472.56 1257.08 471.66 1256.81 470.78 1256.5 469.91 1256.15 469.05 1255.77 468.21 1255.35 467.38 1254.89 466.58 1254.4 465.79 1253.88 465.02 1253.33 464.28 1252.75 463.57 1252.13 462.87 1251.49 462.21 1250.82 461.57 1250.12 460.97 1249.39 460.39 1248.65 459.84 1247.88 459.33 1247.09 458.85 1246.27 458.41 1245.44 457.99 1244.6 457.62 1243.74 457.28 1242.86 456.98 1241.98 456.72 1241.08 456.49 1240.17 456.31 1239.26 456.16 1238.34 456.05 1237.42 455.98 1236.49 455.95 1235.57 455.96 1234.64 456.01 1233.72 456.1 1232.8 456.23 1231.89 456.39 1230.99 456.6 1230.1 456.84 1229.22 457.13 1228.35 457.45 1227.5 457.8 1226.66 458.2 1225.84 458.62 1225.04 459.09 1224.26 459.58 1223.5 460.11 1222.76 460.67 1222.05 461.27 1221.37 461.89 1220.71 462.54 1220.08 463.22 1219.48 463.92 1218.91 464.65 1218.37 465.4 1217.87 466.18 1217.4 466.98 1216.96 467.79 1216.56 468.63 1216.19 469.48 1215.86 470.34 1215.57 471.22 1215.32 472.11 1215.1 473.01 1214.93 473.92 1214.79 474.83 1214.69 475.75 1214.63 476.67 1214.61 477.6 M 1114.61 477.6 1114.63 478.53 1114.69 479.45 1114.79 480.37 1114.93 481.28 1115.1 482.19 1115.32 483.09 1115.57 483.98 1115.86 484.86 1116.19 485.72 1116.56 486.57 1116.96 487.41 1117.4 488.22 1117.87 489.02 1118.37 489.8 1118.91 490.55 1119.48 491.28 1120.08 491.98 1120.71 492.66 1121.37 493.31 1122.05 493.93 1122.76 494.53 1123.5 495.09 1124.26 495.62 1125.04 496.11 1125.84 496.58 1126.66 497 1127.5 497.4 1128.35 497.75 1129.22 498.07 1130.1 498.36 1130.99 498.6 1131.89 498.81 1132.8 498.97 1133.72 499.1 1134.64 499.19 1135.57 499.24 1136.49 499.25 1137.42 499.22 1138.34 499.15 1139.26 499.04 1140.17 498.89 1141.08 498.71 1141.98 498.48 1142.86 498.22 1143.74 497.92 1144.6 497.58 1145.44 497.21 1146.27 496.79 1147.08 496.35 1147.88 495.87 1148.65 495.36 1149.39 494.81 1150.12 494.23 1150.82 493.63 1151.49 492.99 1152.13 492.33 1152.75 491.63 1153.33 490.92 1153.88 490.18 1154.4 489.41 1154.89 488.62 1155.35 487.82 1155.77 486.99 1156.15 486.15 1156.5 485.29 1156.81 484.42 1157.08 483.54 1157.31 482.64 1157.51 481.74 1157.67 480.83 1157.79 479.91 1157.87 478.99 1157.91 478.06 1157.91 477.14 1157.87 476.21 1157.79 475.29 1157.67 474.37 1157.51 473.46 1157.31 472.56 1157.08 471.66 1156.81 470.78 1156.5 469.91 1156.15 469.05 1155.77 468.21 1155.35 467.38 1154.89 466.58 1154.4 465.79 1153.88 465.02 1153.33 464.28 1152.75 463.57 1152.13 462.87 1151.49 462.21 1150.82 461.57 1150.12 460.97 1149.39 460.39 1148.65 459.84 1147.88 459.33 1147.09 458.85 1146.27 458.41 1145.44 457.99 1144.6 457.62 1143.74 457.28 1142.86 456.98 1141.98 456.72 1141.08 456.49 1140.17 456.31 1139.26 456.16 1138.34 456.05 1137.42 455.98 1136.49 455.95 1135.57 455.96 1134.64 456.01 1133.72 456.1 1132.8 456.23 1131.89 456.39 1130.99 456.6 1130.1 456.84 1129.22 457.13 1128.35 457.45 1127.5 457.8 1126.66 458.2 1125.84 458.62 1125.04 459.09 1124.26 459.58 1123.5 460.11 1122.76 460.67 1122.05 461.27 1121.37 461.89 1120.71 462.54 1120.08 463.22 1119.48 463.92 1118.91 464.65 1118.37 465.4 1117.87 466.18 1117.4 466.98 1116.96 467.79 1116.56 468.63 1116.19 469.48 1115.86 470.34 1115.57 471.22 1115.32 472.11 1115.1 473.01 1114.93 473.92 1114.79 474.83 1114.69 475.75 1114.63 476.67 1114.61 477.6 M 1114.61 377.6 1114.63 378.53 1114.69 379.45 1114.79 380.37 1114.93 381.28 1115.1 382.19 1115.32 383.09 1115.57 383.98 1115.86 384.86 1116.19 385.72 1116.56 386.57 1116.96 387.41 1117.4 388.22 1117.87 389.02 1118.37 389.8 1118.91 390.55 1119.48 391.28 1120.08 391.98 1120.71 392.66 1121.37 393.31 1122.05 393.93 1122.76 394.53 1123.5 395.09 1124.26 395.62 1125.04 396.11 1125.84 396.58 1126.66 397 1127.5 397.4 1128.35 397.75 1129.22 398.07 1130.1 398.36 1130.99 398.6 1131.89 398.81 1132.8 398.97 1133.72 399.1 1134.64 399.19 1135.57 399.24 1136.49 399.25 1137.42 399.22 1138.34 399.15 1139.26 399.04 1140.17 398.89 1141.08 398.71 1141.98 398.48 1142.86 398.22 1143.74 397.92 1144.6 397.58 1145.44 397.21 1146.27 396.79 1147.08 396.35 1147.88 395.87 1148.65 395.36 1149.39 394.81 1150.12 394.23 1150.82 393.63 1151.49 392.99 1152.13 392.33 1152.75 391.63 1153.33 390.92 1153.88 390.18 1154.4 389.41 1154.89 388.62 1155.35 387.82 1155.77 386.99 1156.15 386.15 1156.5 385.29 1156.81 384.42 1157.08 383.54 1157.31 382.64 1157.51 381.74 1157.67 380.83 1157.79 379.91 1157.87 378.99 1157.91 378.06 1157.91 377.14 1157.87 376.21 1157.79 375.29 1157.67 374.37 1157.51 373.46 1157.31 372.56 1157.08 371.66 1156.81 370.78 1156.5 369.91 1156.15 369.05 1155.77 368.21 1155.35 367.38 1154.89 366.58 1154.4 365.79 1153.88 365.02 1153.33 364.28 1152.75 363.57 1152.13 362.87 1151.49 362.21 1150.82 361.57 1150.12 360.97 1149.39 360.39 1148.65 359.84 1147.88 359.33 1147.09 358.85 1146.27 358.41 1145.44 357.99 1144.6 357.62 1143.74 357.28 1142.86 356.98 1141.98 356.72 1141.08 356.49 1140.17 356.31 1139.26 356.16 1138.34 356.05 1137.42 355.98 1136.49 355.95 1135.57 355.96 1134.64 356.01 1133.72 356.1 1132.8 356.23 1131.89 356.39 1130.99 356.6 1130.1 356.84 1129.22 357.13 1128.35 357.45 1127.5 357.8 1126.66 358.2 1125.84 358.62 1125.04 359.09 1124.26 359.58 1123.5 360.11 1122.76 360.67 1122.05 361.27 1121.37 361.89 1120.71 362.54 1120.08 363.22 1119.48 363.92 1118.91 364.65 1118.37 365.4 1117.87 366.18 1117.4 366.98 1116.96 367.79 1116.56 368.63 1116.19 369.48 1115.86 370.34 1115.57 371.22 1115.32 372.11 1115.1 373.01 1114.93 373.92 1114.79 374.83 1114.69 375.75 1114.63 376.67 1114.61 377.6 M 1214.61 377.6 1214.63 378.53 1214.69 379.45 1214.79 380.37 1214.93 381.28 1215.1 382.19 1215.32 383.09 1215.57 383.98 1215.86 384.86 1216.19 385.72 1216.56 386.57 1216.96 387.41 1217.4 388.22 1217.87 389.02 1218.37 389.8 1218.91 390.55 1219.48 391.28 1220.08 391.98 1220.71 392.66 1221.37 393.31 1222.05 393.93 1222.76 394.53 1223.5 395.09 1224.26 395.62 1225.04 396.11 1225.84 396.58 1226.66 397 1227.5 397.4 1228.35 397.75 1229.22 398.07 1230.1 398.36 1230.99 398.6 1231.89 398.81 1232.8 398.97 1233.72 399.1 1234.64 399.19 1235.57 399.24 1236.49 399.25 1237.42 399.22 1238.34 399.15 1239.26 399.04 1240.17 398.89 1241.08 398.71 1241.98 398.48 1242.86 398.22 1243.74 397.92 1244.6 397.58 1245.44 397.21 1246.27 396.79 1247.08 396.35 1247.88 395.87 1248.65 395.36 1249.39 394.81 1250.12 394.23 1250.82 393.63 1251.49 392.99 1252.13 392.33 1252.75 391.63 1253.33 390.92 1253.88 390.18 1254.4 389.41 1254.89 388.62 1255.35 387.82 1255.77 386.99 1256.15 386.15 1256.5 385.29 1256.81 384.42 1257.08 383.54 1257.31 382.64 1257.51 381.74 1257.67 380.83 1257.79 379.91 1257.87 378.99 1257.91 378.06 1257.91 377.14 1257.87 376.21 1257.79 375.29 1257.67 374.37 1257.51 373.46 1257.31 372.56 1257.08 371.66 1256.81 370.78 1256.5 369.91 1256.15 369.05 1255.77 368.21 1255.35 367.38 1254.89 366.58 1254.4 365.79 1253.88 365.02 1253.33 364.28 1252.75 363.57 1252.13 362.87 1251.49 362.21 1250.82 361.57 1250.12 360.97 1249.39 360.39 1248.65 359.84 1247.88 359.33 1247.09 358.85 1246.27 358.41 1245.44 357.99 1244.6 357.62 1243.74 357.28 1242.86 356.98 1241.98 356.72 1241.08 356.49 1240.17 356.31 1239.26 356.16 1238.34 356.05 1237.42 355.98 1236.49 355.95 1235.57 355.96 1234.64 356.01 1233.72 356.1 1232.8 356.23 1231.89 356.39 1230.99 356.6 1230.1 356.84 1229.22 357.13 1228.35 357.45 1227.5 357.8 1226.66 358.2 1225.84 358.62 1225.04 359.09 1224.26 359.58 1223.5 360.11 1222.76 360.67 1222.05 361.27 1221.37 361.89 1220.71 362.54 1220.08 363.22 1219.48 363.92 1218.91 364.65 1218.37 365.4 1217.87 366.18 1217.4 366.98 1216.96 367.79 1216.56 368.63 1216.19 369.48 1215.86 370.34 1215.57 371.22 1215.32 372.11 1215.1 373.01 1214.93 373.92 1214.79 374.83 1214.69 375.75 1214.63 376.67 1214.61 377.6" fill="none" stroke-width="0"/><use xlink:href="#aNXmwhgFPDj3D_ifPwPi_pad-11" x="935.28" y="645.91"/><use xlink:href="#aNXmwhgFPDj3D_ifPwPi_pad-11" x="935.28" y="712.83"/><use xlink:href="#aNXmwhgFPDj3D_ifPwPi_pad-11" x="684.29" y="712.83"/><use xlink:href="#aNXmwhgFPDj3D_ifPwPi_pad-11" x="684.29" y="645.91"/><use xlink:href="#aNXmwhgFPDj3D_ifPwPi_pad-11" x="536.65" y="645.91"/><use xlink:href="#aNXmwhgFPDj3D_ifPwPi_pad-11" x="536.65" y="712.83"/><use xlink:href="#aNXmwhgFPDj3D_ifPwPi_pad-12" x="610.47" y="712.83"/><use xlink:href="#aNXmwhgFPDj3D_ifPwPi_pad-12" x="610.47" y="645.91"/><use xlink:href="#aNXmwhgFPDj3D_ifPwPi_pad-12" x="1009.09" y="645.91"/><use xlink:href="#aNXmwhgFPDj3D_ifPwPi_pad-12" x="1009.09" y="712.83"/><use xlink:href="#aNXmwhgFPDj3D_ifPwPi_pad-13" x="858.5" y="703.98"/><use xlink:href="#aNXmwhgFPDj3D_ifPwPi_pad-13" x="858.5" y="684.29"/><use xlink:href="#aNXmwhgFPDj3D_ifPwPi_pad-13" x="858.5" y="664.61"/><use xlink:href="#aNXmwhgFPDj3D_ifPwPi_pad-13" x="858.5" y="644.92"/><use xlink:href="#aNXmwhgFPDj3D_ifPwPi_pad-13" x="775.83" y="644.92"/><use xlink:href="#aNXmwhgFPDj3D_ifPwPi_pad-13" x="775.83" y="664.61"/><use xlink:href="#aNXmwhgFPDj3D_ifPwPi_pad-13" x="775.83" y="684.29"/><use xlink:href="#aNXmwhgFPDj3D_ifPwPi_pad-13" x="775.83" y="703.98"/><use xlink:href="#aNXmwhgFPDj3D_ifPwPi_pad-14" x="817.17" y="674.45"/><path d="M 775.83 684.29 748.27 684.29 M 734.94 664.61 719.64 679.91 646.64 679.91 613.71 712.83 610.47 712.83 610.47 707.74 598.64 695.91 M 576.02 679.37 576.02 615.39 564.26 603.63 482.52 521.89 359.49 521.89 M 542.56 712.83 576.02 679.37 M 542.56 712.83 536.65 712.83 M 684.29 712.83 684.29 708.9 M 734.94 664.61 775.83 664.61 M 775.83 644.92 775.64 644.73 775.64 614.91 M 775.83 703.98 775.64 704.17 775.64 724.91 781.64 730.91 818.64 730.91 M 1009.09 645.91 1009.09 615.39 994.33 600.63" fill="none" stroke-width="6"/><use xlink:href="#aNXmwhgFPDj3D_ifPwPi_pad-16" x="994.33" y="600.63"/><use xlink:href="#aNXmwhgFPDj3D_ifPwPi_pad-16" x="818.64" y="730.91"/><use xlink:href="#aNXmwhgFPDj3D_ifPwPi_pad-16" x="684.29" y="708.9"/><use xlink:href="#aNXmwhgFPDj3D_ifPwPi_pad-16" x="610.47" y="712.83"/><use xlink:href="#aNXmwhgFPDj3D_ifPwPi_pad-16" x="775.64" y="614.91"/><use xlink:href="#aNXmwhgFPDj3D_ifPwPi_pad-16" x="564.26" y="603.63"/><use xlink:href="#aNXmwhgFPDj3D_ifPwPi_pad-16" x="359.49" y="521.89"/><path d="M 379.54 539.89 370.63 548.8 348.34 548.8 332.58 533.03 332.58 510.75 348.34 494.98 370.63 494.98 379.54 503.89 383.94 503.89 378.41 498.36 372.83 484.89 372.83 470.31 378.41 456.84 388.73 446.52 402.2 440.94 416.78 440.94 430.25 446.52 440.56 456.84 446.14 470.31 446.14 484.89 440.56 498.36 435.03 503.89 489.98 503.89 528.9 542.81 528.48 541.68 525.53 536.28 525.94 534.88 525.13 532.71 523.9 531.92 522.59 525.91 520.44 520.14 521.05 518.81 520.56 516.55 519.45 515.59 519.01 509.45 517.71 503.44 518.5 502.21 518.38 500.62 517.86 500.1 517.86 493.3 517.37 486.52 517.86 485.97 517.86 330.26 517.37 329.7 517.86 322.93 517.86 316.13 518.38 315.61 518.5 314.01 517.71 312.79 519.01 306.77 519.45 300.64 520.56 299.68 521.05 297.42 520.44 296.09 522.59 290.32 523.9 284.31 525.13 283.52 525.94 281.35 525.53 279.95 528.48 274.55 530.63 268.78 531.95 268.18 533.07 266.14 532.86 264.7 536.54 259.77 539.49 254.37 540.89 253.96 542.28 252.11 542.28 250.64 546.63 246.29 550.32 241.37 551.77 241.16 553.41 239.52 553.61 238.08 558.54 234.39 562.89 230.04 564.35 230.04 566.2 228.65 566.62 227.25 572.02 224.3 576.94 220.61 578.39 220.82 580.42 219.71 581.03 218.38 584.71 217.01 536.65 217.01 531.9 217.48 523.11 221.11 516.39 227.84 512.75 236.62 512.28 241.38 512.28 291.56 504.01 311.55 488.71 326.84 468.73 335.12 229.01 335.12 224.25 335.59 215.47 339.23 208.74 345.95 205.11 354.73 204.64 359.49 204.64 595.71 205.11 600.46 208.74 609.25 215.47 615.97 224.25 619.61 229.01 620.08 468.73 620.08 488.71 628.36 488.71 628.36 500 639.64 500 624.25 501.02 620.43 503 617.01 505.79 614.22 509.21 612.24 513.03 611.22 531.81 611.22 531.81 641.06 541.5 641.06 558.02 641.06 558.02 650.75 541.5 650.75 541.5 641.06 541.5 618.92 537.35 614.77 537.35 602.18 475.06 539.89 379.54 539.89 M 386.62 548.63 370.8 548.63 M 378.41 556.84 388.73 546.52 402.2 540.94 416.78 540.94 430.25 546.52 440.56 556.84 446.14 570.31 446.14 584.89 440.56 598.36 430.25 608.67 416.78 614.25 402.2 614.25 388.73 608.67 378.41 598.36 372.83 584.89 372.83 570.31 378.41 556.84 M 377.68 558.61 341.3 558.61 M 340.56 556.84 330.25 546.52 316.78 540.94 302.2 540.94 288.73 546.52 278.41 556.84 272.83 570.31 272.83 584.89 278.41 598.36 288.73 608.67 302.2 614.25 316.78 614.25 330.25 608.67 340.56 598.36 346.14 584.89 346.14 570.31 340.56 556.84 M 348.18 548.63 332.35 548.63 M 338.19 538.64 204.64 538.64 M 204.64 528.66 332.58 528.66 M 332.58 518.67 204.64 518.67 M 204.64 508.69 288.76 508.69 M 288.73 508.67 278.41 498.36 272.83 484.89 272.83 470.31 278.41 456.84 288.73 446.52 302.2 440.94 316.78 440.94 330.25 446.52 340.56 456.84 346.14 470.31 346.14 484.89 340.56 498.36 330.25 508.67 316.78 514.25 302.2 514.25 288.73 508.67 M 278.76 498.7 204.64 498.7 M 204.64 488.72 274.42 488.72 M 272.83 478.73 204.64 478.73 M 204.64 468.75 273.48 468.75 M 277.62 458.76 204.64 458.76 M 204.64 448.78 286.47 448.78 M 302.2 414.25 288.73 408.67 278.41 398.36 272.83 384.89 272.83 370.31 278.41 356.84 288.73 346.52 302.2 340.94 316.78 340.94 330.25 346.52 340.56 356.84 346.14 370.31 346.14 384.89 340.56 398.36 330.25 408.67 316.78 414.25 302.2 414.25 M 289.12 408.84 204.64 408.84 M 204.64 418.82 517.86 418.82 M 517.86 408.84 429.85 408.84 M 430.25 408.67 416.78 414.25 402.2 414.25 388.73 408.67 378.41 398.36 372.83 384.89 372.83 370.31 378.41 356.84 388.73 346.52 402.2 340.94 416.78 340.94 430.25 346.52 440.56 356.84 446.14 370.31 446.14 384.89 440.56 398.36 430.25 408.67 M 440.07 398.85 517.86 398.85 M 517.86 388.87 444.49 388.87 M 446.14 378.88 517.86 378.88 M 517.86 368.9 445.56 368.9 M 441.42 358.91 517.86 358.91 M 517.86 348.93 432.65 348.93 M 386.32 348.93 332.65 348.93 M 341.42 358.91 377.56 358.91 M 373.42 368.9 345.56 368.9 M 346.14 378.88 372.83 378.88 M 374.48 388.87 344.49 388.87 M 340.07 398.85 378.9 398.85 M 389.12 408.84 329.85 408.84 M 278.9 398.85 204.64 398.85 M 204.64 388.87 274.48 388.87 M 272.83 378.88 204.64 378.88 M 204.64 368.9 273.42 368.9 M 277.56 358.91 204.69 358.91 M 207.51 348.93 286.32 348.93 M 216.16 338.94 517.86 338.94 M 517.43 328.96 483.61 328.96 M 488.71 326.84 488.71 326.84 488.71 326.84 M 496.58 318.97 517.86 318.97 M 518.53 308.99 505.07 308.99 M 504.01 311.55 504.01 311.55 M 509.2 299 520.7 299 M 522.88 289.01 512.28 289.01 M 512.28 279.03 526.03 279.03 M 530.53 269.04 512.28 269.04 M 512.28 259.06 536.93 259.06 M 543.85 249.07 512.28 249.07 M 512.51 239.09 553.47 239.09 M 565.6 229.1 515.87 229.1 M 527.93 219.12 580.69 219.12 M 517.86 428.81 204.64 428.81 M 204.64 438.79 517.86 438.79 M 517.86 448.78 432.5 448.78 M 441.36 458.76 517.86 458.76 M 517.86 468.75 445.5 468.75 M 446.14 478.73 517.86 478.73 M 517.53 488.72 444.56 488.72 M 440.22 498.7 517.86 498.7 M 518.85 508.69 494.77 508.69 M 504.76 518.67 521.02 518.67 M 523.19 528.66 514.74 528.66 M 524.73 538.64 526.82 538.64 M 493.79 558.61 441.3 558.61 M 445.43 568.6 503.77 568.6 M 513.76 578.58 446.14 578.58 M 444.62 588.57 523.74 588.57 M 533.73 598.55 440.37 598.55 M 430.38 608.54 537.35 608.54 M 541.1 618.52 531.81 618.52 M 531.81 628.51 541.5 628.51 M 541.5 638.49 531.81 638.49 M 531.81 641.06 501.42 641.06 504.01 643.65 506.95 650.75 531.81 650.75 531.81 678.15 541.5 678.15 541.5 650.75 531.81 650.75 531.81 641.06 M 531.81 648.48 506.01 648.48 M 504.01 643.65 504.01 643.65 M 500 638.49 498.85 638.49 M 500 628.51 488.86 628.51 M 502.12 618.52 221.63 618.52 M 208.45 608.54 288.59 608.54 M 278.61 598.55 204.92 598.55 M 204.64 588.57 274.36 588.57 M 272.83 578.58 204.64 578.58 M 204.64 568.6 273.54 568.6 M 277.68 558.61 204.64 558.61 M 204.64 548.63 286.62 548.63 M 330.21 508.69 334.64 508.69 M 340.22 498.7 344.63 498.7 M 344.56 488.72 374.42 488.72 M 374.35 498.7 378.76 498.7 M 372.83 478.73 346.14 478.73 M 345.5 468.75 373.48 468.75 M 377.62 458.76 341.36 458.76 M 332.5 448.78 386.47 448.78 M 432.35 548.63 483.8 548.63 M 388.59 608.54 330.38 608.54 M 340.37 598.55 378.61 598.55 M 374.36 588.57 344.62 588.57 M 346.14 578.58 372.83 578.58 M 373.54 568.6 345.43 568.6 M 531.81 658.46 541.5 658.46 M 541.5 648.48 558.02 648.48 M 541.5 668.45 531.81 668.45 M 594.02 650.75 594.02 641.06 605.63 641.06 615.31 641.06 615.31 609.25 616.13 609.25 612.88 609.02 611.92 607.92 609.66 607.42 608.33 608.03 602.57 605.88 596.56 604.57 595.77 603.34 593.59 602.53 592.19 602.95 591.17 602.38 591.17 605.08 594.02 607.94 594.02 609.25 605.63 609.25 605.63 641.06 605.63 650.75 605.63 676.18 615.31 676.18 615.31 650.75 605.63 650.75 594.02 650.75 M 594.02 648.48 605.63 648.48 M 615.32 648.48 679.45 648.48 M 679.45 650.75 679.45 641.06 689.13 641.06 689.13 611.22 707.92 611.22 711.73 612.24 715.16 614.22 717.95 617.01 719.92 620.43 720.94 624.25 720.94 641.06 689.13 641.06 689.13 650.75 720.94 650.75 720.94 653.14 727.48 646.61 747.05 646.61 747.05 632.8 751.27 628.58 748.73 626.05 748.73 610.61 642.51 610.61 641.95 611.1 636.73 610.73 639.37 612.25 642.16 615.04 644.14 618.46 645.16 622.28 645.16 641.06 615.32 641.06 615.32 650.75 645.16 650.75 645.16 661.91 647.64 661.91 647.64 650.75 679.45 650.75 M 679.45 641.06 647.64 641.06 647.64 624.25 648.66 620.43 650.63 617.01 653.43 614.22 656.85 612.24 660.66 611.22 679.45 611.22 679.45 641.06 M 679.45 638.49 689.13 638.49 M 689.13 628.51 679.45 628.51 M 679.45 618.52 689.13 618.52 M 718.82 618.52 748.73 618.52 M 751.19 628.51 720.94 628.51 M 720.94 638.49 747.05 638.49 M 725.61 648.48 689.13 648.48 M 647.64 658.46 645.16 658.46 M 645.16 638.49 647.64 638.49 M 647.64 628.51 645.16 628.51 M 644.15 618.52 649.76 618.52 M 615.31 618.52 605.63 618.52 M 605.63 628.51 615.31 628.51 M 615.31 638.49 605.63 638.49 M 605.63 658.46 615.31 658.46 M 615.31 668.45 605.63 668.45 M 612.46 608.54 594.02 608.54 M 727.09 697.91 742.39 682.61 747.05 682.61 747.05 684.29 754.61 684.29 754.61 684.29 754.61 684.29 747.05 684.29 747.05 692.17 747.05 716.1 755.83 724.88 757.64 724.88 757.64 732.36 763.47 738.19 720.94 738.19 720.94 697.91 727.09 697.91 M 720.94 698.4 747.05 698.4 M 747.05 688.42 736.58 688.42 M 747.05 708.39 720.94 708.39 M 720.94 718.37 749.33 718.37 M 757.64 728.36 720.94 728.36 M 845.54 728.36 887.08 728.36 M 892.54 733.82 880.93 722.21 878.07 723.86 874.26 724.88 858.5 724.88 845.54 724.88 845.54 738.19 898.62 738.19 898.62 733.82 892.54 733.82 M 900.83 713.82 934.29 713.82 935.28 712.83 M 900.83 713.82 890.98 703.98 890.98 654.76 881.14 644.92 858.5 644.92 M 858.5 705.2 858.5 724.88 858.5 705.2 858.5 705.2 M 858.5 708.39 858.5 708.39 M 858.5 718.37 858.5 718.37" fill="none" stroke-width="10"/><use xlink:href="#aNXmwhgFPDj3D_ifPwPi_pad-18" x="878.8" y="730.91"/><use xlink:href="#aNXmwhgFPDj3D_ifPwPi_pad-18" x="733.5" y="713.82"/><use xlink:href="#aNXmwhgFPDj3D_ifPwPi_pad-18" x="691.29" y="648.92"/><use xlink:href="#aNXmwhgFPDj3D_ifPwPi_pad-18" x="610.47" y="649.84"/><use xlink:href="#aNXmwhgFPDj3D_ifPwPi_pad-18" x="536.65" y="644.92"/><use xlink:href="#aNXmwhgFPDj3D_ifPwPi_pad-18" x="359.49" y="566.18"/><use xlink:href="#aNXmwhgFPDj3D_ifPwPi_pad-18" x="359.49" y="349.65"/><path d="M 535.81 352.19 1013.17 352.19 M 1013.17 358.08 535.81 358.08 M 535.81 363.97 1013.17 363.97 M 1013.17 369.86 535.81 369.86 M 535.81 375.75 1013.17 375.75 M 1013.17 381.64 535.81 381.64 M 535.81 387.53 1013.17 387.53 M 1013.17 393.42 535.81 393.42 M 535.81 399.31 1013.17 399.31 M 1013.17 405.2 535.81 405.2 M 535.81 411.09 1013.17 411.09 M 1013.17 416.98 535.81 416.98 M 535.81 422.87 1013.17 422.87 M 1013.17 428.76 535.81 428.76 M 535.81 434.66 1013.17 434.66 M 1013.17 440.55 535.81 440.55 M 535.81 446.44 1013.17 446.44 M 1013.17 452.33 535.81 452.33 M 535.81 458.22 1013.17 458.22 M 1013.17 464.11 535.81 464.11 M 535.81 470 1013.17 470 M 1013.17 475.89 535.81 475.89 M 535.81 481.78 1013.17 481.78 M 1013.17 487.67 535.81 487.67 M 535.81 492.66 535.81 323.57 536.83 309.34 539.86 295.39 544.85 282.03 551.69 269.5 560.24 258.08 570.32 247.99 581.75 239.44 594.27 232.6 607.64 227.62 621.58 224.58 635.81 223.57 913.17 223.57 927.4 224.58 941.35 227.62 954.71 232.6 967.24 239.44 978.66 247.99 988.75 258.08 997.3 269.5 1004.14 282.03 1009.12 295.39 1012.16 309.34 1013.17 323.57 1013.17 492.66 1012.16 506.89 1009.12 520.83 1004.14 534.2 997.3 546.73 988.75 558.15 978.66 568.24 967.24 576.79 954.71 583.62 941.35 588.61 927.4 591.64 913.17 592.66 635.81 592.66 621.58 591.64 607.64 588.61 594.27 583.62 581.75 576.79 570.32 568.24 560.24 558.15 551.69 546.73 544.85 534.2 539.86 520.83 536.83 506.89 535.81 492.66 M 535.88 493.56 1013.11 493.56 M 1012.69 499.45 536.3 499.45 M 536.72 505.34 1012.27 505.34 M 1011.21 511.23 537.77 511.23 M 539.05 517.12 1009.93 517.12 M 1008.31 523.01 540.67 523.01 M 542.87 528.91 1006.11 528.91 M 1003.81 534.8 545.17 534.8 M 548.39 540.69 1000.6 540.69 M 997.38 546.58 551.6 546.58 M 555.98 552.47 993 552.47 M 988.54 558.36 560.45 558.36 M 566.34 564.25 982.65 564.25 M 976.12 570.14 572.87 570.14 M 580.74 576.03 968.25 576.03 M 957.83 581.92 591.15 581.92 M 605.5 587.81 943.49 587.81 M 1013.17 346.3 535.81 346.3 M 535.81 340.41 1013.17 340.41 M 1013.17 334.51 535.81 334.51 M 535.81 328.62 1013.17 328.62 M 1013.11 322.73 535.87 322.73 M 536.29 316.84 1012.69 316.84 M 1012.27 310.95 536.71 310.95 M 537.76 305.06 1011.23 305.06 M 1009.94 299.17 539.04 299.17 M 540.65 293.28 1008.33 293.28 M 1006.14 287.39 542.85 287.39 M 545.14 281.5 1003.85 281.5 M 1000.63 275.61 548.35 275.61 M 551.57 269.72 997.42 269.72 M 993.05 263.83 555.93 263.83 M 560.38 257.94 988.6 257.94 M 982.71 252.05 566.27 252.05 M 572.78 246.16 976.21 246.16 M 968.34 240.26 580.65 240.26 M 591.03 234.37 957.96 234.37 M 943.67 228.48 605.32 228.48" fill="none" stroke-width="5.91"/><path d="M 935.28 576.02 935.28 645.91 M 935.28 712.83 935.28 712.84 935.27 712.85 935.26 712.85 M 935.28 712.83 1009.09 712.83 M 684.31 712.85 684.3 712.85 684.29 712.84 684.29 712.83" fill="none" stroke-width="16"/></g></svg>