<svg version="1.1" xmlns="http://www.w3.org/2000/svg" xmlns:xlink="http://www.w3.org/1999/xlink" stroke-linecap="round" stroke-linejoin="round" stroke-width="0" fill-rule="evenodd" width="1.1664700000000001in" height="0.55118in" viewBox="189.64 202.01 1166.47 551.18" id="qnm_AjnmkjmwNszis-OE"><defs><rect x="-35.435" y="-17.715" width="70.87" height="35.43" id="qnm_AjnmkjmwNszis-OE_pad-11"/><polygon points="11.90498,4.9312 4.9312,11.90498 -4.9312,11.90498 -11.90498,4.9312 -11.90498,-4.9312 -4.9312,-11.90498 4.9312,-11.90498 11.90498,-4.9312" id="qnm_AjnmkjmwNszis-OE_pad-12"/><polygon points="12.09998,5.01197 5.01197,12.09998 -5.01197,12.09998 -12.09998,5.01197 -12.09998,-5.01197 -5.01197,-12.09998 5.01197,-12.09998 12.09998,-5.01197" id="qnm_AjnmkjmwNszis-OE_pad-15"/></defs><g transform="translate(0,955.1999999999999) scale(1,-1)" fill="currentColor" stroke="currentColor"><path d="M 457.91 320.12 459.15 320.1 460.38 320.04 461.62 319.95 462.84 319.81 464.07 319.64 465.29 319.42 466.5 319.17 467.7 318.88 468.89 318.56 470.08 318.19 471.25 317.79 472.4 317.36 473.55 316.88 474.67 316.37 475.78 315.83 476.88 315.25 477.95 314.64 479.01 313.99 480.04 313.31 481.05 312.6 482.04 311.86 483.01 311.09 483.95 310.28 484.86 309.45 485.75 308.59 486.61 307.7 487.44 306.79 488.25 305.85 489.02 304.88 489.76 303.89 490.47 302.88 491.15 301.85 491.8 300.79 492.41 299.72 492.99 298.62 493.53 297.51 494.04 296.39 494.52 295.24 494.95 294.09 495.35 292.92 495.72 291.73 496.04 290.54 496.33 289.34 496.58 288.13 496.8 286.91 496.97 285.68 497.11 284.46 497.2 283.22 497.26 281.99 497.28 280.75 497.28 241.38 497.3 240.14 497.36 238.91 497.45 237.67 497.59 236.45 497.76 235.22 497.98 234 498.23 232.79 498.52 231.59 498.84 230.4 499.21 229.21 499.61 228.04 500.04 226.89 500.52 225.74 501.03 224.62 501.57 223.51 502.15 222.41 502.76 221.34 503.41 220.28 504.09 219.25 504.8 218.24 505.54 217.25 506.31 216.28 507.12 215.34 507.95 214.43 508.81 213.54 509.7 212.68 510.61 211.85 511.55 211.04 512.52 210.27 513.51 209.53 514.52 208.82 515.55 208.14 516.61 207.49 517.68 206.88 518.78 206.3 519.89 205.76 521.01 205.25 522.16 204.77 523.31 204.34 524.48 203.94 525.67 203.57 526.86 203.25 528.06 202.96 529.27 202.71 530.49 202.49 531.72 202.32 532.94 202.18 534.18 202.09 535.41 202.03 536.65 202.01 1009.09 202.01 1010.33 202.03 1011.56 202.09 1012.8 202.18 1014.02 202.32 1015.25 202.49 1016.47 202.71 1017.68 202.96 1018.88 203.25 1020.07 203.57 1021.26 203.94 1022.43 204.34 1023.58 204.77 1024.73 205.25 1025.85 205.76 1026.96 206.3 1028.06 206.88 1029.13 207.49 1030.19 208.14 1031.22 208.82 1032.23 209.53 1033.22 210.27 1034.19 211.04 1035.13 211.85 1036.04 212.68 1036.93 213.54 1037.79 214.43 1038.62 215.34 1039.43 216.28 1040.2 217.25 1040.94 218.24 1041.65 219.25 1042.33 220.28 1042.98 221.34 1043.59 222.41 1044.17 223.51 1044.71 224.62 1045.22 225.74 1045.7 226.89 1046.13 228.04 1046.53 229.21 1046.9 230.4 1047.22 231.59 1047.51 232.79 1047.76 234 1047.98 235.22 1048.15 236.45 1048.29 237.67 1048.38 238.91 1048.44 240.14 1048.46 241.38 1048.46 280.75 1048.48 281.99 1048.54 283.22 1048.63 284.46 1048.77 285.68 1048.94 286.91 1049.16 288.13 1049.41 289.34 1049.7 290.54 1050.02 291.73 1050.39 292.92 1050.79 294.09 1051.22 295.24 1051.7 296.39 1052.21 297.51 1052.75 298.62 1053.33 299.72 1053.94 300.79 1054.59 301.85 1055.27 302.88 1055.98 303.89 1056.72 304.88 1057.49 305.85 1058.3 306.79 1059.13 307.7 1059.99 308.59 1060.88 309.45 1061.79 310.28 1062.73 311.09 1063.7 311.86 1064.69 312.6 1065.7 313.31 1066.73 313.99 1067.79 314.64 1068.86 315.25 1069.96 315.83 1071.07 316.37 1072.19 316.88 1073.34 317.36 1074.49 317.79 1075.66 318.19 1076.85 318.56 1078.04 318.88 1079.24 319.17 1080.45 319.42 1081.67 319.64 1082.9 319.81 1084.12 319.95 1085.36 320.04 1086.59 320.1 1087.83 320.12 1316.74 320.12 1317.98 320.14 1319.21 320.2 1320.45 320.29 1321.67 320.43 1322.9 320.6 1324.12 320.82 1325.33 321.07 1326.53 321.36 1327.72 321.68 1328.91 322.05 1330.08 322.45 1331.23 322.88 1332.38 323.36 1333.5 323.87 1334.61 324.41 1335.71 324.99 1336.78 325.6 1337.84 326.25 1338.87 326.93 1339.88 327.64 1340.87 328.38 1341.84 329.15 1342.78 329.96 1343.69 330.79 1344.58 331.65 1345.44 332.54 1346.27 333.45 1347.08 334.39 1347.85 335.36 1348.59 336.35 1349.3 337.36 1349.98 338.39 1350.63 339.45 1351.24 340.52 1351.82 341.62 1352.36 342.73 1352.87 343.85 1353.35 345 1353.78 346.15 1354.18 347.32 1354.55 348.51 1354.87 349.7 1355.16 350.9 1355.41 352.11 1355.63 353.33 1355.8 354.56 1355.94 355.78 1356.03 357.02 1356.09 358.25 1356.11 359.49 1356.11 595.71 1356.09 596.95 1356.03 598.18 1355.94 599.42 1355.8 600.64 1355.63 601.87 1355.41 603.09 1355.16 604.3 1354.87 605.5 1354.55 606.69 1354.18 607.88 1353.78 609.05 1353.35 610.2 1352.87 611.35 1352.36 612.47 1351.82 613.58 1351.24 614.68 1350.63 615.75 1349.98 616.81 1349.3 617.84 1348.59 618.85 1347.85 619.84 1347.08 620.81 1346.27 621.75 1345.44 622.66 1344.58 623.55 1343.69 624.41 1342.78 625.24 1341.84 626.05 1340.87 626.82 1339.88 627.56 1338.87 628.27 1337.84 628.95 1336.78 629.6 1335.71 630.21 1334.61 630.79 1333.5 631.33 1332.38 631.84 1331.23 632.32 1330.08 632.75 1328.91 633.15 1327.72 633.52 1326.53 633.84 1325.33 634.13 1324.12 634.38 1322.9 634.6 1321.67 634.77 1320.45 634.91 1319.21 635 1317.98 635.06 1316.74 635.08 1087.83 635.08 1086.59 635.1 1085.36 635.16 1084.12 635.25 1082.9 635.39 1081.67 635.56 1080.45 635.78 1079.24 636.03 1078.04 636.32 1076.85 636.64 1075.66 637.01 1074.49 637.41 1073.34 637.84 1072.19 638.32 1071.07 638.83 1069.96 639.37 1068.86 639.95 1067.79 640.56 1066.73 641.21 1065.7 641.89 1064.69 642.6 1063.7 643.34 1062.73 644.11 1061.79 644.92 1060.88 645.75 1059.99 646.61 1059.13 647.5 1058.3 648.41 1057.49 649.35 1056.72 650.32 1055.98 651.31 1055.27 652.32 1054.59 653.35 1053.94 654.41 1053.33 655.48 1052.75 656.58 1052.21 657.69 1051.7 658.81 1051.22 659.96 1050.79 661.11 1050.39 662.28 1050.02 663.47 1049.7 664.66 1049.41 665.86 1049.16 667.07 1048.94 668.29 1048.77 669.52 1048.63 670.74 1048.54 671.98 1048.48 673.21 1048.46 674.45 1048.46 713.82 1048.44 715.06 1048.38 716.29 1048.29 717.53 1048.15 718.75 1047.98 719.98 1047.76 721.2 1047.51 722.41 1047.22 723.61 1046.9 724.8 1046.53 725.99 1046.13 727.16 1045.7 728.31 1045.22 729.46 1044.71 730.58 1044.17 731.69 1043.59 732.79 1042.98 733.86 1042.33 734.92 1041.65 735.95 1040.94 736.96 1040.2 737.95 1039.43 738.92 1038.62 739.86 1037.79 740.77 1036.93 741.66 1036.04 742.52 1035.13 743.35 1034.19 744.16 1033.22 744.93 1032.23 745.67 1031.22 746.38 1030.19 747.06 1029.13 747.71 1028.06 748.32 1026.96 748.9 1025.85 749.44 1024.73 749.95 1023.58 750.43 1022.43 750.86 1021.26 751.26 1020.07 751.63 1018.88 751.95 1017.68 752.24 1016.47 752.49 1015.25 752.71 1014.02 752.88 1012.8 753.02 1011.56 753.11 1010.33 753.17 1009.09 753.19 536.65 753.19 535.41 753.17 534.18 753.11 532.94 753.02 531.72 752.88 530.49 752.71 529.27 752.49 528.06 752.24 526.86 751.95 525.67 751.63 524.48 751.26 523.31 750.86 522.16 750.43 521.01 749.95 519.89 749.44 518.78 748.9 517.68 748.32 516.61 747.71 515.55 747.06 514.52 746.38 513.51 745.67 512.52 744.93 511.55 744.16 510.61 743.35 509.7 742.52 508.81 741.66 507.95 740.77 507.12 739.86 506.31 738.92 505.54 737.95 504.8 736.96 504.09 735.95 503.41 734.92 502.76 733.86 502.15 732.79 501.57 731.69 501.03 730.58 500.52 729.46 500.04 728.31 499.61 727.16 499.21 725.99 498.84 724.8 498.52 723.61 498.23 722.41 497.98 721.2 497.76 719.98 497.59 718.75 497.45 717.53 497.36 716.29 497.3 715.06 497.28 713.82 497.28 674.45 497.26 673.21 497.2 671.98 497.11 670.74 496.97 669.52 496.8 668.29 496.58 667.07 496.33 665.86 496.04 664.66 495.72 663.47 495.35 662.28 494.95 661.11 494.52 659.96 494.04 658.81 493.53 657.69 492.99 656.58 492.41 655.48 491.8 654.41 491.15 653.35 490.47 652.32 489.76 651.31 489.02 650.32 488.25 649.35 487.44 648.41 486.61 647.5 485.75 646.61 484.86 645.75 483.95 644.92 483.01 644.11 482.04 643.34 481.05 642.6 480.04 641.89 479.01 641.21 477.95 640.56 476.88 639.95 475.78 639.37 474.67 638.83 473.55 638.32 472.4 637.84 471.25 637.41 470.08 637.01 468.89 636.64 467.7 636.32 466.5 636.03 465.29 635.78 464.07 635.56 462.84 635.39 461.62 635.25 460.38 635.16 459.15 635.1 457.91 635.08 229.01 635.08 227.77 635.06 226.54 635 225.3 634.91 224.08 634.77 222.85 634.6 221.63 634.38 220.42 634.13 219.22 633.84 218.03 633.52 216.84 633.15 215.67 632.75 214.52 632.32 213.37 631.84 212.25 631.33 211.14 630.79 210.04 630.21 208.97 629.6 207.91 628.95 206.88 628.27 205.87 627.56 204.88 626.82 203.91 626.05 202.97 625.24 202.06 624.41 201.17 623.55 200.31 622.66 199.48 621.75 198.67 620.81 197.9 619.84 197.16 618.85 196.45 617.84 195.77 616.81 195.12 615.75 194.51 614.68 193.93 613.58 193.39 612.47 192.88 611.35 192.4 610.2 191.97 609.05 191.57 607.88 191.2 606.69 190.88 605.5 190.59 604.3 190.34 603.09 190.12 601.87 189.95 600.64 189.81 599.42 189.72 598.18 189.66 596.95 189.64 595.71 189.64 359.49 189.66 358.25 189.72 357.02 189.81 355.78 189.95 354.56 190.12 353.33 190.34 352.11 190.59 350.9 190.88 349.7 191.2 348.51 191.57 347.32 191.97 346.15 192.4 345 192.88 343.85 193.39 342.73 193.93 341.62 194.51 340.52 195.12 339.45 195.77 338.39 196.45 337.36 197.16 336.35 197.9 335.36 198.67 334.39 199.48 333.45 200.31 332.54 201.17 331.65 202.06 330.79 202.97 329.96 203.91 329.15 204.88 328.38 205.87 327.64 206.88 326.93 207.91 326.25 208.97 325.6 210.04 324.99 211.14 324.41 212.25 323.87 213.37 323.36 214.52 322.88 215.67 322.45 216.84 322.05 218.03 321.68 219.22 321.36 220.42 321.07 221.63 320.82 222.85 320.6 224.08 320.43 225.3 320.29 226.54 320.2 227.77 320.14 229.01 320.12 457.91 320.12 M 387.84 377.6 387.86 378.53 387.92 379.45 388.02 380.37 388.16 381.28 388.33 382.19 388.55 383.09 388.8 383.98 389.09 384.86 389.42 385.72 389.79 386.57 390.19 387.41 390.63 388.22 391.1 389.02 391.6 389.8 392.14 390.55 392.71 391.28 393.31 391.98 393.94 392.66 394.6 393.31 395.28 393.93 395.99 394.53 396.73 395.09 397.49 395.62 398.27 396.11 399.07 396.58 399.89 397 400.73 397.4 401.58 397.75 402.45 398.07 403.33 398.36 404.22 398.6 405.12 398.81 406.03 398.97 406.95 399.1 407.87 399.19 408.8 399.24 409.72 399.25 410.65 399.22 411.57 399.15 412.49 399.04 413.4 398.89 414.31 398.71 415.21 398.48 416.09 398.22 416.97 397.92 417.83 397.58 418.67 397.21 419.5 396.79 420.31 396.35 421.11 395.87 421.88 395.36 422.62 394.81 423.35 394.23 424.05 393.63 424.72 392.99 425.36 392.33 425.98 391.63 426.56 390.92 427.11 390.18 427.63 389.41 428.12 388.62 428.58 387.82 429 386.99 429.38 386.15 429.73 385.29 430.04 384.42 430.31 383.54 430.54 382.64 430.74 381.74 430.9 380.83 431.02 379.91 431.1 378.99 431.14 378.06 431.14 377.14 431.1 376.21 431.02 375.29 430.9 374.37 430.74 373.46 430.54 372.56 430.31 371.66 430.04 370.78 429.73 369.91 429.38 369.05 429 368.21 428.58 367.38 428.12 366.58 427.63 365.79 427.11 365.02 426.56 364.28 425.98 363.57 425.36 362.87 424.72 362.21 424.05 361.57 423.35 360.97 422.62 360.39 421.88 359.84 421.11 359.33 420.32 358.85 419.5 358.41 418.67 357.99 417.83 357.62 416.97 357.28 416.09 356.98 415.21 356.72 414.31 356.49 413.4 356.31 412.49 356.16 411.57 356.05 410.65 355.98 409.72 355.95 408.8 355.96 407.87 356.01 406.95 356.1 406.03 356.23 405.12 356.39 404.22 356.6 403.33 356.84 402.45 357.13 401.58 357.45 400.73 357.8 399.89 358.2 399.07 358.62 398.27 359.09 397.49 359.58 396.73 360.11 395.99 360.67 395.28 361.27 394.6 361.89 393.94 362.54 393.31 363.22 392.71 363.92 392.14 364.65 391.6 365.4 391.1 366.18 390.63 366.98 390.19 367.79 389.79 368.63 389.42 369.48 389.09 370.34 388.8 371.22 388.55 372.11 388.33 373.01 388.16 373.92 388.02 374.83 387.92 375.75 387.86 376.67 387.84 377.6 M 287.84 377.6 287.86 378.53 287.92 379.45 288.02 380.37 288.16 381.28 288.33 382.19 288.55 383.09 288.8 383.98 289.09 384.86 289.42 385.72 289.79 386.57 290.19 387.41 290.63 388.22 291.1 389.02 291.6 389.8 292.14 390.55 292.71 391.28 293.31 391.98 293.94 392.66 294.6 393.31 295.28 393.93 295.99 394.53 296.73 395.09 297.49 395.62 298.27 396.11 299.07 396.58 299.89 397 300.73 397.4 301.58 397.75 302.45 398.07 303.33 398.36 304.22 398.6 305.12 398.81 306.03 398.97 306.95 399.1 307.87 399.19 308.8 399.24 309.72 399.25 310.65 399.22 311.57 399.15 312.49 399.04 313.4 398.89 314.31 398.71 315.21 398.48 316.09 398.22 316.97 397.92 317.83 397.58 318.67 397.21 319.5 396.79 320.31 396.35 321.11 395.87 321.88 395.36 322.62 394.81 323.35 394.23 324.05 393.63 324.72 392.99 325.36 392.33 325.98 391.63 326.56 390.92 327.11 390.18 327.63 389.41 328.12 388.62 328.58 387.82 329 386.99 329.38 386.15 329.73 385.29 330.04 384.42 330.31 383.54 330.54 382.64 330.74 381.74 330.9 380.83 331.02 379.91 331.1 378.99 331.14 378.06 331.14 377.14 331.1 376.21 331.02 375.29 330.9 374.37 330.74 373.46 330.54 372.56 330.31 371.66 330.04 370.78 329.73 369.91 329.38 369.05 329 368.21 328.58 367.38 328.12 366.58 327.63 365.79 327.11 365.02 326.56 364.28 325.98 363.57 325.36 362.87 324.72 362.21 324.05 361.57 323.35 360.97 322.62 360.39 321.88 359.84 321.11 359.33 320.32 358.85 319.5 358.41 318.67 357.99 317.83 357.62 316.97 357.28 316.09 356.98 315.21 356.72 314.31 356.49 313.4 356.31 312.49 356.16 311.57 356.05 310.65 355.98 309.72 355.95 308.8 355.96 307.87 356.01 306.95 356.1 306.03 356.23 305.12 356.39 304.22 356.6 303.33 356.84 302.45 357.13 301.58 357.45 300.73 357.8 299.89 358.2 299.07 358.62 298.27 359.09 297.49 359.58 296.73 360.11 295.99 360.67 295.28 361.27 294.6 361.89 293.94 362.54 293.31 363.22 292.71 363.92 292.14 364.65 291.6 365.4 291.1 366.18 290.63 366.98 290.19 367.79 289.79 368.63 289.42 369.48 289.09 370.34 288.8 371.22 288.55 372.11 288.33 373.01 288.16 373.92 288.02 374.83 287.92 375.75 287.86 376.67 287.84 377.6 M 287.84 477.6 287.86 478.53 287.92 479.45 288.02 480.37 288.16 481.28 288.33 482.19 288.55 483.09 288.8 483.98 289.09 484.86 289.42 485.72 289.79 486.57 290.19 487.41 290.63 488.22 291.1 489.02 291.6 489.8 292.14 490.55 292.71 491.28 293.31 491.98 293.94 492.66 294.6 493.31 295.28 493.93 295.99 494.53 296.73 495.09 297.49 495.62 298.27 496.11 299.07 496.58 299.89 497 300.73 497.4 301.58 497.75 302.45 498.07 303.33 498.36 304.22 498.6 305.12 498.81 306.03 498.97 306.95 499.1 307.87 499.19 308.8 499.24 309.72 499.25 310.65 499.22 311.57 499.15 312.49 499.04 313.4 498.89 314.31 498.71 315.21 498.48 316.09 498.22 316.97 497.92 317.83 497.58 318.67 497.21 319.5 496.79 320.31 496.35 321.11 495.87 321.88 495.36 322.62 494.81 323.35 494.23 324.05 493.63 324.72 492.99 325.36 492.33 325.98 491.63 326.56 490.92 327.11 490.18 327.63 489.41 328.12 488.62 328.58 487.82 329 486.99 329.38 486.15 329.73 485.29 330.04 484.42 330.31 483.54 330.54 482.64 330.74 481.74 330.9 480.83 331.02 479.91 331.1 478.99 331.14 478.06 331.14 477.14 331.1 476.21 331.02 475.29 330.9 474.37 330.74 473.46 330.54 472.56 330.31 471.66 330.04 470.78 329.73 469.91 329.38 469.05 329 468.21 328.58 467.38 328.12 466.58 327.63 465.79 327.11 465.02 326.56 464.28 325.98 463.57 325.36 462.87 324.72 462.21 324.05 461.57 323.35 460.97 322.62 460.39 321.88 459.84 321.11 459.33 320.32 458.85 319.5 458.41 318.67 457.99 317.83 457.62 316.97 457.28 316.09 456.98 315.21 456.72 314.31 456.49 313.4 456.31 312.49 456.16 311.57 456.05 310.65 455.98 309.72 455.95 308.8 455.96 307.87 456.01 306.95 456.1 306.03 456.23 305.12 456.39 304.22 456.6 303.33 456.84 302.45 457.13 301.58 457.45 300.73 457.8 299.89 458.2 299.07 458.62 298.27 459.09 297.49 459.58 296.73 460.11 295.99 460.67 295.28 461.27 294.6 461.89 293.94 462.54 293.31 463.22 292.71 463.92 292.14 464.65 291.6 465.4 291.1 466.18 290.63 466.98 290.19 467.79 289.79 468.63 289.42 469.48 289.09 470.34 288.8 471.22 288.55 472.11 288.33 473.01 288.16 473.92 288.02 474.83 287.92 475.75 287.86 476.67 287.84 477.6 M 387.84 477.6 387.86 478.53 387.92 479.45 388.02 480.37 388.16 481.28 388.33 482.19 388.55 483.09 388.8 483.98 389.09 484.86 389.42 485.72 389.79 486.57 390.19 487.41 390.63 488.22 391.1 489.02 391.6 489.8 392.14 490.55 392.71 491.28 393.31 491.98 393.94 492.66 394.6 493.31 395.28 493.93 395.99 494.53 396.73 495.09 397.49 495.62 398.27 496.11 399.07 496.58 399.89 497 400.73 497.4 401.58 497.75 402.45 498.07 403.33 498.36 404.22 498.6 405.12 498.81 406.03 498.97 406.95 499.1 407.87 499.19 408.8 499.24 409.72 499.25 410.65 499.22 411.57 499.15 412.49 499.04 413.4 498.89 414.31 498.71 415.21 498.48 416.09 498.22 416.97 497.92 417.83 497.58 418.67 497.21 419.5 496.79 420.31 496.35 421.11 495.87 421.88 495.36 422.62 494.81 423.35 494.23 424.05 493.63 424.72 492.99 425.36 492.33 425.98 491.63 426.56 490.92 427.11 490.18 427.63 489.41 428.12 488.62 428.58 487.82 429 486.99 429.38 486.15 429.73 485.29 430.04 484.42 430.31 483.54 430.54 482.64 430.74 481.74 430.9 480.83 431.02 479.91 431.1 478.99 431.14 478.06 431.14 477.14 431.1 476.21 431.02 475.29 430.9 474.37 430.74 473.46 430.54 472.56 430.31 471.66 430.04 470.78 429.73 469.91 429.38 469.05 429 468.21 428.58 467.38 428.12 466.58 427.63 465.79 427.11 465.02 426.56 464.28 425.98 463.57 425.36 462.87 424.72 462.21 424.05 461.57 423.35 460.97 422.62 460.39 421.88 459.84 421.11 459.33 420.32 458.85 419.5 458.41 418.67 457.99 417.83 457.62 416.97 457.28 416.09 456.98 415.21 456.72 414.31 456.49 413.4 456.31 412.49 456.16 411.57 456.05 410.65 455.98 409.72 455.95 408.8 455.96 407.87 456.01 406.95 456.1 406.03 456.23 405.12 456.39 404.22 456.6 403.33 456.84 402.45 457.13 401.58 457.45 400.73 457.8 399.89 458.2 399.07 458.62 398.27 459.09 397.49 459.58 396.73 460.11 395.99 460.67 395.28 461.27 394.6 461.89 393.94 462.54 393.31 463.22 392.71 463.92 392.14 464.65 391.6 465.4 391.1 466.18 390.63 466.98 390.19 467.79 389.79 468.63 389.42 469.48 389.09 470.34 388.8 471.22 388.55 472.11 388.33 473.01 388.16 473.92 388.02 474.83 387.92 475.75 387.86 476.67 387.84 477.6 M 387.84 577.6 387.86 578.53 387.92 579.45 388.02 580.37 388.16 581.28 388.33 582.19 388.55 583.09 388.8 583.98 389.09 584.86 389.42 585.72 389.79 586.57 390.19 587.41 390.63 588.22 391.1 589.02 391.6 589.8 392.14 590.55 392.71 591.28 393.31 591.98 393.94 592.66 394.6 593.31 395.28 593.93 395.99 594.53 396.73 595.09 397.49 595.62 398.27 596.11 399.07 596.58 399.89 597 400.73 597.4 401.58 597.75 402.45 598.07 403.33 598.36 404.22 598.6 405.12 598.81 406.03 598.97 406.95 599.1 407.87 599.19 408.8 599.24 409.72 599.25 410.65 599.22 411.57 599.15 412.49 599.04 413.4 598.89 414.31 598.71 415.21 598.48 416.09 598.22 416.97 597.92 417.83 597.58 418.67 597.21 419.5 596.79 420.31 596.35 421.11 595.87 421.88 595.36 422.62 594.81 423.35 594.23 424.05 593.63 424.72 592.99 425.36 592.33 425.98 591.63 426.56 590.92 427.11 590.18 427.63 589.41 428.12 588.62 428.58 587.82 429 586.99 429.38 586.15 429.73 585.29 430.04 584.42 430.31 583.54 430.54 582.64 430.74 581.74 430.9 580.83 431.02 579.91 431.1 578.99 431.14 578.06 431.14 577.14 431.1 576.21 431.02 575.29 430.9 574.37 430.74 573.46 430.54 572.56 430.31 571.66 430.04 570.78 429.73 569.91 429.38 569.05 429 568.21 428.58 567.38 428.12 566.58 427.63 565.79 427.11 565.02 426.56 564.28 425.98 563.57 425.36 562.87 424.72 562.21 424.05 561.57 423.35 560.97 422.62 560.39 421.88 559.84 421.11 559.33 420.32 558.85 419.5 558.41 418.67 557.99 417.83 557.62 416.97 557.28 416.09 556.98 415.21 556.72 414.31 556.49 413.4 556.31 412.49 556.16 411.57 556.05 410.65 555.98 409.72 555.95 408.8 555.96 407.87 556.01 406.95 556.1 406.03 556.23 405.12 556.39 404.22 556.6 403.33 556.84 402.45 557.13 401.58 557.45 400.73 557.8 399.89 558.2 399.07 558.62 398.27 559.09 397.49 559.58 396.73 560.11 395.99 560.67 395.28 561.27 394.6 561.89 393.94 562.54 393.31 563.22 392.71 563.92 392.14 564.65 391.6 565.4 391.1 566.18 390.63 566.98 390.19 567.79 389.79 568.63 389.42 569.48 389.09 570.34 388.8 571.22 388.55 572.11 388.33 573.01 388.16 573.92 388.02 574.83 387.92 575.75 387.86 576.67 387.84 577.6 M 287.84 577.6 287.86 578.53 287.92 579.45 288.02 580.37 288.16 581.28 288.33 582.19 288.55 583.09 288.8 583.98 289.09 584.86 289.42 585.72 289.79 586.57 290.19 587.41 290.63 588.22 291.1 589.02 291.6 589.8 292.14 590.55 292.71 591.28 293.31 591.98 293.94 592.66 294.6 593.31 295.28 593.93 295.99 594.53 296.73 595.09 297.49 595.62 298.27 596.11 299.07 596.58 299.89 597 300.73 597.4 301.58 597.75 302.45 598.07 303.33 598.36 304.22 598.6 305.12 598.81 306.03 598.97 306.95 599.1 307.87 599.19 308.8 599.24 309.72 599.25 310.65 599.22 311.57 599.15 312.49 599.04 313.4 598.89 314.31 598.71 315.21 598.48 316.09 598.22 316.97 597.92 317.83 597.58 318.67 597.21 319.5 596.79 320.31 596.35 321.11 595.87 321.88 595.36 322.62 594.81 323.35 594.23 324.05 593.63 324.72 592.99 325.36 592.33 325.98 591.63 326.56 590.92 327.11 590.18 327.63 589.41 328.12 588.62 328.58 587.82 329 586.99 329.38 586.15 329.73 585.29 330.04 584.42 330.31 583.54 330.54 582.64 330.74 581.74 330.9 580.83 331.02 579.91 331.1 578.99 331.14 578.06 331.14 577.14 331.1 576.21 331.02 575.29 330.9 574.37 330.74 573.46 330.54 572.56 330.31 571.66 330.04 570.78 329.73 569.91 329.38 569.05 329 568.21 328.58 567.38 328.12 566.58 327.63 565.79 327.11 565.02 326.56 564.28 325.98 563.57 325.36 562.87 324.72 562.21 324.05 561.57 323.35 560.97 322.62 560.39 321.88 559.84 321.11 559.33 320.32 558.85 319.5 558.41 318.67 557.99 317.83 557.62 316.97 557.28 316.09 556.98 315.21 556.72 314.31 556.49 313.4 556.31 312.49 556.16 311.57 556.05 310.65 555.98 309.72 555.95 308.8 555.96 307.87 556.01 306.95 556.1 306.03 556.23 305.12 556.39 304.22 556.6 303.33 556.84 302.45 557.13 301.58 557.45 300.73 557.8 299.89 558.2 299.07 558.62 298.27 559.09 297.49 559.58 296.73 560.11 295.99 560.67 295.28 561.27 294.6 561.89 293.94 562.54 293.31 563.22 292.71 563.92 292.14 564.65 291.6 565.4 291.1 566.18 290.63 566.98 290.19 567.79 289.79 568.63 289.42 569.48 289.09 570.34 288.8 571.22 288.55 572.11 288.33 573.01 288.16 573.92 288.02 574.83 287.92 575.75 287.86 576.67 287.84 577.6 M 1114.61 577.6 1114.63 578.53 1114.69 579.45 1114.79 580.37 1114.93 581.28 1115.1 582.19 1115.32 583.09 1115.57 583.98 1115.86 584.86 1116.19 585.72 1116.56 586.57 1116.96 587.41 1117.4 588.22 1117.87 589.02 1118.37 589.8 1118.91 590.55 1119.48 591.28 1120.08 591.98 1120.71 592.66 1121.37 593.31 1122.05 593.93 1122.76 594.53 1123.5 595.09 1124.26 595.62 1125.04 596.11 1125.84 596.58 1126.66 597 1127.5 597.4 1128.35 597.75 1129.22 598.07 1130.1 598.36 1130.99 598.6 1131.89 598.81 1132.8 598.97 1133.72 599.1 1134.64 599.19 1135.57 599.24 1136.49 599.25 1137.42 599.22 1138.34 599.15 1139.26 599.04 1140.17 598.89 1141.08 598.71 1141.98 598.48 1142.86 598.22 1143.74 597.92 1144.6 597.58 1145.44 597.21 1146.27 596.79 1147.08 596.35 1147.88 595.87 1148.65 595.36 1149.39 594.81 1150.12 594.23 1150.82 593.63 1151.49 592.99 1152.13 592.33 1152.75 591.63 1153.33 590.92 1153.88 590.18 1154.4 589.41 1154.89 588.62 1155.35 587.82 1155.77 586.99 1156.15 586.15 1156.5 585.29 1156.81 584.42 1157.08 583.54 1157.31 582.64 1157.51 581.74 1157.67 580.83 1157.79 579.91 1157.87 578.99 1157.91 578.06 1157.91 577.14 1157.87 576.21 1157.79 575.29 1157.67 574.37 1157.51 573.46 1157.31 572.56 1157.08 571.66 1156.81 570.78 1156.5 569.91 1156.15 569.05 1155.77 568.21 1155.35 567.38 1154.89 566.58 1154.4 565.79 1153.88 565.02 1153.33 564.28 1152.75 563.57 1152.13 562.87 1151.49 562.21 1150.82 561.57 1150.12 560.97 1149.39 560.39 1148.65 559.84 1147.88 559.33 1147.09 558.85 1146.27 558.41 1145.44 557.99 1144.6 557.62 1143.74 557.28 1142.86 556.98 1141.98 556.72 1141.08 556.49 1140.17 556.31 1139.26 556.16 1138.34 556.05 1137.42 555.98 1136.49 555.95 1135.57 555.96 1134.64 556.01 1133.72 556.1 1132.8 556.23 1131.89 556.39 1130.99 556.6 1130.1 556.84 1129.22 557.13 1128.35 557.45 1127.5 557.8 1126.66 558.2 1125.84 558.62 1125.04 559.09 1124.26 559.58 1123.5 560.11 1122.76 560.67 1122.05 561.27 1121.37 561.89 1120.71 562.54 1120.08 563.22 1119.48 563.92 1118.91 564.65 1118.37 565.4 1117.87 566.18 1117.4 566.98 1116.96 567.79 1116.56 568.63 1116.19 569.48 1115.86 570.34 1115.57 571.22 1115.32 572.11 1115.1 573.01 1114.93 573.92 1114.79 574.83 1114.69 575.75 1114.63 576.67 1114.61 577.6 M 1214.61 577.6 1214.63 578.53 1214.69 579.45 1214.79 580.37 1214.93 581.28 1215.1 582.19 1215.32 583.09 1215.57 583.98 1215.86 584.86 1216.19 585.72 1216.56 586.57 1216.96 587.41 1217.4 588.22 1217.87 589.02 1218.37 589.8 1218.91 590.55 1219.48 591.28 1220.08 591.98 1220.71 592.66 1221.37 593.31 1222.05 593.93 1222.76 594.53 1223.5 595.09 1224.26 595.62 1225.04 596.11 1225.84 596.58 1226.66 597 1227.5 597.4 1228.35 597.75 1229.22 598.07 1230.1 598.36 1230.99 598.6 1231.89 598.81 1232.8 598.97 1233.72 599.1 1234.64 599.19 1235.57 599.24 1236.49 599.25 1237.42 599.22 1238.34 599.15 1239.26 599.04 1240.17 598.89 1241.08 598.71 1241.98 598.48 1242.86 598.22 1243.74 597.92 1244.6 597.58 1245.44 597.21 1246.27 596.79 1247.08 596.35 1247.88 595.87 1248.65 595.36 1249.39 594.81 1250.12 594.23 1250.82 593.63 1251.49 592.99 1252.13 592.33 1252.75 591.63 1253.33 590.92 1253.88 590.18 1254.4 589.41 1254.89 588.62 1255.35 587.82 1255.77 586.99 1256.15 586.15 1256.5 585.29 1256.81 584.42 1257.08 583.54 1257.31 582.64 1257.51 581.74 1257.67 580.83 1257.79 579.91 1257.87 578.99 1257.91 578.06 1257.91 577.14 1257.87 576.21 1257.79 575.29 1257.67 574.37 1257.51 573.46 1257.31 572.56 1257.08 571.66 1256.81 570.78 1256.5 569.91 1256.15 569.05 1255.77 568.21 1255.35 567.38 1254.89 566.58 1254.4 565.79 1253.88 565.02 1253.33 564.28 1252.75 563.57 1252.13 562.87 1251.49 562.21 1250.82 561.57 1250.12 560.97 1249.39 560.39 1248.65 559.84 1247.88 559.33 1247.09 558.85 1246.27 558.41 1245.44 557.99 1244.6 557.62 1243.74 557.28 1242.86 556.98 1241.98 556.72 1241.08 556.49 1240.17 556.31 1239.26 556.16 1238.34 556.05 1237.42 555.98 1236.49 555.95 1235.57 555.96 1234.64 556.01 1233.72 556.1 1232.8 556.23 1231.89 556.39 1230.99 556.6 1230.1 556.84 1229.22 557.13 1228.35 557.45 1227.5 557.8 1226.66 558.2 1225.84 558.62 1225.04 559.09 1224.26 559.58 1223.5 560.11 1222.76 560.67 1222.05 561.27 1221.37 561.89 1220.71 562.54 1220.08 563.22 1219.48 563.92 1218.91 564.65 1218.37 565.4 1217.87 566.18 1217.4 566.98 1216.96 567.79 1216.56 568.63 1216.19 569.48 1215.86 570.34 1215.57 571.22 1215.32 572.11 1215.1 573.01 1214.93 573.92 1214.79 574.83 1214.69 575.75 1214.63 576.67 1214.61 577.6 M 1214.61 477.6 1214.63 478.53 1214.69 479.45 1214.79 480.37 1214.93 481.28 1215.1 482.19 1215.32 483.09 1215.57 483.98 1215.86 484.86 1216.19 485.72 1216.56 486.57 1216.96 487.41 1217.4 488.22 1217.87 489.02 1218.37 489.8 1218.91 490.55 1219.48 491.28 1220.08 491.98 1220.71 492.66 1221.37 493.31 1222.05 493.93 1222.76 494.53 1223.5 495.09 1224.26 495.62 1225.04 496.11 1225.84 496.58 1226.66 497 1227.5 497.4 1228.35 497.75 1229.22 498.07 1230.1 498.36 1230.99 498.6 1231.89 498.81 1232.8 498.97 1233.72 499.1 1234.64 499.19 1235.57 499.24 1236.49 499.25 1237.42 499.22 1238.34 499.15 1239.26 499.04 1240.17 498.89 1241.08 498.71 1241.98 498.48 1242.86 498.22 1243.74 497.92 1244.6 497.58 1245.44 497.21 1246.27 496.79 1247.08 496.35 1247.88 495.87 1248.65 495.36 1249.39 494.81 1250.12 494.23 1250.82 493.63 1251.49 492.99 1252.13 492.33 1252.75 491.63 1253.33 490.92 1253.88 490.18 1254.4 489.41 1254.89 488.62 1255.35 487.82 1255.77 486.99 1256.15 486.15 1256.5 485.29 1256.81 484.42 1257.08 483.54 1257.31 482.64 1257.51 481.74 1257.67 480.83 1257.79 479.91 1257.87 478.99 1257.91 478.06 1257.91 477.14 1257.87 476.21 1257.79 475.29 1257.67 474.37 1257.51 473.46 1257.31 472.56 1257.08 471.66 1256.81 470.78 1256.5 469.91 1256.15 469.05 1255.77 468.21 1255.35 467.38 1254.89 466.58 1254.4 465.79 1253.88 465.02 1253.33 464.28 1252.75 463.57 1252.13 462.87 1251.49 462.21 1250.82 461.57 1250.12 460.97 1249.39 460.39 1248.65 459.84 1247.88 459.33 1247.09 458.85 1246.27 458.41 1245.44 457.99 1244.6 457.62 1243.74 457.28 1242.86 456.98 1241.98 456.72 1241.08 456.49 1240.17 456.31 1239.26 456.16 1238.34 456.05 1237.42 455.98 1236.49 455.95 1235.57 455.96 1234.64 456.01 1233.72 456.1 1232.8 456.23 1231.89 456.39 1230.99 456.6 1230.1 456.84 1229.22 457.13 1228.35 457.45 1227.5 457.8 1226.66 458.2 1225.84 458.62 1225.04 459.09 1224.26 459.58 1223.5 460.11 1222.76 460.67 1222.05 461.27 1221.37 461.89 1220.71 462.54 1220.08 463.22 1219.48 463.92 1218.91 464.65 1218.37 465.4 1217.87 466.18 1217.4 466.98 1216.96 467.79 1216.56 468.63 1216.19 469.48 1215.86 470.34 1215.57 471.22 1215.32 472.11 1215.1 473.01 1214.93 473.92 1214.79 474.83 1214.69 475.75 1214.63 476.67 1214.61 477.6 M 1114.61 477.6 1114.63 478.53 1114.69 479.45 1114.79 480.37 1114.93 481.28 1115.1 482.19 1115.32 483.09 1115.57 483.98 1115.86 484.86 1116.19 485.72 1116.56 486.57 1116.96 487.41 1117.4 488.22 1117.87 489.02 1118.37 489.8 1118.91 490.55 1119.48 491.28 1120.08 491.98 1120.71 492.66 1121.37 493.31 1122.05 493.93 1122.76 494.53 1123.5 495.09 1124.26 495.62 1125.04 496.11 1125.84 496.58 1126.66 497 1127.5 497.4 1128.35 497.75 1129.22 498.07 1130.1 498.36 1130.99 498.6 1131.89 498.81 1132.8 498.97 1133.72 499.1 1134.64 499.19 1135.57 499.24 1136.49 499.25 1137.42 499.22 1138.34 499.15 1139.26 499.04 1140.17 498.89 1141.08 498.71 1141.98 498.48 1142.86 498.22 1143.74 497.92 1144.6 497.58 1145.44 497.21 1146.27 496.79 1147.08 496.35 1147.88 495.87 1148.65 495.36 1149.39 494.81 1150.12 494.23 1150.82 493.63 1151.49 492.99 1152.13 492.33 1152.75 491.63 1153.33 490.92 1153.88 490.18 1154.4 489.41 1154.89 488.62 1155.35 487.82 1155.77 486.99 1156.15 486.15 1156.5 485.29 1156.81 484.42 1157.08 483.54 1157.31 482.64 1157.51 481.74 1157.67 480.83 1157.79 479.91 1157.87 478.99 1157.91 478.06 1157.91 477.14 1157.87 476.21 1157.79 475.29 1157.67 474.37 1157.51 473.46 1157.31 472.56 1157.08 471.66 1156.81 470.78 1156.5 469.91 1156.15 469.05 1155.77 468.21 1155.35 467.38 1154.89 466.58 1154.4 465.79 1153.88 465.02 1153.33 464.28 1152.75 463.57 1152.13 462.87 1151.49 462.21 1150.82 461.57 1150.12 460.97 1149.39 460.39 1148.65 459.84 1147.88 459.33 1147.09 458.85 1146.27 458.41 1145.44 457.99 1144.6 457.62 1143.74 457.28 1142.86 456.98 1141.98 456.72 1141.08 456.49 1140.17 456.31 1139.26 456.16 1138.34 456.05 1137.42 455.98 1136.49 455.95 1135.57 455.96 1134.64 456.01 1133.72 456.1 1132.8 456.23 1131.89 456.39 1130.99 456.6 1130.1 456.84 1129.22 457.13 1128.35 457.45 1127.5 457.8 1126.66 458.2 1125.84 458.62 1125.04 459.09 1124.26 459.58 1123.5 460.11 1122.76 460.67 1122.05 461.27 1121.37 461.89 1120.71 462.54 1120.08 463.22 1119.48 463.92 1118.91 464.65 1118.37 465.4 1117.87 466.18 1117.4 466.98 1116.96 467.79 1116.56 468.63 1116.19 469.48 1115.86 470.34 1115.57 471.22 1115.32 472.11 1115.1 473.01 1114.93 473.92 1114.79 474.83 1114.69 475.75 1114.63 476.67 1114.61 477.6 M 1114.61 377.6 1114.63 378.53 1114.69 379.45 1114.79 380.37 1114.93 381.28 1115.1 382.19 1115.32 383.09 1115.57 383.98 1115.86 384.86 1116.19 385.72 1116.56 386.57 1116.96 387.41 1117.4 388.22 1117.87 389.02 1118.37 389.8 1118.91 390.55 1119.48 391.28 1120.08 391.98 1120.71 392.66 1121.37 393.31 1122.05 393.93 1122.76 394.53 1123.5 395.09 1124.26 395.62 1125.04 396.11 1125.84 396.58 1126.66 397 1127.5 397.4 1128.35 397.75 1129.22 398.07 1130.1 398.36 1130.99 398.6 1131.89 398.81 1132.8 398.97 1133.72 399.1 1134.64 399.19 1135.57 399.24 1136.49 399.25 1137.42 399.22 1138.34 399.15 1139.26 399.04 1140.17 398.89 1141.08 398.71 1141.98 398.48 1142.86 398.22 1143.74 397.92 1144.6 397.58 1145.44 397.21 1146.27 396.79 1147.08 396.35 1147.88 395.87 1148.65 395.36 1149.39 394.81 1150.12 394.23 1150.82 393.63 1151.49 392.99 1152.13 392.33 1152.75 391.63 1153.33 390.92 1153.88 390.18 1154.4 389.41 1154.89 388.62 1155.35 387.82 1155.77 386.99 1156.15 386.15 1156.5 385.29 1156.81 384.42 1157.08 383.54 1157.31 382.64 1157.51 381.74 1157.67 380.83 1157.79 379.91 1157.87 378.99 1157.91 378.06 1157.91 377.14 1157.87 376.21 1157.79 375.29 1157.67 374.37 1157.51 373.46 1157.31 372.56 1157.08 371.66 1156.81 370.78 1156.5 369.91 1156.15 369.05 1155.77 368.21 1155.35 367.38 1154.89 366.58 1154.4 365.79 1153.88 365.02 1153.33 364.28 1152.75 363.57 1152.13 362.87 1151.49 362.21 1150.82 361.57 1150.12 360.97 1149.39 360.39 1148.65 359.84 1147.88 359.33 1147.09 358.85 1146.27 358.41 1145.44 357.99 1144.6 357.62 1143.74 357.28 1142.86 356.98 1141.98 356.72 1141.08 356.49 1140.17 356.31 1139.26 356.16 1138.34 356.05 1137.42 355.98 1136.49 355.95 1135.57 355.96 1134.64 356.01 1133.72 356.1 1132.8 356.23 1131.89 356.39 1130.99 356.6 1130.1 356.84 1129.22 357.13 1128.35 357.45 1127.5 357.8 1126.66 358.2 1125.84 358.62 1125.04 359.09 1124.26 359.58 1123.5 360.11 1122.76 360.67 1122.05 361.27 1121.37 361.89 1120.71 362.54 1120.08 363.22 1119.48 363.92 1118.91 364.65 1118.37 365.4 1117.87 366.18 1117.4 366.98 1116.96 367.79 1116.56 368.63 1116.19 369.48 1115.86 370.34 1115.57 371.22 1115.32 372.11 1115.1 373.01 1114.93 373.92 1114.79 374.83 1114.69 375.75 1114.63 376.67 1114.61 377.6 M 1214.61 377.6 1214.63 378.53 1214.69 379.45 1214.79 380.37 1214.93 381.28 1215.1 382.19 1215.32 383.09 1215.57 383.98 1215.86 384.86 1216.19 385.72 1216.56 386.57 1216.96 387.41 1217.4 388.22 1217.87 389.02 1218.37 389.8 1218.91 390.55 1219.48 391.28 1220.08 391.98 1220.71 392.66 1221.37 393.31 1222.05 393.93 1222.76 394.53 1223.5 395.09 1224.26 395.62 1225.04 396.11 1225.84 396.58 1226.66 397 1227.5 397.4 1228.35 397.75 1229.22 398.07 1230.1 398.36 1230.99 398.6 1231.89 398.81 1232.8 398.97 1233.72 399.1 1234.64 399.19 1235.57 399.24 1236.49 399.25 1237.42 399.22 1238.34 399.15 1239.26 399.04 1240.17 398.89 1241.08 398.71 1241.98 398.48 1242.86 398.22 1243.74 397.92 1244.6 397.58 1245.44 397.21 1246.27 396.79 1247.08 396.35 1247.88 395.87 1248.65 395.36 1249.39 394.81 1250.12 394.23 1250.82 393.63 1251.49 392.99 1252.13 392.33 1252.75 391.63 1253.33 390.92 1253.88 390.18 1254.4 389.41 1254.89 388.62 1255.35 387.82 1255.77 386.99 1256.15 386.15 1256.5 385.29 1256.81 384.42 1257.08 383.54 1257.31 382.64 1257.51 381.74 1257.67 380.83 1257.79 379.91 1257.87 378.99 1257.91 378.06 1257.91 377.14 1257.87 376.21 1257.79 375.29 1257.67 374.37 1257.51 373.46 1257.31 372.56 1257.08 371.66 1256.81 370.78 1256.5 369.91 1256.15 369.05 1255.77 368.21 1255.35 367.38 1254.89 366.58 1254.4 365.79 1253.88 365.02 1253.33 364.28 1252.75 363.57 1252.13 362.87 1251.49 362.21 1250.82 361.57 1250.12 360.97 1249.39 360.39 1248.65 359.84 1247.88 359.33 1247.09 358.85 1246.27 358.41 1245.44 357.99 1244.6 357.62 1243.74 357.28 1242.86 356.98 1241.98 356.72 1241.08 356.49 1240.17 356.31 1239.26 356.16 1238.34 356.05 1237.42 355.98 1236.49 355.95 1235.57 355.96 1234.64 356.01 1233.72 356.1 1232.8 356.23 1231.89 356.39 1230.99 356.6 1230.1 356.84 1229.22 357.13 1228.35 357.45 1227.5 357.8 1226.66 358.2 1225.84 358.62 1225.04 359.09 1224.26 359.58 1223.5 360.11 1222.76 360.67 1222.05 361.27 1221.37 361.89 1220.71 362.54 1220.08 363.22 1219.48 363.92 1218.91 364.65 1218.37 365.4 1217.87 366.18 1217.4 366.98 1216.96 367.79 1216.56 368.63 1216.19 369.48 1215.86 370.34 1215.57 371.22 1215.32 372.11 1215.1 373.01 1214.93 373.92 1214.79 374.83 1214.69 375.75 1214.63 376.67 1214.61 377.6" fill="none" stroke-width="0"/><use xlink:href="#qnm_AjnmkjmwNszis-OE_pad-11" x="1310.67" y="377.99"/><use xlink:href="#qnm_AjnmkjmwNszis-OE_pad-11" x="1310.67" y="477.99"/><use xlink:href="#qnm_AjnmkjmwNszis-OE_pad-11" x="1311.06" y="577.6"/><use xlink:href="#qnm_AjnmkjmwNszis-OE_pad-11" x="1062.24" y="577.6"/><use xlink:href="#qnm_AjnmkjmwNszis-OE_pad-11" x="1062.64" y="477.99"/><use xlink:href="#qnm_AjnmkjmwNszis-OE_pad-11" x="1062.64" y="377.99"/><use xlink:href="#qnm_AjnmkjmwNszis-OE_pad-11" x="483.9" y="377.99"/><use xlink:href="#qnm_AjnmkjmwNszis-OE_pad-11" x="483.9" y="477.99"/><use xlink:href="#qnm_AjnmkjmwNszis-OE_pad-11" x="484.29" y="577.6"/><use xlink:href="#qnm_AjnmkjmwNszis-OE_pad-11" x="235.47" y="577.6"/><use xlink:href="#qnm_AjnmkjmwNszis-OE_pad-11" x="235.87" y="477.99"/><use xlink:href="#qnm_AjnmkjmwNszis-OE_pad-11" x="235.87" y="377.99"/><use xlink:href="#qnm_AjnmkjmwNszis-OE_pad-12" x="359.49" y="521.89"/><use xlink:href="#qnm_AjnmkjmwNszis-OE_pad-12" x="564.26" y="603.63"/><use xlink:href="#qnm_AjnmkjmwNszis-OE_pad-12" x="610.47" y="712.83"/><use xlink:href="#qnm_AjnmkjmwNszis-OE_pad-12" x="684.29" y="708.9"/><use xlink:href="#qnm_AjnmkjmwNszis-OE_pad-12" x="818.64" y="730.91"/><use xlink:href="#qnm_AjnmkjmwNszis-OE_pad-12" x="775.64" y="614.91"/><use xlink:href="#qnm_AjnmkjmwNszis-OE_pad-12" x="994.33" y="600.63"/><path d="M 994.33 600.63 948.12 646.84 807.57 646.84 775.64 614.91 770.64 619.91 680.64 619.91 661.64 638.91 661.64 699.91 670.63 708.9 684.29 708.9 M 678.64 739.91 809.64 739.91 818.64 730.91 M 678.64 739.91 644.92 706.19 644.92 640 625.24 620.31 580.94 620.31 564.26 603.63 M 460.64 621.91 257.64 621.91 235.47 599.74 235.47 577.6 M 256.14 521.89 359.49 521.89 M 256.14 521.89 235.87 501.61 235.87 477.99 M 502.2 531.73 546.5 531.73 M 510.64 671.91 510.64 712.91 510.66 713.92 510.72 714.93 510.81 715.93 510.94 716.93 511.11 717.93 511.32 718.92 511.56 719.9 511.84 720.87 512.16 721.83 512.51 722.77 512.89 723.71 513.31 724.62 513.77 725.53 514.26 726.41 514.78 727.27 515.33 728.12 515.92 728.94 516.53 729.74 517.17 730.52 517.85 731.27 518.55 732 519.28 732.7 520.03 733.38 520.81 734.02 521.61 734.63 522.43 735.22 523.28 735.77 524.14 736.29 525.02 736.78 525.93 737.24 526.84 737.66 527.78 738.04 528.72 738.39 529.68 738.71 530.65 738.99 531.63 739.23 532.62 739.44 533.62 739.61 534.62 739.74 535.62 739.83 536.63 739.89 537.64 739.91 583.4 739.91 610.47 712.83 M 510.64 671.91 510.62 670.51 510.56 669.11 510.46 667.71 510.33 666.31 510.15 664.92 509.93 663.53 509.68 662.16 509.39 660.78 509.06 659.42 508.69 658.07 508.28 656.73 507.83 655.4 507.35 654.08 506.83 652.78 506.28 651.49 505.69 650.22 505.06 648.96 504.4 647.72 503.71 646.51 502.98 645.31 502.21 644.13 501.42 642.98 500.59 641.84 499.73 640.74 498.84 639.65 497.92 638.59 496.97 637.56 496 636.55 494.99 635.58 493.96 634.63 492.9 633.71 491.81 632.82 490.71 631.96 489.57 631.13 488.42 630.34 487.24 629.57 486.04 628.84 484.83 628.15 483.59 627.49 482.33 626.86 481.06 626.27 479.77 625.72 478.47 625.2 477.15 624.72 475.82 624.27 474.48 623.86 473.13 623.49 471.77 623.16 470.39 622.87 469.02 622.62 467.63 622.4 466.24 622.22 464.84 622.09 463.44 621.99 462.04 621.93 460.64 621.91" fill="none" stroke-width="6"/><path d="M 489.64 610.31 499.16 614.26 518.29 633.39 528.64 658.38 528.64 712.91 528.94 715.23 531.27 719.27 535.31 721.6 537.64 721.91 575.95 721.91 583.57 714.28 583.57 701.69 599.33 685.93 621.62 685.93 626.92 691.23 626.92 647.46 617.78 638.31 573.49 638.31 565.71 630.54 553.12 630.54 537.35 614.77 537.35 592.49 553.12 576.72 575.4 576.72 591.17 592.49 591.17 602.31 632.69 602.31 652.38 622 652.73 622.36 662.64 612.45 673.18 601.91 750.59 601.91 756.78 595.71 635.08 595.71 621.07 594.71 607.35 591.72 594.19 586.81 581.87 580.08 570.62 571.67 560.69 561.74 552.28 550.5 545.55 538.17 540.64 525.01 537.66 511.29 536.65 497.28 536.65 217.01 531.9 217.48 523.11 221.11 516.39 227.84 512.75 236.62 512.28 241.38 512.28 291.56 504.01 311.55 488.71 326.84 468.73 335.12 229.01 335.12 224.25 335.59 215.47 339.23 209.42 345.28 232.01 345.28 232.01 374.13 239.72 374.13 239.72 345.28 273.27 345.28 277.09 346.3 280.51 348.27 283.3 351.07 283.63 351.63 288.73 346.52 302.2 340.94 316.78 340.94 330.25 346.52 340.56 356.84 346.14 370.31 346.14 384.89 340.56 398.36 330.25 408.67 316.78 414.25 302.2 414.25 288.73 408.67 283.91 403.86 283.3 404.92 280.51 407.71 277.09 409.69 273.27 410.71 239.72 410.71 239.72 381.85 232.01 381.85 232.01 410.71 204.64 410.71 204.64 445.28 277.51 445.28 283.74 451.51 288.73 446.52 302.2 440.94 316.78 440.94 330.25 446.52 340.56 456.84 346.14 470.31 346.14 484.89 340.56 498.36 335.03 503.89 339.44 503.89 348.34 494.98 370.63 494.98 386.39 510.75 386.39 533.03 370.63 548.8 348.34 548.8 339.44 539.89 248.69 539.89 238.14 529.35 219.5 510.71 204.64 510.71 204.64 544.88 277.12 544.88 283.74 551.51 288.73 546.52 302.2 540.94 316.78 540.94 330.25 546.52 340.56 556.84 346.14 570.31 346.14 584.89 340.56 598.36 335.02 603.91 383.96 603.91 378.41 598.36 372.83 584.89 372.83 570.31 378.41 556.84 388.73 546.52 402.2 540.94 416.78 540.94 430.25 546.52 435.63 551.9 442.64 544.88 525.94 544.88 534.72 553.67 534.72 601.53 525.94 610.31 489.64 610.31 M 503.42 618.52 541.1 618.52 M 537.35 608.54 527.71 608.54 M 534.72 598.55 537.35 598.55 M 534.72 588.57 541.27 588.57 M 534.72 578.58 551.26 578.58 M 567.55 568.6 534.72 568.6 M 534.72 558.61 558.35 558.61 M 551.26 548.63 529.68 548.63 M 545.81 538.64 380.79 538.64 M 386.39 528.66 542 528.66 M 539.26 518.67 386.39 518.67 M 384.34 508.69 388.76 508.69 M 388.73 508.67 378.41 498.36 372.83 484.89 372.83 470.31 378.41 456.84 388.73 446.52 402.2 440.94 416.78 440.94 430.25 446.52 435.63 451.9 442.25 445.28 525.54 445.28 534.33 454.06 534.33 501.92 525.54 510.71 442.25 510.71 435.23 503.69 430.25 508.67 416.78 514.25 402.2 514.25 388.73 508.67 M 378.76 498.7 374.35 498.7 M 374.42 488.72 344.56 488.72 M 344.63 498.7 340.22 498.7 M 346.14 478.73 372.83 478.73 M 373.48 468.75 345.5 468.75 M 341.36 458.76 377.62 458.76 M 386.47 448.78 332.5 448.78 M 286.47 448.78 281.01 448.78 M 278.56 408.84 289.12 408.84 M 329.85 408.84 389.12 408.84 M 388.73 408.67 378.41 398.36 372.83 384.89 372.83 370.31 378.41 356.84 388.73 346.52 402.2 340.94 416.78 340.94 430.25 346.52 435.63 351.9 442.25 345.28 525.54 345.28 534.33 354.06 534.33 401.92 525.54 410.71 442.25 410.71 435.23 403.69 430.25 408.67 416.78 414.25 402.2 414.25 388.73 408.67 M 378.9 398.85 340.07 398.85 M 344.49 388.87 374.48 388.87 M 372.83 378.88 346.14 378.88 M 345.56 368.9 373.42 368.9 M 377.56 358.91 341.42 358.91 M 332.65 348.93 386.32 348.93 M 432.65 348.93 438.6 348.93 M 483.61 328.96 536.65 328.96 M 536.65 338.94 216.16 338.94 M 232.01 348.93 239.72 348.93 M 239.72 358.91 232.01 358.91 M 232.01 368.9 239.72 368.9 M 239.72 388.87 232.01 388.87 M 232.01 398.85 239.72 398.85 M 239.72 408.84 232.01 408.84 M 204.64 418.82 536.65 418.82 M 536.65 408.84 527.42 408.84 M 534.33 398.85 536.65 398.85 M 536.65 388.87 534.33 388.87 M 534.33 378.88 536.65 378.88 M 536.65 368.9 534.33 368.9 M 534.33 358.91 536.65 358.91 M 536.65 348.93 529.19 348.93 M 488.71 326.84 488.71 326.84 488.71 326.84 M 496.58 318.97 536.65 318.97 M 536.65 308.99 505.07 308.99 M 504.01 311.55 504.01 311.55 M 509.2 299 536.65 299 M 536.65 289.01 512.28 289.01 M 512.28 279.03 536.65 279.03 M 536.65 269.04 512.28 269.04 M 512.28 259.06 536.65 259.06 M 536.65 249.07 512.28 249.07 M 512.51 239.09 536.65 239.09 M 536.65 229.1 515.87 229.1 M 527.93 219.12 536.65 219.12 M 536.65 217.01 536.65 217.01 M 286.32 348.93 281.16 348.93 M 204.64 428.81 536.65 428.81 M 536.65 438.79 204.64 438.79 M 204.64 518.67 227.47 518.67 M 237.45 528.66 204.64 528.66 M 204.64 538.64 247.44 538.64 M 280.86 548.63 286.62 548.63 M 332.35 548.63 348.18 548.63 M 341.3 558.61 377.68 558.61 M 373.54 568.6 345.43 568.6 M 346.14 578.58 372.83 578.58 M 374.36 588.57 344.62 588.57 M 340.37 598.55 378.61 598.55 M 370.8 548.63 386.62 548.63 M 432.35 548.63 438.9 548.63 M 440.23 508.69 430.21 508.69 M 527.57 508.69 537.47 508.69 M 536.76 498.7 534.33 498.7 M 534.33 488.72 536.65 488.72 M 536.65 478.73 534.33 478.73 M 534.33 468.75 536.65 468.75 M 536.65 458.76 534.33 458.76 M 536.65 448.78 529.05 448.78 M 438.75 448.78 432.5 448.78 M 429.85 408.84 440.38 408.84 M 577.26 578.58 579.86 578.58 M 587.25 588.57 598.89 588.57 M 591.17 598.55 753.94 598.55 M 794.49 595.71 802.54 603.76 802.54 616.36 815.03 628.84 940.66 628.84 967.43 602.08 967.43 589.49 983.19 573.72 1005.48 573.72 1011.81 580.06 1011.81 553.67 1020.6 544.88 1103.89 544.88 1110.52 551.51 1115.5 546.52 1128.97 540.94 1143.55 540.94 1157.02 546.52 1167.33 556.84 1172.91 570.31 1172.91 584.89 1167.33 598.36 1157.02 608.67 1143.55 614.25 1128.97 614.25 1115.5 608.67 1110.52 603.69 1103.89 610.31 1021.24 610.31 1021.24 611.77 1005.48 627.54 992.88 627.54 966.12 654.3 955.57 664.84 800.12 664.84 777.09 641.81 764.49 641.81 760.59 637.91 688.09 637.91 679.64 646.36 679.64 681.99 695.44 681.99 711.2 697.75 711.2 720.04 709.33 721.91 791.73 721.91 791.73 719.76 807.49 704 829.78 704 845.54 719.76 845.54 738.19 1009.09 738.19 1013.85 737.72 1022.63 734.08 1029.36 727.36 1033 718.57 1033.46 713.82 1033.46 663.63 1041.74 643.65 1057.04 628.36 1077.02 620.08 1316.74 620.08 1321.49 619.61 1330.28 615.97 1335.94 610.31 1314.92 610.31 1314.92 581.46 1307.2 581.46 1307.2 610.31 1273.66 610.31 1269.84 609.29 1266.42 607.32 1263.63 604.53 1262.73 602.97 1257.02 608.67 1243.55 614.25 1228.97 614.25 1215.5 608.67 1205.19 598.36 1199.61 584.89 1199.61 570.31 1205.19 556.84 1215.5 546.52 1228.97 540.94 1243.55 540.94 1257.02 546.52 1262.73 552.23 1263.63 550.67 1266.42 547.88 1269.84 545.9 1273.66 544.88 1307.2 544.88 1307.2 573.74 1314.92 573.74 1314.92 544.88 1341.11 544.88 1341.11 510.71 1269.02 510.71 1262 503.69 1257.02 508.67 1243.55 514.25 1228.97 514.25 1215.5 508.67 1205.19 498.36 1199.61 484.89 1199.61 470.31 1205.19 456.84 1215.5 446.52 1228.97 440.94 1243.55 440.94 1257.02 446.52 1262.4 451.9 1269.02 445.28 1341.11 445.28 1341.11 410.71 1269.02 410.71 1262 403.69 1257.02 408.67 1243.55 414.25 1228.97 414.25 1215.5 408.67 1205.19 398.36 1199.61 384.89 1199.61 370.31 1205.19 356.84 1215.5 346.52 1228.97 340.94 1243.55 340.94 1257.02 346.52 1262.4 351.9 1269.02 345.28 1336.33 345.28 1330.28 339.23 1321.49 335.59 1316.74 335.12 1077.02 335.12 1057.04 326.84 1057.04 326.84 1041.74 311.55 1041.74 311.55 1033.46 291.56 1033.46 241.38 1033 236.62 1029.36 227.84 1022.63 221.11 1016.15 218.43 1017.8 348.47 1020.99 345.28 1104.28 345.28 1110.52 351.51 1115.5 346.52 1128.97 340.94 1143.55 340.94 1157.02 346.52 1167.33 356.84 1172.91 370.31 1172.91 384.89 1167.33 398.36 1157.02 408.67 1143.55 414.25 1128.97 414.25 1115.5 408.67 1110.91 404.08 1104.28 410.71 1020.99 410.71 1018.56 408.27 1018.94 438.23 1018.94 447.33 1020.99 445.28 1104.28 445.28 1110.52 451.51 1115.5 446.52 1128.97 440.94 1143.55 440.94 1157.02 446.52 1167.33 456.84 1172.91 470.31 1172.91 484.89 1167.33 498.36 1157.02 508.67 1143.55 514.25 1128.97 514.25 1115.5 508.67 1110.91 504.08 1104.28 510.71 1020.99 510.71 1018.18 507.9 1017.94 511.29 1014.95 525.01 1010.04 538.17 1003.31 550.5 994.9 561.74 984.97 571.67 973.72 580.08 961.4 586.81 948.24 591.72 934.52 594.71 920.51 595.71 794.49 595.71 M 797.34 598.55 967.43 598.55 M 968.34 588.57 956.7 588.57 M 960.97 608.54 802.54 608.54 M 804.71 618.52 950.98 618.52 M 941 628.51 814.7 628.51 M 783.76 648.48 679.64 648.48 M 679.64 658.46 793.74 658.46 M 761.18 638.49 687.51 638.49 M 656.56 618.52 648.9 618.52 M 638.92 608.54 666.55 608.54 M 617.96 638.49 520.4 638.49 M 518.29 633.39 518.29 633.39 518.29 633.39 M 513.41 628.51 551.09 628.51 M 524.54 648.48 626.92 648.48 M 626.92 658.46 528.64 658.46 M 528.64 668.45 626.92 668.45 M 626.92 678.43 528.64 678.43 M 528.64 688.42 596.84 688.42 M 586.85 698.4 528.64 698.4 M 528.64 708.39 583.57 708.39 M 579.48 718.37 530.76 718.37 M 624.11 688.42 626.92 688.42 M 679.64 678.43 1033.46 678.43 M 1033.46 688.42 701.86 688.42 M 711.2 698.4 1033.46 698.4 M 1033.46 708.39 834.17 708.39 M 844.16 718.37 1033.02 718.37 M 1028.36 728.36 845.54 728.36 M 803.1 708.39 711.2 708.39 M 711.2 718.37 793.12 718.37 M 679.64 668.45 1033.46 668.45 M 1035.61 658.46 961.95 658.46 M 971.94 648.48 1039.74 648.48 M 1041.74 643.65 1041.74 643.65 M 1046.9 638.49 981.92 638.49 M 991.91 628.51 1056.88 628.51 M 1057.04 628.36 1057.04 628.36 M 1014.49 618.52 1324.12 618.52 M 1330.28 615.97 1330.28 615.97 M 1314.92 608.54 1307.2 608.54 M 1307.2 598.55 1314.92 598.55 M 1314.92 588.57 1307.2 588.57 M 1307.2 568.6 1314.92 568.6 M 1314.92 558.61 1307.2 558.61 M 1307.2 548.63 1314.92 548.63 M 1341.11 538.64 1009.78 538.64 M 1013.59 528.66 1341.11 528.66 M 1341.11 518.67 1016.33 518.67 M 1018.12 508.69 1018.97 508.69 M 1016.85 548.63 1004.33 548.63 M 997.24 558.61 1011.81 558.61 M 1011.81 568.6 988.04 568.6 M 978.33 578.58 975.73 578.58 M 1010.33 578.58 1011.81 578.58 M 1105.67 608.54 1115.36 608.54 M 1157.16 608.54 1215.36 608.54 M 1205.38 598.55 1167.14 598.55 M 1171.39 588.57 1201.13 588.57 M 1199.61 578.58 1172.91 578.58 M 1172.21 568.6 1200.31 568.6 M 1204.45 558.61 1168.07 558.61 M 1159.13 548.63 1213.39 548.63 M 1259.13 548.63 1265.67 548.63 M 1267 508.69 1256.98 508.69 M 1215.53 508.69 1156.98 508.69 M 1166.99 498.7 1205.53 498.7 M 1201.19 488.72 1171.33 488.72 M 1172.91 478.73 1199.61 478.73 M 1200.25 468.75 1172.27 468.75 M 1168.13 458.76 1204.39 458.76 M 1213.25 448.78 1159.27 448.78 M 1113.25 448.78 1107.79 448.78 M 1106.16 408.84 1115.89 408.84 M 1156.63 408.84 1215.89 408.84 M 1205.68 398.85 1166.84 398.85 M 1171.27 388.87 1201.25 388.87 M 1199.61 378.88 1172.91 378.88 M 1172.33 368.9 1200.19 368.9 M 1204.33 358.91 1168.19 358.91 M 1159.42 348.93 1213.1 348.93 M 1259.42 348.93 1265.37 348.93 M 1329.59 338.94 1017.68 338.94 M 1017.55 328.96 1062.14 328.96 M 1049.17 318.97 1017.43 318.97 M 1017.3 308.99 1040.68 308.99 M 1036.55 299 1017.17 299 M 1017.05 289.01 1033.46 289.01 M 1033.46 279.03 1016.92 279.03 M 1016.8 269.04 1033.46 269.04 M 1033.46 259.06 1016.67 259.06 M 1016.54 249.07 1033.46 249.07 M 1033.24 239.09 1016.42 239.09 M 1016.29 229.1 1029.88 229.1 M 1017.82 219.12 1016.16 219.12 M 1107.93 348.93 1113.1 348.93 M 1019.12 408.84 1018.56 408.84 M 1018.69 418.82 1341.11 418.82 M 1341.11 428.81 1018.82 428.81 M 1018.94 438.79 1341.11 438.79 M 1267.15 408.84 1256.63 408.84 M 1259.27 448.78 1265.52 448.78 M 1115.53 508.69 1106.31 508.69 M 1107.64 548.63 1113.39 548.63 M 1257.16 608.54 1268.53 608.54" fill="none" stroke-width="10"/><use xlink:href="#qnm_AjnmkjmwNszis-OE_pad-15" x="878.8" y="730.91"/><use xlink:href="#qnm_AjnmkjmwNszis-OE_pad-15" x="733.5" y="713.82"/><use xlink:href="#qnm_AjnmkjmwNszis-OE_pad-15" x="691.29" y="648.92"/><use xlink:href="#qnm_AjnmkjmwNszis-OE_pad-15" x="610.47" y="649.84"/><use xlink:href="#qnm_AjnmkjmwNszis-OE_pad-15" x="536.65" y="644.92"/><use xlink:href="#qnm_AjnmkjmwNszis-OE_pad-15" x="359.49" y="566.18"/><use xlink:href="#qnm_AjnmkjmwNszis-OE_pad-15" x="359.49" y="349.65"/><path d="M 535.44 340.91 1012.8 340.91 M 1012.8 324.1 1011.79 309.87 1008.75 295.93 1003.77 282.56 996.93 270.04 988.38 258.62 978.29 248.53 966.87 239.98 954.34 233.14 940.98 228.15 927.03 225.12 912.8 224.1 635.44 224.1 621.21 225.12 607.27 228.15 593.9 233.14 581.38 239.98 569.95 248.53 559.87 258.62 551.32 270.04 544.48 282.56 539.49 295.93 536.46 309.87 535.44 324.1 535.44 493.2 536.46 507.43 539.49 521.37 544.48 534.74 551.32 547.26 559.87 558.68 569.95 568.77 581.38 577.32 593.9 584.16 607.27 589.15 621.21 592.18 635.44 593.2 912.8 593.2 927.03 592.18 940.98 589.15 954.34 584.16 966.87 577.32 978.29 568.77 988.38 558.68 996.93 547.26 1003.77 534.74 1008.75 521.37 1011.79 507.43 1012.8 493.2 1012.8 324.1 M 1012.29 316.91 535.96 316.91 M 540.62 292.91 1007.62 292.91 M 1002.64 280.49 1002.64 536.81 M 1004.45 532.91 543.79 532.91 M 546.64 538.69 546.64 278.6 M 552.16 268.91 996.08 268.91 M 978.64 248.88 978.64 568.42 M 989.71 556.91 558.54 556.91 M 570.64 569.28 570.64 248.02 M 574.79 244.91 973.45 244.91 M 954.64 233.3 954.64 584 M 960.3 580.91 587.94 580.91 M 594.64 584.44 594.64 232.86 M 618.64 225.68 618.64 591.62 M 642.64 593.2 642.64 224.1 M 666.64 224.1 666.64 593.2 M 690.64 593.2 690.64 224.1 M 714.64 224.1 714.64 593.2 M 738.64 593.2 738.64 224.1 M 762.64 224.1 762.64 593.2 M 786.64 593.2 786.64 224.1 M 810.64 224.1 810.64 593.2 M 834.64 593.2 834.64 224.1 M 858.64 224.1 858.64 593.2 M 882.64 593.2 882.64 224.1 M 906.64 224.1 906.64 593.2 M 930.64 591.4 930.64 225.9 M 1012.8 364.91 535.44 364.91 M 535.44 388.91 1012.8 388.91 M 1012.8 412.91 535.44 412.91 M 535.44 436.91 1012.8 436.91 M 1012.8 460.91 535.44 460.91 M 535.44 484.91 1012.8 484.91 M 1011.46 508.91 536.78 508.91" fill="none" stroke-width="5.12"/></g></svg>