<svg version="1.1" xmlns="http://www.w3.org/2000/svg" xmlns:xlink="http://www.w3.org/1999/xlink" stroke-linecap="round" stroke-linejoin="round" stroke-width="0" fill-rule="evenodd" width="9.31101in" height="3.8248in" viewBox="3073.245 3490.4 9311.01 3824.8" id="lctHVaKeL_iA5dkQ7Ml6"><defs><circle cx="0" cy="0" r="5.905" id="lctHVaKeL_iA5dkQ7Ml6_pad-1"/><circle cx="0" cy="0" r="6.1" id="lctHVaKeL_iA5dkQ7Ml6_pad-2"/><circle cx="0" cy="0" r="21.655" id="lctHVaKeL_iA5dkQ7Ml6_pad-3"/></defs><g transform="translate(0,10805.6) scale(1,-1)" fill="currentColor" stroke="currentColor"><use xlink:href="#lctHVaKeL_iA5dkQ7Ml6_pad-1" x="3594.9" y="5218.9"/><use xlink:href="#lctHVaKeL_iA5dkQ7Ml6_pad-1" x="5642.6" y="6036.3"/><use xlink:href="#lctHVaKeL_iA5dkQ7Ml6_pad-1" x="6104.7" y="7128.3"/><use xlink:href="#lctHVaKeL_iA5dkQ7Ml6_pad-1" x="6842.9" y="7089"/><use xlink:href="#lctHVaKeL_iA5dkQ7Ml6_pad-1" x="8186.4" y="7309.1"/><use xlink:href="#lctHVaKeL_iA5dkQ7Ml6_pad-1" x="7756.4" y="6149.1"/><use xlink:href="#lctHVaKeL_iA5dkQ7Ml6_pad-1" x="9943.3" y="6006.3"/><use xlink:href="#lctHVaKeL_iA5dkQ7Ml6_pad-2" x="3594.9" y="3496.5"/><use xlink:href="#lctHVaKeL_iA5dkQ7Ml6_pad-2" x="3594.9" y="5661.8"/><use xlink:href="#lctHVaKeL_iA5dkQ7Ml6_pad-2" x="5366.5" y="6449.2"/><use xlink:href="#lctHVaKeL_iA5dkQ7Ml6_pad-2" x="6104.7" y="6498.4"/><use xlink:href="#lctHVaKeL_iA5dkQ7Ml6_pad-2" x="6912.9" y="6489.2"/><use xlink:href="#lctHVaKeL_iA5dkQ7Ml6_pad-2" x="7335" y="7138.2"/><use xlink:href="#lctHVaKeL_iA5dkQ7Ml6_pad-2" x="8788" y="7309.1"/><use xlink:href="#lctHVaKeL_iA5dkQ7Ml6_pad-3" x="4094.9" y="3776"/><use xlink:href="#lctHVaKeL_iA5dkQ7Ml6_pad-3" x="3094.9" y="3776"/><use xlink:href="#lctHVaKeL_iA5dkQ7Ml6_pad-3" x="3094.9" y="4776"/><use xlink:href="#lctHVaKeL_iA5dkQ7Ml6_pad-3" x="4094.9" y="4776"/><use xlink:href="#lctHVaKeL_iA5dkQ7Ml6_pad-3" x="4094.9" y="5776"/><use xlink:href="#lctHVaKeL_iA5dkQ7Ml6_pad-3" x="3094.9" y="5776"/><use xlink:href="#lctHVaKeL_iA5dkQ7Ml6_pad-3" x="11362.6" y="5776"/><use xlink:href="#lctHVaKeL_iA5dkQ7Ml6_pad-3" x="12362.6" y="5776"/><use xlink:href="#lctHVaKeL_iA5dkQ7Ml6_pad-3" x="12362.6" y="4776"/><use xlink:href="#lctHVaKeL_iA5dkQ7Ml6_pad-3" x="11362.6" y="4776"/><use xlink:href="#lctHVaKeL_iA5dkQ7Ml6_pad-3" x="11362.6" y="3776"/><use xlink:href="#lctHVaKeL_iA5dkQ7Ml6_pad-3" x="12362.6" y="3776"/></g></svg>