%
M48
M72
T01C0.01220
T02C0.04331
%
T01
X23764Y42701
X23764Y52701
X23764Y57701
X36264Y42701
X50014Y42701
X55014Y43951
X56264Y51451
X66264Y52701
X71264Y56451
X75014Y55201
X82514Y55201
X97514Y55201
X98764Y46451
X131264Y52701
X100014Y67701
X77514Y71451
X57514Y63951
X65014Y42701
X68764Y38951
X75014Y38951
X82514Y36451
X98764Y35201
X130014Y37701
X131264Y42701
T02
X40949Y37760
X30949Y37760
X30949Y47760
X40949Y47760
X40949Y57760
X30949Y57760
X113626Y57760
X123626Y57760
X123626Y47760
X113626Y47760
X113626Y37760
X123626Y37760
M30
