%
M48
M72
T01C0.01220
T02C0.04331
%
T01
X54650Y63508
X56618Y58587
X62524Y52681
X77287Y59571
X88114Y56618
X88114Y52681
X97957Y49728
X97957Y55634
X97957Y60555
X107799Y52681
X118626Y41854
X97957Y42839
X88114Y42839
X88114Y39394
X87130Y33980
X89098Y30043
X97957Y31028
X82209Y23154
X78272Y35949
X69413Y36933
X58587Y37917
X84177Y46776
X118626Y60063
X86146Y69413
X66461Y66953
X53665Y70398
T02
X40949Y37760
X30949Y37760
X30949Y47760
X40949Y47760
X40949Y57760
X30949Y57760
X113626Y37760
X123626Y37760
X123626Y47760
X113626Y47760
X113626Y57760
X123626Y57760
M30
