G75*
%MOIN*%
%OFA0B0*%
%FSLAX25Y25*%
%IPPOS*%
%LPD*%
%AMOC8*
5,1,8,0,0,1.08239X$1,22.5*
%
%ADD10C,0.00000*%
%ADD11C,0.01000*%
%ADD12C,0.00800*%
%ADD13C,0.00200*%
%ADD14C,0.00500*%
%ADD15C,0.00787*%
%ADD16C,0.00004*%
D10*
X0045791Y0032012D02*
X0045915Y0032010D01*
X0046038Y0032004D01*
X0046162Y0031995D01*
X0046284Y0031981D01*
X0046407Y0031964D01*
X0046529Y0031942D01*
X0046650Y0031917D01*
X0046770Y0031888D01*
X0046889Y0031856D01*
X0047008Y0031819D01*
X0047125Y0031779D01*
X0047240Y0031736D01*
X0047355Y0031688D01*
X0047467Y0031637D01*
X0047578Y0031583D01*
X0047688Y0031525D01*
X0047795Y0031464D01*
X0047901Y0031399D01*
X0048004Y0031331D01*
X0048105Y0031260D01*
X0048204Y0031186D01*
X0048301Y0031109D01*
X0048395Y0031028D01*
X0048486Y0030945D01*
X0048575Y0030859D01*
X0048661Y0030770D01*
X0048744Y0030679D01*
X0048825Y0030585D01*
X0048902Y0030488D01*
X0048976Y0030389D01*
X0049047Y0030288D01*
X0049115Y0030185D01*
X0049180Y0030079D01*
X0049241Y0029972D01*
X0049299Y0029862D01*
X0049353Y0029751D01*
X0049404Y0029639D01*
X0049452Y0029524D01*
X0049495Y0029409D01*
X0049535Y0029292D01*
X0049572Y0029173D01*
X0049604Y0029054D01*
X0049633Y0028934D01*
X0049658Y0028813D01*
X0049680Y0028691D01*
X0049697Y0028568D01*
X0049711Y0028446D01*
X0049720Y0028322D01*
X0049726Y0028199D01*
X0049728Y0028075D01*
X0049728Y0024138D01*
X0049713Y0024023D01*
X0049703Y0023907D01*
X0049696Y0023791D01*
X0049693Y0023675D01*
X0049694Y0023558D01*
X0049699Y0023442D01*
X0049708Y0023326D01*
X0049720Y0023211D01*
X0049737Y0023095D01*
X0049757Y0022981D01*
X0049781Y0022867D01*
X0049809Y0022754D01*
X0049841Y0022642D01*
X0049876Y0022532D01*
X0049915Y0022422D01*
X0049958Y0022314D01*
X0050004Y0022207D01*
X0050054Y0022102D01*
X0050108Y0021999D01*
X0050164Y0021897D01*
X0050224Y0021798D01*
X0050288Y0021700D01*
X0050354Y0021605D01*
X0050424Y0021512D01*
X0050497Y0021421D01*
X0050573Y0021333D01*
X0050652Y0021247D01*
X0050733Y0021164D01*
X0050818Y0021084D01*
X0050904Y0021007D01*
X0050994Y0020933D01*
X0051086Y0020861D01*
X0051180Y0020793D01*
X0051276Y0020728D01*
X0051375Y0020666D01*
X0051476Y0020608D01*
X0051578Y0020553D01*
X0051682Y0020501D01*
X0051788Y0020453D01*
X0051896Y0020409D01*
X0052005Y0020368D01*
X0052115Y0020331D01*
X0052226Y0020297D01*
X0052338Y0020268D01*
X0052452Y0020242D01*
X0052566Y0020219D01*
X0052681Y0020201D01*
X0099925Y0020201D01*
X0100056Y0020189D01*
X0100188Y0020180D01*
X0100320Y0020175D01*
X0100452Y0020174D01*
X0100584Y0020177D01*
X0100716Y0020184D01*
X0100848Y0020195D01*
X0100979Y0020210D01*
X0101110Y0020228D01*
X0101240Y0020251D01*
X0101369Y0020277D01*
X0101498Y0020307D01*
X0101625Y0020341D01*
X0101752Y0020379D01*
X0101877Y0020420D01*
X0102002Y0020465D01*
X0102124Y0020514D01*
X0102245Y0020566D01*
X0102365Y0020622D01*
X0102483Y0020682D01*
X0102599Y0020745D01*
X0102713Y0020811D01*
X0102825Y0020881D01*
X0102935Y0020954D01*
X0103043Y0021030D01*
X0103149Y0021110D01*
X0103252Y0021192D01*
X0103353Y0021278D01*
X0103451Y0021366D01*
X0103546Y0021457D01*
X0103639Y0021552D01*
X0103728Y0021648D01*
X0103815Y0021748D01*
X0103899Y0021850D01*
X0103980Y0021954D01*
X0104058Y0022061D01*
X0104132Y0022170D01*
X0104204Y0022281D01*
X0104272Y0022394D01*
X0104336Y0022510D01*
X0104397Y0022627D01*
X0104455Y0022745D01*
X0104509Y0022866D01*
X0104559Y0022988D01*
X0104606Y0023111D01*
X0104649Y0023236D01*
X0104689Y0023362D01*
X0104725Y0023489D01*
X0104756Y0023618D01*
X0104785Y0023747D01*
X0104809Y0023876D01*
X0104829Y0024007D01*
X0104846Y0024138D01*
X0104846Y0028075D01*
X0104848Y0028199D01*
X0104854Y0028322D01*
X0104863Y0028446D01*
X0104877Y0028568D01*
X0104894Y0028691D01*
X0104916Y0028813D01*
X0104941Y0028934D01*
X0104970Y0029054D01*
X0105002Y0029173D01*
X0105039Y0029292D01*
X0105079Y0029409D01*
X0105122Y0029524D01*
X0105170Y0029639D01*
X0105221Y0029751D01*
X0105275Y0029862D01*
X0105333Y0029972D01*
X0105394Y0030079D01*
X0105459Y0030185D01*
X0105527Y0030288D01*
X0105598Y0030389D01*
X0105672Y0030488D01*
X0105749Y0030585D01*
X0105830Y0030679D01*
X0105913Y0030770D01*
X0105999Y0030859D01*
X0106088Y0030945D01*
X0106179Y0031028D01*
X0106273Y0031109D01*
X0106370Y0031186D01*
X0106469Y0031260D01*
X0106570Y0031331D01*
X0106673Y0031399D01*
X0106779Y0031464D01*
X0106886Y0031525D01*
X0106996Y0031583D01*
X0107107Y0031637D01*
X0107219Y0031688D01*
X0107334Y0031736D01*
X0107449Y0031779D01*
X0107566Y0031819D01*
X0107685Y0031856D01*
X0107804Y0031888D01*
X0107924Y0031917D01*
X0108045Y0031942D01*
X0108167Y0031964D01*
X0108290Y0031981D01*
X0108412Y0031995D01*
X0108536Y0032004D01*
X0108659Y0032010D01*
X0108783Y0032012D01*
X0131815Y0032012D01*
X0131939Y0032014D01*
X0132062Y0032020D01*
X0132186Y0032029D01*
X0132308Y0032043D01*
X0132431Y0032060D01*
X0132553Y0032082D01*
X0132674Y0032107D01*
X0132794Y0032136D01*
X0132913Y0032168D01*
X0133032Y0032205D01*
X0133149Y0032245D01*
X0133264Y0032288D01*
X0133379Y0032336D01*
X0133491Y0032387D01*
X0133602Y0032441D01*
X0133712Y0032499D01*
X0133819Y0032560D01*
X0133925Y0032625D01*
X0134028Y0032693D01*
X0134129Y0032764D01*
X0134228Y0032838D01*
X0134325Y0032915D01*
X0134419Y0032996D01*
X0134510Y0033079D01*
X0134599Y0033165D01*
X0134685Y0033254D01*
X0134768Y0033345D01*
X0134849Y0033439D01*
X0134926Y0033536D01*
X0135000Y0033635D01*
X0135071Y0033736D01*
X0135139Y0033839D01*
X0135204Y0033945D01*
X0135265Y0034052D01*
X0135323Y0034162D01*
X0135377Y0034273D01*
X0135428Y0034385D01*
X0135476Y0034500D01*
X0135519Y0034615D01*
X0135559Y0034732D01*
X0135596Y0034851D01*
X0135628Y0034970D01*
X0135657Y0035090D01*
X0135682Y0035211D01*
X0135704Y0035333D01*
X0135721Y0035456D01*
X0135735Y0035578D01*
X0135744Y0035702D01*
X0135750Y0035825D01*
X0135752Y0035949D01*
X0135752Y0059571D01*
X0135750Y0059695D01*
X0135744Y0059818D01*
X0135735Y0059942D01*
X0135721Y0060064D01*
X0135704Y0060187D01*
X0135682Y0060309D01*
X0135657Y0060430D01*
X0135628Y0060550D01*
X0135596Y0060669D01*
X0135559Y0060788D01*
X0135519Y0060905D01*
X0135476Y0061020D01*
X0135428Y0061135D01*
X0135377Y0061247D01*
X0135323Y0061358D01*
X0135265Y0061468D01*
X0135204Y0061575D01*
X0135139Y0061681D01*
X0135071Y0061784D01*
X0135000Y0061885D01*
X0134926Y0061984D01*
X0134849Y0062081D01*
X0134768Y0062175D01*
X0134685Y0062266D01*
X0134599Y0062355D01*
X0134510Y0062441D01*
X0134419Y0062524D01*
X0134325Y0062605D01*
X0134228Y0062682D01*
X0134129Y0062756D01*
X0134028Y0062827D01*
X0133925Y0062895D01*
X0133819Y0062960D01*
X0133712Y0063021D01*
X0133602Y0063079D01*
X0133491Y0063133D01*
X0133379Y0063184D01*
X0133264Y0063232D01*
X0133149Y0063275D01*
X0133032Y0063315D01*
X0132913Y0063352D01*
X0132794Y0063384D01*
X0132674Y0063413D01*
X0132553Y0063438D01*
X0132431Y0063460D01*
X0132308Y0063477D01*
X0132186Y0063491D01*
X0132062Y0063500D01*
X0131939Y0063506D01*
X0131815Y0063508D01*
X0108783Y0063508D01*
X0108659Y0063510D01*
X0108536Y0063516D01*
X0108412Y0063525D01*
X0108290Y0063539D01*
X0108167Y0063556D01*
X0108045Y0063578D01*
X0107924Y0063603D01*
X0107804Y0063632D01*
X0107685Y0063664D01*
X0107566Y0063701D01*
X0107449Y0063741D01*
X0107334Y0063784D01*
X0107219Y0063832D01*
X0107107Y0063883D01*
X0106996Y0063937D01*
X0106886Y0063995D01*
X0106779Y0064056D01*
X0106673Y0064121D01*
X0106570Y0064189D01*
X0106469Y0064260D01*
X0106370Y0064334D01*
X0106273Y0064411D01*
X0106179Y0064492D01*
X0106088Y0064575D01*
X0105999Y0064661D01*
X0105913Y0064750D01*
X0105830Y0064841D01*
X0105749Y0064935D01*
X0105672Y0065032D01*
X0105598Y0065131D01*
X0105527Y0065232D01*
X0105459Y0065335D01*
X0105394Y0065441D01*
X0105333Y0065548D01*
X0105275Y0065658D01*
X0105221Y0065769D01*
X0105170Y0065881D01*
X0105122Y0065996D01*
X0105079Y0066111D01*
X0105039Y0066228D01*
X0105002Y0066347D01*
X0104970Y0066466D01*
X0104941Y0066586D01*
X0104916Y0066707D01*
X0104894Y0066829D01*
X0104877Y0066952D01*
X0104863Y0067074D01*
X0104854Y0067198D01*
X0104848Y0067321D01*
X0104846Y0067445D01*
X0104846Y0071382D01*
X0104844Y0071506D01*
X0104838Y0071629D01*
X0104829Y0071753D01*
X0104815Y0071875D01*
X0104798Y0071998D01*
X0104776Y0072120D01*
X0104751Y0072241D01*
X0104722Y0072361D01*
X0104690Y0072480D01*
X0104653Y0072599D01*
X0104613Y0072716D01*
X0104570Y0072831D01*
X0104522Y0072946D01*
X0104471Y0073058D01*
X0104417Y0073169D01*
X0104359Y0073279D01*
X0104298Y0073386D01*
X0104233Y0073492D01*
X0104165Y0073595D01*
X0104094Y0073696D01*
X0104020Y0073795D01*
X0103943Y0073892D01*
X0103862Y0073986D01*
X0103779Y0074077D01*
X0103693Y0074166D01*
X0103604Y0074252D01*
X0103513Y0074335D01*
X0103419Y0074416D01*
X0103322Y0074493D01*
X0103223Y0074567D01*
X0103122Y0074638D01*
X0103019Y0074706D01*
X0102913Y0074771D01*
X0102806Y0074832D01*
X0102696Y0074890D01*
X0102585Y0074944D01*
X0102473Y0074995D01*
X0102358Y0075043D01*
X0102243Y0075086D01*
X0102126Y0075126D01*
X0102007Y0075163D01*
X0101888Y0075195D01*
X0101768Y0075224D01*
X0101647Y0075249D01*
X0101525Y0075271D01*
X0101402Y0075288D01*
X0101280Y0075302D01*
X0101156Y0075311D01*
X0101033Y0075317D01*
X0100909Y0075319D01*
X0053665Y0075319D01*
X0053541Y0075317D01*
X0053418Y0075311D01*
X0053294Y0075302D01*
X0053172Y0075288D01*
X0053049Y0075271D01*
X0052927Y0075249D01*
X0052806Y0075224D01*
X0052686Y0075195D01*
X0052567Y0075163D01*
X0052448Y0075126D01*
X0052331Y0075086D01*
X0052216Y0075043D01*
X0052101Y0074995D01*
X0051989Y0074944D01*
X0051878Y0074890D01*
X0051768Y0074832D01*
X0051661Y0074771D01*
X0051555Y0074706D01*
X0051452Y0074638D01*
X0051351Y0074567D01*
X0051252Y0074493D01*
X0051155Y0074416D01*
X0051061Y0074335D01*
X0050970Y0074252D01*
X0050881Y0074166D01*
X0050795Y0074077D01*
X0050712Y0073986D01*
X0050631Y0073892D01*
X0050554Y0073795D01*
X0050480Y0073696D01*
X0050409Y0073595D01*
X0050341Y0073492D01*
X0050276Y0073386D01*
X0050215Y0073279D01*
X0050157Y0073169D01*
X0050103Y0073058D01*
X0050052Y0072946D01*
X0050004Y0072831D01*
X0049961Y0072716D01*
X0049921Y0072599D01*
X0049884Y0072480D01*
X0049852Y0072361D01*
X0049823Y0072241D01*
X0049798Y0072120D01*
X0049776Y0071998D01*
X0049759Y0071875D01*
X0049745Y0071753D01*
X0049736Y0071629D01*
X0049730Y0071506D01*
X0049728Y0071382D01*
X0049728Y0067445D01*
X0049726Y0067321D01*
X0049720Y0067198D01*
X0049711Y0067074D01*
X0049697Y0066952D01*
X0049680Y0066829D01*
X0049658Y0066707D01*
X0049633Y0066586D01*
X0049604Y0066466D01*
X0049572Y0066347D01*
X0049535Y0066228D01*
X0049495Y0066111D01*
X0049452Y0065996D01*
X0049404Y0065881D01*
X0049353Y0065769D01*
X0049299Y0065658D01*
X0049241Y0065548D01*
X0049180Y0065441D01*
X0049115Y0065335D01*
X0049047Y0065232D01*
X0048976Y0065131D01*
X0048902Y0065032D01*
X0048825Y0064935D01*
X0048744Y0064841D01*
X0048661Y0064750D01*
X0048575Y0064661D01*
X0048486Y0064575D01*
X0048395Y0064492D01*
X0048301Y0064411D01*
X0048204Y0064334D01*
X0048105Y0064260D01*
X0048004Y0064189D01*
X0047901Y0064121D01*
X0047795Y0064056D01*
X0047688Y0063995D01*
X0047578Y0063937D01*
X0047467Y0063883D01*
X0047355Y0063832D01*
X0047240Y0063784D01*
X0047125Y0063741D01*
X0047008Y0063701D01*
X0046889Y0063664D01*
X0046770Y0063632D01*
X0046650Y0063603D01*
X0046529Y0063578D01*
X0046407Y0063556D01*
X0046284Y0063539D01*
X0046162Y0063525D01*
X0046038Y0063516D01*
X0045915Y0063510D01*
X0045791Y0063508D01*
X0022898Y0063508D01*
X0022774Y0063506D01*
X0022651Y0063500D01*
X0022527Y0063491D01*
X0022405Y0063477D01*
X0022282Y0063460D01*
X0022160Y0063438D01*
X0022039Y0063413D01*
X0021919Y0063384D01*
X0021800Y0063352D01*
X0021681Y0063315D01*
X0021564Y0063275D01*
X0021449Y0063232D01*
X0021334Y0063184D01*
X0021222Y0063133D01*
X0021111Y0063079D01*
X0021001Y0063021D01*
X0020894Y0062960D01*
X0020788Y0062895D01*
X0020685Y0062827D01*
X0020584Y0062756D01*
X0020485Y0062682D01*
X0020388Y0062605D01*
X0020294Y0062524D01*
X0020203Y0062441D01*
X0020114Y0062355D01*
X0020028Y0062266D01*
X0019945Y0062175D01*
X0019864Y0062081D01*
X0019787Y0061984D01*
X0019713Y0061885D01*
X0019642Y0061784D01*
X0019574Y0061681D01*
X0019509Y0061575D01*
X0019448Y0061468D01*
X0019390Y0061358D01*
X0019336Y0061247D01*
X0019285Y0061135D01*
X0019237Y0061020D01*
X0019194Y0060905D01*
X0019154Y0060788D01*
X0019117Y0060669D01*
X0019085Y0060550D01*
X0019056Y0060430D01*
X0019031Y0060309D01*
X0019009Y0060187D01*
X0018992Y0060064D01*
X0018978Y0059942D01*
X0018969Y0059818D01*
X0018963Y0059695D01*
X0018961Y0059571D01*
X0018961Y0035949D01*
X0018963Y0035825D01*
X0018969Y0035702D01*
X0018978Y0035578D01*
X0018992Y0035456D01*
X0019009Y0035333D01*
X0019031Y0035211D01*
X0019056Y0035090D01*
X0019085Y0034970D01*
X0019117Y0034851D01*
X0019154Y0034732D01*
X0019194Y0034615D01*
X0019237Y0034500D01*
X0019285Y0034385D01*
X0019336Y0034273D01*
X0019390Y0034162D01*
X0019448Y0034052D01*
X0019509Y0033945D01*
X0019574Y0033839D01*
X0019642Y0033736D01*
X0019713Y0033635D01*
X0019787Y0033536D01*
X0019864Y0033439D01*
X0019945Y0033345D01*
X0020028Y0033254D01*
X0020114Y0033165D01*
X0020203Y0033079D01*
X0020294Y0032996D01*
X0020388Y0032915D01*
X0020485Y0032838D01*
X0020584Y0032764D01*
X0020685Y0032693D01*
X0020788Y0032625D01*
X0020894Y0032560D01*
X0021001Y0032499D01*
X0021111Y0032441D01*
X0021222Y0032387D01*
X0021334Y0032336D01*
X0021449Y0032288D01*
X0021564Y0032245D01*
X0021681Y0032205D01*
X0021800Y0032168D01*
X0021919Y0032136D01*
X0022039Y0032107D01*
X0022160Y0032082D01*
X0022282Y0032060D01*
X0022405Y0032043D01*
X0022527Y0032029D01*
X0022651Y0032020D01*
X0022774Y0032014D01*
X0022898Y0032012D01*
X0045791Y0032012D01*
X0038784Y0037760D02*
X0038786Y0037853D01*
X0038792Y0037945D01*
X0038802Y0038037D01*
X0038816Y0038128D01*
X0038833Y0038219D01*
X0038855Y0038309D01*
X0038880Y0038398D01*
X0038909Y0038486D01*
X0038942Y0038572D01*
X0038979Y0038657D01*
X0039019Y0038741D01*
X0039063Y0038822D01*
X0039110Y0038902D01*
X0039160Y0038980D01*
X0039214Y0039055D01*
X0039271Y0039128D01*
X0039331Y0039198D01*
X0039394Y0039266D01*
X0039460Y0039331D01*
X0039528Y0039393D01*
X0039599Y0039453D01*
X0039673Y0039509D01*
X0039749Y0039562D01*
X0039827Y0039611D01*
X0039907Y0039658D01*
X0039989Y0039700D01*
X0040073Y0039740D01*
X0040158Y0039775D01*
X0040245Y0039807D01*
X0040333Y0039836D01*
X0040422Y0039860D01*
X0040512Y0039881D01*
X0040603Y0039897D01*
X0040695Y0039910D01*
X0040787Y0039919D01*
X0040880Y0039924D01*
X0040972Y0039925D01*
X0041065Y0039922D01*
X0041157Y0039915D01*
X0041249Y0039904D01*
X0041340Y0039889D01*
X0041431Y0039871D01*
X0041521Y0039848D01*
X0041609Y0039822D01*
X0041697Y0039792D01*
X0041783Y0039758D01*
X0041867Y0039721D01*
X0041950Y0039679D01*
X0042031Y0039635D01*
X0042111Y0039587D01*
X0042188Y0039536D01*
X0042262Y0039481D01*
X0042335Y0039423D01*
X0042405Y0039363D01*
X0042472Y0039299D01*
X0042536Y0039233D01*
X0042598Y0039163D01*
X0042656Y0039092D01*
X0042711Y0039018D01*
X0042763Y0038941D01*
X0042812Y0038862D01*
X0042858Y0038782D01*
X0042900Y0038699D01*
X0042938Y0038615D01*
X0042973Y0038529D01*
X0043004Y0038442D01*
X0043031Y0038354D01*
X0043054Y0038264D01*
X0043074Y0038174D01*
X0043090Y0038083D01*
X0043102Y0037991D01*
X0043110Y0037899D01*
X0043114Y0037806D01*
X0043114Y0037714D01*
X0043110Y0037621D01*
X0043102Y0037529D01*
X0043090Y0037437D01*
X0043074Y0037346D01*
X0043054Y0037256D01*
X0043031Y0037166D01*
X0043004Y0037078D01*
X0042973Y0036991D01*
X0042938Y0036905D01*
X0042900Y0036821D01*
X0042858Y0036738D01*
X0042812Y0036658D01*
X0042763Y0036579D01*
X0042711Y0036502D01*
X0042656Y0036428D01*
X0042598Y0036357D01*
X0042536Y0036287D01*
X0042472Y0036221D01*
X0042405Y0036157D01*
X0042335Y0036097D01*
X0042262Y0036039D01*
X0042188Y0035984D01*
X0042111Y0035933D01*
X0042032Y0035885D01*
X0041950Y0035841D01*
X0041867Y0035799D01*
X0041783Y0035762D01*
X0041697Y0035728D01*
X0041609Y0035698D01*
X0041521Y0035672D01*
X0041431Y0035649D01*
X0041340Y0035631D01*
X0041249Y0035616D01*
X0041157Y0035605D01*
X0041065Y0035598D01*
X0040972Y0035595D01*
X0040880Y0035596D01*
X0040787Y0035601D01*
X0040695Y0035610D01*
X0040603Y0035623D01*
X0040512Y0035639D01*
X0040422Y0035660D01*
X0040333Y0035684D01*
X0040245Y0035713D01*
X0040158Y0035745D01*
X0040073Y0035780D01*
X0039989Y0035820D01*
X0039907Y0035862D01*
X0039827Y0035909D01*
X0039749Y0035958D01*
X0039673Y0036011D01*
X0039599Y0036067D01*
X0039528Y0036127D01*
X0039460Y0036189D01*
X0039394Y0036254D01*
X0039331Y0036322D01*
X0039271Y0036392D01*
X0039214Y0036465D01*
X0039160Y0036540D01*
X0039110Y0036618D01*
X0039063Y0036698D01*
X0039019Y0036779D01*
X0038979Y0036863D01*
X0038942Y0036948D01*
X0038909Y0037034D01*
X0038880Y0037122D01*
X0038855Y0037211D01*
X0038833Y0037301D01*
X0038816Y0037392D01*
X0038802Y0037483D01*
X0038792Y0037575D01*
X0038786Y0037667D01*
X0038784Y0037760D01*
X0028784Y0037760D02*
X0028786Y0037853D01*
X0028792Y0037945D01*
X0028802Y0038037D01*
X0028816Y0038128D01*
X0028833Y0038219D01*
X0028855Y0038309D01*
X0028880Y0038398D01*
X0028909Y0038486D01*
X0028942Y0038572D01*
X0028979Y0038657D01*
X0029019Y0038741D01*
X0029063Y0038822D01*
X0029110Y0038902D01*
X0029160Y0038980D01*
X0029214Y0039055D01*
X0029271Y0039128D01*
X0029331Y0039198D01*
X0029394Y0039266D01*
X0029460Y0039331D01*
X0029528Y0039393D01*
X0029599Y0039453D01*
X0029673Y0039509D01*
X0029749Y0039562D01*
X0029827Y0039611D01*
X0029907Y0039658D01*
X0029989Y0039700D01*
X0030073Y0039740D01*
X0030158Y0039775D01*
X0030245Y0039807D01*
X0030333Y0039836D01*
X0030422Y0039860D01*
X0030512Y0039881D01*
X0030603Y0039897D01*
X0030695Y0039910D01*
X0030787Y0039919D01*
X0030880Y0039924D01*
X0030972Y0039925D01*
X0031065Y0039922D01*
X0031157Y0039915D01*
X0031249Y0039904D01*
X0031340Y0039889D01*
X0031431Y0039871D01*
X0031521Y0039848D01*
X0031609Y0039822D01*
X0031697Y0039792D01*
X0031783Y0039758D01*
X0031867Y0039721D01*
X0031950Y0039679D01*
X0032031Y0039635D01*
X0032111Y0039587D01*
X0032188Y0039536D01*
X0032262Y0039481D01*
X0032335Y0039423D01*
X0032405Y0039363D01*
X0032472Y0039299D01*
X0032536Y0039233D01*
X0032598Y0039163D01*
X0032656Y0039092D01*
X0032711Y0039018D01*
X0032763Y0038941D01*
X0032812Y0038862D01*
X0032858Y0038782D01*
X0032900Y0038699D01*
X0032938Y0038615D01*
X0032973Y0038529D01*
X0033004Y0038442D01*
X0033031Y0038354D01*
X0033054Y0038264D01*
X0033074Y0038174D01*
X0033090Y0038083D01*
X0033102Y0037991D01*
X0033110Y0037899D01*
X0033114Y0037806D01*
X0033114Y0037714D01*
X0033110Y0037621D01*
X0033102Y0037529D01*
X0033090Y0037437D01*
X0033074Y0037346D01*
X0033054Y0037256D01*
X0033031Y0037166D01*
X0033004Y0037078D01*
X0032973Y0036991D01*
X0032938Y0036905D01*
X0032900Y0036821D01*
X0032858Y0036738D01*
X0032812Y0036658D01*
X0032763Y0036579D01*
X0032711Y0036502D01*
X0032656Y0036428D01*
X0032598Y0036357D01*
X0032536Y0036287D01*
X0032472Y0036221D01*
X0032405Y0036157D01*
X0032335Y0036097D01*
X0032262Y0036039D01*
X0032188Y0035984D01*
X0032111Y0035933D01*
X0032032Y0035885D01*
X0031950Y0035841D01*
X0031867Y0035799D01*
X0031783Y0035762D01*
X0031697Y0035728D01*
X0031609Y0035698D01*
X0031521Y0035672D01*
X0031431Y0035649D01*
X0031340Y0035631D01*
X0031249Y0035616D01*
X0031157Y0035605D01*
X0031065Y0035598D01*
X0030972Y0035595D01*
X0030880Y0035596D01*
X0030787Y0035601D01*
X0030695Y0035610D01*
X0030603Y0035623D01*
X0030512Y0035639D01*
X0030422Y0035660D01*
X0030333Y0035684D01*
X0030245Y0035713D01*
X0030158Y0035745D01*
X0030073Y0035780D01*
X0029989Y0035820D01*
X0029907Y0035862D01*
X0029827Y0035909D01*
X0029749Y0035958D01*
X0029673Y0036011D01*
X0029599Y0036067D01*
X0029528Y0036127D01*
X0029460Y0036189D01*
X0029394Y0036254D01*
X0029331Y0036322D01*
X0029271Y0036392D01*
X0029214Y0036465D01*
X0029160Y0036540D01*
X0029110Y0036618D01*
X0029063Y0036698D01*
X0029019Y0036779D01*
X0028979Y0036863D01*
X0028942Y0036948D01*
X0028909Y0037034D01*
X0028880Y0037122D01*
X0028855Y0037211D01*
X0028833Y0037301D01*
X0028816Y0037392D01*
X0028802Y0037483D01*
X0028792Y0037575D01*
X0028786Y0037667D01*
X0028784Y0037760D01*
X0028784Y0047760D02*
X0028786Y0047853D01*
X0028792Y0047945D01*
X0028802Y0048037D01*
X0028816Y0048128D01*
X0028833Y0048219D01*
X0028855Y0048309D01*
X0028880Y0048398D01*
X0028909Y0048486D01*
X0028942Y0048572D01*
X0028979Y0048657D01*
X0029019Y0048741D01*
X0029063Y0048822D01*
X0029110Y0048902D01*
X0029160Y0048980D01*
X0029214Y0049055D01*
X0029271Y0049128D01*
X0029331Y0049198D01*
X0029394Y0049266D01*
X0029460Y0049331D01*
X0029528Y0049393D01*
X0029599Y0049453D01*
X0029673Y0049509D01*
X0029749Y0049562D01*
X0029827Y0049611D01*
X0029907Y0049658D01*
X0029989Y0049700D01*
X0030073Y0049740D01*
X0030158Y0049775D01*
X0030245Y0049807D01*
X0030333Y0049836D01*
X0030422Y0049860D01*
X0030512Y0049881D01*
X0030603Y0049897D01*
X0030695Y0049910D01*
X0030787Y0049919D01*
X0030880Y0049924D01*
X0030972Y0049925D01*
X0031065Y0049922D01*
X0031157Y0049915D01*
X0031249Y0049904D01*
X0031340Y0049889D01*
X0031431Y0049871D01*
X0031521Y0049848D01*
X0031609Y0049822D01*
X0031697Y0049792D01*
X0031783Y0049758D01*
X0031867Y0049721D01*
X0031950Y0049679D01*
X0032031Y0049635D01*
X0032111Y0049587D01*
X0032188Y0049536D01*
X0032262Y0049481D01*
X0032335Y0049423D01*
X0032405Y0049363D01*
X0032472Y0049299D01*
X0032536Y0049233D01*
X0032598Y0049163D01*
X0032656Y0049092D01*
X0032711Y0049018D01*
X0032763Y0048941D01*
X0032812Y0048862D01*
X0032858Y0048782D01*
X0032900Y0048699D01*
X0032938Y0048615D01*
X0032973Y0048529D01*
X0033004Y0048442D01*
X0033031Y0048354D01*
X0033054Y0048264D01*
X0033074Y0048174D01*
X0033090Y0048083D01*
X0033102Y0047991D01*
X0033110Y0047899D01*
X0033114Y0047806D01*
X0033114Y0047714D01*
X0033110Y0047621D01*
X0033102Y0047529D01*
X0033090Y0047437D01*
X0033074Y0047346D01*
X0033054Y0047256D01*
X0033031Y0047166D01*
X0033004Y0047078D01*
X0032973Y0046991D01*
X0032938Y0046905D01*
X0032900Y0046821D01*
X0032858Y0046738D01*
X0032812Y0046658D01*
X0032763Y0046579D01*
X0032711Y0046502D01*
X0032656Y0046428D01*
X0032598Y0046357D01*
X0032536Y0046287D01*
X0032472Y0046221D01*
X0032405Y0046157D01*
X0032335Y0046097D01*
X0032262Y0046039D01*
X0032188Y0045984D01*
X0032111Y0045933D01*
X0032032Y0045885D01*
X0031950Y0045841D01*
X0031867Y0045799D01*
X0031783Y0045762D01*
X0031697Y0045728D01*
X0031609Y0045698D01*
X0031521Y0045672D01*
X0031431Y0045649D01*
X0031340Y0045631D01*
X0031249Y0045616D01*
X0031157Y0045605D01*
X0031065Y0045598D01*
X0030972Y0045595D01*
X0030880Y0045596D01*
X0030787Y0045601D01*
X0030695Y0045610D01*
X0030603Y0045623D01*
X0030512Y0045639D01*
X0030422Y0045660D01*
X0030333Y0045684D01*
X0030245Y0045713D01*
X0030158Y0045745D01*
X0030073Y0045780D01*
X0029989Y0045820D01*
X0029907Y0045862D01*
X0029827Y0045909D01*
X0029749Y0045958D01*
X0029673Y0046011D01*
X0029599Y0046067D01*
X0029528Y0046127D01*
X0029460Y0046189D01*
X0029394Y0046254D01*
X0029331Y0046322D01*
X0029271Y0046392D01*
X0029214Y0046465D01*
X0029160Y0046540D01*
X0029110Y0046618D01*
X0029063Y0046698D01*
X0029019Y0046779D01*
X0028979Y0046863D01*
X0028942Y0046948D01*
X0028909Y0047034D01*
X0028880Y0047122D01*
X0028855Y0047211D01*
X0028833Y0047301D01*
X0028816Y0047392D01*
X0028802Y0047483D01*
X0028792Y0047575D01*
X0028786Y0047667D01*
X0028784Y0047760D01*
X0038784Y0047760D02*
X0038786Y0047853D01*
X0038792Y0047945D01*
X0038802Y0048037D01*
X0038816Y0048128D01*
X0038833Y0048219D01*
X0038855Y0048309D01*
X0038880Y0048398D01*
X0038909Y0048486D01*
X0038942Y0048572D01*
X0038979Y0048657D01*
X0039019Y0048741D01*
X0039063Y0048822D01*
X0039110Y0048902D01*
X0039160Y0048980D01*
X0039214Y0049055D01*
X0039271Y0049128D01*
X0039331Y0049198D01*
X0039394Y0049266D01*
X0039460Y0049331D01*
X0039528Y0049393D01*
X0039599Y0049453D01*
X0039673Y0049509D01*
X0039749Y0049562D01*
X0039827Y0049611D01*
X0039907Y0049658D01*
X0039989Y0049700D01*
X0040073Y0049740D01*
X0040158Y0049775D01*
X0040245Y0049807D01*
X0040333Y0049836D01*
X0040422Y0049860D01*
X0040512Y0049881D01*
X0040603Y0049897D01*
X0040695Y0049910D01*
X0040787Y0049919D01*
X0040880Y0049924D01*
X0040972Y0049925D01*
X0041065Y0049922D01*
X0041157Y0049915D01*
X0041249Y0049904D01*
X0041340Y0049889D01*
X0041431Y0049871D01*
X0041521Y0049848D01*
X0041609Y0049822D01*
X0041697Y0049792D01*
X0041783Y0049758D01*
X0041867Y0049721D01*
X0041950Y0049679D01*
X0042031Y0049635D01*
X0042111Y0049587D01*
X0042188Y0049536D01*
X0042262Y0049481D01*
X0042335Y0049423D01*
X0042405Y0049363D01*
X0042472Y0049299D01*
X0042536Y0049233D01*
X0042598Y0049163D01*
X0042656Y0049092D01*
X0042711Y0049018D01*
X0042763Y0048941D01*
X0042812Y0048862D01*
X0042858Y0048782D01*
X0042900Y0048699D01*
X0042938Y0048615D01*
X0042973Y0048529D01*
X0043004Y0048442D01*
X0043031Y0048354D01*
X0043054Y0048264D01*
X0043074Y0048174D01*
X0043090Y0048083D01*
X0043102Y0047991D01*
X0043110Y0047899D01*
X0043114Y0047806D01*
X0043114Y0047714D01*
X0043110Y0047621D01*
X0043102Y0047529D01*
X0043090Y0047437D01*
X0043074Y0047346D01*
X0043054Y0047256D01*
X0043031Y0047166D01*
X0043004Y0047078D01*
X0042973Y0046991D01*
X0042938Y0046905D01*
X0042900Y0046821D01*
X0042858Y0046738D01*
X0042812Y0046658D01*
X0042763Y0046579D01*
X0042711Y0046502D01*
X0042656Y0046428D01*
X0042598Y0046357D01*
X0042536Y0046287D01*
X0042472Y0046221D01*
X0042405Y0046157D01*
X0042335Y0046097D01*
X0042262Y0046039D01*
X0042188Y0045984D01*
X0042111Y0045933D01*
X0042032Y0045885D01*
X0041950Y0045841D01*
X0041867Y0045799D01*
X0041783Y0045762D01*
X0041697Y0045728D01*
X0041609Y0045698D01*
X0041521Y0045672D01*
X0041431Y0045649D01*
X0041340Y0045631D01*
X0041249Y0045616D01*
X0041157Y0045605D01*
X0041065Y0045598D01*
X0040972Y0045595D01*
X0040880Y0045596D01*
X0040787Y0045601D01*
X0040695Y0045610D01*
X0040603Y0045623D01*
X0040512Y0045639D01*
X0040422Y0045660D01*
X0040333Y0045684D01*
X0040245Y0045713D01*
X0040158Y0045745D01*
X0040073Y0045780D01*
X0039989Y0045820D01*
X0039907Y0045862D01*
X0039827Y0045909D01*
X0039749Y0045958D01*
X0039673Y0046011D01*
X0039599Y0046067D01*
X0039528Y0046127D01*
X0039460Y0046189D01*
X0039394Y0046254D01*
X0039331Y0046322D01*
X0039271Y0046392D01*
X0039214Y0046465D01*
X0039160Y0046540D01*
X0039110Y0046618D01*
X0039063Y0046698D01*
X0039019Y0046779D01*
X0038979Y0046863D01*
X0038942Y0046948D01*
X0038909Y0047034D01*
X0038880Y0047122D01*
X0038855Y0047211D01*
X0038833Y0047301D01*
X0038816Y0047392D01*
X0038802Y0047483D01*
X0038792Y0047575D01*
X0038786Y0047667D01*
X0038784Y0047760D01*
X0038784Y0057760D02*
X0038786Y0057853D01*
X0038792Y0057945D01*
X0038802Y0058037D01*
X0038816Y0058128D01*
X0038833Y0058219D01*
X0038855Y0058309D01*
X0038880Y0058398D01*
X0038909Y0058486D01*
X0038942Y0058572D01*
X0038979Y0058657D01*
X0039019Y0058741D01*
X0039063Y0058822D01*
X0039110Y0058902D01*
X0039160Y0058980D01*
X0039214Y0059055D01*
X0039271Y0059128D01*
X0039331Y0059198D01*
X0039394Y0059266D01*
X0039460Y0059331D01*
X0039528Y0059393D01*
X0039599Y0059453D01*
X0039673Y0059509D01*
X0039749Y0059562D01*
X0039827Y0059611D01*
X0039907Y0059658D01*
X0039989Y0059700D01*
X0040073Y0059740D01*
X0040158Y0059775D01*
X0040245Y0059807D01*
X0040333Y0059836D01*
X0040422Y0059860D01*
X0040512Y0059881D01*
X0040603Y0059897D01*
X0040695Y0059910D01*
X0040787Y0059919D01*
X0040880Y0059924D01*
X0040972Y0059925D01*
X0041065Y0059922D01*
X0041157Y0059915D01*
X0041249Y0059904D01*
X0041340Y0059889D01*
X0041431Y0059871D01*
X0041521Y0059848D01*
X0041609Y0059822D01*
X0041697Y0059792D01*
X0041783Y0059758D01*
X0041867Y0059721D01*
X0041950Y0059679D01*
X0042031Y0059635D01*
X0042111Y0059587D01*
X0042188Y0059536D01*
X0042262Y0059481D01*
X0042335Y0059423D01*
X0042405Y0059363D01*
X0042472Y0059299D01*
X0042536Y0059233D01*
X0042598Y0059163D01*
X0042656Y0059092D01*
X0042711Y0059018D01*
X0042763Y0058941D01*
X0042812Y0058862D01*
X0042858Y0058782D01*
X0042900Y0058699D01*
X0042938Y0058615D01*
X0042973Y0058529D01*
X0043004Y0058442D01*
X0043031Y0058354D01*
X0043054Y0058264D01*
X0043074Y0058174D01*
X0043090Y0058083D01*
X0043102Y0057991D01*
X0043110Y0057899D01*
X0043114Y0057806D01*
X0043114Y0057714D01*
X0043110Y0057621D01*
X0043102Y0057529D01*
X0043090Y0057437D01*
X0043074Y0057346D01*
X0043054Y0057256D01*
X0043031Y0057166D01*
X0043004Y0057078D01*
X0042973Y0056991D01*
X0042938Y0056905D01*
X0042900Y0056821D01*
X0042858Y0056738D01*
X0042812Y0056658D01*
X0042763Y0056579D01*
X0042711Y0056502D01*
X0042656Y0056428D01*
X0042598Y0056357D01*
X0042536Y0056287D01*
X0042472Y0056221D01*
X0042405Y0056157D01*
X0042335Y0056097D01*
X0042262Y0056039D01*
X0042188Y0055984D01*
X0042111Y0055933D01*
X0042032Y0055885D01*
X0041950Y0055841D01*
X0041867Y0055799D01*
X0041783Y0055762D01*
X0041697Y0055728D01*
X0041609Y0055698D01*
X0041521Y0055672D01*
X0041431Y0055649D01*
X0041340Y0055631D01*
X0041249Y0055616D01*
X0041157Y0055605D01*
X0041065Y0055598D01*
X0040972Y0055595D01*
X0040880Y0055596D01*
X0040787Y0055601D01*
X0040695Y0055610D01*
X0040603Y0055623D01*
X0040512Y0055639D01*
X0040422Y0055660D01*
X0040333Y0055684D01*
X0040245Y0055713D01*
X0040158Y0055745D01*
X0040073Y0055780D01*
X0039989Y0055820D01*
X0039907Y0055862D01*
X0039827Y0055909D01*
X0039749Y0055958D01*
X0039673Y0056011D01*
X0039599Y0056067D01*
X0039528Y0056127D01*
X0039460Y0056189D01*
X0039394Y0056254D01*
X0039331Y0056322D01*
X0039271Y0056392D01*
X0039214Y0056465D01*
X0039160Y0056540D01*
X0039110Y0056618D01*
X0039063Y0056698D01*
X0039019Y0056779D01*
X0038979Y0056863D01*
X0038942Y0056948D01*
X0038909Y0057034D01*
X0038880Y0057122D01*
X0038855Y0057211D01*
X0038833Y0057301D01*
X0038816Y0057392D01*
X0038802Y0057483D01*
X0038792Y0057575D01*
X0038786Y0057667D01*
X0038784Y0057760D01*
X0028784Y0057760D02*
X0028786Y0057853D01*
X0028792Y0057945D01*
X0028802Y0058037D01*
X0028816Y0058128D01*
X0028833Y0058219D01*
X0028855Y0058309D01*
X0028880Y0058398D01*
X0028909Y0058486D01*
X0028942Y0058572D01*
X0028979Y0058657D01*
X0029019Y0058741D01*
X0029063Y0058822D01*
X0029110Y0058902D01*
X0029160Y0058980D01*
X0029214Y0059055D01*
X0029271Y0059128D01*
X0029331Y0059198D01*
X0029394Y0059266D01*
X0029460Y0059331D01*
X0029528Y0059393D01*
X0029599Y0059453D01*
X0029673Y0059509D01*
X0029749Y0059562D01*
X0029827Y0059611D01*
X0029907Y0059658D01*
X0029989Y0059700D01*
X0030073Y0059740D01*
X0030158Y0059775D01*
X0030245Y0059807D01*
X0030333Y0059836D01*
X0030422Y0059860D01*
X0030512Y0059881D01*
X0030603Y0059897D01*
X0030695Y0059910D01*
X0030787Y0059919D01*
X0030880Y0059924D01*
X0030972Y0059925D01*
X0031065Y0059922D01*
X0031157Y0059915D01*
X0031249Y0059904D01*
X0031340Y0059889D01*
X0031431Y0059871D01*
X0031521Y0059848D01*
X0031609Y0059822D01*
X0031697Y0059792D01*
X0031783Y0059758D01*
X0031867Y0059721D01*
X0031950Y0059679D01*
X0032031Y0059635D01*
X0032111Y0059587D01*
X0032188Y0059536D01*
X0032262Y0059481D01*
X0032335Y0059423D01*
X0032405Y0059363D01*
X0032472Y0059299D01*
X0032536Y0059233D01*
X0032598Y0059163D01*
X0032656Y0059092D01*
X0032711Y0059018D01*
X0032763Y0058941D01*
X0032812Y0058862D01*
X0032858Y0058782D01*
X0032900Y0058699D01*
X0032938Y0058615D01*
X0032973Y0058529D01*
X0033004Y0058442D01*
X0033031Y0058354D01*
X0033054Y0058264D01*
X0033074Y0058174D01*
X0033090Y0058083D01*
X0033102Y0057991D01*
X0033110Y0057899D01*
X0033114Y0057806D01*
X0033114Y0057714D01*
X0033110Y0057621D01*
X0033102Y0057529D01*
X0033090Y0057437D01*
X0033074Y0057346D01*
X0033054Y0057256D01*
X0033031Y0057166D01*
X0033004Y0057078D01*
X0032973Y0056991D01*
X0032938Y0056905D01*
X0032900Y0056821D01*
X0032858Y0056738D01*
X0032812Y0056658D01*
X0032763Y0056579D01*
X0032711Y0056502D01*
X0032656Y0056428D01*
X0032598Y0056357D01*
X0032536Y0056287D01*
X0032472Y0056221D01*
X0032405Y0056157D01*
X0032335Y0056097D01*
X0032262Y0056039D01*
X0032188Y0055984D01*
X0032111Y0055933D01*
X0032032Y0055885D01*
X0031950Y0055841D01*
X0031867Y0055799D01*
X0031783Y0055762D01*
X0031697Y0055728D01*
X0031609Y0055698D01*
X0031521Y0055672D01*
X0031431Y0055649D01*
X0031340Y0055631D01*
X0031249Y0055616D01*
X0031157Y0055605D01*
X0031065Y0055598D01*
X0030972Y0055595D01*
X0030880Y0055596D01*
X0030787Y0055601D01*
X0030695Y0055610D01*
X0030603Y0055623D01*
X0030512Y0055639D01*
X0030422Y0055660D01*
X0030333Y0055684D01*
X0030245Y0055713D01*
X0030158Y0055745D01*
X0030073Y0055780D01*
X0029989Y0055820D01*
X0029907Y0055862D01*
X0029827Y0055909D01*
X0029749Y0055958D01*
X0029673Y0056011D01*
X0029599Y0056067D01*
X0029528Y0056127D01*
X0029460Y0056189D01*
X0029394Y0056254D01*
X0029331Y0056322D01*
X0029271Y0056392D01*
X0029214Y0056465D01*
X0029160Y0056540D01*
X0029110Y0056618D01*
X0029063Y0056698D01*
X0029019Y0056779D01*
X0028979Y0056863D01*
X0028942Y0056948D01*
X0028909Y0057034D01*
X0028880Y0057122D01*
X0028855Y0057211D01*
X0028833Y0057301D01*
X0028816Y0057392D01*
X0028802Y0057483D01*
X0028792Y0057575D01*
X0028786Y0057667D01*
X0028784Y0057760D01*
X0111461Y0057760D02*
X0111463Y0057853D01*
X0111469Y0057945D01*
X0111479Y0058037D01*
X0111493Y0058128D01*
X0111510Y0058219D01*
X0111532Y0058309D01*
X0111557Y0058398D01*
X0111586Y0058486D01*
X0111619Y0058572D01*
X0111656Y0058657D01*
X0111696Y0058741D01*
X0111740Y0058822D01*
X0111787Y0058902D01*
X0111837Y0058980D01*
X0111891Y0059055D01*
X0111948Y0059128D01*
X0112008Y0059198D01*
X0112071Y0059266D01*
X0112137Y0059331D01*
X0112205Y0059393D01*
X0112276Y0059453D01*
X0112350Y0059509D01*
X0112426Y0059562D01*
X0112504Y0059611D01*
X0112584Y0059658D01*
X0112666Y0059700D01*
X0112750Y0059740D01*
X0112835Y0059775D01*
X0112922Y0059807D01*
X0113010Y0059836D01*
X0113099Y0059860D01*
X0113189Y0059881D01*
X0113280Y0059897D01*
X0113372Y0059910D01*
X0113464Y0059919D01*
X0113557Y0059924D01*
X0113649Y0059925D01*
X0113742Y0059922D01*
X0113834Y0059915D01*
X0113926Y0059904D01*
X0114017Y0059889D01*
X0114108Y0059871D01*
X0114198Y0059848D01*
X0114286Y0059822D01*
X0114374Y0059792D01*
X0114460Y0059758D01*
X0114544Y0059721D01*
X0114627Y0059679D01*
X0114708Y0059635D01*
X0114788Y0059587D01*
X0114865Y0059536D01*
X0114939Y0059481D01*
X0115012Y0059423D01*
X0115082Y0059363D01*
X0115149Y0059299D01*
X0115213Y0059233D01*
X0115275Y0059163D01*
X0115333Y0059092D01*
X0115388Y0059018D01*
X0115440Y0058941D01*
X0115489Y0058862D01*
X0115535Y0058782D01*
X0115577Y0058699D01*
X0115615Y0058615D01*
X0115650Y0058529D01*
X0115681Y0058442D01*
X0115708Y0058354D01*
X0115731Y0058264D01*
X0115751Y0058174D01*
X0115767Y0058083D01*
X0115779Y0057991D01*
X0115787Y0057899D01*
X0115791Y0057806D01*
X0115791Y0057714D01*
X0115787Y0057621D01*
X0115779Y0057529D01*
X0115767Y0057437D01*
X0115751Y0057346D01*
X0115731Y0057256D01*
X0115708Y0057166D01*
X0115681Y0057078D01*
X0115650Y0056991D01*
X0115615Y0056905D01*
X0115577Y0056821D01*
X0115535Y0056738D01*
X0115489Y0056658D01*
X0115440Y0056579D01*
X0115388Y0056502D01*
X0115333Y0056428D01*
X0115275Y0056357D01*
X0115213Y0056287D01*
X0115149Y0056221D01*
X0115082Y0056157D01*
X0115012Y0056097D01*
X0114939Y0056039D01*
X0114865Y0055984D01*
X0114788Y0055933D01*
X0114709Y0055885D01*
X0114627Y0055841D01*
X0114544Y0055799D01*
X0114460Y0055762D01*
X0114374Y0055728D01*
X0114286Y0055698D01*
X0114198Y0055672D01*
X0114108Y0055649D01*
X0114017Y0055631D01*
X0113926Y0055616D01*
X0113834Y0055605D01*
X0113742Y0055598D01*
X0113649Y0055595D01*
X0113557Y0055596D01*
X0113464Y0055601D01*
X0113372Y0055610D01*
X0113280Y0055623D01*
X0113189Y0055639D01*
X0113099Y0055660D01*
X0113010Y0055684D01*
X0112922Y0055713D01*
X0112835Y0055745D01*
X0112750Y0055780D01*
X0112666Y0055820D01*
X0112584Y0055862D01*
X0112504Y0055909D01*
X0112426Y0055958D01*
X0112350Y0056011D01*
X0112276Y0056067D01*
X0112205Y0056127D01*
X0112137Y0056189D01*
X0112071Y0056254D01*
X0112008Y0056322D01*
X0111948Y0056392D01*
X0111891Y0056465D01*
X0111837Y0056540D01*
X0111787Y0056618D01*
X0111740Y0056698D01*
X0111696Y0056779D01*
X0111656Y0056863D01*
X0111619Y0056948D01*
X0111586Y0057034D01*
X0111557Y0057122D01*
X0111532Y0057211D01*
X0111510Y0057301D01*
X0111493Y0057392D01*
X0111479Y0057483D01*
X0111469Y0057575D01*
X0111463Y0057667D01*
X0111461Y0057760D01*
X0121461Y0057760D02*
X0121463Y0057853D01*
X0121469Y0057945D01*
X0121479Y0058037D01*
X0121493Y0058128D01*
X0121510Y0058219D01*
X0121532Y0058309D01*
X0121557Y0058398D01*
X0121586Y0058486D01*
X0121619Y0058572D01*
X0121656Y0058657D01*
X0121696Y0058741D01*
X0121740Y0058822D01*
X0121787Y0058902D01*
X0121837Y0058980D01*
X0121891Y0059055D01*
X0121948Y0059128D01*
X0122008Y0059198D01*
X0122071Y0059266D01*
X0122137Y0059331D01*
X0122205Y0059393D01*
X0122276Y0059453D01*
X0122350Y0059509D01*
X0122426Y0059562D01*
X0122504Y0059611D01*
X0122584Y0059658D01*
X0122666Y0059700D01*
X0122750Y0059740D01*
X0122835Y0059775D01*
X0122922Y0059807D01*
X0123010Y0059836D01*
X0123099Y0059860D01*
X0123189Y0059881D01*
X0123280Y0059897D01*
X0123372Y0059910D01*
X0123464Y0059919D01*
X0123557Y0059924D01*
X0123649Y0059925D01*
X0123742Y0059922D01*
X0123834Y0059915D01*
X0123926Y0059904D01*
X0124017Y0059889D01*
X0124108Y0059871D01*
X0124198Y0059848D01*
X0124286Y0059822D01*
X0124374Y0059792D01*
X0124460Y0059758D01*
X0124544Y0059721D01*
X0124627Y0059679D01*
X0124708Y0059635D01*
X0124788Y0059587D01*
X0124865Y0059536D01*
X0124939Y0059481D01*
X0125012Y0059423D01*
X0125082Y0059363D01*
X0125149Y0059299D01*
X0125213Y0059233D01*
X0125275Y0059163D01*
X0125333Y0059092D01*
X0125388Y0059018D01*
X0125440Y0058941D01*
X0125489Y0058862D01*
X0125535Y0058782D01*
X0125577Y0058699D01*
X0125615Y0058615D01*
X0125650Y0058529D01*
X0125681Y0058442D01*
X0125708Y0058354D01*
X0125731Y0058264D01*
X0125751Y0058174D01*
X0125767Y0058083D01*
X0125779Y0057991D01*
X0125787Y0057899D01*
X0125791Y0057806D01*
X0125791Y0057714D01*
X0125787Y0057621D01*
X0125779Y0057529D01*
X0125767Y0057437D01*
X0125751Y0057346D01*
X0125731Y0057256D01*
X0125708Y0057166D01*
X0125681Y0057078D01*
X0125650Y0056991D01*
X0125615Y0056905D01*
X0125577Y0056821D01*
X0125535Y0056738D01*
X0125489Y0056658D01*
X0125440Y0056579D01*
X0125388Y0056502D01*
X0125333Y0056428D01*
X0125275Y0056357D01*
X0125213Y0056287D01*
X0125149Y0056221D01*
X0125082Y0056157D01*
X0125012Y0056097D01*
X0124939Y0056039D01*
X0124865Y0055984D01*
X0124788Y0055933D01*
X0124709Y0055885D01*
X0124627Y0055841D01*
X0124544Y0055799D01*
X0124460Y0055762D01*
X0124374Y0055728D01*
X0124286Y0055698D01*
X0124198Y0055672D01*
X0124108Y0055649D01*
X0124017Y0055631D01*
X0123926Y0055616D01*
X0123834Y0055605D01*
X0123742Y0055598D01*
X0123649Y0055595D01*
X0123557Y0055596D01*
X0123464Y0055601D01*
X0123372Y0055610D01*
X0123280Y0055623D01*
X0123189Y0055639D01*
X0123099Y0055660D01*
X0123010Y0055684D01*
X0122922Y0055713D01*
X0122835Y0055745D01*
X0122750Y0055780D01*
X0122666Y0055820D01*
X0122584Y0055862D01*
X0122504Y0055909D01*
X0122426Y0055958D01*
X0122350Y0056011D01*
X0122276Y0056067D01*
X0122205Y0056127D01*
X0122137Y0056189D01*
X0122071Y0056254D01*
X0122008Y0056322D01*
X0121948Y0056392D01*
X0121891Y0056465D01*
X0121837Y0056540D01*
X0121787Y0056618D01*
X0121740Y0056698D01*
X0121696Y0056779D01*
X0121656Y0056863D01*
X0121619Y0056948D01*
X0121586Y0057034D01*
X0121557Y0057122D01*
X0121532Y0057211D01*
X0121510Y0057301D01*
X0121493Y0057392D01*
X0121479Y0057483D01*
X0121469Y0057575D01*
X0121463Y0057667D01*
X0121461Y0057760D01*
X0121461Y0047760D02*
X0121463Y0047853D01*
X0121469Y0047945D01*
X0121479Y0048037D01*
X0121493Y0048128D01*
X0121510Y0048219D01*
X0121532Y0048309D01*
X0121557Y0048398D01*
X0121586Y0048486D01*
X0121619Y0048572D01*
X0121656Y0048657D01*
X0121696Y0048741D01*
X0121740Y0048822D01*
X0121787Y0048902D01*
X0121837Y0048980D01*
X0121891Y0049055D01*
X0121948Y0049128D01*
X0122008Y0049198D01*
X0122071Y0049266D01*
X0122137Y0049331D01*
X0122205Y0049393D01*
X0122276Y0049453D01*
X0122350Y0049509D01*
X0122426Y0049562D01*
X0122504Y0049611D01*
X0122584Y0049658D01*
X0122666Y0049700D01*
X0122750Y0049740D01*
X0122835Y0049775D01*
X0122922Y0049807D01*
X0123010Y0049836D01*
X0123099Y0049860D01*
X0123189Y0049881D01*
X0123280Y0049897D01*
X0123372Y0049910D01*
X0123464Y0049919D01*
X0123557Y0049924D01*
X0123649Y0049925D01*
X0123742Y0049922D01*
X0123834Y0049915D01*
X0123926Y0049904D01*
X0124017Y0049889D01*
X0124108Y0049871D01*
X0124198Y0049848D01*
X0124286Y0049822D01*
X0124374Y0049792D01*
X0124460Y0049758D01*
X0124544Y0049721D01*
X0124627Y0049679D01*
X0124708Y0049635D01*
X0124788Y0049587D01*
X0124865Y0049536D01*
X0124939Y0049481D01*
X0125012Y0049423D01*
X0125082Y0049363D01*
X0125149Y0049299D01*
X0125213Y0049233D01*
X0125275Y0049163D01*
X0125333Y0049092D01*
X0125388Y0049018D01*
X0125440Y0048941D01*
X0125489Y0048862D01*
X0125535Y0048782D01*
X0125577Y0048699D01*
X0125615Y0048615D01*
X0125650Y0048529D01*
X0125681Y0048442D01*
X0125708Y0048354D01*
X0125731Y0048264D01*
X0125751Y0048174D01*
X0125767Y0048083D01*
X0125779Y0047991D01*
X0125787Y0047899D01*
X0125791Y0047806D01*
X0125791Y0047714D01*
X0125787Y0047621D01*
X0125779Y0047529D01*
X0125767Y0047437D01*
X0125751Y0047346D01*
X0125731Y0047256D01*
X0125708Y0047166D01*
X0125681Y0047078D01*
X0125650Y0046991D01*
X0125615Y0046905D01*
X0125577Y0046821D01*
X0125535Y0046738D01*
X0125489Y0046658D01*
X0125440Y0046579D01*
X0125388Y0046502D01*
X0125333Y0046428D01*
X0125275Y0046357D01*
X0125213Y0046287D01*
X0125149Y0046221D01*
X0125082Y0046157D01*
X0125012Y0046097D01*
X0124939Y0046039D01*
X0124865Y0045984D01*
X0124788Y0045933D01*
X0124709Y0045885D01*
X0124627Y0045841D01*
X0124544Y0045799D01*
X0124460Y0045762D01*
X0124374Y0045728D01*
X0124286Y0045698D01*
X0124198Y0045672D01*
X0124108Y0045649D01*
X0124017Y0045631D01*
X0123926Y0045616D01*
X0123834Y0045605D01*
X0123742Y0045598D01*
X0123649Y0045595D01*
X0123557Y0045596D01*
X0123464Y0045601D01*
X0123372Y0045610D01*
X0123280Y0045623D01*
X0123189Y0045639D01*
X0123099Y0045660D01*
X0123010Y0045684D01*
X0122922Y0045713D01*
X0122835Y0045745D01*
X0122750Y0045780D01*
X0122666Y0045820D01*
X0122584Y0045862D01*
X0122504Y0045909D01*
X0122426Y0045958D01*
X0122350Y0046011D01*
X0122276Y0046067D01*
X0122205Y0046127D01*
X0122137Y0046189D01*
X0122071Y0046254D01*
X0122008Y0046322D01*
X0121948Y0046392D01*
X0121891Y0046465D01*
X0121837Y0046540D01*
X0121787Y0046618D01*
X0121740Y0046698D01*
X0121696Y0046779D01*
X0121656Y0046863D01*
X0121619Y0046948D01*
X0121586Y0047034D01*
X0121557Y0047122D01*
X0121532Y0047211D01*
X0121510Y0047301D01*
X0121493Y0047392D01*
X0121479Y0047483D01*
X0121469Y0047575D01*
X0121463Y0047667D01*
X0121461Y0047760D01*
X0111461Y0047760D02*
X0111463Y0047853D01*
X0111469Y0047945D01*
X0111479Y0048037D01*
X0111493Y0048128D01*
X0111510Y0048219D01*
X0111532Y0048309D01*
X0111557Y0048398D01*
X0111586Y0048486D01*
X0111619Y0048572D01*
X0111656Y0048657D01*
X0111696Y0048741D01*
X0111740Y0048822D01*
X0111787Y0048902D01*
X0111837Y0048980D01*
X0111891Y0049055D01*
X0111948Y0049128D01*
X0112008Y0049198D01*
X0112071Y0049266D01*
X0112137Y0049331D01*
X0112205Y0049393D01*
X0112276Y0049453D01*
X0112350Y0049509D01*
X0112426Y0049562D01*
X0112504Y0049611D01*
X0112584Y0049658D01*
X0112666Y0049700D01*
X0112750Y0049740D01*
X0112835Y0049775D01*
X0112922Y0049807D01*
X0113010Y0049836D01*
X0113099Y0049860D01*
X0113189Y0049881D01*
X0113280Y0049897D01*
X0113372Y0049910D01*
X0113464Y0049919D01*
X0113557Y0049924D01*
X0113649Y0049925D01*
X0113742Y0049922D01*
X0113834Y0049915D01*
X0113926Y0049904D01*
X0114017Y0049889D01*
X0114108Y0049871D01*
X0114198Y0049848D01*
X0114286Y0049822D01*
X0114374Y0049792D01*
X0114460Y0049758D01*
X0114544Y0049721D01*
X0114627Y0049679D01*
X0114708Y0049635D01*
X0114788Y0049587D01*
X0114865Y0049536D01*
X0114939Y0049481D01*
X0115012Y0049423D01*
X0115082Y0049363D01*
X0115149Y0049299D01*
X0115213Y0049233D01*
X0115275Y0049163D01*
X0115333Y0049092D01*
X0115388Y0049018D01*
X0115440Y0048941D01*
X0115489Y0048862D01*
X0115535Y0048782D01*
X0115577Y0048699D01*
X0115615Y0048615D01*
X0115650Y0048529D01*
X0115681Y0048442D01*
X0115708Y0048354D01*
X0115731Y0048264D01*
X0115751Y0048174D01*
X0115767Y0048083D01*
X0115779Y0047991D01*
X0115787Y0047899D01*
X0115791Y0047806D01*
X0115791Y0047714D01*
X0115787Y0047621D01*
X0115779Y0047529D01*
X0115767Y0047437D01*
X0115751Y0047346D01*
X0115731Y0047256D01*
X0115708Y0047166D01*
X0115681Y0047078D01*
X0115650Y0046991D01*
X0115615Y0046905D01*
X0115577Y0046821D01*
X0115535Y0046738D01*
X0115489Y0046658D01*
X0115440Y0046579D01*
X0115388Y0046502D01*
X0115333Y0046428D01*
X0115275Y0046357D01*
X0115213Y0046287D01*
X0115149Y0046221D01*
X0115082Y0046157D01*
X0115012Y0046097D01*
X0114939Y0046039D01*
X0114865Y0045984D01*
X0114788Y0045933D01*
X0114709Y0045885D01*
X0114627Y0045841D01*
X0114544Y0045799D01*
X0114460Y0045762D01*
X0114374Y0045728D01*
X0114286Y0045698D01*
X0114198Y0045672D01*
X0114108Y0045649D01*
X0114017Y0045631D01*
X0113926Y0045616D01*
X0113834Y0045605D01*
X0113742Y0045598D01*
X0113649Y0045595D01*
X0113557Y0045596D01*
X0113464Y0045601D01*
X0113372Y0045610D01*
X0113280Y0045623D01*
X0113189Y0045639D01*
X0113099Y0045660D01*
X0113010Y0045684D01*
X0112922Y0045713D01*
X0112835Y0045745D01*
X0112750Y0045780D01*
X0112666Y0045820D01*
X0112584Y0045862D01*
X0112504Y0045909D01*
X0112426Y0045958D01*
X0112350Y0046011D01*
X0112276Y0046067D01*
X0112205Y0046127D01*
X0112137Y0046189D01*
X0112071Y0046254D01*
X0112008Y0046322D01*
X0111948Y0046392D01*
X0111891Y0046465D01*
X0111837Y0046540D01*
X0111787Y0046618D01*
X0111740Y0046698D01*
X0111696Y0046779D01*
X0111656Y0046863D01*
X0111619Y0046948D01*
X0111586Y0047034D01*
X0111557Y0047122D01*
X0111532Y0047211D01*
X0111510Y0047301D01*
X0111493Y0047392D01*
X0111479Y0047483D01*
X0111469Y0047575D01*
X0111463Y0047667D01*
X0111461Y0047760D01*
X0111461Y0037760D02*
X0111463Y0037853D01*
X0111469Y0037945D01*
X0111479Y0038037D01*
X0111493Y0038128D01*
X0111510Y0038219D01*
X0111532Y0038309D01*
X0111557Y0038398D01*
X0111586Y0038486D01*
X0111619Y0038572D01*
X0111656Y0038657D01*
X0111696Y0038741D01*
X0111740Y0038822D01*
X0111787Y0038902D01*
X0111837Y0038980D01*
X0111891Y0039055D01*
X0111948Y0039128D01*
X0112008Y0039198D01*
X0112071Y0039266D01*
X0112137Y0039331D01*
X0112205Y0039393D01*
X0112276Y0039453D01*
X0112350Y0039509D01*
X0112426Y0039562D01*
X0112504Y0039611D01*
X0112584Y0039658D01*
X0112666Y0039700D01*
X0112750Y0039740D01*
X0112835Y0039775D01*
X0112922Y0039807D01*
X0113010Y0039836D01*
X0113099Y0039860D01*
X0113189Y0039881D01*
X0113280Y0039897D01*
X0113372Y0039910D01*
X0113464Y0039919D01*
X0113557Y0039924D01*
X0113649Y0039925D01*
X0113742Y0039922D01*
X0113834Y0039915D01*
X0113926Y0039904D01*
X0114017Y0039889D01*
X0114108Y0039871D01*
X0114198Y0039848D01*
X0114286Y0039822D01*
X0114374Y0039792D01*
X0114460Y0039758D01*
X0114544Y0039721D01*
X0114627Y0039679D01*
X0114708Y0039635D01*
X0114788Y0039587D01*
X0114865Y0039536D01*
X0114939Y0039481D01*
X0115012Y0039423D01*
X0115082Y0039363D01*
X0115149Y0039299D01*
X0115213Y0039233D01*
X0115275Y0039163D01*
X0115333Y0039092D01*
X0115388Y0039018D01*
X0115440Y0038941D01*
X0115489Y0038862D01*
X0115535Y0038782D01*
X0115577Y0038699D01*
X0115615Y0038615D01*
X0115650Y0038529D01*
X0115681Y0038442D01*
X0115708Y0038354D01*
X0115731Y0038264D01*
X0115751Y0038174D01*
X0115767Y0038083D01*
X0115779Y0037991D01*
X0115787Y0037899D01*
X0115791Y0037806D01*
X0115791Y0037714D01*
X0115787Y0037621D01*
X0115779Y0037529D01*
X0115767Y0037437D01*
X0115751Y0037346D01*
X0115731Y0037256D01*
X0115708Y0037166D01*
X0115681Y0037078D01*
X0115650Y0036991D01*
X0115615Y0036905D01*
X0115577Y0036821D01*
X0115535Y0036738D01*
X0115489Y0036658D01*
X0115440Y0036579D01*
X0115388Y0036502D01*
X0115333Y0036428D01*
X0115275Y0036357D01*
X0115213Y0036287D01*
X0115149Y0036221D01*
X0115082Y0036157D01*
X0115012Y0036097D01*
X0114939Y0036039D01*
X0114865Y0035984D01*
X0114788Y0035933D01*
X0114709Y0035885D01*
X0114627Y0035841D01*
X0114544Y0035799D01*
X0114460Y0035762D01*
X0114374Y0035728D01*
X0114286Y0035698D01*
X0114198Y0035672D01*
X0114108Y0035649D01*
X0114017Y0035631D01*
X0113926Y0035616D01*
X0113834Y0035605D01*
X0113742Y0035598D01*
X0113649Y0035595D01*
X0113557Y0035596D01*
X0113464Y0035601D01*
X0113372Y0035610D01*
X0113280Y0035623D01*
X0113189Y0035639D01*
X0113099Y0035660D01*
X0113010Y0035684D01*
X0112922Y0035713D01*
X0112835Y0035745D01*
X0112750Y0035780D01*
X0112666Y0035820D01*
X0112584Y0035862D01*
X0112504Y0035909D01*
X0112426Y0035958D01*
X0112350Y0036011D01*
X0112276Y0036067D01*
X0112205Y0036127D01*
X0112137Y0036189D01*
X0112071Y0036254D01*
X0112008Y0036322D01*
X0111948Y0036392D01*
X0111891Y0036465D01*
X0111837Y0036540D01*
X0111787Y0036618D01*
X0111740Y0036698D01*
X0111696Y0036779D01*
X0111656Y0036863D01*
X0111619Y0036948D01*
X0111586Y0037034D01*
X0111557Y0037122D01*
X0111532Y0037211D01*
X0111510Y0037301D01*
X0111493Y0037392D01*
X0111479Y0037483D01*
X0111469Y0037575D01*
X0111463Y0037667D01*
X0111461Y0037760D01*
X0121461Y0037760D02*
X0121463Y0037853D01*
X0121469Y0037945D01*
X0121479Y0038037D01*
X0121493Y0038128D01*
X0121510Y0038219D01*
X0121532Y0038309D01*
X0121557Y0038398D01*
X0121586Y0038486D01*
X0121619Y0038572D01*
X0121656Y0038657D01*
X0121696Y0038741D01*
X0121740Y0038822D01*
X0121787Y0038902D01*
X0121837Y0038980D01*
X0121891Y0039055D01*
X0121948Y0039128D01*
X0122008Y0039198D01*
X0122071Y0039266D01*
X0122137Y0039331D01*
X0122205Y0039393D01*
X0122276Y0039453D01*
X0122350Y0039509D01*
X0122426Y0039562D01*
X0122504Y0039611D01*
X0122584Y0039658D01*
X0122666Y0039700D01*
X0122750Y0039740D01*
X0122835Y0039775D01*
X0122922Y0039807D01*
X0123010Y0039836D01*
X0123099Y0039860D01*
X0123189Y0039881D01*
X0123280Y0039897D01*
X0123372Y0039910D01*
X0123464Y0039919D01*
X0123557Y0039924D01*
X0123649Y0039925D01*
X0123742Y0039922D01*
X0123834Y0039915D01*
X0123926Y0039904D01*
X0124017Y0039889D01*
X0124108Y0039871D01*
X0124198Y0039848D01*
X0124286Y0039822D01*
X0124374Y0039792D01*
X0124460Y0039758D01*
X0124544Y0039721D01*
X0124627Y0039679D01*
X0124708Y0039635D01*
X0124788Y0039587D01*
X0124865Y0039536D01*
X0124939Y0039481D01*
X0125012Y0039423D01*
X0125082Y0039363D01*
X0125149Y0039299D01*
X0125213Y0039233D01*
X0125275Y0039163D01*
X0125333Y0039092D01*
X0125388Y0039018D01*
X0125440Y0038941D01*
X0125489Y0038862D01*
X0125535Y0038782D01*
X0125577Y0038699D01*
X0125615Y0038615D01*
X0125650Y0038529D01*
X0125681Y0038442D01*
X0125708Y0038354D01*
X0125731Y0038264D01*
X0125751Y0038174D01*
X0125767Y0038083D01*
X0125779Y0037991D01*
X0125787Y0037899D01*
X0125791Y0037806D01*
X0125791Y0037714D01*
X0125787Y0037621D01*
X0125779Y0037529D01*
X0125767Y0037437D01*
X0125751Y0037346D01*
X0125731Y0037256D01*
X0125708Y0037166D01*
X0125681Y0037078D01*
X0125650Y0036991D01*
X0125615Y0036905D01*
X0125577Y0036821D01*
X0125535Y0036738D01*
X0125489Y0036658D01*
X0125440Y0036579D01*
X0125388Y0036502D01*
X0125333Y0036428D01*
X0125275Y0036357D01*
X0125213Y0036287D01*
X0125149Y0036221D01*
X0125082Y0036157D01*
X0125012Y0036097D01*
X0124939Y0036039D01*
X0124865Y0035984D01*
X0124788Y0035933D01*
X0124709Y0035885D01*
X0124627Y0035841D01*
X0124544Y0035799D01*
X0124460Y0035762D01*
X0124374Y0035728D01*
X0124286Y0035698D01*
X0124198Y0035672D01*
X0124108Y0035649D01*
X0124017Y0035631D01*
X0123926Y0035616D01*
X0123834Y0035605D01*
X0123742Y0035598D01*
X0123649Y0035595D01*
X0123557Y0035596D01*
X0123464Y0035601D01*
X0123372Y0035610D01*
X0123280Y0035623D01*
X0123189Y0035639D01*
X0123099Y0035660D01*
X0123010Y0035684D01*
X0122922Y0035713D01*
X0122835Y0035745D01*
X0122750Y0035780D01*
X0122666Y0035820D01*
X0122584Y0035862D01*
X0122504Y0035909D01*
X0122426Y0035958D01*
X0122350Y0036011D01*
X0122276Y0036067D01*
X0122205Y0036127D01*
X0122137Y0036189D01*
X0122071Y0036254D01*
X0122008Y0036322D01*
X0121948Y0036392D01*
X0121891Y0036465D01*
X0121837Y0036540D01*
X0121787Y0036618D01*
X0121740Y0036698D01*
X0121696Y0036779D01*
X0121656Y0036863D01*
X0121619Y0036948D01*
X0121586Y0037034D01*
X0121557Y0037122D01*
X0121532Y0037211D01*
X0121510Y0037301D01*
X0121493Y0037392D01*
X0121479Y0037483D01*
X0121469Y0037575D01*
X0121463Y0037667D01*
X0121461Y0037760D01*
D11*
X0069414Y0027583D02*
X0069416Y0027723D01*
X0069422Y0027863D01*
X0069432Y0028002D01*
X0069446Y0028141D01*
X0069464Y0028280D01*
X0069485Y0028418D01*
X0069511Y0028556D01*
X0069541Y0028693D01*
X0069574Y0028828D01*
X0069612Y0028963D01*
X0069653Y0029097D01*
X0069698Y0029230D01*
X0069746Y0029361D01*
X0069799Y0029490D01*
X0069855Y0029619D01*
X0069914Y0029745D01*
X0069978Y0029870D01*
X0070044Y0029993D01*
X0070115Y0030114D01*
X0070188Y0030233D01*
X0070265Y0030350D01*
X0070346Y0030464D01*
X0070429Y0030576D01*
X0070516Y0030686D01*
X0070606Y0030794D01*
X0070698Y0030898D01*
X0070794Y0031000D01*
X0070893Y0031100D01*
X0070994Y0031196D01*
X0071098Y0031290D01*
X0071205Y0031380D01*
X0071314Y0031467D01*
X0071426Y0031552D01*
X0071540Y0031633D01*
X0071656Y0031711D01*
X0071774Y0031785D01*
X0071895Y0031856D01*
X0072017Y0031924D01*
X0072142Y0031988D01*
X0072268Y0032049D01*
X0072395Y0032106D01*
X0072525Y0032159D01*
X0072656Y0032209D01*
X0072788Y0032254D01*
X0072921Y0032297D01*
X0073056Y0032335D01*
X0073191Y0032369D01*
X0073328Y0032400D01*
X0073465Y0032427D01*
X0073603Y0032449D01*
X0073742Y0032468D01*
X0073881Y0032483D01*
X0074020Y0032494D01*
X0074160Y0032501D01*
X0074300Y0032504D01*
X0074440Y0032503D01*
X0074580Y0032498D01*
X0074719Y0032489D01*
X0074859Y0032476D01*
X0074998Y0032459D01*
X0075136Y0032438D01*
X0075274Y0032414D01*
X0075411Y0032385D01*
X0075547Y0032353D01*
X0075682Y0032316D01*
X0075816Y0032276D01*
X0075949Y0032232D01*
X0076080Y0032184D01*
X0076210Y0032133D01*
X0076339Y0032078D01*
X0076466Y0032019D01*
X0076591Y0031956D01*
X0076714Y0031891D01*
X0076836Y0031821D01*
X0076955Y0031748D01*
X0077073Y0031672D01*
X0077188Y0031593D01*
X0077301Y0031510D01*
X0077411Y0031424D01*
X0077519Y0031335D01*
X0077624Y0031243D01*
X0077727Y0031148D01*
X0077827Y0031050D01*
X0077924Y0030950D01*
X0078018Y0030846D01*
X0078110Y0030740D01*
X0078198Y0030632D01*
X0078283Y0030521D01*
X0078365Y0030407D01*
X0078444Y0030291D01*
X0078519Y0030174D01*
X0078591Y0030054D01*
X0078659Y0029932D01*
X0078724Y0029808D01*
X0078786Y0029682D01*
X0078844Y0029555D01*
X0078898Y0029426D01*
X0078949Y0029295D01*
X0078995Y0029163D01*
X0079038Y0029030D01*
X0079078Y0028896D01*
X0079113Y0028761D01*
X0079145Y0028624D01*
X0079172Y0028487D01*
X0079196Y0028349D01*
X0079216Y0028211D01*
X0079232Y0028072D01*
X0079244Y0027932D01*
X0079252Y0027793D01*
X0079256Y0027653D01*
X0079256Y0027513D01*
X0079252Y0027373D01*
X0079244Y0027234D01*
X0079232Y0027094D01*
X0079216Y0026955D01*
X0079196Y0026817D01*
X0079172Y0026679D01*
X0079145Y0026542D01*
X0079113Y0026405D01*
X0079078Y0026270D01*
X0079038Y0026136D01*
X0078995Y0026003D01*
X0078949Y0025871D01*
X0078898Y0025740D01*
X0078844Y0025611D01*
X0078786Y0025484D01*
X0078724Y0025358D01*
X0078659Y0025234D01*
X0078591Y0025112D01*
X0078519Y0024992D01*
X0078444Y0024875D01*
X0078365Y0024759D01*
X0078283Y0024645D01*
X0078198Y0024534D01*
X0078110Y0024426D01*
X0078018Y0024320D01*
X0077924Y0024216D01*
X0077827Y0024116D01*
X0077727Y0024018D01*
X0077624Y0023923D01*
X0077519Y0023831D01*
X0077411Y0023742D01*
X0077301Y0023656D01*
X0077188Y0023573D01*
X0077073Y0023494D01*
X0076955Y0023418D01*
X0076836Y0023345D01*
X0076714Y0023275D01*
X0076591Y0023210D01*
X0076466Y0023147D01*
X0076339Y0023088D01*
X0076210Y0023033D01*
X0076080Y0022982D01*
X0075949Y0022934D01*
X0075816Y0022890D01*
X0075682Y0022850D01*
X0075547Y0022813D01*
X0075411Y0022781D01*
X0075274Y0022752D01*
X0075136Y0022728D01*
X0074998Y0022707D01*
X0074859Y0022690D01*
X0074719Y0022677D01*
X0074580Y0022668D01*
X0074440Y0022663D01*
X0074300Y0022662D01*
X0074160Y0022665D01*
X0074020Y0022672D01*
X0073881Y0022683D01*
X0073742Y0022698D01*
X0073603Y0022717D01*
X0073465Y0022739D01*
X0073328Y0022766D01*
X0073191Y0022797D01*
X0073056Y0022831D01*
X0072921Y0022869D01*
X0072788Y0022912D01*
X0072656Y0022957D01*
X0072525Y0023007D01*
X0072395Y0023060D01*
X0072268Y0023117D01*
X0072142Y0023178D01*
X0072017Y0023242D01*
X0071895Y0023310D01*
X0071774Y0023381D01*
X0071656Y0023455D01*
X0071540Y0023533D01*
X0071426Y0023614D01*
X0071314Y0023699D01*
X0071205Y0023786D01*
X0071098Y0023876D01*
X0070994Y0023970D01*
X0070893Y0024066D01*
X0070794Y0024166D01*
X0070698Y0024268D01*
X0070606Y0024372D01*
X0070516Y0024480D01*
X0070429Y0024590D01*
X0070346Y0024702D01*
X0070265Y0024816D01*
X0070188Y0024933D01*
X0070115Y0025052D01*
X0070044Y0025173D01*
X0069978Y0025296D01*
X0069914Y0025421D01*
X0069855Y0025547D01*
X0069799Y0025676D01*
X0069746Y0025805D01*
X0069698Y0025936D01*
X0069653Y0026069D01*
X0069612Y0026203D01*
X0069574Y0026338D01*
X0069541Y0026473D01*
X0069511Y0026610D01*
X0069485Y0026748D01*
X0069464Y0026886D01*
X0069446Y0027025D01*
X0069432Y0027164D01*
X0069422Y0027303D01*
X0069416Y0027443D01*
X0069414Y0027583D01*
X0070786Y0027583D02*
X0070788Y0027702D01*
X0070794Y0027820D01*
X0070804Y0027938D01*
X0070818Y0028056D01*
X0070835Y0028173D01*
X0070857Y0028290D01*
X0070883Y0028406D01*
X0070912Y0028521D01*
X0070945Y0028634D01*
X0070982Y0028747D01*
X0071023Y0028859D01*
X0071068Y0028968D01*
X0071116Y0029077D01*
X0071167Y0029184D01*
X0071223Y0029289D01*
X0071281Y0029392D01*
X0071344Y0029493D01*
X0071409Y0029592D01*
X0071478Y0029688D01*
X0071550Y0029782D01*
X0071625Y0029874D01*
X0071703Y0029964D01*
X0071784Y0030050D01*
X0071868Y0030134D01*
X0071954Y0030215D01*
X0072044Y0030293D01*
X0072136Y0030368D01*
X0072230Y0030440D01*
X0072326Y0030509D01*
X0072425Y0030574D01*
X0072526Y0030637D01*
X0072629Y0030695D01*
X0072734Y0030751D01*
X0072841Y0030802D01*
X0072950Y0030850D01*
X0073059Y0030895D01*
X0073171Y0030936D01*
X0073284Y0030973D01*
X0073397Y0031006D01*
X0073512Y0031035D01*
X0073628Y0031061D01*
X0073745Y0031083D01*
X0073862Y0031100D01*
X0073980Y0031114D01*
X0074098Y0031124D01*
X0074216Y0031130D01*
X0074335Y0031132D01*
X0074454Y0031130D01*
X0074572Y0031124D01*
X0074690Y0031114D01*
X0074808Y0031100D01*
X0074925Y0031083D01*
X0075042Y0031061D01*
X0075158Y0031035D01*
X0075273Y0031006D01*
X0075386Y0030973D01*
X0075499Y0030936D01*
X0075611Y0030895D01*
X0075720Y0030850D01*
X0075829Y0030802D01*
X0075936Y0030751D01*
X0076041Y0030695D01*
X0076144Y0030637D01*
X0076245Y0030574D01*
X0076344Y0030509D01*
X0076440Y0030440D01*
X0076534Y0030368D01*
X0076626Y0030293D01*
X0076716Y0030215D01*
X0076802Y0030134D01*
X0076886Y0030050D01*
X0076967Y0029964D01*
X0077045Y0029874D01*
X0077120Y0029782D01*
X0077192Y0029688D01*
X0077261Y0029592D01*
X0077326Y0029493D01*
X0077389Y0029392D01*
X0077447Y0029289D01*
X0077503Y0029184D01*
X0077554Y0029077D01*
X0077602Y0028968D01*
X0077647Y0028859D01*
X0077688Y0028747D01*
X0077725Y0028634D01*
X0077758Y0028521D01*
X0077787Y0028406D01*
X0077813Y0028290D01*
X0077835Y0028173D01*
X0077852Y0028056D01*
X0077866Y0027938D01*
X0077876Y0027820D01*
X0077882Y0027702D01*
X0077884Y0027583D01*
X0077882Y0027464D01*
X0077876Y0027346D01*
X0077866Y0027228D01*
X0077852Y0027110D01*
X0077835Y0026993D01*
X0077813Y0026876D01*
X0077787Y0026760D01*
X0077758Y0026645D01*
X0077725Y0026532D01*
X0077688Y0026419D01*
X0077647Y0026307D01*
X0077602Y0026198D01*
X0077554Y0026089D01*
X0077503Y0025982D01*
X0077447Y0025877D01*
X0077389Y0025774D01*
X0077326Y0025673D01*
X0077261Y0025574D01*
X0077192Y0025478D01*
X0077120Y0025384D01*
X0077045Y0025292D01*
X0076967Y0025202D01*
X0076886Y0025116D01*
X0076802Y0025032D01*
X0076716Y0024951D01*
X0076626Y0024873D01*
X0076534Y0024798D01*
X0076440Y0024726D01*
X0076344Y0024657D01*
X0076245Y0024592D01*
X0076144Y0024529D01*
X0076041Y0024471D01*
X0075936Y0024415D01*
X0075829Y0024364D01*
X0075720Y0024316D01*
X0075611Y0024271D01*
X0075499Y0024230D01*
X0075386Y0024193D01*
X0075273Y0024160D01*
X0075158Y0024131D01*
X0075042Y0024105D01*
X0074925Y0024083D01*
X0074808Y0024066D01*
X0074690Y0024052D01*
X0074572Y0024042D01*
X0074454Y0024036D01*
X0074335Y0024034D01*
X0074216Y0024036D01*
X0074098Y0024042D01*
X0073980Y0024052D01*
X0073862Y0024066D01*
X0073745Y0024083D01*
X0073628Y0024105D01*
X0073512Y0024131D01*
X0073397Y0024160D01*
X0073284Y0024193D01*
X0073171Y0024230D01*
X0073059Y0024271D01*
X0072950Y0024316D01*
X0072841Y0024364D01*
X0072734Y0024415D01*
X0072629Y0024471D01*
X0072526Y0024529D01*
X0072425Y0024592D01*
X0072326Y0024657D01*
X0072230Y0024726D01*
X0072136Y0024798D01*
X0072044Y0024873D01*
X0071954Y0024951D01*
X0071868Y0025032D01*
X0071784Y0025116D01*
X0071703Y0025202D01*
X0071625Y0025292D01*
X0071550Y0025384D01*
X0071478Y0025478D01*
X0071409Y0025574D01*
X0071344Y0025673D01*
X0071281Y0025774D01*
X0071223Y0025877D01*
X0071167Y0025982D01*
X0071116Y0026089D01*
X0071068Y0026198D01*
X0071023Y0026307D01*
X0070982Y0026419D01*
X0070945Y0026532D01*
X0070912Y0026645D01*
X0070883Y0026760D01*
X0070857Y0026876D01*
X0070835Y0026993D01*
X0070818Y0027110D01*
X0070804Y0027228D01*
X0070794Y0027346D01*
X0070788Y0027464D01*
X0070786Y0027583D01*
X0072134Y0027583D02*
X0072136Y0027676D01*
X0072142Y0027770D01*
X0072152Y0027863D01*
X0072166Y0027955D01*
X0072183Y0028047D01*
X0072205Y0028138D01*
X0072230Y0028228D01*
X0072260Y0028316D01*
X0072293Y0028404D01*
X0072329Y0028490D01*
X0072370Y0028574D01*
X0072413Y0028656D01*
X0072461Y0028737D01*
X0072511Y0028816D01*
X0072565Y0028892D01*
X0072623Y0028966D01*
X0072683Y0029037D01*
X0072746Y0029106D01*
X0072812Y0029172D01*
X0072881Y0029235D01*
X0072952Y0029295D01*
X0073026Y0029353D01*
X0073102Y0029407D01*
X0073181Y0029457D01*
X0073262Y0029505D01*
X0073344Y0029548D01*
X0073428Y0029589D01*
X0073514Y0029625D01*
X0073602Y0029658D01*
X0073690Y0029688D01*
X0073780Y0029713D01*
X0073871Y0029735D01*
X0073963Y0029752D01*
X0074055Y0029766D01*
X0074148Y0029776D01*
X0074242Y0029782D01*
X0074335Y0029784D01*
X0074428Y0029782D01*
X0074522Y0029776D01*
X0074615Y0029766D01*
X0074707Y0029752D01*
X0074799Y0029735D01*
X0074890Y0029713D01*
X0074980Y0029688D01*
X0075068Y0029658D01*
X0075156Y0029625D01*
X0075242Y0029589D01*
X0075326Y0029548D01*
X0075408Y0029505D01*
X0075489Y0029457D01*
X0075568Y0029407D01*
X0075644Y0029353D01*
X0075718Y0029295D01*
X0075789Y0029235D01*
X0075858Y0029172D01*
X0075924Y0029106D01*
X0075987Y0029037D01*
X0076047Y0028966D01*
X0076105Y0028892D01*
X0076159Y0028816D01*
X0076209Y0028737D01*
X0076257Y0028656D01*
X0076300Y0028574D01*
X0076341Y0028490D01*
X0076377Y0028404D01*
X0076410Y0028316D01*
X0076440Y0028228D01*
X0076465Y0028138D01*
X0076487Y0028047D01*
X0076504Y0027955D01*
X0076518Y0027863D01*
X0076528Y0027770D01*
X0076534Y0027676D01*
X0076536Y0027583D01*
X0076534Y0027490D01*
X0076528Y0027396D01*
X0076518Y0027303D01*
X0076504Y0027211D01*
X0076487Y0027119D01*
X0076465Y0027028D01*
X0076440Y0026938D01*
X0076410Y0026850D01*
X0076377Y0026762D01*
X0076341Y0026676D01*
X0076300Y0026592D01*
X0076257Y0026510D01*
X0076209Y0026429D01*
X0076159Y0026350D01*
X0076105Y0026274D01*
X0076047Y0026200D01*
X0075987Y0026129D01*
X0075924Y0026060D01*
X0075858Y0025994D01*
X0075789Y0025931D01*
X0075718Y0025871D01*
X0075644Y0025813D01*
X0075568Y0025759D01*
X0075489Y0025709D01*
X0075408Y0025661D01*
X0075326Y0025618D01*
X0075242Y0025577D01*
X0075156Y0025541D01*
X0075068Y0025508D01*
X0074980Y0025478D01*
X0074890Y0025453D01*
X0074799Y0025431D01*
X0074707Y0025414D01*
X0074615Y0025400D01*
X0074522Y0025390D01*
X0074428Y0025384D01*
X0074335Y0025382D01*
X0074242Y0025384D01*
X0074148Y0025390D01*
X0074055Y0025400D01*
X0073963Y0025414D01*
X0073871Y0025431D01*
X0073780Y0025453D01*
X0073690Y0025478D01*
X0073602Y0025508D01*
X0073514Y0025541D01*
X0073428Y0025577D01*
X0073344Y0025618D01*
X0073262Y0025661D01*
X0073181Y0025709D01*
X0073102Y0025759D01*
X0073026Y0025813D01*
X0072952Y0025871D01*
X0072881Y0025931D01*
X0072812Y0025994D01*
X0072746Y0026060D01*
X0072683Y0026129D01*
X0072623Y0026200D01*
X0072565Y0026274D01*
X0072511Y0026350D01*
X0072461Y0026429D01*
X0072413Y0026510D01*
X0072370Y0026592D01*
X0072329Y0026676D01*
X0072293Y0026762D01*
X0072260Y0026850D01*
X0072230Y0026938D01*
X0072205Y0027028D01*
X0072183Y0027119D01*
X0072166Y0027211D01*
X0072152Y0027303D01*
X0072142Y0027396D01*
X0072136Y0027490D01*
X0072134Y0027583D01*
X0064492Y0024138D02*
X0060555Y0024138D01*
X0060555Y0026106D01*
X0060555Y0024138D02*
X0056618Y0024138D01*
X0059328Y0028504D02*
X0059016Y0028816D01*
X0058782Y0029189D01*
X0058636Y0029605D01*
X0058587Y0030043D01*
X0058587Y0032996D01*
X0058636Y0033434D01*
X0058782Y0033850D01*
X0059016Y0034223D01*
X0059328Y0034535D01*
X0059701Y0034770D01*
X0060117Y0034915D01*
X0060555Y0034965D01*
X0060993Y0034915D01*
X0061409Y0034770D01*
X0061782Y0034535D01*
X0062094Y0034223D01*
X0062329Y0033850D01*
X0062474Y0033434D01*
X0062524Y0032996D01*
X0062524Y0030043D01*
X0062474Y0029605D01*
X0062329Y0029189D01*
X0062094Y0028816D01*
X0061782Y0028504D01*
X0061409Y0028270D01*
X0060993Y0028124D01*
X0060555Y0028075D01*
X0060117Y0028124D01*
X0059701Y0028270D01*
X0059328Y0028504D01*
X0058962Y0028901D02*
X0062148Y0028901D01*
X0062507Y0029900D02*
X0058603Y0029900D01*
X0058587Y0030899D02*
X0062524Y0030899D01*
X0062524Y0031897D02*
X0058587Y0031897D01*
X0058587Y0032896D02*
X0062524Y0032896D01*
X0062301Y0033894D02*
X0058809Y0033894D01*
X0060052Y0034893D02*
X0061058Y0034893D01*
X0064492Y0030043D02*
X0064490Y0029919D01*
X0064484Y0029796D01*
X0064475Y0029672D01*
X0064461Y0029550D01*
X0064444Y0029427D01*
X0064422Y0029305D01*
X0064397Y0029184D01*
X0064368Y0029064D01*
X0064336Y0028945D01*
X0064299Y0028826D01*
X0064259Y0028709D01*
X0064216Y0028594D01*
X0064168Y0028479D01*
X0064117Y0028367D01*
X0064063Y0028256D01*
X0064005Y0028146D01*
X0063944Y0028039D01*
X0063879Y0027933D01*
X0063811Y0027830D01*
X0063740Y0027729D01*
X0063666Y0027630D01*
X0063589Y0027533D01*
X0063508Y0027439D01*
X0063425Y0027348D01*
X0063339Y0027259D01*
X0063250Y0027173D01*
X0063159Y0027090D01*
X0063065Y0027009D01*
X0062968Y0026932D01*
X0062869Y0026858D01*
X0062768Y0026787D01*
X0062665Y0026719D01*
X0062559Y0026654D01*
X0062452Y0026593D01*
X0062342Y0026535D01*
X0062231Y0026481D01*
X0062119Y0026430D01*
X0062004Y0026382D01*
X0061889Y0026339D01*
X0061772Y0026299D01*
X0061653Y0026262D01*
X0061534Y0026230D01*
X0061414Y0026201D01*
X0061293Y0026176D01*
X0061171Y0026154D01*
X0061048Y0026137D01*
X0060926Y0026123D01*
X0060802Y0026114D01*
X0060679Y0026108D01*
X0060555Y0026106D01*
X0060431Y0026108D01*
X0060308Y0026114D01*
X0060184Y0026123D01*
X0060062Y0026137D01*
X0059939Y0026154D01*
X0059817Y0026176D01*
X0059696Y0026201D01*
X0059576Y0026230D01*
X0059457Y0026262D01*
X0059338Y0026299D01*
X0059221Y0026339D01*
X0059106Y0026382D01*
X0058991Y0026430D01*
X0058879Y0026481D01*
X0058768Y0026535D01*
X0058658Y0026593D01*
X0058551Y0026654D01*
X0058445Y0026719D01*
X0058342Y0026787D01*
X0058241Y0026858D01*
X0058142Y0026932D01*
X0058045Y0027009D01*
X0057951Y0027090D01*
X0057860Y0027173D01*
X0057771Y0027259D01*
X0057685Y0027348D01*
X0057602Y0027439D01*
X0057521Y0027533D01*
X0057444Y0027630D01*
X0057370Y0027729D01*
X0057299Y0027830D01*
X0057231Y0027933D01*
X0057166Y0028039D01*
X0057105Y0028146D01*
X0057047Y0028256D01*
X0056993Y0028367D01*
X0056942Y0028479D01*
X0056894Y0028594D01*
X0056851Y0028709D01*
X0056811Y0028826D01*
X0056774Y0028945D01*
X0056742Y0029064D01*
X0056713Y0029184D01*
X0056688Y0029305D01*
X0056666Y0029427D01*
X0056649Y0029550D01*
X0056635Y0029672D01*
X0056626Y0029796D01*
X0056620Y0029919D01*
X0056618Y0030043D01*
X0021185Y0058587D02*
X0021187Y0058631D01*
X0021193Y0058675D01*
X0021203Y0058718D01*
X0021216Y0058760D01*
X0021234Y0058800D01*
X0021255Y0058839D01*
X0021279Y0058876D01*
X0021306Y0058911D01*
X0021337Y0058943D01*
X0021370Y0058972D01*
X0021406Y0058998D01*
X0021444Y0059020D01*
X0021484Y0059039D01*
X0021525Y0059055D01*
X0021568Y0059067D01*
X0021611Y0059075D01*
X0021655Y0059079D01*
X0021699Y0059079D01*
X0021743Y0059075D01*
X0021786Y0059067D01*
X0021829Y0059055D01*
X0021870Y0059039D01*
X0021910Y0059020D01*
X0021948Y0058998D01*
X0021984Y0058972D01*
X0022017Y0058943D01*
X0022048Y0058911D01*
X0022075Y0058876D01*
X0022099Y0058839D01*
X0022120Y0058800D01*
X0022138Y0058760D01*
X0022151Y0058718D01*
X0022161Y0058675D01*
X0022167Y0058631D01*
X0022169Y0058587D01*
X0022167Y0058543D01*
X0022161Y0058499D01*
X0022151Y0058456D01*
X0022138Y0058414D01*
X0022120Y0058374D01*
X0022099Y0058335D01*
X0022075Y0058298D01*
X0022048Y0058263D01*
X0022017Y0058231D01*
X0021984Y0058202D01*
X0021948Y0058176D01*
X0021910Y0058154D01*
X0021870Y0058135D01*
X0021829Y0058119D01*
X0021786Y0058107D01*
X0021743Y0058099D01*
X0021699Y0058095D01*
X0021655Y0058095D01*
X0021611Y0058099D01*
X0021568Y0058107D01*
X0021525Y0058119D01*
X0021484Y0058135D01*
X0021444Y0058154D01*
X0021406Y0058176D01*
X0021370Y0058202D01*
X0021337Y0058231D01*
X0021306Y0058263D01*
X0021279Y0058298D01*
X0021255Y0058335D01*
X0021234Y0058374D01*
X0021216Y0058414D01*
X0021203Y0058456D01*
X0021193Y0058499D01*
X0021187Y0058543D01*
X0021185Y0058587D01*
D12*
X0047366Y0055240D02*
X0054059Y0055240D01*
X0054059Y0040280D01*
X0047366Y0040280D01*
X0047366Y0055240D01*
X0057563Y0061067D02*
X0057563Y0071854D01*
X0062563Y0071854D01*
X0062563Y0061067D01*
X0057563Y0061067D01*
X0060083Y0055181D02*
X0070870Y0055181D01*
X0070870Y0050181D01*
X0060083Y0050181D01*
X0060083Y0055181D01*
X0060083Y0050260D02*
X0070870Y0050260D01*
X0070870Y0045260D01*
X0060083Y0045260D01*
X0060083Y0050260D01*
X0052287Y0048547D02*
X0050713Y0048547D01*
X0052287Y0046972D01*
X0049138Y0046972D01*
X0050713Y0048547D01*
X0049138Y0048547D01*
X0060083Y0045339D02*
X0070870Y0045339D01*
X0070870Y0040339D01*
X0060083Y0040339D01*
X0060083Y0045339D01*
X0079217Y0061067D02*
X0079217Y0071854D01*
X0084217Y0071854D01*
X0084217Y0061067D01*
X0079217Y0061067D01*
X0074039Y0061244D02*
X0067740Y0061244D01*
X0074039Y0065181D02*
X0074039Y0068724D01*
X0074039Y0072661D02*
X0067740Y0072661D01*
X0089610Y0072898D02*
X0089610Y0067898D01*
X0100398Y0067898D01*
X0100398Y0072898D01*
X0089610Y0072898D01*
X0089610Y0067976D02*
X0100398Y0067976D01*
X0100398Y0062976D01*
X0089610Y0062976D01*
X0089610Y0067976D01*
X0089610Y0063055D02*
X0100398Y0063055D01*
X0100398Y0058055D01*
X0089610Y0058055D01*
X0089610Y0063055D01*
X0089610Y0058134D02*
X0100398Y0058134D01*
X0100398Y0053134D01*
X0089610Y0053134D01*
X0089610Y0058134D01*
X0089610Y0053213D02*
X0100398Y0053213D01*
X0100398Y0048213D01*
X0089610Y0048213D01*
X0089610Y0053213D01*
X0089610Y0048291D02*
X0100398Y0048291D01*
X0100398Y0043291D01*
X0089610Y0043291D01*
X0089610Y0048291D01*
X0089610Y0043370D02*
X0100398Y0043370D01*
X0100398Y0038370D01*
X0089610Y0038370D01*
X0089610Y0043370D01*
X0089610Y0038449D02*
X0100398Y0038449D01*
X0100398Y0033449D01*
X0089610Y0033449D01*
X0089610Y0038449D01*
X0089610Y0033528D02*
X0100398Y0033528D01*
X0100398Y0028528D01*
X0089610Y0028528D01*
X0089610Y0033528D01*
X0089610Y0028606D02*
X0100398Y0028606D01*
X0100398Y0023606D01*
X0089610Y0023606D01*
X0089610Y0028606D01*
D13*
X0087472Y0034141D02*
X0086004Y0034141D01*
X0086738Y0034141D02*
X0086738Y0036343D01*
X0086004Y0035609D01*
X0085262Y0035976D02*
X0084895Y0036343D01*
X0084161Y0036343D01*
X0083794Y0035976D01*
X0083794Y0034508D01*
X0084161Y0034141D01*
X0084895Y0034141D01*
X0085262Y0034508D01*
X0083055Y0034141D02*
X0082321Y0034141D01*
X0082688Y0034141D02*
X0082688Y0036343D01*
X0082321Y0036343D02*
X0083055Y0036343D01*
X0083055Y0045952D02*
X0082321Y0045952D01*
X0082688Y0045952D02*
X0082688Y0048154D01*
X0082321Y0048154D02*
X0083055Y0048154D01*
X0083794Y0047787D02*
X0083794Y0046319D01*
X0084161Y0045952D01*
X0084895Y0045952D01*
X0085262Y0046319D01*
X0086004Y0045952D02*
X0087472Y0047420D01*
X0087472Y0047787D01*
X0087105Y0048154D01*
X0086371Y0048154D01*
X0086004Y0047787D01*
X0085262Y0047787D02*
X0084895Y0048154D01*
X0084161Y0048154D01*
X0083794Y0047787D01*
X0086004Y0045952D02*
X0087472Y0045952D01*
X0101009Y0045758D02*
X0101009Y0044290D01*
X0101376Y0043923D01*
X0102110Y0043923D01*
X0102477Y0044290D01*
X0103219Y0044290D02*
X0103219Y0044657D01*
X0103586Y0045024D01*
X0104320Y0045024D01*
X0104687Y0044657D01*
X0104687Y0044290D01*
X0104320Y0043923D01*
X0103586Y0043923D01*
X0103219Y0044290D01*
X0103586Y0045024D02*
X0103219Y0045391D01*
X0103219Y0045758D01*
X0103586Y0046125D01*
X0104320Y0046125D01*
X0104687Y0045758D01*
X0104687Y0045391D01*
X0104320Y0045024D01*
X0102477Y0045758D02*
X0102110Y0046125D01*
X0101376Y0046125D01*
X0101009Y0045758D01*
X0101376Y0048844D02*
X0102110Y0048844D01*
X0102477Y0049211D01*
X0103219Y0049211D02*
X0103586Y0048844D01*
X0104320Y0048844D01*
X0104687Y0049211D01*
X0104687Y0049578D01*
X0104320Y0049945D01*
X0103219Y0049945D01*
X0103219Y0049211D01*
X0103219Y0049945D02*
X0103953Y0050679D01*
X0104687Y0051046D01*
X0102477Y0050679D02*
X0102110Y0051046D01*
X0101376Y0051046D01*
X0101009Y0050679D01*
X0101009Y0049211D01*
X0101376Y0048844D01*
X0101009Y0053765D02*
X0101009Y0055967D01*
X0102110Y0055967D01*
X0102477Y0055600D01*
X0102477Y0054866D01*
X0102110Y0054499D01*
X0101009Y0054499D01*
X0101743Y0054499D02*
X0102477Y0053765D01*
X0103219Y0053765D02*
X0104687Y0055233D01*
X0104687Y0055600D01*
X0104320Y0055967D01*
X0103586Y0055967D01*
X0103219Y0055600D01*
X0103219Y0053765D02*
X0104687Y0053765D01*
X0104320Y0058687D02*
X0104320Y0060888D01*
X0103219Y0059788D01*
X0104687Y0059788D01*
X0102477Y0059788D02*
X0102477Y0060522D01*
X0102110Y0060888D01*
X0101009Y0060888D01*
X0101009Y0058687D01*
X0101009Y0059421D02*
X0102110Y0059421D01*
X0102477Y0059788D01*
X0101743Y0059421D02*
X0102477Y0058687D01*
X0102477Y0063608D02*
X0101743Y0064342D01*
X0102110Y0064342D02*
X0101009Y0064342D01*
X0101009Y0063608D02*
X0101009Y0065810D01*
X0102110Y0065810D01*
X0102477Y0065443D01*
X0102477Y0064709D01*
X0102110Y0064342D01*
X0103219Y0064709D02*
X0103953Y0065076D01*
X0104320Y0065076D01*
X0104687Y0064709D01*
X0104687Y0063975D01*
X0104320Y0063608D01*
X0103586Y0063608D01*
X0103219Y0063975D01*
X0103219Y0064709D02*
X0103219Y0065810D01*
X0104687Y0065810D01*
X0103219Y0068529D02*
X0103219Y0068896D01*
X0104687Y0070364D01*
X0104687Y0070731D01*
X0103219Y0070731D01*
X0102477Y0070364D02*
X0102110Y0070731D01*
X0101376Y0070731D01*
X0101009Y0070364D01*
X0101009Y0068896D01*
X0101376Y0068529D01*
X0102110Y0068529D01*
X0102477Y0068896D01*
X0087030Y0065317D02*
X0087030Y0063849D01*
X0085562Y0065317D01*
X0085195Y0065317D01*
X0084828Y0064950D01*
X0084828Y0064216D01*
X0085195Y0063849D01*
X0085195Y0063107D02*
X0084828Y0062740D01*
X0084828Y0062006D01*
X0085195Y0061639D01*
X0086663Y0061639D01*
X0087030Y0062006D01*
X0087030Y0062740D01*
X0086663Y0063107D01*
X0073680Y0060029D02*
X0073680Y0059662D01*
X0073313Y0059295D01*
X0073680Y0058928D01*
X0073680Y0058561D01*
X0073313Y0058194D01*
X0072579Y0058194D01*
X0072212Y0058561D01*
X0071470Y0058561D02*
X0071103Y0058194D01*
X0070369Y0058194D01*
X0070002Y0058561D01*
X0070002Y0060029D01*
X0070369Y0060396D01*
X0071103Y0060396D01*
X0071470Y0060029D01*
X0072212Y0060029D02*
X0072579Y0060396D01*
X0073313Y0060396D01*
X0073680Y0060029D01*
X0073313Y0059295D02*
X0072946Y0059295D01*
X0069263Y0058194D02*
X0068529Y0058194D01*
X0068896Y0058194D02*
X0068896Y0060396D01*
X0068529Y0060396D02*
X0069263Y0060396D01*
X0058929Y0053200D02*
X0058562Y0053567D01*
X0057828Y0053567D01*
X0057461Y0053200D01*
X0056719Y0053200D02*
X0056719Y0052466D01*
X0056352Y0052099D01*
X0055251Y0052099D01*
X0055251Y0051365D02*
X0055251Y0053567D01*
X0056352Y0053567D01*
X0056719Y0053200D01*
X0055985Y0052099D02*
X0056719Y0051365D01*
X0057461Y0051732D02*
X0057828Y0051365D01*
X0058562Y0051365D01*
X0058929Y0051732D01*
X0058929Y0052099D01*
X0058562Y0052466D01*
X0058195Y0052466D01*
X0058562Y0052466D02*
X0058929Y0052833D01*
X0058929Y0053200D01*
X0055957Y0056718D02*
X0054489Y0056718D01*
X0055223Y0056718D02*
X0055223Y0058920D01*
X0054489Y0058186D01*
X0053748Y0058553D02*
X0053381Y0058920D01*
X0052280Y0058920D01*
X0052280Y0056718D01*
X0053381Y0056718D01*
X0053748Y0057085D01*
X0053748Y0058553D01*
X0051538Y0058920D02*
X0050070Y0058920D01*
X0050070Y0056718D01*
X0051538Y0056718D01*
X0050804Y0057819D02*
X0050070Y0057819D01*
X0049328Y0056718D02*
X0047860Y0056718D01*
X0047860Y0058920D01*
X0054316Y0062006D02*
X0054316Y0062740D01*
X0054683Y0063107D01*
X0054683Y0063849D02*
X0054316Y0064216D01*
X0054316Y0064950D01*
X0054683Y0065317D01*
X0055050Y0065317D01*
X0055417Y0064950D01*
X0055784Y0065317D01*
X0056151Y0065317D01*
X0056518Y0064950D01*
X0056518Y0064216D01*
X0056151Y0063849D01*
X0056151Y0063107D02*
X0056518Y0062740D01*
X0056518Y0062006D01*
X0056151Y0061639D01*
X0054683Y0061639D01*
X0054316Y0062006D01*
X0055417Y0064583D02*
X0055417Y0064950D01*
X0055618Y0048646D02*
X0055251Y0048279D01*
X0055251Y0046811D01*
X0055618Y0046444D01*
X0056352Y0046444D01*
X0056719Y0046811D01*
X0057461Y0047545D02*
X0058929Y0047545D01*
X0058562Y0046444D02*
X0058562Y0048646D01*
X0057461Y0047545D01*
X0056719Y0048279D02*
X0056352Y0048646D01*
X0055618Y0048646D01*
X0055618Y0043725D02*
X0055251Y0043358D01*
X0055251Y0041890D01*
X0055618Y0041523D01*
X0056352Y0041523D01*
X0056719Y0041890D01*
X0057461Y0041890D02*
X0057828Y0041523D01*
X0058562Y0041523D01*
X0058929Y0041890D01*
X0058929Y0042624D01*
X0058562Y0042991D01*
X0058195Y0042991D01*
X0057461Y0042624D01*
X0057461Y0043725D01*
X0058929Y0043725D01*
X0056719Y0043358D02*
X0056352Y0043725D01*
X0055618Y0043725D01*
X0101009Y0041203D02*
X0101009Y0039002D01*
X0101009Y0039736D02*
X0102110Y0039736D01*
X0102477Y0040103D01*
X0102477Y0040836D01*
X0102110Y0041203D01*
X0101009Y0041203D01*
X0103219Y0041203D02*
X0104687Y0041203D01*
X0104687Y0040836D01*
X0103219Y0039369D01*
X0103219Y0039002D01*
X0102477Y0039002D02*
X0101743Y0039736D01*
X0102110Y0036282D02*
X0102477Y0035915D01*
X0102477Y0035181D01*
X0102110Y0034814D01*
X0101009Y0034814D01*
X0101009Y0034080D02*
X0101009Y0036282D01*
X0102110Y0036282D01*
X0101743Y0034814D02*
X0102477Y0034080D01*
X0103219Y0034447D02*
X0103586Y0034080D01*
X0104320Y0034080D01*
X0104687Y0034447D01*
X0104687Y0034814D01*
X0104320Y0035181D01*
X0103219Y0035181D01*
X0103219Y0034447D01*
X0103219Y0035181D02*
X0103953Y0035915D01*
X0104687Y0036282D01*
X0103953Y0031361D02*
X0103953Y0029159D01*
X0103219Y0029159D02*
X0104687Y0029159D01*
X0102477Y0029159D02*
X0101743Y0029893D01*
X0102110Y0029893D02*
X0101009Y0029893D01*
X0101009Y0029159D02*
X0101009Y0031361D01*
X0102110Y0031361D01*
X0102477Y0030994D01*
X0102477Y0030260D01*
X0102110Y0029893D01*
X0103219Y0030627D02*
X0103953Y0031361D01*
X0103953Y0026440D02*
X0103953Y0024238D01*
X0103219Y0024238D02*
X0104687Y0024238D01*
X0103219Y0025706D02*
X0103953Y0026440D01*
X0102477Y0026073D02*
X0102110Y0026440D01*
X0101376Y0026440D01*
X0101009Y0026073D01*
X0101009Y0024605D01*
X0101376Y0024238D01*
X0102110Y0024238D01*
X0102477Y0024605D01*
D14*
X0081717Y0036264D02*
X0076795Y0036264D01*
X0076795Y0045476D02*
X0081717Y0045476D01*
X0081717Y0048075D02*
X0076795Y0048075D01*
X0076795Y0057287D02*
X0081717Y0057287D01*
D15*
X0087130Y0049524D02*
X0087132Y0049563D01*
X0087138Y0049602D01*
X0087148Y0049640D01*
X0087161Y0049677D01*
X0087178Y0049712D01*
X0087198Y0049746D01*
X0087222Y0049777D01*
X0087249Y0049806D01*
X0087278Y0049832D01*
X0087310Y0049855D01*
X0087344Y0049875D01*
X0087380Y0049891D01*
X0087417Y0049903D01*
X0087456Y0049912D01*
X0087495Y0049917D01*
X0087534Y0049918D01*
X0087573Y0049915D01*
X0087612Y0049908D01*
X0087649Y0049897D01*
X0087686Y0049883D01*
X0087721Y0049865D01*
X0087754Y0049844D01*
X0087785Y0049819D01*
X0087813Y0049792D01*
X0087838Y0049762D01*
X0087860Y0049729D01*
X0087879Y0049695D01*
X0087894Y0049659D01*
X0087906Y0049621D01*
X0087914Y0049583D01*
X0087918Y0049544D01*
X0087918Y0049504D01*
X0087914Y0049465D01*
X0087906Y0049427D01*
X0087894Y0049389D01*
X0087879Y0049353D01*
X0087860Y0049319D01*
X0087838Y0049286D01*
X0087813Y0049256D01*
X0087785Y0049229D01*
X0087754Y0049204D01*
X0087721Y0049183D01*
X0087686Y0049165D01*
X0087649Y0049151D01*
X0087612Y0049140D01*
X0087573Y0049133D01*
X0087534Y0049130D01*
X0087495Y0049131D01*
X0087456Y0049136D01*
X0087417Y0049145D01*
X0087380Y0049157D01*
X0087344Y0049173D01*
X0087310Y0049193D01*
X0087278Y0049216D01*
X0087249Y0049242D01*
X0087222Y0049271D01*
X0087198Y0049302D01*
X0087178Y0049336D01*
X0087161Y0049371D01*
X0087148Y0049408D01*
X0087138Y0049446D01*
X0087132Y0049485D01*
X0087130Y0049524D01*
X0087130Y0037713D02*
X0087132Y0037752D01*
X0087138Y0037791D01*
X0087148Y0037829D01*
X0087161Y0037866D01*
X0087178Y0037901D01*
X0087198Y0037935D01*
X0087222Y0037966D01*
X0087249Y0037995D01*
X0087278Y0038021D01*
X0087310Y0038044D01*
X0087344Y0038064D01*
X0087380Y0038080D01*
X0087417Y0038092D01*
X0087456Y0038101D01*
X0087495Y0038106D01*
X0087534Y0038107D01*
X0087573Y0038104D01*
X0087612Y0038097D01*
X0087649Y0038086D01*
X0087686Y0038072D01*
X0087721Y0038054D01*
X0087754Y0038033D01*
X0087785Y0038008D01*
X0087813Y0037981D01*
X0087838Y0037951D01*
X0087860Y0037918D01*
X0087879Y0037884D01*
X0087894Y0037848D01*
X0087906Y0037810D01*
X0087914Y0037772D01*
X0087918Y0037733D01*
X0087918Y0037693D01*
X0087914Y0037654D01*
X0087906Y0037616D01*
X0087894Y0037578D01*
X0087879Y0037542D01*
X0087860Y0037508D01*
X0087838Y0037475D01*
X0087813Y0037445D01*
X0087785Y0037418D01*
X0087754Y0037393D01*
X0087721Y0037372D01*
X0087686Y0037354D01*
X0087649Y0037340D01*
X0087612Y0037329D01*
X0087573Y0037322D01*
X0087534Y0037319D01*
X0087495Y0037320D01*
X0087456Y0037325D01*
X0087417Y0037334D01*
X0087380Y0037346D01*
X0087344Y0037362D01*
X0087310Y0037382D01*
X0087278Y0037405D01*
X0087249Y0037431D01*
X0087222Y0037460D01*
X0087198Y0037491D01*
X0087178Y0037525D01*
X0087161Y0037560D01*
X0087148Y0037597D01*
X0087138Y0037635D01*
X0087132Y0037674D01*
X0087130Y0037713D01*
D16*
X0072859Y0027583D02*
X0072861Y0027660D01*
X0072867Y0027736D01*
X0072877Y0027812D01*
X0072891Y0027887D01*
X0072908Y0027962D01*
X0072930Y0028035D01*
X0072955Y0028108D01*
X0072985Y0028179D01*
X0073017Y0028248D01*
X0073054Y0028315D01*
X0073093Y0028381D01*
X0073136Y0028444D01*
X0073183Y0028505D01*
X0073232Y0028564D01*
X0073285Y0028620D01*
X0073340Y0028673D01*
X0073398Y0028723D01*
X0073458Y0028770D01*
X0073521Y0028814D01*
X0073586Y0028855D01*
X0073653Y0028892D01*
X0073722Y0028926D01*
X0073792Y0028956D01*
X0073864Y0028982D01*
X0073938Y0029004D01*
X0074012Y0029023D01*
X0074087Y0029038D01*
X0074163Y0029049D01*
X0074239Y0029056D01*
X0074316Y0029059D01*
X0074392Y0029058D01*
X0074469Y0029053D01*
X0074545Y0029044D01*
X0074621Y0029031D01*
X0074695Y0029014D01*
X0074769Y0028994D01*
X0074842Y0028969D01*
X0074913Y0028941D01*
X0074983Y0028909D01*
X0075051Y0028874D01*
X0075117Y0028835D01*
X0075181Y0028793D01*
X0075242Y0028747D01*
X0075302Y0028698D01*
X0075358Y0028647D01*
X0075412Y0028592D01*
X0075463Y0028535D01*
X0075511Y0028475D01*
X0075556Y0028413D01*
X0075597Y0028348D01*
X0075635Y0028282D01*
X0075670Y0028214D01*
X0075700Y0028143D01*
X0075728Y0028072D01*
X0075751Y0027999D01*
X0075771Y0027925D01*
X0075787Y0027850D01*
X0075799Y0027774D01*
X0075807Y0027698D01*
X0075811Y0027621D01*
X0075811Y0027545D01*
X0075807Y0027468D01*
X0075799Y0027392D01*
X0075787Y0027316D01*
X0075771Y0027241D01*
X0075751Y0027167D01*
X0075728Y0027094D01*
X0075700Y0027023D01*
X0075670Y0026952D01*
X0075635Y0026884D01*
X0075597Y0026818D01*
X0075556Y0026753D01*
X0075511Y0026691D01*
X0075463Y0026631D01*
X0075412Y0026574D01*
X0075358Y0026519D01*
X0075302Y0026468D01*
X0075242Y0026419D01*
X0075181Y0026373D01*
X0075117Y0026331D01*
X0075051Y0026292D01*
X0074983Y0026257D01*
X0074913Y0026225D01*
X0074842Y0026197D01*
X0074769Y0026172D01*
X0074695Y0026152D01*
X0074621Y0026135D01*
X0074545Y0026122D01*
X0074469Y0026113D01*
X0074392Y0026108D01*
X0074316Y0026107D01*
X0074239Y0026110D01*
X0074163Y0026117D01*
X0074087Y0026128D01*
X0074012Y0026143D01*
X0073938Y0026162D01*
X0073864Y0026184D01*
X0073792Y0026210D01*
X0073722Y0026240D01*
X0073653Y0026274D01*
X0073586Y0026311D01*
X0073521Y0026352D01*
X0073458Y0026396D01*
X0073398Y0026443D01*
X0073340Y0026493D01*
X0073285Y0026546D01*
X0073232Y0026602D01*
X0073183Y0026661D01*
X0073136Y0026722D01*
X0073093Y0026785D01*
X0073054Y0026851D01*
X0073017Y0026918D01*
X0072985Y0026987D01*
X0072955Y0027058D01*
X0072930Y0027131D01*
X0072908Y0027204D01*
X0072891Y0027279D01*
X0072877Y0027354D01*
X0072867Y0027430D01*
X0072861Y0027506D01*
X0072859Y0027583D01*
M02*
