G75*
%MOIN*%
%OFA0B0*%
%FSLAX25Y25*%
%IPPOS*%
%LPD*%
%AMOC8*
5,1,8,0,0,1.08239X$1,22.5*
%
%ADD10C,0.00000*%
%ADD11R,0.07087X0.03543*%
%ADD12C,0.02846*%
%ADD13C,0.02409*%
%ADD14C,0.02213*%
%ADD15C,0.06142*%
%ADD16C,0.00004*%
%ADD17R,0.03543X0.03543*%
%ADD18C,0.01000*%
%ADD19OC8,0.02420*%
D10*
X0045791Y0032012D02*
X0045915Y0032010D01*
X0046038Y0032004D01*
X0046162Y0031995D01*
X0046284Y0031981D01*
X0046407Y0031964D01*
X0046529Y0031942D01*
X0046650Y0031917D01*
X0046770Y0031888D01*
X0046889Y0031856D01*
X0047008Y0031819D01*
X0047125Y0031779D01*
X0047240Y0031736D01*
X0047355Y0031688D01*
X0047467Y0031637D01*
X0047578Y0031583D01*
X0047688Y0031525D01*
X0047795Y0031464D01*
X0047901Y0031399D01*
X0048004Y0031331D01*
X0048105Y0031260D01*
X0048204Y0031186D01*
X0048301Y0031109D01*
X0048395Y0031028D01*
X0048486Y0030945D01*
X0048575Y0030859D01*
X0048661Y0030770D01*
X0048744Y0030679D01*
X0048825Y0030585D01*
X0048902Y0030488D01*
X0048976Y0030389D01*
X0049047Y0030288D01*
X0049115Y0030185D01*
X0049180Y0030079D01*
X0049241Y0029972D01*
X0049299Y0029862D01*
X0049353Y0029751D01*
X0049404Y0029639D01*
X0049452Y0029524D01*
X0049495Y0029409D01*
X0049535Y0029292D01*
X0049572Y0029173D01*
X0049604Y0029054D01*
X0049633Y0028934D01*
X0049658Y0028813D01*
X0049680Y0028691D01*
X0049697Y0028568D01*
X0049711Y0028446D01*
X0049720Y0028322D01*
X0049726Y0028199D01*
X0049728Y0028075D01*
X0049728Y0024138D01*
X0049713Y0024023D01*
X0049703Y0023907D01*
X0049696Y0023791D01*
X0049693Y0023675D01*
X0049694Y0023558D01*
X0049699Y0023442D01*
X0049708Y0023326D01*
X0049720Y0023211D01*
X0049737Y0023095D01*
X0049757Y0022981D01*
X0049781Y0022867D01*
X0049809Y0022754D01*
X0049841Y0022642D01*
X0049876Y0022532D01*
X0049915Y0022422D01*
X0049958Y0022314D01*
X0050004Y0022207D01*
X0050054Y0022102D01*
X0050108Y0021999D01*
X0050164Y0021897D01*
X0050224Y0021798D01*
X0050288Y0021700D01*
X0050354Y0021605D01*
X0050424Y0021512D01*
X0050497Y0021421D01*
X0050573Y0021333D01*
X0050652Y0021247D01*
X0050733Y0021164D01*
X0050818Y0021084D01*
X0050904Y0021007D01*
X0050994Y0020933D01*
X0051086Y0020861D01*
X0051180Y0020793D01*
X0051276Y0020728D01*
X0051375Y0020666D01*
X0051476Y0020608D01*
X0051578Y0020553D01*
X0051682Y0020501D01*
X0051788Y0020453D01*
X0051896Y0020409D01*
X0052005Y0020368D01*
X0052115Y0020331D01*
X0052226Y0020297D01*
X0052338Y0020268D01*
X0052452Y0020242D01*
X0052566Y0020219D01*
X0052681Y0020201D01*
X0099925Y0020201D01*
X0100056Y0020189D01*
X0100188Y0020180D01*
X0100320Y0020175D01*
X0100452Y0020174D01*
X0100584Y0020177D01*
X0100716Y0020184D01*
X0100848Y0020195D01*
X0100979Y0020210D01*
X0101110Y0020228D01*
X0101240Y0020251D01*
X0101369Y0020277D01*
X0101498Y0020307D01*
X0101625Y0020341D01*
X0101752Y0020379D01*
X0101877Y0020420D01*
X0102002Y0020465D01*
X0102124Y0020514D01*
X0102245Y0020566D01*
X0102365Y0020622D01*
X0102483Y0020682D01*
X0102599Y0020745D01*
X0102713Y0020811D01*
X0102825Y0020881D01*
X0102935Y0020954D01*
X0103043Y0021030D01*
X0103149Y0021110D01*
X0103252Y0021192D01*
X0103353Y0021278D01*
X0103451Y0021366D01*
X0103546Y0021457D01*
X0103639Y0021552D01*
X0103728Y0021648D01*
X0103815Y0021748D01*
X0103899Y0021850D01*
X0103980Y0021954D01*
X0104058Y0022061D01*
X0104132Y0022170D01*
X0104204Y0022281D01*
X0104272Y0022394D01*
X0104336Y0022510D01*
X0104397Y0022627D01*
X0104455Y0022745D01*
X0104509Y0022866D01*
X0104559Y0022988D01*
X0104606Y0023111D01*
X0104649Y0023236D01*
X0104689Y0023362D01*
X0104725Y0023489D01*
X0104756Y0023618D01*
X0104785Y0023747D01*
X0104809Y0023876D01*
X0104829Y0024007D01*
X0104846Y0024138D01*
X0104846Y0028075D01*
X0104848Y0028199D01*
X0104854Y0028322D01*
X0104863Y0028446D01*
X0104877Y0028568D01*
X0104894Y0028691D01*
X0104916Y0028813D01*
X0104941Y0028934D01*
X0104970Y0029054D01*
X0105002Y0029173D01*
X0105039Y0029292D01*
X0105079Y0029409D01*
X0105122Y0029524D01*
X0105170Y0029639D01*
X0105221Y0029751D01*
X0105275Y0029862D01*
X0105333Y0029972D01*
X0105394Y0030079D01*
X0105459Y0030185D01*
X0105527Y0030288D01*
X0105598Y0030389D01*
X0105672Y0030488D01*
X0105749Y0030585D01*
X0105830Y0030679D01*
X0105913Y0030770D01*
X0105999Y0030859D01*
X0106088Y0030945D01*
X0106179Y0031028D01*
X0106273Y0031109D01*
X0106370Y0031186D01*
X0106469Y0031260D01*
X0106570Y0031331D01*
X0106673Y0031399D01*
X0106779Y0031464D01*
X0106886Y0031525D01*
X0106996Y0031583D01*
X0107107Y0031637D01*
X0107219Y0031688D01*
X0107334Y0031736D01*
X0107449Y0031779D01*
X0107566Y0031819D01*
X0107685Y0031856D01*
X0107804Y0031888D01*
X0107924Y0031917D01*
X0108045Y0031942D01*
X0108167Y0031964D01*
X0108290Y0031981D01*
X0108412Y0031995D01*
X0108536Y0032004D01*
X0108659Y0032010D01*
X0108783Y0032012D01*
X0131815Y0032012D01*
X0131939Y0032014D01*
X0132062Y0032020D01*
X0132186Y0032029D01*
X0132308Y0032043D01*
X0132431Y0032060D01*
X0132553Y0032082D01*
X0132674Y0032107D01*
X0132794Y0032136D01*
X0132913Y0032168D01*
X0133032Y0032205D01*
X0133149Y0032245D01*
X0133264Y0032288D01*
X0133379Y0032336D01*
X0133491Y0032387D01*
X0133602Y0032441D01*
X0133712Y0032499D01*
X0133819Y0032560D01*
X0133925Y0032625D01*
X0134028Y0032693D01*
X0134129Y0032764D01*
X0134228Y0032838D01*
X0134325Y0032915D01*
X0134419Y0032996D01*
X0134510Y0033079D01*
X0134599Y0033165D01*
X0134685Y0033254D01*
X0134768Y0033345D01*
X0134849Y0033439D01*
X0134926Y0033536D01*
X0135000Y0033635D01*
X0135071Y0033736D01*
X0135139Y0033839D01*
X0135204Y0033945D01*
X0135265Y0034052D01*
X0135323Y0034162D01*
X0135377Y0034273D01*
X0135428Y0034385D01*
X0135476Y0034500D01*
X0135519Y0034615D01*
X0135559Y0034732D01*
X0135596Y0034851D01*
X0135628Y0034970D01*
X0135657Y0035090D01*
X0135682Y0035211D01*
X0135704Y0035333D01*
X0135721Y0035456D01*
X0135735Y0035578D01*
X0135744Y0035702D01*
X0135750Y0035825D01*
X0135752Y0035949D01*
X0135752Y0059571D01*
X0135750Y0059695D01*
X0135744Y0059818D01*
X0135735Y0059942D01*
X0135721Y0060064D01*
X0135704Y0060187D01*
X0135682Y0060309D01*
X0135657Y0060430D01*
X0135628Y0060550D01*
X0135596Y0060669D01*
X0135559Y0060788D01*
X0135519Y0060905D01*
X0135476Y0061020D01*
X0135428Y0061135D01*
X0135377Y0061247D01*
X0135323Y0061358D01*
X0135265Y0061468D01*
X0135204Y0061575D01*
X0135139Y0061681D01*
X0135071Y0061784D01*
X0135000Y0061885D01*
X0134926Y0061984D01*
X0134849Y0062081D01*
X0134768Y0062175D01*
X0134685Y0062266D01*
X0134599Y0062355D01*
X0134510Y0062441D01*
X0134419Y0062524D01*
X0134325Y0062605D01*
X0134228Y0062682D01*
X0134129Y0062756D01*
X0134028Y0062827D01*
X0133925Y0062895D01*
X0133819Y0062960D01*
X0133712Y0063021D01*
X0133602Y0063079D01*
X0133491Y0063133D01*
X0133379Y0063184D01*
X0133264Y0063232D01*
X0133149Y0063275D01*
X0133032Y0063315D01*
X0132913Y0063352D01*
X0132794Y0063384D01*
X0132674Y0063413D01*
X0132553Y0063438D01*
X0132431Y0063460D01*
X0132308Y0063477D01*
X0132186Y0063491D01*
X0132062Y0063500D01*
X0131939Y0063506D01*
X0131815Y0063508D01*
X0108783Y0063508D01*
X0108659Y0063510D01*
X0108536Y0063516D01*
X0108412Y0063525D01*
X0108290Y0063539D01*
X0108167Y0063556D01*
X0108045Y0063578D01*
X0107924Y0063603D01*
X0107804Y0063632D01*
X0107685Y0063664D01*
X0107566Y0063701D01*
X0107449Y0063741D01*
X0107334Y0063784D01*
X0107219Y0063832D01*
X0107107Y0063883D01*
X0106996Y0063937D01*
X0106886Y0063995D01*
X0106779Y0064056D01*
X0106673Y0064121D01*
X0106570Y0064189D01*
X0106469Y0064260D01*
X0106370Y0064334D01*
X0106273Y0064411D01*
X0106179Y0064492D01*
X0106088Y0064575D01*
X0105999Y0064661D01*
X0105913Y0064750D01*
X0105830Y0064841D01*
X0105749Y0064935D01*
X0105672Y0065032D01*
X0105598Y0065131D01*
X0105527Y0065232D01*
X0105459Y0065335D01*
X0105394Y0065441D01*
X0105333Y0065548D01*
X0105275Y0065658D01*
X0105221Y0065769D01*
X0105170Y0065881D01*
X0105122Y0065996D01*
X0105079Y0066111D01*
X0105039Y0066228D01*
X0105002Y0066347D01*
X0104970Y0066466D01*
X0104941Y0066586D01*
X0104916Y0066707D01*
X0104894Y0066829D01*
X0104877Y0066952D01*
X0104863Y0067074D01*
X0104854Y0067198D01*
X0104848Y0067321D01*
X0104846Y0067445D01*
X0104846Y0071382D01*
X0104844Y0071506D01*
X0104838Y0071629D01*
X0104829Y0071753D01*
X0104815Y0071875D01*
X0104798Y0071998D01*
X0104776Y0072120D01*
X0104751Y0072241D01*
X0104722Y0072361D01*
X0104690Y0072480D01*
X0104653Y0072599D01*
X0104613Y0072716D01*
X0104570Y0072831D01*
X0104522Y0072946D01*
X0104471Y0073058D01*
X0104417Y0073169D01*
X0104359Y0073279D01*
X0104298Y0073386D01*
X0104233Y0073492D01*
X0104165Y0073595D01*
X0104094Y0073696D01*
X0104020Y0073795D01*
X0103943Y0073892D01*
X0103862Y0073986D01*
X0103779Y0074077D01*
X0103693Y0074166D01*
X0103604Y0074252D01*
X0103513Y0074335D01*
X0103419Y0074416D01*
X0103322Y0074493D01*
X0103223Y0074567D01*
X0103122Y0074638D01*
X0103019Y0074706D01*
X0102913Y0074771D01*
X0102806Y0074832D01*
X0102696Y0074890D01*
X0102585Y0074944D01*
X0102473Y0074995D01*
X0102358Y0075043D01*
X0102243Y0075086D01*
X0102126Y0075126D01*
X0102007Y0075163D01*
X0101888Y0075195D01*
X0101768Y0075224D01*
X0101647Y0075249D01*
X0101525Y0075271D01*
X0101402Y0075288D01*
X0101280Y0075302D01*
X0101156Y0075311D01*
X0101033Y0075317D01*
X0100909Y0075319D01*
X0053665Y0075319D01*
X0053541Y0075317D01*
X0053418Y0075311D01*
X0053294Y0075302D01*
X0053172Y0075288D01*
X0053049Y0075271D01*
X0052927Y0075249D01*
X0052806Y0075224D01*
X0052686Y0075195D01*
X0052567Y0075163D01*
X0052448Y0075126D01*
X0052331Y0075086D01*
X0052216Y0075043D01*
X0052101Y0074995D01*
X0051989Y0074944D01*
X0051878Y0074890D01*
X0051768Y0074832D01*
X0051661Y0074771D01*
X0051555Y0074706D01*
X0051452Y0074638D01*
X0051351Y0074567D01*
X0051252Y0074493D01*
X0051155Y0074416D01*
X0051061Y0074335D01*
X0050970Y0074252D01*
X0050881Y0074166D01*
X0050795Y0074077D01*
X0050712Y0073986D01*
X0050631Y0073892D01*
X0050554Y0073795D01*
X0050480Y0073696D01*
X0050409Y0073595D01*
X0050341Y0073492D01*
X0050276Y0073386D01*
X0050215Y0073279D01*
X0050157Y0073169D01*
X0050103Y0073058D01*
X0050052Y0072946D01*
X0050004Y0072831D01*
X0049961Y0072716D01*
X0049921Y0072599D01*
X0049884Y0072480D01*
X0049852Y0072361D01*
X0049823Y0072241D01*
X0049798Y0072120D01*
X0049776Y0071998D01*
X0049759Y0071875D01*
X0049745Y0071753D01*
X0049736Y0071629D01*
X0049730Y0071506D01*
X0049728Y0071382D01*
X0049728Y0067445D01*
X0049726Y0067321D01*
X0049720Y0067198D01*
X0049711Y0067074D01*
X0049697Y0066952D01*
X0049680Y0066829D01*
X0049658Y0066707D01*
X0049633Y0066586D01*
X0049604Y0066466D01*
X0049572Y0066347D01*
X0049535Y0066228D01*
X0049495Y0066111D01*
X0049452Y0065996D01*
X0049404Y0065881D01*
X0049353Y0065769D01*
X0049299Y0065658D01*
X0049241Y0065548D01*
X0049180Y0065441D01*
X0049115Y0065335D01*
X0049047Y0065232D01*
X0048976Y0065131D01*
X0048902Y0065032D01*
X0048825Y0064935D01*
X0048744Y0064841D01*
X0048661Y0064750D01*
X0048575Y0064661D01*
X0048486Y0064575D01*
X0048395Y0064492D01*
X0048301Y0064411D01*
X0048204Y0064334D01*
X0048105Y0064260D01*
X0048004Y0064189D01*
X0047901Y0064121D01*
X0047795Y0064056D01*
X0047688Y0063995D01*
X0047578Y0063937D01*
X0047467Y0063883D01*
X0047355Y0063832D01*
X0047240Y0063784D01*
X0047125Y0063741D01*
X0047008Y0063701D01*
X0046889Y0063664D01*
X0046770Y0063632D01*
X0046650Y0063603D01*
X0046529Y0063578D01*
X0046407Y0063556D01*
X0046284Y0063539D01*
X0046162Y0063525D01*
X0046038Y0063516D01*
X0045915Y0063510D01*
X0045791Y0063508D01*
X0022898Y0063508D01*
X0022774Y0063506D01*
X0022651Y0063500D01*
X0022527Y0063491D01*
X0022405Y0063477D01*
X0022282Y0063460D01*
X0022160Y0063438D01*
X0022039Y0063413D01*
X0021919Y0063384D01*
X0021800Y0063352D01*
X0021681Y0063315D01*
X0021564Y0063275D01*
X0021449Y0063232D01*
X0021334Y0063184D01*
X0021222Y0063133D01*
X0021111Y0063079D01*
X0021001Y0063021D01*
X0020894Y0062960D01*
X0020788Y0062895D01*
X0020685Y0062827D01*
X0020584Y0062756D01*
X0020485Y0062682D01*
X0020388Y0062605D01*
X0020294Y0062524D01*
X0020203Y0062441D01*
X0020114Y0062355D01*
X0020028Y0062266D01*
X0019945Y0062175D01*
X0019864Y0062081D01*
X0019787Y0061984D01*
X0019713Y0061885D01*
X0019642Y0061784D01*
X0019574Y0061681D01*
X0019509Y0061575D01*
X0019448Y0061468D01*
X0019390Y0061358D01*
X0019336Y0061247D01*
X0019285Y0061135D01*
X0019237Y0061020D01*
X0019194Y0060905D01*
X0019154Y0060788D01*
X0019117Y0060669D01*
X0019085Y0060550D01*
X0019056Y0060430D01*
X0019031Y0060309D01*
X0019009Y0060187D01*
X0018992Y0060064D01*
X0018978Y0059942D01*
X0018969Y0059818D01*
X0018963Y0059695D01*
X0018961Y0059571D01*
X0018961Y0035949D01*
X0018963Y0035825D01*
X0018969Y0035702D01*
X0018978Y0035578D01*
X0018992Y0035456D01*
X0019009Y0035333D01*
X0019031Y0035211D01*
X0019056Y0035090D01*
X0019085Y0034970D01*
X0019117Y0034851D01*
X0019154Y0034732D01*
X0019194Y0034615D01*
X0019237Y0034500D01*
X0019285Y0034385D01*
X0019336Y0034273D01*
X0019390Y0034162D01*
X0019448Y0034052D01*
X0019509Y0033945D01*
X0019574Y0033839D01*
X0019642Y0033736D01*
X0019713Y0033635D01*
X0019787Y0033536D01*
X0019864Y0033439D01*
X0019945Y0033345D01*
X0020028Y0033254D01*
X0020114Y0033165D01*
X0020203Y0033079D01*
X0020294Y0032996D01*
X0020388Y0032915D01*
X0020485Y0032838D01*
X0020584Y0032764D01*
X0020685Y0032693D01*
X0020788Y0032625D01*
X0020894Y0032560D01*
X0021001Y0032499D01*
X0021111Y0032441D01*
X0021222Y0032387D01*
X0021334Y0032336D01*
X0021449Y0032288D01*
X0021564Y0032245D01*
X0021681Y0032205D01*
X0021800Y0032168D01*
X0021919Y0032136D01*
X0022039Y0032107D01*
X0022160Y0032082D01*
X0022282Y0032060D01*
X0022405Y0032043D01*
X0022527Y0032029D01*
X0022651Y0032020D01*
X0022774Y0032014D01*
X0022898Y0032012D01*
X0045791Y0032012D01*
X0038784Y0037760D02*
X0038786Y0037853D01*
X0038792Y0037945D01*
X0038802Y0038037D01*
X0038816Y0038128D01*
X0038833Y0038219D01*
X0038855Y0038309D01*
X0038880Y0038398D01*
X0038909Y0038486D01*
X0038942Y0038572D01*
X0038979Y0038657D01*
X0039019Y0038741D01*
X0039063Y0038822D01*
X0039110Y0038902D01*
X0039160Y0038980D01*
X0039214Y0039055D01*
X0039271Y0039128D01*
X0039331Y0039198D01*
X0039394Y0039266D01*
X0039460Y0039331D01*
X0039528Y0039393D01*
X0039599Y0039453D01*
X0039673Y0039509D01*
X0039749Y0039562D01*
X0039827Y0039611D01*
X0039907Y0039658D01*
X0039989Y0039700D01*
X0040073Y0039740D01*
X0040158Y0039775D01*
X0040245Y0039807D01*
X0040333Y0039836D01*
X0040422Y0039860D01*
X0040512Y0039881D01*
X0040603Y0039897D01*
X0040695Y0039910D01*
X0040787Y0039919D01*
X0040880Y0039924D01*
X0040972Y0039925D01*
X0041065Y0039922D01*
X0041157Y0039915D01*
X0041249Y0039904D01*
X0041340Y0039889D01*
X0041431Y0039871D01*
X0041521Y0039848D01*
X0041609Y0039822D01*
X0041697Y0039792D01*
X0041783Y0039758D01*
X0041867Y0039721D01*
X0041950Y0039679D01*
X0042031Y0039635D01*
X0042111Y0039587D01*
X0042188Y0039536D01*
X0042262Y0039481D01*
X0042335Y0039423D01*
X0042405Y0039363D01*
X0042472Y0039299D01*
X0042536Y0039233D01*
X0042598Y0039163D01*
X0042656Y0039092D01*
X0042711Y0039018D01*
X0042763Y0038941D01*
X0042812Y0038862D01*
X0042858Y0038782D01*
X0042900Y0038699D01*
X0042938Y0038615D01*
X0042973Y0038529D01*
X0043004Y0038442D01*
X0043031Y0038354D01*
X0043054Y0038264D01*
X0043074Y0038174D01*
X0043090Y0038083D01*
X0043102Y0037991D01*
X0043110Y0037899D01*
X0043114Y0037806D01*
X0043114Y0037714D01*
X0043110Y0037621D01*
X0043102Y0037529D01*
X0043090Y0037437D01*
X0043074Y0037346D01*
X0043054Y0037256D01*
X0043031Y0037166D01*
X0043004Y0037078D01*
X0042973Y0036991D01*
X0042938Y0036905D01*
X0042900Y0036821D01*
X0042858Y0036738D01*
X0042812Y0036658D01*
X0042763Y0036579D01*
X0042711Y0036502D01*
X0042656Y0036428D01*
X0042598Y0036357D01*
X0042536Y0036287D01*
X0042472Y0036221D01*
X0042405Y0036157D01*
X0042335Y0036097D01*
X0042262Y0036039D01*
X0042188Y0035984D01*
X0042111Y0035933D01*
X0042032Y0035885D01*
X0041950Y0035841D01*
X0041867Y0035799D01*
X0041783Y0035762D01*
X0041697Y0035728D01*
X0041609Y0035698D01*
X0041521Y0035672D01*
X0041431Y0035649D01*
X0041340Y0035631D01*
X0041249Y0035616D01*
X0041157Y0035605D01*
X0041065Y0035598D01*
X0040972Y0035595D01*
X0040880Y0035596D01*
X0040787Y0035601D01*
X0040695Y0035610D01*
X0040603Y0035623D01*
X0040512Y0035639D01*
X0040422Y0035660D01*
X0040333Y0035684D01*
X0040245Y0035713D01*
X0040158Y0035745D01*
X0040073Y0035780D01*
X0039989Y0035820D01*
X0039907Y0035862D01*
X0039827Y0035909D01*
X0039749Y0035958D01*
X0039673Y0036011D01*
X0039599Y0036067D01*
X0039528Y0036127D01*
X0039460Y0036189D01*
X0039394Y0036254D01*
X0039331Y0036322D01*
X0039271Y0036392D01*
X0039214Y0036465D01*
X0039160Y0036540D01*
X0039110Y0036618D01*
X0039063Y0036698D01*
X0039019Y0036779D01*
X0038979Y0036863D01*
X0038942Y0036948D01*
X0038909Y0037034D01*
X0038880Y0037122D01*
X0038855Y0037211D01*
X0038833Y0037301D01*
X0038816Y0037392D01*
X0038802Y0037483D01*
X0038792Y0037575D01*
X0038786Y0037667D01*
X0038784Y0037760D01*
X0028784Y0037760D02*
X0028786Y0037853D01*
X0028792Y0037945D01*
X0028802Y0038037D01*
X0028816Y0038128D01*
X0028833Y0038219D01*
X0028855Y0038309D01*
X0028880Y0038398D01*
X0028909Y0038486D01*
X0028942Y0038572D01*
X0028979Y0038657D01*
X0029019Y0038741D01*
X0029063Y0038822D01*
X0029110Y0038902D01*
X0029160Y0038980D01*
X0029214Y0039055D01*
X0029271Y0039128D01*
X0029331Y0039198D01*
X0029394Y0039266D01*
X0029460Y0039331D01*
X0029528Y0039393D01*
X0029599Y0039453D01*
X0029673Y0039509D01*
X0029749Y0039562D01*
X0029827Y0039611D01*
X0029907Y0039658D01*
X0029989Y0039700D01*
X0030073Y0039740D01*
X0030158Y0039775D01*
X0030245Y0039807D01*
X0030333Y0039836D01*
X0030422Y0039860D01*
X0030512Y0039881D01*
X0030603Y0039897D01*
X0030695Y0039910D01*
X0030787Y0039919D01*
X0030880Y0039924D01*
X0030972Y0039925D01*
X0031065Y0039922D01*
X0031157Y0039915D01*
X0031249Y0039904D01*
X0031340Y0039889D01*
X0031431Y0039871D01*
X0031521Y0039848D01*
X0031609Y0039822D01*
X0031697Y0039792D01*
X0031783Y0039758D01*
X0031867Y0039721D01*
X0031950Y0039679D01*
X0032031Y0039635D01*
X0032111Y0039587D01*
X0032188Y0039536D01*
X0032262Y0039481D01*
X0032335Y0039423D01*
X0032405Y0039363D01*
X0032472Y0039299D01*
X0032536Y0039233D01*
X0032598Y0039163D01*
X0032656Y0039092D01*
X0032711Y0039018D01*
X0032763Y0038941D01*
X0032812Y0038862D01*
X0032858Y0038782D01*
X0032900Y0038699D01*
X0032938Y0038615D01*
X0032973Y0038529D01*
X0033004Y0038442D01*
X0033031Y0038354D01*
X0033054Y0038264D01*
X0033074Y0038174D01*
X0033090Y0038083D01*
X0033102Y0037991D01*
X0033110Y0037899D01*
X0033114Y0037806D01*
X0033114Y0037714D01*
X0033110Y0037621D01*
X0033102Y0037529D01*
X0033090Y0037437D01*
X0033074Y0037346D01*
X0033054Y0037256D01*
X0033031Y0037166D01*
X0033004Y0037078D01*
X0032973Y0036991D01*
X0032938Y0036905D01*
X0032900Y0036821D01*
X0032858Y0036738D01*
X0032812Y0036658D01*
X0032763Y0036579D01*
X0032711Y0036502D01*
X0032656Y0036428D01*
X0032598Y0036357D01*
X0032536Y0036287D01*
X0032472Y0036221D01*
X0032405Y0036157D01*
X0032335Y0036097D01*
X0032262Y0036039D01*
X0032188Y0035984D01*
X0032111Y0035933D01*
X0032032Y0035885D01*
X0031950Y0035841D01*
X0031867Y0035799D01*
X0031783Y0035762D01*
X0031697Y0035728D01*
X0031609Y0035698D01*
X0031521Y0035672D01*
X0031431Y0035649D01*
X0031340Y0035631D01*
X0031249Y0035616D01*
X0031157Y0035605D01*
X0031065Y0035598D01*
X0030972Y0035595D01*
X0030880Y0035596D01*
X0030787Y0035601D01*
X0030695Y0035610D01*
X0030603Y0035623D01*
X0030512Y0035639D01*
X0030422Y0035660D01*
X0030333Y0035684D01*
X0030245Y0035713D01*
X0030158Y0035745D01*
X0030073Y0035780D01*
X0029989Y0035820D01*
X0029907Y0035862D01*
X0029827Y0035909D01*
X0029749Y0035958D01*
X0029673Y0036011D01*
X0029599Y0036067D01*
X0029528Y0036127D01*
X0029460Y0036189D01*
X0029394Y0036254D01*
X0029331Y0036322D01*
X0029271Y0036392D01*
X0029214Y0036465D01*
X0029160Y0036540D01*
X0029110Y0036618D01*
X0029063Y0036698D01*
X0029019Y0036779D01*
X0028979Y0036863D01*
X0028942Y0036948D01*
X0028909Y0037034D01*
X0028880Y0037122D01*
X0028855Y0037211D01*
X0028833Y0037301D01*
X0028816Y0037392D01*
X0028802Y0037483D01*
X0028792Y0037575D01*
X0028786Y0037667D01*
X0028784Y0037760D01*
X0028784Y0047760D02*
X0028786Y0047853D01*
X0028792Y0047945D01*
X0028802Y0048037D01*
X0028816Y0048128D01*
X0028833Y0048219D01*
X0028855Y0048309D01*
X0028880Y0048398D01*
X0028909Y0048486D01*
X0028942Y0048572D01*
X0028979Y0048657D01*
X0029019Y0048741D01*
X0029063Y0048822D01*
X0029110Y0048902D01*
X0029160Y0048980D01*
X0029214Y0049055D01*
X0029271Y0049128D01*
X0029331Y0049198D01*
X0029394Y0049266D01*
X0029460Y0049331D01*
X0029528Y0049393D01*
X0029599Y0049453D01*
X0029673Y0049509D01*
X0029749Y0049562D01*
X0029827Y0049611D01*
X0029907Y0049658D01*
X0029989Y0049700D01*
X0030073Y0049740D01*
X0030158Y0049775D01*
X0030245Y0049807D01*
X0030333Y0049836D01*
X0030422Y0049860D01*
X0030512Y0049881D01*
X0030603Y0049897D01*
X0030695Y0049910D01*
X0030787Y0049919D01*
X0030880Y0049924D01*
X0030972Y0049925D01*
X0031065Y0049922D01*
X0031157Y0049915D01*
X0031249Y0049904D01*
X0031340Y0049889D01*
X0031431Y0049871D01*
X0031521Y0049848D01*
X0031609Y0049822D01*
X0031697Y0049792D01*
X0031783Y0049758D01*
X0031867Y0049721D01*
X0031950Y0049679D01*
X0032031Y0049635D01*
X0032111Y0049587D01*
X0032188Y0049536D01*
X0032262Y0049481D01*
X0032335Y0049423D01*
X0032405Y0049363D01*
X0032472Y0049299D01*
X0032536Y0049233D01*
X0032598Y0049163D01*
X0032656Y0049092D01*
X0032711Y0049018D01*
X0032763Y0048941D01*
X0032812Y0048862D01*
X0032858Y0048782D01*
X0032900Y0048699D01*
X0032938Y0048615D01*
X0032973Y0048529D01*
X0033004Y0048442D01*
X0033031Y0048354D01*
X0033054Y0048264D01*
X0033074Y0048174D01*
X0033090Y0048083D01*
X0033102Y0047991D01*
X0033110Y0047899D01*
X0033114Y0047806D01*
X0033114Y0047714D01*
X0033110Y0047621D01*
X0033102Y0047529D01*
X0033090Y0047437D01*
X0033074Y0047346D01*
X0033054Y0047256D01*
X0033031Y0047166D01*
X0033004Y0047078D01*
X0032973Y0046991D01*
X0032938Y0046905D01*
X0032900Y0046821D01*
X0032858Y0046738D01*
X0032812Y0046658D01*
X0032763Y0046579D01*
X0032711Y0046502D01*
X0032656Y0046428D01*
X0032598Y0046357D01*
X0032536Y0046287D01*
X0032472Y0046221D01*
X0032405Y0046157D01*
X0032335Y0046097D01*
X0032262Y0046039D01*
X0032188Y0045984D01*
X0032111Y0045933D01*
X0032032Y0045885D01*
X0031950Y0045841D01*
X0031867Y0045799D01*
X0031783Y0045762D01*
X0031697Y0045728D01*
X0031609Y0045698D01*
X0031521Y0045672D01*
X0031431Y0045649D01*
X0031340Y0045631D01*
X0031249Y0045616D01*
X0031157Y0045605D01*
X0031065Y0045598D01*
X0030972Y0045595D01*
X0030880Y0045596D01*
X0030787Y0045601D01*
X0030695Y0045610D01*
X0030603Y0045623D01*
X0030512Y0045639D01*
X0030422Y0045660D01*
X0030333Y0045684D01*
X0030245Y0045713D01*
X0030158Y0045745D01*
X0030073Y0045780D01*
X0029989Y0045820D01*
X0029907Y0045862D01*
X0029827Y0045909D01*
X0029749Y0045958D01*
X0029673Y0046011D01*
X0029599Y0046067D01*
X0029528Y0046127D01*
X0029460Y0046189D01*
X0029394Y0046254D01*
X0029331Y0046322D01*
X0029271Y0046392D01*
X0029214Y0046465D01*
X0029160Y0046540D01*
X0029110Y0046618D01*
X0029063Y0046698D01*
X0029019Y0046779D01*
X0028979Y0046863D01*
X0028942Y0046948D01*
X0028909Y0047034D01*
X0028880Y0047122D01*
X0028855Y0047211D01*
X0028833Y0047301D01*
X0028816Y0047392D01*
X0028802Y0047483D01*
X0028792Y0047575D01*
X0028786Y0047667D01*
X0028784Y0047760D01*
X0038784Y0047760D02*
X0038786Y0047853D01*
X0038792Y0047945D01*
X0038802Y0048037D01*
X0038816Y0048128D01*
X0038833Y0048219D01*
X0038855Y0048309D01*
X0038880Y0048398D01*
X0038909Y0048486D01*
X0038942Y0048572D01*
X0038979Y0048657D01*
X0039019Y0048741D01*
X0039063Y0048822D01*
X0039110Y0048902D01*
X0039160Y0048980D01*
X0039214Y0049055D01*
X0039271Y0049128D01*
X0039331Y0049198D01*
X0039394Y0049266D01*
X0039460Y0049331D01*
X0039528Y0049393D01*
X0039599Y0049453D01*
X0039673Y0049509D01*
X0039749Y0049562D01*
X0039827Y0049611D01*
X0039907Y0049658D01*
X0039989Y0049700D01*
X0040073Y0049740D01*
X0040158Y0049775D01*
X0040245Y0049807D01*
X0040333Y0049836D01*
X0040422Y0049860D01*
X0040512Y0049881D01*
X0040603Y0049897D01*
X0040695Y0049910D01*
X0040787Y0049919D01*
X0040880Y0049924D01*
X0040972Y0049925D01*
X0041065Y0049922D01*
X0041157Y0049915D01*
X0041249Y0049904D01*
X0041340Y0049889D01*
X0041431Y0049871D01*
X0041521Y0049848D01*
X0041609Y0049822D01*
X0041697Y0049792D01*
X0041783Y0049758D01*
X0041867Y0049721D01*
X0041950Y0049679D01*
X0042031Y0049635D01*
X0042111Y0049587D01*
X0042188Y0049536D01*
X0042262Y0049481D01*
X0042335Y0049423D01*
X0042405Y0049363D01*
X0042472Y0049299D01*
X0042536Y0049233D01*
X0042598Y0049163D01*
X0042656Y0049092D01*
X0042711Y0049018D01*
X0042763Y0048941D01*
X0042812Y0048862D01*
X0042858Y0048782D01*
X0042900Y0048699D01*
X0042938Y0048615D01*
X0042973Y0048529D01*
X0043004Y0048442D01*
X0043031Y0048354D01*
X0043054Y0048264D01*
X0043074Y0048174D01*
X0043090Y0048083D01*
X0043102Y0047991D01*
X0043110Y0047899D01*
X0043114Y0047806D01*
X0043114Y0047714D01*
X0043110Y0047621D01*
X0043102Y0047529D01*
X0043090Y0047437D01*
X0043074Y0047346D01*
X0043054Y0047256D01*
X0043031Y0047166D01*
X0043004Y0047078D01*
X0042973Y0046991D01*
X0042938Y0046905D01*
X0042900Y0046821D01*
X0042858Y0046738D01*
X0042812Y0046658D01*
X0042763Y0046579D01*
X0042711Y0046502D01*
X0042656Y0046428D01*
X0042598Y0046357D01*
X0042536Y0046287D01*
X0042472Y0046221D01*
X0042405Y0046157D01*
X0042335Y0046097D01*
X0042262Y0046039D01*
X0042188Y0045984D01*
X0042111Y0045933D01*
X0042032Y0045885D01*
X0041950Y0045841D01*
X0041867Y0045799D01*
X0041783Y0045762D01*
X0041697Y0045728D01*
X0041609Y0045698D01*
X0041521Y0045672D01*
X0041431Y0045649D01*
X0041340Y0045631D01*
X0041249Y0045616D01*
X0041157Y0045605D01*
X0041065Y0045598D01*
X0040972Y0045595D01*
X0040880Y0045596D01*
X0040787Y0045601D01*
X0040695Y0045610D01*
X0040603Y0045623D01*
X0040512Y0045639D01*
X0040422Y0045660D01*
X0040333Y0045684D01*
X0040245Y0045713D01*
X0040158Y0045745D01*
X0040073Y0045780D01*
X0039989Y0045820D01*
X0039907Y0045862D01*
X0039827Y0045909D01*
X0039749Y0045958D01*
X0039673Y0046011D01*
X0039599Y0046067D01*
X0039528Y0046127D01*
X0039460Y0046189D01*
X0039394Y0046254D01*
X0039331Y0046322D01*
X0039271Y0046392D01*
X0039214Y0046465D01*
X0039160Y0046540D01*
X0039110Y0046618D01*
X0039063Y0046698D01*
X0039019Y0046779D01*
X0038979Y0046863D01*
X0038942Y0046948D01*
X0038909Y0047034D01*
X0038880Y0047122D01*
X0038855Y0047211D01*
X0038833Y0047301D01*
X0038816Y0047392D01*
X0038802Y0047483D01*
X0038792Y0047575D01*
X0038786Y0047667D01*
X0038784Y0047760D01*
X0038784Y0057760D02*
X0038786Y0057853D01*
X0038792Y0057945D01*
X0038802Y0058037D01*
X0038816Y0058128D01*
X0038833Y0058219D01*
X0038855Y0058309D01*
X0038880Y0058398D01*
X0038909Y0058486D01*
X0038942Y0058572D01*
X0038979Y0058657D01*
X0039019Y0058741D01*
X0039063Y0058822D01*
X0039110Y0058902D01*
X0039160Y0058980D01*
X0039214Y0059055D01*
X0039271Y0059128D01*
X0039331Y0059198D01*
X0039394Y0059266D01*
X0039460Y0059331D01*
X0039528Y0059393D01*
X0039599Y0059453D01*
X0039673Y0059509D01*
X0039749Y0059562D01*
X0039827Y0059611D01*
X0039907Y0059658D01*
X0039989Y0059700D01*
X0040073Y0059740D01*
X0040158Y0059775D01*
X0040245Y0059807D01*
X0040333Y0059836D01*
X0040422Y0059860D01*
X0040512Y0059881D01*
X0040603Y0059897D01*
X0040695Y0059910D01*
X0040787Y0059919D01*
X0040880Y0059924D01*
X0040972Y0059925D01*
X0041065Y0059922D01*
X0041157Y0059915D01*
X0041249Y0059904D01*
X0041340Y0059889D01*
X0041431Y0059871D01*
X0041521Y0059848D01*
X0041609Y0059822D01*
X0041697Y0059792D01*
X0041783Y0059758D01*
X0041867Y0059721D01*
X0041950Y0059679D01*
X0042031Y0059635D01*
X0042111Y0059587D01*
X0042188Y0059536D01*
X0042262Y0059481D01*
X0042335Y0059423D01*
X0042405Y0059363D01*
X0042472Y0059299D01*
X0042536Y0059233D01*
X0042598Y0059163D01*
X0042656Y0059092D01*
X0042711Y0059018D01*
X0042763Y0058941D01*
X0042812Y0058862D01*
X0042858Y0058782D01*
X0042900Y0058699D01*
X0042938Y0058615D01*
X0042973Y0058529D01*
X0043004Y0058442D01*
X0043031Y0058354D01*
X0043054Y0058264D01*
X0043074Y0058174D01*
X0043090Y0058083D01*
X0043102Y0057991D01*
X0043110Y0057899D01*
X0043114Y0057806D01*
X0043114Y0057714D01*
X0043110Y0057621D01*
X0043102Y0057529D01*
X0043090Y0057437D01*
X0043074Y0057346D01*
X0043054Y0057256D01*
X0043031Y0057166D01*
X0043004Y0057078D01*
X0042973Y0056991D01*
X0042938Y0056905D01*
X0042900Y0056821D01*
X0042858Y0056738D01*
X0042812Y0056658D01*
X0042763Y0056579D01*
X0042711Y0056502D01*
X0042656Y0056428D01*
X0042598Y0056357D01*
X0042536Y0056287D01*
X0042472Y0056221D01*
X0042405Y0056157D01*
X0042335Y0056097D01*
X0042262Y0056039D01*
X0042188Y0055984D01*
X0042111Y0055933D01*
X0042032Y0055885D01*
X0041950Y0055841D01*
X0041867Y0055799D01*
X0041783Y0055762D01*
X0041697Y0055728D01*
X0041609Y0055698D01*
X0041521Y0055672D01*
X0041431Y0055649D01*
X0041340Y0055631D01*
X0041249Y0055616D01*
X0041157Y0055605D01*
X0041065Y0055598D01*
X0040972Y0055595D01*
X0040880Y0055596D01*
X0040787Y0055601D01*
X0040695Y0055610D01*
X0040603Y0055623D01*
X0040512Y0055639D01*
X0040422Y0055660D01*
X0040333Y0055684D01*
X0040245Y0055713D01*
X0040158Y0055745D01*
X0040073Y0055780D01*
X0039989Y0055820D01*
X0039907Y0055862D01*
X0039827Y0055909D01*
X0039749Y0055958D01*
X0039673Y0056011D01*
X0039599Y0056067D01*
X0039528Y0056127D01*
X0039460Y0056189D01*
X0039394Y0056254D01*
X0039331Y0056322D01*
X0039271Y0056392D01*
X0039214Y0056465D01*
X0039160Y0056540D01*
X0039110Y0056618D01*
X0039063Y0056698D01*
X0039019Y0056779D01*
X0038979Y0056863D01*
X0038942Y0056948D01*
X0038909Y0057034D01*
X0038880Y0057122D01*
X0038855Y0057211D01*
X0038833Y0057301D01*
X0038816Y0057392D01*
X0038802Y0057483D01*
X0038792Y0057575D01*
X0038786Y0057667D01*
X0038784Y0057760D01*
X0028784Y0057760D02*
X0028786Y0057853D01*
X0028792Y0057945D01*
X0028802Y0058037D01*
X0028816Y0058128D01*
X0028833Y0058219D01*
X0028855Y0058309D01*
X0028880Y0058398D01*
X0028909Y0058486D01*
X0028942Y0058572D01*
X0028979Y0058657D01*
X0029019Y0058741D01*
X0029063Y0058822D01*
X0029110Y0058902D01*
X0029160Y0058980D01*
X0029214Y0059055D01*
X0029271Y0059128D01*
X0029331Y0059198D01*
X0029394Y0059266D01*
X0029460Y0059331D01*
X0029528Y0059393D01*
X0029599Y0059453D01*
X0029673Y0059509D01*
X0029749Y0059562D01*
X0029827Y0059611D01*
X0029907Y0059658D01*
X0029989Y0059700D01*
X0030073Y0059740D01*
X0030158Y0059775D01*
X0030245Y0059807D01*
X0030333Y0059836D01*
X0030422Y0059860D01*
X0030512Y0059881D01*
X0030603Y0059897D01*
X0030695Y0059910D01*
X0030787Y0059919D01*
X0030880Y0059924D01*
X0030972Y0059925D01*
X0031065Y0059922D01*
X0031157Y0059915D01*
X0031249Y0059904D01*
X0031340Y0059889D01*
X0031431Y0059871D01*
X0031521Y0059848D01*
X0031609Y0059822D01*
X0031697Y0059792D01*
X0031783Y0059758D01*
X0031867Y0059721D01*
X0031950Y0059679D01*
X0032031Y0059635D01*
X0032111Y0059587D01*
X0032188Y0059536D01*
X0032262Y0059481D01*
X0032335Y0059423D01*
X0032405Y0059363D01*
X0032472Y0059299D01*
X0032536Y0059233D01*
X0032598Y0059163D01*
X0032656Y0059092D01*
X0032711Y0059018D01*
X0032763Y0058941D01*
X0032812Y0058862D01*
X0032858Y0058782D01*
X0032900Y0058699D01*
X0032938Y0058615D01*
X0032973Y0058529D01*
X0033004Y0058442D01*
X0033031Y0058354D01*
X0033054Y0058264D01*
X0033074Y0058174D01*
X0033090Y0058083D01*
X0033102Y0057991D01*
X0033110Y0057899D01*
X0033114Y0057806D01*
X0033114Y0057714D01*
X0033110Y0057621D01*
X0033102Y0057529D01*
X0033090Y0057437D01*
X0033074Y0057346D01*
X0033054Y0057256D01*
X0033031Y0057166D01*
X0033004Y0057078D01*
X0032973Y0056991D01*
X0032938Y0056905D01*
X0032900Y0056821D01*
X0032858Y0056738D01*
X0032812Y0056658D01*
X0032763Y0056579D01*
X0032711Y0056502D01*
X0032656Y0056428D01*
X0032598Y0056357D01*
X0032536Y0056287D01*
X0032472Y0056221D01*
X0032405Y0056157D01*
X0032335Y0056097D01*
X0032262Y0056039D01*
X0032188Y0055984D01*
X0032111Y0055933D01*
X0032032Y0055885D01*
X0031950Y0055841D01*
X0031867Y0055799D01*
X0031783Y0055762D01*
X0031697Y0055728D01*
X0031609Y0055698D01*
X0031521Y0055672D01*
X0031431Y0055649D01*
X0031340Y0055631D01*
X0031249Y0055616D01*
X0031157Y0055605D01*
X0031065Y0055598D01*
X0030972Y0055595D01*
X0030880Y0055596D01*
X0030787Y0055601D01*
X0030695Y0055610D01*
X0030603Y0055623D01*
X0030512Y0055639D01*
X0030422Y0055660D01*
X0030333Y0055684D01*
X0030245Y0055713D01*
X0030158Y0055745D01*
X0030073Y0055780D01*
X0029989Y0055820D01*
X0029907Y0055862D01*
X0029827Y0055909D01*
X0029749Y0055958D01*
X0029673Y0056011D01*
X0029599Y0056067D01*
X0029528Y0056127D01*
X0029460Y0056189D01*
X0029394Y0056254D01*
X0029331Y0056322D01*
X0029271Y0056392D01*
X0029214Y0056465D01*
X0029160Y0056540D01*
X0029110Y0056618D01*
X0029063Y0056698D01*
X0029019Y0056779D01*
X0028979Y0056863D01*
X0028942Y0056948D01*
X0028909Y0057034D01*
X0028880Y0057122D01*
X0028855Y0057211D01*
X0028833Y0057301D01*
X0028816Y0057392D01*
X0028802Y0057483D01*
X0028792Y0057575D01*
X0028786Y0057667D01*
X0028784Y0057760D01*
X0111461Y0057760D02*
X0111463Y0057853D01*
X0111469Y0057945D01*
X0111479Y0058037D01*
X0111493Y0058128D01*
X0111510Y0058219D01*
X0111532Y0058309D01*
X0111557Y0058398D01*
X0111586Y0058486D01*
X0111619Y0058572D01*
X0111656Y0058657D01*
X0111696Y0058741D01*
X0111740Y0058822D01*
X0111787Y0058902D01*
X0111837Y0058980D01*
X0111891Y0059055D01*
X0111948Y0059128D01*
X0112008Y0059198D01*
X0112071Y0059266D01*
X0112137Y0059331D01*
X0112205Y0059393D01*
X0112276Y0059453D01*
X0112350Y0059509D01*
X0112426Y0059562D01*
X0112504Y0059611D01*
X0112584Y0059658D01*
X0112666Y0059700D01*
X0112750Y0059740D01*
X0112835Y0059775D01*
X0112922Y0059807D01*
X0113010Y0059836D01*
X0113099Y0059860D01*
X0113189Y0059881D01*
X0113280Y0059897D01*
X0113372Y0059910D01*
X0113464Y0059919D01*
X0113557Y0059924D01*
X0113649Y0059925D01*
X0113742Y0059922D01*
X0113834Y0059915D01*
X0113926Y0059904D01*
X0114017Y0059889D01*
X0114108Y0059871D01*
X0114198Y0059848D01*
X0114286Y0059822D01*
X0114374Y0059792D01*
X0114460Y0059758D01*
X0114544Y0059721D01*
X0114627Y0059679D01*
X0114708Y0059635D01*
X0114788Y0059587D01*
X0114865Y0059536D01*
X0114939Y0059481D01*
X0115012Y0059423D01*
X0115082Y0059363D01*
X0115149Y0059299D01*
X0115213Y0059233D01*
X0115275Y0059163D01*
X0115333Y0059092D01*
X0115388Y0059018D01*
X0115440Y0058941D01*
X0115489Y0058862D01*
X0115535Y0058782D01*
X0115577Y0058699D01*
X0115615Y0058615D01*
X0115650Y0058529D01*
X0115681Y0058442D01*
X0115708Y0058354D01*
X0115731Y0058264D01*
X0115751Y0058174D01*
X0115767Y0058083D01*
X0115779Y0057991D01*
X0115787Y0057899D01*
X0115791Y0057806D01*
X0115791Y0057714D01*
X0115787Y0057621D01*
X0115779Y0057529D01*
X0115767Y0057437D01*
X0115751Y0057346D01*
X0115731Y0057256D01*
X0115708Y0057166D01*
X0115681Y0057078D01*
X0115650Y0056991D01*
X0115615Y0056905D01*
X0115577Y0056821D01*
X0115535Y0056738D01*
X0115489Y0056658D01*
X0115440Y0056579D01*
X0115388Y0056502D01*
X0115333Y0056428D01*
X0115275Y0056357D01*
X0115213Y0056287D01*
X0115149Y0056221D01*
X0115082Y0056157D01*
X0115012Y0056097D01*
X0114939Y0056039D01*
X0114865Y0055984D01*
X0114788Y0055933D01*
X0114709Y0055885D01*
X0114627Y0055841D01*
X0114544Y0055799D01*
X0114460Y0055762D01*
X0114374Y0055728D01*
X0114286Y0055698D01*
X0114198Y0055672D01*
X0114108Y0055649D01*
X0114017Y0055631D01*
X0113926Y0055616D01*
X0113834Y0055605D01*
X0113742Y0055598D01*
X0113649Y0055595D01*
X0113557Y0055596D01*
X0113464Y0055601D01*
X0113372Y0055610D01*
X0113280Y0055623D01*
X0113189Y0055639D01*
X0113099Y0055660D01*
X0113010Y0055684D01*
X0112922Y0055713D01*
X0112835Y0055745D01*
X0112750Y0055780D01*
X0112666Y0055820D01*
X0112584Y0055862D01*
X0112504Y0055909D01*
X0112426Y0055958D01*
X0112350Y0056011D01*
X0112276Y0056067D01*
X0112205Y0056127D01*
X0112137Y0056189D01*
X0112071Y0056254D01*
X0112008Y0056322D01*
X0111948Y0056392D01*
X0111891Y0056465D01*
X0111837Y0056540D01*
X0111787Y0056618D01*
X0111740Y0056698D01*
X0111696Y0056779D01*
X0111656Y0056863D01*
X0111619Y0056948D01*
X0111586Y0057034D01*
X0111557Y0057122D01*
X0111532Y0057211D01*
X0111510Y0057301D01*
X0111493Y0057392D01*
X0111479Y0057483D01*
X0111469Y0057575D01*
X0111463Y0057667D01*
X0111461Y0057760D01*
X0121461Y0057760D02*
X0121463Y0057853D01*
X0121469Y0057945D01*
X0121479Y0058037D01*
X0121493Y0058128D01*
X0121510Y0058219D01*
X0121532Y0058309D01*
X0121557Y0058398D01*
X0121586Y0058486D01*
X0121619Y0058572D01*
X0121656Y0058657D01*
X0121696Y0058741D01*
X0121740Y0058822D01*
X0121787Y0058902D01*
X0121837Y0058980D01*
X0121891Y0059055D01*
X0121948Y0059128D01*
X0122008Y0059198D01*
X0122071Y0059266D01*
X0122137Y0059331D01*
X0122205Y0059393D01*
X0122276Y0059453D01*
X0122350Y0059509D01*
X0122426Y0059562D01*
X0122504Y0059611D01*
X0122584Y0059658D01*
X0122666Y0059700D01*
X0122750Y0059740D01*
X0122835Y0059775D01*
X0122922Y0059807D01*
X0123010Y0059836D01*
X0123099Y0059860D01*
X0123189Y0059881D01*
X0123280Y0059897D01*
X0123372Y0059910D01*
X0123464Y0059919D01*
X0123557Y0059924D01*
X0123649Y0059925D01*
X0123742Y0059922D01*
X0123834Y0059915D01*
X0123926Y0059904D01*
X0124017Y0059889D01*
X0124108Y0059871D01*
X0124198Y0059848D01*
X0124286Y0059822D01*
X0124374Y0059792D01*
X0124460Y0059758D01*
X0124544Y0059721D01*
X0124627Y0059679D01*
X0124708Y0059635D01*
X0124788Y0059587D01*
X0124865Y0059536D01*
X0124939Y0059481D01*
X0125012Y0059423D01*
X0125082Y0059363D01*
X0125149Y0059299D01*
X0125213Y0059233D01*
X0125275Y0059163D01*
X0125333Y0059092D01*
X0125388Y0059018D01*
X0125440Y0058941D01*
X0125489Y0058862D01*
X0125535Y0058782D01*
X0125577Y0058699D01*
X0125615Y0058615D01*
X0125650Y0058529D01*
X0125681Y0058442D01*
X0125708Y0058354D01*
X0125731Y0058264D01*
X0125751Y0058174D01*
X0125767Y0058083D01*
X0125779Y0057991D01*
X0125787Y0057899D01*
X0125791Y0057806D01*
X0125791Y0057714D01*
X0125787Y0057621D01*
X0125779Y0057529D01*
X0125767Y0057437D01*
X0125751Y0057346D01*
X0125731Y0057256D01*
X0125708Y0057166D01*
X0125681Y0057078D01*
X0125650Y0056991D01*
X0125615Y0056905D01*
X0125577Y0056821D01*
X0125535Y0056738D01*
X0125489Y0056658D01*
X0125440Y0056579D01*
X0125388Y0056502D01*
X0125333Y0056428D01*
X0125275Y0056357D01*
X0125213Y0056287D01*
X0125149Y0056221D01*
X0125082Y0056157D01*
X0125012Y0056097D01*
X0124939Y0056039D01*
X0124865Y0055984D01*
X0124788Y0055933D01*
X0124709Y0055885D01*
X0124627Y0055841D01*
X0124544Y0055799D01*
X0124460Y0055762D01*
X0124374Y0055728D01*
X0124286Y0055698D01*
X0124198Y0055672D01*
X0124108Y0055649D01*
X0124017Y0055631D01*
X0123926Y0055616D01*
X0123834Y0055605D01*
X0123742Y0055598D01*
X0123649Y0055595D01*
X0123557Y0055596D01*
X0123464Y0055601D01*
X0123372Y0055610D01*
X0123280Y0055623D01*
X0123189Y0055639D01*
X0123099Y0055660D01*
X0123010Y0055684D01*
X0122922Y0055713D01*
X0122835Y0055745D01*
X0122750Y0055780D01*
X0122666Y0055820D01*
X0122584Y0055862D01*
X0122504Y0055909D01*
X0122426Y0055958D01*
X0122350Y0056011D01*
X0122276Y0056067D01*
X0122205Y0056127D01*
X0122137Y0056189D01*
X0122071Y0056254D01*
X0122008Y0056322D01*
X0121948Y0056392D01*
X0121891Y0056465D01*
X0121837Y0056540D01*
X0121787Y0056618D01*
X0121740Y0056698D01*
X0121696Y0056779D01*
X0121656Y0056863D01*
X0121619Y0056948D01*
X0121586Y0057034D01*
X0121557Y0057122D01*
X0121532Y0057211D01*
X0121510Y0057301D01*
X0121493Y0057392D01*
X0121479Y0057483D01*
X0121469Y0057575D01*
X0121463Y0057667D01*
X0121461Y0057760D01*
X0121461Y0047760D02*
X0121463Y0047853D01*
X0121469Y0047945D01*
X0121479Y0048037D01*
X0121493Y0048128D01*
X0121510Y0048219D01*
X0121532Y0048309D01*
X0121557Y0048398D01*
X0121586Y0048486D01*
X0121619Y0048572D01*
X0121656Y0048657D01*
X0121696Y0048741D01*
X0121740Y0048822D01*
X0121787Y0048902D01*
X0121837Y0048980D01*
X0121891Y0049055D01*
X0121948Y0049128D01*
X0122008Y0049198D01*
X0122071Y0049266D01*
X0122137Y0049331D01*
X0122205Y0049393D01*
X0122276Y0049453D01*
X0122350Y0049509D01*
X0122426Y0049562D01*
X0122504Y0049611D01*
X0122584Y0049658D01*
X0122666Y0049700D01*
X0122750Y0049740D01*
X0122835Y0049775D01*
X0122922Y0049807D01*
X0123010Y0049836D01*
X0123099Y0049860D01*
X0123189Y0049881D01*
X0123280Y0049897D01*
X0123372Y0049910D01*
X0123464Y0049919D01*
X0123557Y0049924D01*
X0123649Y0049925D01*
X0123742Y0049922D01*
X0123834Y0049915D01*
X0123926Y0049904D01*
X0124017Y0049889D01*
X0124108Y0049871D01*
X0124198Y0049848D01*
X0124286Y0049822D01*
X0124374Y0049792D01*
X0124460Y0049758D01*
X0124544Y0049721D01*
X0124627Y0049679D01*
X0124708Y0049635D01*
X0124788Y0049587D01*
X0124865Y0049536D01*
X0124939Y0049481D01*
X0125012Y0049423D01*
X0125082Y0049363D01*
X0125149Y0049299D01*
X0125213Y0049233D01*
X0125275Y0049163D01*
X0125333Y0049092D01*
X0125388Y0049018D01*
X0125440Y0048941D01*
X0125489Y0048862D01*
X0125535Y0048782D01*
X0125577Y0048699D01*
X0125615Y0048615D01*
X0125650Y0048529D01*
X0125681Y0048442D01*
X0125708Y0048354D01*
X0125731Y0048264D01*
X0125751Y0048174D01*
X0125767Y0048083D01*
X0125779Y0047991D01*
X0125787Y0047899D01*
X0125791Y0047806D01*
X0125791Y0047714D01*
X0125787Y0047621D01*
X0125779Y0047529D01*
X0125767Y0047437D01*
X0125751Y0047346D01*
X0125731Y0047256D01*
X0125708Y0047166D01*
X0125681Y0047078D01*
X0125650Y0046991D01*
X0125615Y0046905D01*
X0125577Y0046821D01*
X0125535Y0046738D01*
X0125489Y0046658D01*
X0125440Y0046579D01*
X0125388Y0046502D01*
X0125333Y0046428D01*
X0125275Y0046357D01*
X0125213Y0046287D01*
X0125149Y0046221D01*
X0125082Y0046157D01*
X0125012Y0046097D01*
X0124939Y0046039D01*
X0124865Y0045984D01*
X0124788Y0045933D01*
X0124709Y0045885D01*
X0124627Y0045841D01*
X0124544Y0045799D01*
X0124460Y0045762D01*
X0124374Y0045728D01*
X0124286Y0045698D01*
X0124198Y0045672D01*
X0124108Y0045649D01*
X0124017Y0045631D01*
X0123926Y0045616D01*
X0123834Y0045605D01*
X0123742Y0045598D01*
X0123649Y0045595D01*
X0123557Y0045596D01*
X0123464Y0045601D01*
X0123372Y0045610D01*
X0123280Y0045623D01*
X0123189Y0045639D01*
X0123099Y0045660D01*
X0123010Y0045684D01*
X0122922Y0045713D01*
X0122835Y0045745D01*
X0122750Y0045780D01*
X0122666Y0045820D01*
X0122584Y0045862D01*
X0122504Y0045909D01*
X0122426Y0045958D01*
X0122350Y0046011D01*
X0122276Y0046067D01*
X0122205Y0046127D01*
X0122137Y0046189D01*
X0122071Y0046254D01*
X0122008Y0046322D01*
X0121948Y0046392D01*
X0121891Y0046465D01*
X0121837Y0046540D01*
X0121787Y0046618D01*
X0121740Y0046698D01*
X0121696Y0046779D01*
X0121656Y0046863D01*
X0121619Y0046948D01*
X0121586Y0047034D01*
X0121557Y0047122D01*
X0121532Y0047211D01*
X0121510Y0047301D01*
X0121493Y0047392D01*
X0121479Y0047483D01*
X0121469Y0047575D01*
X0121463Y0047667D01*
X0121461Y0047760D01*
X0111461Y0047760D02*
X0111463Y0047853D01*
X0111469Y0047945D01*
X0111479Y0048037D01*
X0111493Y0048128D01*
X0111510Y0048219D01*
X0111532Y0048309D01*
X0111557Y0048398D01*
X0111586Y0048486D01*
X0111619Y0048572D01*
X0111656Y0048657D01*
X0111696Y0048741D01*
X0111740Y0048822D01*
X0111787Y0048902D01*
X0111837Y0048980D01*
X0111891Y0049055D01*
X0111948Y0049128D01*
X0112008Y0049198D01*
X0112071Y0049266D01*
X0112137Y0049331D01*
X0112205Y0049393D01*
X0112276Y0049453D01*
X0112350Y0049509D01*
X0112426Y0049562D01*
X0112504Y0049611D01*
X0112584Y0049658D01*
X0112666Y0049700D01*
X0112750Y0049740D01*
X0112835Y0049775D01*
X0112922Y0049807D01*
X0113010Y0049836D01*
X0113099Y0049860D01*
X0113189Y0049881D01*
X0113280Y0049897D01*
X0113372Y0049910D01*
X0113464Y0049919D01*
X0113557Y0049924D01*
X0113649Y0049925D01*
X0113742Y0049922D01*
X0113834Y0049915D01*
X0113926Y0049904D01*
X0114017Y0049889D01*
X0114108Y0049871D01*
X0114198Y0049848D01*
X0114286Y0049822D01*
X0114374Y0049792D01*
X0114460Y0049758D01*
X0114544Y0049721D01*
X0114627Y0049679D01*
X0114708Y0049635D01*
X0114788Y0049587D01*
X0114865Y0049536D01*
X0114939Y0049481D01*
X0115012Y0049423D01*
X0115082Y0049363D01*
X0115149Y0049299D01*
X0115213Y0049233D01*
X0115275Y0049163D01*
X0115333Y0049092D01*
X0115388Y0049018D01*
X0115440Y0048941D01*
X0115489Y0048862D01*
X0115535Y0048782D01*
X0115577Y0048699D01*
X0115615Y0048615D01*
X0115650Y0048529D01*
X0115681Y0048442D01*
X0115708Y0048354D01*
X0115731Y0048264D01*
X0115751Y0048174D01*
X0115767Y0048083D01*
X0115779Y0047991D01*
X0115787Y0047899D01*
X0115791Y0047806D01*
X0115791Y0047714D01*
X0115787Y0047621D01*
X0115779Y0047529D01*
X0115767Y0047437D01*
X0115751Y0047346D01*
X0115731Y0047256D01*
X0115708Y0047166D01*
X0115681Y0047078D01*
X0115650Y0046991D01*
X0115615Y0046905D01*
X0115577Y0046821D01*
X0115535Y0046738D01*
X0115489Y0046658D01*
X0115440Y0046579D01*
X0115388Y0046502D01*
X0115333Y0046428D01*
X0115275Y0046357D01*
X0115213Y0046287D01*
X0115149Y0046221D01*
X0115082Y0046157D01*
X0115012Y0046097D01*
X0114939Y0046039D01*
X0114865Y0045984D01*
X0114788Y0045933D01*
X0114709Y0045885D01*
X0114627Y0045841D01*
X0114544Y0045799D01*
X0114460Y0045762D01*
X0114374Y0045728D01*
X0114286Y0045698D01*
X0114198Y0045672D01*
X0114108Y0045649D01*
X0114017Y0045631D01*
X0113926Y0045616D01*
X0113834Y0045605D01*
X0113742Y0045598D01*
X0113649Y0045595D01*
X0113557Y0045596D01*
X0113464Y0045601D01*
X0113372Y0045610D01*
X0113280Y0045623D01*
X0113189Y0045639D01*
X0113099Y0045660D01*
X0113010Y0045684D01*
X0112922Y0045713D01*
X0112835Y0045745D01*
X0112750Y0045780D01*
X0112666Y0045820D01*
X0112584Y0045862D01*
X0112504Y0045909D01*
X0112426Y0045958D01*
X0112350Y0046011D01*
X0112276Y0046067D01*
X0112205Y0046127D01*
X0112137Y0046189D01*
X0112071Y0046254D01*
X0112008Y0046322D01*
X0111948Y0046392D01*
X0111891Y0046465D01*
X0111837Y0046540D01*
X0111787Y0046618D01*
X0111740Y0046698D01*
X0111696Y0046779D01*
X0111656Y0046863D01*
X0111619Y0046948D01*
X0111586Y0047034D01*
X0111557Y0047122D01*
X0111532Y0047211D01*
X0111510Y0047301D01*
X0111493Y0047392D01*
X0111479Y0047483D01*
X0111469Y0047575D01*
X0111463Y0047667D01*
X0111461Y0047760D01*
X0111461Y0037760D02*
X0111463Y0037853D01*
X0111469Y0037945D01*
X0111479Y0038037D01*
X0111493Y0038128D01*
X0111510Y0038219D01*
X0111532Y0038309D01*
X0111557Y0038398D01*
X0111586Y0038486D01*
X0111619Y0038572D01*
X0111656Y0038657D01*
X0111696Y0038741D01*
X0111740Y0038822D01*
X0111787Y0038902D01*
X0111837Y0038980D01*
X0111891Y0039055D01*
X0111948Y0039128D01*
X0112008Y0039198D01*
X0112071Y0039266D01*
X0112137Y0039331D01*
X0112205Y0039393D01*
X0112276Y0039453D01*
X0112350Y0039509D01*
X0112426Y0039562D01*
X0112504Y0039611D01*
X0112584Y0039658D01*
X0112666Y0039700D01*
X0112750Y0039740D01*
X0112835Y0039775D01*
X0112922Y0039807D01*
X0113010Y0039836D01*
X0113099Y0039860D01*
X0113189Y0039881D01*
X0113280Y0039897D01*
X0113372Y0039910D01*
X0113464Y0039919D01*
X0113557Y0039924D01*
X0113649Y0039925D01*
X0113742Y0039922D01*
X0113834Y0039915D01*
X0113926Y0039904D01*
X0114017Y0039889D01*
X0114108Y0039871D01*
X0114198Y0039848D01*
X0114286Y0039822D01*
X0114374Y0039792D01*
X0114460Y0039758D01*
X0114544Y0039721D01*
X0114627Y0039679D01*
X0114708Y0039635D01*
X0114788Y0039587D01*
X0114865Y0039536D01*
X0114939Y0039481D01*
X0115012Y0039423D01*
X0115082Y0039363D01*
X0115149Y0039299D01*
X0115213Y0039233D01*
X0115275Y0039163D01*
X0115333Y0039092D01*
X0115388Y0039018D01*
X0115440Y0038941D01*
X0115489Y0038862D01*
X0115535Y0038782D01*
X0115577Y0038699D01*
X0115615Y0038615D01*
X0115650Y0038529D01*
X0115681Y0038442D01*
X0115708Y0038354D01*
X0115731Y0038264D01*
X0115751Y0038174D01*
X0115767Y0038083D01*
X0115779Y0037991D01*
X0115787Y0037899D01*
X0115791Y0037806D01*
X0115791Y0037714D01*
X0115787Y0037621D01*
X0115779Y0037529D01*
X0115767Y0037437D01*
X0115751Y0037346D01*
X0115731Y0037256D01*
X0115708Y0037166D01*
X0115681Y0037078D01*
X0115650Y0036991D01*
X0115615Y0036905D01*
X0115577Y0036821D01*
X0115535Y0036738D01*
X0115489Y0036658D01*
X0115440Y0036579D01*
X0115388Y0036502D01*
X0115333Y0036428D01*
X0115275Y0036357D01*
X0115213Y0036287D01*
X0115149Y0036221D01*
X0115082Y0036157D01*
X0115012Y0036097D01*
X0114939Y0036039D01*
X0114865Y0035984D01*
X0114788Y0035933D01*
X0114709Y0035885D01*
X0114627Y0035841D01*
X0114544Y0035799D01*
X0114460Y0035762D01*
X0114374Y0035728D01*
X0114286Y0035698D01*
X0114198Y0035672D01*
X0114108Y0035649D01*
X0114017Y0035631D01*
X0113926Y0035616D01*
X0113834Y0035605D01*
X0113742Y0035598D01*
X0113649Y0035595D01*
X0113557Y0035596D01*
X0113464Y0035601D01*
X0113372Y0035610D01*
X0113280Y0035623D01*
X0113189Y0035639D01*
X0113099Y0035660D01*
X0113010Y0035684D01*
X0112922Y0035713D01*
X0112835Y0035745D01*
X0112750Y0035780D01*
X0112666Y0035820D01*
X0112584Y0035862D01*
X0112504Y0035909D01*
X0112426Y0035958D01*
X0112350Y0036011D01*
X0112276Y0036067D01*
X0112205Y0036127D01*
X0112137Y0036189D01*
X0112071Y0036254D01*
X0112008Y0036322D01*
X0111948Y0036392D01*
X0111891Y0036465D01*
X0111837Y0036540D01*
X0111787Y0036618D01*
X0111740Y0036698D01*
X0111696Y0036779D01*
X0111656Y0036863D01*
X0111619Y0036948D01*
X0111586Y0037034D01*
X0111557Y0037122D01*
X0111532Y0037211D01*
X0111510Y0037301D01*
X0111493Y0037392D01*
X0111479Y0037483D01*
X0111469Y0037575D01*
X0111463Y0037667D01*
X0111461Y0037760D01*
X0121461Y0037760D02*
X0121463Y0037853D01*
X0121469Y0037945D01*
X0121479Y0038037D01*
X0121493Y0038128D01*
X0121510Y0038219D01*
X0121532Y0038309D01*
X0121557Y0038398D01*
X0121586Y0038486D01*
X0121619Y0038572D01*
X0121656Y0038657D01*
X0121696Y0038741D01*
X0121740Y0038822D01*
X0121787Y0038902D01*
X0121837Y0038980D01*
X0121891Y0039055D01*
X0121948Y0039128D01*
X0122008Y0039198D01*
X0122071Y0039266D01*
X0122137Y0039331D01*
X0122205Y0039393D01*
X0122276Y0039453D01*
X0122350Y0039509D01*
X0122426Y0039562D01*
X0122504Y0039611D01*
X0122584Y0039658D01*
X0122666Y0039700D01*
X0122750Y0039740D01*
X0122835Y0039775D01*
X0122922Y0039807D01*
X0123010Y0039836D01*
X0123099Y0039860D01*
X0123189Y0039881D01*
X0123280Y0039897D01*
X0123372Y0039910D01*
X0123464Y0039919D01*
X0123557Y0039924D01*
X0123649Y0039925D01*
X0123742Y0039922D01*
X0123834Y0039915D01*
X0123926Y0039904D01*
X0124017Y0039889D01*
X0124108Y0039871D01*
X0124198Y0039848D01*
X0124286Y0039822D01*
X0124374Y0039792D01*
X0124460Y0039758D01*
X0124544Y0039721D01*
X0124627Y0039679D01*
X0124708Y0039635D01*
X0124788Y0039587D01*
X0124865Y0039536D01*
X0124939Y0039481D01*
X0125012Y0039423D01*
X0125082Y0039363D01*
X0125149Y0039299D01*
X0125213Y0039233D01*
X0125275Y0039163D01*
X0125333Y0039092D01*
X0125388Y0039018D01*
X0125440Y0038941D01*
X0125489Y0038862D01*
X0125535Y0038782D01*
X0125577Y0038699D01*
X0125615Y0038615D01*
X0125650Y0038529D01*
X0125681Y0038442D01*
X0125708Y0038354D01*
X0125731Y0038264D01*
X0125751Y0038174D01*
X0125767Y0038083D01*
X0125779Y0037991D01*
X0125787Y0037899D01*
X0125791Y0037806D01*
X0125791Y0037714D01*
X0125787Y0037621D01*
X0125779Y0037529D01*
X0125767Y0037437D01*
X0125751Y0037346D01*
X0125731Y0037256D01*
X0125708Y0037166D01*
X0125681Y0037078D01*
X0125650Y0036991D01*
X0125615Y0036905D01*
X0125577Y0036821D01*
X0125535Y0036738D01*
X0125489Y0036658D01*
X0125440Y0036579D01*
X0125388Y0036502D01*
X0125333Y0036428D01*
X0125275Y0036357D01*
X0125213Y0036287D01*
X0125149Y0036221D01*
X0125082Y0036157D01*
X0125012Y0036097D01*
X0124939Y0036039D01*
X0124865Y0035984D01*
X0124788Y0035933D01*
X0124709Y0035885D01*
X0124627Y0035841D01*
X0124544Y0035799D01*
X0124460Y0035762D01*
X0124374Y0035728D01*
X0124286Y0035698D01*
X0124198Y0035672D01*
X0124108Y0035649D01*
X0124017Y0035631D01*
X0123926Y0035616D01*
X0123834Y0035605D01*
X0123742Y0035598D01*
X0123649Y0035595D01*
X0123557Y0035596D01*
X0123464Y0035601D01*
X0123372Y0035610D01*
X0123280Y0035623D01*
X0123189Y0035639D01*
X0123099Y0035660D01*
X0123010Y0035684D01*
X0122922Y0035713D01*
X0122835Y0035745D01*
X0122750Y0035780D01*
X0122666Y0035820D01*
X0122584Y0035862D01*
X0122504Y0035909D01*
X0122426Y0035958D01*
X0122350Y0036011D01*
X0122276Y0036067D01*
X0122205Y0036127D01*
X0122137Y0036189D01*
X0122071Y0036254D01*
X0122008Y0036322D01*
X0121948Y0036392D01*
X0121891Y0036465D01*
X0121837Y0036540D01*
X0121787Y0036618D01*
X0121740Y0036698D01*
X0121696Y0036779D01*
X0121656Y0036863D01*
X0121619Y0036948D01*
X0121586Y0037034D01*
X0121557Y0037122D01*
X0121532Y0037211D01*
X0121510Y0037301D01*
X0121493Y0037392D01*
X0121479Y0037483D01*
X0121469Y0037575D01*
X0121463Y0037667D01*
X0121461Y0037760D01*
D11*
X0131067Y0037799D03*
X0131067Y0047799D03*
X0131106Y0057760D03*
X0106224Y0057760D03*
X0106264Y0047799D03*
X0106264Y0037799D03*
X0048390Y0037799D03*
X0048390Y0047799D03*
X0048429Y0057760D03*
X0023547Y0057760D03*
X0023587Y0047799D03*
X0023587Y0037799D03*
D12*
X0082602Y0031382D03*
X0082602Y0023783D03*
D13*
X0082602Y0027583D03*
D14*
X0071815Y0031579D03*
X0071815Y0023587D03*
D15*
X0074335Y0027583D03*
D16*
X0072859Y0027583D02*
X0072861Y0027660D01*
X0072867Y0027736D01*
X0072877Y0027812D01*
X0072891Y0027887D01*
X0072908Y0027962D01*
X0072930Y0028035D01*
X0072955Y0028108D01*
X0072985Y0028179D01*
X0073017Y0028248D01*
X0073054Y0028315D01*
X0073093Y0028381D01*
X0073136Y0028444D01*
X0073183Y0028505D01*
X0073232Y0028564D01*
X0073285Y0028620D01*
X0073340Y0028673D01*
X0073398Y0028723D01*
X0073458Y0028770D01*
X0073521Y0028814D01*
X0073586Y0028855D01*
X0073653Y0028892D01*
X0073722Y0028926D01*
X0073792Y0028956D01*
X0073864Y0028982D01*
X0073938Y0029004D01*
X0074012Y0029023D01*
X0074087Y0029038D01*
X0074163Y0029049D01*
X0074239Y0029056D01*
X0074316Y0029059D01*
X0074392Y0029058D01*
X0074469Y0029053D01*
X0074545Y0029044D01*
X0074621Y0029031D01*
X0074695Y0029014D01*
X0074769Y0028994D01*
X0074842Y0028969D01*
X0074913Y0028941D01*
X0074983Y0028909D01*
X0075051Y0028874D01*
X0075117Y0028835D01*
X0075181Y0028793D01*
X0075242Y0028747D01*
X0075302Y0028698D01*
X0075358Y0028647D01*
X0075412Y0028592D01*
X0075463Y0028535D01*
X0075511Y0028475D01*
X0075556Y0028413D01*
X0075597Y0028348D01*
X0075635Y0028282D01*
X0075670Y0028214D01*
X0075700Y0028143D01*
X0075728Y0028072D01*
X0075751Y0027999D01*
X0075771Y0027925D01*
X0075787Y0027850D01*
X0075799Y0027774D01*
X0075807Y0027698D01*
X0075811Y0027621D01*
X0075811Y0027545D01*
X0075807Y0027468D01*
X0075799Y0027392D01*
X0075787Y0027316D01*
X0075771Y0027241D01*
X0075751Y0027167D01*
X0075728Y0027094D01*
X0075700Y0027023D01*
X0075670Y0026952D01*
X0075635Y0026884D01*
X0075597Y0026818D01*
X0075556Y0026753D01*
X0075511Y0026691D01*
X0075463Y0026631D01*
X0075412Y0026574D01*
X0075358Y0026519D01*
X0075302Y0026468D01*
X0075242Y0026419D01*
X0075181Y0026373D01*
X0075117Y0026331D01*
X0075051Y0026292D01*
X0074983Y0026257D01*
X0074913Y0026225D01*
X0074842Y0026197D01*
X0074769Y0026172D01*
X0074695Y0026152D01*
X0074621Y0026135D01*
X0074545Y0026122D01*
X0074469Y0026113D01*
X0074392Y0026108D01*
X0074316Y0026107D01*
X0074239Y0026110D01*
X0074163Y0026117D01*
X0074087Y0026128D01*
X0074012Y0026143D01*
X0073938Y0026162D01*
X0073864Y0026184D01*
X0073792Y0026210D01*
X0073722Y0026240D01*
X0073653Y0026274D01*
X0073586Y0026311D01*
X0073521Y0026352D01*
X0073458Y0026396D01*
X0073398Y0026443D01*
X0073340Y0026493D01*
X0073285Y0026546D01*
X0073232Y0026602D01*
X0073183Y0026661D01*
X0073136Y0026722D01*
X0073093Y0026785D01*
X0073054Y0026851D01*
X0073017Y0026918D01*
X0072985Y0026987D01*
X0072955Y0027058D01*
X0072930Y0027131D01*
X0072908Y0027204D01*
X0072891Y0027279D01*
X0072877Y0027354D01*
X0072867Y0027430D01*
X0072861Y0027506D01*
X0072859Y0027583D01*
D17*
X0089098Y0030043D03*
X0089098Y0024138D03*
D18*
X0088713Y0023909D02*
X0085526Y0023909D01*
X0085827Y0023752D02*
X0085827Y0022169D01*
X0085929Y0021787D01*
X0085979Y0021701D01*
X0084654Y0021701D01*
X0085081Y0022128D01*
X0085526Y0023202D01*
X0085526Y0024365D01*
X0085081Y0025439D01*
X0084682Y0025838D01*
X0084703Y0025859D01*
X0084999Y0026302D01*
X0085203Y0026794D01*
X0085307Y0027316D01*
X0085307Y0027480D01*
X0082705Y0027480D01*
X0082705Y0027685D01*
X0085307Y0027685D01*
X0085307Y0027849D01*
X0085256Y0028104D01*
X0085317Y0028043D01*
X0085827Y0028043D01*
X0085827Y0027650D01*
X0086387Y0027091D01*
X0086126Y0026830D01*
X0085929Y0026488D01*
X0085827Y0026107D01*
X0085827Y0024524D01*
X0088713Y0024524D01*
X0088713Y0023752D01*
X0085827Y0023752D01*
X0085827Y0022910D02*
X0085405Y0022910D01*
X0085896Y0021912D02*
X0084865Y0021912D01*
X0082209Y0023154D02*
X0082563Y0023783D01*
X0082602Y0023783D01*
X0079744Y0024522D02*
X0079498Y0024276D01*
X0079498Y0022031D01*
X0079829Y0021701D01*
X0073615Y0021701D01*
X0073839Y0021925D01*
X0074125Y0022352D01*
X0074321Y0022826D01*
X0074421Y0023330D01*
X0074421Y0023533D01*
X0073835Y0023533D01*
X0073835Y0023640D01*
X0074421Y0023640D01*
X0074421Y0023843D01*
X0074321Y0024347D01*
X0074170Y0024712D01*
X0074835Y0024829D01*
X0074835Y0023034D01*
X0075405Y0023124D01*
X0076089Y0023347D01*
X0076730Y0023673D01*
X0077312Y0024096D01*
X0077821Y0024605D01*
X0078244Y0025187D01*
X0078571Y0025828D01*
X0078793Y0026512D01*
X0078883Y0027083D01*
X0077133Y0027083D01*
X0077133Y0028083D01*
X0078883Y0028083D01*
X0078793Y0028653D01*
X0078571Y0029337D01*
X0078244Y0029978D01*
X0077821Y0030560D01*
X0077312Y0031069D01*
X0076730Y0031492D01*
X0076089Y0031819D01*
X0075405Y0032041D01*
X0074835Y0032131D01*
X0074835Y0030336D01*
X0074170Y0030454D01*
X0074321Y0030819D01*
X0074421Y0031322D01*
X0074421Y0031526D01*
X0073835Y0031526D01*
X0073835Y0031632D01*
X0074421Y0031632D01*
X0074421Y0031835D01*
X0074321Y0032339D01*
X0074125Y0032813D01*
X0073839Y0033240D01*
X0073476Y0033603D01*
X0073049Y0033888D01*
X0072575Y0034085D01*
X0072072Y0034185D01*
X0071868Y0034185D01*
X0071868Y0031632D01*
X0071762Y0031632D01*
X0071762Y0034185D01*
X0071558Y0034185D01*
X0071055Y0034085D01*
X0070580Y0033888D01*
X0070154Y0033603D01*
X0069791Y0033240D01*
X0069505Y0032813D01*
X0069309Y0032339D01*
X0069209Y0031835D01*
X0069209Y0031632D01*
X0071762Y0031632D01*
X0071762Y0031526D01*
X0069209Y0031526D01*
X0069209Y0031322D01*
X0069309Y0030819D01*
X0069505Y0030344D01*
X0069791Y0029917D01*
X0070154Y0029554D01*
X0070195Y0029527D01*
X0070099Y0029337D01*
X0069876Y0028653D01*
X0069786Y0028083D01*
X0071538Y0028083D01*
X0071356Y0027583D01*
X0071538Y0027083D01*
X0069786Y0027083D01*
X0069876Y0026512D01*
X0070099Y0025828D01*
X0070195Y0025639D01*
X0070154Y0025611D01*
X0069791Y0025248D01*
X0069505Y0024821D01*
X0069309Y0024347D01*
X0069209Y0023843D01*
X0069209Y0023640D01*
X0071762Y0023640D01*
X0071762Y0023533D01*
X0069209Y0023533D01*
X0069209Y0023330D01*
X0069309Y0022826D01*
X0069505Y0022352D01*
X0069791Y0021925D01*
X0070015Y0021701D01*
X0052832Y0021701D01*
X0052516Y0021778D01*
X0051852Y0022172D01*
X0051388Y0022790D01*
X0051207Y0023495D01*
X0051228Y0023516D01*
X0051228Y0024031D01*
X0051301Y0024541D01*
X0051228Y0024638D01*
X0051228Y0029156D01*
X0050401Y0031155D01*
X0048871Y0032684D01*
X0046873Y0033512D01*
X0022898Y0033512D01*
X0022422Y0033559D01*
X0021544Y0033923D01*
X0020939Y0034528D01*
X0023201Y0034528D01*
X0023201Y0037413D01*
X0023972Y0037413D01*
X0023972Y0034528D01*
X0027327Y0034528D01*
X0027709Y0034630D01*
X0028051Y0034827D01*
X0028330Y0035107D01*
X0028363Y0035163D01*
X0028873Y0034652D01*
X0030220Y0034094D01*
X0031678Y0034094D01*
X0033025Y0034652D01*
X0034056Y0035684D01*
X0034614Y0037031D01*
X0034614Y0038489D01*
X0034056Y0039836D01*
X0033025Y0040867D01*
X0031678Y0041425D01*
X0030220Y0041425D01*
X0028873Y0040867D01*
X0028391Y0040386D01*
X0028330Y0040492D01*
X0028051Y0040771D01*
X0027709Y0040969D01*
X0027327Y0041071D01*
X0023972Y0041071D01*
X0023972Y0038185D01*
X0023201Y0038185D01*
X0023201Y0041071D01*
X0020461Y0041071D01*
X0020461Y0044528D01*
X0027751Y0044528D01*
X0028374Y0045151D01*
X0028873Y0044652D01*
X0030220Y0044094D01*
X0031678Y0044094D01*
X0033025Y0044652D01*
X0034056Y0045684D01*
X0034614Y0047031D01*
X0034614Y0048489D01*
X0034056Y0049836D01*
X0033211Y0050681D01*
X0038686Y0050681D01*
X0037841Y0049836D01*
X0037283Y0048489D01*
X0037283Y0047031D01*
X0037841Y0045684D01*
X0038873Y0044652D01*
X0040220Y0044094D01*
X0041678Y0044094D01*
X0043025Y0044652D01*
X0043563Y0045190D01*
X0044225Y0044528D01*
X0052554Y0044528D01*
X0053433Y0045406D01*
X0053433Y0050192D01*
X0052944Y0050681D01*
X0060691Y0050681D01*
X0061401Y0049971D01*
X0063646Y0049971D01*
X0065234Y0051558D01*
X0065234Y0053804D01*
X0063646Y0055391D01*
X0061401Y0055391D01*
X0060691Y0054681D01*
X0052787Y0054681D01*
X0053472Y0055367D01*
X0053472Y0059539D01*
X0053510Y0059539D01*
X0054768Y0060798D01*
X0055772Y0060798D01*
X0057360Y0062385D01*
X0057360Y0064630D01*
X0055772Y0066218D01*
X0053527Y0066218D01*
X0051939Y0064630D01*
X0051939Y0063626D01*
X0051853Y0063539D01*
X0049575Y0063539D01*
X0050401Y0064365D01*
X0051228Y0066363D01*
X0051228Y0071382D01*
X0051275Y0071857D01*
X0051639Y0072736D01*
X0052311Y0073408D01*
X0053190Y0073772D01*
X0053665Y0073819D01*
X0100909Y0073819D01*
X0101385Y0073772D01*
X0102263Y0073408D01*
X0102936Y0072736D01*
X0103300Y0071857D01*
X0103346Y0071382D01*
X0103346Y0067836D01*
X0102230Y0068953D01*
X0099769Y0071413D01*
X0087979Y0071413D01*
X0087268Y0072124D01*
X0085023Y0072124D01*
X0083435Y0070536D01*
X0083435Y0068291D01*
X0085023Y0066703D01*
X0087268Y0066703D01*
X0087979Y0067413D01*
X0098113Y0067413D01*
X0099402Y0066124D01*
X0099402Y0062943D01*
X0099079Y0063265D01*
X0096834Y0063265D01*
X0095246Y0061678D01*
X0095246Y0060673D01*
X0095160Y0060587D01*
X0088270Y0060587D01*
X0087098Y0059415D01*
X0087012Y0059328D01*
X0086992Y0059328D01*
X0085404Y0057741D01*
X0085404Y0055495D01*
X0086992Y0053908D01*
X0089237Y0053908D01*
X0090824Y0055495D01*
X0090824Y0056587D01*
X0095246Y0056587D01*
X0095246Y0054511D01*
X0096834Y0052924D01*
X0099079Y0052924D01*
X0099790Y0053634D01*
X0101246Y0053634D01*
X0102100Y0054488D01*
X0105773Y0054488D01*
X0105089Y0053804D01*
X0105089Y0051558D01*
X0105577Y0051071D01*
X0102099Y0051071D01*
X0101220Y0050192D01*
X0101220Y0045406D01*
X0102099Y0044528D01*
X0110428Y0044528D01*
X0111052Y0045151D01*
X0111550Y0044652D01*
X0112897Y0044094D01*
X0114355Y0044094D01*
X0115702Y0044652D01*
X0116733Y0045684D01*
X0117291Y0047031D01*
X0117291Y0048489D01*
X0116733Y0049836D01*
X0115888Y0050681D01*
X0121364Y0050681D01*
X0120519Y0049836D01*
X0119961Y0048489D01*
X0119961Y0047031D01*
X0120519Y0045684D01*
X0121550Y0044652D01*
X0122897Y0044094D01*
X0124355Y0044094D01*
X0125702Y0044652D01*
X0126240Y0045190D01*
X0126902Y0044528D01*
X0134252Y0044528D01*
X0134252Y0041071D01*
X0126902Y0041071D01*
X0126200Y0040369D01*
X0125702Y0040867D01*
X0124355Y0041425D01*
X0122897Y0041425D01*
X0121550Y0040867D01*
X0120519Y0039836D01*
X0119961Y0038489D01*
X0119961Y0037031D01*
X0120396Y0035980D01*
X0116856Y0035980D01*
X0117291Y0037031D01*
X0117291Y0038489D01*
X0116733Y0039836D01*
X0115702Y0040867D01*
X0114355Y0041425D01*
X0112897Y0041425D01*
X0111550Y0040867D01*
X0111091Y0040408D01*
X0110428Y0041071D01*
X0102099Y0041071D01*
X0101220Y0040192D01*
X0101220Y0035980D01*
X0098785Y0035980D01*
X0097496Y0037269D01*
X0096324Y0038441D01*
X0079612Y0038441D01*
X0079394Y0038659D01*
X0077149Y0038659D01*
X0075561Y0037071D01*
X0075561Y0034826D01*
X0077149Y0033239D01*
X0079394Y0033239D01*
X0080597Y0034441D01*
X0084420Y0034441D01*
X0084420Y0033699D01*
X0084258Y0033860D01*
X0083184Y0034305D01*
X0082021Y0034305D01*
X0080946Y0033860D01*
X0080124Y0033038D01*
X0079679Y0031963D01*
X0079679Y0030800D01*
X0080124Y0029726D01*
X0080522Y0029328D01*
X0080501Y0029307D01*
X0080205Y0028864D01*
X0080002Y0028372D01*
X0079898Y0027849D01*
X0079898Y0027685D01*
X0082500Y0027685D01*
X0082500Y0027480D01*
X0079898Y0027480D01*
X0079898Y0027316D01*
X0080002Y0026794D01*
X0080205Y0026302D01*
X0080501Y0025859D01*
X0080522Y0025838D01*
X0080124Y0025439D01*
X0079744Y0024522D01*
X0079904Y0024907D02*
X0078041Y0024907D01*
X0078596Y0025906D02*
X0080470Y0025906D01*
X0079980Y0026904D02*
X0078855Y0026904D01*
X0079908Y0027903D02*
X0077133Y0027903D01*
X0078712Y0028901D02*
X0080231Y0028901D01*
X0080052Y0029900D02*
X0078284Y0029900D01*
X0077483Y0030899D02*
X0079679Y0030899D01*
X0079679Y0031897D02*
X0075848Y0031897D01*
X0074835Y0031897D02*
X0074409Y0031897D01*
X0074337Y0030899D02*
X0074835Y0030899D01*
X0074070Y0032896D02*
X0080065Y0032896D01*
X0080050Y0033894D02*
X0081028Y0033894D01*
X0084176Y0033894D02*
X0084420Y0033894D01*
X0087130Y0033980D02*
X0088114Y0032996D01*
X0095988Y0032996D01*
X0097957Y0031028D01*
X0100667Y0030899D02*
X0104068Y0030899D01*
X0104174Y0031155D02*
X0103346Y0029156D01*
X0103346Y0024260D01*
X0103235Y0023736D01*
X0102679Y0022726D01*
X0101778Y0022005D01*
X0100670Y0021684D01*
X0100562Y0021686D01*
X0100547Y0021701D01*
X0100008Y0021701D01*
X0099473Y0021760D01*
X0099399Y0021701D01*
X0092218Y0021701D01*
X0092268Y0021787D01*
X0092370Y0022169D01*
X0092370Y0023752D01*
X0089484Y0023752D01*
X0089484Y0024524D01*
X0092370Y0024524D01*
X0092370Y0026107D01*
X0092268Y0026488D01*
X0092070Y0026830D01*
X0091810Y0027091D01*
X0092370Y0027650D01*
X0092370Y0030996D01*
X0095160Y0030996D01*
X0095246Y0030909D01*
X0095246Y0029905D01*
X0096834Y0028317D01*
X0099079Y0028317D01*
X0100667Y0029905D01*
X0100667Y0031980D01*
X0105000Y0031980D01*
X0104174Y0031155D01*
X0104174Y0031155D01*
X0104917Y0031897D02*
X0100667Y0031897D01*
X0100662Y0029900D02*
X0103655Y0029900D01*
X0103346Y0028901D02*
X0099663Y0028901D01*
X0096250Y0028901D02*
X0092370Y0028901D01*
X0092370Y0027903D02*
X0103346Y0027903D01*
X0103346Y0026904D02*
X0091996Y0026904D01*
X0092370Y0025906D02*
X0103346Y0025906D01*
X0103346Y0024907D02*
X0092370Y0024907D01*
X0089484Y0023909D02*
X0103272Y0023909D01*
X0102781Y0022910D02*
X0092370Y0022910D01*
X0092301Y0021912D02*
X0101456Y0021912D01*
X0095251Y0029900D02*
X0092370Y0029900D01*
X0092370Y0030899D02*
X0095246Y0030899D01*
X0097957Y0033980D02*
X0095496Y0036441D01*
X0078764Y0036441D01*
X0078272Y0035949D01*
X0076378Y0037888D02*
X0053433Y0037888D01*
X0053433Y0036890D02*
X0075561Y0036890D01*
X0075561Y0035891D02*
X0053433Y0035891D01*
X0053433Y0035406D02*
X0053433Y0040192D01*
X0052554Y0041071D01*
X0044225Y0041071D01*
X0043523Y0040369D01*
X0043025Y0040867D01*
X0041678Y0041425D01*
X0040220Y0041425D01*
X0038873Y0040867D01*
X0037841Y0039836D01*
X0037283Y0038489D01*
X0037283Y0037031D01*
X0037841Y0035684D01*
X0038873Y0034652D01*
X0040220Y0034094D01*
X0041678Y0034094D01*
X0043025Y0034652D01*
X0043563Y0035190D01*
X0044225Y0034528D01*
X0052554Y0034528D01*
X0053433Y0035406D01*
X0052919Y0034893D02*
X0075561Y0034893D01*
X0076494Y0033894D02*
X0073036Y0033894D01*
X0071868Y0033894D02*
X0071762Y0033894D01*
X0071762Y0032896D02*
X0071868Y0032896D01*
X0071868Y0031897D02*
X0071762Y0031897D01*
X0070594Y0033894D02*
X0021612Y0033894D01*
X0023201Y0034893D02*
X0023972Y0034893D01*
X0023972Y0035891D02*
X0023201Y0035891D01*
X0023201Y0036890D02*
X0023972Y0036890D01*
X0023972Y0038887D02*
X0023201Y0038887D01*
X0023201Y0039885D02*
X0023972Y0039885D01*
X0023972Y0040884D02*
X0023201Y0040884D01*
X0020461Y0041882D02*
X0085404Y0041882D01*
X0085404Y0041716D02*
X0086992Y0040128D01*
X0089237Y0040128D01*
X0089947Y0040839D01*
X0096124Y0040839D01*
X0096834Y0040128D01*
X0099079Y0040128D01*
X0100667Y0041716D01*
X0100667Y0043961D01*
X0099079Y0045549D01*
X0096834Y0045549D01*
X0096124Y0044839D01*
X0095895Y0044839D01*
X0097004Y0045947D01*
X0098075Y0047018D01*
X0099079Y0047018D01*
X0100667Y0048606D01*
X0100667Y0050851D01*
X0099079Y0052439D01*
X0096834Y0052439D01*
X0095246Y0050851D01*
X0095246Y0049847D01*
X0094176Y0048776D01*
X0086010Y0048776D01*
X0085300Y0049486D01*
X0083055Y0049486D01*
X0081467Y0047898D01*
X0081467Y0045653D01*
X0083055Y0044065D01*
X0085300Y0044065D01*
X0086010Y0044776D01*
X0086218Y0044776D01*
X0085404Y0043961D01*
X0085404Y0041716D01*
X0085404Y0042881D02*
X0020461Y0042881D01*
X0020461Y0043879D02*
X0085404Y0043879D01*
X0088114Y0042839D02*
X0097957Y0042839D01*
X0100667Y0042881D02*
X0134252Y0042881D01*
X0134252Y0043879D02*
X0100667Y0043879D01*
X0099750Y0044878D02*
X0101749Y0044878D01*
X0101220Y0045876D02*
X0096933Y0045876D01*
X0097931Y0046875D02*
X0101220Y0046875D01*
X0101220Y0047873D02*
X0099934Y0047873D01*
X0100667Y0048872D02*
X0101220Y0048872D01*
X0101220Y0049870D02*
X0100667Y0049870D01*
X0100649Y0050869D02*
X0101897Y0050869D01*
X0099651Y0051867D02*
X0105089Y0051867D01*
X0105089Y0052866D02*
X0065234Y0052866D01*
X0065234Y0051867D02*
X0096263Y0051867D01*
X0095264Y0050869D02*
X0064544Y0050869D01*
X0062524Y0052681D02*
X0025122Y0052681D01*
X0023587Y0051146D01*
X0023587Y0047799D01*
X0028101Y0044878D02*
X0028647Y0044878D01*
X0033250Y0044878D02*
X0038647Y0044878D01*
X0037762Y0045876D02*
X0034136Y0045876D01*
X0034550Y0046875D02*
X0037348Y0046875D01*
X0037283Y0047873D02*
X0034614Y0047873D01*
X0034456Y0048872D02*
X0037442Y0048872D01*
X0037876Y0049870D02*
X0034022Y0049870D01*
X0043250Y0044878D02*
X0043875Y0044878D01*
X0044038Y0040884D02*
X0042985Y0040884D01*
X0038912Y0040884D02*
X0032985Y0040884D01*
X0034007Y0039885D02*
X0037890Y0039885D01*
X0037448Y0038887D02*
X0034449Y0038887D01*
X0034614Y0037888D02*
X0037283Y0037888D01*
X0037342Y0036890D02*
X0034556Y0036890D01*
X0034142Y0035891D02*
X0037756Y0035891D01*
X0038632Y0034893D02*
X0033265Y0034893D01*
X0028632Y0034893D02*
X0028116Y0034893D01*
X0027856Y0040884D02*
X0028912Y0040884D01*
X0043265Y0034893D02*
X0043860Y0034893D01*
X0048361Y0032896D02*
X0069560Y0032896D01*
X0069221Y0031897D02*
X0049658Y0031897D01*
X0050401Y0031155D02*
X0050401Y0031155D01*
X0050507Y0030899D02*
X0069293Y0030899D01*
X0069808Y0029900D02*
X0050920Y0029900D01*
X0051228Y0028901D02*
X0069957Y0028901D01*
X0071473Y0027903D02*
X0051228Y0027903D01*
X0051228Y0026904D02*
X0069814Y0026904D01*
X0070073Y0025906D02*
X0051228Y0025906D01*
X0051228Y0024907D02*
X0069563Y0024907D01*
X0069222Y0023909D02*
X0051228Y0023909D01*
X0051357Y0022910D02*
X0069292Y0022910D01*
X0069804Y0021912D02*
X0052290Y0021912D01*
X0048871Y0032684D02*
X0048871Y0032684D01*
X0048871Y0032684D01*
X0053433Y0038887D02*
X0101220Y0038887D01*
X0101220Y0039885D02*
X0053433Y0039885D01*
X0052742Y0040884D02*
X0086236Y0040884D01*
X0082242Y0044878D02*
X0052905Y0044878D01*
X0053433Y0045876D02*
X0081467Y0045876D01*
X0081467Y0046875D02*
X0053433Y0046875D01*
X0053433Y0047873D02*
X0081467Y0047873D01*
X0082440Y0048872D02*
X0053433Y0048872D01*
X0053433Y0049870D02*
X0095246Y0049870D01*
X0094272Y0048872D02*
X0085914Y0048872D01*
X0084177Y0046776D02*
X0095004Y0046776D01*
X0097957Y0049728D01*
X0095893Y0053864D02*
X0065173Y0053864D01*
X0064175Y0054863D02*
X0086037Y0054863D01*
X0085404Y0055861D02*
X0053472Y0055861D01*
X0053472Y0056860D02*
X0085404Y0056860D01*
X0085522Y0057858D02*
X0053472Y0057858D01*
X0053472Y0058857D02*
X0086520Y0058857D01*
X0087539Y0059855D02*
X0053825Y0059855D01*
X0055828Y0060854D02*
X0095246Y0060854D01*
X0095421Y0061852D02*
X0056827Y0061852D01*
X0057360Y0062851D02*
X0096420Y0062851D01*
X0097957Y0060555D02*
X0095988Y0058587D01*
X0089098Y0058587D01*
X0088114Y0057602D01*
X0088114Y0056618D01*
X0090824Y0055861D02*
X0095246Y0055861D01*
X0095246Y0054863D02*
X0090192Y0054863D01*
X0097957Y0055634D02*
X0100417Y0055634D01*
X0101402Y0056618D01*
X0101402Y0066953D01*
X0098941Y0069413D01*
X0086146Y0069413D01*
X0083435Y0069840D02*
X0051228Y0069840D01*
X0051228Y0068842D02*
X0083435Y0068842D01*
X0083883Y0067843D02*
X0051228Y0067843D01*
X0051228Y0066845D02*
X0084881Y0066845D01*
X0087410Y0066845D02*
X0098681Y0066845D01*
X0099402Y0065846D02*
X0056144Y0065846D01*
X0057142Y0064848D02*
X0099402Y0064848D01*
X0099402Y0063849D02*
X0057360Y0063849D01*
X0054650Y0063508D02*
X0052681Y0061539D01*
X0025122Y0061539D01*
X0023547Y0059965D01*
X0023547Y0057760D01*
X0049885Y0063849D02*
X0051939Y0063849D01*
X0052157Y0064848D02*
X0050601Y0064848D01*
X0050401Y0064365D02*
X0050401Y0064365D01*
X0051014Y0065846D02*
X0053155Y0065846D01*
X0051228Y0070839D02*
X0083738Y0070839D01*
X0084737Y0071837D02*
X0051273Y0071837D01*
X0051739Y0072836D02*
X0102836Y0072836D01*
X0103302Y0071837D02*
X0087554Y0071837D01*
X0100344Y0070839D02*
X0103346Y0070839D01*
X0103346Y0069840D02*
X0101342Y0069840D01*
X0102341Y0068842D02*
X0103346Y0068842D01*
X0103339Y0067843D02*
X0103346Y0067843D01*
X0103402Y0066230D02*
X0104174Y0064365D01*
X0105704Y0062836D01*
X0107702Y0062008D01*
X0131815Y0062008D01*
X0132290Y0061961D01*
X0133169Y0061597D01*
X0133735Y0061031D01*
X0131492Y0061031D01*
X0131492Y0058146D01*
X0130720Y0058146D01*
X0130720Y0061031D01*
X0127366Y0061031D01*
X0126984Y0060929D01*
X0126642Y0060732D01*
X0126363Y0060453D01*
X0126273Y0060297D01*
X0125702Y0060867D01*
X0124355Y0061425D01*
X0122897Y0061425D01*
X0121550Y0060867D01*
X0120519Y0059836D01*
X0119961Y0058489D01*
X0119961Y0057031D01*
X0120519Y0055684D01*
X0121521Y0054681D01*
X0115731Y0054681D01*
X0116733Y0055684D01*
X0117291Y0057031D01*
X0117291Y0058489D01*
X0116733Y0059836D01*
X0115702Y0060867D01*
X0114355Y0061425D01*
X0112897Y0061425D01*
X0111550Y0060867D01*
X0111052Y0060369D01*
X0110389Y0061031D01*
X0103402Y0061031D01*
X0103402Y0066230D01*
X0103402Y0065846D02*
X0103561Y0065846D01*
X0103402Y0064848D02*
X0103974Y0064848D01*
X0104174Y0064365D02*
X0104174Y0064365D01*
X0104690Y0063849D02*
X0103402Y0063849D01*
X0103402Y0062851D02*
X0105688Y0062851D01*
X0105704Y0062836D02*
X0105704Y0062836D01*
X0103402Y0061852D02*
X0132553Y0061852D01*
X0133169Y0061597D02*
X0133169Y0061597D01*
X0131492Y0060854D02*
X0130720Y0060854D01*
X0130720Y0059855D02*
X0131492Y0059855D01*
X0131492Y0058857D02*
X0130720Y0058857D01*
X0130720Y0057374D02*
X0131492Y0057374D01*
X0131492Y0054488D01*
X0134252Y0054488D01*
X0134252Y0051071D01*
X0133067Y0051071D01*
X0133067Y0051895D01*
X0131453Y0053510D01*
X0130474Y0054488D01*
X0130720Y0054488D01*
X0130720Y0057374D01*
X0130720Y0056860D02*
X0131492Y0056860D01*
X0131492Y0055861D02*
X0130720Y0055861D01*
X0130720Y0054863D02*
X0131492Y0054863D01*
X0131098Y0053864D02*
X0134252Y0053864D01*
X0134252Y0052866D02*
X0132097Y0052866D01*
X0133067Y0051867D02*
X0134252Y0051867D01*
X0131067Y0051067D02*
X0129453Y0052681D01*
X0107799Y0052681D01*
X0105150Y0053864D02*
X0101476Y0053864D01*
X0110567Y0060854D02*
X0111536Y0060854D01*
X0115716Y0060854D02*
X0121536Y0060854D01*
X0120538Y0059855D02*
X0116714Y0059855D01*
X0117139Y0058857D02*
X0120113Y0058857D01*
X0119961Y0057858D02*
X0117291Y0057858D01*
X0117221Y0056860D02*
X0120031Y0056860D01*
X0120445Y0055861D02*
X0116807Y0055861D01*
X0115913Y0054863D02*
X0121339Y0054863D01*
X0120553Y0049870D02*
X0116699Y0049870D01*
X0117133Y0048872D02*
X0120119Y0048872D01*
X0119961Y0047873D02*
X0117291Y0047873D01*
X0117227Y0046875D02*
X0120025Y0046875D01*
X0120439Y0045876D02*
X0116813Y0045876D01*
X0115927Y0044878D02*
X0121325Y0044878D01*
X0125927Y0044878D02*
X0126552Y0044878D01*
X0126715Y0040884D02*
X0125663Y0040884D01*
X0121589Y0040884D02*
X0115663Y0040884D01*
X0116684Y0039885D02*
X0120568Y0039885D01*
X0120125Y0038887D02*
X0117127Y0038887D01*
X0117291Y0037888D02*
X0119961Y0037888D01*
X0120019Y0036890D02*
X0117233Y0036890D01*
X0111589Y0040884D02*
X0110616Y0040884D01*
X0110779Y0044878D02*
X0111325Y0044878D01*
X0101912Y0040884D02*
X0099835Y0040884D01*
X0100667Y0041882D02*
X0134252Y0041882D01*
X0131067Y0037799D02*
X0131067Y0035594D01*
X0129453Y0033980D01*
X0097957Y0033980D01*
X0097876Y0036890D02*
X0101220Y0036890D01*
X0101220Y0037888D02*
X0096877Y0037888D01*
X0096163Y0044878D02*
X0095934Y0044878D01*
X0084807Y0031382D02*
X0082602Y0031382D01*
X0084807Y0031382D02*
X0086146Y0030043D01*
X0089098Y0030043D01*
X0085827Y0027903D02*
X0085296Y0027903D01*
X0085225Y0026904D02*
X0086200Y0026904D01*
X0085827Y0025906D02*
X0084735Y0025906D01*
X0085301Y0024907D02*
X0085827Y0024907D01*
X0079498Y0023909D02*
X0077055Y0023909D01*
X0074835Y0023909D02*
X0074408Y0023909D01*
X0074338Y0022910D02*
X0079498Y0022910D01*
X0079617Y0021912D02*
X0073826Y0021912D01*
X0060872Y0054863D02*
X0052968Y0054863D01*
X0125716Y0060854D02*
X0126853Y0060854D01*
X0131067Y0051067D02*
X0131067Y0047799D01*
D19*
X0118626Y0041854D03*
X0107799Y0052681D03*
X0097957Y0049728D03*
X0097957Y0055634D03*
X0097957Y0060555D03*
X0088114Y0056618D03*
X0088114Y0052681D03*
X0084177Y0046776D03*
X0088114Y0042839D03*
X0088114Y0039394D03*
X0087130Y0033980D03*
X0089098Y0030043D03*
X0097957Y0031028D03*
X0082209Y0023154D03*
X0078272Y0035949D03*
X0069413Y0036933D03*
X0058587Y0037917D03*
X0062524Y0052681D03*
X0056618Y0058587D03*
X0054650Y0063508D03*
X0053665Y0070398D03*
X0066461Y0066953D03*
X0077287Y0059571D03*
X0086146Y0069413D03*
X0118626Y0060063D03*
X0097957Y0042839D03*
M02*
