<svg version="1.1" xmlns="http://www.w3.org/2000/svg" xmlns:xlink="http://www.w3.org/1999/xlink" stroke-linecap="round" stroke-linejoin="round" stroke-width="0" fill-rule="evenodd" width="9.933305in" height="4.968439999999999in" viewBox="3037.795 2291.78 9933.305 4968.44" id="iOfVK3FAYS5PfziWlZqH"><defs><circle cx="0" cy="0" r="5.905" id="iOfVK3FAYS5PfziWlZqH_pad-1"/><circle cx="0" cy="0" r="6.1" id="iOfVK3FAYS5PfziWlZqH_pad-2"/><circle cx="0" cy="0" r="21.655" id="iOfVK3FAYS5PfziWlZqH_pad-3"/><circle cx="0" cy="0" r="23.62" id="iOfVK3FAYS5PfziWlZqH_pad-4"/></defs><g transform="translate(0,9552) scale(1,-1)" fill="currentColor" stroke="currentColor"><use xlink:href="#iOfVK3FAYS5PfziWlZqH_pad-1" x="5248.4" y="3201.2"/><use xlink:href="#iOfVK3FAYS5PfziWlZqH_pad-1" x="6272" y="3673.6"/><use xlink:href="#iOfVK3FAYS5PfziWlZqH_pad-1" x="3043.7" y="4303.5"/><use xlink:href="#iOfVK3FAYS5PfziWlZqH_pad-1" x="6744.5" y="6035.8"/><use xlink:href="#iOfVK3FAYS5PfziWlZqH_pad-2" x="3575.2" y="3535.8"/><use xlink:href="#iOfVK3FAYS5PfziWlZqH_pad-2" x="4992.5" y="5346.9"/><use xlink:href="#iOfVK3FAYS5PfziWlZqH_pad-2" x="6744.5" y="3673.6"/><use xlink:href="#iOfVK3FAYS5PfziWlZqH_pad-2" x="9421.7" y="3673.6"/><use xlink:href="#iOfVK3FAYS5PfziWlZqH_pad-2" x="11911.8" y="5317.3"/><use xlink:href="#iOfVK3FAYS5PfziWlZqH_pad-2" x="12965" y="4776"/><use xlink:href="#iOfVK3FAYS5PfziWlZqH_pad-2" x="12866.5" y="5268.1"/><use xlink:href="#iOfVK3FAYS5PfziWlZqH_pad-2" x="7709.1" y="6508.3"/><use xlink:href="#iOfVK3FAYS5PfziWlZqH_pad-3" x="4094.9" y="3776"/><use xlink:href="#iOfVK3FAYS5PfziWlZqH_pad-3" x="3094.9" y="3776"/><use xlink:href="#iOfVK3FAYS5PfziWlZqH_pad-3" x="3094.9" y="4776"/><use xlink:href="#iOfVK3FAYS5PfziWlZqH_pad-3" x="4094.9" y="4776"/><use xlink:href="#iOfVK3FAYS5PfziWlZqH_pad-3" x="4094.9" y="5776"/><use xlink:href="#iOfVK3FAYS5PfziWlZqH_pad-3" x="3094.9" y="5776"/><use xlink:href="#iOfVK3FAYS5PfziWlZqH_pad-3" x="11362.6" y="4776"/><use xlink:href="#iOfVK3FAYS5PfziWlZqH_pad-3" x="12362.6" y="4776"/><use xlink:href="#iOfVK3FAYS5PfziWlZqH_pad-3" x="12362.6" y="5776"/><use xlink:href="#iOfVK3FAYS5PfziWlZqH_pad-3" x="11362.6" y="5776"/><use xlink:href="#iOfVK3FAYS5PfziWlZqH_pad-3" x="11362.6" y="3776"/><use xlink:href="#iOfVK3FAYS5PfziWlZqH_pad-3" x="12362.6" y="3776"/><use xlink:href="#iOfVK3FAYS5PfziWlZqH_pad-4" x="8713" y="7236.6"/><use xlink:href="#iOfVK3FAYS5PfziWlZqH_pad-4" x="6744.5" y="7236.6"/><use xlink:href="#iOfVK3FAYS5PfziWlZqH_pad-4" x="8713" y="2315.4"/><use xlink:href="#iOfVK3FAYS5PfziWlZqH_pad-4" x="6744.5" y="2315.4"/></g></svg>