<svg version="1.1" xmlns="http://www.w3.org/2000/svg" xmlns:xlink="http://www.w3.org/1999/xlink" stroke-linecap="round" stroke-linejoin="round" stroke-width="0" fill-rule="evenodd" width="1.1653499999999999in" height="0.5905499999999999in" viewBox="190.2 182.32 1165.35 590.55" id="R5cQ58ACGsMxqs8wFAsp"><defs><circle cx="0" cy="0" r="35.435" id="R5cQ58ACGsMxqs8wFAsp_pad-11"/><rect x="-29.53" y="-23.62" width="59.06" height="47.24" id="R5cQ58ACGsMxqs8wFAsp_pad-12"/><polygon points="11.90498,4.9312 4.9312,11.90498 -4.9312,11.90498 -11.90498,4.9312 -11.90498,-4.9312 -4.9312,-11.90498 4.9312,-11.90498 11.90498,-4.9312" id="R5cQ58ACGsMxqs8wFAsp_pad-13"/><polygon points="12.09998,5.01197 5.01197,12.09998 -5.01197,12.09998 -12.09998,5.01197 -12.09998,-5.01197 -5.01197,-12.09998 5.01197,-12.09998 12.09998,-5.01197" id="R5cQ58ACGsMxqs8wFAsp_pad-16"/></defs><g transform="translate(0,955.1899999999999) scale(1,-1)" fill="currentColor" stroke="currentColor"><path d="M 457.91 320.12 459.15 320.1 460.38 320.04 461.62 319.95 462.84 319.81 464.07 319.64 465.29 319.42 466.5 319.17 467.7 318.88 468.89 318.56 470.08 318.19 471.25 317.79 472.4 317.36 473.55 316.88 474.67 316.37 475.78 315.83 476.88 315.25 477.95 314.64 479.01 313.99 480.04 313.31 481.05 312.6 482.04 311.86 483.01 311.09 483.95 310.28 484.86 309.45 485.75 308.59 486.61 307.7 487.44 306.79 488.25 305.85 489.02 304.88 489.76 303.89 490.47 302.88 491.15 301.85 491.8 300.79 492.41 299.72 492.99 298.62 493.53 297.51 494.04 296.39 494.52 295.24 494.95 294.09 495.35 292.92 495.72 291.73 496.04 290.54 496.33 289.34 496.58 288.13 496.8 286.91 496.97 285.68 497.11 284.46 497.2 283.22 497.26 281.99 497.28 280.75 497.28 241.38 497.3 240.14 497.36 238.91 497.45 237.67 497.59 236.45 497.76 235.22 497.98 234 498.23 232.79 498.52 231.59 498.84 230.4 499.21 229.21 499.61 228.04 500.04 226.89 500.52 225.74 501.03 224.62 501.57 223.51 502.15 222.41 502.76 221.34 503.41 220.28 504.09 219.25 504.8 218.24 505.54 217.25 506.31 216.28 507.12 215.34 507.95 214.43 508.81 213.54 509.7 212.68 510.61 211.85 511.55 211.04 512.52 210.27 513.51 209.53 514.52 208.82 515.55 208.14 516.61 207.49 517.68 206.88 518.78 206.3 519.89 205.76 521.01 205.25 522.16 204.77 523.31 204.34 524.48 203.94 525.67 203.57 526.86 203.25 528.06 202.96 529.27 202.71 530.49 202.49 531.72 202.32 532.94 202.18 534.18 202.09 535.41 202.03 536.65 202.01 625.24 202.01 625.86 201.99 626.47 201.93 627.08 201.84 627.69 201.7 628.28 201.53 628.86 201.32 629.43 201.07 629.98 200.79 630.51 200.48 631.02 200.13 631.51 199.75 631.98 199.34 632.41 198.91 632.82 198.44 633.2 197.95 633.55 197.44 633.86 196.91 634.14 196.36 634.39 195.79 634.6 195.21 634.77 194.62 634.91 194.01 635 193.4 635.06 192.79 635.08 192.17 635.1 191.55 635.16 190.94 635.25 190.33 635.39 189.72 635.56 189.13 635.77 188.55 636.02 187.98 636.3 187.43 636.61 186.9 636.96 186.39 637.34 185.9 637.75 185.43 638.18 185 638.65 184.59 639.14 184.21 639.65 183.86 640.18 183.55 640.73 183.27 641.3 183.02 641.88 182.81 642.47 182.64 643.08 182.5 643.69 182.41 644.3 182.35 644.92 182.33 M 644.92 182.32 703.98 182.32 M 703.98 182.33 704.6 182.35 705.21 182.41 705.82 182.5 706.43 182.64 707.02 182.81 707.6 183.02 708.17 183.27 708.72 183.55 709.25 183.86 709.76 184.21 710.25 184.59 710.72 185 711.15 185.43 711.56 185.9 711.94 186.39 712.29 186.9 712.6 187.43 712.88 187.98 713.13 188.55 713.34 189.13 713.51 189.72 713.65 190.33 713.74 190.94 713.8 191.55 713.82 192.17 713.84 192.79 713.9 193.4 713.99 194.01 714.13 194.62 714.3 195.21 714.51 195.79 714.76 196.36 715.04 196.91 715.35 197.44 715.7 197.95 716.08 198.44 716.49 198.91 716.92 199.34 717.39 199.75 717.88 200.13 718.39 200.48 718.92 200.79 719.47 201.07 720.04 201.32 720.62 201.53 721.21 201.7 721.82 201.84 722.43 201.93 723.04 201.99 723.66 202.01 822.09 202.01 822.71 201.99 823.32 201.93 823.93 201.84 824.54 201.7 825.13 201.53 825.71 201.32 826.28 201.07 826.83 200.79 827.36 200.48 827.87 200.13 828.36 199.75 828.83 199.34 829.26 198.91 829.67 198.44 830.05 197.95 830.4 197.44 830.71 196.91 830.99 196.36 831.24 195.79 831.45 195.21 831.62 194.62 831.76 194.01 831.85 193.4 831.91 192.79 831.93 192.17 831.95 191.55 832.01 190.94 832.1 190.33 832.24 189.72 832.41 189.13 832.62 188.55 832.87 187.98 833.15 187.43 833.46 186.9 833.81 186.39 834.19 185.9 834.6 185.43 835.03 185 835.5 184.59 835.99 184.21 836.5 183.86 837.03 183.55 837.58 183.27 838.15 183.02 838.73 182.81 839.32 182.64 839.93 182.5 840.54 182.41 841.15 182.35 841.77 182.33 M 841.77 182.32 900.83 182.32 M 900.83 182.33 901.45 182.35 902.06 182.41 902.67 182.5 903.28 182.64 903.87 182.81 904.45 183.02 905.02 183.27 905.57 183.55 906.1 183.86 906.61 184.21 907.1 184.59 907.57 185 908 185.43 908.41 185.9 908.79 186.39 909.14 186.9 909.45 187.43 909.73 187.98 909.98 188.55 910.19 189.13 910.36 189.72 910.5 190.33 910.59 190.94 910.65 191.55 910.67 192.17 910.69 192.79 910.75 193.4 910.84 194.01 910.98 194.62 911.15 195.21 911.36 195.79 911.61 196.36 911.89 196.91 912.2 197.44 912.55 197.95 912.93 198.44 913.34 198.91 913.77 199.34 914.24 199.75 914.73 200.13 915.24 200.48 915.77 200.79 916.32 201.07 916.89 201.32 917.47 201.53 918.06 201.7 918.67 201.84 919.28 201.93 919.89 201.99 920.51 202.01 1009.09 202.01 1010.33 202.03 1011.56 202.09 1012.8 202.18 1014.02 202.32 1015.25 202.49 1016.47 202.71 1017.68 202.96 1018.88 203.25 1020.07 203.57 1021.26 203.94 1022.43 204.34 1023.58 204.77 1024.73 205.25 1025.85 205.76 1026.96 206.3 1028.06 206.88 1029.13 207.49 1030.19 208.14 1031.22 208.82 1032.23 209.53 1033.22 210.27 1034.19 211.04 1035.13 211.85 1036.04 212.68 1036.93 213.54 1037.79 214.43 1038.62 215.34 1039.43 216.28 1040.2 217.25 1040.94 218.24 1041.65 219.25 1042.33 220.28 1042.98 221.34 1043.59 222.41 1044.17 223.51 1044.71 224.62 1045.22 225.74 1045.7 226.89 1046.13 228.04 1046.53 229.21 1046.9 230.4 1047.22 231.59 1047.51 232.79 1047.76 234 1047.98 235.22 1048.15 236.45 1048.29 237.67 1048.38 238.91 1048.44 240.14 1048.46 241.38 1048.46 280.75 1048.48 281.99 1048.54 283.22 1048.63 284.46 1048.77 285.68 1048.94 286.91 1049.16 288.13 1049.41 289.34 1049.7 290.54 1050.02 291.73 1050.39 292.92 1050.79 294.09 1051.22 295.24 1051.7 296.39 1052.21 297.51 1052.75 298.62 1053.33 299.72 1053.94 300.79 1054.59 301.85 1055.27 302.88 1055.98 303.89 1056.72 304.88 1057.49 305.85 1058.3 306.79 1059.13 307.7 1059.99 308.59 1060.88 309.45 1061.79 310.28 1062.73 311.09 1063.7 311.86 1064.69 312.6 1065.7 313.31 1066.73 313.99 1067.79 314.64 1068.86 315.25 1069.96 315.83 1071.07 316.37 1072.19 316.88 1073.34 317.36 1074.49 317.79 1075.66 318.19 1076.85 318.56 1078.04 318.88 1079.24 319.17 1080.45 319.42 1081.67 319.64 1082.9 319.81 1084.12 319.95 1085.36 320.04 1086.59 320.1 1087.83 320.12 1316.18 320.12 1317.42 320.14 1318.65 320.2 1319.89 320.29 1321.11 320.43 1322.34 320.6 1323.56 320.82 1324.77 321.07 1325.97 321.36 1327.16 321.68 1328.35 322.05 1329.52 322.45 1330.67 322.88 1331.82 323.36 1332.94 323.87 1334.05 324.41 1335.15 324.99 1336.22 325.6 1337.28 326.25 1338.31 326.93 1339.32 327.64 1340.31 328.38 1341.28 329.15 1342.22 329.96 1343.13 330.79 1344.02 331.65 1344.88 332.54 1345.71 333.45 1346.52 334.39 1347.29 335.36 1348.03 336.35 1348.74 337.36 1349.42 338.39 1350.07 339.45 1350.68 340.52 1351.26 341.62 1351.8 342.73 1352.31 343.85 1352.79 345 1353.22 346.15 1353.62 347.32 1353.99 348.51 1354.31 349.7 1354.6 350.9 1354.85 352.11 1355.07 353.33 1355.24 354.56 1355.38 355.78 1355.47 357.02 1355.53 358.25 1355.55 359.49 1355.55 595.71 1355.53 596.95 1355.47 598.18 1355.38 599.42 1355.24 600.64 1355.07 601.87 1354.85 603.09 1354.6 604.3 1354.31 605.5 1353.99 606.69 1353.62 607.88 1353.22 609.05 1352.79 610.2 1352.31 611.35 1351.8 612.47 1351.26 613.58 1350.68 614.68 1350.07 615.75 1349.42 616.81 1348.74 617.84 1348.03 618.85 1347.29 619.84 1346.52 620.81 1345.71 621.75 1344.88 622.66 1344.02 623.55 1343.13 624.41 1342.22 625.24 1341.28 626.05 1340.31 626.82 1339.32 627.56 1338.31 628.27 1337.28 628.95 1336.22 629.6 1335.15 630.21 1334.05 630.79 1332.94 631.33 1331.82 631.84 1330.67 632.32 1329.52 632.75 1328.35 633.15 1327.16 633.52 1325.97 633.84 1324.77 634.13 1323.56 634.38 1322.34 634.6 1321.11 634.77 1319.89 634.91 1318.65 635 1317.42 635.06 1316.18 635.08 1087.83 635.08 1086.59 635.1 1085.36 635.16 1084.12 635.25 1082.9 635.39 1081.67 635.56 1080.45 635.78 1079.24 636.03 1078.04 636.32 1076.85 636.64 1075.66 637.01 1074.49 637.41 1073.34 637.84 1072.19 638.32 1071.07 638.83 1069.96 639.37 1068.86 639.95 1067.79 640.56 1066.73 641.21 1065.7 641.89 1064.69 642.6 1063.7 643.34 1062.73 644.11 1061.79 644.92 1060.88 645.75 1059.99 646.61 1059.13 647.5 1058.3 648.41 1057.49 649.35 1056.72 650.32 1055.98 651.31 1055.27 652.32 1054.59 653.35 1053.94 654.41 1053.33 655.48 1052.75 656.58 1052.21 657.69 1051.7 658.81 1051.22 659.96 1050.79 661.11 1050.39 662.28 1050.02 663.47 1049.7 664.66 1049.41 665.86 1049.16 667.07 1048.94 668.29 1048.77 669.52 1048.63 670.74 1048.54 671.98 1048.48 673.21 1048.46 674.45 1048.46 713.82 1048.44 715.06 1048.38 716.29 1048.29 717.53 1048.15 718.75 1047.98 719.98 1047.76 721.2 1047.51 722.41 1047.22 723.61 1046.9 724.8 1046.53 725.99 1046.13 727.16 1045.7 728.31 1045.22 729.46 1044.71 730.58 1044.17 731.69 1043.59 732.79 1042.98 733.86 1042.33 734.92 1041.65 735.95 1040.94 736.96 1040.2 737.95 1039.43 738.92 1038.62 739.86 1037.79 740.77 1036.93 741.66 1036.04 742.52 1035.13 743.35 1034.19 744.16 1033.22 744.93 1032.23 745.67 1031.22 746.38 1030.19 747.06 1029.13 747.71 1028.06 748.32 1026.96 748.9 1025.85 749.44 1024.73 749.95 1023.58 750.43 1022.43 750.86 1021.26 751.26 1020.07 751.63 1018.88 751.95 1017.68 752.24 1016.47 752.49 1015.25 752.71 1014.02 752.88 1012.8 753.02 1011.56 753.11 1010.33 753.17 1009.09 753.19 920.51 753.19 919.89 753.21 919.28 753.27 918.67 753.36 918.06 753.5 917.47 753.67 916.89 753.88 916.32 754.13 915.77 754.41 915.24 754.72 914.73 755.07 914.24 755.45 913.77 755.86 913.34 756.29 912.93 756.76 912.55 757.25 912.2 757.76 911.89 758.29 911.61 758.84 911.36 759.41 911.15 759.99 910.98 760.58 910.84 761.19 910.75 761.8 910.69 762.41 910.67 763.03 910.65 763.65 910.59 764.26 910.5 764.87 910.36 765.48 910.19 766.07 909.98 766.65 909.73 767.22 909.45 767.77 909.14 768.3 908.79 768.81 908.41 769.3 908 769.77 907.57 770.2 907.1 770.61 906.61 770.99 906.1 771.34 905.57 771.65 905.02 771.93 904.45 772.18 903.87 772.39 903.28 772.56 902.67 772.7 902.06 772.79 901.45 772.85 900.83 772.87 841.77 772.87 841.15 772.85 840.54 772.79 839.93 772.7 839.32 772.56 838.73 772.39 838.15 772.18 837.58 771.93 837.03 771.65 836.5 771.34 835.99 770.99 835.5 770.61 835.03 770.2 834.6 769.77 834.19 769.3 833.81 768.81 833.46 768.3 833.15 767.77 832.87 767.22 832.62 766.65 832.41 766.07 832.24 765.48 832.1 764.87 832.01 764.26 831.95 763.65 831.93 763.03 831.91 762.41 831.85 761.8 831.76 761.19 831.62 760.58 831.45 759.99 831.24 759.41 830.99 758.84 830.71 758.29 830.4 757.76 830.05 757.25 829.67 756.76 829.26 756.29 828.83 755.86 828.36 755.45 827.87 755.07 827.36 754.72 826.83 754.41 826.28 754.13 825.71 753.88 825.13 753.67 824.54 753.5 823.93 753.36 823.32 753.27 822.71 753.21 822.09 753.19 723.66 753.19 723.04 753.21 722.43 753.27 721.82 753.36 721.21 753.5 720.62 753.67 720.04 753.88 719.47 754.13 718.92 754.41 718.39 754.72 717.88 755.07 717.39 755.45 716.92 755.86 716.49 756.29 716.08 756.76 715.7 757.25 715.35 757.76 715.04 758.29 714.76 758.84 714.51 759.41 714.3 759.99 714.13 760.58 713.99 761.19 713.9 761.8 713.84 762.41 713.82 763.03 713.8 763.65 713.74 764.26 713.65 764.87 713.51 765.48 713.34 766.07 713.13 766.65 712.88 767.22 712.6 767.77 712.29 768.3 711.94 768.81 711.56 769.3 711.15 769.77 710.72 770.2 710.25 770.61 709.76 770.99 709.25 771.34 708.72 771.65 708.17 771.93 707.6 772.18 707.02 772.39 706.43 772.56 705.82 772.7 705.21 772.79 704.6 772.85 703.98 772.87 644.92 772.87 644.3 772.85 643.69 772.79 643.08 772.7 642.47 772.56 641.88 772.39 641.3 772.18 640.73 771.93 640.18 771.65 639.65 771.34 639.14 770.99 638.65 770.61 638.18 770.2 637.75 769.77 637.34 769.3 636.96 768.81 636.61 768.3 636.3 767.77 636.02 767.22 635.77 766.65 635.56 766.07 635.39 765.48 635.25 764.87 635.16 764.26 635.1 763.65 635.08 763.03 635.06 762.41 635 761.8 634.91 761.19 634.77 760.58 634.6 759.99 634.39 759.41 634.14 758.84 633.86 758.29 633.55 757.76 633.2 757.25 632.82 756.76 632.41 756.29 631.98 755.86 631.51 755.45 631.02 755.07 630.51 754.72 629.98 754.41 629.43 754.13 628.86 753.88 628.28 753.67 627.69 753.5 627.08 753.36 626.47 753.27 625.86 753.21 625.24 753.19 536.65 753.19 535.41 753.17 534.18 753.11 532.94 753.02 531.72 752.88 530.49 752.71 529.27 752.49 528.06 752.24 526.86 751.95 525.67 751.63 524.48 751.26 523.31 750.86 522.16 750.43 521.01 749.95 519.89 749.44 518.78 748.9 517.68 748.32 516.61 747.71 515.55 747.06 514.52 746.38 513.51 745.67 512.52 744.93 511.55 744.16 510.61 743.35 509.7 742.52 508.81 741.66 507.95 740.77 507.12 739.86 506.31 738.92 505.54 737.95 504.8 736.96 504.09 735.95 503.41 734.92 502.76 733.86 502.15 732.79 501.57 731.69 501.03 730.58 500.52 729.46 500.04 728.31 499.61 727.16 499.21 725.99 498.84 724.8 498.52 723.61 498.23 722.41 497.98 721.2 497.76 719.98 497.59 718.75 497.45 717.53 497.36 716.29 497.3 715.06 497.28 713.82 497.28 674.45 497.26 673.21 497.2 671.98 497.11 670.74 496.97 669.52 496.8 668.29 496.58 667.07 496.33 665.86 496.04 664.66 495.72 663.47 495.35 662.28 494.95 661.11 494.52 659.96 494.04 658.81 493.53 657.69 492.99 656.58 492.41 655.48 491.8 654.41 491.15 653.35 490.47 652.32 489.76 651.31 489.02 650.32 488.25 649.35 487.44 648.41 486.61 647.5 485.75 646.61 484.86 645.75 483.95 644.92 483.01 644.11 482.04 643.34 481.05 642.6 480.04 641.89 479.01 641.21 477.95 640.56 476.88 639.95 475.78 639.37 474.67 638.83 473.55 638.32 472.4 637.84 471.25 637.41 470.08 637.01 468.89 636.64 467.7 636.32 466.5 636.03 465.29 635.78 464.07 635.56 462.84 635.39 461.62 635.25 460.38 635.16 459.15 635.1 457.91 635.08 229.57 635.08 228.33 635.06 227.1 635 225.86 634.91 224.64 634.77 223.41 634.6 222.19 634.38 220.98 634.13 219.78 633.84 218.59 633.52 217.4 633.15 216.23 632.75 215.08 632.32 213.93 631.84 212.81 631.33 211.7 630.79 210.6 630.21 209.53 629.6 208.47 628.95 207.44 628.27 206.43 627.56 205.44 626.82 204.47 626.05 203.53 625.24 202.62 624.41 201.73 623.55 200.87 622.66 200.04 621.75 199.23 620.81 198.46 619.84 197.72 618.85 197.01 617.84 196.33 616.81 195.68 615.75 195.07 614.68 194.49 613.58 193.95 612.47 193.44 611.35 192.96 610.2 192.53 609.05 192.13 607.88 191.76 606.69 191.44 605.5 191.15 604.3 190.9 603.09 190.68 601.87 190.51 600.64 190.37 599.42 190.28 598.18 190.22 596.95 190.2 595.71 190.2 359.49 190.22 358.25 190.28 357.02 190.37 355.78 190.51 354.56 190.68 353.33 190.9 352.11 191.15 350.9 191.44 349.7 191.76 348.51 192.13 347.32 192.53 346.15 192.96 345 193.44 343.85 193.95 342.73 194.49 341.62 195.07 340.52 195.68 339.45 196.33 338.39 197.01 337.36 197.72 336.35 198.46 335.36 199.23 334.39 200.04 333.45 200.87 332.54 201.73 331.65 202.62 330.79 203.53 329.96 204.47 329.15 205.44 328.38 206.43 327.64 207.44 326.93 208.47 326.25 209.53 325.6 210.6 324.99 211.7 324.41 212.81 323.87 213.93 323.36 215.08 322.88 216.23 322.45 217.4 322.05 218.59 321.68 219.78 321.36 220.98 321.07 222.19 320.82 223.41 320.6 224.64 320.43 225.86 320.29 227.1 320.2 228.33 320.14 229.57 320.12 457.91 320.12 M 387.84 377.6 387.86 378.53 387.92 379.45 388.02 380.37 388.16 381.28 388.33 382.19 388.55 383.09 388.8 383.98 389.09 384.86 389.42 385.72 389.79 386.57 390.19 387.41 390.63 388.22 391.1 389.02 391.6 389.8 392.14 390.55 392.71 391.28 393.31 391.98 393.94 392.66 394.6 393.31 395.28 393.93 395.99 394.53 396.73 395.09 397.49 395.62 398.27 396.11 399.07 396.58 399.89 397 400.73 397.4 401.58 397.75 402.45 398.07 403.33 398.36 404.22 398.6 405.12 398.81 406.03 398.97 406.95 399.1 407.87 399.19 408.8 399.24 409.72 399.25 410.65 399.22 411.57 399.15 412.49 399.04 413.4 398.89 414.31 398.71 415.21 398.48 416.09 398.22 416.97 397.92 417.83 397.58 418.67 397.21 419.5 396.79 420.31 396.35 421.11 395.87 421.88 395.36 422.62 394.81 423.35 394.23 424.05 393.63 424.72 392.99 425.36 392.33 425.98 391.63 426.56 390.92 427.11 390.18 427.63 389.41 428.12 388.62 428.58 387.82 429 386.99 429.38 386.15 429.73 385.29 430.04 384.42 430.31 383.54 430.54 382.64 430.74 381.74 430.9 380.83 431.02 379.91 431.1 378.99 431.14 378.06 431.14 377.14 431.1 376.21 431.02 375.29 430.9 374.37 430.74 373.46 430.54 372.56 430.31 371.66 430.04 370.78 429.73 369.91 429.38 369.05 429 368.21 428.58 367.38 428.12 366.58 427.63 365.79 427.11 365.02 426.56 364.28 425.98 363.57 425.36 362.87 424.72 362.21 424.05 361.57 423.35 360.97 422.62 360.39 421.88 359.84 421.11 359.33 420.32 358.85 419.5 358.41 418.67 357.99 417.83 357.62 416.97 357.28 416.09 356.98 415.21 356.72 414.31 356.49 413.4 356.31 412.49 356.16 411.57 356.05 410.65 355.98 409.72 355.95 408.8 355.96 407.87 356.01 406.95 356.1 406.03 356.23 405.12 356.39 404.22 356.6 403.33 356.84 402.45 357.13 401.58 357.45 400.73 357.8 399.89 358.2 399.07 358.62 398.27 359.09 397.49 359.58 396.73 360.11 395.99 360.67 395.28 361.27 394.6 361.89 393.94 362.54 393.31 363.22 392.71 363.92 392.14 364.65 391.6 365.4 391.1 366.18 390.63 366.98 390.19 367.79 389.79 368.63 389.42 369.48 389.09 370.34 388.8 371.22 388.55 372.11 388.33 373.01 388.16 373.92 388.02 374.83 387.92 375.75 387.86 376.67 387.84 377.6 M 287.84 377.6 287.86 378.53 287.92 379.45 288.02 380.37 288.16 381.28 288.33 382.19 288.55 383.09 288.8 383.98 289.09 384.86 289.42 385.72 289.79 386.57 290.19 387.41 290.63 388.22 291.1 389.02 291.6 389.8 292.14 390.55 292.71 391.28 293.31 391.98 293.94 392.66 294.6 393.31 295.28 393.93 295.99 394.53 296.73 395.09 297.49 395.62 298.27 396.11 299.07 396.58 299.89 397 300.73 397.4 301.58 397.75 302.45 398.07 303.33 398.36 304.22 398.6 305.12 398.81 306.03 398.97 306.95 399.1 307.87 399.19 308.8 399.24 309.72 399.25 310.65 399.22 311.57 399.15 312.49 399.04 313.4 398.89 314.31 398.71 315.21 398.48 316.09 398.22 316.97 397.92 317.83 397.58 318.67 397.21 319.5 396.79 320.31 396.35 321.11 395.87 321.88 395.36 322.62 394.81 323.35 394.23 324.05 393.63 324.72 392.99 325.36 392.33 325.98 391.63 326.56 390.92 327.11 390.18 327.63 389.41 328.12 388.62 328.58 387.82 329 386.99 329.38 386.15 329.73 385.29 330.04 384.42 330.31 383.54 330.54 382.64 330.74 381.74 330.9 380.83 331.02 379.91 331.1 378.99 331.14 378.06 331.14 377.14 331.1 376.21 331.02 375.29 330.9 374.37 330.74 373.46 330.54 372.56 330.31 371.66 330.04 370.78 329.73 369.91 329.38 369.05 329 368.21 328.58 367.38 328.12 366.58 327.63 365.79 327.11 365.02 326.56 364.28 325.98 363.57 325.36 362.87 324.72 362.21 324.05 361.57 323.35 360.97 322.62 360.39 321.88 359.84 321.11 359.33 320.32 358.85 319.5 358.41 318.67 357.99 317.83 357.62 316.97 357.28 316.09 356.98 315.21 356.72 314.31 356.49 313.4 356.31 312.49 356.16 311.57 356.05 310.65 355.98 309.72 355.95 308.8 355.96 307.87 356.01 306.95 356.1 306.03 356.23 305.12 356.39 304.22 356.6 303.33 356.84 302.45 357.13 301.58 357.45 300.73 357.8 299.89 358.2 299.07 358.62 298.27 359.09 297.49 359.58 296.73 360.11 295.99 360.67 295.28 361.27 294.6 361.89 293.94 362.54 293.31 363.22 292.71 363.92 292.14 364.65 291.6 365.4 291.1 366.18 290.63 366.98 290.19 367.79 289.79 368.63 289.42 369.48 289.09 370.34 288.8 371.22 288.55 372.11 288.33 373.01 288.16 373.92 288.02 374.83 287.92 375.75 287.86 376.67 287.84 377.6 M 287.84 477.6 287.86 478.53 287.92 479.45 288.02 480.37 288.16 481.28 288.33 482.19 288.55 483.09 288.8 483.98 289.09 484.86 289.42 485.72 289.79 486.57 290.19 487.41 290.63 488.22 291.1 489.02 291.6 489.8 292.14 490.55 292.71 491.28 293.31 491.98 293.94 492.66 294.6 493.31 295.28 493.93 295.99 494.53 296.73 495.09 297.49 495.62 298.27 496.11 299.07 496.58 299.89 497 300.73 497.4 301.58 497.75 302.45 498.07 303.33 498.36 304.22 498.6 305.12 498.81 306.03 498.97 306.95 499.1 307.87 499.19 308.8 499.24 309.72 499.25 310.65 499.22 311.57 499.15 312.49 499.04 313.4 498.89 314.31 498.71 315.21 498.48 316.09 498.22 316.97 497.92 317.83 497.58 318.67 497.21 319.5 496.79 320.31 496.35 321.11 495.87 321.88 495.36 322.62 494.81 323.35 494.23 324.05 493.63 324.72 492.99 325.36 492.33 325.98 491.63 326.56 490.92 327.11 490.18 327.63 489.41 328.12 488.62 328.58 487.82 329 486.99 329.38 486.15 329.73 485.29 330.04 484.42 330.31 483.54 330.54 482.64 330.74 481.74 330.9 480.83 331.02 479.91 331.1 478.99 331.14 478.06 331.14 477.14 331.1 476.21 331.02 475.29 330.9 474.37 330.74 473.46 330.54 472.56 330.31 471.66 330.04 470.78 329.73 469.91 329.38 469.05 329 468.21 328.58 467.38 328.12 466.58 327.63 465.79 327.11 465.02 326.56 464.28 325.98 463.57 325.36 462.87 324.72 462.21 324.05 461.57 323.35 460.97 322.62 460.39 321.88 459.84 321.11 459.33 320.32 458.85 319.5 458.41 318.67 457.99 317.83 457.62 316.97 457.28 316.09 456.98 315.21 456.72 314.31 456.49 313.4 456.31 312.49 456.16 311.57 456.05 310.65 455.98 309.72 455.95 308.8 455.96 307.87 456.01 306.95 456.1 306.03 456.23 305.12 456.39 304.22 456.6 303.33 456.84 302.45 457.13 301.58 457.45 300.73 457.8 299.89 458.2 299.07 458.62 298.27 459.09 297.49 459.58 296.73 460.11 295.99 460.67 295.28 461.27 294.6 461.89 293.94 462.54 293.31 463.22 292.71 463.92 292.14 464.65 291.6 465.4 291.1 466.18 290.63 466.98 290.19 467.79 289.79 468.63 289.42 469.48 289.09 470.34 288.8 471.22 288.55 472.11 288.33 473.01 288.16 473.92 288.02 474.83 287.92 475.75 287.86 476.67 287.84 477.6 M 387.84 477.6 387.86 478.53 387.92 479.45 388.02 480.37 388.16 481.28 388.33 482.19 388.55 483.09 388.8 483.98 389.09 484.86 389.42 485.72 389.79 486.57 390.19 487.41 390.63 488.22 391.1 489.02 391.6 489.8 392.14 490.55 392.71 491.28 393.31 491.98 393.94 492.66 394.6 493.31 395.28 493.93 395.99 494.53 396.73 495.09 397.49 495.62 398.27 496.11 399.07 496.58 399.89 497 400.73 497.4 401.58 497.75 402.45 498.07 403.33 498.36 404.22 498.6 405.12 498.81 406.03 498.97 406.95 499.1 407.87 499.19 408.8 499.24 409.72 499.25 410.65 499.22 411.57 499.15 412.49 499.04 413.4 498.89 414.31 498.71 415.21 498.48 416.09 498.22 416.97 497.92 417.83 497.58 418.67 497.21 419.5 496.79 420.31 496.35 421.11 495.87 421.88 495.36 422.62 494.81 423.35 494.23 424.05 493.63 424.72 492.99 425.36 492.33 425.98 491.63 426.56 490.92 427.11 490.18 427.63 489.41 428.12 488.62 428.58 487.82 429 486.99 429.38 486.15 429.73 485.29 430.04 484.42 430.31 483.54 430.54 482.64 430.74 481.74 430.9 480.83 431.02 479.91 431.1 478.99 431.14 478.06 431.14 477.14 431.1 476.21 431.02 475.29 430.9 474.37 430.74 473.46 430.54 472.56 430.31 471.66 430.04 470.78 429.73 469.91 429.38 469.05 429 468.21 428.58 467.38 428.12 466.58 427.63 465.79 427.11 465.02 426.56 464.28 425.98 463.57 425.36 462.87 424.72 462.21 424.05 461.57 423.35 460.97 422.62 460.39 421.88 459.84 421.11 459.33 420.32 458.85 419.5 458.41 418.67 457.99 417.83 457.62 416.97 457.28 416.09 456.98 415.21 456.72 414.31 456.49 413.4 456.31 412.49 456.16 411.57 456.05 410.65 455.98 409.72 455.95 408.8 455.96 407.87 456.01 406.95 456.1 406.03 456.23 405.12 456.39 404.22 456.6 403.33 456.84 402.45 457.13 401.58 457.45 400.73 457.8 399.89 458.2 399.07 458.62 398.27 459.09 397.49 459.58 396.73 460.11 395.99 460.67 395.28 461.27 394.6 461.89 393.94 462.54 393.31 463.22 392.71 463.92 392.14 464.65 391.6 465.4 391.1 466.18 390.63 466.98 390.19 467.79 389.79 468.63 389.42 469.48 389.09 470.34 388.8 471.22 388.55 472.11 388.33 473.01 388.16 473.92 388.02 474.83 387.92 475.75 387.86 476.67 387.84 477.6 M 387.84 577.6 387.86 578.53 387.92 579.45 388.02 580.37 388.16 581.28 388.33 582.19 388.55 583.09 388.8 583.98 389.09 584.86 389.42 585.72 389.79 586.57 390.19 587.41 390.63 588.22 391.1 589.02 391.6 589.8 392.14 590.55 392.71 591.28 393.31 591.98 393.94 592.66 394.6 593.31 395.28 593.93 395.99 594.53 396.73 595.09 397.49 595.62 398.27 596.11 399.07 596.58 399.89 597 400.73 597.4 401.58 597.75 402.45 598.07 403.33 598.36 404.22 598.6 405.12 598.81 406.03 598.97 406.95 599.1 407.87 599.19 408.8 599.24 409.72 599.25 410.65 599.22 411.57 599.15 412.49 599.04 413.4 598.89 414.31 598.71 415.21 598.48 416.09 598.22 416.97 597.92 417.83 597.58 418.67 597.21 419.5 596.79 420.31 596.35 421.11 595.87 421.88 595.36 422.62 594.81 423.35 594.23 424.05 593.63 424.72 592.99 425.36 592.33 425.98 591.63 426.56 590.92 427.11 590.18 427.63 589.41 428.12 588.62 428.58 587.82 429 586.99 429.38 586.15 429.73 585.29 430.04 584.42 430.31 583.54 430.54 582.64 430.74 581.74 430.9 580.83 431.02 579.91 431.1 578.99 431.14 578.06 431.14 577.14 431.1 576.21 431.02 575.29 430.9 574.37 430.74 573.46 430.54 572.56 430.31 571.66 430.04 570.78 429.73 569.91 429.38 569.05 429 568.21 428.58 567.38 428.12 566.58 427.63 565.79 427.11 565.02 426.56 564.28 425.98 563.57 425.36 562.87 424.72 562.21 424.05 561.57 423.35 560.97 422.62 560.39 421.88 559.84 421.11 559.33 420.32 558.85 419.5 558.41 418.67 557.99 417.83 557.62 416.97 557.28 416.09 556.98 415.21 556.72 414.31 556.49 413.4 556.31 412.49 556.16 411.57 556.05 410.65 555.98 409.72 555.95 408.8 555.96 407.87 556.01 406.95 556.1 406.03 556.23 405.12 556.39 404.22 556.6 403.33 556.84 402.45 557.13 401.58 557.45 400.73 557.8 399.89 558.2 399.07 558.62 398.27 559.09 397.49 559.58 396.73 560.11 395.99 560.67 395.28 561.27 394.6 561.89 393.94 562.54 393.31 563.22 392.71 563.92 392.14 564.65 391.6 565.4 391.1 566.18 390.63 566.98 390.19 567.79 389.79 568.63 389.42 569.48 389.09 570.34 388.8 571.22 388.55 572.11 388.33 573.01 388.16 573.92 388.02 574.83 387.92 575.75 387.86 576.67 387.84 577.6 M 287.84 577.6 287.86 578.53 287.92 579.45 288.02 580.37 288.16 581.28 288.33 582.19 288.55 583.09 288.8 583.98 289.09 584.86 289.42 585.72 289.79 586.57 290.19 587.41 290.63 588.22 291.1 589.02 291.6 589.8 292.14 590.55 292.71 591.28 293.31 591.98 293.94 592.66 294.6 593.31 295.28 593.93 295.99 594.53 296.73 595.09 297.49 595.62 298.27 596.11 299.07 596.58 299.89 597 300.73 597.4 301.58 597.75 302.45 598.07 303.33 598.36 304.22 598.6 305.12 598.81 306.03 598.97 306.95 599.1 307.87 599.19 308.8 599.24 309.72 599.25 310.65 599.22 311.57 599.15 312.49 599.04 313.4 598.89 314.31 598.71 315.21 598.48 316.09 598.22 316.97 597.92 317.83 597.58 318.67 597.21 319.5 596.79 320.31 596.35 321.11 595.87 321.88 595.36 322.62 594.81 323.35 594.23 324.05 593.63 324.72 592.99 325.36 592.33 325.98 591.63 326.56 590.92 327.11 590.18 327.63 589.41 328.12 588.62 328.58 587.82 329 586.99 329.38 586.15 329.73 585.29 330.04 584.42 330.31 583.54 330.54 582.64 330.74 581.74 330.9 580.83 331.02 579.91 331.1 578.99 331.14 578.06 331.14 577.14 331.1 576.21 331.02 575.29 330.9 574.37 330.74 573.46 330.54 572.56 330.31 571.66 330.04 570.78 329.73 569.91 329.38 569.05 329 568.21 328.58 567.38 328.12 566.58 327.63 565.79 327.11 565.02 326.56 564.28 325.98 563.57 325.36 562.87 324.72 562.21 324.05 561.57 323.35 560.97 322.62 560.39 321.88 559.84 321.11 559.33 320.32 558.85 319.5 558.41 318.67 557.99 317.83 557.62 316.97 557.28 316.09 556.98 315.21 556.72 314.31 556.49 313.4 556.31 312.49 556.16 311.57 556.05 310.65 555.98 309.72 555.95 308.8 555.96 307.87 556.01 306.95 556.1 306.03 556.23 305.12 556.39 304.22 556.6 303.33 556.84 302.45 557.13 301.58 557.45 300.73 557.8 299.89 558.2 299.07 558.62 298.27 559.09 297.49 559.58 296.73 560.11 295.99 560.67 295.28 561.27 294.6 561.89 293.94 562.54 293.31 563.22 292.71 563.92 292.14 564.65 291.6 565.4 291.1 566.18 290.63 566.98 290.19 567.79 289.79 568.63 289.42 569.48 289.09 570.34 288.8 571.22 288.55 572.11 288.33 573.01 288.16 573.92 288.02 574.83 287.92 575.75 287.86 576.67 287.84 577.6 M 1114.61 577.6 1114.63 578.53 1114.69 579.45 1114.79 580.37 1114.93 581.28 1115.1 582.19 1115.32 583.09 1115.57 583.98 1115.86 584.86 1116.19 585.72 1116.56 586.57 1116.96 587.41 1117.4 588.22 1117.87 589.02 1118.37 589.8 1118.91 590.55 1119.48 591.28 1120.08 591.98 1120.71 592.66 1121.37 593.31 1122.05 593.93 1122.76 594.53 1123.5 595.09 1124.26 595.62 1125.04 596.11 1125.84 596.58 1126.66 597 1127.5 597.4 1128.35 597.75 1129.22 598.07 1130.1 598.36 1130.99 598.6 1131.89 598.81 1132.8 598.97 1133.72 599.1 1134.64 599.19 1135.57 599.24 1136.49 599.25 1137.42 599.22 1138.34 599.15 1139.26 599.04 1140.17 598.89 1141.08 598.71 1141.98 598.48 1142.86 598.22 1143.74 597.92 1144.6 597.58 1145.44 597.21 1146.27 596.79 1147.08 596.35 1147.88 595.87 1148.65 595.36 1149.39 594.81 1150.12 594.23 1150.82 593.63 1151.49 592.99 1152.13 592.33 1152.75 591.63 1153.33 590.92 1153.88 590.18 1154.4 589.41 1154.89 588.62 1155.35 587.82 1155.77 586.99 1156.15 586.15 1156.5 585.29 1156.81 584.42 1157.08 583.54 1157.31 582.64 1157.51 581.74 1157.67 580.83 1157.79 579.91 1157.87 578.99 1157.91 578.06 1157.91 577.14 1157.87 576.21 1157.79 575.29 1157.67 574.37 1157.51 573.46 1157.31 572.56 1157.08 571.66 1156.81 570.78 1156.5 569.91 1156.15 569.05 1155.77 568.21 1155.35 567.38 1154.89 566.58 1154.4 565.79 1153.88 565.02 1153.33 564.28 1152.75 563.57 1152.13 562.87 1151.49 562.21 1150.82 561.57 1150.12 560.97 1149.39 560.39 1148.65 559.84 1147.88 559.33 1147.09 558.85 1146.27 558.41 1145.44 557.99 1144.6 557.62 1143.74 557.28 1142.86 556.98 1141.98 556.72 1141.08 556.49 1140.17 556.31 1139.26 556.16 1138.34 556.05 1137.42 555.98 1136.49 555.95 1135.57 555.96 1134.64 556.01 1133.72 556.1 1132.8 556.23 1131.89 556.39 1130.99 556.6 1130.1 556.84 1129.22 557.13 1128.35 557.45 1127.5 557.8 1126.66 558.2 1125.84 558.62 1125.04 559.09 1124.26 559.58 1123.5 560.11 1122.76 560.67 1122.05 561.27 1121.37 561.89 1120.71 562.54 1120.08 563.22 1119.48 563.92 1118.91 564.65 1118.37 565.4 1117.87 566.18 1117.4 566.98 1116.96 567.79 1116.56 568.63 1116.19 569.48 1115.86 570.34 1115.57 571.22 1115.32 572.11 1115.1 573.01 1114.93 573.92 1114.79 574.83 1114.69 575.75 1114.63 576.67 1114.61 577.6 M 1214.61 577.6 1214.63 578.53 1214.69 579.45 1214.79 580.37 1214.93 581.28 1215.1 582.19 1215.32 583.09 1215.57 583.98 1215.86 584.86 1216.19 585.72 1216.56 586.57 1216.96 587.41 1217.4 588.22 1217.87 589.02 1218.37 589.8 1218.91 590.55 1219.48 591.28 1220.08 591.98 1220.71 592.66 1221.37 593.31 1222.05 593.93 1222.76 594.53 1223.5 595.09 1224.26 595.62 1225.04 596.11 1225.84 596.58 1226.66 597 1227.5 597.4 1228.35 597.75 1229.22 598.07 1230.1 598.36 1230.99 598.6 1231.89 598.81 1232.8 598.97 1233.72 599.1 1234.64 599.19 1235.57 599.24 1236.49 599.25 1237.42 599.22 1238.34 599.15 1239.26 599.04 1240.17 598.89 1241.08 598.71 1241.98 598.48 1242.86 598.22 1243.74 597.92 1244.6 597.58 1245.44 597.21 1246.27 596.79 1247.08 596.35 1247.88 595.87 1248.65 595.36 1249.39 594.81 1250.12 594.23 1250.82 593.63 1251.49 592.99 1252.13 592.33 1252.75 591.63 1253.33 590.92 1253.88 590.18 1254.4 589.41 1254.89 588.62 1255.35 587.82 1255.77 586.99 1256.15 586.15 1256.5 585.29 1256.81 584.42 1257.08 583.54 1257.31 582.64 1257.51 581.74 1257.67 580.83 1257.79 579.91 1257.87 578.99 1257.91 578.06 1257.91 577.14 1257.87 576.21 1257.79 575.29 1257.67 574.37 1257.51 573.46 1257.31 572.56 1257.08 571.66 1256.81 570.78 1256.5 569.91 1256.15 569.05 1255.77 568.21 1255.35 567.38 1254.89 566.58 1254.4 565.79 1253.88 565.02 1253.33 564.28 1252.75 563.57 1252.13 562.87 1251.49 562.21 1250.82 561.57 1250.12 560.97 1249.39 560.39 1248.65 559.84 1247.88 559.33 1247.09 558.85 1246.27 558.41 1245.44 557.99 1244.6 557.62 1243.74 557.28 1242.86 556.98 1241.98 556.72 1241.08 556.49 1240.17 556.31 1239.26 556.16 1238.34 556.05 1237.42 555.98 1236.49 555.95 1235.57 555.96 1234.64 556.01 1233.72 556.1 1232.8 556.23 1231.89 556.39 1230.99 556.6 1230.1 556.84 1229.22 557.13 1228.35 557.45 1227.5 557.8 1226.66 558.2 1225.84 558.62 1225.04 559.09 1224.26 559.58 1223.5 560.11 1222.76 560.67 1222.05 561.27 1221.37 561.89 1220.71 562.54 1220.08 563.22 1219.48 563.92 1218.91 564.65 1218.37 565.4 1217.87 566.18 1217.4 566.98 1216.96 567.79 1216.56 568.63 1216.19 569.48 1215.86 570.34 1215.57 571.22 1215.32 572.11 1215.1 573.01 1214.93 573.92 1214.79 574.83 1214.69 575.75 1214.63 576.67 1214.61 577.6 M 1214.61 477.6 1214.63 478.53 1214.69 479.45 1214.79 480.37 1214.93 481.28 1215.1 482.19 1215.32 483.09 1215.57 483.98 1215.86 484.86 1216.19 485.72 1216.56 486.57 1216.96 487.41 1217.4 488.22 1217.87 489.02 1218.37 489.8 1218.91 490.55 1219.48 491.28 1220.08 491.98 1220.71 492.66 1221.37 493.31 1222.05 493.93 1222.76 494.53 1223.5 495.09 1224.26 495.62 1225.04 496.11 1225.84 496.58 1226.66 497 1227.5 497.4 1228.35 497.75 1229.22 498.07 1230.1 498.36 1230.99 498.6 1231.89 498.81 1232.8 498.97 1233.72 499.1 1234.64 499.19 1235.57 499.24 1236.49 499.25 1237.42 499.22 1238.34 499.15 1239.26 499.04 1240.17 498.89 1241.08 498.71 1241.98 498.48 1242.86 498.22 1243.74 497.92 1244.6 497.58 1245.44 497.21 1246.27 496.79 1247.08 496.35 1247.88 495.87 1248.65 495.36 1249.39 494.81 1250.12 494.23 1250.82 493.63 1251.49 492.99 1252.13 492.33 1252.75 491.63 1253.33 490.92 1253.88 490.18 1254.4 489.41 1254.89 488.62 1255.35 487.82 1255.77 486.99 1256.15 486.15 1256.5 485.29 1256.81 484.42 1257.08 483.54 1257.31 482.64 1257.51 481.74 1257.67 480.83 1257.79 479.91 1257.87 478.99 1257.91 478.06 1257.91 477.14 1257.87 476.21 1257.79 475.29 1257.67 474.37 1257.51 473.46 1257.31 472.56 1257.08 471.66 1256.81 470.78 1256.5 469.91 1256.15 469.05 1255.77 468.21 1255.35 467.38 1254.89 466.58 1254.4 465.79 1253.88 465.02 1253.33 464.28 1252.75 463.57 1252.13 462.87 1251.49 462.21 1250.82 461.57 1250.12 460.97 1249.39 460.39 1248.65 459.84 1247.88 459.33 1247.09 458.85 1246.27 458.41 1245.44 457.99 1244.6 457.62 1243.74 457.28 1242.86 456.98 1241.98 456.72 1241.08 456.49 1240.17 456.31 1239.26 456.16 1238.34 456.05 1237.42 455.98 1236.49 455.95 1235.57 455.96 1234.64 456.01 1233.72 456.1 1232.8 456.23 1231.89 456.39 1230.99 456.6 1230.1 456.84 1229.22 457.13 1228.35 457.45 1227.5 457.8 1226.66 458.2 1225.84 458.62 1225.04 459.09 1224.26 459.58 1223.5 460.11 1222.76 460.67 1222.05 461.27 1221.37 461.89 1220.71 462.54 1220.08 463.22 1219.48 463.92 1218.91 464.65 1218.37 465.4 1217.87 466.18 1217.4 466.98 1216.96 467.79 1216.56 468.63 1216.19 469.48 1215.86 470.34 1215.57 471.22 1215.32 472.11 1215.1 473.01 1214.93 473.92 1214.79 474.83 1214.69 475.75 1214.63 476.67 1214.61 477.6 M 1114.61 477.6 1114.63 478.53 1114.69 479.45 1114.79 480.37 1114.93 481.28 1115.1 482.19 1115.32 483.09 1115.57 483.98 1115.86 484.86 1116.19 485.72 1116.56 486.57 1116.96 487.41 1117.4 488.22 1117.87 489.02 1118.37 489.8 1118.91 490.55 1119.48 491.28 1120.08 491.98 1120.71 492.66 1121.37 493.31 1122.05 493.93 1122.76 494.53 1123.5 495.09 1124.26 495.62 1125.04 496.11 1125.84 496.58 1126.66 497 1127.5 497.4 1128.35 497.75 1129.22 498.07 1130.1 498.36 1130.99 498.6 1131.89 498.81 1132.8 498.97 1133.72 499.1 1134.64 499.19 1135.57 499.24 1136.49 499.25 1137.42 499.22 1138.34 499.15 1139.26 499.04 1140.17 498.89 1141.08 498.71 1141.98 498.48 1142.86 498.22 1143.74 497.92 1144.6 497.58 1145.44 497.21 1146.27 496.79 1147.08 496.35 1147.88 495.87 1148.65 495.36 1149.39 494.81 1150.12 494.23 1150.82 493.63 1151.49 492.99 1152.13 492.33 1152.75 491.63 1153.33 490.92 1153.88 490.18 1154.4 489.41 1154.89 488.62 1155.35 487.82 1155.77 486.99 1156.15 486.15 1156.5 485.29 1156.81 484.42 1157.08 483.54 1157.31 482.64 1157.51 481.74 1157.67 480.83 1157.79 479.91 1157.87 478.99 1157.91 478.06 1157.91 477.14 1157.87 476.21 1157.79 475.29 1157.67 474.37 1157.51 473.46 1157.31 472.56 1157.08 471.66 1156.81 470.78 1156.5 469.91 1156.15 469.05 1155.77 468.21 1155.35 467.38 1154.89 466.58 1154.4 465.79 1153.88 465.02 1153.33 464.28 1152.75 463.57 1152.13 462.87 1151.49 462.21 1150.82 461.57 1150.12 460.97 1149.39 460.39 1148.65 459.84 1147.88 459.33 1147.09 458.85 1146.27 458.41 1145.44 457.99 1144.6 457.62 1143.74 457.28 1142.86 456.98 1141.98 456.72 1141.08 456.49 1140.17 456.31 1139.26 456.16 1138.34 456.05 1137.42 455.98 1136.49 455.95 1135.57 455.96 1134.64 456.01 1133.72 456.1 1132.8 456.23 1131.89 456.39 1130.99 456.6 1130.1 456.84 1129.22 457.13 1128.35 457.45 1127.5 457.8 1126.66 458.2 1125.84 458.62 1125.04 459.09 1124.26 459.58 1123.5 460.11 1122.76 460.67 1122.05 461.27 1121.37 461.89 1120.71 462.54 1120.08 463.22 1119.48 463.92 1118.91 464.65 1118.37 465.4 1117.87 466.18 1117.4 466.98 1116.96 467.79 1116.56 468.63 1116.19 469.48 1115.86 470.34 1115.57 471.22 1115.32 472.11 1115.1 473.01 1114.93 473.92 1114.79 474.83 1114.69 475.75 1114.63 476.67 1114.61 477.6 M 1114.61 377.6 1114.63 378.53 1114.69 379.45 1114.79 380.37 1114.93 381.28 1115.1 382.19 1115.32 383.09 1115.57 383.98 1115.86 384.86 1116.19 385.72 1116.56 386.57 1116.96 387.41 1117.4 388.22 1117.87 389.02 1118.37 389.8 1118.91 390.55 1119.48 391.28 1120.08 391.98 1120.71 392.66 1121.37 393.31 1122.05 393.93 1122.76 394.53 1123.5 395.09 1124.26 395.62 1125.04 396.11 1125.84 396.58 1126.66 397 1127.5 397.4 1128.35 397.75 1129.22 398.07 1130.1 398.36 1130.99 398.6 1131.89 398.81 1132.8 398.97 1133.72 399.1 1134.64 399.19 1135.57 399.24 1136.49 399.25 1137.42 399.22 1138.34 399.15 1139.26 399.04 1140.17 398.89 1141.08 398.71 1141.98 398.48 1142.86 398.22 1143.74 397.92 1144.6 397.58 1145.44 397.21 1146.27 396.79 1147.08 396.35 1147.88 395.87 1148.65 395.36 1149.39 394.81 1150.12 394.23 1150.82 393.63 1151.49 392.99 1152.13 392.33 1152.75 391.63 1153.33 390.92 1153.88 390.18 1154.4 389.41 1154.89 388.62 1155.35 387.82 1155.77 386.99 1156.15 386.15 1156.5 385.29 1156.81 384.42 1157.08 383.54 1157.31 382.64 1157.51 381.74 1157.67 380.83 1157.79 379.91 1157.87 378.99 1157.91 378.06 1157.91 377.14 1157.87 376.21 1157.79 375.29 1157.67 374.37 1157.51 373.46 1157.31 372.56 1157.08 371.66 1156.81 370.78 1156.5 369.91 1156.15 369.05 1155.77 368.21 1155.35 367.38 1154.89 366.58 1154.4 365.79 1153.88 365.02 1153.33 364.28 1152.75 363.57 1152.13 362.87 1151.49 362.21 1150.82 361.57 1150.12 360.97 1149.39 360.39 1148.65 359.84 1147.88 359.33 1147.09 358.85 1146.27 358.41 1145.44 357.99 1144.6 357.62 1143.74 357.28 1142.86 356.98 1141.98 356.72 1141.08 356.49 1140.17 356.31 1139.26 356.16 1138.34 356.05 1137.42 355.98 1136.49 355.95 1135.57 355.96 1134.64 356.01 1133.72 356.1 1132.8 356.23 1131.89 356.39 1130.99 356.6 1130.1 356.84 1129.22 357.13 1128.35 357.45 1127.5 357.8 1126.66 358.2 1125.84 358.62 1125.04 359.09 1124.26 359.58 1123.5 360.11 1122.76 360.67 1122.05 361.27 1121.37 361.89 1120.71 362.54 1120.08 363.22 1119.48 363.92 1118.91 364.65 1118.37 365.4 1117.87 366.18 1117.4 366.98 1116.96 367.79 1116.56 368.63 1116.19 369.48 1115.86 370.34 1115.57 371.22 1115.32 372.11 1115.1 373.01 1114.93 373.92 1114.79 374.83 1114.69 375.75 1114.63 376.67 1114.61 377.6 M 1214.61 377.6 1214.63 378.53 1214.69 379.45 1214.79 380.37 1214.93 381.28 1215.1 382.19 1215.32 383.09 1215.57 383.98 1215.86 384.86 1216.19 385.72 1216.56 386.57 1216.96 387.41 1217.4 388.22 1217.87 389.02 1218.37 389.8 1218.91 390.55 1219.48 391.28 1220.08 391.98 1220.71 392.66 1221.37 393.31 1222.05 393.93 1222.76 394.53 1223.5 395.09 1224.26 395.62 1225.04 396.11 1225.84 396.58 1226.66 397 1227.5 397.4 1228.35 397.75 1229.22 398.07 1230.1 398.36 1230.99 398.6 1231.89 398.81 1232.8 398.97 1233.72 399.1 1234.64 399.19 1235.57 399.24 1236.49 399.25 1237.42 399.22 1238.34 399.15 1239.26 399.04 1240.17 398.89 1241.08 398.71 1241.98 398.48 1242.86 398.22 1243.74 397.92 1244.6 397.58 1245.44 397.21 1246.27 396.79 1247.08 396.35 1247.88 395.87 1248.65 395.36 1249.39 394.81 1250.12 394.23 1250.82 393.63 1251.49 392.99 1252.13 392.33 1252.75 391.63 1253.33 390.92 1253.88 390.18 1254.4 389.41 1254.89 388.62 1255.35 387.82 1255.77 386.99 1256.15 386.15 1256.5 385.29 1256.81 384.42 1257.08 383.54 1257.31 382.64 1257.51 381.74 1257.67 380.83 1257.79 379.91 1257.87 378.99 1257.91 378.06 1257.91 377.14 1257.87 376.21 1257.79 375.29 1257.67 374.37 1257.51 373.46 1257.31 372.56 1257.08 371.66 1256.81 370.78 1256.5 369.91 1256.15 369.05 1255.77 368.21 1255.35 367.38 1254.89 366.58 1254.4 365.79 1253.88 365.02 1253.33 364.28 1252.75 363.57 1252.13 362.87 1251.49 362.21 1250.82 361.57 1250.12 360.97 1249.39 360.39 1248.65 359.84 1247.88 359.33 1247.09 358.85 1246.27 358.41 1245.44 357.99 1244.6 357.62 1243.74 357.28 1242.86 356.98 1241.98 356.72 1241.08 356.49 1240.17 356.31 1239.26 356.16 1238.34 356.05 1237.42 355.98 1236.49 355.95 1235.57 355.96 1234.64 356.01 1233.72 356.1 1232.8 356.23 1231.89 356.39 1230.99 356.6 1230.1 356.84 1229.22 357.13 1228.35 357.45 1227.5 357.8 1226.66 358.2 1225.84 358.62 1225.04 359.09 1224.26 359.58 1223.5 360.11 1222.76 360.67 1222.05 361.27 1221.37 361.89 1220.71 362.54 1220.08 363.22 1219.48 363.92 1218.91 364.65 1218.37 365.4 1217.87 366.18 1217.4 366.98 1216.96 367.79 1216.56 368.63 1216.19 369.48 1215.86 370.34 1215.57 371.22 1215.32 372.11 1215.1 373.01 1214.93 373.92 1214.79 374.83 1214.69 375.75 1214.63 376.67 1214.61 377.6" fill="none" stroke-width="0"/><use xlink:href="#R5cQ58ACGsMxqs8wFAsp_pad-11" x="950.04" y="477.6"/><use xlink:href="#R5cQ58ACGsMxqs8wFAsp_pad-11" x="595.71" y="477.6"/><use xlink:href="#R5cQ58ACGsMxqs8wFAsp_pad-11" x="674.45" y="723.66"/><use xlink:href="#R5cQ58ACGsMxqs8wFAsp_pad-11" x="871.3" y="723.66"/><use xlink:href="#R5cQ58ACGsMxqs8wFAsp_pad-11" x="871.3" y="231.54"/><use xlink:href="#R5cQ58ACGsMxqs8wFAsp_pad-11" x="674.45" y="231.54"/><use xlink:href="#R5cQ58ACGsMxqs8wFAsp_pad-12" x="472.87" y="477.6"/><use xlink:href="#R5cQ58ACGsMxqs8wFAsp_pad-12" x="1072.87" y="477.6"/><use xlink:href="#R5cQ58ACGsMxqs8wFAsp_pad-13" x="674.45" y="603.58"/><use xlink:href="#R5cQ58ACGsMxqs8wFAsp_pad-13" x="304.37" y="430.35"/><use xlink:href="#R5cQ58ACGsMxqs8wFAsp_pad-13" x="524.84" y="320.12"/><use xlink:href="#R5cQ58ACGsMxqs8wFAsp_pad-13" x="627.2" y="367.36"/><path d="M 627.2 367.36 599.65 394.92 516.97 477.6 472.87 477.6 M 414.61 430.35 524.84 320.12 M 674.45 367.36 674.45 603.58 M 414.61 430.35 304.37 430.35 M 942.17 390.98 942.17 367.36 M 942.17 390.98 965.79 414.61 1099.65 414.61 1115.39 430.35 1272.87 430.35 1296.5 453.98 1296.5 477.6" fill="none" stroke-width="16"/><path d="M 1270.73 490.16 1267.33 498.36 1257.02 508.67 1243.55 514.25 1228.97 514.25 1215.5 508.67 1205.19 498.36 1199.61 484.89 1199.61 470.31 1205.19 456.84 1208.67 453.35 1163.85 453.35 1167.33 456.84 1172.91 470.31 1172.91 484.89 1167.33 498.36 1157.02 508.67 1143.55 514.25 1128.97 514.25 1115.5 508.67 1115.45 508.62 1114.4 510.43 1111.61 513.22 1108.19 515.2 1104.38 516.22 1077.87 516.22 1077.87 482.6 1067.87 482.6 1067.87 472.6 1028.35 472.6 1028.35 452 1029.37 448.19 1031.34 444.77 1034.14 441.97 1037.56 440 1041.37 438.98 1067.87 438.98 1067.87 472.6 1077.87 472.6 1077.87 438.98 1091.49 438.98 1090.12 437.61 981.37 437.61 992.79 449.03 1000.47 467.57 1000.47 487.63 992.79 506.17 978.61 520.35 960.07 528.03 940.01 528.03 921.47 520.35 907.28 506.17 899.61 487.63 899.61 467.57 907.28 449.03 921.47 434.84 940.01 427.17 945.82 427.17 932.64 413.98 919.17 400.51 919.17 382.69 915.06 378.59 915.06 356.14 930.94 340.26 953.39 340.26 969.27 356.14 969.27 378.59 965.78 382.07 975.31 391.61 1102.39 391.61 1099.61 384.89 1099.61 370.31 1105.19 356.84 1115.5 346.52 1128.97 340.94 1143.55 340.94 1157.02 346.52 1167.33 356.84 1172.91 370.31 1172.91 384.89 1167.33 398.36 1158.34 407.35 1214.18 407.35 1205.19 398.36 1199.61 384.89 1199.61 370.31 1205.19 356.84 1215.5 346.52 1228.97 340.94 1243.55 340.94 1257.02 346.52 1267.33 356.84 1272.91 370.31 1272.91 384.89 1267.33 398.36 1258.34 407.35 1282.4 407.35 1295.87 420.83 1319.5 444.45 1319.5 462.27 1323.6 466.37 1323.6 488.82 1307.72 504.7 1285.27 504.7 1270.73 490.16 M 1266.99 498.7 1279.27 498.7 M 1256.98 508.69 1340.55 508.69 M 1340.55 518.67 980.29 518.67 M 990.27 508.69 1030.34 508.69 M 1029.37 507.01 1028.35 503.2 1028.35 482.6 1067.87 482.6 1067.87 516.22 1041.37 516.22 1037.56 515.2 1034.14 513.22 1031.34 510.43 1029.37 507.01 M 1028.35 498.7 995.89 498.7 M 1000.02 488.72 1028.35 488.72 M 1028.35 468.75 1000.47 468.75 M 1000.47 478.73 1067.87 478.73 M 1067.87 468.75 1077.87 468.75 M 1077.87 458.76 1067.87 458.76 M 1067.87 448.78 1077.87 448.78 M 1091.3 438.79 982.56 438.79 M 992.54 448.78 1029.21 448.78 M 1028.35 458.76 996.83 458.76 M 936.05 428.81 697.45 428.81 M 697.45 438.79 917.52 438.79 M 907.54 448.78 697.45 448.78 M 697.45 458.76 903.25 458.76 M 899.61 468.75 697.45 468.75 M 697.45 478.73 899.61 478.73 M 900.06 488.72 697.45 488.72 M 697.45 498.7 904.19 498.7 M 909.81 508.69 697.45 508.69 M 697.45 518.67 919.79 518.67 M 1067.87 508.69 1077.87 508.69 M 1077.87 498.7 1067.87 498.7 M 1067.87 488.72 1077.87 488.72 M 1115.41 508.69 1115.53 508.69 M 1128.97 540.94 1143.55 540.94 1157.02 546.52 1167.33 556.84 1172.91 570.31 1172.91 584.89 1167.33 598.36 1157.02 608.67 1143.55 614.25 1128.97 614.25 1115.5 608.67 1105.19 598.36 1099.61 584.89 1099.61 570.31 1105.19 556.84 1115.5 546.52 1128.97 540.94 M 1113.39 548.63 697.45 548.63 M 697.45 558.61 1104.45 558.61 M 1100.31 568.6 697.45 568.6 M 697.45 578.58 1099.61 578.58 M 1101.13 588.57 697.48 588.57 M 697.45 588.53 701.35 592.44 701.35 614.73 685.59 630.49 663.3 630.49 647.54 614.73 647.54 592.44 651.45 588.53 651.45 382.69 650.69 381.93 638.35 394.27 632.83 394.27 609.17 417.92 599.93 427.17 605.74 427.17 624.28 434.84 638.46 449.03 646.14 467.57 646.14 487.63 638.46 506.17 624.28 520.35 605.74 528.03 585.68 528.03 567.14 520.35 552.95 506.17 545.28 487.63 545.28 481.82 526.5 500.6 517.4 500.6 517.4 507.43 508.61 516.22 437.13 516.22 429.78 508.87 416.78 514.25 402.2 514.25 388.73 508.67 378.41 498.36 372.83 484.89 372.83 470.31 378.41 456.84 381.9 453.35 337.08 453.35 340.56 456.84 346.14 470.31 346.14 484.89 340.56 498.36 330.25 508.67 316.78 514.25 302.2 514.25 288.73 508.67 278.41 498.36 272.83 484.89 272.83 470.31 278.41 456.84 285.61 449.64 277.46 441.5 277.46 419.21 288.36 408.31 278.41 398.36 272.83 384.89 272.83 370.31 278.41 356.84 288.73 346.52 302.2 340.94 316.78 340.94 330.25 346.52 340.56 356.84 346.14 370.31 346.14 384.89 340.56 398.36 331.57 407.35 387.41 407.35 378.41 398.36 372.83 384.89 372.83 370.31 378.41 356.84 388.73 346.52 402.2 340.94 416.78 340.94 430.25 346.52 440.56 356.84 444.97 367.47 483.39 329.05 468.73 335.12 229.57 335.12 224.81 335.59 216.03 339.23 209.3 345.95 205.66 354.73 205.2 359.49 205.2 595.71 205.66 600.46 209.3 609.25 216.03 615.97 224.81 619.61 229.57 620.08 468.73 620.08 488.71 628.36 488.71 628.36 504.01 643.65 512.28 663.63 512.28 713.82 512.75 718.57 516.39 727.36 523.11 734.08 531.9 737.72 536.65 738.19 625.88 738.19 624.02 733.69 624.02 713.63 631.69 695.09 645.88 680.91 664.42 673.23 684.48 673.23 703.02 680.91 717.2 695.09 724.88 713.63 724.88 733.69 723.02 738.19 822.99 738.19 822.11 735.47 821.03 728.66 866.3 728.66 866.3 718.66 876.3 718.66 876.3 673.39 883.11 674.47 890.66 676.92 897.73 680.53 904.15 685.19 909.77 690.81 914.43 697.23 918.04 704.3 920.49 711.85 921.57 718.66 876.3 718.66 876.3 728.66 921.57 728.66 920.49 735.47 919.61 738.19 1009.09 738.19 1013.85 737.72 1022.63 734.08 1029.36 727.36 1033 718.57 1033.46 713.82 1033.46 663.63 1041.74 643.65 1057.04 628.36 1077.02 620.08 1316.18 620.08 1320.94 619.61 1329.72 615.97 1336.44 609.25 1340.08 600.46 1340.55 595.71 1340.55 359.49 1340.08 354.73 1336.44 345.95 1329.72 339.23 1320.94 335.59 1316.18 335.12 1077.02 335.12 1057.04 326.84 1057.04 326.84 1041.74 311.55 1041.74 311.55 1033.46 291.56 1033.46 241.38 1033 236.62 1029.36 227.84 1022.63 221.11 1013.85 217.48 1009.09 217.01 919.61 217.01 920.49 219.73 921.57 226.54 876.3 226.54 876.3 236.54 866.3 236.54 866.3 281.81 859.49 280.73 851.94 278.27 844.87 274.67 838.44 270 832.83 264.39 828.16 257.97 824.56 250.89 822.11 243.35 821.03 236.54 866.3 236.54 866.3 226.54 821.03 226.54 822.11 219.73 822.99 217.01 723.02 217.01 724.88 221.5 724.88 241.57 717.2 260.1 703.02 274.29 701.45 274.94 701.45 356.03 701.55 356.14 701.55 378.59 697.45 382.69 697.45 588.53 M 701.35 598.55 1105.38 598.55 M 1115.36 608.54 701.35 608.54 M 697.56 618.52 1323.56 618.52 M 1329.72 615.97 1329.72 615.97 M 1336.74 608.54 1257.16 608.54 M 1257.02 608.67 1243.55 614.25 1228.97 614.25 1215.5 608.67 1205.19 598.36 1199.61 584.89 1199.61 570.31 1205.19 556.84 1215.5 546.52 1228.97 540.94 1243.55 540.94 1257.02 546.52 1267.33 556.84 1272.91 570.31 1272.91 584.89 1267.33 598.36 1257.02 608.67 M 1267.14 598.55 1340.27 598.55 M 1340.55 588.57 1271.39 588.57 M 1272.91 578.58 1340.55 578.58 M 1340.55 568.6 1272.21 568.6 M 1268.07 558.61 1340.55 558.61 M 1340.55 548.63 1259.13 548.63 M 1213.39 548.63 1159.13 548.63 M 1168.07 558.61 1204.45 558.61 M 1200.31 568.6 1172.21 568.6 M 1172.91 578.58 1199.61 578.58 M 1201.13 588.57 1171.39 588.57 M 1167.14 598.55 1205.38 598.55 M 1215.36 608.54 1157.16 608.54 M 1057.04 628.36 1057.04 628.36 M 1056.88 628.51 687.57 628.51 M 661.32 628.51 488.86 628.51 M 498.85 638.49 1046.9 638.49 M 1041.74 643.65 1041.74 643.65 M 1039.74 648.48 506.01 648.48 M 504.01 643.65 504.01 643.65 M 510.14 658.46 1035.61 658.46 M 1033.46 668.45 512.28 668.45 M 512.28 678.43 651.85 678.43 M 638.37 688.42 512.28 688.42 M 512.28 698.4 630.32 698.4 M 626.19 708.39 512.28 708.39 M 512.73 718.37 624.02 718.37 M 624.02 728.36 517.39 728.36 M 697.05 678.43 848.97 678.43 M 851.94 676.92 844.87 680.53 838.44 685.19 832.83 690.81 828.16 697.23 824.56 704.3 822.11 711.85 821.03 718.66 866.3 718.66 866.3 673.39 859.49 674.47 851.94 676.92 M 866.3 678.43 876.3 678.43 M 876.3 688.42 866.3 688.42 M 866.3 698.4 876.3 698.4 M 876.3 708.39 866.3 708.39 M 866.3 718.37 876.3 718.37 M 876.3 728.36 1028.36 728.36 M 1033.02 718.37 921.52 718.37 M 919.37 708.39 1033.46 708.39 M 1033.46 698.4 915.03 698.4 M 907.38 688.42 1033.46 688.42 M 1033.46 678.43 893.62 678.43 M 835.22 688.42 710.53 688.42 M 718.58 698.4 827.57 698.4 M 823.23 708.39 722.71 708.39 M 724.88 718.37 821.07 718.37 M 866.3 728.36 724.88 728.36 M 651.34 618.52 222.19 618.52 M 209.01 608.54 288.59 608.54 M 288.73 608.67 278.41 598.36 272.83 584.89 272.83 570.31 278.41 556.84 288.73 546.52 302.2 540.94 316.78 540.94 330.25 546.52 340.56 556.84 346.14 570.31 346.14 584.89 340.56 598.36 330.25 608.67 316.78 614.25 302.2 614.25 288.73 608.67 M 278.61 598.55 205.48 598.55 M 205.2 588.57 274.36 588.57 M 272.83 578.58 205.2 578.58 M 205.2 568.6 273.54 568.6 M 277.68 558.61 205.2 558.61 M 205.2 548.63 286.62 548.63 M 332.35 548.63 386.62 548.63 M 388.73 546.52 402.2 540.94 416.78 540.94 430.25 546.52 440.56 556.84 446.14 570.31 446.14 584.89 440.56 598.36 430.25 608.67 416.78 614.25 402.2 614.25 388.73 608.67 378.41 598.36 372.83 584.89 372.83 570.31 378.41 556.84 388.73 546.52 M 377.68 558.61 341.3 558.61 M 345.43 568.6 373.54 568.6 M 372.83 578.58 346.14 578.58 M 344.62 588.57 374.36 588.57 M 378.61 598.55 340.37 598.55 M 330.38 608.54 388.59 608.54 M 430.38 608.54 647.54 608.54 M 647.54 598.55 440.37 598.55 M 444.62 588.57 651.41 588.57 M 651.45 578.58 446.14 578.58 M 445.43 568.6 651.45 568.6 M 651.45 558.61 441.3 558.61 M 432.35 548.63 651.45 548.63 M 651.45 538.64 205.2 538.64 M 205.2 528.66 651.45 528.66 M 651.45 518.67 625.96 518.67 M 635.94 508.69 651.45 508.69 M 651.45 498.7 641.56 498.7 M 645.69 488.72 651.45 488.72 M 651.45 478.73 646.14 478.73 M 646.14 468.75 651.45 468.75 M 651.45 458.76 642.49 458.76 M 638.21 448.78 651.45 448.78 M 651.45 438.79 628.22 438.79 M 609.7 428.81 651.45 428.81 M 651.45 418.82 608.27 418.82 M 618.26 408.84 651.45 408.84 M 651.45 398.85 628.24 398.85 M 643.75 388.87 651.45 388.87 M 697.45 388.87 919.17 388.87 M 919.17 398.85 697.45 398.85 M 697.45 408.84 927.49 408.84 M 937.48 418.82 697.45 418.82 M 701.26 378.88 915.36 378.88 M 915.06 368.9 701.55 368.9 M 701.55 358.91 915.06 358.91 M 922.27 348.93 701.45 348.93 M 701.45 338.94 1329.03 338.94 M 1337.68 348.93 1259.42 348.93 M 1268.19 358.91 1340.49 358.91 M 1340.55 368.9 1272.33 368.9 M 1272.91 378.88 1340.55 378.88 M 1340.55 388.87 1271.27 388.87 M 1266.84 398.85 1340.55 398.85 M 1340.55 408.84 1283.88 408.84 M 1293.87 418.82 1340.55 418.82 M 1340.55 428.81 1303.85 428.81 M 1313.84 438.79 1340.55 438.79 M 1340.55 448.78 1319.5 448.78 M 1319.5 458.76 1340.55 458.76 M 1340.55 468.75 1323.6 468.75 M 1323.6 478.73 1340.55 478.73 M 1340.55 488.72 1323.6 488.72 M 1313.72 498.7 1340.55 498.7 M 1340.55 528.66 697.45 528.66 M 697.45 538.64 1340.55 538.64 M 1215.53 508.69 1156.98 508.69 M 1166.99 498.7 1205.53 498.7 M 1201.19 488.72 1171.33 488.72 M 1172.91 478.73 1199.61 478.73 M 1200.25 468.75 1172.27 468.75 M 1168.13 458.76 1204.39 458.76 M 1205.68 398.85 1166.84 398.85 M 1171.27 388.87 1201.25 388.87 M 1199.61 378.88 1172.91 378.88 M 1172.33 368.9 1200.19 368.9 M 1204.33 358.91 1168.19 358.91 M 1159.42 348.93 1213.1 348.93 M 1113.1 348.93 962.06 348.93 M 969.27 358.91 1104.33 358.91 M 1100.19 368.9 969.27 368.9 M 968.97 378.88 1099.61 378.88 M 1101.25 388.87 972.57 388.87 M 1062.14 328.96 701.45 328.96 M 701.45 318.97 1049.17 318.97 M 1040.68 308.99 701.45 308.99 M 701.45 299 1036.55 299 M 1033.46 289.01 701.45 289.01 M 701.45 279.03 854.27 279.03 M 866.3 279.03 876.3 279.03 M 876.3 281.81 876.3 236.54 921.57 236.54 920.49 243.35 918.04 250.89 914.43 257.97 909.77 264.39 904.15 270 897.73 274.67 890.66 278.27 883.11 280.73 876.3 281.81 M 888.33 279.03 1033.46 279.03 M 1033.46 269.04 905.11 269.04 M 913.64 259.06 1033.46 259.06 M 1033.46 249.07 918.63 249.07 M 921.16 239.09 1033.24 239.09 M 1029.88 229.1 876.3 229.1 M 866.3 229.1 724.88 229.1 M 723.89 219.12 822.3 219.12 M 821.43 239.09 724.88 239.09 M 721.77 249.07 823.97 249.07 M 828.96 259.06 717.64 259.06 M 708.26 269.04 837.49 269.04 M 866.3 269.04 876.3 269.04 M 876.3 259.06 866.3 259.06 M 866.3 249.07 876.3 249.07 M 876.3 239.09 866.3 239.09 M 920.29 219.12 1017.82 219.12 M 545.73 488.72 538.38 488.72 M 528.39 498.7 549.86 498.7 M 555.47 508.69 516.15 508.69 M 565.46 518.67 205.2 518.67 M 205.2 508.69 288.76 508.69 M 278.76 498.7 205.2 498.7 M 205.2 488.72 274.42 488.72 M 272.83 478.73 205.2 478.73 M 205.2 468.75 273.48 468.75 M 277.62 458.76 205.2 458.76 M 205.2 448.78 284.74 448.78 M 277.46 438.79 205.2 438.79 M 205.2 428.81 277.46 428.81 M 277.85 418.82 205.2 418.82 M 205.2 408.84 287.84 408.84 M 278.9 398.85 205.2 398.85 M 205.2 388.87 274.48 388.87 M 272.83 378.88 205.2 378.88 M 205.2 368.9 273.42 368.9 M 277.56 358.91 205.25 358.91 M 208.07 348.93 286.32 348.93 M 332.65 348.93 386.32 348.93 M 377.56 358.91 341.42 358.91 M 345.56 368.9 373.42 368.9 M 372.83 378.88 346.14 378.88 M 344.49 388.87 374.48 388.87 M 378.91 398.85 340.07 398.85 M 432.65 348.93 463.51 348.93 M 453.52 358.91 441.42 358.91 M 473.49 338.94 216.71 338.94 M 341.36 458.76 377.62 458.76 M 373.48 468.75 345.5 468.75 M 346.14 478.73 372.83 478.73 M 374.42 488.72 344.56 488.72 M 340.22 498.7 378.76 498.7 M 388.76 508.69 330.21 508.69" fill="none" stroke-width="10"/><use xlink:href="#R5cQ58ACGsMxqs8wFAsp_pad-16" x="499.25" y="534.69"/><use xlink:href="#R5cQ58ACGsMxqs8wFAsp_pad-16" x="674.45" y="367.36"/><use xlink:href="#R5cQ58ACGsMxqs8wFAsp_pad-16" x="942.17" y="367.36"/><use xlink:href="#R5cQ58ACGsMxqs8wFAsp_pad-16" x="1191.18" y="531.73"/><use xlink:href="#R5cQ58ACGsMxqs8wFAsp_pad-16" x="1286.65" y="526.81"/><use xlink:href="#R5cQ58ACGsMxqs8wFAsp_pad-16" x="1296.5" y="477.6"/><use xlink:href="#R5cQ58ACGsMxqs8wFAsp_pad-16" x="770.91" y="650.83"/><use xlink:href="#R5cQ58ACGsMxqs8wFAsp_pad-16" x="357.52" y="353.58"/><path d="M 674.45 367.36 674.45 231.54" fill="none" stroke-width="24"/></g></svg>