<svg version="1.1" xmlns="http://www.w3.org/2000/svg" xmlns:xlink="http://www.w3.org/1999/xlink" stroke-linecap="round" stroke-linejoin="round" stroke-width="0" fill-rule="evenodd" width="1.16791in" height="0.55145in" viewBox="189.61 201.74 1167.91 551.45" id="oxEBdkD3zWjk4r2p4XlS"><g transform="translate(0,954.9300000000001) scale(1,-1)" fill="currentColor" stroke="currentColor"><path d="M 457.91 320.12 459.15 320.1 460.38 320.04 461.62 319.95 462.84 319.81 464.07 319.64 465.29 319.42 466.5 319.17 467.7 318.88 468.89 318.56 470.08 318.19 471.25 317.79 472.4 317.36 473.55 316.88 474.67 316.37 475.78 315.83 476.88 315.25 477.95 314.64 479.01 313.99 480.04 313.31 481.05 312.6 482.04 311.86 483.01 311.09 483.95 310.28 484.86 309.45 485.75 308.59 486.61 307.7 487.44 306.79 488.25 305.85 489.02 304.88 489.76 303.89 490.47 302.88 491.15 301.85 491.8 300.79 492.41 299.72 492.99 298.62 493.53 297.51 494.04 296.39 494.52 295.24 494.95 294.09 495.35 292.92 495.72 291.73 496.04 290.54 496.33 289.34 496.58 288.13 496.8 286.91 496.97 285.68 497.11 284.46 497.2 283.22 497.26 281.99 497.28 280.75 497.28 241.38 497.13 240.23 497.03 239.07 496.96 237.91 496.93 236.75 496.94 235.58 496.99 234.42 497.08 233.26 497.2 232.11 497.37 230.95 497.57 229.81 497.81 228.67 498.09 227.54 498.41 226.42 498.76 225.32 499.15 224.22 499.58 223.14 500.04 222.07 500.54 221.02 501.08 219.99 501.64 218.97 502.24 217.98 502.88 217 503.54 216.05 504.24 215.12 504.97 214.21 505.73 213.33 506.52 212.47 507.33 211.64 508.18 210.84 509.04 210.07 509.94 209.33 510.86 208.61 511.8 207.93 512.76 207.28 513.75 206.66 514.76 206.08 515.78 205.53 516.82 205.01 517.88 204.53 518.96 204.09 520.05 203.68 521.15 203.31 522.26 202.97 523.38 202.68 524.52 202.42 525.66 202.19 526.81 202.01 999.25 202.01 1000.56 201.89 1001.88 201.8 1003.2 201.75 1004.52 201.74 1005.84 201.77 1007.16 201.84 1008.48 201.95 1009.79 202.1 1011.1 202.28 1012.4 202.51 1013.69 202.77 1014.98 203.07 1016.25 203.41 1017.52 203.79 1018.77 204.2 1020.02 204.65 1021.24 205.14 1022.45 205.66 1023.65 206.22 1024.83 206.82 1025.99 207.45 1027.13 208.11 1028.25 208.81 1029.35 209.54 1030.43 210.3 1031.49 211.1 1032.52 211.92 1033.53 212.78 1034.51 213.66 1035.46 214.57 1036.39 215.52 1037.28 216.48 1038.15 217.48 1038.99 218.5 1039.8 219.54 1040.58 220.61 1041.32 221.7 1042.04 222.81 1042.72 223.94 1043.36 225.1 1043.97 226.27 1044.55 227.45 1045.09 228.66 1045.59 229.88 1046.06 231.11 1046.49 232.36 1046.89 233.62 1047.25 234.89 1047.56 236.18 1047.85 237.47 1048.09 238.76 1048.29 240.07 1048.46 241.38 1048.46 280.75 1048.48 281.99 1048.54 283.22 1048.63 284.46 1048.77 285.68 1048.94 286.91 1049.16 288.13 1049.41 289.34 1049.7 290.54 1050.02 291.73 1050.39 292.92 1050.79 294.09 1051.22 295.24 1051.7 296.39 1052.21 297.51 1052.75 298.62 1053.33 299.72 1053.94 300.79 1054.59 301.85 1055.27 302.88 1055.98 303.89 1056.72 304.88 1057.49 305.85 1058.3 306.79 1059.13 307.7 1059.99 308.59 1060.88 309.45 1061.79 310.28 1062.73 311.09 1063.7 311.86 1064.69 312.6 1065.7 313.31 1066.73 313.99 1067.79 314.64 1068.86 315.25 1069.96 315.83 1071.07 316.37 1072.19 316.88 1073.34 317.36 1074.49 317.79 1075.66 318.19 1076.85 318.56 1078.04 318.88 1079.24 319.17 1080.45 319.42 1081.67 319.64 1082.9 319.81 1084.12 319.95 1085.36 320.04 1086.59 320.1 1087.83 320.12 1318.15 320.12 1319.39 320.14 1320.62 320.2 1321.86 320.29 1323.08 320.43 1324.31 320.6 1325.53 320.82 1326.74 321.07 1327.94 321.36 1329.13 321.68 1330.32 322.05 1331.49 322.45 1332.64 322.88 1333.79 323.36 1334.91 323.87 1336.02 324.41 1337.12 324.99 1338.19 325.6 1339.25 326.25 1340.28 326.93 1341.29 327.64 1342.28 328.38 1343.25 329.15 1344.19 329.96 1345.1 330.79 1345.99 331.65 1346.85 332.54 1347.68 333.45 1348.49 334.39 1349.26 335.36 1350 336.35 1350.71 337.36 1351.39 338.39 1352.04 339.45 1352.65 340.52 1353.23 341.62 1353.77 342.73 1354.28 343.85 1354.76 345 1355.19 346.15 1355.59 347.32 1355.96 348.51 1356.28 349.7 1356.57 350.9 1356.82 352.11 1357.04 353.33 1357.21 354.56 1357.35 355.78 1357.44 357.02 1357.5 358.25 1357.52 359.49 1357.52 595.71 1357.5 596.95 1357.44 598.18 1357.35 599.42 1357.21 600.64 1357.04 601.87 1356.82 603.09 1356.57 604.3 1356.28 605.5 1355.96 606.69 1355.59 607.88 1355.19 609.05 1354.76 610.2 1354.28 611.35 1353.77 612.47 1353.23 613.58 1352.65 614.68 1352.04 615.75 1351.39 616.81 1350.71 617.84 1350 618.85 1349.26 619.84 1348.49 620.81 1347.68 621.75 1346.85 622.66 1345.99 623.55 1345.1 624.41 1344.19 625.24 1343.25 626.05 1342.28 626.82 1341.29 627.56 1340.28 628.27 1339.25 628.95 1338.19 629.6 1337.12 630.21 1336.02 630.79 1334.91 631.33 1333.79 631.84 1332.64 632.32 1331.49 632.75 1330.32 633.15 1329.13 633.52 1327.94 633.84 1326.74 634.13 1325.53 634.38 1324.31 634.6 1323.08 634.77 1321.86 634.91 1320.62 635 1319.39 635.06 1318.15 635.08 1087.83 635.08 1086.59 635.1 1085.36 635.16 1084.12 635.25 1082.9 635.39 1081.67 635.56 1080.45 635.78 1079.24 636.03 1078.04 636.32 1076.85 636.64 1075.66 637.01 1074.49 637.41 1073.34 637.84 1072.19 638.32 1071.07 638.83 1069.96 639.37 1068.86 639.95 1067.79 640.56 1066.73 641.21 1065.7 641.89 1064.69 642.6 1063.7 643.34 1062.73 644.11 1061.79 644.92 1060.88 645.75 1059.99 646.61 1059.13 647.5 1058.3 648.41 1057.49 649.35 1056.72 650.32 1055.98 651.31 1055.27 652.32 1054.59 653.35 1053.94 654.41 1053.33 655.48 1052.75 656.58 1052.21 657.69 1051.7 658.81 1051.22 659.96 1050.79 661.11 1050.39 662.28 1050.02 663.47 1049.7 664.66 1049.41 665.86 1049.16 667.07 1048.94 668.29 1048.77 669.52 1048.63 670.74 1048.54 671.98 1048.48 673.21 1048.46 674.45 1048.46 713.82 1048.44 715.06 1048.38 716.29 1048.29 717.53 1048.15 718.75 1047.98 719.98 1047.76 721.2 1047.51 722.41 1047.22 723.61 1046.9 724.8 1046.53 725.99 1046.13 727.16 1045.7 728.31 1045.22 729.46 1044.71 730.58 1044.17 731.69 1043.59 732.79 1042.98 733.86 1042.33 734.92 1041.65 735.95 1040.94 736.96 1040.2 737.95 1039.43 738.92 1038.62 739.86 1037.79 740.77 1036.93 741.66 1036.04 742.52 1035.13 743.35 1034.19 744.16 1033.22 744.93 1032.23 745.67 1031.22 746.38 1030.19 747.06 1029.13 747.71 1028.06 748.32 1026.96 748.9 1025.85 749.44 1024.73 749.95 1023.58 750.43 1022.43 750.86 1021.26 751.26 1020.07 751.63 1018.88 751.95 1017.68 752.24 1016.47 752.49 1015.25 752.71 1014.02 752.88 1012.8 753.02 1011.56 753.11 1010.33 753.17 1009.09 753.19 536.65 753.19 535.41 753.17 534.18 753.11 532.94 753.02 531.72 752.88 530.49 752.71 529.27 752.49 528.06 752.24 526.86 751.95 525.67 751.63 524.48 751.26 523.31 750.86 522.16 750.43 521.01 749.95 519.89 749.44 518.78 748.9 517.68 748.32 516.61 747.71 515.55 747.06 514.52 746.38 513.51 745.67 512.52 744.93 511.55 744.16 510.61 743.35 509.7 742.52 508.81 741.66 507.95 740.77 507.12 739.86 506.31 738.92 505.54 737.95 504.8 736.96 504.09 735.95 503.41 734.92 502.76 733.86 502.15 732.79 501.57 731.69 501.03 730.58 500.52 729.46 500.04 728.31 499.61 727.16 499.21 725.99 498.84 724.8 498.52 723.61 498.23 722.41 497.98 721.2 497.76 719.98 497.59 718.75 497.45 717.53 497.36 716.29 497.3 715.06 497.28 713.82 497.28 674.45 497.26 673.21 497.2 671.98 497.11 670.74 496.97 669.52 496.8 668.29 496.58 667.07 496.33 665.86 496.04 664.66 495.72 663.47 495.35 662.28 494.95 661.11 494.52 659.96 494.04 658.81 493.53 657.69 492.99 656.58 492.41 655.48 491.8 654.41 491.15 653.35 490.47 652.32 489.76 651.31 489.02 650.32 488.25 649.35 487.44 648.41 486.61 647.5 485.75 646.61 484.86 645.75 483.95 644.92 483.01 644.11 482.04 643.34 481.05 642.6 480.04 641.89 479.01 641.21 477.95 640.56 476.88 639.95 475.78 639.37 474.67 638.83 473.55 638.32 472.4 637.84 471.25 637.41 470.08 637.01 468.89 636.64 467.7 636.32 466.5 636.03 465.29 635.78 464.07 635.56 462.84 635.39 461.62 635.25 460.38 635.16 459.15 635.1 457.91 635.08 228.98 635.08 227.74 635.06 226.51 635 225.27 634.91 224.05 634.77 222.82 634.6 221.6 634.38 220.39 634.13 219.19 633.84 218 633.52 216.81 633.15 215.64 632.75 214.49 632.32 213.34 631.84 212.22 631.33 211.11 630.79 210.01 630.21 208.94 629.6 207.88 628.95 206.85 628.27 205.84 627.56 204.85 626.82 203.88 626.05 202.94 625.24 202.03 624.41 201.14 623.55 200.28 622.66 199.45 621.75 198.64 620.81 197.87 619.84 197.13 618.85 196.42 617.84 195.74 616.81 195.09 615.75 194.48 614.68 193.9 613.58 193.36 612.47 192.85 611.35 192.37 610.2 191.94 609.05 191.54 607.88 191.17 606.69 190.85 605.5 190.56 604.3 190.31 603.09 190.09 601.87 189.92 600.64 189.78 599.42 189.69 598.18 189.63 596.95 189.61 595.71 189.61 359.49 189.63 358.25 189.69 357.02 189.78 355.78 189.92 354.56 190.09 353.33 190.31 352.11 190.56 350.9 190.85 349.7 191.17 348.51 191.54 347.32 191.94 346.15 192.37 345 192.85 343.85 193.36 342.73 193.9 341.62 194.48 340.52 195.09 339.45 195.74 338.39 196.42 337.36 197.13 336.35 197.87 335.36 198.64 334.39 199.45 333.45 200.28 332.54 201.14 331.65 202.03 330.79 202.94 329.96 203.88 329.15 204.85 328.38 205.84 327.64 206.85 326.93 207.88 326.25 208.94 325.6 210.01 324.99 211.11 324.41 212.22 323.87 213.34 323.36 214.49 322.88 215.64 322.45 216.81 322.05 218 321.68 219.19 321.36 220.39 321.07 221.6 320.82 222.82 320.6 224.05 320.43 225.27 320.29 226.51 320.2 227.74 320.14 228.98 320.12 457.91 320.12 M 387.84 377.6 387.86 378.53 387.92 379.45 388.02 380.37 388.16 381.28 388.33 382.19 388.55 383.09 388.8 383.98 389.09 384.86 389.42 385.72 389.79 386.57 390.19 387.41 390.63 388.22 391.1 389.02 391.6 389.8 392.14 390.55 392.71 391.28 393.31 391.98 393.94 392.66 394.6 393.31 395.28 393.93 395.99 394.53 396.73 395.09 397.49 395.62 398.27 396.11 399.07 396.58 399.89 397 400.73 397.4 401.58 397.75 402.45 398.07 403.33 398.36 404.22 398.6 405.12 398.81 406.03 398.97 406.95 399.1 407.87 399.19 408.8 399.24 409.72 399.25 410.65 399.22 411.57 399.15 412.49 399.04 413.4 398.89 414.31 398.71 415.21 398.48 416.09 398.22 416.97 397.92 417.83 397.58 418.67 397.21 419.5 396.79 420.31 396.35 421.11 395.87 421.88 395.36 422.62 394.81 423.35 394.23 424.05 393.63 424.72 392.99 425.36 392.33 425.98 391.63 426.56 390.92 427.11 390.18 427.63 389.41 428.12 388.62 428.58 387.82 429 386.99 429.38 386.15 429.73 385.29 430.04 384.42 430.31 383.54 430.54 382.64 430.74 381.74 430.9 380.83 431.02 379.91 431.1 378.99 431.14 378.06 431.14 377.14 431.1 376.21 431.02 375.29 430.9 374.37 430.74 373.46 430.54 372.56 430.31 371.66 430.04 370.78 429.73 369.91 429.38 369.05 429 368.21 428.58 367.38 428.12 366.58 427.63 365.79 427.11 365.02 426.56 364.28 425.98 363.57 425.36 362.87 424.72 362.21 424.05 361.57 423.35 360.97 422.62 360.39 421.88 359.84 421.11 359.33 420.32 358.85 419.5 358.41 418.67 357.99 417.83 357.62 416.97 357.28 416.09 356.98 415.21 356.72 414.31 356.49 413.4 356.31 412.49 356.16 411.57 356.05 410.65 355.98 409.72 355.95 408.8 355.96 407.87 356.01 406.95 356.1 406.03 356.23 405.12 356.39 404.22 356.6 403.33 356.84 402.45 357.13 401.58 357.45 400.73 357.8 399.89 358.2 399.07 358.62 398.27 359.09 397.49 359.58 396.73 360.11 395.99 360.67 395.28 361.27 394.6 361.89 393.94 362.54 393.31 363.22 392.71 363.92 392.14 364.65 391.6 365.4 391.1 366.18 390.63 366.98 390.19 367.79 389.79 368.63 389.42 369.48 389.09 370.34 388.8 371.22 388.55 372.11 388.33 373.01 388.16 373.92 388.02 374.83 387.92 375.75 387.86 376.67 387.84 377.6 M 287.84 377.6 287.86 378.53 287.92 379.45 288.02 380.37 288.16 381.28 288.33 382.19 288.55 383.09 288.8 383.98 289.09 384.86 289.42 385.72 289.79 386.57 290.19 387.41 290.63 388.22 291.1 389.02 291.6 389.8 292.14 390.55 292.71 391.28 293.31 391.98 293.94 392.66 294.6 393.31 295.28 393.93 295.99 394.53 296.73 395.09 297.49 395.62 298.27 396.11 299.07 396.58 299.89 397 300.73 397.4 301.58 397.75 302.45 398.07 303.33 398.36 304.22 398.6 305.12 398.81 306.03 398.97 306.95 399.1 307.87 399.19 308.8 399.24 309.72 399.25 310.65 399.22 311.57 399.15 312.49 399.04 313.4 398.89 314.31 398.71 315.21 398.48 316.09 398.22 316.97 397.92 317.83 397.58 318.67 397.21 319.5 396.79 320.31 396.35 321.11 395.87 321.88 395.36 322.62 394.81 323.35 394.23 324.05 393.63 324.72 392.99 325.36 392.33 325.98 391.63 326.56 390.92 327.11 390.18 327.63 389.41 328.12 388.62 328.58 387.82 329 386.99 329.38 386.15 329.73 385.29 330.04 384.42 330.31 383.54 330.54 382.64 330.74 381.74 330.9 380.83 331.02 379.91 331.1 378.99 331.14 378.06 331.14 377.14 331.1 376.21 331.02 375.29 330.9 374.37 330.74 373.46 330.54 372.56 330.31 371.66 330.04 370.78 329.73 369.91 329.38 369.05 329 368.21 328.58 367.38 328.12 366.58 327.63 365.79 327.11 365.02 326.56 364.28 325.98 363.57 325.36 362.87 324.72 362.21 324.05 361.57 323.35 360.97 322.62 360.39 321.88 359.84 321.11 359.33 320.32 358.85 319.5 358.41 318.67 357.99 317.83 357.62 316.97 357.28 316.09 356.98 315.21 356.72 314.31 356.49 313.4 356.31 312.49 356.16 311.57 356.05 310.65 355.98 309.72 355.95 308.8 355.96 307.87 356.01 306.95 356.1 306.03 356.23 305.12 356.39 304.22 356.6 303.33 356.84 302.45 357.13 301.58 357.45 300.73 357.8 299.89 358.2 299.07 358.62 298.27 359.09 297.49 359.58 296.73 360.11 295.99 360.67 295.28 361.27 294.6 361.89 293.94 362.54 293.31 363.22 292.71 363.92 292.14 364.65 291.6 365.4 291.1 366.18 290.63 366.98 290.19 367.79 289.79 368.63 289.42 369.48 289.09 370.34 288.8 371.22 288.55 372.11 288.33 373.01 288.16 373.92 288.02 374.83 287.92 375.75 287.86 376.67 287.84 377.6 M 287.84 477.6 287.86 478.53 287.92 479.45 288.02 480.37 288.16 481.28 288.33 482.19 288.55 483.09 288.8 483.98 289.09 484.86 289.42 485.72 289.79 486.57 290.19 487.41 290.63 488.22 291.1 489.02 291.6 489.8 292.14 490.55 292.71 491.28 293.31 491.98 293.94 492.66 294.6 493.31 295.28 493.93 295.99 494.53 296.73 495.09 297.49 495.62 298.27 496.11 299.07 496.58 299.89 497 300.73 497.4 301.58 497.75 302.45 498.07 303.33 498.36 304.22 498.6 305.12 498.81 306.03 498.97 306.95 499.1 307.87 499.19 308.8 499.24 309.72 499.25 310.65 499.22 311.57 499.15 312.49 499.04 313.4 498.89 314.31 498.71 315.21 498.48 316.09 498.22 316.97 497.92 317.83 497.58 318.67 497.21 319.5 496.79 320.31 496.35 321.11 495.87 321.88 495.36 322.62 494.81 323.35 494.23 324.05 493.63 324.72 492.99 325.36 492.33 325.98 491.63 326.56 490.92 327.11 490.18 327.63 489.41 328.12 488.62 328.58 487.82 329 486.99 329.38 486.15 329.73 485.29 330.04 484.42 330.31 483.54 330.54 482.64 330.74 481.74 330.9 480.83 331.02 479.91 331.1 478.99 331.14 478.06 331.14 477.14 331.1 476.21 331.02 475.29 330.9 474.37 330.74 473.46 330.54 472.56 330.31 471.66 330.04 470.78 329.73 469.91 329.38 469.05 329 468.21 328.58 467.38 328.12 466.58 327.63 465.79 327.11 465.02 326.56 464.28 325.98 463.57 325.36 462.87 324.72 462.21 324.05 461.57 323.35 460.97 322.62 460.39 321.88 459.84 321.11 459.33 320.32 458.85 319.5 458.41 318.67 457.99 317.83 457.62 316.97 457.28 316.09 456.98 315.21 456.72 314.31 456.49 313.4 456.31 312.49 456.16 311.57 456.05 310.65 455.98 309.72 455.95 308.8 455.96 307.87 456.01 306.95 456.1 306.03 456.23 305.12 456.39 304.22 456.6 303.33 456.84 302.45 457.13 301.58 457.45 300.73 457.8 299.89 458.2 299.07 458.62 298.27 459.09 297.49 459.58 296.73 460.11 295.99 460.67 295.28 461.27 294.6 461.89 293.94 462.54 293.31 463.22 292.71 463.92 292.14 464.65 291.6 465.4 291.1 466.18 290.63 466.98 290.19 467.79 289.79 468.63 289.42 469.48 289.09 470.34 288.8 471.22 288.55 472.11 288.33 473.01 288.16 473.92 288.02 474.83 287.92 475.75 287.86 476.67 287.84 477.6 M 387.84 477.6 387.86 478.53 387.92 479.45 388.02 480.37 388.16 481.28 388.33 482.19 388.55 483.09 388.8 483.98 389.09 484.86 389.42 485.72 389.79 486.57 390.19 487.41 390.63 488.22 391.1 489.02 391.6 489.8 392.14 490.55 392.71 491.28 393.31 491.98 393.94 492.66 394.6 493.31 395.28 493.93 395.99 494.53 396.73 495.09 397.49 495.62 398.27 496.11 399.07 496.58 399.89 497 400.73 497.4 401.58 497.75 402.45 498.07 403.33 498.36 404.22 498.6 405.12 498.81 406.03 498.97 406.95 499.1 407.87 499.19 408.8 499.24 409.72 499.25 410.65 499.22 411.57 499.15 412.49 499.04 413.4 498.89 414.31 498.71 415.21 498.48 416.09 498.22 416.97 497.92 417.83 497.58 418.67 497.21 419.5 496.79 420.31 496.35 421.11 495.87 421.88 495.36 422.62 494.81 423.35 494.23 424.05 493.63 424.72 492.99 425.36 492.33 425.98 491.63 426.56 490.92 427.11 490.18 427.63 489.41 428.12 488.62 428.58 487.82 429 486.99 429.38 486.15 429.73 485.29 430.04 484.42 430.31 483.54 430.54 482.64 430.74 481.74 430.9 480.83 431.02 479.91 431.1 478.99 431.14 478.06 431.14 477.14 431.1 476.21 431.02 475.29 430.9 474.37 430.74 473.46 430.54 472.56 430.31 471.66 430.04 470.78 429.73 469.91 429.38 469.05 429 468.21 428.58 467.38 428.12 466.58 427.63 465.79 427.11 465.02 426.56 464.28 425.98 463.57 425.36 462.87 424.72 462.21 424.05 461.57 423.35 460.97 422.62 460.39 421.88 459.84 421.11 459.33 420.32 458.85 419.5 458.41 418.67 457.99 417.83 457.62 416.97 457.28 416.09 456.98 415.21 456.72 414.31 456.49 413.4 456.31 412.49 456.16 411.57 456.05 410.65 455.98 409.72 455.95 408.8 455.96 407.87 456.01 406.95 456.1 406.03 456.23 405.12 456.39 404.22 456.6 403.33 456.84 402.45 457.13 401.58 457.45 400.73 457.8 399.89 458.2 399.07 458.62 398.27 459.09 397.49 459.58 396.73 460.11 395.99 460.67 395.28 461.27 394.6 461.89 393.94 462.54 393.31 463.22 392.71 463.92 392.14 464.65 391.6 465.4 391.1 466.18 390.63 466.98 390.19 467.79 389.79 468.63 389.42 469.48 389.09 470.34 388.8 471.22 388.55 472.11 388.33 473.01 388.16 473.92 388.02 474.83 387.92 475.75 387.86 476.67 387.84 477.6 M 387.84 577.6 387.86 578.53 387.92 579.45 388.02 580.37 388.16 581.28 388.33 582.19 388.55 583.09 388.8 583.98 389.09 584.86 389.42 585.72 389.79 586.57 390.19 587.41 390.63 588.22 391.1 589.02 391.6 589.8 392.14 590.55 392.71 591.28 393.31 591.98 393.94 592.66 394.6 593.31 395.28 593.93 395.99 594.53 396.73 595.09 397.49 595.62 398.27 596.11 399.07 596.58 399.89 597 400.73 597.4 401.58 597.75 402.45 598.07 403.33 598.36 404.22 598.6 405.12 598.81 406.03 598.97 406.95 599.1 407.87 599.19 408.8 599.24 409.72 599.25 410.65 599.22 411.57 599.15 412.49 599.04 413.4 598.89 414.31 598.71 415.21 598.48 416.09 598.22 416.97 597.92 417.83 597.58 418.67 597.21 419.5 596.79 420.31 596.35 421.11 595.87 421.88 595.36 422.62 594.81 423.35 594.23 424.05 593.63 424.72 592.99 425.36 592.33 425.98 591.63 426.56 590.92 427.11 590.18 427.63 589.41 428.12 588.62 428.58 587.82 429 586.99 429.38 586.15 429.73 585.29 430.04 584.42 430.31 583.54 430.54 582.64 430.74 581.74 430.9 580.83 431.02 579.91 431.1 578.99 431.14 578.06 431.14 577.14 431.1 576.21 431.02 575.29 430.9 574.37 430.74 573.46 430.54 572.56 430.31 571.66 430.04 570.78 429.73 569.91 429.38 569.05 429 568.21 428.58 567.38 428.12 566.58 427.63 565.79 427.11 565.02 426.56 564.28 425.98 563.57 425.36 562.87 424.72 562.21 424.05 561.57 423.35 560.97 422.62 560.39 421.88 559.84 421.11 559.33 420.32 558.85 419.5 558.41 418.67 557.99 417.83 557.62 416.97 557.28 416.09 556.98 415.21 556.72 414.31 556.49 413.4 556.31 412.49 556.16 411.57 556.05 410.65 555.98 409.72 555.95 408.8 555.96 407.87 556.01 406.95 556.1 406.03 556.23 405.12 556.39 404.22 556.6 403.33 556.84 402.45 557.13 401.58 557.45 400.73 557.8 399.89 558.2 399.07 558.62 398.27 559.09 397.49 559.58 396.73 560.11 395.99 560.67 395.28 561.27 394.6 561.89 393.94 562.54 393.31 563.22 392.71 563.92 392.14 564.65 391.6 565.4 391.1 566.18 390.63 566.98 390.19 567.79 389.79 568.63 389.42 569.48 389.09 570.34 388.8 571.22 388.55 572.11 388.33 573.01 388.16 573.92 388.02 574.83 387.92 575.75 387.86 576.67 387.84 577.6 M 287.84 577.6 287.86 578.53 287.92 579.45 288.02 580.37 288.16 581.28 288.33 582.19 288.55 583.09 288.8 583.98 289.09 584.86 289.42 585.72 289.79 586.57 290.19 587.41 290.63 588.22 291.1 589.02 291.6 589.8 292.14 590.55 292.71 591.28 293.31 591.98 293.94 592.66 294.6 593.31 295.28 593.93 295.99 594.53 296.73 595.09 297.49 595.62 298.27 596.11 299.07 596.58 299.89 597 300.73 597.4 301.58 597.75 302.45 598.07 303.33 598.36 304.22 598.6 305.12 598.81 306.03 598.97 306.95 599.1 307.87 599.19 308.8 599.24 309.72 599.25 310.65 599.22 311.57 599.15 312.49 599.04 313.4 598.89 314.31 598.71 315.21 598.48 316.09 598.22 316.97 597.92 317.83 597.58 318.67 597.21 319.5 596.79 320.31 596.35 321.11 595.87 321.88 595.36 322.62 594.81 323.35 594.23 324.05 593.63 324.72 592.99 325.36 592.33 325.98 591.63 326.56 590.92 327.11 590.18 327.63 589.41 328.12 588.62 328.58 587.82 329 586.99 329.38 586.15 329.73 585.29 330.04 584.42 330.31 583.54 330.54 582.64 330.74 581.74 330.9 580.83 331.02 579.91 331.1 578.99 331.14 578.06 331.14 577.14 331.1 576.21 331.02 575.29 330.9 574.37 330.74 573.46 330.54 572.56 330.31 571.66 330.04 570.78 329.73 569.91 329.38 569.05 329 568.21 328.58 567.38 328.12 566.58 327.63 565.79 327.11 565.02 326.56 564.28 325.98 563.57 325.36 562.87 324.72 562.21 324.05 561.57 323.35 560.97 322.62 560.39 321.88 559.84 321.11 559.33 320.32 558.85 319.5 558.41 318.67 557.99 317.83 557.62 316.97 557.28 316.09 556.98 315.21 556.72 314.31 556.49 313.4 556.31 312.49 556.16 311.57 556.05 310.65 555.98 309.72 555.95 308.8 555.96 307.87 556.01 306.95 556.1 306.03 556.23 305.12 556.39 304.22 556.6 303.33 556.84 302.45 557.13 301.58 557.45 300.73 557.8 299.89 558.2 299.07 558.62 298.27 559.09 297.49 559.58 296.73 560.11 295.99 560.67 295.28 561.27 294.6 561.89 293.94 562.54 293.31 563.22 292.71 563.92 292.14 564.65 291.6 565.4 291.1 566.18 290.63 566.98 290.19 567.79 289.79 568.63 289.42 569.48 289.09 570.34 288.8 571.22 288.55 572.11 288.33 573.01 288.16 573.92 288.02 574.83 287.92 575.75 287.86 576.67 287.84 577.6 M 1114.61 577.6 1114.63 578.53 1114.69 579.45 1114.79 580.37 1114.93 581.28 1115.1 582.19 1115.32 583.09 1115.57 583.98 1115.86 584.86 1116.19 585.72 1116.56 586.57 1116.96 587.41 1117.4 588.22 1117.87 589.02 1118.37 589.8 1118.91 590.55 1119.48 591.28 1120.08 591.98 1120.71 592.66 1121.37 593.31 1122.05 593.93 1122.76 594.53 1123.5 595.09 1124.26 595.62 1125.04 596.11 1125.84 596.58 1126.66 597 1127.5 597.4 1128.35 597.75 1129.22 598.07 1130.1 598.36 1130.99 598.6 1131.89 598.81 1132.8 598.97 1133.72 599.1 1134.64 599.19 1135.57 599.24 1136.49 599.25 1137.42 599.22 1138.34 599.15 1139.26 599.04 1140.17 598.89 1141.08 598.71 1141.98 598.48 1142.86 598.22 1143.74 597.92 1144.6 597.58 1145.44 597.21 1146.27 596.79 1147.08 596.35 1147.88 595.87 1148.65 595.36 1149.39 594.81 1150.12 594.23 1150.82 593.63 1151.49 592.99 1152.13 592.33 1152.75 591.63 1153.33 590.92 1153.88 590.18 1154.4 589.41 1154.89 588.62 1155.35 587.82 1155.77 586.99 1156.15 586.15 1156.5 585.29 1156.81 584.42 1157.08 583.54 1157.31 582.64 1157.51 581.74 1157.67 580.83 1157.79 579.91 1157.87 578.99 1157.91 578.06 1157.91 577.14 1157.87 576.21 1157.79 575.29 1157.67 574.37 1157.51 573.46 1157.31 572.56 1157.08 571.66 1156.81 570.78 1156.5 569.91 1156.15 569.05 1155.77 568.21 1155.35 567.38 1154.89 566.58 1154.4 565.79 1153.88 565.02 1153.33 564.28 1152.75 563.57 1152.13 562.87 1151.49 562.21 1150.82 561.57 1150.12 560.97 1149.39 560.39 1148.65 559.84 1147.88 559.33 1147.09 558.85 1146.27 558.41 1145.44 557.99 1144.6 557.62 1143.74 557.28 1142.86 556.98 1141.98 556.72 1141.08 556.49 1140.17 556.31 1139.26 556.16 1138.34 556.05 1137.42 555.98 1136.49 555.95 1135.57 555.96 1134.64 556.01 1133.72 556.1 1132.8 556.23 1131.89 556.39 1130.99 556.6 1130.1 556.84 1129.22 557.13 1128.35 557.45 1127.5 557.8 1126.66 558.2 1125.84 558.62 1125.04 559.09 1124.26 559.58 1123.5 560.11 1122.76 560.67 1122.05 561.27 1121.37 561.89 1120.71 562.54 1120.08 563.22 1119.48 563.92 1118.91 564.65 1118.37 565.4 1117.87 566.18 1117.4 566.98 1116.96 567.79 1116.56 568.63 1116.19 569.48 1115.86 570.34 1115.57 571.22 1115.32 572.11 1115.1 573.01 1114.93 573.92 1114.79 574.83 1114.69 575.75 1114.63 576.67 1114.61 577.6 M 1214.61 577.6 1214.63 578.53 1214.69 579.45 1214.79 580.37 1214.93 581.28 1215.1 582.19 1215.32 583.09 1215.57 583.98 1215.86 584.86 1216.19 585.72 1216.56 586.57 1216.96 587.41 1217.4 588.22 1217.87 589.02 1218.37 589.8 1218.91 590.55 1219.48 591.28 1220.08 591.98 1220.71 592.66 1221.37 593.31 1222.05 593.93 1222.76 594.53 1223.5 595.09 1224.26 595.62 1225.04 596.11 1225.84 596.58 1226.66 597 1227.5 597.4 1228.35 597.75 1229.22 598.07 1230.1 598.36 1230.99 598.6 1231.89 598.81 1232.8 598.97 1233.72 599.1 1234.64 599.19 1235.57 599.24 1236.49 599.25 1237.42 599.22 1238.34 599.15 1239.26 599.04 1240.17 598.89 1241.08 598.71 1241.98 598.48 1242.86 598.22 1243.74 597.92 1244.6 597.58 1245.44 597.21 1246.27 596.79 1247.08 596.35 1247.88 595.87 1248.65 595.36 1249.39 594.81 1250.12 594.23 1250.82 593.63 1251.49 592.99 1252.13 592.33 1252.75 591.63 1253.33 590.92 1253.88 590.18 1254.4 589.41 1254.89 588.62 1255.35 587.82 1255.77 586.99 1256.15 586.15 1256.5 585.29 1256.81 584.42 1257.08 583.54 1257.31 582.64 1257.51 581.74 1257.67 580.83 1257.79 579.91 1257.87 578.99 1257.91 578.06 1257.91 577.14 1257.87 576.21 1257.79 575.29 1257.67 574.37 1257.51 573.46 1257.31 572.56 1257.08 571.66 1256.81 570.78 1256.5 569.91 1256.15 569.05 1255.77 568.21 1255.35 567.38 1254.89 566.58 1254.4 565.79 1253.88 565.02 1253.33 564.28 1252.75 563.57 1252.13 562.87 1251.49 562.21 1250.82 561.57 1250.12 560.97 1249.39 560.39 1248.65 559.84 1247.88 559.33 1247.09 558.85 1246.27 558.41 1245.44 557.99 1244.6 557.62 1243.74 557.28 1242.86 556.98 1241.98 556.72 1241.08 556.49 1240.17 556.31 1239.26 556.16 1238.34 556.05 1237.42 555.98 1236.49 555.95 1235.57 555.96 1234.64 556.01 1233.72 556.1 1232.8 556.23 1231.89 556.39 1230.99 556.6 1230.1 556.84 1229.22 557.13 1228.35 557.45 1227.5 557.8 1226.66 558.2 1225.84 558.62 1225.04 559.09 1224.26 559.58 1223.5 560.11 1222.76 560.67 1222.05 561.27 1221.37 561.89 1220.71 562.54 1220.08 563.22 1219.48 563.92 1218.91 564.65 1218.37 565.4 1217.87 566.18 1217.4 566.98 1216.96 567.79 1216.56 568.63 1216.19 569.48 1215.86 570.34 1215.57 571.22 1215.32 572.11 1215.1 573.01 1214.93 573.92 1214.79 574.83 1214.69 575.75 1214.63 576.67 1214.61 577.6 M 1214.61 477.6 1214.63 478.53 1214.69 479.45 1214.79 480.37 1214.93 481.28 1215.1 482.19 1215.32 483.09 1215.57 483.98 1215.86 484.86 1216.19 485.72 1216.56 486.57 1216.96 487.41 1217.4 488.22 1217.87 489.02 1218.37 489.8 1218.91 490.55 1219.48 491.28 1220.08 491.98 1220.71 492.66 1221.37 493.31 1222.05 493.93 1222.76 494.53 1223.5 495.09 1224.26 495.62 1225.04 496.11 1225.84 496.58 1226.66 497 1227.5 497.4 1228.35 497.75 1229.22 498.07 1230.1 498.36 1230.99 498.6 1231.89 498.81 1232.8 498.97 1233.72 499.1 1234.64 499.19 1235.57 499.24 1236.49 499.25 1237.42 499.22 1238.34 499.15 1239.26 499.04 1240.17 498.89 1241.08 498.71 1241.98 498.48 1242.86 498.22 1243.74 497.92 1244.6 497.58 1245.44 497.21 1246.27 496.79 1247.08 496.35 1247.88 495.87 1248.65 495.36 1249.39 494.81 1250.12 494.23 1250.82 493.63 1251.49 492.99 1252.13 492.33 1252.75 491.63 1253.33 490.92 1253.88 490.18 1254.4 489.41 1254.89 488.62 1255.35 487.82 1255.77 486.99 1256.15 486.15 1256.5 485.29 1256.81 484.42 1257.08 483.54 1257.31 482.64 1257.51 481.74 1257.67 480.83 1257.79 479.91 1257.87 478.99 1257.91 478.06 1257.91 477.14 1257.87 476.21 1257.79 475.29 1257.67 474.37 1257.51 473.46 1257.31 472.56 1257.08 471.66 1256.81 470.78 1256.5 469.91 1256.15 469.05 1255.77 468.21 1255.35 467.38 1254.89 466.58 1254.4 465.79 1253.88 465.02 1253.33 464.28 1252.75 463.57 1252.13 462.87 1251.49 462.21 1250.82 461.57 1250.12 460.97 1249.39 460.39 1248.65 459.84 1247.88 459.33 1247.09 458.85 1246.27 458.41 1245.44 457.99 1244.6 457.62 1243.74 457.28 1242.86 456.98 1241.98 456.72 1241.08 456.49 1240.17 456.31 1239.26 456.16 1238.34 456.05 1237.42 455.98 1236.49 455.95 1235.57 455.96 1234.64 456.01 1233.72 456.1 1232.8 456.23 1231.89 456.39 1230.99 456.6 1230.1 456.84 1229.22 457.13 1228.35 457.45 1227.5 457.8 1226.66 458.2 1225.84 458.62 1225.04 459.09 1224.26 459.58 1223.5 460.11 1222.76 460.67 1222.05 461.27 1221.37 461.89 1220.71 462.54 1220.08 463.22 1219.48 463.92 1218.91 464.65 1218.37 465.4 1217.87 466.18 1217.4 466.98 1216.96 467.79 1216.56 468.63 1216.19 469.48 1215.86 470.34 1215.57 471.22 1215.32 472.11 1215.1 473.01 1214.93 473.92 1214.79 474.83 1214.69 475.75 1214.63 476.67 1214.61 477.6 M 1114.61 477.6 1114.63 478.53 1114.69 479.45 1114.79 480.37 1114.93 481.28 1115.1 482.19 1115.32 483.09 1115.57 483.98 1115.86 484.86 1116.19 485.72 1116.56 486.57 1116.96 487.41 1117.4 488.22 1117.87 489.02 1118.37 489.8 1118.91 490.55 1119.48 491.28 1120.08 491.98 1120.71 492.66 1121.37 493.31 1122.05 493.93 1122.76 494.53 1123.5 495.09 1124.26 495.62 1125.04 496.11 1125.84 496.58 1126.66 497 1127.5 497.4 1128.35 497.75 1129.22 498.07 1130.1 498.36 1130.99 498.6 1131.89 498.81 1132.8 498.97 1133.72 499.1 1134.64 499.19 1135.57 499.24 1136.49 499.25 1137.42 499.22 1138.34 499.15 1139.26 499.04 1140.17 498.89 1141.08 498.71 1141.98 498.48 1142.86 498.22 1143.74 497.92 1144.6 497.58 1145.44 497.21 1146.27 496.79 1147.08 496.35 1147.88 495.87 1148.65 495.36 1149.39 494.81 1150.12 494.23 1150.82 493.63 1151.49 492.99 1152.13 492.33 1152.75 491.63 1153.33 490.92 1153.88 490.18 1154.4 489.41 1154.89 488.62 1155.35 487.82 1155.77 486.99 1156.15 486.15 1156.5 485.29 1156.81 484.42 1157.08 483.54 1157.31 482.64 1157.51 481.74 1157.67 480.83 1157.79 479.91 1157.87 478.99 1157.91 478.06 1157.91 477.14 1157.87 476.21 1157.79 475.29 1157.67 474.37 1157.51 473.46 1157.31 472.56 1157.08 471.66 1156.81 470.78 1156.5 469.91 1156.15 469.05 1155.77 468.21 1155.35 467.38 1154.89 466.58 1154.4 465.79 1153.88 465.02 1153.33 464.28 1152.75 463.57 1152.13 462.87 1151.49 462.21 1150.82 461.57 1150.12 460.97 1149.39 460.39 1148.65 459.84 1147.88 459.33 1147.09 458.85 1146.27 458.41 1145.44 457.99 1144.6 457.62 1143.74 457.28 1142.86 456.98 1141.98 456.72 1141.08 456.49 1140.17 456.31 1139.26 456.16 1138.34 456.05 1137.42 455.98 1136.49 455.95 1135.57 455.96 1134.64 456.01 1133.72 456.1 1132.8 456.23 1131.89 456.39 1130.99 456.6 1130.1 456.84 1129.22 457.13 1128.35 457.45 1127.5 457.8 1126.66 458.2 1125.84 458.62 1125.04 459.09 1124.26 459.58 1123.5 460.11 1122.76 460.67 1122.05 461.27 1121.37 461.89 1120.71 462.54 1120.08 463.22 1119.48 463.92 1118.91 464.65 1118.37 465.4 1117.87 466.18 1117.4 466.98 1116.96 467.79 1116.56 468.63 1116.19 469.48 1115.86 470.34 1115.57 471.22 1115.32 472.11 1115.1 473.01 1114.93 473.92 1114.79 474.83 1114.69 475.75 1114.63 476.67 1114.61 477.6 M 1114.61 377.6 1114.63 378.53 1114.69 379.45 1114.79 380.37 1114.93 381.28 1115.1 382.19 1115.32 383.09 1115.57 383.98 1115.86 384.86 1116.19 385.72 1116.56 386.57 1116.96 387.41 1117.4 388.22 1117.87 389.02 1118.37 389.8 1118.91 390.55 1119.48 391.28 1120.08 391.98 1120.71 392.66 1121.37 393.31 1122.05 393.93 1122.76 394.53 1123.5 395.09 1124.26 395.62 1125.04 396.11 1125.84 396.58 1126.66 397 1127.5 397.4 1128.35 397.75 1129.22 398.07 1130.1 398.36 1130.99 398.6 1131.89 398.81 1132.8 398.97 1133.72 399.1 1134.64 399.19 1135.57 399.24 1136.49 399.25 1137.42 399.22 1138.34 399.15 1139.26 399.04 1140.17 398.89 1141.08 398.71 1141.98 398.48 1142.86 398.22 1143.74 397.92 1144.6 397.58 1145.44 397.21 1146.27 396.79 1147.08 396.35 1147.88 395.87 1148.65 395.36 1149.39 394.81 1150.12 394.23 1150.82 393.63 1151.49 392.99 1152.13 392.33 1152.75 391.63 1153.33 390.92 1153.88 390.18 1154.4 389.41 1154.89 388.62 1155.35 387.82 1155.77 386.99 1156.15 386.15 1156.5 385.29 1156.81 384.42 1157.08 383.54 1157.31 382.64 1157.51 381.74 1157.67 380.83 1157.79 379.91 1157.87 378.99 1157.91 378.06 1157.91 377.14 1157.87 376.21 1157.79 375.29 1157.67 374.37 1157.51 373.46 1157.31 372.56 1157.08 371.66 1156.81 370.78 1156.5 369.91 1156.15 369.05 1155.77 368.21 1155.35 367.38 1154.89 366.58 1154.4 365.79 1153.88 365.02 1153.33 364.28 1152.75 363.57 1152.13 362.87 1151.49 362.21 1150.82 361.57 1150.12 360.97 1149.39 360.39 1148.65 359.84 1147.88 359.33 1147.09 358.85 1146.27 358.41 1145.44 357.99 1144.6 357.62 1143.74 357.28 1142.86 356.98 1141.98 356.72 1141.08 356.49 1140.17 356.31 1139.26 356.16 1138.34 356.05 1137.42 355.98 1136.49 355.95 1135.57 355.96 1134.64 356.01 1133.72 356.1 1132.8 356.23 1131.89 356.39 1130.99 356.6 1130.1 356.84 1129.22 357.13 1128.35 357.45 1127.5 357.8 1126.66 358.2 1125.84 358.62 1125.04 359.09 1124.26 359.58 1123.5 360.11 1122.76 360.67 1122.05 361.27 1121.37 361.89 1120.71 362.54 1120.08 363.22 1119.48 363.92 1118.91 364.65 1118.37 365.4 1117.87 366.18 1117.4 366.98 1116.96 367.79 1116.56 368.63 1116.19 369.48 1115.86 370.34 1115.57 371.22 1115.32 372.11 1115.1 373.01 1114.93 373.92 1114.79 374.83 1114.69 375.75 1114.63 376.67 1114.61 377.6 M 1214.61 377.6 1214.63 378.53 1214.69 379.45 1214.79 380.37 1214.93 381.28 1215.1 382.19 1215.32 383.09 1215.57 383.98 1215.86 384.86 1216.19 385.72 1216.56 386.57 1216.96 387.41 1217.4 388.22 1217.87 389.02 1218.37 389.8 1218.91 390.55 1219.48 391.28 1220.08 391.98 1220.71 392.66 1221.37 393.31 1222.05 393.93 1222.76 394.53 1223.5 395.09 1224.26 395.62 1225.04 396.11 1225.84 396.58 1226.66 397 1227.5 397.4 1228.35 397.75 1229.22 398.07 1230.1 398.36 1230.99 398.6 1231.89 398.81 1232.8 398.97 1233.72 399.1 1234.64 399.19 1235.57 399.24 1236.49 399.25 1237.42 399.22 1238.34 399.15 1239.26 399.04 1240.17 398.89 1241.08 398.71 1241.98 398.48 1242.86 398.22 1243.74 397.92 1244.6 397.58 1245.44 397.21 1246.27 396.79 1247.08 396.35 1247.88 395.87 1248.65 395.36 1249.39 394.81 1250.12 394.23 1250.82 393.63 1251.49 392.99 1252.13 392.33 1252.75 391.63 1253.33 390.92 1253.88 390.18 1254.4 389.41 1254.89 388.62 1255.35 387.82 1255.77 386.99 1256.15 386.15 1256.5 385.29 1256.81 384.42 1257.08 383.54 1257.31 382.64 1257.51 381.74 1257.67 380.83 1257.79 379.91 1257.87 378.99 1257.91 378.06 1257.91 377.14 1257.87 376.21 1257.79 375.29 1257.67 374.37 1257.51 373.46 1257.31 372.56 1257.08 371.66 1256.81 370.78 1256.5 369.91 1256.15 369.05 1255.77 368.21 1255.35 367.38 1254.89 366.58 1254.4 365.79 1253.88 365.02 1253.33 364.28 1252.75 363.57 1252.13 362.87 1251.49 362.21 1250.82 361.57 1250.12 360.97 1249.39 360.39 1248.65 359.84 1247.88 359.33 1247.09 358.85 1246.27 358.41 1245.44 357.99 1244.6 357.62 1243.74 357.28 1242.86 356.98 1241.98 356.72 1241.08 356.49 1240.17 356.31 1239.26 356.16 1238.34 356.05 1237.42 355.98 1236.49 355.95 1235.57 355.96 1234.64 356.01 1233.72 356.1 1232.8 356.23 1231.89 356.39 1230.99 356.6 1230.1 356.84 1229.22 357.13 1228.35 357.45 1227.5 357.8 1226.66 358.2 1225.84 358.62 1225.04 359.09 1224.26 359.58 1223.5 360.11 1222.76 360.67 1222.05 361.27 1221.37 361.89 1220.71 362.54 1220.08 363.22 1219.48 363.92 1218.91 364.65 1218.37 365.4 1217.87 366.18 1217.4 366.98 1216.96 367.79 1216.56 368.63 1216.19 369.48 1215.86 370.34 1215.57 371.22 1215.32 372.11 1215.1 373.01 1214.93 373.92 1214.79 374.83 1214.69 375.75 1214.63 376.67 1214.61 377.6" fill="none" stroke-width="0"/><path d="M 694.14 275.83 694.16 277.23 694.22 278.63 694.32 280.02 694.46 281.41 694.64 282.8 694.85 284.18 695.11 285.56 695.41 286.93 695.74 288.28 696.12 289.63 696.53 290.97 696.98 292.3 697.46 293.61 697.99 294.9 698.55 296.19 699.14 297.45 699.78 298.7 700.44 299.93 701.15 301.14 701.88 302.33 702.65 303.5 703.46 304.64 704.29 305.76 705.16 306.86 706.06 307.94 706.98 308.98 707.94 310 708.93 311 709.94 311.96 710.98 312.9 712.05 313.8 713.14 314.67 714.26 315.52 715.4 316.33 716.56 317.11 717.74 317.85 718.95 318.56 720.17 319.24 721.42 319.88 722.68 320.49 723.95 321.06 725.25 321.59 726.56 322.09 727.88 322.54 729.21 322.97 730.56 323.35 731.91 323.69 733.28 324 734.65 324.27 736.03 324.49 737.42 324.68 738.81 324.83 740.2 324.94 741.6 325.01 743 325.04 744.4 325.03 745.8 324.98 747.19 324.89 748.59 324.76 749.98 324.59 751.36 324.38 752.74 324.14 754.11 323.85 755.47 323.53 756.82 323.16 758.16 322.76 759.49 322.32 760.8 321.84 762.1 321.33 763.39 320.78 764.66 320.19 765.91 319.56 767.14 318.91 768.36 318.21 769.55 317.48 770.73 316.72 771.88 315.93 773.01 315.1 774.11 314.24 775.19 313.35 776.24 312.43 777.27 311.48 778.27 310.5 779.24 309.5 780.18 308.46 781.1 307.4 781.98 306.32 782.83 305.21 783.65 304.07 784.44 302.91 785.19 301.74 785.91 300.54 786.59 299.32 787.24 298.08 787.86 296.82 788.44 295.55 788.98 294.26 789.49 292.95 789.95 291.63 790.38 290.3 790.78 288.96 791.13 287.61 791.45 286.24 791.72 284.87 791.96 283.49 792.16 282.11 792.32 280.72 792.44 279.32 792.52 277.93 792.56 276.53 792.56 275.13 792.52 273.73 792.44 272.34 792.32 270.94 792.16 269.55 791.96 268.17 791.72 266.79 791.45 265.42 791.13 264.05 790.78 262.7 790.38 261.36 789.95 260.03 789.49 258.71 788.98 257.4 788.44 256.11 787.86 254.84 787.24 253.58 786.59 252.34 785.91 251.12 785.19 249.92 784.44 248.75 783.65 247.59 782.83 246.45 781.98 245.34 781.1 244.26 780.18 243.2 779.24 242.16 778.27 241.16 777.27 240.18 776.24 239.23 775.19 238.31 774.11 237.42 773.01 236.56 771.88 235.73 770.73 234.94 769.55 234.18 768.36 233.45 767.14 232.75 765.91 232.1 764.66 231.47 763.39 230.88 762.1 230.33 760.8 229.82 759.49 229.34 758.16 228.9 756.82 228.5 755.47 228.13 754.11 227.81 752.74 227.52 751.36 227.28 749.98 227.07 748.59 226.9 747.19 226.77 745.8 226.68 744.4 226.63 743 226.62 741.6 226.65 740.2 226.72 738.81 226.83 737.42 226.98 736.03 227.17 734.65 227.39 733.28 227.66 731.91 227.97 730.56 228.31 729.21 228.69 727.88 229.12 726.56 229.57 725.25 230.07 723.95 230.6 722.68 231.17 721.42 231.78 720.17 232.42 718.95 233.1 717.74 233.81 716.56 234.55 715.4 235.33 714.26 236.14 713.14 236.99 712.05 237.86 710.98 238.76 709.94 239.7 708.93 240.66 707.94 241.66 706.98 242.68 706.06 243.72 705.16 244.8 704.29 245.9 703.46 247.02 702.65 248.16 701.88 249.33 701.15 250.52 700.44 251.73 699.78 252.96 699.14 254.21 698.55 255.47 697.99 256.76 697.46 258.05 696.98 259.36 696.53 260.69 696.12 262.03 695.74 263.38 695.41 264.73 695.11 266.1 694.85 267.48 694.64 268.86 694.46 270.25 694.32 271.64 694.22 273.03 694.16 274.43 694.14 275.83 M 707.86 275.83 707.88 277.02 707.94 278.2 708.04 279.38 708.18 280.56 708.35 281.73 708.57 282.9 708.83 284.06 709.12 285.21 709.45 286.34 709.82 287.47 710.23 288.59 710.68 289.68 711.16 290.77 711.67 291.84 712.23 292.89 712.81 293.92 713.44 294.93 714.09 295.92 714.78 296.88 715.5 297.82 716.25 298.74 717.03 299.64 717.84 300.5 718.68 301.34 719.54 302.15 720.44 302.93 721.36 303.68 722.3 304.4 723.26 305.09 724.25 305.74 725.26 306.37 726.29 306.95 727.34 307.51 728.41 308.02 729.5 308.5 730.59 308.95 731.71 309.36 732.84 309.73 733.97 310.06 735.12 310.35 736.28 310.61 737.45 310.83 738.62 311 739.8 311.14 740.98 311.24 742.16 311.3 743.35 311.32 744.54 311.3 745.72 311.24 746.9 311.14 748.08 311 749.25 310.83 750.42 310.61 751.58 310.35 752.73 310.06 753.86 309.73 754.99 309.36 756.11 308.95 757.2 308.5 758.29 308.02 759.36 307.51 760.41 306.95 761.44 306.37 762.45 305.74 763.44 305.09 764.4 304.4 765.34 303.68 766.26 302.93 767.16 302.15 768.02 301.34 768.86 300.5 769.67 299.64 770.45 298.74 771.2 297.82 771.92 296.88 772.61 295.92 773.26 294.93 773.89 293.92 774.47 292.89 775.03 291.84 775.54 290.77 776.02 289.68 776.47 288.59 776.88 287.47 777.25 286.34 777.58 285.21 777.87 284.06 778.13 282.9 778.35 281.73 778.52 280.56 778.66 279.38 778.76 278.2 778.82 277.02 778.84 275.83 778.82 274.64 778.76 273.46 778.66 272.28 778.52 271.1 778.35 269.93 778.13 268.76 777.87 267.6 777.58 266.45 777.25 265.32 776.88 264.19 776.47 263.07 776.02 261.98 775.54 260.89 775.03 259.82 774.47 258.77 773.89 257.74 773.26 256.73 772.61 255.74 771.92 254.78 771.2 253.84 770.45 252.92 769.67 252.02 768.86 251.16 768.02 250.32 767.16 249.51 766.26 248.73 765.34 247.98 764.4 247.26 763.44 246.57 762.45 245.92 761.44 245.29 760.41 244.71 759.36 244.15 758.29 243.64 757.2 243.16 756.11 242.71 754.99 242.3 753.86 241.93 752.73 241.6 751.58 241.31 750.42 241.05 749.25 240.83 748.08 240.66 746.9 240.52 745.72 240.42 744.54 240.36 743.35 240.34 742.16 240.36 740.98 240.42 739.8 240.52 738.62 240.66 737.45 240.83 736.28 241.05 735.12 241.31 733.97 241.6 732.84 241.93 731.71 242.3 730.59 242.71 729.5 243.16 728.41 243.64 727.34 244.15 726.29 244.71 725.26 245.29 724.25 245.92 723.26 246.57 722.3 247.26 721.36 247.98 720.44 248.73 719.54 249.51 718.68 250.32 717.84 251.16 717.03 252.02 716.25 252.92 715.5 253.84 714.78 254.78 714.09 255.74 713.44 256.73 712.81 257.74 712.23 258.77 711.67 259.82 711.16 260.89 710.68 261.98 710.23 263.07 709.82 264.19 709.45 265.32 709.12 266.45 708.83 267.6 708.57 268.76 708.35 269.93 708.18 271.1 708.04 272.28 707.94 273.46 707.88 274.64 707.86 275.83 M 721.34 275.83 721.36 276.76 721.42 277.7 721.52 278.63 721.66 279.55 721.83 280.47 722.05 281.38 722.3 282.28 722.6 283.16 722.93 284.04 723.29 284.9 723.7 285.74 724.13 286.56 724.61 287.37 725.11 288.16 725.65 288.92 726.23 289.66 726.83 290.37 727.46 291.06 728.12 291.72 728.81 292.35 729.52 292.95 730.26 293.53 731.02 294.07 731.81 294.57 732.62 295.05 733.44 295.48 734.28 295.89 735.14 296.25 736.02 296.58 736.9 296.88 737.8 297.13 738.71 297.35 739.63 297.52 740.55 297.66 741.48 297.76 742.42 297.82 743.35 297.84 744.28 297.82 745.22 297.76 746.15 297.66 747.07 297.52 747.99 297.35 748.9 297.13 749.8 296.88 750.68 296.58 751.56 296.25 752.42 295.89 753.26 295.48 754.08 295.05 754.89 294.57 755.68 294.07 756.44 293.53 757.18 292.95 757.89 292.35 758.58 291.72 759.24 291.06 759.87 290.37 760.47 289.66 761.05 288.92 761.59 288.16 762.09 287.37 762.57 286.56 763 285.74 763.41 284.9 763.77 284.04 764.1 283.16 764.4 282.28 764.65 281.38 764.87 280.47 765.04 279.55 765.18 278.63 765.28 277.7 765.34 276.76 765.36 275.83 765.34 274.9 765.28 273.96 765.18 273.03 765.04 272.11 764.87 271.19 764.65 270.28 764.4 269.38 764.1 268.5 763.77 267.62 763.41 266.76 763 265.92 762.57 265.1 762.09 264.29 761.59 263.5 761.05 262.74 760.47 262 759.87 261.29 759.24 260.6 758.58 259.94 757.89 259.31 757.18 258.71 756.44 258.13 755.68 257.59 754.89 257.09 754.08 256.61 753.26 256.18 752.42 255.77 751.56 255.41 750.68 255.08 749.8 254.78 748.9 254.53 747.99 254.31 747.07 254.14 746.15 254 745.22 253.9 744.28 253.84 743.35 253.82 742.42 253.84 741.48 253.9 740.55 254 739.63 254.14 738.71 254.31 737.8 254.53 736.9 254.78 736.02 255.08 735.14 255.41 734.28 255.77 733.44 256.18 732.62 256.61 731.81 257.09 731.02 257.59 730.26 258.13 729.52 258.71 728.81 259.31 728.12 259.94 727.46 260.6 726.83 261.29 726.23 262 725.65 262.74 725.11 263.5 724.61 264.29 724.13 265.1 723.7 265.92 723.29 266.76 722.93 267.62 722.6 268.5 722.3 269.38 722.05 270.28 721.83 271.19 721.66 272.11 721.52 273.03 721.42 273.96 721.36 274.9 721.34 275.83 M 644.92 241.38 605.55 241.38 605.55 261.06 M 605.55 241.38 566.18 241.38 M 593.28 285.04 590.16 288.16 587.82 291.89 586.36 296.05 585.87 300.43 585.87 329.96 586.36 334.34 587.82 338.5 590.16 342.23 593.28 345.35 597.01 347.7 601.17 349.15 605.55 349.65 609.93 349.15 614.09 347.7 617.82 345.35 620.94 342.23 623.29 338.5 624.74 334.34 625.24 329.96 625.24 300.43 624.74 296.05 623.29 291.89 620.94 288.16 617.82 285.04 614.09 282.7 609.93 281.24 605.55 280.75 601.17 281.24 597.01 282.7 593.28 285.04 M 589.62 289.01 621.48 289.01 M 625.07 299 586.03 299 M 585.87 308.99 625.24 308.99 M 625.24 318.97 585.87 318.97 M 585.87 328.96 625.24 328.96 M 623.01 338.94 588.09 338.94 M 600.52 348.93 610.58 348.93 M 644.92 300.43 644.9 299.19 644.84 297.96 644.75 296.72 644.61 295.5 644.44 294.27 644.22 293.05 643.97 291.84 643.68 290.64 643.36 289.45 642.99 288.26 642.59 287.09 642.16 285.94 641.68 284.79 641.17 283.67 640.63 282.56 640.05 281.46 639.44 280.39 638.79 279.33 638.11 278.3 637.4 277.29 636.66 276.3 635.89 275.33 635.08 274.39 634.25 273.48 633.39 272.59 632.5 271.73 631.59 270.9 630.65 270.09 629.68 269.32 628.69 268.58 627.68 267.87 626.65 267.19 625.59 266.54 624.52 265.93 623.42 265.35 622.31 264.81 621.19 264.3 620.04 263.82 618.89 263.39 617.72 262.99 616.53 262.62 615.34 262.3 614.14 262.01 612.93 261.76 611.71 261.54 610.48 261.37 609.26 261.23 608.02 261.14 606.79 261.08 605.55 261.06 604.31 261.08 603.08 261.14 601.84 261.23 600.62 261.37 599.39 261.54 598.17 261.76 596.96 262.01 595.76 262.3 594.57 262.62 593.38 262.99 592.21 263.39 591.06 263.82 589.91 264.3 588.79 264.81 587.68 265.35 586.58 265.93 585.51 266.54 584.45 267.19 583.42 267.87 582.41 268.58 581.42 269.32 580.45 270.09 579.51 270.9 578.6 271.73 577.71 272.59 576.85 273.48 576.02 274.39 575.21 275.33 574.44 276.3 573.7 277.29 572.99 278.3 572.31 279.33 571.66 280.39 571.05 281.46 570.47 282.56 569.93 283.67 569.42 284.79 568.94 285.94 568.51 287.09 568.11 288.26 567.74 289.45 567.42 290.64 567.13 291.84 566.88 293.05 566.66 294.27 566.49 295.5 566.35 296.72 566.26 297.96 566.2 299.19 566.18 300.43 M 211.85 585.87 211.87 586.31 211.93 586.75 212.03 587.18 212.16 587.6 212.34 588 212.55 588.39 212.79 588.76 213.06 589.11 213.37 589.43 213.7 589.72 214.06 589.98 214.44 590.2 214.84 590.39 215.25 590.55 215.68 590.67 216.11 590.75 216.55 590.79 216.99 590.79 217.43 590.75 217.86 590.67 218.29 590.55 218.7 590.39 219.1 590.2 219.48 589.98 219.84 589.72 220.17 589.43 220.48 589.11 220.75 588.76 220.99 588.39 221.2 588 221.38 587.6 221.51 587.18 221.61 586.75 221.67 586.31 221.69 585.87 221.67 585.43 221.61 584.99 221.51 584.56 221.38 584.14 221.2 583.74 220.99 583.35 220.75 582.98 220.48 582.63 220.17 582.31 219.84 582.02 219.48 581.76 219.1 581.54 218.7 581.35 218.29 581.19 217.86 581.07 217.43 580.99 216.99 580.95 216.55 580.95 216.11 580.99 215.68 581.07 215.25 581.19 214.84 581.35 214.44 581.54 214.06 581.76 213.7 582.02 213.37 582.31 213.06 582.63 212.79 582.98 212.55 583.35 212.34 583.74 212.16 584.14 212.03 584.56 211.93 584.99 211.87 585.43 211.85 585.87" fill="none" stroke-width="10"/><path d="M 473.66 552.4 540.59 552.4 540.59 402.8 473.66 402.8 473.66 552.4 M 575.63 610.67 575.63 718.54 625.63 718.54 625.63 610.67 575.63 610.67 M 600.83 551.81 708.7 551.81 708.7 501.81 600.83 501.81 600.83 551.81 M 600.83 502.6 708.7 502.6 708.7 452.6 600.83 452.6 600.83 502.6 M 522.87 485.47 507.13 485.47 522.87 469.72 491.38 469.72 507.13 485.47 491.38 485.47 M 600.83 453.39 708.7 453.39 708.7 403.39 600.83 403.39 600.83 453.39 M 792.17 610.67 792.17 718.54 842.17 718.54 842.17 610.67 792.17 610.67 M 740.39 612.44 677.4 612.44 M 740.39 651.81 740.39 687.24 M 740.39 726.61 677.4 726.61 M 896.1 728.98 896.1 678.98 1003.98 678.98 1003.98 728.98 896.1 728.98 M 896.1 679.76 1003.98 679.76 1003.98 629.76 896.1 629.76 896.1 679.76 M 896.1 630.55 1003.98 630.55 1003.98 580.55 896.1 580.55 896.1 630.55 M 896.1 581.34 1003.98 581.34 1003.98 531.34 896.1 531.34 896.1 581.34 M 896.1 532.13 1003.98 532.13 1003.98 482.13 896.1 482.13 896.1 532.13 M 896.1 482.91 1003.98 482.91 1003.98 432.91 896.1 432.91 896.1 482.91 M 896.1 433.7 1003.98 433.7 1003.98 383.7 896.1 383.7 896.1 433.7 M 896.1 384.49 1003.98 384.49 1003.98 334.49 896.1 334.49 896.1 384.49 M 896.1 335.28 1003.98 335.28 1003.98 285.28 896.1 285.28 896.1 335.28 M 896.1 286.06 1003.98 286.06 1003.98 236.06 896.1 236.06 896.1 286.06" fill="none" stroke-width="8"/><path d="M 874.72 341.41 860.04 341.41 M 867.38 341.41 867.38 363.43 860.04 356.09 M 852.62 359.76 848.95 363.43 841.61 363.43 837.94 359.76 837.94 345.08 841.61 341.41 848.95 341.41 852.62 345.08 M 830.55 341.41 823.21 341.41 M 826.88 341.41 826.88 363.43 M 823.21 363.43 830.55 363.43 M 830.55 459.52 823.21 459.52 M 826.88 459.52 826.88 481.54 M 823.21 481.54 830.55 481.54 M 837.94 477.87 837.94 463.19 841.61 459.52 848.95 459.52 852.62 463.19 M 860.04 459.52 874.72 474.2 874.72 477.87 871.05 481.54 863.71 481.54 860.04 477.87 M 852.62 477.87 848.95 481.54 841.61 481.54 837.94 477.87 M 860.04 459.52 874.72 459.52 M 1010.09 457.58 1010.09 442.9 1013.76 439.23 1021.1 439.23 1024.77 442.9 M 1032.19 442.9 1032.19 446.57 1035.86 450.24 1043.2 450.24 1046.87 446.57 1046.87 442.9 1043.2 439.23 1035.86 439.23 1032.19 442.9 M 1035.86 450.24 1032.19 453.91 1032.19 457.58 1035.86 461.25 1043.2 461.25 1046.87 457.58 1046.87 453.91 1043.2 450.24 M 1024.77 457.58 1021.1 461.25 1013.76 461.25 1010.09 457.58 M 1013.76 488.44 1021.1 488.44 1024.77 492.11 M 1032.19 492.11 1035.86 488.44 1043.2 488.44 1046.87 492.11 1046.87 495.78 1043.2 499.45 1032.19 499.45 1032.19 492.11 M 1032.19 499.45 1039.53 506.79 1046.87 510.46 M 1024.77 506.79 1021.1 510.46 1013.76 510.46 1010.09 506.79 1010.09 492.11 1013.76 488.44 M 1010.09 537.65 1010.09 559.67 1021.1 559.67 1024.77 556 1024.77 548.66 1021.1 544.99 1010.09 544.99 M 1017.43 544.99 1024.77 537.65 M 1032.19 537.65 1046.87 552.33 1046.87 556 1043.2 559.67 1035.86 559.67 1032.19 556 M 1032.19 537.65 1046.87 537.65 M 1043.2 586.87 1043.2 608.88 1032.19 597.88 1046.87 597.88 M 1024.77 597.88 1024.77 605.22 1021.1 608.88 1010.09 608.88 1010.09 586.87 M 1010.09 594.21 1021.1 594.21 1024.77 597.88 M 1017.43 594.21 1024.77 586.87 M 1024.77 636.08 1017.43 643.42 M 1021.1 643.42 1010.09 643.42 M 1010.09 636.08 1010.09 658.1 1021.1 658.1 1024.77 654.43 1024.77 647.09 1021.1 643.42 M 1032.19 647.09 1039.53 650.76 1043.2 650.76 1046.87 647.09 1046.87 639.75 1043.2 636.08 1035.86 636.08 1032.19 639.75 M 1032.19 647.09 1032.19 658.1 1046.87 658.1 M 1032.19 685.29 1032.19 688.96 1046.87 703.64 1046.87 707.31 1032.19 707.31 M 1024.77 703.64 1021.1 707.31 1013.76 707.31 1010.09 703.64 1010.09 688.96 1013.76 685.29 1021.1 685.29 1024.77 688.96 M 870.3 653.17 870.3 638.49 855.62 653.17 851.95 653.17 848.28 649.5 848.28 642.16 851.95 638.49 M 851.95 631.07 848.28 627.4 848.28 620.06 851.95 616.39 866.63 616.39 870.3 620.06 870.3 627.4 866.63 631.07 M 736.8 600.29 736.8 596.62 733.13 592.95 736.8 589.28 736.8 585.61 733.13 581.94 725.79 581.94 722.12 585.61 M 714.7 585.61 711.03 581.94 703.69 581.94 700.02 585.61 700.02 600.29 703.69 603.96 711.03 603.96 714.7 600.29 M 722.12 600.29 725.79 603.96 733.13 603.96 736.8 600.29 M 733.13 592.95 729.46 592.95 M 692.63 581.94 685.29 581.94 M 688.96 581.94 688.96 603.96 M 685.29 603.96 692.63 603.96 M 589.29 532 585.62 535.67 578.28 535.67 574.61 532 M 567.19 532 567.19 524.66 563.52 520.99 552.51 520.99 M 552.51 513.65 552.51 535.67 563.52 535.67 567.19 532 M 559.85 520.99 567.19 513.65 M 574.61 517.32 578.28 513.65 585.62 513.65 589.29 517.32 589.29 520.99 585.62 524.66 581.95 524.66 M 585.62 524.66 589.29 528.33 589.29 532 M 559.57 567.18 544.89 567.18 M 552.23 567.18 552.23 589.2 544.89 581.86 M 537.48 585.53 533.81 589.2 522.8 589.2 522.8 567.18 533.81 567.18 537.48 570.85 537.48 585.53 M 515.38 589.2 500.7 589.2 500.7 567.18 515.38 567.18 M 508.04 578.19 500.7 578.19 M 493.28 567.18 478.6 567.18 478.6 589.2 M 543.16 620.06 543.16 627.4 546.83 631.07 M 546.83 638.49 543.16 642.16 543.16 649.5 546.83 653.17 550.5 653.17 554.17 649.5 557.84 653.17 561.51 653.17 565.18 649.5 565.18 642.16 561.51 638.49 M 561.51 631.07 565.18 627.4 565.18 620.06 561.51 616.39 546.83 616.39 543.16 620.06 M 554.17 645.83 554.17 649.5 M 556.18 486.46 552.51 482.79 552.51 468.11 556.18 464.44 563.52 464.44 567.19 468.11 M 574.61 475.45 589.29 475.45 M 585.62 464.44 585.62 486.46 574.61 475.45 M 567.19 482.79 563.52 486.46 556.18 486.46 M 556.18 437.25 552.51 433.58 552.51 418.9 556.18 415.23 563.52 415.23 567.19 418.9 M 574.61 418.9 578.28 415.23 585.62 415.23 589.29 418.9 589.29 426.24 585.62 429.91 581.95 429.91 574.61 426.24 574.61 437.25 589.29 437.25 M 567.19 433.58 563.52 437.25 556.18 437.25 M 1010.09 412.03 1010.09 390.02 M 1010.09 397.36 1021.1 397.36 1024.77 401.03 1024.77 408.36 1021.1 412.03 1010.09 412.03 M 1032.19 412.03 1046.87 412.03 1046.87 408.36 1032.19 393.69 1032.19 390.02 M 1024.77 390.02 1017.43 397.36 M 1021.1 362.82 1024.77 359.15 1024.77 351.81 1021.1 348.14 1010.09 348.14 M 1010.09 340.8 1010.09 362.82 1021.1 362.82 M 1017.43 348.14 1024.77 340.8 M 1032.19 344.47 1035.86 340.8 1043.2 340.8 1046.87 344.47 1046.87 348.14 1043.2 351.81 1032.19 351.81 1032.19 344.47 M 1032.19 351.81 1039.53 359.15 1046.87 362.82 M 1039.53 313.61 1039.53 291.59 M 1032.19 291.59 1046.87 291.59 M 1024.77 291.59 1017.43 298.93 M 1021.1 298.93 1010.09 298.93 M 1010.09 291.59 1010.09 313.61 1021.1 313.61 1024.77 309.94 1024.77 302.6 1021.1 298.93 M 1032.19 306.27 1039.53 313.61 M 1039.53 264.4 1039.53 242.38 M 1032.19 242.38 1046.87 242.38 M 1032.19 257.06 1039.53 264.4 M 1024.77 260.73 1021.1 264.4 1013.76 264.4 1010.09 260.73 1010.09 246.05 1013.76 242.38 1021.1 242.38 1024.77 246.05" fill="none" stroke-width="2"/><path d="M 817.17 362.64 767.95 362.64 M 767.95 454.76 817.17 454.76 M 817.17 480.75 767.95 480.75 M 767.95 572.87 817.17 572.87" fill="none" stroke-width="5"/><path d="M 871.3 495.24 871.32 495.63 871.38 496.02 871.48 496.4 871.61 496.77 871.78 497.12 871.98 497.46 872.22 497.77 872.49 498.06 872.78 498.32 873.1 498.55 873.44 498.75 873.8 498.91 874.17 499.03 874.56 499.12 874.95 499.17 875.34 499.18 875.73 499.15 876.12 499.08 876.49 498.97 876.86 498.83 877.21 498.65 877.54 498.44 877.85 498.19 878.13 497.92 878.38 497.62 878.6 497.29 878.79 496.95 878.94 496.59 879.06 496.21 879.14 495.83 879.18 495.44 879.18 495.04 879.14 494.65 879.06 494.27 878.94 493.89 878.79 493.53 878.6 493.19 878.38 492.86 878.13 492.56 877.85 492.29 877.54 492.04 877.21 491.83 876.86 491.65 876.49 491.51 876.12 491.4 875.73 491.33 875.34 491.3 874.95 491.31 874.56 491.36 874.17 491.45 873.8 491.57 873.44 491.73 873.1 491.93 872.78 492.16 872.49 492.42 872.22 492.71 871.98 493.02 871.78 493.36 871.61 493.71 871.48 494.08 871.38 494.46 871.32 494.85 871.3 495.24 M 871.3 377.13 871.32 377.52 871.38 377.91 871.48 378.29 871.61 378.66 871.78 379.01 871.98 379.35 872.22 379.66 872.49 379.95 872.78 380.21 873.1 380.44 873.44 380.64 873.8 380.8 874.17 380.92 874.56 381.01 874.95 381.06 875.34 381.07 875.73 381.04 876.12 380.97 876.49 380.86 876.86 380.72 877.21 380.54 877.54 380.33 877.85 380.08 878.13 379.81 878.38 379.51 878.6 379.18 878.79 378.84 878.94 378.48 879.06 378.1 879.14 377.72 879.18 377.33 879.18 376.93 879.14 376.54 879.06 376.16 878.94 375.78 878.79 375.42 878.6 375.08 878.38 374.75 878.13 374.45 877.85 374.18 877.54 373.93 877.21 373.72 876.86 373.54 876.49 373.4 876.12 373.29 875.73 373.22 875.34 373.19 874.95 373.2 874.56 373.25 874.17 373.34 873.8 373.46 873.44 373.62 873.1 373.82 872.78 374.05 872.49 374.31 872.22 374.6 871.98 374.91 871.78 375.25 871.61 375.6 871.48 375.97 871.38 376.35 871.32 376.74 871.3 377.13" fill="none" stroke-width="7.87"/><path d="M 728.59 275.83 728.61 276.6 728.67 277.36 728.77 278.12 728.91 278.87 729.08 279.62 729.3 280.35 729.55 281.08 729.85 281.79 730.17 282.48 730.54 283.15 730.93 283.81 731.36 284.44 731.83 285.05 732.32 285.64 732.85 286.2 733.4 286.73 733.98 287.23 734.58 287.7 735.21 288.14 735.86 288.55 736.53 288.92 737.22 289.26 737.92 289.56 738.64 289.82 739.38 290.04 740.12 290.23 740.87 290.38 741.63 290.49 742.39 290.56 743.16 290.59 743.92 290.58 744.69 290.53 745.45 290.44 746.21 290.31 746.95 290.14 747.69 289.94 748.42 289.69 749.13 289.41 749.83 289.09 750.51 288.74 751.17 288.35 751.81 287.93 752.42 287.47 753.02 286.98 753.58 286.47 754.12 285.92 754.63 285.35 755.11 284.75 755.56 284.13 755.97 283.48 756.35 282.82 756.7 282.14 757 281.43 757.28 280.72 757.51 279.99 757.71 279.25 757.87 278.5 757.99 277.74 758.07 276.98 758.11 276.21 758.11 275.45 758.07 274.68 757.99 273.92 757.87 273.16 757.71 272.41 757.51 271.67 757.28 270.94 757 270.23 756.7 269.52 756.35 268.84 755.97 268.18 755.56 267.53 755.11 266.91 754.63 266.31 754.12 265.74 753.58 265.19 753.02 264.68 752.42 264.19 751.81 263.73 751.17 263.31 750.51 262.92 749.83 262.57 749.13 262.25 748.42 261.97 747.69 261.72 746.95 261.52 746.21 261.35 745.45 261.22 744.69 261.13 743.92 261.08 743.16 261.07 742.39 261.1 741.63 261.17 740.87 261.28 740.12 261.43 739.38 261.62 738.64 261.84 737.92 262.1 737.22 262.4 736.53 262.74 735.86 263.11 735.21 263.52 734.58 263.96 733.98 264.43 733.4 264.93 732.85 265.46 732.32 266.02 731.83 266.61 731.36 267.22 730.93 267.85 730.54 268.51 730.17 269.18 729.85 269.87 729.55 270.58 729.3 271.31 729.08 272.04 728.91 272.79 728.77 273.54 728.67 274.3 728.61 275.06 728.59 275.83" fill="none" stroke-width="0.04"/></g></svg>