<svg version="1.1" xmlns="http://www.w3.org/2000/svg" xmlns:xlink="http://www.w3.org/1999/xlink" stroke-linecap="round" stroke-linejoin="round" stroke-width="0" fill-rule="evenodd" width="9.31101in" height="4.7366in" viewBox="3073.245 2309.3 9311.01 4736.6" id="jwc5TJRGqQ2Fcw8NXTcO"><defs><circle cx="0" cy="0" r="6.1" id="jwc5TJRGqQ2Fcw8NXTcO_pad-1"/><circle cx="0" cy="0" r="21.655" id="jwc5TJRGqQ2Fcw8NXTcO_pad-2"/></defs><g transform="translate(0,9355.2) scale(1,-1)" fill="currentColor" stroke="currentColor"><use xlink:href="#jwc5TJRGqQ2Fcw8NXTcO_pad-1" x="5465" y="6350.8"/><use xlink:href="#jwc5TJRGqQ2Fcw8NXTcO_pad-1" x="5661.8" y="5858.7"/><use xlink:href="#jwc5TJRGqQ2Fcw8NXTcO_pad-1" x="6252.4" y="5268.1"/><use xlink:href="#jwc5TJRGqQ2Fcw8NXTcO_pad-1" x="7728.7" y="5957.1"/><use xlink:href="#jwc5TJRGqQ2Fcw8NXTcO_pad-1" x="8811.4" y="5661.8"/><use xlink:href="#jwc5TJRGqQ2Fcw8NXTcO_pad-1" x="8811.4" y="5268.1"/><use xlink:href="#jwc5TJRGqQ2Fcw8NXTcO_pad-1" x="9795.7" y="4972.8"/><use xlink:href="#jwc5TJRGqQ2Fcw8NXTcO_pad-1" x="9795.7" y="5563.4"/><use xlink:href="#jwc5TJRGqQ2Fcw8NXTcO_pad-1" x="9795.7" y="6055.5"/><use xlink:href="#jwc5TJRGqQ2Fcw8NXTcO_pad-1" x="10779.9" y="5268.1"/><use xlink:href="#jwc5TJRGqQ2Fcw8NXTcO_pad-1" x="11862.6" y="4185.4"/><use xlink:href="#jwc5TJRGqQ2Fcw8NXTcO_pad-1" x="9795.7" y="4283.9"/><use xlink:href="#jwc5TJRGqQ2Fcw8NXTcO_pad-1" x="8811.4" y="4283.9"/><use xlink:href="#jwc5TJRGqQ2Fcw8NXTcO_pad-1" x="8811.4" y="3939.4"/><use xlink:href="#jwc5TJRGqQ2Fcw8NXTcO_pad-1" x="8713" y="3398"/><use xlink:href="#jwc5TJRGqQ2Fcw8NXTcO_pad-1" x="8909.8" y="3004.3"/><use xlink:href="#jwc5TJRGqQ2Fcw8NXTcO_pad-1" x="9795.7" y="3102.8"/><use xlink:href="#jwc5TJRGqQ2Fcw8NXTcO_pad-1" x="8220.9" y="2315.4"/><use xlink:href="#jwc5TJRGqQ2Fcw8NXTcO_pad-1" x="7827.2" y="3594.9"/><use xlink:href="#jwc5TJRGqQ2Fcw8NXTcO_pad-1" x="6941.3" y="3693.3"/><use xlink:href="#jwc5TJRGqQ2Fcw8NXTcO_pad-1" x="5858.7" y="3791.7"/><use xlink:href="#jwc5TJRGqQ2Fcw8NXTcO_pad-1" x="8417.7" y="4677.6"/><use xlink:href="#jwc5TJRGqQ2Fcw8NXTcO_pad-1" x="11862.6" y="6006.3"/><use xlink:href="#jwc5TJRGqQ2Fcw8NXTcO_pad-1" x="8614.6" y="6941.3"/><use xlink:href="#jwc5TJRGqQ2Fcw8NXTcO_pad-1" x="6646.1" y="6695.3"/><use xlink:href="#jwc5TJRGqQ2Fcw8NXTcO_pad-1" x="5366.5" y="7039.8"/><use xlink:href="#jwc5TJRGqQ2Fcw8NXTcO_pad-2" x="4094.9" y="3776"/><use xlink:href="#jwc5TJRGqQ2Fcw8NXTcO_pad-2" x="3094.9" y="3776"/><use xlink:href="#jwc5TJRGqQ2Fcw8NXTcO_pad-2" x="3094.9" y="4776"/><use xlink:href="#jwc5TJRGqQ2Fcw8NXTcO_pad-2" x="4094.9" y="4776"/><use xlink:href="#jwc5TJRGqQ2Fcw8NXTcO_pad-2" x="4094.9" y="5776"/><use xlink:href="#jwc5TJRGqQ2Fcw8NXTcO_pad-2" x="3094.9" y="5776"/><use xlink:href="#jwc5TJRGqQ2Fcw8NXTcO_pad-2" x="11362.6" y="3776"/><use xlink:href="#jwc5TJRGqQ2Fcw8NXTcO_pad-2" x="12362.6" y="3776"/><use xlink:href="#jwc5TJRGqQ2Fcw8NXTcO_pad-2" x="12362.6" y="4776"/><use xlink:href="#jwc5TJRGqQ2Fcw8NXTcO_pad-2" x="11362.6" y="4776"/><use xlink:href="#jwc5TJRGqQ2Fcw8NXTcO_pad-2" x="11362.6" y="5776"/><use xlink:href="#jwc5TJRGqQ2Fcw8NXTcO_pad-2" x="12362.6" y="5776"/></g></svg>