<svg version="1.1" xmlns="http://www.w3.org/2000/svg" xmlns:xlink="http://www.w3.org/1999/xlink" stroke-linecap="round" stroke-linejoin="round" stroke-width="0" fill-rule="evenodd" width="1.16791in" height="0.55145in" viewBox="189.61 201.74 1167.91 551.45" id="TMrf20AA0dTeA9JYQ8kS"><defs><rect x="-35.435" y="-17.715" width="70.87" height="35.43" id="TMrf20AA0dTeA9JYQ8kS_pad-11"/><circle cx="0" cy="0" r="14.23" id="TMrf20AA0dTeA9JYQ8kS_pad-12"/><circle cx="0" cy="0" r="12.045" id="TMrf20AA0dTeA9JYQ8kS_pad-13"/><circle cx="0" cy="0" r="11.065" id="TMrf20AA0dTeA9JYQ8kS_pad-14"/><circle cx="0" cy="0" r="30.71" id="TMrf20AA0dTeA9JYQ8kS_pad-15"/><rect x="-17.715" y="-17.715" width="35.43" height="35.43" id="TMrf20AA0dTeA9JYQ8kS_pad-17"/><polygon points="12.09998,5.01197 5.01197,12.09998 -5.01197,12.09998 -12.09998,5.01197 -12.09998,-5.01197 -5.01197,-12.09998 5.01197,-12.09998 12.09998,-5.01197" id="TMrf20AA0dTeA9JYQ8kS_pad-19"/></defs><g transform="translate(0,954.9300000000001) scale(1,-1)" fill="currentColor" stroke="currentColor"><path d="M 457.91 320.12 459.15 320.1 460.38 320.04 461.62 319.95 462.84 319.81 464.07 319.64 465.29 319.42 466.5 319.17 467.7 318.88 468.89 318.56 470.08 318.19 471.25 317.79 472.4 317.36 473.55 316.88 474.67 316.37 475.78 315.83 476.88 315.25 477.95 314.64 479.01 313.99 480.04 313.31 481.05 312.6 482.04 311.86 483.01 311.09 483.95 310.28 484.86 309.45 485.75 308.59 486.61 307.7 487.44 306.79 488.25 305.85 489.02 304.88 489.76 303.89 490.47 302.88 491.15 301.85 491.8 300.79 492.41 299.72 492.99 298.62 493.53 297.51 494.04 296.39 494.52 295.24 494.95 294.09 495.35 292.92 495.72 291.73 496.04 290.54 496.33 289.34 496.58 288.13 496.8 286.91 496.97 285.68 497.11 284.46 497.2 283.22 497.26 281.99 497.28 280.75 497.28 241.38 497.13 240.23 497.03 239.07 496.96 237.91 496.93 236.75 496.94 235.58 496.99 234.42 497.08 233.26 497.2 232.11 497.37 230.95 497.57 229.81 497.81 228.67 498.09 227.54 498.41 226.42 498.76 225.32 499.15 224.22 499.58 223.14 500.04 222.07 500.54 221.02 501.08 219.99 501.64 218.97 502.24 217.98 502.88 217 503.54 216.05 504.24 215.12 504.97 214.21 505.73 213.33 506.52 212.47 507.33 211.64 508.18 210.84 509.04 210.07 509.94 209.33 510.86 208.61 511.8 207.93 512.76 207.28 513.75 206.66 514.76 206.08 515.78 205.53 516.82 205.01 517.88 204.53 518.96 204.09 520.05 203.68 521.15 203.31 522.26 202.97 523.38 202.68 524.52 202.42 525.66 202.19 526.81 202.01 999.25 202.01 1000.56 201.89 1001.88 201.8 1003.2 201.75 1004.52 201.74 1005.84 201.77 1007.16 201.84 1008.48 201.95 1009.79 202.1 1011.1 202.28 1012.4 202.51 1013.69 202.77 1014.98 203.07 1016.25 203.41 1017.52 203.79 1018.77 204.2 1020.02 204.65 1021.24 205.14 1022.45 205.66 1023.65 206.22 1024.83 206.82 1025.99 207.45 1027.13 208.11 1028.25 208.81 1029.35 209.54 1030.43 210.3 1031.49 211.1 1032.52 211.92 1033.53 212.78 1034.51 213.66 1035.46 214.57 1036.39 215.52 1037.28 216.48 1038.15 217.48 1038.99 218.5 1039.8 219.54 1040.58 220.61 1041.32 221.7 1042.04 222.81 1042.72 223.94 1043.36 225.1 1043.97 226.27 1044.55 227.45 1045.09 228.66 1045.59 229.88 1046.06 231.11 1046.49 232.36 1046.89 233.62 1047.25 234.89 1047.56 236.18 1047.85 237.47 1048.09 238.76 1048.29 240.07 1048.46 241.38 1048.46 280.75 1048.48 281.99 1048.54 283.22 1048.63 284.46 1048.77 285.68 1048.94 286.91 1049.16 288.13 1049.41 289.34 1049.7 290.54 1050.02 291.73 1050.39 292.92 1050.79 294.09 1051.22 295.24 1051.7 296.39 1052.21 297.51 1052.75 298.62 1053.33 299.72 1053.94 300.79 1054.59 301.85 1055.27 302.88 1055.98 303.89 1056.72 304.88 1057.49 305.85 1058.3 306.79 1059.13 307.7 1059.99 308.59 1060.88 309.45 1061.79 310.28 1062.73 311.09 1063.7 311.86 1064.69 312.6 1065.7 313.31 1066.73 313.99 1067.79 314.64 1068.86 315.25 1069.96 315.83 1071.07 316.37 1072.19 316.88 1073.34 317.36 1074.49 317.79 1075.66 318.19 1076.85 318.56 1078.04 318.88 1079.24 319.17 1080.45 319.42 1081.67 319.64 1082.9 319.81 1084.12 319.95 1085.36 320.04 1086.59 320.1 1087.83 320.12 1318.15 320.12 1319.39 320.14 1320.62 320.2 1321.86 320.29 1323.08 320.43 1324.31 320.6 1325.53 320.82 1326.74 321.07 1327.94 321.36 1329.13 321.68 1330.32 322.05 1331.49 322.45 1332.64 322.88 1333.79 323.36 1334.91 323.87 1336.02 324.41 1337.12 324.99 1338.19 325.6 1339.25 326.25 1340.28 326.93 1341.29 327.64 1342.28 328.38 1343.25 329.15 1344.19 329.96 1345.1 330.79 1345.99 331.65 1346.85 332.54 1347.68 333.45 1348.49 334.39 1349.26 335.36 1350 336.35 1350.71 337.36 1351.39 338.39 1352.04 339.45 1352.65 340.52 1353.23 341.62 1353.77 342.73 1354.28 343.85 1354.76 345 1355.19 346.15 1355.59 347.32 1355.96 348.51 1356.28 349.7 1356.57 350.9 1356.82 352.11 1357.04 353.33 1357.21 354.56 1357.35 355.78 1357.44 357.02 1357.5 358.25 1357.52 359.49 1357.52 595.71 1357.5 596.95 1357.44 598.18 1357.35 599.42 1357.21 600.64 1357.04 601.87 1356.82 603.09 1356.57 604.3 1356.28 605.5 1355.96 606.69 1355.59 607.88 1355.19 609.05 1354.76 610.2 1354.28 611.35 1353.77 612.47 1353.23 613.58 1352.65 614.68 1352.04 615.75 1351.39 616.81 1350.71 617.84 1350 618.85 1349.26 619.84 1348.49 620.81 1347.68 621.75 1346.85 622.66 1345.99 623.55 1345.1 624.41 1344.19 625.24 1343.25 626.05 1342.28 626.82 1341.29 627.56 1340.28 628.27 1339.25 628.95 1338.19 629.6 1337.12 630.21 1336.02 630.79 1334.91 631.33 1333.79 631.84 1332.64 632.32 1331.49 632.75 1330.32 633.15 1329.13 633.52 1327.94 633.84 1326.74 634.13 1325.53 634.38 1324.31 634.6 1323.08 634.77 1321.86 634.91 1320.62 635 1319.39 635.06 1318.15 635.08 1087.83 635.08 1086.59 635.1 1085.36 635.16 1084.12 635.25 1082.9 635.39 1081.67 635.56 1080.45 635.78 1079.24 636.03 1078.04 636.32 1076.85 636.64 1075.66 637.01 1074.49 637.41 1073.34 637.84 1072.19 638.32 1071.07 638.83 1069.96 639.37 1068.86 639.95 1067.79 640.56 1066.73 641.21 1065.7 641.89 1064.69 642.6 1063.7 643.34 1062.73 644.11 1061.79 644.92 1060.88 645.75 1059.99 646.61 1059.13 647.5 1058.3 648.41 1057.49 649.35 1056.72 650.32 1055.98 651.31 1055.27 652.32 1054.59 653.35 1053.94 654.41 1053.33 655.48 1052.75 656.58 1052.21 657.69 1051.7 658.81 1051.22 659.96 1050.79 661.11 1050.39 662.28 1050.02 663.47 1049.7 664.66 1049.41 665.86 1049.16 667.07 1048.94 668.29 1048.77 669.52 1048.63 670.74 1048.54 671.98 1048.48 673.21 1048.46 674.45 1048.46 713.82 1048.44 715.06 1048.38 716.29 1048.29 717.53 1048.15 718.75 1047.98 719.98 1047.76 721.2 1047.51 722.41 1047.22 723.61 1046.9 724.8 1046.53 725.99 1046.13 727.16 1045.7 728.31 1045.22 729.46 1044.71 730.58 1044.17 731.69 1043.59 732.79 1042.98 733.86 1042.33 734.92 1041.65 735.95 1040.94 736.96 1040.2 737.95 1039.43 738.92 1038.62 739.86 1037.79 740.77 1036.93 741.66 1036.04 742.52 1035.13 743.35 1034.19 744.16 1033.22 744.93 1032.23 745.67 1031.22 746.38 1030.19 747.06 1029.13 747.71 1028.06 748.32 1026.96 748.9 1025.85 749.44 1024.73 749.95 1023.58 750.43 1022.43 750.86 1021.26 751.26 1020.07 751.63 1018.88 751.95 1017.68 752.24 1016.47 752.49 1015.25 752.71 1014.02 752.88 1012.8 753.02 1011.56 753.11 1010.33 753.17 1009.09 753.19 536.65 753.19 535.41 753.17 534.18 753.11 532.94 753.02 531.72 752.88 530.49 752.71 529.27 752.49 528.06 752.24 526.86 751.95 525.67 751.63 524.48 751.26 523.31 750.86 522.16 750.43 521.01 749.95 519.89 749.44 518.78 748.9 517.68 748.32 516.61 747.71 515.55 747.06 514.52 746.38 513.51 745.67 512.52 744.93 511.55 744.16 510.61 743.35 509.7 742.52 508.81 741.66 507.95 740.77 507.12 739.86 506.31 738.92 505.54 737.95 504.8 736.96 504.09 735.95 503.41 734.92 502.76 733.86 502.15 732.79 501.57 731.69 501.03 730.58 500.52 729.46 500.04 728.31 499.61 727.16 499.21 725.99 498.84 724.8 498.52 723.61 498.23 722.41 497.98 721.2 497.76 719.98 497.59 718.75 497.45 717.53 497.36 716.29 497.3 715.06 497.28 713.82 497.28 674.45 497.26 673.21 497.2 671.98 497.11 670.74 496.97 669.52 496.8 668.29 496.58 667.07 496.33 665.86 496.04 664.66 495.72 663.47 495.35 662.28 494.95 661.11 494.52 659.96 494.04 658.81 493.53 657.69 492.99 656.58 492.41 655.48 491.8 654.41 491.15 653.35 490.47 652.32 489.76 651.31 489.02 650.32 488.25 649.35 487.44 648.41 486.61 647.5 485.75 646.61 484.86 645.75 483.95 644.92 483.01 644.11 482.04 643.34 481.05 642.6 480.04 641.89 479.01 641.21 477.95 640.56 476.88 639.95 475.78 639.37 474.67 638.83 473.55 638.32 472.4 637.84 471.25 637.41 470.08 637.01 468.89 636.64 467.7 636.32 466.5 636.03 465.29 635.78 464.07 635.56 462.84 635.39 461.62 635.25 460.38 635.16 459.15 635.1 457.91 635.08 228.98 635.08 227.74 635.06 226.51 635 225.27 634.91 224.05 634.77 222.82 634.6 221.6 634.38 220.39 634.13 219.19 633.84 218 633.52 216.81 633.15 215.64 632.75 214.49 632.32 213.34 631.84 212.22 631.33 211.11 630.79 210.01 630.21 208.94 629.6 207.88 628.95 206.85 628.27 205.84 627.56 204.85 626.82 203.88 626.05 202.94 625.24 202.03 624.41 201.14 623.55 200.28 622.66 199.45 621.75 198.64 620.81 197.87 619.84 197.13 618.85 196.42 617.84 195.74 616.81 195.09 615.75 194.48 614.68 193.9 613.58 193.36 612.47 192.85 611.35 192.37 610.2 191.94 609.05 191.54 607.88 191.17 606.69 190.85 605.5 190.56 604.3 190.31 603.09 190.09 601.87 189.92 600.64 189.78 599.42 189.69 598.18 189.63 596.95 189.61 595.71 189.61 359.49 189.63 358.25 189.69 357.02 189.78 355.78 189.92 354.56 190.09 353.33 190.31 352.11 190.56 350.9 190.85 349.7 191.17 348.51 191.54 347.32 191.94 346.15 192.37 345 192.85 343.85 193.36 342.73 193.9 341.62 194.48 340.52 195.09 339.45 195.74 338.39 196.42 337.36 197.13 336.35 197.87 335.36 198.64 334.39 199.45 333.45 200.28 332.54 201.14 331.65 202.03 330.79 202.94 329.96 203.88 329.15 204.85 328.38 205.84 327.64 206.85 326.93 207.88 326.25 208.94 325.6 210.01 324.99 211.11 324.41 212.22 323.87 213.34 323.36 214.49 322.88 215.64 322.45 216.81 322.05 218 321.68 219.19 321.36 220.39 321.07 221.6 320.82 222.82 320.6 224.05 320.43 225.27 320.29 226.51 320.2 227.74 320.14 228.98 320.12 457.91 320.12 M 387.84 377.6 387.86 378.53 387.92 379.45 388.02 380.37 388.16 381.28 388.33 382.19 388.55 383.09 388.8 383.98 389.09 384.86 389.42 385.72 389.79 386.57 390.19 387.41 390.63 388.22 391.1 389.02 391.6 389.8 392.14 390.55 392.71 391.28 393.31 391.98 393.94 392.66 394.6 393.31 395.28 393.93 395.99 394.53 396.73 395.09 397.49 395.62 398.27 396.11 399.07 396.58 399.89 397 400.73 397.4 401.58 397.75 402.45 398.07 403.33 398.36 404.22 398.6 405.12 398.81 406.03 398.97 406.95 399.1 407.87 399.19 408.8 399.24 409.72 399.25 410.65 399.22 411.57 399.15 412.49 399.04 413.4 398.89 414.31 398.71 415.21 398.48 416.09 398.22 416.97 397.92 417.83 397.58 418.67 397.21 419.5 396.79 420.31 396.35 421.11 395.87 421.88 395.36 422.62 394.81 423.35 394.23 424.05 393.63 424.72 392.99 425.36 392.33 425.98 391.63 426.56 390.92 427.11 390.18 427.63 389.41 428.12 388.62 428.58 387.82 429 386.99 429.38 386.15 429.73 385.29 430.04 384.42 430.31 383.54 430.54 382.64 430.74 381.74 430.9 380.83 431.02 379.91 431.1 378.99 431.14 378.06 431.14 377.14 431.1 376.21 431.02 375.29 430.9 374.37 430.74 373.46 430.54 372.56 430.31 371.66 430.04 370.78 429.73 369.91 429.38 369.05 429 368.21 428.58 367.38 428.12 366.58 427.63 365.79 427.11 365.02 426.56 364.28 425.98 363.57 425.36 362.87 424.72 362.21 424.05 361.57 423.35 360.97 422.62 360.39 421.88 359.84 421.11 359.33 420.32 358.85 419.5 358.41 418.67 357.99 417.83 357.62 416.97 357.28 416.09 356.98 415.21 356.72 414.31 356.49 413.4 356.31 412.49 356.16 411.57 356.05 410.65 355.98 409.72 355.95 408.8 355.96 407.87 356.01 406.95 356.1 406.03 356.23 405.12 356.39 404.22 356.6 403.33 356.84 402.45 357.13 401.58 357.45 400.73 357.8 399.89 358.2 399.07 358.62 398.27 359.09 397.49 359.58 396.73 360.11 395.99 360.67 395.28 361.27 394.6 361.89 393.94 362.54 393.31 363.22 392.71 363.92 392.14 364.65 391.6 365.4 391.1 366.18 390.63 366.98 390.19 367.79 389.79 368.63 389.42 369.48 389.09 370.34 388.8 371.22 388.55 372.11 388.33 373.01 388.16 373.92 388.02 374.83 387.92 375.75 387.86 376.67 387.84 377.6 M 287.84 377.6 287.86 378.53 287.92 379.45 288.02 380.37 288.16 381.28 288.33 382.19 288.55 383.09 288.8 383.98 289.09 384.86 289.42 385.72 289.79 386.57 290.19 387.41 290.63 388.22 291.1 389.02 291.6 389.8 292.14 390.55 292.71 391.28 293.31 391.98 293.94 392.66 294.6 393.31 295.28 393.93 295.99 394.53 296.73 395.09 297.49 395.62 298.27 396.11 299.07 396.58 299.89 397 300.73 397.4 301.58 397.75 302.45 398.07 303.33 398.36 304.22 398.6 305.12 398.81 306.03 398.97 306.95 399.1 307.87 399.19 308.8 399.24 309.72 399.25 310.65 399.22 311.57 399.15 312.49 399.04 313.4 398.89 314.31 398.71 315.21 398.48 316.09 398.22 316.97 397.92 317.83 397.58 318.67 397.21 319.5 396.79 320.31 396.35 321.11 395.87 321.88 395.36 322.62 394.81 323.35 394.23 324.05 393.63 324.72 392.99 325.36 392.33 325.98 391.63 326.56 390.92 327.11 390.18 327.63 389.41 328.12 388.62 328.58 387.82 329 386.99 329.38 386.15 329.73 385.29 330.04 384.42 330.31 383.54 330.54 382.64 330.74 381.74 330.9 380.83 331.02 379.91 331.1 378.99 331.14 378.06 331.14 377.14 331.1 376.21 331.02 375.29 330.9 374.37 330.74 373.46 330.54 372.56 330.31 371.66 330.04 370.78 329.73 369.91 329.38 369.05 329 368.21 328.58 367.38 328.12 366.58 327.63 365.79 327.11 365.02 326.56 364.28 325.98 363.57 325.36 362.87 324.72 362.21 324.05 361.57 323.35 360.97 322.62 360.39 321.88 359.84 321.11 359.33 320.32 358.85 319.5 358.41 318.67 357.99 317.83 357.62 316.97 357.28 316.09 356.98 315.21 356.72 314.31 356.49 313.4 356.31 312.49 356.16 311.57 356.05 310.65 355.98 309.72 355.95 308.8 355.96 307.87 356.01 306.95 356.1 306.03 356.23 305.12 356.39 304.22 356.6 303.33 356.84 302.45 357.13 301.58 357.45 300.73 357.8 299.89 358.2 299.07 358.62 298.27 359.09 297.49 359.58 296.73 360.11 295.99 360.67 295.28 361.27 294.6 361.89 293.94 362.54 293.31 363.22 292.71 363.92 292.14 364.65 291.6 365.4 291.1 366.18 290.63 366.98 290.19 367.79 289.79 368.63 289.42 369.48 289.09 370.34 288.8 371.22 288.55 372.11 288.33 373.01 288.16 373.92 288.02 374.83 287.92 375.75 287.86 376.67 287.84 377.6 M 287.84 477.6 287.86 478.53 287.92 479.45 288.02 480.37 288.16 481.28 288.33 482.19 288.55 483.09 288.8 483.98 289.09 484.86 289.42 485.72 289.79 486.57 290.19 487.41 290.63 488.22 291.1 489.02 291.6 489.8 292.14 490.55 292.71 491.28 293.31 491.98 293.94 492.66 294.6 493.31 295.28 493.93 295.99 494.53 296.73 495.09 297.49 495.62 298.27 496.11 299.07 496.58 299.89 497 300.73 497.4 301.58 497.75 302.45 498.07 303.33 498.36 304.22 498.6 305.12 498.81 306.03 498.97 306.95 499.1 307.87 499.19 308.8 499.24 309.72 499.25 310.65 499.22 311.57 499.15 312.49 499.04 313.4 498.89 314.31 498.71 315.21 498.48 316.09 498.22 316.97 497.92 317.83 497.58 318.67 497.21 319.5 496.79 320.31 496.35 321.11 495.87 321.88 495.36 322.62 494.81 323.35 494.23 324.05 493.63 324.72 492.99 325.36 492.33 325.98 491.63 326.56 490.92 327.11 490.18 327.63 489.41 328.12 488.62 328.58 487.82 329 486.99 329.38 486.15 329.73 485.29 330.04 484.42 330.31 483.54 330.54 482.64 330.74 481.74 330.9 480.83 331.02 479.91 331.1 478.99 331.14 478.06 331.14 477.14 331.1 476.21 331.02 475.29 330.9 474.37 330.74 473.46 330.54 472.56 330.31 471.66 330.04 470.78 329.73 469.91 329.38 469.05 329 468.21 328.58 467.38 328.12 466.58 327.63 465.79 327.11 465.02 326.56 464.28 325.98 463.57 325.36 462.87 324.72 462.21 324.05 461.57 323.35 460.97 322.62 460.39 321.88 459.84 321.11 459.33 320.32 458.85 319.5 458.41 318.67 457.99 317.83 457.62 316.97 457.28 316.09 456.98 315.21 456.72 314.31 456.49 313.4 456.31 312.49 456.16 311.57 456.05 310.65 455.98 309.72 455.95 308.8 455.96 307.87 456.01 306.95 456.1 306.03 456.23 305.12 456.39 304.22 456.6 303.33 456.84 302.45 457.13 301.58 457.45 300.73 457.8 299.89 458.2 299.07 458.62 298.27 459.09 297.49 459.58 296.73 460.11 295.99 460.67 295.28 461.27 294.6 461.89 293.94 462.54 293.31 463.22 292.71 463.92 292.14 464.65 291.6 465.4 291.1 466.18 290.63 466.98 290.19 467.79 289.79 468.63 289.42 469.48 289.09 470.34 288.8 471.22 288.55 472.11 288.33 473.01 288.16 473.92 288.02 474.83 287.92 475.75 287.86 476.67 287.84 477.6 M 387.84 477.6 387.86 478.53 387.92 479.45 388.02 480.37 388.16 481.28 388.33 482.19 388.55 483.09 388.8 483.98 389.09 484.86 389.42 485.72 389.79 486.57 390.19 487.41 390.63 488.22 391.1 489.02 391.6 489.8 392.14 490.55 392.71 491.28 393.31 491.98 393.94 492.66 394.6 493.31 395.28 493.93 395.99 494.53 396.73 495.09 397.49 495.62 398.27 496.11 399.07 496.58 399.89 497 400.73 497.4 401.58 497.75 402.45 498.07 403.33 498.36 404.22 498.6 405.12 498.81 406.03 498.97 406.95 499.1 407.87 499.19 408.8 499.24 409.72 499.25 410.65 499.22 411.57 499.15 412.49 499.04 413.4 498.89 414.31 498.71 415.21 498.48 416.09 498.22 416.97 497.92 417.83 497.58 418.67 497.21 419.5 496.79 420.31 496.35 421.11 495.87 421.88 495.36 422.62 494.81 423.35 494.23 424.05 493.63 424.72 492.99 425.36 492.33 425.98 491.63 426.56 490.92 427.11 490.18 427.63 489.41 428.12 488.62 428.58 487.82 429 486.99 429.38 486.15 429.73 485.29 430.04 484.42 430.31 483.54 430.54 482.64 430.74 481.74 430.9 480.83 431.02 479.91 431.1 478.99 431.14 478.06 431.14 477.14 431.1 476.21 431.02 475.29 430.9 474.37 430.74 473.46 430.54 472.56 430.31 471.66 430.04 470.78 429.73 469.91 429.38 469.05 429 468.21 428.58 467.38 428.12 466.58 427.63 465.79 427.11 465.02 426.56 464.28 425.98 463.57 425.36 462.87 424.72 462.21 424.05 461.57 423.35 460.97 422.62 460.39 421.88 459.84 421.11 459.33 420.32 458.85 419.5 458.41 418.67 457.99 417.83 457.62 416.97 457.28 416.09 456.98 415.21 456.72 414.31 456.49 413.4 456.31 412.49 456.16 411.57 456.05 410.65 455.98 409.72 455.95 408.8 455.96 407.87 456.01 406.95 456.1 406.03 456.23 405.12 456.39 404.22 456.6 403.33 456.84 402.45 457.13 401.58 457.45 400.73 457.8 399.89 458.2 399.07 458.62 398.27 459.09 397.49 459.58 396.73 460.11 395.99 460.67 395.28 461.27 394.6 461.89 393.94 462.54 393.31 463.22 392.71 463.92 392.14 464.65 391.6 465.4 391.1 466.18 390.63 466.98 390.19 467.79 389.79 468.63 389.42 469.48 389.09 470.34 388.8 471.22 388.55 472.11 388.33 473.01 388.16 473.92 388.02 474.83 387.92 475.75 387.86 476.67 387.84 477.6 M 387.84 577.6 387.86 578.53 387.92 579.45 388.02 580.37 388.16 581.28 388.33 582.19 388.55 583.09 388.8 583.98 389.09 584.86 389.42 585.72 389.79 586.57 390.19 587.41 390.63 588.22 391.1 589.02 391.6 589.8 392.14 590.55 392.71 591.28 393.31 591.98 393.94 592.66 394.6 593.31 395.28 593.93 395.99 594.53 396.73 595.09 397.49 595.62 398.27 596.11 399.07 596.58 399.89 597 400.73 597.4 401.58 597.75 402.45 598.07 403.33 598.36 404.22 598.6 405.12 598.81 406.03 598.97 406.95 599.1 407.87 599.19 408.8 599.24 409.72 599.25 410.65 599.22 411.57 599.15 412.49 599.04 413.4 598.89 414.31 598.71 415.21 598.48 416.09 598.22 416.97 597.92 417.83 597.58 418.67 597.21 419.5 596.79 420.31 596.35 421.11 595.87 421.88 595.36 422.62 594.81 423.35 594.23 424.05 593.63 424.72 592.99 425.36 592.33 425.98 591.63 426.56 590.92 427.11 590.18 427.63 589.41 428.12 588.62 428.58 587.82 429 586.99 429.38 586.15 429.73 585.29 430.04 584.42 430.31 583.54 430.54 582.64 430.74 581.74 430.9 580.83 431.02 579.91 431.1 578.99 431.14 578.06 431.14 577.14 431.1 576.21 431.02 575.29 430.9 574.37 430.74 573.46 430.54 572.56 430.31 571.66 430.04 570.78 429.73 569.91 429.38 569.05 429 568.21 428.58 567.38 428.12 566.58 427.63 565.79 427.11 565.02 426.56 564.28 425.98 563.57 425.36 562.87 424.72 562.21 424.05 561.57 423.35 560.97 422.62 560.39 421.88 559.84 421.11 559.33 420.32 558.85 419.5 558.41 418.67 557.99 417.83 557.62 416.97 557.28 416.09 556.98 415.21 556.72 414.31 556.49 413.4 556.31 412.49 556.16 411.57 556.05 410.65 555.98 409.72 555.95 408.8 555.96 407.87 556.01 406.95 556.1 406.03 556.23 405.12 556.39 404.22 556.6 403.33 556.84 402.45 557.13 401.58 557.45 400.73 557.8 399.89 558.2 399.07 558.62 398.27 559.09 397.49 559.58 396.73 560.11 395.99 560.67 395.28 561.27 394.6 561.89 393.94 562.54 393.31 563.22 392.71 563.92 392.14 564.65 391.6 565.4 391.1 566.18 390.63 566.98 390.19 567.79 389.79 568.63 389.42 569.48 389.09 570.34 388.8 571.22 388.55 572.11 388.33 573.01 388.16 573.92 388.02 574.83 387.92 575.75 387.86 576.67 387.84 577.6 M 287.84 577.6 287.86 578.53 287.92 579.45 288.02 580.37 288.16 581.28 288.33 582.19 288.55 583.09 288.8 583.98 289.09 584.86 289.42 585.72 289.79 586.57 290.19 587.41 290.63 588.22 291.1 589.02 291.6 589.8 292.14 590.55 292.71 591.28 293.31 591.98 293.94 592.66 294.6 593.31 295.28 593.93 295.99 594.53 296.73 595.09 297.49 595.62 298.27 596.11 299.07 596.58 299.89 597 300.73 597.4 301.58 597.75 302.45 598.07 303.33 598.36 304.22 598.6 305.12 598.81 306.03 598.97 306.95 599.1 307.87 599.19 308.8 599.24 309.72 599.25 310.65 599.22 311.57 599.15 312.49 599.04 313.4 598.89 314.31 598.71 315.21 598.48 316.09 598.22 316.97 597.92 317.83 597.58 318.67 597.21 319.5 596.79 320.31 596.35 321.11 595.87 321.88 595.36 322.62 594.81 323.35 594.23 324.05 593.63 324.72 592.99 325.36 592.33 325.98 591.63 326.56 590.92 327.11 590.18 327.63 589.41 328.12 588.62 328.58 587.82 329 586.99 329.38 586.15 329.73 585.29 330.04 584.42 330.31 583.54 330.54 582.64 330.74 581.74 330.9 580.83 331.02 579.91 331.1 578.99 331.14 578.06 331.14 577.14 331.1 576.21 331.02 575.29 330.9 574.37 330.74 573.46 330.54 572.56 330.31 571.66 330.04 570.78 329.73 569.91 329.38 569.05 329 568.21 328.58 567.38 328.12 566.58 327.63 565.79 327.11 565.02 326.56 564.28 325.98 563.57 325.36 562.87 324.72 562.21 324.05 561.57 323.35 560.97 322.62 560.39 321.88 559.84 321.11 559.33 320.32 558.85 319.5 558.41 318.67 557.99 317.83 557.62 316.97 557.28 316.09 556.98 315.21 556.72 314.31 556.49 313.4 556.31 312.49 556.16 311.57 556.05 310.65 555.98 309.72 555.95 308.8 555.96 307.87 556.01 306.95 556.1 306.03 556.23 305.12 556.39 304.22 556.6 303.33 556.84 302.45 557.13 301.58 557.45 300.73 557.8 299.89 558.2 299.07 558.62 298.27 559.09 297.49 559.58 296.73 560.11 295.99 560.67 295.28 561.27 294.6 561.89 293.94 562.54 293.31 563.22 292.71 563.92 292.14 564.65 291.6 565.4 291.1 566.18 290.63 566.98 290.19 567.79 289.79 568.63 289.42 569.48 289.09 570.34 288.8 571.22 288.55 572.11 288.33 573.01 288.16 573.92 288.02 574.83 287.92 575.75 287.86 576.67 287.84 577.6 M 1114.61 577.6 1114.63 578.53 1114.69 579.45 1114.79 580.37 1114.93 581.28 1115.1 582.19 1115.32 583.09 1115.57 583.98 1115.86 584.86 1116.19 585.72 1116.56 586.57 1116.96 587.41 1117.4 588.22 1117.87 589.02 1118.37 589.8 1118.91 590.55 1119.48 591.28 1120.08 591.98 1120.71 592.66 1121.37 593.31 1122.05 593.93 1122.76 594.53 1123.5 595.09 1124.26 595.62 1125.04 596.11 1125.84 596.58 1126.66 597 1127.5 597.4 1128.35 597.75 1129.22 598.07 1130.1 598.36 1130.99 598.6 1131.89 598.81 1132.8 598.97 1133.72 599.1 1134.64 599.19 1135.57 599.24 1136.49 599.25 1137.42 599.22 1138.34 599.15 1139.26 599.04 1140.17 598.89 1141.08 598.71 1141.98 598.48 1142.86 598.22 1143.74 597.92 1144.6 597.58 1145.44 597.21 1146.27 596.79 1147.08 596.35 1147.88 595.87 1148.65 595.36 1149.39 594.81 1150.12 594.23 1150.82 593.63 1151.49 592.99 1152.13 592.33 1152.75 591.63 1153.33 590.92 1153.88 590.18 1154.4 589.41 1154.89 588.62 1155.35 587.82 1155.77 586.99 1156.15 586.15 1156.5 585.29 1156.81 584.42 1157.08 583.54 1157.31 582.64 1157.51 581.74 1157.67 580.83 1157.79 579.91 1157.87 578.99 1157.91 578.06 1157.91 577.14 1157.87 576.21 1157.79 575.29 1157.67 574.37 1157.51 573.46 1157.31 572.56 1157.08 571.66 1156.81 570.78 1156.5 569.91 1156.15 569.05 1155.77 568.21 1155.35 567.38 1154.89 566.58 1154.4 565.79 1153.88 565.02 1153.33 564.28 1152.75 563.57 1152.13 562.87 1151.49 562.21 1150.82 561.57 1150.12 560.97 1149.39 560.39 1148.65 559.84 1147.88 559.33 1147.09 558.85 1146.27 558.41 1145.44 557.99 1144.6 557.62 1143.74 557.28 1142.86 556.98 1141.98 556.72 1141.08 556.49 1140.17 556.31 1139.26 556.16 1138.34 556.05 1137.42 555.98 1136.49 555.95 1135.57 555.96 1134.64 556.01 1133.72 556.1 1132.8 556.23 1131.89 556.39 1130.99 556.6 1130.1 556.84 1129.22 557.13 1128.35 557.45 1127.5 557.8 1126.66 558.2 1125.84 558.62 1125.04 559.09 1124.26 559.58 1123.5 560.11 1122.76 560.67 1122.05 561.27 1121.37 561.89 1120.71 562.54 1120.08 563.22 1119.48 563.92 1118.91 564.65 1118.37 565.4 1117.87 566.18 1117.4 566.98 1116.96 567.79 1116.56 568.63 1116.19 569.48 1115.86 570.34 1115.57 571.22 1115.32 572.11 1115.1 573.01 1114.93 573.92 1114.79 574.83 1114.69 575.75 1114.63 576.67 1114.61 577.6 M 1214.61 577.6 1214.63 578.53 1214.69 579.45 1214.79 580.37 1214.93 581.28 1215.1 582.19 1215.32 583.09 1215.57 583.98 1215.86 584.86 1216.19 585.72 1216.56 586.57 1216.96 587.41 1217.4 588.22 1217.87 589.02 1218.37 589.8 1218.91 590.55 1219.48 591.28 1220.08 591.98 1220.71 592.66 1221.37 593.31 1222.05 593.93 1222.76 594.53 1223.5 595.09 1224.26 595.62 1225.04 596.11 1225.84 596.58 1226.66 597 1227.5 597.4 1228.35 597.75 1229.22 598.07 1230.1 598.36 1230.99 598.6 1231.89 598.81 1232.8 598.97 1233.72 599.1 1234.64 599.19 1235.57 599.24 1236.49 599.25 1237.42 599.22 1238.34 599.15 1239.26 599.04 1240.17 598.89 1241.08 598.71 1241.98 598.48 1242.86 598.22 1243.74 597.92 1244.6 597.58 1245.44 597.21 1246.27 596.79 1247.08 596.35 1247.88 595.87 1248.65 595.36 1249.39 594.81 1250.12 594.23 1250.82 593.63 1251.49 592.99 1252.13 592.33 1252.75 591.63 1253.33 590.92 1253.88 590.18 1254.4 589.41 1254.89 588.62 1255.35 587.82 1255.77 586.99 1256.15 586.15 1256.5 585.29 1256.81 584.42 1257.08 583.54 1257.31 582.64 1257.51 581.74 1257.67 580.83 1257.79 579.91 1257.87 578.99 1257.91 578.06 1257.91 577.14 1257.87 576.21 1257.79 575.29 1257.67 574.37 1257.51 573.46 1257.31 572.56 1257.08 571.66 1256.81 570.78 1256.5 569.91 1256.15 569.05 1255.77 568.21 1255.35 567.38 1254.89 566.58 1254.4 565.79 1253.88 565.02 1253.33 564.28 1252.75 563.57 1252.13 562.87 1251.49 562.21 1250.82 561.57 1250.12 560.97 1249.39 560.39 1248.65 559.84 1247.88 559.33 1247.09 558.85 1246.27 558.41 1245.44 557.99 1244.6 557.62 1243.74 557.28 1242.86 556.98 1241.98 556.72 1241.08 556.49 1240.17 556.31 1239.26 556.16 1238.34 556.05 1237.42 555.98 1236.49 555.95 1235.57 555.96 1234.64 556.01 1233.72 556.1 1232.8 556.23 1231.89 556.39 1230.99 556.6 1230.1 556.84 1229.22 557.13 1228.35 557.45 1227.5 557.8 1226.66 558.2 1225.84 558.62 1225.04 559.09 1224.26 559.58 1223.5 560.11 1222.76 560.67 1222.05 561.27 1221.37 561.89 1220.71 562.54 1220.08 563.22 1219.48 563.92 1218.91 564.65 1218.37 565.4 1217.87 566.18 1217.4 566.98 1216.96 567.79 1216.56 568.63 1216.19 569.48 1215.86 570.34 1215.57 571.22 1215.32 572.11 1215.1 573.01 1214.93 573.92 1214.79 574.83 1214.69 575.75 1214.63 576.67 1214.61 577.6 M 1214.61 477.6 1214.63 478.53 1214.69 479.45 1214.79 480.37 1214.93 481.28 1215.1 482.19 1215.32 483.09 1215.57 483.98 1215.86 484.86 1216.19 485.72 1216.56 486.57 1216.96 487.41 1217.4 488.22 1217.87 489.02 1218.37 489.8 1218.91 490.55 1219.48 491.28 1220.08 491.98 1220.71 492.66 1221.37 493.31 1222.05 493.93 1222.76 494.53 1223.5 495.09 1224.26 495.62 1225.04 496.11 1225.84 496.58 1226.66 497 1227.5 497.4 1228.35 497.75 1229.22 498.07 1230.1 498.36 1230.99 498.6 1231.89 498.81 1232.8 498.97 1233.72 499.1 1234.64 499.19 1235.57 499.24 1236.49 499.25 1237.42 499.22 1238.34 499.15 1239.26 499.04 1240.17 498.89 1241.08 498.71 1241.98 498.48 1242.86 498.22 1243.74 497.92 1244.6 497.58 1245.44 497.21 1246.27 496.79 1247.08 496.35 1247.88 495.87 1248.65 495.36 1249.39 494.81 1250.12 494.23 1250.82 493.63 1251.49 492.99 1252.13 492.33 1252.75 491.63 1253.33 490.92 1253.88 490.18 1254.4 489.41 1254.89 488.62 1255.35 487.82 1255.77 486.99 1256.15 486.15 1256.5 485.29 1256.81 484.42 1257.08 483.54 1257.31 482.64 1257.51 481.74 1257.67 480.83 1257.79 479.91 1257.87 478.99 1257.91 478.06 1257.91 477.14 1257.87 476.21 1257.79 475.29 1257.67 474.37 1257.51 473.46 1257.31 472.56 1257.08 471.66 1256.81 470.78 1256.5 469.91 1256.15 469.05 1255.77 468.21 1255.35 467.38 1254.89 466.58 1254.4 465.79 1253.88 465.02 1253.33 464.28 1252.75 463.57 1252.13 462.87 1251.49 462.21 1250.82 461.57 1250.12 460.97 1249.39 460.39 1248.65 459.84 1247.88 459.33 1247.09 458.85 1246.27 458.41 1245.44 457.99 1244.6 457.62 1243.74 457.28 1242.86 456.98 1241.98 456.72 1241.08 456.49 1240.17 456.31 1239.26 456.16 1238.34 456.05 1237.42 455.98 1236.49 455.95 1235.57 455.96 1234.64 456.01 1233.72 456.1 1232.8 456.23 1231.89 456.39 1230.99 456.6 1230.1 456.84 1229.22 457.13 1228.35 457.45 1227.5 457.8 1226.66 458.2 1225.84 458.62 1225.04 459.09 1224.26 459.58 1223.5 460.11 1222.76 460.67 1222.05 461.27 1221.37 461.89 1220.71 462.54 1220.08 463.22 1219.48 463.92 1218.91 464.65 1218.37 465.4 1217.87 466.18 1217.4 466.98 1216.96 467.79 1216.56 468.63 1216.19 469.48 1215.86 470.34 1215.57 471.22 1215.32 472.11 1215.1 473.01 1214.93 473.92 1214.79 474.83 1214.69 475.75 1214.63 476.67 1214.61 477.6 M 1114.61 477.6 1114.63 478.53 1114.69 479.45 1114.79 480.37 1114.93 481.28 1115.1 482.19 1115.32 483.09 1115.57 483.98 1115.86 484.86 1116.19 485.72 1116.56 486.57 1116.96 487.41 1117.4 488.22 1117.87 489.02 1118.37 489.8 1118.91 490.55 1119.48 491.28 1120.08 491.98 1120.71 492.66 1121.37 493.31 1122.05 493.93 1122.76 494.53 1123.5 495.09 1124.26 495.62 1125.04 496.11 1125.84 496.58 1126.66 497 1127.5 497.4 1128.35 497.75 1129.22 498.07 1130.1 498.36 1130.99 498.6 1131.89 498.81 1132.8 498.97 1133.72 499.1 1134.64 499.19 1135.57 499.24 1136.49 499.25 1137.42 499.22 1138.34 499.15 1139.26 499.04 1140.17 498.89 1141.08 498.71 1141.98 498.48 1142.86 498.22 1143.74 497.92 1144.6 497.58 1145.44 497.21 1146.27 496.79 1147.08 496.35 1147.88 495.87 1148.65 495.36 1149.39 494.81 1150.12 494.23 1150.82 493.63 1151.49 492.99 1152.13 492.33 1152.75 491.63 1153.33 490.92 1153.88 490.18 1154.4 489.41 1154.89 488.62 1155.35 487.82 1155.77 486.99 1156.15 486.15 1156.5 485.29 1156.81 484.42 1157.08 483.54 1157.31 482.64 1157.51 481.74 1157.67 480.83 1157.79 479.91 1157.87 478.99 1157.91 478.06 1157.91 477.14 1157.87 476.21 1157.79 475.29 1157.67 474.37 1157.51 473.46 1157.31 472.56 1157.08 471.66 1156.81 470.78 1156.5 469.91 1156.15 469.05 1155.77 468.21 1155.35 467.38 1154.89 466.58 1154.4 465.79 1153.88 465.02 1153.33 464.28 1152.75 463.57 1152.13 462.87 1151.49 462.21 1150.82 461.57 1150.12 460.97 1149.39 460.39 1148.65 459.84 1147.88 459.33 1147.09 458.85 1146.27 458.41 1145.44 457.99 1144.6 457.62 1143.74 457.28 1142.86 456.98 1141.98 456.72 1141.08 456.49 1140.17 456.31 1139.26 456.16 1138.34 456.05 1137.42 455.98 1136.49 455.95 1135.57 455.96 1134.64 456.01 1133.72 456.1 1132.8 456.23 1131.89 456.39 1130.99 456.6 1130.1 456.84 1129.22 457.13 1128.35 457.45 1127.5 457.8 1126.66 458.2 1125.84 458.62 1125.04 459.09 1124.26 459.58 1123.5 460.11 1122.76 460.67 1122.05 461.27 1121.37 461.89 1120.71 462.54 1120.08 463.22 1119.48 463.92 1118.91 464.65 1118.37 465.4 1117.87 466.18 1117.4 466.98 1116.96 467.79 1116.56 468.63 1116.19 469.48 1115.86 470.34 1115.57 471.22 1115.32 472.11 1115.1 473.01 1114.93 473.92 1114.79 474.83 1114.69 475.75 1114.63 476.67 1114.61 477.6 M 1114.61 377.6 1114.63 378.53 1114.69 379.45 1114.79 380.37 1114.93 381.28 1115.1 382.19 1115.32 383.09 1115.57 383.98 1115.86 384.86 1116.19 385.72 1116.56 386.57 1116.96 387.41 1117.4 388.22 1117.87 389.02 1118.37 389.8 1118.91 390.55 1119.48 391.28 1120.08 391.98 1120.71 392.66 1121.37 393.31 1122.05 393.93 1122.76 394.53 1123.5 395.09 1124.26 395.62 1125.04 396.11 1125.84 396.58 1126.66 397 1127.5 397.4 1128.35 397.75 1129.22 398.07 1130.1 398.36 1130.99 398.6 1131.89 398.81 1132.8 398.97 1133.72 399.1 1134.64 399.19 1135.57 399.24 1136.49 399.25 1137.42 399.22 1138.34 399.15 1139.26 399.04 1140.17 398.89 1141.08 398.71 1141.98 398.48 1142.86 398.22 1143.74 397.92 1144.6 397.58 1145.44 397.21 1146.27 396.79 1147.08 396.35 1147.88 395.87 1148.65 395.36 1149.39 394.81 1150.12 394.23 1150.82 393.63 1151.49 392.99 1152.13 392.33 1152.75 391.63 1153.33 390.92 1153.88 390.18 1154.4 389.41 1154.89 388.62 1155.35 387.82 1155.77 386.99 1156.15 386.15 1156.5 385.29 1156.81 384.42 1157.08 383.54 1157.31 382.64 1157.51 381.74 1157.67 380.83 1157.79 379.91 1157.87 378.99 1157.91 378.06 1157.91 377.14 1157.87 376.21 1157.79 375.29 1157.67 374.37 1157.51 373.46 1157.31 372.56 1157.08 371.66 1156.81 370.78 1156.5 369.91 1156.15 369.05 1155.77 368.21 1155.35 367.38 1154.89 366.58 1154.4 365.79 1153.88 365.02 1153.33 364.28 1152.75 363.57 1152.13 362.87 1151.49 362.21 1150.82 361.57 1150.12 360.97 1149.39 360.39 1148.65 359.84 1147.88 359.33 1147.09 358.85 1146.27 358.41 1145.44 357.99 1144.6 357.62 1143.74 357.28 1142.86 356.98 1141.98 356.72 1141.08 356.49 1140.17 356.31 1139.26 356.16 1138.34 356.05 1137.42 355.98 1136.49 355.95 1135.57 355.96 1134.64 356.01 1133.72 356.1 1132.8 356.23 1131.89 356.39 1130.99 356.6 1130.1 356.84 1129.22 357.13 1128.35 357.45 1127.5 357.8 1126.66 358.2 1125.84 358.62 1125.04 359.09 1124.26 359.58 1123.5 360.11 1122.76 360.67 1122.05 361.27 1121.37 361.89 1120.71 362.54 1120.08 363.22 1119.48 363.92 1118.91 364.65 1118.37 365.4 1117.87 366.18 1117.4 366.98 1116.96 367.79 1116.56 368.63 1116.19 369.48 1115.86 370.34 1115.57 371.22 1115.32 372.11 1115.1 373.01 1114.93 373.92 1114.79 374.83 1114.69 375.75 1114.63 376.67 1114.61 377.6 M 1214.61 377.6 1214.63 378.53 1214.69 379.45 1214.79 380.37 1214.93 381.28 1215.1 382.19 1215.32 383.09 1215.57 383.98 1215.86 384.86 1216.19 385.72 1216.56 386.57 1216.96 387.41 1217.4 388.22 1217.87 389.02 1218.37 389.8 1218.91 390.55 1219.48 391.28 1220.08 391.98 1220.71 392.66 1221.37 393.31 1222.05 393.93 1222.76 394.53 1223.5 395.09 1224.26 395.62 1225.04 396.11 1225.84 396.58 1226.66 397 1227.5 397.4 1228.35 397.75 1229.22 398.07 1230.1 398.36 1230.99 398.6 1231.89 398.81 1232.8 398.97 1233.72 399.1 1234.64 399.19 1235.57 399.24 1236.49 399.25 1237.42 399.22 1238.34 399.15 1239.26 399.04 1240.17 398.89 1241.08 398.71 1241.98 398.48 1242.86 398.22 1243.74 397.92 1244.6 397.58 1245.44 397.21 1246.27 396.79 1247.08 396.35 1247.88 395.87 1248.65 395.36 1249.39 394.81 1250.12 394.23 1250.82 393.63 1251.49 392.99 1252.13 392.33 1252.75 391.63 1253.33 390.92 1253.88 390.18 1254.4 389.41 1254.89 388.62 1255.35 387.82 1255.77 386.99 1256.15 386.15 1256.5 385.29 1256.81 384.42 1257.08 383.54 1257.31 382.64 1257.51 381.74 1257.67 380.83 1257.79 379.91 1257.87 378.99 1257.91 378.06 1257.91 377.14 1257.87 376.21 1257.79 375.29 1257.67 374.37 1257.51 373.46 1257.31 372.56 1257.08 371.66 1256.81 370.78 1256.5 369.91 1256.15 369.05 1255.77 368.21 1255.35 367.38 1254.89 366.58 1254.4 365.79 1253.88 365.02 1253.33 364.28 1252.75 363.57 1252.13 362.87 1251.49 362.21 1250.82 361.57 1250.12 360.97 1249.39 360.39 1248.65 359.84 1247.88 359.33 1247.09 358.85 1246.27 358.41 1245.44 357.99 1244.6 357.62 1243.74 357.28 1242.86 356.98 1241.98 356.72 1241.08 356.49 1240.17 356.31 1239.26 356.16 1238.34 356.05 1237.42 355.98 1236.49 355.95 1235.57 355.96 1234.64 356.01 1233.72 356.1 1232.8 356.23 1231.89 356.39 1230.99 356.6 1230.1 356.84 1229.22 357.13 1228.35 357.45 1227.5 357.8 1226.66 358.2 1225.84 358.62 1225.04 359.09 1224.26 359.58 1223.5 360.11 1222.76 360.67 1222.05 361.27 1221.37 361.89 1220.71 362.54 1220.08 363.22 1219.48 363.92 1218.91 364.65 1218.37 365.4 1217.87 366.18 1217.4 366.98 1216.96 367.79 1216.56 368.63 1216.19 369.48 1215.86 370.34 1215.57 371.22 1215.32 372.11 1215.1 373.01 1214.93 373.92 1214.79 374.83 1214.69 375.75 1214.63 376.67 1214.61 377.6" fill="none" stroke-width="0"/><use xlink:href="#TMrf20AA0dTeA9JYQ8kS_pad-11" x="1310.67" y="377.99"/><use xlink:href="#TMrf20AA0dTeA9JYQ8kS_pad-11" x="1310.67" y="477.99"/><use xlink:href="#TMrf20AA0dTeA9JYQ8kS_pad-11" x="1311.06" y="577.6"/><use xlink:href="#TMrf20AA0dTeA9JYQ8kS_pad-11" x="1062.24" y="577.6"/><use xlink:href="#TMrf20AA0dTeA9JYQ8kS_pad-11" x="1062.64" y="477.99"/><use xlink:href="#TMrf20AA0dTeA9JYQ8kS_pad-11" x="1062.64" y="377.99"/><use xlink:href="#TMrf20AA0dTeA9JYQ8kS_pad-11" x="483.9" y="377.99"/><use xlink:href="#TMrf20AA0dTeA9JYQ8kS_pad-11" x="483.9" y="477.99"/><use xlink:href="#TMrf20AA0dTeA9JYQ8kS_pad-11" x="484.29" y="577.6"/><use xlink:href="#TMrf20AA0dTeA9JYQ8kS_pad-11" x="235.47" y="577.6"/><use xlink:href="#TMrf20AA0dTeA9JYQ8kS_pad-11" x="235.87" y="477.99"/><use xlink:href="#TMrf20AA0dTeA9JYQ8kS_pad-11" x="235.87" y="377.99"/><use xlink:href="#TMrf20AA0dTeA9JYQ8kS_pad-12" x="826.02" y="313.82"/><use xlink:href="#TMrf20AA0dTeA9JYQ8kS_pad-12" x="826.02" y="237.83"/><use xlink:href="#TMrf20AA0dTeA9JYQ8kS_pad-13" x="826.02" y="275.83"/><use xlink:href="#TMrf20AA0dTeA9JYQ8kS_pad-14" x="718.15" y="315.79"/><use xlink:href="#TMrf20AA0dTeA9JYQ8kS_pad-14" x="718.15" y="235.87"/><use xlink:href="#TMrf20AA0dTeA9JYQ8kS_pad-15" x="743.35" y="275.83"/><path d="M 728.59 275.83 728.61 276.6 728.67 277.36 728.77 278.12 728.91 278.87 729.08 279.62 729.3 280.35 729.55 281.08 729.85 281.79 730.17 282.48 730.54 283.15 730.93 283.81 731.36 284.44 731.83 285.05 732.32 285.64 732.85 286.2 733.4 286.73 733.98 287.23 734.58 287.7 735.21 288.14 735.86 288.55 736.53 288.92 737.22 289.26 737.92 289.56 738.64 289.82 739.38 290.04 740.12 290.23 740.87 290.38 741.63 290.49 742.39 290.56 743.16 290.59 743.92 290.58 744.69 290.53 745.45 290.44 746.21 290.31 746.95 290.14 747.69 289.94 748.42 289.69 749.13 289.41 749.83 289.09 750.51 288.74 751.17 288.35 751.81 287.93 752.42 287.47 753.02 286.98 753.58 286.47 754.12 285.92 754.63 285.35 755.11 284.75 755.56 284.13 755.97 283.48 756.35 282.82 756.7 282.14 757 281.43 757.28 280.72 757.51 279.99 757.71 279.25 757.87 278.5 757.99 277.74 758.07 276.98 758.11 276.21 758.11 275.45 758.07 274.68 757.99 273.92 757.87 273.16 757.71 272.41 757.51 271.67 757.28 270.94 757 270.23 756.7 269.52 756.35 268.84 755.97 268.18 755.56 267.53 755.11 266.91 754.63 266.31 754.12 265.74 753.58 265.19 753.02 264.68 752.42 264.19 751.81 263.73 751.17 263.31 750.51 262.92 749.83 262.57 749.13 262.25 748.42 261.97 747.69 261.72 746.95 261.52 746.21 261.35 745.45 261.22 744.69 261.13 743.92 261.08 743.16 261.07 742.39 261.1 741.63 261.17 740.87 261.28 740.12 261.43 739.38 261.62 738.64 261.84 737.92 262.1 737.22 262.4 736.53 262.74 735.86 263.11 735.21 263.52 734.58 263.96 733.98 264.43 733.4 264.93 732.85 265.46 732.32 266.02 731.83 266.61 731.36 267.22 730.93 267.85 730.54 268.51 730.17 269.18 729.85 269.87 729.55 270.58 729.3 271.31 729.08 272.04 728.91 272.79 728.77 273.54 728.67 274.3 728.61 275.06 728.59 275.83" fill="none" stroke-width="0.04"/><use xlink:href="#TMrf20AA0dTeA9JYQ8kS_pad-17" x="890.98" y="300.43"/><use xlink:href="#TMrf20AA0dTeA9JYQ8kS_pad-17" x="890.98" y="241.38"/><path d="M 887.13 239.09 855.26 239.09 M 858.27 237.52 858.27 221.69 859.29 217.87 859.79 217.01 846.54 217.01 850.81 221.28 855.26 232.02 855.26 243.65 850.81 254.39 846.82 258.38 847.03 258.59 849.99 263.02 852.03 267.94 853.07 273.16 853.07 274.8 827.05 274.8 827.05 276.85 853.07 276.85 853.07 278.49 852.56 281.04 853.17 280.43 858.27 280.43 858.27 276.5 863.87 270.91 861.26 268.3 859.29 264.88 858.27 261.07 858.27 245.24 887.13 245.24 887.13 237.52 858.27 237.52 M 858.27 229.1 854.05 229.1 M 858.96 219.12 848.65 219.12 M 822.09 231.54 825.63 237.83 826.02 237.83 M 797.44 245.22 794.98 242.76 794.98 220.31 798.29 217.01 736.15 217.01 738.39 219.25 741.25 223.52 743.21 228.26 744.21 233.3 744.21 235.33 738.35 235.33 738.35 236.4 744.21 236.4 744.21 238.43 743.21 243.47 741.7 247.12 748.35 248.29 748.35 230.34 754.05 231.24 760.89 233.47 767.3 236.73 773.12 240.96 778.21 246.05 782.44 251.87 785.71 258.28 787.93 265.12 788.83 270.83 771.33 270.83 771.33 280.83 788.83 280.83 787.93 286.53 785.71 293.37 782.44 299.78 778.21 305.6 773.12 310.69 767.3 314.92 760.89 318.19 754.05 320.41 748.35 321.31 748.35 303.36 741.7 304.54 743.21 308.19 744.21 313.22 744.21 315.26 738.35 315.26 738.35 316.32 744.21 316.32 744.21 318.35 743.21 323.39 741.25 328.13 738.39 332.4 734.76 336.03 730.49 338.88 725.75 340.85 720.72 341.85 718.68 341.85 718.68 316.32 717.62 316.32 717.62 341.85 715.58 341.85 710.55 340.85 705.8 338.88 701.54 336.03 697.91 332.4 695.05 328.13 693.09 323.39 692.09 318.35 692.09 316.32 717.62 316.32 717.62 315.26 692.09 315.26 692.09 313.22 693.09 308.19 695.05 303.44 697.91 299.17 701.54 295.54 701.95 295.27 700.99 293.37 698.76 286.53 697.86 280.83 715.38 280.83 713.56 275.83 715.38 270.83 697.86 270.83 698.76 265.12 700.99 258.28 701.95 256.39 701.54 256.11 697.91 252.48 695.05 248.21 693.09 243.47 692.09 238.43 692.09 236.4 717.62 236.4 717.62 235.33 692.09 235.33 692.09 233.3 693.09 228.26 695.05 223.52 697.91 219.25 700.15 217.01 528.32 217.01 525.16 217.78 518.52 221.72 513.88 227.9 512.07 234.95 512.28 235.16 512.28 240.31 513.01 245.41 512.28 246.38 512.28 291.56 504.01 311.55 488.71 326.84 468.73 335.12 228.98 335.12 224.22 335.59 215.44 339.23 209.39 345.28 232.01 345.28 232.01 374.13 239.72 374.13 239.72 345.28 273.27 345.28 277.09 346.3 280.51 348.27 283.3 351.07 283.63 351.63 288.73 346.52 302.2 340.94 316.78 340.94 330.25 346.52 340.56 356.84 346.14 370.31 346.14 384.89 340.56 398.36 330.25 408.67 316.78 414.25 302.2 414.25 288.73 408.67 283.91 403.86 283.3 404.92 280.51 407.71 277.09 409.69 273.27 410.71 239.72 410.71 239.72 381.85 232.01 381.85 232.01 410.71 204.61 410.71 204.61 445.28 277.51 445.28 283.74 451.51 288.73 446.52 302.2 440.94 316.78 440.94 330.25 446.52 340.56 456.84 346.14 470.31 346.14 484.89 340.56 498.36 332.11 506.81 386.86 506.81 378.41 498.36 372.83 484.89 372.83 470.31 378.41 456.84 388.73 446.52 402.2 440.94 416.78 440.94 430.25 446.52 435.63 451.9 442.25 445.28 525.54 445.28 534.33 454.06 534.33 501.92 529.44 506.81 606.91 506.81 614.01 499.71 636.46 499.71 652.34 515.58 652.34 538.04 636.46 553.91 614.01 553.91 606.91 546.81 527.87 546.81 534.72 553.67 534.72 595.39 535.1 595.39 547.68 607.98 557.72 607.98 573.6 623.85 573.6 646.3 557.72 662.18 535.27 662.18 519.39 646.3 519.39 636.26 518.53 635.39 495.75 635.39 504.01 643.65 512.28 663.63 512.28 713.82 512.75 718.57 516.39 727.36 523.11 734.08 531.9 737.72 536.65 738.19 1009.09 738.19 1013.85 737.72 1022.63 734.08 1029.36 727.36 1033 718.57 1033.46 713.82 1033.46 678.36 1022.3 689.53 997.69 714.13 879.79 714.13 872.68 721.24 850.23 721.24 834.35 705.36 834.35 682.91 850.23 667.03 872.68 667.03 879.79 674.13 981.13 674.13 994.02 661.24 994.02 629.43 990.79 632.65 968.34 632.65 952.46 616.78 952.46 606.73 951.6 605.87 882.7 605.87 870.98 594.15 870.12 593.28 869.92 593.28 854.04 577.41 854.04 554.95 869.92 539.08 892.37 539.08 908.24 554.95 908.24 565.87 952.46 565.87 952.46 545.11 968.34 529.24 990.79 529.24 997.9 536.34 1012.46 536.34 1021 544.88 1057.73 544.88 1050.89 538.04 1050.89 515.58 1055.77 510.71 1020.99 510.71 1012.2 501.92 1012.2 454.06 1020.99 445.28 1104.28 445.28 1110.52 451.51 1115.5 446.52 1128.97 440.94 1143.55 440.94 1157.02 446.52 1167.33 456.84 1172.91 470.31 1172.91 484.89 1167.33 498.36 1158.88 506.81 1213.64 506.81 1205.19 498.36 1199.61 484.89 1199.61 470.31 1205.19 456.84 1215.5 446.52 1228.97 440.94 1243.55 440.94 1257.02 446.52 1262.4 451.9 1269.02 445.28 1342.52 445.28 1342.52 410.71 1269.02 410.71 1262 403.69 1257.02 408.67 1243.55 414.25 1228.97 414.25 1215.5 408.67 1205.19 398.36 1199.61 384.89 1199.61 370.31 1203.96 359.8 1168.56 359.8 1172.91 370.31 1172.91 384.89 1167.33 398.36 1157.02 408.67 1143.55 414.25 1128.97 414.25 1115.5 408.67 1110.91 404.08 1104.28 410.71 1020.99 410.71 1012.2 401.92 1012.2 359.8 987.85 359.8 974.96 372.69 963.24 384.41 796.12 384.41 793.94 386.59 771.49 386.59 755.61 370.71 755.61 348.26 771.49 332.39 793.94 332.39 805.97 344.41 844.2 344.41 844.2 336.99 842.58 338.6 831.84 343.05 820.21 343.05 809.46 338.6 801.24 330.38 796.79 319.63 796.79 308 801.24 297.26 805.22 293.28 805.01 293.07 802.05 288.64 800.02 283.72 798.98 278.49 798.98 276.85 825 276.85 825 274.8 798.98 274.8 798.98 273.16 800.02 267.94 802.05 263.02 805.01 258.59 805.22 258.38 801.24 254.39 797.44 245.22 M 799.04 249.07 780.41 249.07 M 785.96 259.06 804.7 259.06 M 799.8 269.04 788.55 269.04 M 799.08 279.03 771.33 279.03 M 787.12 289.01 802.31 289.01 M 800.52 299 782.84 299 M 774.83 308.99 796.79 308.99 M 796.79 318.97 758.48 318.97 M 748.35 318.97 744.09 318.97 M 743.37 308.99 748.35 308.99 M 740.7 328.96 800.65 328.96 M 800.5 338.94 810.28 338.94 M 841.76 338.94 844.2 338.94 M 871.3 339.8 881.14 329.96 959.88 329.96 979.57 310.28 M 1006.67 308.99 1040.68 308.99 M 1041.74 311.55 1033.46 291.56 1033.46 242.6 1032.35 237.36 1026.79 227.26 1017.78 220.05 1006.7 216.84 1005.62 216.86 1005.47 217.01 1000.08 217.01 994.73 217.6 993.99 217.01 922.18 217.01 922.68 217.87 923.7 221.69 923.7 237.52 894.84 237.52 894.84 245.24 923.7 245.24 923.7 261.07 922.68 264.88 920.7 268.3 918.1 270.91 923.7 276.5 923.7 309.96 951.6 309.96 952.46 309.09 952.46 299.05 968.34 283.17 990.79 283.17 1006.67 299.05 1006.67 319.8 1050 319.8 1041.74 311.55 1041.74 311.55 M 1049.17 318.97 1006.67 318.97 M 1006.62 299 1036.55 299 M 1033.46 289.01 996.63 289.01 M 962.5 289.01 923.7 289.01 M 923.7 279.03 1033.46 279.03 M 1033.46 269.04 919.96 269.04 M 923.7 259.06 1033.46 259.06 M 1033.46 249.07 923.7 249.07 M 894.84 239.09 1032.72 239.09 M 1027.81 229.1 923.7 229.1 M 923.01 219.12 1014.56 219.12 M 952.51 299 923.7 299 M 923.7 308.99 952.46 308.99 M 979.57 339.8 954.96 364.41 787.64 364.41 782.72 359.49 M 763.78 378.88 534.33 378.88 M 534.33 368.9 755.61 368.9 M 755.61 358.91 534.33 358.91 M 534.33 354.06 534.33 401.92 525.54 410.71 442.25 410.71 435.23 403.69 430.25 408.67 416.78 414.25 402.2 414.25 388.73 408.67 378.41 398.36 372.83 384.89 372.83 370.31 378.41 356.84 388.73 346.52 402.2 340.94 416.78 340.94 430.25 346.52 435.63 351.9 442.25 345.28 525.54 345.28 534.33 354.06 M 529.19 348.93 755.61 348.93 M 764.94 338.94 730.36 338.94 M 718.68 338.94 717.62 338.94 M 717.62 328.96 718.68 328.96 M 718.68 318.97 717.62 318.97 M 705.94 338.94 216.12 338.94 M 232.01 348.93 239.72 348.93 M 239.72 358.91 232.01 358.91 M 232.01 368.9 239.72 368.9 M 239.72 388.87 232.01 388.87 M 232.01 398.85 239.72 398.85 M 239.72 408.84 232.01 408.84 M 204.61 418.82 854.04 418.82 M 854.04 417.16 869.92 401.28 892.37 401.28 899.47 408.39 961.24 408.39 968.34 401.28 990.79 401.28 1006.67 417.16 1006.67 439.61 990.79 455.49 968.34 455.49 961.24 448.39 958.95 448.39 970.04 459.47 980.75 470.18 990.79 470.18 1006.67 486.06 1006.67 508.51 990.79 524.39 968.34 524.39 952.46 508.51 952.46 498.47 941.76 487.76 860.1 487.76 853 494.86 830.55 494.86 814.67 478.98 814.67 456.53 830.55 440.65 853 440.65 860.1 447.76 862.18 447.76 854.04 439.61 854.04 417.16 M 854.04 428.81 204.61 428.81 M 204.61 438.79 854.04 438.79 M 881.14 428.39 979.57 428.39 M 1006.67 428.81 1342.52 428.81 M 1342.52 438.79 1006.67 438.79 M 997.5 448.78 1017.49 448.78 M 1012.2 458.76 969.33 458.76 M 979.31 468.75 1012.2 468.75 M 1012.2 478.73 999.34 478.73 M 1006.67 488.72 1012.2 488.72 M 1012.2 498.7 1006.67 498.7 M 1006.49 508.69 1018.97 508.69 M 996.51 518.67 1050.89 518.67 M 1050.89 528.66 652.34 528.66 M 652.34 518.67 962.63 518.67 M 952.64 508.69 645.44 508.69 M 625.24 526.81 251.22 526.81 235.87 511.46 235.87 477.99 M 281.01 448.78 286.47 448.78 M 332.5 448.78 386.47 448.78 M 377.62 458.76 341.36 458.76 M 345.5 468.75 373.48 468.75 M 372.83 478.73 346.14 478.73 M 344.56 488.72 374.42 488.72 M 378.76 498.7 340.22 498.7 M 432.5 448.78 438.75 448.78 M 440.38 408.84 429.85 408.84 M 389.12 408.84 329.85 408.84 M 340.07 398.85 378.9 398.85 M 374.48 388.87 344.49 388.87 M 346.14 378.88 372.83 378.88 M 373.42 368.9 345.56 368.9 M 341.42 358.91 377.56 358.91 M 386.32 348.93 332.65 348.93 M 286.32 348.93 281.16 348.93 M 278.56 408.84 289.12 408.84 M 432.65 348.93 438.6 348.93 M 483.61 328.96 695.6 328.96 M 692.21 318.97 496.58 318.97 M 504.01 311.55 504.01 311.55 M 505.07 308.99 692.93 308.99 M 698.08 299 509.2 299 M 512.28 289.01 699.57 289.01 M 714.73 279.03 512.28 279.03 M 512.28 269.04 698.14 269.04 M 700.73 259.06 512.28 259.06 M 512.28 249.07 695.63 249.07 M 692.22 239.09 512.28 239.09 M 513.57 229.1 692.92 229.1 M 698.04 219.12 522.9 219.12 M 488.71 326.84 488.71 326.84 488.71 326.84 M 534.33 388.87 1012.2 388.87 M 1012.2 398.85 534.33 398.85 M 527.42 408.84 862.36 408.84 M 822.42 448.78 529.05 448.78 M 534.33 458.76 814.67 458.76 M 814.67 468.75 534.33 468.75 M 534.33 478.73 814.67 478.73 M 824.4 488.72 534.33 488.72 M 534.33 498.7 952.46 498.7 M 942.72 488.72 859.14 488.72 M 841.77 467.76 950.04 467.76 979.57 497.28 M 958.93 538.64 651.73 538.64 M 641.75 548.63 860.37 548.63 M 854.04 558.61 534.72 558.61 M 534.72 568.6 854.04 568.6 M 855.22 578.58 534.72 578.58 M 534.72 588.57 865.2 588.57 M 875.39 598.55 538.25 598.55 M 558.28 608.54 952.46 608.54 M 954.21 618.52 568.27 618.52 M 573.6 628.51 964.2 628.51 M 979.57 605.55 959.88 585.87 890.98 585.87 881.14 576.02 881.14 566.18 M 908.24 558.61 952.46 558.61 M 952.46 548.63 901.92 548.63 M 979.57 556.34 1004.17 556.34 1014.02 566.18 1014.02 669.53 989.41 694.13 861.46 694.13 M 834.35 698.4 512.28 698.4 M 512.28 688.42 834.35 688.42 M 838.83 678.43 512.28 678.43 M 512.28 668.45 848.81 668.45 M 874.1 668.45 986.81 668.45 M 994.02 658.46 561.44 658.46 M 571.42 648.48 994.02 648.48 M 994.02 638.49 573.6 638.49 M 546.5 635.08 526.81 615.39 251.22 615.39 235.47 599.65 235.47 577.6 M 498.85 638.49 519.39 638.49 M 521.57 648.48 506.01 648.48 M 504.01 643.65 504.01 643.65 M 510.14 658.46 531.55 658.46 M 512.28 708.39 837.38 708.39 M 847.37 718.37 512.73 718.37 M 517.39 728.36 1028.36 728.36 M 1033.02 718.37 875.54 718.37 M 1003.44 708.39 1033.46 708.39 M 1033.46 698.4 1013.42 698.4 M 1023.41 688.42 1033.46 688.42 M 1033.39 678.43 1033.46 678.43 M 1034.02 662.3 1041.74 643.65 1057.04 628.36 1077.02 620.08 1318.15 620.08 1322.9 619.61 1331.69 615.97 1337.35 610.31 1314.92 610.31 1314.92 581.46 1307.2 581.46 1307.2 610.31 1273.66 610.31 1269.84 609.29 1266.42 607.32 1263.63 604.53 1262.73 602.97 1257.02 608.67 1243.55 614.25 1228.97 614.25 1215.5 608.67 1205.19 598.36 1199.61 584.89 1199.61 570.31 1205.19 556.84 1215.21 546.81 1157.31 546.81 1167.33 556.84 1172.91 570.31 1172.91 584.89 1167.33 598.36 1157.02 608.67 1143.55 614.25 1128.97 614.25 1115.5 608.67 1110.52 603.69 1103.89 610.31 1034.02 610.31 1034.02 662.3 M 1034.02 658.46 1035.61 658.46 M 1034.02 648.48 1039.74 648.48 M 1041.74 643.65 1041.74 643.65 M 1046.9 638.49 1034.02 638.49 M 1034.02 628.51 1056.88 628.51 M 1057.04 628.36 1057.04 628.36 M 1034.02 618.52 1325.53 618.52 M 1331.69 615.97 1331.69 615.97 M 1314.92 608.54 1307.2 608.54 M 1307.2 598.55 1314.92 598.55 M 1314.92 588.57 1307.2 588.57 M 1307.2 573.74 1314.92 573.74 1314.92 544.88 1342.52 544.88 1342.52 510.71 1330.67 510.71 1330.67 518.95 1314.53 535.1 1304.74 544.88 1307.2 544.88 1307.2 573.74 M 1307.2 568.6 1314.92 568.6 M 1314.92 558.61 1307.2 558.61 M 1307.2 548.63 1314.92 548.63 M 1310.98 538.64 1342.52 538.64 M 1342.52 528.66 1320.97 528.66 M 1330.67 518.67 1342.52 518.67 M 1310.67 510.67 1294.53 526.81 1077.99 526.81 M 1051.5 538.64 1014.76 538.64 M 1105.67 608.54 1115.36 608.54 M 1157.16 608.54 1215.36 608.54 M 1205.38 598.55 1167.14 598.55 M 1171.39 588.57 1201.13 588.57 M 1199.61 578.58 1172.91 578.58 M 1172.21 568.6 1200.31 568.6 M 1204.45 558.61 1168.07 558.61 M 1159.13 548.63 1213.39 548.63 M 1205.53 498.7 1166.99 498.7 M 1171.33 488.72 1201.19 488.72 M 1199.61 478.73 1172.91 478.73 M 1172.27 468.75 1200.25 468.75 M 1204.39 458.76 1168.13 458.76 M 1159.27 448.78 1213.25 448.78 M 1259.27 448.78 1265.52 448.78 M 1267.15 408.84 1256.63 408.84 M 1215.89 408.84 1156.63 408.84 M 1166.84 398.85 1205.68 398.85 M 1201.25 388.87 1171.27 388.87 M 1172.91 378.88 1199.61 378.88 M 1200.19 368.9 1172.33 368.9 M 1115.89 408.84 1106.16 408.84 M 1107.79 448.78 1113.25 448.78 M 1019.12 408.84 998.35 408.84 M 1006.67 418.82 1342.52 418.82 M 1310.67 377.99 1310.67 355.94 1294.53 339.8 979.57 339.8 M 978.76 368.9 1012.2 368.9 M 1012.2 378.88 968.77 378.88 M 961.63 448.78 959.34 448.78 M 848.07 313.82 826.02 313.82 M 848.07 313.82 861.46 300.43 890.98 300.43 M 858.27 279.03 852.96 279.03 M 852.25 269.04 862 269.04 M 858.27 259.06 847.35 259.06 M 853.01 249.07 858.27 249.07 M 794.98 239.09 770.55 239.09 M 748.35 239.09 744.08 239.09 M 743.38 229.1 794.98 229.1 M 796.17 219.12 738.26 219.12 M 608.72 548.63 529.68 548.63 M 1257.16 608.54 1268.53 608.54 M 1310.67 510.67 1310.67 477.99" fill="none" stroke-width="10"/><use xlink:href="#TMrf20AA0dTeA9JYQ8kS_pad-19" x="1186.26" y="418.54"/><use xlink:href="#TMrf20AA0dTeA9JYQ8kS_pad-19" x="1077.99" y="526.81"/><use xlink:href="#TMrf20AA0dTeA9JYQ8kS_pad-19" x="979.57" y="497.28"/><use xlink:href="#TMrf20AA0dTeA9JYQ8kS_pad-19" x="979.57" y="556.34"/><use xlink:href="#TMrf20AA0dTeA9JYQ8kS_pad-19" x="979.57" y="605.55"/><use xlink:href="#TMrf20AA0dTeA9JYQ8kS_pad-19" x="881.14" y="566.18"/><use xlink:href="#TMrf20AA0dTeA9JYQ8kS_pad-19" x="881.14" y="526.81"/><use xlink:href="#TMrf20AA0dTeA9JYQ8kS_pad-19" x="841.77" y="467.76"/><use xlink:href="#TMrf20AA0dTeA9JYQ8kS_pad-19" x="881.14" y="428.39"/><use xlink:href="#TMrf20AA0dTeA9JYQ8kS_pad-19" x="881.14" y="393.94"/><use xlink:href="#TMrf20AA0dTeA9JYQ8kS_pad-19" x="871.3" y="339.8"/><use xlink:href="#TMrf20AA0dTeA9JYQ8kS_pad-19" x="890.98" y="300.43"/><use xlink:href="#TMrf20AA0dTeA9JYQ8kS_pad-19" x="979.57" y="310.28"/><use xlink:href="#TMrf20AA0dTeA9JYQ8kS_pad-19" x="822.09" y="231.54"/><use xlink:href="#TMrf20AA0dTeA9JYQ8kS_pad-19" x="782.72" y="359.49"/><use xlink:href="#TMrf20AA0dTeA9JYQ8kS_pad-19" x="694.13" y="369.33"/><use xlink:href="#TMrf20AA0dTeA9JYQ8kS_pad-19" x="585.87" y="379.17"/><use xlink:href="#TMrf20AA0dTeA9JYQ8kS_pad-19" x="625.24" y="526.81"/><use xlink:href="#TMrf20AA0dTeA9JYQ8kS_pad-19" x="566.18" y="585.87"/><use xlink:href="#TMrf20AA0dTeA9JYQ8kS_pad-19" x="546.5" y="635.08"/><use xlink:href="#TMrf20AA0dTeA9JYQ8kS_pad-19" x="536.65" y="703.98"/><use xlink:href="#TMrf20AA0dTeA9JYQ8kS_pad-19" x="664.61" y="669.53"/><use xlink:href="#TMrf20AA0dTeA9JYQ8kS_pad-19" x="772.87" y="595.71"/><use xlink:href="#TMrf20AA0dTeA9JYQ8kS_pad-19" x="861.46" y="694.13"/><use xlink:href="#TMrf20AA0dTeA9JYQ8kS_pad-19" x="1186.26" y="600.63"/><use xlink:href="#TMrf20AA0dTeA9JYQ8kS_pad-19" x="979.57" y="428.39"/></g></svg>