<svg version="1.1" xmlns="http://www.w3.org/2000/svg" xmlns:xlink="http://www.w3.org/1999/xlink" stroke-linecap="round" stroke-linejoin="round" stroke-width="0" fill-rule="evenodd" width="10.7622in" height="3.6372in" viewBox="2370.3 3514 10762.2 3637.2" id="JBh8eVBpbLOYLrUWVzr1"><defs><circle cx="0" cy="0" r="6.1" id="JBh8eVBpbLOYLrUWVzr1_pad-1"/><circle cx="0" cy="0" r="21.655" id="JBh8eVBpbLOYLrUWVzr1_pad-2"/></defs><g transform="translate(0,10665.2) scale(1,-1)" fill="currentColor" stroke="currentColor"><use xlink:href="#JBh8eVBpbLOYLrUWVzr1_pad-1" x="2376.4" y="4270.1"/><use xlink:href="#JBh8eVBpbLOYLrUWVzr1_pad-1" x="2376.4" y="5270.1"/><use xlink:href="#JBh8eVBpbLOYLrUWVzr1_pad-1" x="2376.4" y="5770.1"/><use xlink:href="#JBh8eVBpbLOYLrUWVzr1_pad-1" x="3626.4" y="4270.1"/><use xlink:href="#JBh8eVBpbLOYLrUWVzr1_pad-1" x="5001.4" y="4270.1"/><use xlink:href="#JBh8eVBpbLOYLrUWVzr1_pad-1" x="5501.4" y="4395.1"/><use xlink:href="#JBh8eVBpbLOYLrUWVzr1_pad-1" x="5626.4" y="5145.1"/><use xlink:href="#JBh8eVBpbLOYLrUWVzr1_pad-1" x="6626.4" y="5270.1"/><use xlink:href="#JBh8eVBpbLOYLrUWVzr1_pad-1" x="7126.4" y="5645.1"/><use xlink:href="#JBh8eVBpbLOYLrUWVzr1_pad-1" x="7501.4" y="5520.1"/><use xlink:href="#JBh8eVBpbLOYLrUWVzr1_pad-1" x="8251.4" y="5520.1"/><use xlink:href="#JBh8eVBpbLOYLrUWVzr1_pad-1" x="9751.4" y="5520.1"/><use xlink:href="#JBh8eVBpbLOYLrUWVzr1_pad-1" x="9876.4" y="4645.1"/><use xlink:href="#JBh8eVBpbLOYLrUWVzr1_pad-1" x="13126.4" y="5270.1"/><use xlink:href="#JBh8eVBpbLOYLrUWVzr1_pad-1" x="10001.4" y="6770.1"/><use xlink:href="#JBh8eVBpbLOYLrUWVzr1_pad-1" x="7751.4" y="7145.1"/><use xlink:href="#JBh8eVBpbLOYLrUWVzr1_pad-1" x="5751.4" y="6395.1"/><use xlink:href="#JBh8eVBpbLOYLrUWVzr1_pad-1" x="6501.4" y="4270.1"/><use xlink:href="#JBh8eVBpbLOYLrUWVzr1_pad-1" x="6876.4" y="3895.1"/><use xlink:href="#JBh8eVBpbLOYLrUWVzr1_pad-1" x="7501.4" y="3895.1"/><use xlink:href="#JBh8eVBpbLOYLrUWVzr1_pad-1" x="8251.4" y="3645.1"/><use xlink:href="#JBh8eVBpbLOYLrUWVzr1_pad-1" x="9876.4" y="3520.1"/><use xlink:href="#JBh8eVBpbLOYLrUWVzr1_pad-1" x="13001.4" y="3770.1"/><use xlink:href="#JBh8eVBpbLOYLrUWVzr1_pad-1" x="13126.4" y="4270.1"/><use xlink:href="#JBh8eVBpbLOYLrUWVzr1_pad-2" x="4094.9" y="3776"/><use xlink:href="#JBh8eVBpbLOYLrUWVzr1_pad-2" x="3094.9" y="3776"/><use xlink:href="#JBh8eVBpbLOYLrUWVzr1_pad-2" x="3094.9" y="4776"/><use xlink:href="#JBh8eVBpbLOYLrUWVzr1_pad-2" x="4094.9" y="4776"/><use xlink:href="#JBh8eVBpbLOYLrUWVzr1_pad-2" x="4094.9" y="5776"/><use xlink:href="#JBh8eVBpbLOYLrUWVzr1_pad-2" x="3094.9" y="5776"/><use xlink:href="#JBh8eVBpbLOYLrUWVzr1_pad-2" x="11362.6" y="5776"/><use xlink:href="#JBh8eVBpbLOYLrUWVzr1_pad-2" x="12362.6" y="5776"/><use xlink:href="#JBh8eVBpbLOYLrUWVzr1_pad-2" x="12362.6" y="4776"/><use xlink:href="#JBh8eVBpbLOYLrUWVzr1_pad-2" x="11362.6" y="4776"/><use xlink:href="#JBh8eVBpbLOYLrUWVzr1_pad-2" x="11362.6" y="3776"/><use xlink:href="#JBh8eVBpbLOYLrUWVzr1_pad-2" x="12362.6" y="3776"/></g></svg>