<svg version="1.1" xmlns="http://www.w3.org/2000/svg" xmlns:xlink="http://www.w3.org/1999/xlink" stroke-linecap="round" stroke-linejoin="round" stroke-width="0" fill-rule="evenodd" width="1.1653499999999999in" height="0.55145in" viewBox="190.2 201.74 1165.35 551.45" id="u10eDWgtFUNMWLQHqIux"><defs><rect x="-35.435" y="-17.715" width="70.87" height="35.43" id="u10eDWgtFUNMWLQHqIux_pad-11"/><polygon points="12.09998,5.01197 5.01197,12.09998 -5.01197,12.09998 -12.09998,5.01197 -12.09998,-5.01197 -5.01197,-12.09998 5.01197,-12.09998 12.09998,-5.01197" id="u10eDWgtFUNMWLQHqIux_pad-13"/></defs><g transform="translate(0,954.9300000000001) scale(1,-1)" fill="currentColor" stroke="currentColor"><path d="M 457.91 320.12 459.15 320.1 460.38 320.04 461.62 319.95 462.84 319.81 464.07 319.64 465.29 319.42 466.5 319.17 467.7 318.88 468.89 318.56 470.08 318.19 471.25 317.79 472.4 317.36 473.55 316.88 474.67 316.37 475.78 315.83 476.88 315.25 477.95 314.64 479.01 313.99 480.04 313.31 481.05 312.6 482.04 311.86 483.01 311.09 483.95 310.28 484.86 309.45 485.75 308.59 486.61 307.7 487.44 306.79 488.25 305.85 489.02 304.88 489.76 303.89 490.47 302.88 491.15 301.85 491.8 300.79 492.41 299.72 492.99 298.62 493.53 297.51 494.04 296.39 494.52 295.24 494.95 294.09 495.35 292.92 495.72 291.73 496.04 290.54 496.33 289.34 496.58 288.13 496.8 286.91 496.97 285.68 497.11 284.46 497.2 283.22 497.26 281.99 497.28 280.75 497.28 241.38 497.13 240.23 497.03 239.07 496.96 237.91 496.93 236.75 496.94 235.58 496.99 234.42 497.08 233.26 497.2 232.11 497.37 230.95 497.57 229.81 497.81 228.67 498.09 227.54 498.41 226.42 498.76 225.32 499.15 224.22 499.58 223.14 500.04 222.07 500.54 221.02 501.08 219.99 501.64 218.97 502.24 217.98 502.88 217 503.54 216.05 504.24 215.12 504.97 214.21 505.73 213.33 506.52 212.47 507.33 211.64 508.18 210.84 509.04 210.07 509.94 209.33 510.86 208.61 511.8 207.93 512.76 207.28 513.75 206.66 514.76 206.08 515.78 205.53 516.82 205.01 517.88 204.53 518.96 204.09 520.05 203.68 521.15 203.31 522.26 202.97 523.38 202.68 524.52 202.42 525.66 202.19 526.81 202.01 999.25 202.01 1000.56 201.89 1001.88 201.8 1003.2 201.75 1004.52 201.74 1005.84 201.77 1007.16 201.84 1008.48 201.95 1009.79 202.1 1011.1 202.28 1012.4 202.51 1013.69 202.77 1014.98 203.07 1016.25 203.41 1017.52 203.79 1018.77 204.2 1020.02 204.65 1021.24 205.14 1022.45 205.66 1023.65 206.22 1024.83 206.82 1025.99 207.45 1027.13 208.11 1028.25 208.81 1029.35 209.54 1030.43 210.3 1031.49 211.1 1032.52 211.92 1033.53 212.78 1034.51 213.66 1035.46 214.57 1036.39 215.52 1037.28 216.48 1038.15 217.48 1038.99 218.5 1039.8 219.54 1040.58 220.61 1041.32 221.7 1042.04 222.81 1042.72 223.94 1043.36 225.1 1043.97 226.27 1044.55 227.45 1045.09 228.66 1045.59 229.88 1046.06 231.11 1046.49 232.36 1046.89 233.62 1047.25 234.89 1047.56 236.18 1047.85 237.47 1048.09 238.76 1048.29 240.07 1048.46 241.38 1048.46 280.75 1048.48 281.99 1048.54 283.22 1048.63 284.46 1048.77 285.68 1048.94 286.91 1049.16 288.13 1049.41 289.34 1049.7 290.54 1050.02 291.73 1050.39 292.92 1050.79 294.09 1051.22 295.24 1051.7 296.39 1052.21 297.51 1052.75 298.62 1053.33 299.72 1053.94 300.79 1054.59 301.85 1055.27 302.88 1055.98 303.89 1056.72 304.88 1057.49 305.85 1058.3 306.79 1059.13 307.7 1059.99 308.59 1060.88 309.45 1061.79 310.28 1062.73 311.09 1063.7 311.86 1064.69 312.6 1065.7 313.31 1066.73 313.99 1067.79 314.64 1068.86 315.25 1069.96 315.83 1071.07 316.37 1072.19 316.88 1073.34 317.36 1074.49 317.79 1075.66 318.19 1076.85 318.56 1078.04 318.88 1079.24 319.17 1080.45 319.42 1081.67 319.64 1082.9 319.81 1084.12 319.95 1085.36 320.04 1086.59 320.1 1087.83 320.12 1316.18 320.12 1317.42 320.14 1318.65 320.2 1319.89 320.29 1321.11 320.43 1322.34 320.6 1323.56 320.82 1324.77 321.07 1325.97 321.36 1327.16 321.68 1328.35 322.05 1329.52 322.45 1330.67 322.88 1331.82 323.36 1332.94 323.87 1334.05 324.41 1335.15 324.99 1336.22 325.6 1337.28 326.25 1338.31 326.93 1339.32 327.64 1340.31 328.38 1341.28 329.15 1342.22 329.96 1343.13 330.79 1344.02 331.65 1344.88 332.54 1345.71 333.45 1346.52 334.39 1347.29 335.36 1348.03 336.35 1348.74 337.36 1349.42 338.39 1350.07 339.45 1350.68 340.52 1351.26 341.62 1351.8 342.73 1352.31 343.85 1352.79 345 1353.22 346.15 1353.62 347.32 1353.99 348.51 1354.31 349.7 1354.6 350.9 1354.85 352.11 1355.07 353.33 1355.24 354.56 1355.38 355.78 1355.47 357.02 1355.53 358.25 1355.55 359.49 1355.55 595.71 1355.53 596.95 1355.47 598.18 1355.38 599.42 1355.24 600.64 1355.07 601.87 1354.85 603.09 1354.6 604.3 1354.31 605.5 1353.99 606.69 1353.62 607.88 1353.22 609.05 1352.79 610.2 1352.31 611.35 1351.8 612.47 1351.26 613.58 1350.68 614.68 1350.07 615.75 1349.42 616.81 1348.74 617.84 1348.03 618.85 1347.29 619.84 1346.52 620.81 1345.71 621.75 1344.88 622.66 1344.02 623.55 1343.13 624.41 1342.22 625.24 1341.28 626.05 1340.31 626.82 1339.32 627.56 1338.31 628.27 1337.28 628.95 1336.22 629.6 1335.15 630.21 1334.05 630.79 1332.94 631.33 1331.82 631.84 1330.67 632.32 1329.52 632.75 1328.35 633.15 1327.16 633.52 1325.97 633.84 1324.77 634.13 1323.56 634.38 1322.34 634.6 1321.11 634.77 1319.89 634.91 1318.65 635 1317.42 635.06 1316.18 635.08 1087.83 635.08 1086.59 635.1 1085.36 635.16 1084.12 635.25 1082.9 635.39 1081.67 635.56 1080.45 635.78 1079.24 636.03 1078.04 636.32 1076.85 636.64 1075.66 637.01 1074.49 637.41 1073.34 637.84 1072.19 638.32 1071.07 638.83 1069.96 639.37 1068.86 639.95 1067.79 640.56 1066.73 641.21 1065.7 641.89 1064.69 642.6 1063.7 643.34 1062.73 644.11 1061.79 644.92 1060.88 645.75 1059.99 646.61 1059.13 647.5 1058.3 648.41 1057.49 649.35 1056.72 650.32 1055.98 651.31 1055.27 652.32 1054.59 653.35 1053.94 654.41 1053.33 655.48 1052.75 656.58 1052.21 657.69 1051.7 658.81 1051.22 659.96 1050.79 661.11 1050.39 662.28 1050.02 663.47 1049.7 664.66 1049.41 665.86 1049.16 667.07 1048.94 668.29 1048.77 669.52 1048.63 670.74 1048.54 671.98 1048.48 673.21 1048.46 674.45 1048.46 713.82 1048.44 715.06 1048.38 716.29 1048.29 717.53 1048.15 718.75 1047.98 719.98 1047.76 721.2 1047.51 722.41 1047.22 723.61 1046.9 724.8 1046.53 725.99 1046.13 727.16 1045.7 728.31 1045.22 729.46 1044.71 730.58 1044.17 731.69 1043.59 732.79 1042.98 733.86 1042.33 734.92 1041.65 735.95 1040.94 736.96 1040.2 737.95 1039.43 738.92 1038.62 739.86 1037.79 740.77 1036.93 741.66 1036.04 742.52 1035.13 743.35 1034.19 744.16 1033.22 744.93 1032.23 745.67 1031.22 746.38 1030.19 747.06 1029.13 747.71 1028.06 748.32 1026.96 748.9 1025.85 749.44 1024.73 749.95 1023.58 750.43 1022.43 750.86 1021.26 751.26 1020.07 751.63 1018.88 751.95 1017.68 752.24 1016.47 752.49 1015.25 752.71 1014.02 752.88 1012.8 753.02 1011.56 753.11 1010.33 753.17 1009.09 753.19 536.65 753.19 535.41 753.17 534.18 753.11 532.94 753.02 531.72 752.88 530.49 752.71 529.27 752.49 528.06 752.24 526.86 751.95 525.67 751.63 524.48 751.26 523.31 750.86 522.16 750.43 521.01 749.95 519.89 749.44 518.78 748.9 517.68 748.32 516.61 747.71 515.55 747.06 514.52 746.38 513.51 745.67 512.52 744.93 511.55 744.16 510.61 743.35 509.7 742.52 508.81 741.66 507.95 740.77 507.12 739.86 506.31 738.92 505.54 737.95 504.8 736.96 504.09 735.95 503.41 734.92 502.76 733.86 502.15 732.79 501.57 731.69 501.03 730.58 500.52 729.46 500.04 728.31 499.61 727.16 499.21 725.99 498.84 724.8 498.52 723.61 498.23 722.41 497.98 721.2 497.76 719.98 497.59 718.75 497.45 717.53 497.36 716.29 497.3 715.06 497.28 713.82 497.28 674.45 497.26 673.21 497.2 671.98 497.11 670.74 496.97 669.52 496.8 668.29 496.58 667.07 496.33 665.86 496.04 664.66 495.72 663.47 495.35 662.28 494.95 661.11 494.52 659.96 494.04 658.81 493.53 657.69 492.99 656.58 492.41 655.48 491.8 654.41 491.15 653.35 490.47 652.32 489.76 651.31 489.02 650.32 488.25 649.35 487.44 648.41 486.61 647.5 485.75 646.61 484.86 645.75 483.95 644.92 483.01 644.11 482.04 643.34 481.05 642.6 480.04 641.89 479.01 641.21 477.95 640.56 476.88 639.95 475.78 639.37 474.67 638.83 473.55 638.32 472.4 637.84 471.25 637.41 470.08 637.01 468.89 636.64 467.7 636.32 466.5 636.03 465.29 635.78 464.07 635.56 462.84 635.39 461.62 635.25 460.38 635.16 459.15 635.1 457.91 635.08 229.57 635.08 228.33 635.06 227.1 635 225.86 634.91 224.64 634.77 223.41 634.6 222.19 634.38 220.98 634.13 219.78 633.84 218.59 633.52 217.4 633.15 216.23 632.75 215.08 632.32 213.93 631.84 212.81 631.33 211.7 630.79 210.6 630.21 209.53 629.6 208.47 628.95 207.44 628.27 206.43 627.56 205.44 626.82 204.47 626.05 203.53 625.24 202.62 624.41 201.73 623.55 200.87 622.66 200.04 621.75 199.23 620.81 198.46 619.84 197.72 618.85 197.01 617.84 196.33 616.81 195.68 615.75 195.07 614.68 194.49 613.58 193.95 612.47 193.44 611.35 192.96 610.2 192.53 609.05 192.13 607.88 191.76 606.69 191.44 605.5 191.15 604.3 190.9 603.09 190.68 601.87 190.51 600.64 190.37 599.42 190.28 598.18 190.22 596.95 190.2 595.71 190.2 359.49 190.22 358.25 190.28 357.02 190.37 355.78 190.51 354.56 190.68 353.33 190.9 352.11 191.15 350.9 191.44 349.7 191.76 348.51 192.13 347.32 192.53 346.15 192.96 345 193.44 343.85 193.95 342.73 194.49 341.62 195.07 340.52 195.68 339.45 196.33 338.39 197.01 337.36 197.72 336.35 198.46 335.36 199.23 334.39 200.04 333.45 200.87 332.54 201.73 331.65 202.62 330.79 203.53 329.96 204.47 329.15 205.44 328.38 206.43 327.64 207.44 326.93 208.47 326.25 209.53 325.6 210.6 324.99 211.7 324.41 212.81 323.87 213.93 323.36 215.08 322.88 216.23 322.45 217.4 322.05 218.59 321.68 219.78 321.36 220.98 321.07 222.19 320.82 223.41 320.6 224.64 320.43 225.86 320.29 227.1 320.2 228.33 320.14 229.57 320.12 457.91 320.12 M 387.84 377.6 387.86 378.53 387.92 379.45 388.02 380.37 388.16 381.28 388.33 382.19 388.55 383.09 388.8 383.98 389.09 384.86 389.42 385.72 389.79 386.57 390.19 387.41 390.63 388.22 391.1 389.02 391.6 389.8 392.14 390.55 392.71 391.28 393.31 391.98 393.94 392.66 394.6 393.31 395.28 393.93 395.99 394.53 396.73 395.09 397.49 395.62 398.27 396.11 399.07 396.58 399.89 397 400.73 397.4 401.58 397.75 402.45 398.07 403.33 398.36 404.22 398.6 405.12 398.81 406.03 398.97 406.95 399.1 407.87 399.19 408.8 399.24 409.72 399.25 410.65 399.22 411.57 399.15 412.49 399.04 413.4 398.89 414.31 398.71 415.21 398.48 416.09 398.22 416.97 397.92 417.83 397.58 418.67 397.21 419.5 396.79 420.31 396.35 421.11 395.87 421.88 395.36 422.62 394.81 423.35 394.23 424.05 393.63 424.72 392.99 425.36 392.33 425.98 391.63 426.56 390.92 427.11 390.18 427.63 389.41 428.12 388.62 428.58 387.82 429 386.99 429.38 386.15 429.73 385.29 430.04 384.42 430.31 383.54 430.54 382.64 430.74 381.74 430.9 380.83 431.02 379.91 431.1 378.99 431.14 378.06 431.14 377.14 431.1 376.21 431.02 375.29 430.9 374.37 430.74 373.46 430.54 372.56 430.31 371.66 430.04 370.78 429.73 369.91 429.38 369.05 429 368.21 428.58 367.38 428.12 366.58 427.63 365.79 427.11 365.02 426.56 364.28 425.98 363.57 425.36 362.87 424.72 362.21 424.05 361.57 423.35 360.97 422.62 360.39 421.88 359.84 421.11 359.33 420.32 358.85 419.5 358.41 418.67 357.99 417.83 357.62 416.97 357.28 416.09 356.98 415.21 356.72 414.31 356.49 413.4 356.31 412.49 356.16 411.57 356.05 410.65 355.98 409.72 355.95 408.8 355.96 407.87 356.01 406.95 356.1 406.03 356.23 405.12 356.39 404.22 356.6 403.33 356.84 402.45 357.13 401.58 357.45 400.73 357.8 399.89 358.2 399.07 358.62 398.27 359.09 397.49 359.58 396.73 360.11 395.99 360.67 395.28 361.27 394.6 361.89 393.94 362.54 393.31 363.22 392.71 363.92 392.14 364.65 391.6 365.4 391.1 366.18 390.63 366.98 390.19 367.79 389.79 368.63 389.42 369.48 389.09 370.34 388.8 371.22 388.55 372.11 388.33 373.01 388.16 373.92 388.02 374.83 387.92 375.75 387.86 376.67 387.84 377.6 M 287.84 377.6 287.86 378.53 287.92 379.45 288.02 380.37 288.16 381.28 288.33 382.19 288.55 383.09 288.8 383.98 289.09 384.86 289.42 385.72 289.79 386.57 290.19 387.41 290.63 388.22 291.1 389.02 291.6 389.8 292.14 390.55 292.71 391.28 293.31 391.98 293.94 392.66 294.6 393.31 295.28 393.93 295.99 394.53 296.73 395.09 297.49 395.62 298.27 396.11 299.07 396.58 299.89 397 300.73 397.4 301.58 397.75 302.45 398.07 303.33 398.36 304.22 398.6 305.12 398.81 306.03 398.97 306.95 399.1 307.87 399.19 308.8 399.24 309.72 399.25 310.65 399.22 311.57 399.15 312.49 399.04 313.4 398.89 314.31 398.71 315.21 398.48 316.09 398.22 316.97 397.92 317.83 397.58 318.67 397.21 319.5 396.79 320.31 396.35 321.11 395.87 321.88 395.36 322.62 394.81 323.35 394.23 324.05 393.63 324.72 392.99 325.36 392.33 325.98 391.63 326.56 390.92 327.11 390.18 327.63 389.41 328.12 388.62 328.58 387.82 329 386.99 329.38 386.15 329.73 385.29 330.04 384.42 330.31 383.54 330.54 382.64 330.74 381.74 330.9 380.83 331.02 379.91 331.1 378.99 331.14 378.06 331.14 377.14 331.1 376.21 331.02 375.29 330.9 374.37 330.74 373.46 330.54 372.56 330.31 371.66 330.04 370.78 329.73 369.91 329.38 369.05 329 368.21 328.58 367.38 328.12 366.58 327.63 365.79 327.11 365.02 326.56 364.28 325.98 363.57 325.36 362.87 324.72 362.21 324.05 361.57 323.35 360.97 322.62 360.39 321.88 359.84 321.11 359.33 320.32 358.85 319.5 358.41 318.67 357.99 317.83 357.62 316.97 357.28 316.09 356.98 315.21 356.72 314.31 356.49 313.4 356.31 312.49 356.16 311.57 356.05 310.65 355.98 309.72 355.95 308.8 355.96 307.87 356.01 306.95 356.1 306.03 356.23 305.12 356.39 304.22 356.6 303.33 356.84 302.45 357.13 301.58 357.45 300.73 357.8 299.89 358.2 299.07 358.62 298.27 359.09 297.49 359.58 296.73 360.11 295.99 360.67 295.28 361.27 294.6 361.89 293.94 362.54 293.31 363.22 292.71 363.92 292.14 364.65 291.6 365.4 291.1 366.18 290.63 366.98 290.19 367.79 289.79 368.63 289.42 369.48 289.09 370.34 288.8 371.22 288.55 372.11 288.33 373.01 288.16 373.92 288.02 374.83 287.92 375.75 287.86 376.67 287.84 377.6 M 287.84 477.6 287.86 478.53 287.92 479.45 288.02 480.37 288.16 481.28 288.33 482.19 288.55 483.09 288.8 483.98 289.09 484.86 289.42 485.72 289.79 486.57 290.19 487.41 290.63 488.22 291.1 489.02 291.6 489.8 292.14 490.55 292.71 491.28 293.31 491.98 293.94 492.66 294.6 493.31 295.28 493.93 295.99 494.53 296.73 495.09 297.49 495.62 298.27 496.11 299.07 496.58 299.89 497 300.73 497.4 301.58 497.75 302.45 498.07 303.33 498.36 304.22 498.6 305.12 498.81 306.03 498.97 306.95 499.1 307.87 499.19 308.8 499.24 309.72 499.25 310.65 499.22 311.57 499.15 312.49 499.04 313.4 498.89 314.31 498.71 315.21 498.48 316.09 498.22 316.97 497.92 317.83 497.58 318.67 497.21 319.5 496.79 320.31 496.35 321.11 495.87 321.88 495.36 322.62 494.81 323.35 494.23 324.05 493.63 324.72 492.99 325.36 492.33 325.98 491.63 326.56 490.92 327.11 490.18 327.63 489.41 328.12 488.62 328.58 487.82 329 486.99 329.38 486.15 329.73 485.29 330.04 484.42 330.31 483.54 330.54 482.64 330.74 481.74 330.9 480.83 331.02 479.91 331.1 478.99 331.14 478.06 331.14 477.14 331.1 476.21 331.02 475.29 330.9 474.37 330.74 473.46 330.54 472.56 330.31 471.66 330.04 470.78 329.73 469.91 329.38 469.05 329 468.21 328.58 467.38 328.12 466.58 327.63 465.79 327.11 465.02 326.56 464.28 325.98 463.57 325.36 462.87 324.72 462.21 324.05 461.57 323.35 460.97 322.62 460.39 321.88 459.84 321.11 459.33 320.32 458.85 319.5 458.41 318.67 457.99 317.83 457.62 316.97 457.28 316.09 456.98 315.21 456.72 314.31 456.49 313.4 456.31 312.49 456.16 311.57 456.05 310.65 455.98 309.72 455.95 308.8 455.96 307.87 456.01 306.95 456.1 306.03 456.23 305.12 456.39 304.22 456.6 303.33 456.84 302.45 457.13 301.58 457.45 300.73 457.8 299.89 458.2 299.07 458.62 298.27 459.09 297.49 459.58 296.73 460.11 295.99 460.67 295.28 461.27 294.6 461.89 293.94 462.54 293.31 463.22 292.71 463.92 292.14 464.65 291.6 465.4 291.1 466.18 290.63 466.98 290.19 467.79 289.79 468.63 289.42 469.48 289.09 470.34 288.8 471.22 288.55 472.11 288.33 473.01 288.16 473.92 288.02 474.83 287.92 475.75 287.86 476.67 287.84 477.6 M 387.84 477.6 387.86 478.53 387.92 479.45 388.02 480.37 388.16 481.28 388.33 482.19 388.55 483.09 388.8 483.98 389.09 484.86 389.42 485.72 389.79 486.57 390.19 487.41 390.63 488.22 391.1 489.02 391.6 489.8 392.14 490.55 392.71 491.28 393.31 491.98 393.94 492.66 394.6 493.31 395.28 493.93 395.99 494.53 396.73 495.09 397.49 495.62 398.27 496.11 399.07 496.58 399.89 497 400.73 497.4 401.58 497.75 402.45 498.07 403.33 498.36 404.22 498.6 405.12 498.81 406.03 498.97 406.95 499.1 407.87 499.19 408.8 499.24 409.72 499.25 410.65 499.22 411.57 499.15 412.49 499.04 413.4 498.89 414.31 498.71 415.21 498.48 416.09 498.22 416.97 497.92 417.83 497.58 418.67 497.21 419.5 496.79 420.31 496.35 421.11 495.87 421.88 495.36 422.62 494.81 423.35 494.23 424.05 493.63 424.72 492.99 425.36 492.33 425.98 491.63 426.56 490.92 427.11 490.18 427.63 489.41 428.12 488.62 428.58 487.82 429 486.99 429.38 486.15 429.73 485.29 430.04 484.42 430.31 483.54 430.54 482.64 430.74 481.74 430.9 480.83 431.02 479.91 431.1 478.99 431.14 478.06 431.14 477.14 431.1 476.21 431.02 475.29 430.9 474.37 430.74 473.46 430.54 472.56 430.31 471.66 430.04 470.78 429.73 469.91 429.38 469.05 429 468.21 428.58 467.38 428.12 466.58 427.63 465.79 427.11 465.02 426.56 464.28 425.98 463.57 425.36 462.87 424.72 462.21 424.05 461.57 423.35 460.97 422.62 460.39 421.88 459.84 421.11 459.33 420.32 458.85 419.5 458.41 418.67 457.99 417.83 457.62 416.97 457.28 416.09 456.98 415.21 456.72 414.31 456.49 413.4 456.31 412.49 456.16 411.57 456.05 410.65 455.98 409.72 455.95 408.8 455.96 407.87 456.01 406.95 456.1 406.03 456.23 405.12 456.39 404.22 456.6 403.33 456.84 402.45 457.13 401.58 457.45 400.73 457.8 399.89 458.2 399.07 458.62 398.27 459.09 397.49 459.58 396.73 460.11 395.99 460.67 395.28 461.27 394.6 461.89 393.94 462.54 393.31 463.22 392.71 463.92 392.14 464.65 391.6 465.4 391.1 466.18 390.63 466.98 390.19 467.79 389.79 468.63 389.42 469.48 389.09 470.34 388.8 471.22 388.55 472.11 388.33 473.01 388.16 473.92 388.02 474.83 387.92 475.75 387.86 476.67 387.84 477.6 M 387.84 577.6 387.86 578.53 387.92 579.45 388.02 580.37 388.16 581.28 388.33 582.19 388.55 583.09 388.8 583.98 389.09 584.86 389.42 585.72 389.79 586.57 390.19 587.41 390.63 588.22 391.1 589.02 391.6 589.8 392.14 590.55 392.71 591.28 393.31 591.98 393.94 592.66 394.6 593.31 395.28 593.93 395.99 594.53 396.73 595.09 397.49 595.62 398.27 596.11 399.07 596.58 399.89 597 400.73 597.4 401.58 597.75 402.45 598.07 403.33 598.36 404.22 598.6 405.12 598.81 406.03 598.97 406.95 599.1 407.87 599.19 408.8 599.24 409.72 599.25 410.65 599.22 411.57 599.15 412.49 599.04 413.4 598.89 414.31 598.71 415.21 598.48 416.09 598.22 416.97 597.92 417.83 597.58 418.67 597.21 419.5 596.79 420.31 596.35 421.11 595.87 421.88 595.36 422.62 594.81 423.35 594.23 424.05 593.63 424.72 592.99 425.36 592.33 425.98 591.63 426.56 590.92 427.11 590.18 427.63 589.41 428.12 588.62 428.58 587.82 429 586.99 429.38 586.15 429.73 585.29 430.04 584.42 430.31 583.54 430.54 582.64 430.74 581.74 430.9 580.83 431.02 579.91 431.1 578.99 431.14 578.06 431.14 577.14 431.1 576.21 431.02 575.29 430.9 574.37 430.74 573.46 430.54 572.56 430.31 571.66 430.04 570.78 429.73 569.91 429.38 569.05 429 568.21 428.58 567.38 428.12 566.58 427.63 565.79 427.11 565.02 426.56 564.28 425.98 563.57 425.36 562.87 424.72 562.21 424.05 561.57 423.35 560.97 422.62 560.39 421.88 559.84 421.11 559.33 420.32 558.85 419.5 558.41 418.67 557.99 417.83 557.62 416.97 557.28 416.09 556.98 415.21 556.72 414.31 556.49 413.4 556.31 412.49 556.16 411.57 556.05 410.65 555.98 409.72 555.95 408.8 555.96 407.87 556.01 406.95 556.1 406.03 556.23 405.12 556.39 404.22 556.6 403.33 556.84 402.45 557.13 401.58 557.45 400.73 557.8 399.89 558.2 399.07 558.62 398.27 559.09 397.49 559.58 396.73 560.11 395.99 560.67 395.28 561.27 394.6 561.89 393.94 562.54 393.31 563.22 392.71 563.92 392.14 564.65 391.6 565.4 391.1 566.18 390.63 566.98 390.19 567.79 389.79 568.63 389.42 569.48 389.09 570.34 388.8 571.22 388.55 572.11 388.33 573.01 388.16 573.92 388.02 574.83 387.92 575.75 387.86 576.67 387.84 577.6 M 287.84 577.6 287.86 578.53 287.92 579.45 288.02 580.37 288.16 581.28 288.33 582.19 288.55 583.09 288.8 583.98 289.09 584.86 289.42 585.72 289.79 586.57 290.19 587.41 290.63 588.22 291.1 589.02 291.6 589.8 292.14 590.55 292.71 591.28 293.31 591.98 293.94 592.66 294.6 593.31 295.28 593.93 295.99 594.53 296.73 595.09 297.49 595.62 298.27 596.11 299.07 596.58 299.89 597 300.73 597.4 301.58 597.75 302.45 598.07 303.33 598.36 304.22 598.6 305.12 598.81 306.03 598.97 306.95 599.1 307.87 599.19 308.8 599.24 309.72 599.25 310.65 599.22 311.57 599.15 312.49 599.04 313.4 598.89 314.31 598.71 315.21 598.48 316.09 598.22 316.97 597.92 317.83 597.58 318.67 597.21 319.5 596.79 320.31 596.35 321.11 595.87 321.88 595.36 322.62 594.81 323.35 594.23 324.05 593.63 324.72 592.99 325.36 592.33 325.98 591.63 326.56 590.92 327.11 590.18 327.63 589.41 328.12 588.62 328.58 587.82 329 586.99 329.38 586.15 329.73 585.29 330.04 584.42 330.31 583.54 330.54 582.64 330.74 581.74 330.9 580.83 331.02 579.91 331.1 578.99 331.14 578.06 331.14 577.14 331.1 576.21 331.02 575.29 330.9 574.37 330.74 573.46 330.54 572.56 330.31 571.66 330.04 570.78 329.73 569.91 329.38 569.05 329 568.21 328.58 567.38 328.12 566.58 327.63 565.79 327.11 565.02 326.56 564.28 325.98 563.57 325.36 562.87 324.72 562.21 324.05 561.57 323.35 560.97 322.62 560.39 321.88 559.84 321.11 559.33 320.32 558.85 319.5 558.41 318.67 557.99 317.83 557.62 316.97 557.28 316.09 556.98 315.21 556.72 314.31 556.49 313.4 556.31 312.49 556.16 311.57 556.05 310.65 555.98 309.72 555.95 308.8 555.96 307.87 556.01 306.95 556.1 306.03 556.23 305.12 556.39 304.22 556.6 303.33 556.84 302.45 557.13 301.58 557.45 300.73 557.8 299.89 558.2 299.07 558.62 298.27 559.09 297.49 559.58 296.73 560.11 295.99 560.67 295.28 561.27 294.6 561.89 293.94 562.54 293.31 563.22 292.71 563.92 292.14 564.65 291.6 565.4 291.1 566.18 290.63 566.98 290.19 567.79 289.79 568.63 289.42 569.48 289.09 570.34 288.8 571.22 288.55 572.11 288.33 573.01 288.16 573.92 288.02 574.83 287.92 575.75 287.86 576.67 287.84 577.6 M 1114.61 577.6 1114.63 578.53 1114.69 579.45 1114.79 580.37 1114.93 581.28 1115.1 582.19 1115.32 583.09 1115.57 583.98 1115.86 584.86 1116.19 585.72 1116.56 586.57 1116.96 587.41 1117.4 588.22 1117.87 589.02 1118.37 589.8 1118.91 590.55 1119.48 591.28 1120.08 591.98 1120.71 592.66 1121.37 593.31 1122.05 593.93 1122.76 594.53 1123.5 595.09 1124.26 595.62 1125.04 596.11 1125.84 596.58 1126.66 597 1127.5 597.4 1128.35 597.75 1129.22 598.07 1130.1 598.36 1130.99 598.6 1131.89 598.81 1132.8 598.97 1133.72 599.1 1134.64 599.19 1135.57 599.24 1136.49 599.25 1137.42 599.22 1138.34 599.15 1139.26 599.04 1140.17 598.89 1141.08 598.71 1141.98 598.48 1142.86 598.22 1143.74 597.92 1144.6 597.58 1145.44 597.21 1146.27 596.79 1147.08 596.35 1147.88 595.87 1148.65 595.36 1149.39 594.81 1150.12 594.23 1150.82 593.63 1151.49 592.99 1152.13 592.33 1152.75 591.63 1153.33 590.92 1153.88 590.18 1154.4 589.41 1154.89 588.62 1155.35 587.82 1155.77 586.99 1156.15 586.15 1156.5 585.29 1156.81 584.42 1157.08 583.54 1157.31 582.64 1157.51 581.74 1157.67 580.83 1157.79 579.91 1157.87 578.99 1157.91 578.06 1157.91 577.14 1157.87 576.21 1157.79 575.29 1157.67 574.37 1157.51 573.46 1157.31 572.56 1157.08 571.66 1156.81 570.78 1156.5 569.91 1156.15 569.05 1155.77 568.21 1155.35 567.38 1154.89 566.58 1154.4 565.79 1153.88 565.02 1153.33 564.28 1152.75 563.57 1152.13 562.87 1151.49 562.21 1150.82 561.57 1150.12 560.97 1149.39 560.39 1148.65 559.84 1147.88 559.33 1147.09 558.85 1146.27 558.41 1145.44 557.99 1144.6 557.62 1143.74 557.28 1142.86 556.98 1141.98 556.72 1141.08 556.49 1140.17 556.31 1139.26 556.16 1138.34 556.05 1137.42 555.98 1136.49 555.95 1135.57 555.96 1134.64 556.01 1133.72 556.1 1132.8 556.23 1131.89 556.39 1130.99 556.6 1130.1 556.84 1129.22 557.13 1128.35 557.45 1127.5 557.8 1126.66 558.2 1125.84 558.62 1125.04 559.09 1124.26 559.58 1123.5 560.11 1122.76 560.67 1122.05 561.27 1121.37 561.89 1120.71 562.54 1120.08 563.22 1119.48 563.92 1118.91 564.65 1118.37 565.4 1117.87 566.18 1117.4 566.98 1116.96 567.79 1116.56 568.63 1116.19 569.48 1115.86 570.34 1115.57 571.22 1115.32 572.11 1115.1 573.01 1114.93 573.92 1114.79 574.83 1114.69 575.75 1114.63 576.67 1114.61 577.6 M 1214.61 577.6 1214.63 578.53 1214.69 579.45 1214.79 580.37 1214.93 581.28 1215.1 582.19 1215.32 583.09 1215.57 583.98 1215.86 584.86 1216.19 585.72 1216.56 586.57 1216.96 587.41 1217.4 588.22 1217.87 589.02 1218.37 589.8 1218.91 590.55 1219.48 591.28 1220.08 591.98 1220.71 592.66 1221.37 593.31 1222.05 593.93 1222.76 594.53 1223.5 595.09 1224.26 595.62 1225.04 596.11 1225.84 596.58 1226.66 597 1227.5 597.4 1228.35 597.75 1229.22 598.07 1230.1 598.36 1230.99 598.6 1231.89 598.81 1232.8 598.97 1233.72 599.1 1234.64 599.19 1235.57 599.24 1236.49 599.25 1237.42 599.22 1238.34 599.15 1239.26 599.04 1240.17 598.89 1241.08 598.71 1241.98 598.48 1242.86 598.22 1243.74 597.92 1244.6 597.58 1245.44 597.21 1246.27 596.79 1247.08 596.35 1247.88 595.87 1248.65 595.36 1249.39 594.81 1250.12 594.23 1250.82 593.63 1251.49 592.99 1252.13 592.33 1252.75 591.63 1253.33 590.92 1253.88 590.18 1254.4 589.41 1254.89 588.62 1255.35 587.82 1255.77 586.99 1256.15 586.15 1256.5 585.29 1256.81 584.42 1257.08 583.54 1257.31 582.64 1257.51 581.74 1257.67 580.83 1257.79 579.91 1257.87 578.99 1257.91 578.06 1257.91 577.14 1257.87 576.21 1257.79 575.29 1257.67 574.37 1257.51 573.46 1257.31 572.56 1257.08 571.66 1256.81 570.78 1256.5 569.91 1256.15 569.05 1255.77 568.21 1255.35 567.38 1254.89 566.58 1254.4 565.79 1253.88 565.02 1253.33 564.28 1252.75 563.57 1252.13 562.87 1251.49 562.21 1250.82 561.57 1250.12 560.97 1249.39 560.39 1248.65 559.84 1247.88 559.33 1247.09 558.85 1246.27 558.41 1245.44 557.99 1244.6 557.62 1243.74 557.28 1242.86 556.98 1241.98 556.72 1241.08 556.49 1240.17 556.31 1239.26 556.16 1238.34 556.05 1237.42 555.98 1236.49 555.95 1235.57 555.96 1234.64 556.01 1233.72 556.1 1232.8 556.23 1231.89 556.39 1230.99 556.6 1230.1 556.84 1229.22 557.13 1228.35 557.45 1227.5 557.8 1226.66 558.2 1225.84 558.62 1225.04 559.09 1224.26 559.58 1223.5 560.11 1222.76 560.67 1222.05 561.27 1221.37 561.89 1220.71 562.54 1220.08 563.22 1219.48 563.92 1218.91 564.65 1218.37 565.4 1217.87 566.18 1217.4 566.98 1216.96 567.79 1216.56 568.63 1216.19 569.48 1215.86 570.34 1215.57 571.22 1215.32 572.11 1215.1 573.01 1214.93 573.92 1214.79 574.83 1214.69 575.75 1214.63 576.67 1214.61 577.6 M 1214.61 477.6 1214.63 478.53 1214.69 479.45 1214.79 480.37 1214.93 481.28 1215.1 482.19 1215.32 483.09 1215.57 483.98 1215.86 484.86 1216.19 485.72 1216.56 486.57 1216.96 487.41 1217.4 488.22 1217.87 489.02 1218.37 489.8 1218.91 490.55 1219.48 491.28 1220.08 491.98 1220.71 492.66 1221.37 493.31 1222.05 493.93 1222.76 494.53 1223.5 495.09 1224.26 495.62 1225.04 496.11 1225.84 496.58 1226.66 497 1227.5 497.4 1228.35 497.75 1229.22 498.07 1230.1 498.36 1230.99 498.6 1231.89 498.81 1232.8 498.97 1233.72 499.1 1234.64 499.19 1235.57 499.24 1236.49 499.25 1237.42 499.22 1238.34 499.15 1239.26 499.04 1240.17 498.89 1241.08 498.71 1241.98 498.48 1242.86 498.22 1243.74 497.92 1244.6 497.58 1245.44 497.21 1246.27 496.79 1247.08 496.35 1247.88 495.87 1248.65 495.36 1249.39 494.81 1250.12 494.23 1250.82 493.63 1251.49 492.99 1252.13 492.33 1252.75 491.63 1253.33 490.92 1253.88 490.18 1254.4 489.41 1254.89 488.62 1255.35 487.82 1255.77 486.99 1256.15 486.15 1256.5 485.29 1256.81 484.42 1257.08 483.54 1257.31 482.64 1257.51 481.74 1257.67 480.83 1257.79 479.91 1257.87 478.99 1257.91 478.06 1257.91 477.14 1257.87 476.21 1257.79 475.29 1257.67 474.37 1257.51 473.46 1257.31 472.56 1257.08 471.66 1256.81 470.78 1256.5 469.91 1256.15 469.05 1255.77 468.21 1255.35 467.38 1254.89 466.58 1254.4 465.79 1253.88 465.02 1253.33 464.28 1252.75 463.57 1252.13 462.87 1251.49 462.21 1250.82 461.57 1250.12 460.97 1249.39 460.39 1248.65 459.84 1247.88 459.33 1247.09 458.85 1246.27 458.41 1245.44 457.99 1244.6 457.62 1243.74 457.28 1242.86 456.98 1241.98 456.72 1241.08 456.49 1240.17 456.31 1239.26 456.16 1238.34 456.05 1237.42 455.98 1236.49 455.95 1235.57 455.96 1234.64 456.01 1233.72 456.1 1232.8 456.23 1231.89 456.39 1230.99 456.6 1230.1 456.84 1229.22 457.13 1228.35 457.45 1227.5 457.8 1226.66 458.2 1225.84 458.62 1225.04 459.09 1224.26 459.58 1223.5 460.11 1222.76 460.67 1222.05 461.27 1221.37 461.89 1220.71 462.54 1220.08 463.22 1219.48 463.92 1218.91 464.65 1218.37 465.4 1217.87 466.18 1217.4 466.98 1216.96 467.79 1216.56 468.63 1216.19 469.48 1215.86 470.34 1215.57 471.22 1215.32 472.11 1215.1 473.01 1214.93 473.92 1214.79 474.83 1214.69 475.75 1214.63 476.67 1214.61 477.6 M 1114.61 477.6 1114.63 478.53 1114.69 479.45 1114.79 480.37 1114.93 481.28 1115.1 482.19 1115.32 483.09 1115.57 483.98 1115.86 484.86 1116.19 485.72 1116.56 486.57 1116.96 487.41 1117.4 488.22 1117.87 489.02 1118.37 489.8 1118.91 490.55 1119.48 491.28 1120.08 491.98 1120.71 492.66 1121.37 493.31 1122.05 493.93 1122.76 494.53 1123.5 495.09 1124.26 495.62 1125.04 496.11 1125.84 496.58 1126.66 497 1127.5 497.4 1128.35 497.75 1129.22 498.07 1130.1 498.36 1130.99 498.6 1131.89 498.81 1132.8 498.97 1133.72 499.1 1134.64 499.19 1135.57 499.24 1136.49 499.25 1137.42 499.22 1138.34 499.15 1139.26 499.04 1140.17 498.89 1141.08 498.71 1141.98 498.48 1142.86 498.22 1143.74 497.92 1144.6 497.58 1145.44 497.21 1146.27 496.79 1147.08 496.35 1147.88 495.87 1148.65 495.36 1149.39 494.81 1150.12 494.23 1150.82 493.63 1151.49 492.99 1152.13 492.33 1152.75 491.63 1153.33 490.92 1153.88 490.18 1154.4 489.41 1154.89 488.62 1155.35 487.82 1155.77 486.99 1156.15 486.15 1156.5 485.29 1156.81 484.42 1157.08 483.54 1157.31 482.64 1157.51 481.74 1157.67 480.83 1157.79 479.91 1157.87 478.99 1157.91 478.06 1157.91 477.14 1157.87 476.21 1157.79 475.29 1157.67 474.37 1157.51 473.46 1157.31 472.56 1157.08 471.66 1156.81 470.78 1156.5 469.91 1156.15 469.05 1155.77 468.21 1155.35 467.38 1154.89 466.58 1154.4 465.79 1153.88 465.02 1153.33 464.28 1152.75 463.57 1152.13 462.87 1151.49 462.21 1150.82 461.57 1150.12 460.97 1149.39 460.39 1148.65 459.84 1147.88 459.33 1147.09 458.85 1146.27 458.41 1145.44 457.99 1144.6 457.62 1143.74 457.28 1142.86 456.98 1141.98 456.72 1141.08 456.49 1140.17 456.31 1139.26 456.16 1138.34 456.05 1137.42 455.98 1136.49 455.95 1135.57 455.96 1134.64 456.01 1133.72 456.1 1132.8 456.23 1131.89 456.39 1130.99 456.6 1130.1 456.84 1129.22 457.13 1128.35 457.45 1127.5 457.8 1126.66 458.2 1125.84 458.62 1125.04 459.09 1124.26 459.58 1123.5 460.11 1122.76 460.67 1122.05 461.27 1121.37 461.89 1120.71 462.54 1120.08 463.22 1119.48 463.92 1118.91 464.65 1118.37 465.4 1117.87 466.18 1117.4 466.98 1116.96 467.79 1116.56 468.63 1116.19 469.48 1115.86 470.34 1115.57 471.22 1115.32 472.11 1115.1 473.01 1114.93 473.92 1114.79 474.83 1114.69 475.75 1114.63 476.67 1114.61 477.6 M 1114.61 377.6 1114.63 378.53 1114.69 379.45 1114.79 380.37 1114.93 381.28 1115.1 382.19 1115.32 383.09 1115.57 383.98 1115.86 384.86 1116.19 385.72 1116.56 386.57 1116.96 387.41 1117.4 388.22 1117.87 389.02 1118.37 389.8 1118.91 390.55 1119.48 391.28 1120.08 391.98 1120.71 392.66 1121.37 393.31 1122.05 393.93 1122.76 394.53 1123.5 395.09 1124.26 395.62 1125.04 396.11 1125.84 396.58 1126.66 397 1127.5 397.4 1128.35 397.75 1129.22 398.07 1130.1 398.36 1130.99 398.6 1131.89 398.81 1132.8 398.97 1133.72 399.1 1134.64 399.19 1135.57 399.24 1136.49 399.25 1137.42 399.22 1138.34 399.15 1139.26 399.04 1140.17 398.89 1141.08 398.71 1141.98 398.48 1142.86 398.22 1143.74 397.92 1144.6 397.58 1145.44 397.21 1146.27 396.79 1147.08 396.35 1147.88 395.87 1148.65 395.36 1149.39 394.81 1150.12 394.23 1150.82 393.63 1151.49 392.99 1152.13 392.33 1152.75 391.63 1153.33 390.92 1153.88 390.18 1154.4 389.41 1154.89 388.62 1155.35 387.82 1155.77 386.99 1156.15 386.15 1156.5 385.29 1156.81 384.42 1157.08 383.54 1157.31 382.64 1157.51 381.74 1157.67 380.83 1157.79 379.91 1157.87 378.99 1157.91 378.06 1157.91 377.14 1157.87 376.21 1157.79 375.29 1157.67 374.37 1157.51 373.46 1157.31 372.56 1157.08 371.66 1156.81 370.78 1156.5 369.91 1156.15 369.05 1155.77 368.21 1155.35 367.38 1154.89 366.58 1154.4 365.79 1153.88 365.02 1153.33 364.28 1152.75 363.57 1152.13 362.87 1151.49 362.21 1150.82 361.57 1150.12 360.97 1149.39 360.39 1148.65 359.84 1147.88 359.33 1147.09 358.85 1146.27 358.41 1145.44 357.99 1144.6 357.62 1143.74 357.28 1142.86 356.98 1141.98 356.72 1141.08 356.49 1140.17 356.31 1139.26 356.16 1138.34 356.05 1137.42 355.98 1136.49 355.95 1135.57 355.96 1134.64 356.01 1133.72 356.1 1132.8 356.23 1131.89 356.39 1130.99 356.6 1130.1 356.84 1129.22 357.13 1128.35 357.45 1127.5 357.8 1126.66 358.2 1125.84 358.62 1125.04 359.09 1124.26 359.58 1123.5 360.11 1122.76 360.67 1122.05 361.27 1121.37 361.89 1120.71 362.54 1120.08 363.22 1119.48 363.92 1118.91 364.65 1118.37 365.4 1117.87 366.18 1117.4 366.98 1116.96 367.79 1116.56 368.63 1116.19 369.48 1115.86 370.34 1115.57 371.22 1115.32 372.11 1115.1 373.01 1114.93 373.92 1114.79 374.83 1114.69 375.75 1114.63 376.67 1114.61 377.6 M 1214.61 377.6 1214.63 378.53 1214.69 379.45 1214.79 380.37 1214.93 381.28 1215.1 382.19 1215.32 383.09 1215.57 383.98 1215.86 384.86 1216.19 385.72 1216.56 386.57 1216.96 387.41 1217.4 388.22 1217.87 389.02 1218.37 389.8 1218.91 390.55 1219.48 391.28 1220.08 391.98 1220.71 392.66 1221.37 393.31 1222.05 393.93 1222.76 394.53 1223.5 395.09 1224.26 395.62 1225.04 396.11 1225.84 396.58 1226.66 397 1227.5 397.4 1228.35 397.75 1229.22 398.07 1230.1 398.36 1230.99 398.6 1231.89 398.81 1232.8 398.97 1233.72 399.1 1234.64 399.19 1235.57 399.24 1236.49 399.25 1237.42 399.22 1238.34 399.15 1239.26 399.04 1240.17 398.89 1241.08 398.71 1241.98 398.48 1242.86 398.22 1243.74 397.92 1244.6 397.58 1245.44 397.21 1246.27 396.79 1247.08 396.35 1247.88 395.87 1248.65 395.36 1249.39 394.81 1250.12 394.23 1250.82 393.63 1251.49 392.99 1252.13 392.33 1252.75 391.63 1253.33 390.92 1253.88 390.18 1254.4 389.41 1254.89 388.62 1255.35 387.82 1255.77 386.99 1256.15 386.15 1256.5 385.29 1256.81 384.42 1257.08 383.54 1257.31 382.64 1257.51 381.74 1257.67 380.83 1257.79 379.91 1257.87 378.99 1257.91 378.06 1257.91 377.14 1257.87 376.21 1257.79 375.29 1257.67 374.37 1257.51 373.46 1257.31 372.56 1257.08 371.66 1256.81 370.78 1256.5 369.91 1256.15 369.05 1255.77 368.21 1255.35 367.38 1254.89 366.58 1254.4 365.79 1253.88 365.02 1253.33 364.28 1252.75 363.57 1252.13 362.87 1251.49 362.21 1250.82 361.57 1250.12 360.97 1249.39 360.39 1248.65 359.84 1247.88 359.33 1247.09 358.85 1246.27 358.41 1245.44 357.99 1244.6 357.62 1243.74 357.28 1242.86 356.98 1241.98 356.72 1241.08 356.49 1240.17 356.31 1239.26 356.16 1238.34 356.05 1237.42 355.98 1236.49 355.95 1235.57 355.96 1234.64 356.01 1233.72 356.1 1232.8 356.23 1231.89 356.39 1230.99 356.6 1230.1 356.84 1229.22 357.13 1228.35 357.45 1227.5 357.8 1226.66 358.2 1225.84 358.62 1225.04 359.09 1224.26 359.58 1223.5 360.11 1222.76 360.67 1222.05 361.27 1221.37 361.89 1220.71 362.54 1220.08 363.22 1219.48 363.92 1218.91 364.65 1218.37 365.4 1217.87 366.18 1217.4 366.98 1216.96 367.79 1216.56 368.63 1216.19 369.48 1215.86 370.34 1215.57 371.22 1215.32 372.11 1215.1 373.01 1214.93 373.92 1214.79 374.83 1214.69 375.75 1214.63 376.67 1214.61 377.6" fill="none" stroke-width="0"/><use xlink:href="#u10eDWgtFUNMWLQHqIux_pad-11" x="1310.67" y="377.99"/><use xlink:href="#u10eDWgtFUNMWLQHqIux_pad-11" x="1310.67" y="477.99"/><use xlink:href="#u10eDWgtFUNMWLQHqIux_pad-11" x="1311.06" y="577.6"/><use xlink:href="#u10eDWgtFUNMWLQHqIux_pad-11" x="1062.24" y="577.6"/><use xlink:href="#u10eDWgtFUNMWLQHqIux_pad-11" x="1062.64" y="477.99"/><use xlink:href="#u10eDWgtFUNMWLQHqIux_pad-11" x="1062.64" y="377.99"/><use xlink:href="#u10eDWgtFUNMWLQHqIux_pad-11" x="483.9" y="377.99"/><use xlink:href="#u10eDWgtFUNMWLQHqIux_pad-11" x="483.9" y="477.99"/><use xlink:href="#u10eDWgtFUNMWLQHqIux_pad-11" x="484.29" y="577.6"/><use xlink:href="#u10eDWgtFUNMWLQHqIux_pad-11" x="235.47" y="577.6"/><use xlink:href="#u10eDWgtFUNMWLQHqIux_pad-11" x="235.87" y="477.99"/><use xlink:href="#u10eDWgtFUNMWLQHqIux_pad-11" x="235.87" y="377.99"/><path d="M 235.87 477.99 235.87 487.74 275.14 527.01 525.14 527.01 550.14 552.01 550.14 614.51 575.14 639.51 M 525.14 639.51 525.14 664.51 537.64 677.01 687.64 677.01 712.64 652.01 712.64 564.51 M 750.14 552.01 712.64 514.51 700.14 514.51 663.62 477.99 483.9 477.99 M 550.14 439.51 550.14 389.51 538.62 377.99 483.9 377.99 M 562.64 514.51 650.14 514.51 662.64 527.01 M 750.14 477.01 825.14 552.01 M 750.14 477.01 750.14 389.51 M 484.29 577.6 484.29 598.66 525.14 639.51 M 237.64 577.01 237.05 577.6 235.47 577.6 M 1300.14 377.01 1301.12 377.99 1310.67 377.99" fill="none" stroke-width="16"/><use xlink:href="#u10eDWgtFUNMWLQHqIux_pad-13" x="1300.14" y="377.01"/><use xlink:href="#u10eDWgtFUNMWLQHqIux_pad-13" x="1312.64" y="427.01"/><use xlink:href="#u10eDWgtFUNMWLQHqIux_pad-13" x="1312.64" y="527.01"/><use xlink:href="#u10eDWgtFUNMWLQHqIux_pad-13" x="1000.14" y="677.01"/><use xlink:href="#u10eDWgtFUNMWLQHqIux_pad-13" x="975.14" y="552.01"/><use xlink:href="#u10eDWgtFUNMWLQHqIux_pad-13" x="987.64" y="464.51"/><use xlink:href="#u10eDWgtFUNMWLQHqIux_pad-13" x="825.14" y="552.01"/><use xlink:href="#u10eDWgtFUNMWLQHqIux_pad-13" x="750.14" y="552.01"/><use xlink:href="#u10eDWgtFUNMWLQHqIux_pad-13" x="712.64" y="564.51"/><use xlink:href="#u10eDWgtFUNMWLQHqIux_pad-13" x="662.64" y="527.01"/><use xlink:href="#u10eDWgtFUNMWLQHqIux_pad-13" x="562.64" y="514.51"/><use xlink:href="#u10eDWgtFUNMWLQHqIux_pad-13" x="550.14" y="439.51"/><use xlink:href="#u10eDWgtFUNMWLQHqIux_pad-13" x="500.14" y="427.01"/><use xlink:href="#u10eDWgtFUNMWLQHqIux_pad-13" x="362.64" y="427.01"/><use xlink:href="#u10eDWgtFUNMWLQHqIux_pad-13" x="237.64" y="427.01"/><use xlink:href="#u10eDWgtFUNMWLQHqIux_pad-13" x="237.64" y="527.01"/><use xlink:href="#u10eDWgtFUNMWLQHqIux_pad-13" x="237.64" y="577.01"/><use xlink:href="#u10eDWgtFUNMWLQHqIux_pad-13" x="575.14" y="639.51"/><use xlink:href="#u10eDWgtFUNMWLQHqIux_pad-13" x="775.14" y="714.51"/><use xlink:href="#u10eDWgtFUNMWLQHqIux_pad-13" x="650.14" y="427.01"/><use xlink:href="#u10eDWgtFUNMWLQHqIux_pad-13" x="687.64" y="389.51"/><use xlink:href="#u10eDWgtFUNMWLQHqIux_pad-13" x="750.14" y="389.51"/><use xlink:href="#u10eDWgtFUNMWLQHqIux_pad-13" x="825.14" y="364.51"/><use xlink:href="#u10eDWgtFUNMWLQHqIux_pad-13" x="987.64" y="352.01"/><path d="M 1012.2 354.06 1020.99 345.28 1104.28 345.28 1110.52 351.51 1115.5 346.52 1128.97 340.94 1143.55 340.94 1157.02 346.52 1167.33 356.84 1172.91 370.31 1172.91 384.89 1167.33 398.36 1157.02 408.67 1143.55 414.25 1128.97 414.25 1115.5 408.67 1110.91 404.08 1104.28 410.71 1020.99 410.71 1012.2 401.92 1012.2 354.06 M 1014.48 351.78 532.05 351.78 M 534.33 354.06 525.54 345.28 442.25 345.28 435.63 351.9 430.25 346.52 416.78 340.94 402.2 340.94 388.73 346.52 378.41 356.84 372.83 370.31 372.83 384.89 378.41 398.36 388.73 408.67 402.2 414.25 416.78 414.25 430.25 408.67 435.23 403.69 442.25 410.71 525.54 410.71 527.14 409.11 527.14 424.18 523.04 428.28 523.04 445.28 442.25 445.28 435.63 451.9 430.25 446.52 416.78 440.94 402.2 440.94 388.73 446.52 378.41 456.84 372.83 470.31 372.83 484.89 378.41 498.36 384.06 504.01 334.91 504.01 340.56 498.36 346.14 484.89 346.14 470.31 340.56 456.84 330.25 446.52 316.78 440.94 302.2 440.94 288.73 446.52 283.74 451.51 277.51 445.28 205.2 445.28 205.2 410.71 232.01 410.71 232.01 381.85 239.72 381.85 239.72 410.71 273.27 410.71 277.09 409.69 280.51 407.71 283.3 404.92 283.91 403.86 288.73 408.67 302.2 414.25 316.78 414.25 330.25 408.67 340.56 398.36 346.14 384.89 346.14 370.31 340.56 356.84 330.25 346.52 316.78 340.94 302.2 340.94 288.73 346.52 283.63 351.63 283.3 351.07 280.51 348.27 277.09 346.3 273.27 345.28 239.72 345.28 239.72 374.13 232.01 374.13 232.01 345.28 209.98 345.28 216.03 339.23 224.81 335.59 229.57 335.12 468.73 335.12 488.71 326.84 488.71 326.84 488.71 326.84 504.01 311.55 504.01 311.55 512.28 291.56 512.28 246.38 513.01 245.41 512.28 240.31 512.28 235.16 512.07 234.95 513.88 227.9 518.52 221.72 525.16 217.78 528.32 217.01 993.99 217.01 994.73 217.6 1000.08 217.01 1005.47 217.01 1005.62 216.86 1006.7 216.84 1017.78 220.05 1026.79 227.26 1032.35 237.36 1033.46 242.6 1033.46 291.56 1041.74 311.55 1041.74 311.55 1057.04 326.84 1057.04 326.84 1077.02 335.12 1316.18 335.12 1320.94 335.59 1329.72 339.23 1335.77 345.28 1269.02 345.28 1262.4 351.9 1257.02 346.52 1243.55 340.94 1228.97 340.94 1215.5 346.52 1205.19 356.84 1199.61 370.31 1199.61 384.89 1205.19 398.36 1215.5 408.67 1228.97 414.25 1243.55 414.25 1257.02 408.67 1262 403.69 1269.02 410.71 1340.55 410.71 1340.55 445.28 1269.02 445.28 1262.4 451.9 1257.02 446.52 1243.55 440.94 1228.97 440.94 1215.5 446.52 1205.19 456.84 1199.61 470.31 1199.61 484.89 1205.19 498.36 1215.5 508.67 1228.97 514.25 1243.55 514.25 1257.02 508.67 1262 503.69 1269.02 510.71 1340.55 510.71 1340.55 544.88 1314.92 544.88 1314.92 573.74 1307.2 573.74 1307.2 544.88 1273.66 544.88 1269.84 545.9 1266.42 547.88 1263.63 550.67 1262.73 552.23 1257.02 546.52 1243.55 540.94 1228.97 540.94 1215.5 546.52 1205.19 556.84 1199.61 570.31 1199.61 584.89 1205.19 598.36 1215.5 608.67 1228.97 614.25 1243.55 614.25 1257.02 608.67 1262.73 602.97 1263.63 604.53 1266.42 607.32 1269.84 609.29 1273.66 610.31 1307.2 610.31 1307.2 581.46 1314.92 581.46 1314.92 610.31 1335.38 610.31 1329.72 615.97 1329.72 615.97 1320.94 619.61 1316.18 620.08 1077.02 620.08 1057.04 628.36 1057.04 628.36 1041.74 643.65 1041.74 643.65 1033.46 663.63 1033.46 713.82 1033 718.57 1029.36 727.36 1022.63 734.08 1013.85 737.72 1009.09 738.19 536.65 738.19 531.9 737.72 523.11 734.08 516.39 727.36 512.75 718.57 512.28 713.82 512.28 684.18 514.64 686.53 528.11 700.01 697.16 700.01 722.16 675.01 735.64 661.53 735.64 579.84 737.64 577.84 738.91 579.11 761.36 579.11 777.24 563.23 777.24 540.78 761.36 524.91 755.56 524.91 722.16 491.51 709.66 491.51 673.15 454.99 572.98 454.99 577.24 450.73 577.24 428.28 573.14 424.18 573.14 379.98 559.66 366.51 548.15 354.99 534.33 354.99 534.33 354.06 M 554.93 361.77 1012.2 361.77 M 1012.2 371.75 770.71 371.75 M 777.24 378.28 761.36 362.41 738.91 362.41 723.04 378.28 723.04 400.73 727.14 404.84 727.14 486.53 798.04 557.43 798.04 563.23 813.91 579.11 836.36 579.11 852.24 563.23 852.24 540.78 836.36 524.91 830.56 524.91 773.14 467.48 773.14 404.84 777.24 400.73 777.24 378.28 M 777.24 381.74 1012.2 381.74 M 1012.2 391.73 777.24 391.73 M 776.26 401.71 1012.2 401.71 M 1020.99 445.28 1104.28 445.28 1110.52 451.51 1115.5 446.52 1128.97 440.94 1143.55 440.94 1157.02 446.52 1167.33 456.84 1172.91 470.31 1172.91 484.89 1167.33 498.36 1157.02 508.67 1143.55 514.25 1128.97 514.25 1115.5 508.67 1110.91 504.08 1104.28 510.71 1020.99 510.71 1012.2 501.92 1012.2 454.06 1020.99 445.28 M 1014.63 451.64 773.14 451.64 M 773.14 461.62 1012.2 461.62 M 1012.2 471.61 777.26 471.61 M 787.25 481.59 1012.2 481.59 M 1012.2 491.58 797.23 491.58 M 807.22 501.56 1012.2 501.56 M 1020.6 544.88 1103.89 544.88 1110.52 551.51 1115.5 546.52 1128.97 540.94 1143.55 540.94 1157.02 546.52 1167.33 556.84 1172.91 570.31 1172.91 584.89 1167.33 598.36 1157.02 608.67 1143.55 614.25 1128.97 614.25 1115.5 608.67 1110.52 603.69 1103.89 610.31 1020.6 610.31 1011.81 601.53 1011.81 553.67 1020.6 544.88 M 1013.99 551.49 852.24 551.49 M 852.24 561.47 1011.81 561.47 M 1011.81 571.46 844.02 571.46 M 806.26 571.46 769.02 571.46 M 777.24 561.47 798.04 561.47 M 792.09 551.49 777.24 551.49 M 777.24 541.5 782.1 541.5 M 772.12 531.52 767.97 531.52 M 762.13 521.53 752.19 521.53 M 752.15 511.55 742.2 511.55 M 742.16 501.56 732.22 501.56 M 732.18 491.58 722.23 491.58 M 727.14 481.59 699.75 481.59 M 689.76 471.61 727.14 471.61 M 727.14 461.62 679.78 461.62 M 727.14 451.64 576.34 451.64 M 577.24 441.65 727.14 441.65 M 727.14 431.67 577.24 431.67 M 573.14 421.68 727.14 421.68 M 727.14 411.7 573.14 411.7 M 573.14 401.71 724.01 401.71 M 723.04 391.73 573.14 391.73 M 573.14 381.74 723.04 381.74 M 729.56 371.75 564.91 371.75 M 527.14 411.7 422.95 411.7 M 396.03 411.7 322.95 411.7 M 337.21 401.71 381.76 401.71 M 375.67 391.73 343.31 391.73 M 346.14 381.74 372.83 381.74 M 372.83 371.75 346.14 371.75 M 342.61 361.77 376.37 361.77 M 383.47 351.78 335.51 351.78 M 318.84 341.8 400.13 341.8 M 418.84 341.8 1126.91 341.8 M 1145.61 341.8 1226.91 341.8 M 1245.61 341.8 1332.29 341.8 M 1262.51 351.78 1262.28 351.78 M 1210.24 351.78 1162.28 351.78 M 1169.38 361.77 1203.14 361.77 M 1199.61 371.75 1172.91 371.75 M 1172.91 381.74 1199.61 381.74 M 1202.44 391.73 1170.08 391.73 M 1163.98 401.71 1208.54 401.71 M 1222.8 411.7 1149.72 411.7 M 1122.8 411.7 773.14 411.7 M 773.14 421.68 1340.55 421.68 M 1340.55 411.7 1249.72 411.7 M 1245.25 441.65 1340.55 441.65 M 1340.55 431.67 773.14 431.67 M 773.14 441.65 1127.27 441.65 M 1145.25 441.65 1227.27 441.65 M 1210.39 451.64 1162.13 451.64 M 1169.32 461.62 1203.2 461.62 M 1199.61 471.61 1172.91 471.61 M 1172.91 481.59 1199.61 481.59 M 1202.38 491.58 1170.14 491.58 M 1164.13 501.56 1208.39 501.56 M 1222.44 511.55 1150.08 511.55 M 1122.44 511.55 817.2 511.55 M 827.19 521.53 1340.55 521.53 M 1340.55 511.55 1250.08 511.55 M 1244.89 541.5 1340.55 541.5 M 1340.55 531.52 842.97 531.52 M 852.24 541.5 1127.62 541.5 M 1144.89 541.5 1227.62 541.5 M 1210.54 551.49 1161.98 551.49 M 1169.25 561.47 1203.27 561.47 M 1199.61 571.46 1172.91 571.46 M 1172.91 581.44 1199.61 581.44 M 1202.31 591.43 1170.21 591.43 M 1164.28 601.41 1208.24 601.41 M 1222.08 611.4 1150.44 611.4 M 1122.08 611.4 735.64 611.4 M 735.64 621.38 1073.87 621.38 M 1054.02 631.37 735.64 631.37 M 735.64 641.35 1044.04 641.35 M 1038.56 651.34 735.64 651.34 M 735.64 661.32 1034.42 661.32 M 1033.46 671.31 725.86 671.31 M 715.88 681.29 1033.46 681.29 M 1033.46 691.28 705.89 691.28 M 735.64 601.41 1011.81 601.41 M 1011.81 591.43 735.64 591.43 M 735.64 581.44 1011.81 581.44 M 1110.5 551.49 1110.54 551.49 M 1250.44 611.4 1334.29 611.4 M 1314.92 601.41 1307.2 601.41 M 1307.2 591.43 1314.92 591.43 M 1314.92 571.46 1307.2 571.46 M 1307.2 561.47 1314.92 561.47 M 1314.92 551.49 1307.2 551.49 M 1263.16 551.49 1261.98 551.49 M 1262.13 451.64 1262.66 451.64 M 1069.04 331.81 476.7 331.81 M 493.72 321.83 1052.02 321.83 M 1042.04 311.84 503.71 311.84 M 508.02 301.86 1037.73 301.86 M 1033.59 291.87 512.15 291.87 M 512.28 281.89 1033.46 281.89 M 1033.46 271.9 512.28 271.9 M 512.28 261.92 1033.46 261.92 M 1033.46 251.93 512.28 251.93 M 512.52 241.95 1033.33 241.95 M 1029.38 231.96 512.84 231.96 M 518.32 221.98 1020.19 221.98 M 527.14 421.68 205.2 421.68 M 205.2 411.7 296.03 411.7 M 300.49 441.65 205.2 441.65 M 205.2 431.67 523.04 431.67 M 523.04 441.65 418.48 441.65 M 400.49 441.65 318.48 441.65 M 335.36 451.64 383.61 451.64 M 376.43 461.62 342.54 461.62 M 346.14 471.61 372.83 471.61 M 372.83 481.59 346.14 481.59 M 343.37 491.58 375.6 491.58 M 381.62 501.56 337.36 501.56 M 260.49 544.88 252.14 536.53 226.31 510.71 205.2 510.71 205.2 544.88 260.49 544.88 M 257.1 541.5 205.2 541.5 M 205.2 531.52 247.12 531.52 M 237.13 521.53 205.2 521.53 M 205.2 511.55 227.15 511.55 M 232.01 401.71 239.72 401.71 M 239.72 391.73 232.01 391.73 M 232.01 371.75 239.72 371.75 M 239.72 361.77 232.01 361.77 M 232.01 351.78 239.72 351.78 M 213.45 341.8 300.13 341.8 M 435.51 351.78 435.74 351.78 M 435.36 451.64 435.89 451.64 M 512.28 691.28 519.38 691.28 M 512.28 701.26 1033.46 701.26 M 1033.46 711.25 512.28 711.25 M 513.85 721.23 1031.89 721.23 M 1025.5 731.22 520.25 731.22" fill="none" stroke-width="10"/></g></svg>